<?xml version="1.0" encoding="UTF-8" standalone="no"?>
<!-- Generator: Adobe Illustrator 21.0.0, SVG Export Plug-In . SVG Version: 6.00 Build 0)  -->

<svg
   xmlns:dc="http://purl.org/dc/elements/1.1/"
   xmlns:cc="http://creativecommons.org/ns#"
   xmlns:rdf="http://www.w3.org/1999/02/22-rdf-syntax-ns#"
   xmlns:svg="http://www.w3.org/2000/svg"
   xmlns="http://www.w3.org/2000/svg"
   xmlns:sodipodi="http://sodipodi.sourceforge.net/DTD/sodipodi-0.dtd"
   xmlns:inkscape="http://www.inkscape.org/namespaces/inkscape"
   version="1.1"
   id="Capa_1"
   x="0px"
   y="0px"
   viewBox="0 0 1181.9 438"
   style="enable-background:new 0 0 1181.9 438;"
   xml:space="preserve"
   sodipodi:docname="book-background.svg"
   inkscape:version="0.92.4 (5da689c313, 2019-01-14)"><metadata
   id="metadata331"><rdf:RDF><cc:Work
       rdf:about=""><dc:format>image/svg+xml</dc:format><dc:type
         rdf:resource="http://purl.org/dc/dcmitype/StillImage" /></cc:Work></rdf:RDF></metadata><defs
   id="defs329" /><sodipodi:namedview
   pagecolor="#ffffff"
   bordercolor="#666666"
   borderopacity="1"
   objecttolerance="10"
   gridtolerance="10"
   guidetolerance="10"
   inkscape:pageopacity="0"
   inkscape:pageshadow="2"
   inkscape:window-width="880"
   inkscape:window-height="480"
   id="namedview327"
   showgrid="false"
   inkscape:zoom="0.74625601"
   inkscape:cx="450.78295"
   inkscape:cy="127.49367"
   inkscape:window-x="892"
   inkscape:window-y="196"
   inkscape:window-maximized="0"
   inkscape:current-layer="Capa_1" />
<style
   type="text/css"
   id="style2">
	.st0{fill:#43821B;}
	.st1{fill:#53BC24;}
	.st2{fill:#FFFFFF;fill-opacity:0.6;}
	.st3{enable-background:new    ;}
	.st4{fill:#311C3B;}
	.st5{fill:#F1D7D5;}
	.st6{fill:#F5E6E5;}
	.st7{fill:#FFB442;}
	.st8{fill:#FF6D3A;}
	.st9{fill:#C169FF;}
	.st10{fill:none;stroke:#4470B3;stroke-width:13.21;stroke-linecap:round;stroke-linejoin:round;}
	.st11{fill:#234D89;}
	.st12{fill:#4470B3;}
	.st13{fill:#9AA0A9;}
	.st14{fill:#B4BBC6;}
	.st15{fill:#777B80;}
	.st16{fill:#ECD318;}
	.st17{fill:none;stroke:#466931;stroke-width:0.67;stroke-miterlimit:10;}
	.st18{fill:#9196C8;}
	.st19{fill:#3E415F;}
	.st20{fill:#C17645;}
	.st21{fill:#8B5632;}
	.st22{fill:#868CC3;}
	.st23{fill:#BA6516;}
	.st24{fill:#EC7E16;}
	.st25{fill:none;stroke:#F0A15B;stroke-width:1.77;stroke-linecap:round;}
	.st26{fill:#FFFFFF;}
	.st27{fill:#3E57A3;}
	.st28{fill:#516BAF;}
	.st29{fill:none;stroke:#8093C9;stroke-width:2.05;stroke-linecap:round;}
	.st30{fill:#D1D0CF;}
	.st31{fill:#484F59;}
	.st32{fill:#353F49;}
	.st33{fill:#FFCA55;}
	.st34{fill:#F5A41A;}
	.st35{fill:#F49120;}
	.st36{fill:#EAE9EA;}
	.st37{fill:#3C58A0;}
	.st38{fill:#4B67AB;}
	.st39{fill:none;stroke:#8093C9;stroke-width:1.97;stroke-linecap:round;}
</style>
<title
   id="title4">Elementos-Scroll-App</title>
<path
   class="st0"
   d="M423.1,34.3l105-14.4l12.5,91.4l-105,14.4l-2.5-18.2c-5-36.6-25.3,33.2-33-23.4s30.5,5.2,25.5-31.4L423.1,34.3z  "
   id="path6"
   style="opacity:0.12239583" />
<path
   class="st1"
   d="M418.9,31.1L524,16.7l12.5,91.5l-105.1,14.4l-2.5-18.2c-5-36.6-25.3,33.2-33-23.4s30.5,5.2,25.5-31.4  L418.9,31.1z"
   id="path8"
   style="opacity:0.12239583" />
<path
   class="st2"
   d="M433,122.3c-0.9,0-1.7-0.7-1.8-1.6l-3-21.9c-0.1-1,0.6-1.9,1.6-2.1c1-0.1,1.9,0.6,2.1,1.6l3,21.9  c0.1,1-0.6,1.9-1.6,2.1l0,0H433z M402.9,102.2c-0.7,0-1.4-0.4-1.7-1.1c-5.6-13-7.6-27.2-5.6-41.2c0.1-1,1.1-1.7,2.1-1.6  c1,0.1,1.7,1.1,1.6,2.1c-1.9,13.3-0.1,26.9,5.3,39.2c0.4,0.9,0,2-1,2.4C403.4,102.1,403.1,102.2,402.9,102.2L402.9,102.2z M424.9,62  c-0.9,0-1.7-0.7-1.8-1.6l-3.7-27c0-0.1-0.1-0.3-0.1-0.4c0-0.1,0-0.3,0-0.4l-0.2-1.4l1.5-0.2l0.3-0.1L522.2,17c1-0.1,1.9,0.6,2.1,1.6  c0.1,1-0.6,1.9-1.6,2.1l-99.3,13.5l-0.3,0.1l3.5,25.6c0.1,1-0.6,1.9-1.6,2.1l0,0L424.9,62z"
   id="path10"
   style="opacity:0.12239583" />
<path
   class="st2"
   d="M454.3,44.9l39.3-5.4c8.1-1.1,15.5,4.5,16.6,12.6l4,29.2c1.1,8.1-4.5,15.5-12.6,16.6l-39.3,5.4  c-8.1,1.1-15.5-4.5-16.6-12.6l-4-29.2C440.6,53.5,446.2,46.1,454.3,44.9z"
   id="path12"
   style="opacity:0.12239583" />
<g
   class="st3"
   id="g16"
   style="enable-background:new;opacity:0.12239583">
	<path
   class="st4"
   d="m 472.8,59.1 c 0.4,-1.1 1,-2 1.7,-2.5 0.7,-0.5 1.5,-0.8 2.5,-1 0.5,-0.1 1,-0.1 1.5,0 0.5,0.1 0.9,0.2 1.3,0.5 0.4,0.3 0.7,0.6 1,1.1 0.3,0.5 0.5,1 0.6,1.7 l 2.4,16.7 2.6,-0.4 c 0.3,0 0.6,0 0.9,0 0.3,0.1 0.5,0.2 0.7,0.4 0.2,0.2 0.3,0.4 0.5,0.6 0.1,0.2 0.2,0.5 0.2,0.7 0,0.2 0,0.5 0,0.7 0,0.2 -0.1,0.5 -0.3,0.7 -0.1,0.2 -0.3,0.4 -0.5,0.5 -0.2,0.1 -0.5,0.2 -0.8,0.3 l -2.6,0.4 0.5,3.9 c 0.1,0.4 0,0.8 -0.1,1.1 -0.1,0.3 -0.3,0.6 -0.5,0.9 -0.2,0.2 -0.5,0.4 -0.8,0.6 -0.3,0.2 -0.6,0.3 -0.9,0.3 -0.3,0 -0.7,0 -1,0 -0.3,-0.1 -0.6,-0.2 -0.9,-0.4 -0.3,-0.2 -0.5,-0.4 -0.7,-0.7 -0.2,-0.3 -0.3,-0.6 -0.4,-1 l -0.5,-3.9 -11.8,1.7 c -0.8,0.1 -1.5,0 -2.1,-0.4 -0.5,-0.4 -0.9,-0.9 -1,-1.6 0,-0.2 0,-0.5 0,-0.8 0,-0.3 0.1,-0.6 0.2,-0.9 z m -4,18.7 9.7,-1.4 -2.3,-16 z"
   id="path14"
   inkscape:connector-curvature="0"
   style="fill:#311c3b" />
</g>
<g
   id="g26"
   style="opacity:0.12239583">
	<path
   class="st5"
   d="m 834.3,291 76,15.8 c 5.3,1.1 8.7,6.3 7.6,11.5 l -15.6,75.1 c -1.1,5.3 -6.3,8.7 -11.5,7.6 l -76,-15.8 c -5.3,-1.1 -8.7,-6.3 -7.6,-11.5 l 15.6,-75.1 c 1.1,-5.3 6.2,-8.7 11.5,-7.6 z"
   id="path18"
   inkscape:connector-curvature="0"
   style="fill:#f1d7d5" />
	<path
   class="st6"
   d="m 841.2,297.1 61,12.6 c 2.6,0.5 4.3,3.1 3.8,5.7 v 0 0 L 891.6,385 c -0.5,2.6 -3.1,4.3 -5.7,3.8 v 0 l -61,-12.6 c -2.6,-0.5 -4.3,-3.1 -3.8,-5.7 v 0 l 14.4,-69.6 c 0.5,-2.6 3,-4.3 5.7,-3.8 z"
   id="path20"
   inkscape:connector-curvature="0"
   style="fill:#f5e6e5" />
	<g
   class="st3"
   id="g24"
   style="enable-background:new">
		<path
   class="st4"
   d="m 861.6,340.7 c 0.7,0.1 1.3,0.2 1.9,0.2 0.6,0 1.1,-0.1 1.6,-0.4 0.5,-0.2 0.9,-0.5 1.2,-0.9 0.3,-0.4 0.6,-0.9 0.7,-1.5 0.1,-0.6 0.1,-1.1 0,-1.5 -0.1,-0.5 -0.4,-0.9 -0.7,-1.3 -0.3,-0.4 -0.8,-0.7 -1.3,-0.9 -0.5,-0.2 -1.1,-0.4 -1.7,-0.6 -0.5,-0.1 -1,-0.2 -1.6,-0.2 -0.6,0 -1.1,-0.1 -1.7,-0.1 h -1.2 c -0.3,0 -0.6,0 -0.7,0 -0.2,0 -0.3,0 -0.5,-0.1 -0.7,-0.2 -1.3,-0.5 -1.6,-1 -0.4,-0.5 -0.5,-1.1 -0.4,-1.8 0.2,-1.1 1.1,-1.8 2.7,-2.2 1.5,-0.4 3.8,-0.3 6.7,0.3 1.7,0.3 3.1,0.8 4.4,1.5 1.2,0.6 2.2,1.4 3,2.3 0.8,0.9 1.3,1.8 1.5,2.9 0.3,1 0.3,2.1 0.1,3.3 -0.2,0.8 -0.5,1.5 -0.9,2.2 -0.4,0.7 -0.9,1.2 -1.5,1.7 -0.6,0.5 -1.2,0.8 -1.9,1.1 -0.7,0.3 -1.4,0.4 -2.1,0.4 v 0.1 c 0.9,0.3 1.6,0.8 2.2,1.3 0.6,0.5 1.1,1.2 1.4,1.8 0.3,0.7 0.6,1.4 0.6,2.3 0.1,0.8 0,1.7 -0.2,2.6 -0.3,1.4 -0.8,2.6 -1.6,3.5 -0.8,0.9 -1.7,1.6 -2.9,2 -1.2,0.4 -2.4,0.7 -3.8,0.7 -1.4,0 -2.9,-0.1 -4.4,-0.4 -0.5,-0.1 -1,-0.2 -1.5,-0.4 -0.5,-0.2 -1.1,-0.4 -1.6,-0.6 -0.6,-0.2 -1.1,-0.5 -1.6,-0.8 -0.5,-0.3 -1,-0.6 -1.5,-0.9 -0.7,-0.4 -1.2,-0.9 -1.5,-1.4 -0.3,-0.5 -0.4,-1.1 -0.3,-1.7 0.1,-0.3 0.2,-0.6 0.4,-0.9 0.2,-0.3 0.4,-0.5 0.7,-0.6 0.3,-0.2 0.6,-0.3 0.9,-0.3 0.3,-0.1 0.7,0 1.1,0 h 0.2 c 0.3,0.1 0.6,0.3 1,0.5 0.4,0.2 0.8,0.4 1.2,0.6 0.4,0.2 0.9,0.4 1.4,0.6 0.5,0.2 1,0.3 1.6,0.5 0.7,0.1 1.3,0.2 1.9,0.2 0.6,0 1.1,-0.1 1.6,-0.3 0.5,-0.2 0.9,-0.5 1.2,-0.9 0.3,-0.4 0.6,-0.9 0.7,-1.5 0.3,-1.3 0,-2.3 -0.7,-3.2 -0.8,-0.9 -1.9,-1.5 -3.6,-1.8 l -1.4,-0.3 c -0.7,-0.1 -1.1,-0.5 -1.4,-1 -0.3,-0.5 -0.4,-1 -0.2,-1.6 0.1,-0.3 0.2,-0.5 0.3,-0.8 0.1,-0.2 0.3,-0.5 0.5,-0.6 0.2,-0.2 0.5,-0.3 0.8,-0.4 0.3,-0.1 0.6,-0.1 1,0 z"
   id="path22"
   inkscape:connector-curvature="0"
   style="fill:#311c3b" />
	</g>
</g>
<path
   class="st5"
   d="M638.3,41.2c-3.3,23-6.5,46.1-9.7,69.2l20.1-10.2l5.6,19.5l12-3l-5.6-19.5l23-0.4  C668.5,78.3,653.3,59.8,638.3,41.2z"
   id="path28"
   style="opacity:0.12239583" />
<polygon
   class="st7"
   points="248.5,159.1 256.8,191.7 289.4,200 256.8,208.4 248.5,241 240.1,208.4 207.5,200 240.1,191.7 "
   id="polygon30"
   style="opacity:0.12239583" />
<polygon
   class="st8"
   points="51.1,332.2 56.2,352.3 76.3,357.5 56.2,362.6 51.1,382.7 46,362.6 25.9,357.5 46,352.3 "
   id="polygon32"
   style="opacity:0.12239583" />
<polygon
   class="st9"
   points="133.3,363.7 138.4,383.8 158.5,388.9 138.4,394.1 133.3,414.2 128.1,394.1 108,388.9 128.1,383.8 "
   id="polygon34"
   style="opacity:0.12239583" />
<polygon
   class="st4"
   points="418.8,338.8 424,358.9 444.1,364 424,369.2 418.8,389.3 413.7,369.2 393.6,364 413.7,358.9 "
   id="polygon36"
   style="opacity:0.12239583" />
<polygon
   class="st4"
   points="1139.1,207.4 1144.3,227.5 1164.4,232.6 1144.3,237.7 1139.1,257.8 1134,237.7 1113.9,232.6   1134,227.5 "
   id="polygon38"
   style="opacity:0.12239583" />
<polygon
   class="st8"
   points="501,325 503.8,336 514.7,338.8 503.8,341.6 501,352.6 498.2,341.6 487.2,338.8 498.2,336 "
   id="polygon40"
   style="opacity:0.12239583" />
<polygon
   class="st7"
   points="586.6,366.2 589.9,379.1 602.8,382.4 589.9,385.7 586.6,398.5 583.3,385.7 570.4,382.4 583.3,379.1 "
   id="polygon42"
   style="opacity:0.12239583" />
<polygon
   class="st1"
   points="758.1,29.9 760.9,40.8 771.8,43.6 760.9,46.4 758.1,57.4 755.2,46.4 744.3,43.6 755.2,40.8 "
   id="polygon44"
   style="opacity:0.12239583" />
<polygon
   class="st9"
   points="791.8,72.6 795.1,85.5 807.9,88.8 795.1,92.1 791.8,105 788.5,92.1 775.6,88.8 788.5,85.5 "
   id="polygon46"
   style="opacity:0.12239583" />
<polygon
   class="st9"
   points="1155.2,149.4 1158.5,162.3 1171.4,165.5 1158.5,168.8 1155.2,181.7 1151.9,168.8 1139.1,165.5   1151.9,162.3 "
   id="polygon48"
   style="opacity:0.12239583" />
<g
   id="g64"
   style="opacity:0.12239583">
	<path
   class="st10"
   d="m 134.6,252.3 c 0,0 88.1,2.5 68.7,50.7 -19.4,48.2 78.9,68.4 99.4,91.2"
   id="path50"
   inkscape:connector-curvature="0"
   style="fill:none;stroke:#4470b3;stroke-width:13.21000004;stroke-linecap:round;stroke-linejoin:round" />
	<path
   class="st11"
   d="m 38.9,225.8 h 73.3 c 3.8,0 6.9,3.1 6.9,6.9 V 278 c 0,3.8 -3.1,6.9 -6.9,6.9 H 38.9 c -3.8,0 -6.9,-3.1 -6.9,-6.9 v -45.3 c 0,-3.8 3.1,-6.9 6.9,-6.9 z"
   id="path52"
   inkscape:connector-curvature="0"
   style="fill:#234d89" />
	<path
   class="st11"
   d="m 115.3,275.5 c 0,0 8.4,-10.8 26.3,-12.3 V 241 c 0,0 -16.4,0 -26.1,-10.4"
   id="path54"
   inkscape:connector-curvature="0"
   style="fill:#234d89" />
	<rect
   x="29.9"
   y="226.2"
   class="st12"
   width="21.6"
   height="58.700001"
   id="rect56"
   style="fill:#4470b3" />
	<rect
   x="22"
   y="236.10001"
   class="st13"
   width="19.6"
   height="38.799999"
   id="rect58"
   style="fill:#9aa0a9" />
	<rect
   x="16.6"
   y="236.10001"
   class="st14"
   width="10.5"
   height="38.799999"
   id="rect60"
   style="fill:#b4bbc6" />
	<rect
   x="19"
   y="240"
   class="st15"
   width="5.8000002"
   height="30.9"
   id="rect62"
   style="fill:#777b80" />
</g>
<polygon
   class="st16"
   points="354.2,250.2 352.1,264.6 424.7,275.2 425.9,267.2 431.3,268 430.1,276 664.3,309.9 665.5,301.5   670.2,302.2 669,310.6 731.5,319.7 733.6,305.2 "
   id="polygon66"
   style="opacity:0.12239583" />
<path
   class="st1"
   d="M742.2,289.9c-6.3-0.6-10.8-6.2-10.2-12.5s6.2-10.8,12.5-10.2c0.3,0,0.7,0.1,1,0.2c0.8,0.1,1.6,0.3,2.3,0.6  l1.8-12.4c-0.8,0-1.6,0-2.4-0.1c-6.3-0.6-10.8-6.2-10.2-12.5s6.2-10.8,12.5-10.2c0.3,0,0.7,0.1,1,0.2c0.8,0.1,1.6,0.3,2.3,0.6v-0.4  c1.4-9.7-3.9-18.6-11.8-19.8l-374.6-54.3c-7.9-1.1-15.6,5.9-17,15.6v0.2c6.1,1.3,10,7.4,8.7,13.5c-1.2,5.5-6.3,9.3-11.9,8.9  l-1.8,12.1c6.1,1.3,10,7.4,8.7,13.5c-1.2,5.5-6.3,9.3-11.9,8.9l-0.6,4.2c-1.4,9.7,3.9,18.6,11.9,19.8L727,310.1  c7.9,1.1,15.6-5.9,17-15.6l0.6-4.3C743.8,290.1,743,290,742.2,289.9z"
   id="path68"
   style="opacity:0.12239583" />
<path
   class="st0"
   d="M744.5,290c-0.8,0-1.6,0-2.4-0.1c-6.3-0.6-10.8-6.2-10.2-12.5s6.2-10.8,12.5-10.2c0.3,0,0.7,0.1,1,0.2  c0.8,0.1,1.6,0.3,2.3,0.6l1.8-12.4c-0.8,0-1.6,0-2.4-0.1c-6.3-0.6-10.8-6.2-10.2-12.5s6.2-10.8,12.5-10.2c0.3,0,0.7,0.1,1,0.2  c0.8,0.1,1.6,0.3,2.3,0.6v-0.4c1.4-9.7-3.9-18.6-11.8-19.8l-120.6-17.5l-12.7,41l-118.2-17.1l-10.8,23.9l-126.4-18.5  c-2.1,4.2-6.5,6.7-11.1,6.4l-0.6,4.2c-1.4,9.7,3.9,18.6,11.9,19.8l374.5,54.3c7.9,1.1,15.6-5.9,17-15.6L744.5,290z"
   id="path70"
   style="opacity:0.12239583" />
<path
   class="st17"
   d="M340.6,240c0,0,263.8,35.9,265.6,38.5c0.7,1,4.5,4.6,6.1,6.8c0.8,1.1,1.9,1.9,3.2,2.1l90.6,13.9l12.9-38.4  l28.9,4.2"
   id="path72"
   style="opacity:0.12239583" />
<rect
   x="357.4"
   y="189.9"
   transform="matrix(0.1435 -0.9897 0.9897 0.1435 124.4769 568.3674)"
   class="st18"
   width="66.3"
   height="44.8"
   id="rect74"
   style="opacity:0.12239583" />
<rect
   x="362.8"
   y="192.5"
   transform="matrix(0.1435 -0.9897 0.9897 0.1435 125.5122 567.9338)"
   class="st19"
   width="56.1"
   height="37.9"
   id="rect76"
   style="opacity:0.12239583" />
<rect
   x="418.7"
   y="198.8"
   transform="matrix(0.1435 -0.9897 0.9897 0.1435 168.1749 636.6346)"
   class="st18"
   width="66.3"
   height="44.8"
   id="rect78"
   style="opacity:0.12239583" />
<rect
   x="424.1"
   y="201.4"
   transform="matrix(0.1435 -0.9897 0.9897 0.1435 169.2224 636.2198)"
   class="st19"
   width="56.1"
   height="37.9"
   id="rect80"
   style="opacity:0.12239583" />
<rect
   x="480.1"
   y="207.6"
   transform="matrix(0.1435 -0.9897 0.9897 0.1435 211.9015 704.9254)"
   class="st18"
   width="66.3"
   height="44.8"
   id="rect82"
   style="opacity:0.12239583" />
<rect
   x="486.4"
   y="208.4"
   transform="matrix(0.14 -0.9902 0.9902 0.14 217.3715 704.9077)"
   class="st19"
   width="56.1"
   height="37.9"
   id="rect84"
   style="opacity:0.12239583" />
<rect
   x="541.3"
   y="216.5"
   transform="matrix(0.1435 -0.9897 0.9897 0.1435 255.5551 773.1229)"
   class="st18"
   width="66.3"
   height="44.8"
   id="rect86"
   style="opacity:0.12239583" />
<rect
   x="546.7"
   y="219.2"
   transform="matrix(0.1435 -0.9897 0.9897 0.1435 256.6635 772.7825)"
   class="st19"
   width="56.1"
   height="37.9"
   id="rect88"
   style="opacity:0.12239583" />
<rect
   x="602.6"
   y="225.4"
   transform="matrix(0.1435 -0.9897 0.9897 0.1435 299.2866 841.3972)"
   class="st18"
   width="66.3"
   height="44.8"
   id="rect90"
   style="opacity:0.12239583" />
<rect
   x="608"
   y="228"
   transform="matrix(0.1435 -0.9897 0.9897 0.1435 300.3195 840.963)"
   class="st19"
   width="56.1"
   height="37.9"
   id="rect92"
   style="opacity:0.12239583" />
<rect
   x="663.9"
   y="234.3"
   transform="matrix(0.1435 -0.9897 0.9897 0.1435 342.9962 909.6855)"
   class="st18"
   width="66.3"
   height="44.8"
   id="rect94"
   style="opacity:0.12239583" />
<rect
   x="669.3"
   y="236.9"
   transform="matrix(0.1435 -0.9897 0.9897 0.1435 344.0436 909.2709)"
   class="st19"
   width="56.1"
   height="37.9"
   id="rect96"
   style="opacity:0.12239583" />
<rect
   x="369.5"
   y="241.5"
   transform="matrix(0.1435 -0.9897 0.9897 0.1435 71.4132 581.7486)"
   class="st20"
   width="4.5"
   height="16.3"
   id="rect98"
   style="opacity:0.12239583" />
<rect
   x="386.9"
   y="244"
   transform="matrix(0.1435 -0.9897 0.9897 0.1435 83.7946 601.1482)"
   class="st20"
   width="4.5"
   height="16.3"
   id="rect100"
   style="opacity:0.12239583" />
<rect
   x="370.9"
   y="243"
   transform="matrix(0.1435 -0.9897 0.9897 0.1435 69.6718 582.8416)"
   class="st21"
   width="1.3"
   height="16.3"
   id="rect102"
   style="opacity:0.12239583" />
<rect
   x="388.3"
   y="245.6"
   transform="matrix(0.1435 -0.9897 0.9897 0.1435 82.0623 602.2795)"
   class="st21"
   width="1.3"
   height="16.3"
   id="rect104"
   style="opacity:0.12239583" />
<rect
   x="433.4"
   y="250.7"
   transform="matrix(0.1435 -0.9897 0.9897 0.1435 116.9454 652.8169)"
   class="st20"
   width="4.5"
   height="16.3"
   id="rect106"
   style="opacity:0.12239583" />
<rect
   x="450.9"
   y="253.3"
   transform="matrix(0.1435 -0.9897 0.9897 0.1435 129.3974 672.327)"
   class="st20"
   width="4.5"
   height="16.3"
   id="rect108"
   style="opacity:0.12239583" />
<rect
   x="434.7"
   y="252.3"
   transform="matrix(0.1435 -0.9897 0.9897 0.1435 115.2015 653.927)"
   class="st21"
   width="1.3"
   height="16.3"
   id="rect110"
   style="opacity:0.12239583" />
<rect
   x="452.2"
   y="254.8"
   transform="matrix(0.1435 -0.9897 0.9897 0.1435 127.6485 673.4532)"
   class="st21"
   width="1.3"
   height="16.3"
   id="rect112"
   style="opacity:0.12239583" />
<rect
   x="497.3"
   y="260"
   transform="matrix(0.1435 -0.9897 0.9897 0.1435 162.4432 724.0474)"
   class="st20"
   width="4.5"
   height="16.3"
   id="rect114"
   style="opacity:0.12239583" />
<rect
   x="514.7"
   y="262.5"
   transform="matrix(0.1435 -0.9897 0.9897 0.1435 174.913 743.3905)"
   class="st20"
   width="4.5"
   height="16.3"
   id="rect116"
   style="opacity:0.12239583" />
<rect
   x="498.6"
   y="261.6"
   transform="matrix(0.1435 -0.9897 0.9897 0.1435 160.6944 725.1737)"
   class="st21"
   width="1.3"
   height="16.3"
   id="rect118"
   style="opacity:0.12239583" />
<rect
   x="516.1"
   y="264.1"
   transform="matrix(0.1435 -0.9897 0.9897 0.1435 173.1642 744.5168)"
   class="st21"
   width="1.3"
   height="16.3"
   id="rect120"
   style="opacity:0.12239583" />
<rect
   x="561.2"
   y="269.3"
   transform="matrix(0.1435 -0.9897 0.9897 0.1435 208.046 795.226)"
   class="st20"
   width="4.5"
   height="16.3"
   id="rect122"
   style="opacity:0.12239583" />
<rect
   x="578.6"
   y="271.7"
   transform="matrix(0.1435 -0.9897 0.9897 0.1435 220.5303 814.5886)"
   class="st20"
   width="4.5"
   height="16.3"
   id="rect124"
   style="opacity:0.12239583" />
<rect
   x="562.6"
   y="270.8"
   transform="matrix(0.1435 -0.9897 0.9897 0.1435 206.2972 796.3524)"
   class="st21"
   width="1.3"
   height="16.3"
   id="rect126"
   style="opacity:0.12239583" />
<rect
   x="580"
   y="273.4"
   transform="matrix(0.1435 -0.9897 0.9897 0.1435 218.6737 815.7684)"
   class="st21"
   width="1.3"
   height="16.3"
   id="rect128"
   style="opacity:0.12239583" />
<rect
   x="625"
   y="278.5"
   transform="matrix(0.1435 -0.9897 0.9897 0.1435 253.5786 866.2921)"
   class="st20"
   width="4.5"
   height="16.3"
   id="rect130"
   style="opacity:0.12239583" />
<rect
   x="642.5"
   y="281.1"
   transform="matrix(0.1435 -0.9897 0.9897 0.1435 266.0063 885.8329)"
   class="st20"
   width="4.5"
   height="16.3"
   id="rect132"
   style="opacity:0.12239583" />
<rect
   x="626.4"
   y="280.1"
   transform="matrix(0.1435 -0.9897 0.9897 0.1435 251.8299 867.4184)"
   class="st21"
   width="1.3"
   height="16.3"
   id="rect134"
   style="opacity:0.12239583" />
<rect
   x="643.9"
   y="282.7"
   transform="matrix(0.1435 -0.9897 0.9897 0.1435 264.2624 886.9429)"
   class="st21"
   width="1.3"
   height="16.3"
   id="rect136"
   style="opacity:0.12239583" />
<rect
   x="681"
   y="286.6"
   transform="matrix(0.1435 -0.9897 0.9897 0.1435 293.507 928.6032)"
   class="st20"
   width="4.5"
   height="16.3"
   id="rect138"
   style="opacity:0.12239583" />
<rect
   x="698.5"
   y="289.2"
   transform="matrix(0.1435 -0.9897 0.9897 0.1435 305.9419 948.1107)"
   class="st20"
   width="4.5"
   height="16.3"
   id="rect140"
   style="opacity:0.12239583" />
<rect
   x="682.4"
   y="288.2"
   transform="matrix(0.1435 -0.9897 0.9897 0.1435 291.7581 929.7296)"
   class="st21"
   width="1.3"
   height="16.3"
   id="rect142"
   style="opacity:0.12239583" />
<rect
   x="699.8"
   y="290.7"
   transform="matrix(0.1435 -0.9897 0.9897 0.1435 304.1931 949.2371)"
   class="st21"
   width="1.3"
   height="16.3"
   id="rect144"
   style="opacity:0.12239583" />
<ellipse
   transform="matrix(0.1435 -0.9897 0.9897 0.1435 156.8929 593.2988)"
   class="st22"
   cx="421.2"
   cy="206"
   rx="5.3"
   ry="3.6"
   id="ellipse146"
   style="opacity:0.12239583" />
<ellipse
   transform="matrix(0.1435 -0.9897 0.9897 0.1435 133.1627 608.584)"
   class="st22"
   cx="418.2"
   cy="227.4"
   rx="5.3"
   ry="3.6"
   id="ellipse148"
   style="opacity:0.12239583" />
<ellipse
   transform="matrix(0.1435 -0.9897 0.9897 0.1435 201.9521 663.7586)"
   class="st22"
   cx="484.4"
   cy="215.2"
   rx="5.3"
   ry="3.6"
   id="ellipse150"
   style="opacity:0.12239583" />
<ellipse
   transform="matrix(0.14 -0.9902 0.9902 0.14 179.2022 677.2285)"
   class="st22"
   cx="479.5"
   cy="235.5"
   rx="5.3"
   ry="3.6"
   id="ellipse152"
   style="opacity:0.12239583" />
<ellipse
   transform="matrix(0.1435 -0.9897 0.9897 0.1435 245.5109 731.621)"
   class="st22"
   cx="545.4"
   cy="224"
   rx="5.3"
   ry="3.6"
   id="ellipse154"
   style="opacity:0.12239583" />
<ellipse
   transform="matrix(0.1435 -0.9897 0.9897 0.1435 221.7977 746.9086)"
   class="st22"
   cx="542.4"
   cy="245.3"
   rx="5.3"
   ry="3.6"
   id="ellipse156"
   style="opacity:0.12239583" />
<ellipse
   transform="matrix(0.14 -0.9902 0.9902 0.14 289.2736 796.318)"
   class="st22"
   cx="603.1"
   cy="231.6"
   rx="5.3"
   ry="3.6"
   id="ellipse158"
   style="opacity:0.12239583" />
<ellipse
   transform="matrix(0.1435 -0.9897 0.9897 0.1435 264.5161 813.6558)"
   class="st22"
   cx="602.3"
   cy="254"
   rx="5.3"
   ry="3.6"
   id="ellipse160"
   style="opacity:0.12239583" />
<ellipse
   transform="matrix(0.1435 -0.9897 0.9897 0.1435 333.1018 868.6107)"
   class="st22"
   cx="668.4"
   cy="241.9"
   rx="5.3"
   ry="3.6"
   id="ellipse162"
   style="opacity:0.12239583" />
<ellipse
   transform="matrix(0.1435 -0.9897 0.9897 0.1435 309.323 883.7717)"
   class="st22"
   cx="665.2"
   cy="263.2"
   rx="5.3"
   ry="3.6"
   id="ellipse164"
   style="opacity:0.12239583" />
<ellipse
   transform="matrix(0.1435 -0.9897 0.9897 0.1435 143.2728 504.9502)"
   class="st16"
   cx="363.4"
   cy="169.7"
   rx="6.1"
   ry="4.2"
   id="ellipse166"
   style="opacity:0.12239583" />
<path
   class="st23"
   d="M13.6,60.4c0-7.8,6.4-14.2,14.2-14.2l0,0h12.4l10.6,7.1h5.3l10.6-7.1h239.9V110H102.3l-10.6,7.1h-5.3L75.8,110  H63.2c-7.8,0-14.2,6.4-14.2,14.2l0,0v16c0,7.8,6.4,14.1,14.2,14.1h39V172H65.9l-10.6,7.1H50L39.4,172H27.8  c-7.8,0-14.2-6.3-14.2-14.2V60.4z M205.9,55.1h-62.1V64c0,17.7-14.2-14.2-14.2,13.3s14.2-4.4,14.2,13.3V103h62.1V55.1z"
   id="path168"
   style="opacity:0.12239583" />
<path
   class="st24"
   d="M11.8,58.6c0-7.8,6.4-14.1,14.2-14.1h12.4L49,51.6h5.3l10.6-7.1h240v63.8H100.5l-10.6,7.1h-5.3l-10.7-7.1H61.5  c-7.8,0-14.2,6.4-14.2,14.2l0,0v16c0,7.8,6.4,14.1,14.2,14.1h39v17.7H64.2l-10.6,7.1h-5.3l-10.6-7.1H26c-7.8,0-14.2-6.4-14.2-14.2  l0,0C11.8,156.1,11.8,58.6,11.8,58.6z M204.1,53.3H142v8.9c0,17.7-14.2-14.2-14.2,13.3S142,71.1,142,88.8v12.4h62.1L204.1,53.3  L204.1,53.3z"
   id="path170"
   style="opacity:0.12239583" />
<path
   class="st25"
   d="M12.7,57.8c0.5-7,6.3-12.4,13.3-12.4h12.4L49,52.5h5.3l10.6-7.1h34.6 M99.6,45.4H304 M50.8,149.1  c2.8,2.8,6.7,4.4,10.7,4.4h38.1 M16.6,165.6c-2.5-2.5-3.9-5.9-3.9-9.4V58.6 M205,54.2v47.9h-62.1 M133,87.6l6.5-3.7"
   id="path172"
   style="opacity:0.12239583" />
<g
   class="st3"
   id="g180"
   style="enable-background:new;opacity:0.12239583">
	<path
   class="st26"
   d="m 32.8,73.3 c 0,-0.2 0,-0.3 0.1,-0.5 0.1,-0.2 0.2,-0.3 0.3,-0.4 0.1,-0.1 0.2,-0.2 0.4,-0.3 C 33.8,72 33.9,72 34.1,72 h 4.3 c 0.6,0 1.3,0.1 1.9,0.2 0.6,0.1 1.1,0.3 1.6,0.5 0.5,0.3 0.8,0.6 1.1,1.1 0.3,0.5 0.4,1 0.4,1.7 0,0.4 -0.1,0.7 -0.2,1.1 -0.1,0.3 -0.3,0.6 -0.5,0.9 -0.2,0.3 -0.5,0.5 -0.9,0.7 -0.4,0.2 -0.8,0.3 -1.3,0.4 v 0 c 0.5,0.1 0.9,0.2 1.2,0.3 0.3,0.2 0.6,0.4 0.8,0.6 0.2,0.2 0.3,0.5 0.4,0.9 0.1,0.3 0.2,0.7 0.2,1.1 0,0.4 0.1,0.7 0.1,1.1 0,0.4 0.1,0.6 0.1,0.9 0,0.3 0,0.6 0.1,0.8 v 0.1 c 0,0.2 0,0.4 -0.1,0.5 -0.1,0.1 -0.2,0.3 -0.3,0.4 -0.1,0.1 -0.3,0.2 -0.4,0.2 -0.1,0.1 -0.3,0.1 -0.5,0.1 -0.1,0 -0.3,0 -0.4,-0.1 -0.1,0 -0.3,-0.1 -0.4,-0.2 C 41.2,85.2 41.1,85.1 41,85 40.9,84.9 40.9,84.7 40.8,84.5 40.7,83.8 40.7,83.2 40.6,82.7 40.6,82.2 40.5,81.8 40.4,81.4 40.3,81 40.3,80.7 40.2,80.5 40.1,80.3 40,80.1 39.8,79.9 39.6,79.8 39.4,79.7 39.1,79.6 38.8,79.5 38.5,79.5 38,79.5 h -2.6 v 4.8 c 0,0.2 0,0.4 -0.1,0.5 -0.1,0.2 -0.2,0.3 -0.3,0.4 -0.1,0.1 -0.3,0.2 -0.4,0.2 -0.1,0.1 -0.3,0.1 -0.5,0.1 -0.2,0 -0.3,0 -0.5,-0.1 C 33.5,85.3 33.3,85.3 33.2,85.2 33.1,85.1 33,85 32.9,84.8 32.8,84.6 32.8,84.5 32.8,84.3 Z m 4.5,4.7 c 0.4,0 0.8,0 1.2,-0.1 0.4,0 0.8,-0.1 1.1,-0.3 0.3,-0.1 0.6,-0.4 0.8,-0.6 0.2,-0.3 0.3,-0.7 0.3,-1.1 0,-0.5 -0.1,-0.9 -0.3,-1.1 -0.2,-0.2 -0.4,-0.5 -0.7,-0.6 -0.3,-0.1 -0.6,-0.2 -0.9,-0.3 -0.3,0 -0.7,-0.1 -1,-0.1 H 35.3 V 78 Z"
   id="path174"
   inkscape:connector-curvature="0"
   style="fill:#ffffff" />
	<path
   class="st26"
   d="m 47.6,85.8 c -0.2,0 -0.3,0 -0.5,-0.1 C 47,85.6 46.8,85.5 46.7,85.4 46.6,85.3 46.5,85.2 46.4,85 46.3,84.9 46.3,84.7 46.3,84.5 V 73.3 c 0,-0.2 0,-0.3 0.1,-0.5 0.1,-0.1 0.1,-0.3 0.3,-0.4 0.1,-0.1 0.2,-0.2 0.4,-0.3 C 47.2,72 47.4,72 47.6,72 h 6.9 c 0.2,0 0.3,0 0.4,0.1 0.1,0.1 0.2,0.1 0.3,0.2 0.1,0.1 0.1,0.2 0.2,0.3 0.1,0.1 0.1,0.2 0.1,0.3 0,0.1 0,0.2 -0.1,0.3 -0.1,0.1 -0.1,0.2 -0.2,0.3 -0.1,0.1 -0.2,0.2 -0.3,0.2 -0.1,0.1 -0.3,0.1 -0.4,0.1 h -5.7 v 3.9 h 5.3 c 0.2,0 0.3,0 0.4,0.1 0.1,0.1 0.2,0.1 0.3,0.2 0.1,0.1 0.1,0.2 0.2,0.3 0,0.1 0.1,0.2 0.1,0.3 0,0.1 0,0.2 -0.1,0.3 0,0.1 -0.1,0.2 -0.2,0.3 -0.1,0.1 -0.2,0.2 -0.3,0.2 -0.1,0 -0.3,0.1 -0.4,0.1 h -5.3 v 4.2 h 5.9 c 0.2,0 0.3,0 0.4,0.1 0.1,0.1 0.2,0.1 0.3,0.2 0.1,0.1 0.1,0.2 0.2,0.3 0,0.1 0.1,0.2 0.1,0.3 0,0.1 0,0.2 -0.1,0.3 0,0.1 -0.1,0.2 -0.2,0.3 -0.1,0.1 -0.2,0.2 -0.3,0.2 -0.1,0.1 -0.3,0.1 -0.4,0.1 h -7.1 z"
   id="path176"
   inkscape:connector-curvature="0"
   style="fill:#ffffff" />
	<path
   class="st26"
   d="m 60.9,80.2 v 4.3 c 0,0.2 0,0.4 -0.1,0.5 -0.1,0.2 -0.2,0.3 -0.3,0.4 -0.1,0.1 -0.3,0.2 -0.4,0.2 -0.1,0 -0.3,0.1 -0.5,0.1 -0.2,0 -0.3,0 -0.5,-0.1 C 58.9,85.5 58.8,85.5 58.7,85.4 58.6,85.3 58.5,85.2 58.4,85 58.3,84.8 58.3,84.7 58.3,84.5 V 73.3 c 0,-0.2 0,-0.3 0.1,-0.5 0.1,-0.2 0.2,-0.3 0.3,-0.4 0.1,-0.1 0.3,-0.2 0.4,-0.3 C 59.3,72 59.4,72 59.6,72 h 3.9 c 0.7,0 1.4,0.1 2,0.2 0.6,0.1 1.2,0.4 1.7,0.7 0.5,0.3 0.9,0.7 1.2,1.3 0.3,0.5 0.4,1.1 0.4,1.9 0,0.8 -0.1,1.4 -0.4,1.9 -0.3,0.5 -0.7,0.9 -1.2,1.3 -0.5,0.4 -1.2,0.6 -1.8,0.7 -0.7,0.1 -1.4,0.2 -2.1,0.2 z m 2.2,-1.7 c 0.4,0 0.8,0 1.2,-0.1 0.4,-0.1 0.7,-0.2 1,-0.4 0.3,-0.2 0.5,-0.4 0.7,-0.7 0.2,-0.3 0.2,-0.7 0.2,-1.1 C 66.2,75.8 66.1,75.3 66,75 65.8,74.7 65.6,74.5 65.4,74.3 65.1,74.1 64.8,74 64.4,73.9 64,73.8 63.6,73.8 63.2,73.8 h -2.3 v 4.7 z"
   id="path178"
   inkscape:connector-curvature="0"
   style="fill:#ffffff" />
</g>
<g
   class="st3"
   id="g184"
   style="enable-background:new;opacity:0.12239583">
	<path
   class="st26"
   d="m 72.3,85.8 c -0.2,0 -0.3,0 -0.5,-0.1 C 71.7,85.6 71.5,85.5 71.4,85.4 71.3,85.3 71.2,85.2 71.1,85 71,84.9 71,84.7 71,84.5 V 73.3 c 0,-0.2 0,-0.3 0.1,-0.5 0.1,-0.1 0.1,-0.3 0.3,-0.4 0.1,-0.1 0.2,-0.2 0.4,-0.3 C 71.9,72 72.1,72 72.3,72 h 6.9 c 0.2,0 0.3,0 0.4,0.1 0.1,0.1 0.2,0.1 0.3,0.2 0.1,0.1 0.1,0.2 0.2,0.3 0.1,0.1 0.1,0.2 0.1,0.3 0,0.1 0,0.2 -0.1,0.3 -0.1,0.1 -0.1,0.2 -0.2,0.3 -0.1,0.1 -0.2,0.2 -0.3,0.2 -0.1,0.1 -0.3,0.1 -0.4,0.1 h -5.7 v 3.9 h 5.3 c 0.2,0 0.3,0 0.4,0.1 0.1,0.1 0.2,0.1 0.3,0.2 0.1,0.1 0.1,0.2 0.2,0.3 0,0.1 0.1,0.2 0.1,0.3 0,0.1 0,0.2 -0.1,0.3 0,0.1 -0.1,0.2 -0.2,0.3 -0.1,0.1 -0.2,0.2 -0.3,0.2 -0.1,0 -0.3,0.1 -0.4,0.1 h -5.3 v 4.2 h 5.9 c 0.2,0 0.3,0 0.4,0.1 0.1,0.1 0.2,0.1 0.3,0.2 0.1,0.1 0.1,0.2 0.2,0.3 0,0.1 0.1,0.2 0.1,0.3 0,0.1 0,0.2 -0.1,0.3 0,0.1 -0.1,0.2 -0.2,0.3 -0.1,0.1 -0.2,0.2 -0.3,0.2 -0.1,0.1 -0.3,0.1 -0.4,0.1 h -7.1 z"
   id="path182"
   inkscape:connector-curvature="0"
   style="fill:#ffffff" />
</g>
<g
   class="st3"
   id="g192"
   style="enable-background:new;opacity:0.12239583">
	<path
   class="st26"
   d="m 82.2,74 c -0.2,0 -0.3,0 -0.4,-0.1 -0.1,-0.1 -0.2,-0.1 -0.3,-0.2 -0.1,-0.1 -0.1,-0.2 -0.2,-0.3 0,-0.1 -0.1,-0.2 -0.1,-0.4 0,-0.1 0,-0.2 0.1,-0.4 0,-0.1 0.1,-0.2 0.2,-0.3 0.1,-0.1 0.2,-0.2 0.3,-0.2 C 81.9,72 82.1,72 82.2,72 h 9 c 0.2,0 0.3,0 0.4,0.1 0.1,0.1 0.2,0.1 0.3,0.2 0.1,0.1 0.1,0.2 0.2,0.3 0,0.1 0.1,0.2 0.1,0.4 0,0.1 0,0.2 -0.1,0.4 0,0.1 -0.1,0.2 -0.2,0.3 -0.1,0.1 -0.2,0.2 -0.3,0.2 -0.1,0 -0.2,0.1 -0.4,0.1 H 88 v 10.5 c 0,0.2 0,0.4 -0.1,0.5 -0.1,0.2 -0.2,0.3 -0.3,0.4 -0.1,0.1 -0.3,0.2 -0.4,0.2 -0.1,0 -0.3,0.1 -0.5,0.1 -0.2,0 -0.3,0 -0.5,-0.1 C 86,85.5 85.9,85.5 85.8,85.4 85.7,85.3 85.6,85.2 85.5,85 85.4,84.8 85.4,84.7 85.4,84.5 V 74 Z"
   id="path186"
   inkscape:connector-curvature="0"
   style="fill:#ffffff" />
	<path
   class="st26"
   d="m 94.2,73.3 c 0,-0.2 0,-0.4 0.1,-0.5 0.1,-0.2 0.2,-0.3 0.3,-0.4 0.1,-0.1 0.3,-0.2 0.4,-0.2 0.1,0 0.3,-0.1 0.5,-0.1 0.2,0 0.3,0 0.5,0.1 0.2,0.1 0.3,0.1 0.4,0.2 0.1,0.1 0.2,0.2 0.3,0.4 0.1,0.2 0.1,0.3 0.1,0.5 v 11.3 c 0,0.2 0,0.4 -0.1,0.5 -0.1,0.2 -0.2,0.3 -0.3,0.4 -0.1,0.1 -0.3,0.2 -0.4,0.2 -0.2,0.1 -0.3,0.1 -0.5,0.1 -0.2,0 -0.3,0 -0.5,-0.1 -0.2,-0.1 -0.3,-0.1 -0.4,-0.2 -0.1,-0.1 -0.2,-0.2 -0.3,-0.4 -0.1,-0.2 -0.1,-0.3 -0.1,-0.5 z"
   id="path188"
   inkscape:connector-curvature="0"
   style="fill:#ffffff" />
	<path
   class="st26"
   d="m 100.2,73.3 c 0,-0.2 0,-0.3 0.1,-0.5 0.1,-0.2 0.2,-0.3 0.3,-0.4 0.1,-0.1 0.2,-0.2 0.4,-0.3 0.2,-0.1 0.3,-0.1 0.5,-0.1 h 4.3 c 0.6,0 1.3,0.1 1.9,0.2 0.6,0.1 1.1,0.3 1.6,0.5 0.5,0.3 0.8,0.6 1.1,1.1 0.3,0.5 0.4,1 0.4,1.7 0,0.4 -0.1,0.7 -0.2,1.1 -0.1,0.3 -0.3,0.6 -0.5,0.9 -0.2,0.3 -0.5,0.5 -0.9,0.7 -0.4,0.2 -0.8,0.3 -1.3,0.4 v 0 c 0.5,0.1 0.9,0.2 1.2,0.3 0.3,0.2 0.6,0.4 0.8,0.6 0.2,0.2 0.3,0.5 0.4,0.9 0.1,0.3 0.2,0.7 0.2,1.1 0,0.4 0.1,0.7 0.1,1.1 0,0.4 0.1,0.6 0.1,0.9 0,0.3 0,0.6 0.1,0.8 v 0.1 c 0,0.2 0,0.4 -0.1,0.5 -0.1,0.1 -0.2,0.3 -0.3,0.4 -0.1,0.1 -0.3,0.2 -0.4,0.2 -0.1,0.1 -0.3,0.1 -0.5,0.1 -0.1,0 -0.3,0 -0.4,-0.1 -0.1,0 -0.3,-0.1 -0.4,-0.2 -0.1,-0.1 -0.2,-0.2 -0.3,-0.3 -0.1,-0.1 -0.1,-0.3 -0.2,-0.5 -0.1,-0.7 -0.1,-1.3 -0.2,-1.8 0,-0.5 -0.1,-0.9 -0.2,-1.3 -0.1,-0.4 -0.1,-0.7 -0.2,-0.9 -0.1,-0.2 -0.2,-0.4 -0.4,-0.6 -0.2,-0.1 -0.4,-0.2 -0.7,-0.3 -0.3,-0.1 -0.6,-0.1 -1.1,-0.1 h -2.6 v 4.8 c 0,0.2 0,0.4 -0.1,0.5 -0.1,0.2 -0.2,0.3 -0.3,0.4 -0.1,0.1 -0.3,0.2 -0.4,0.2 -0.1,0.1 -0.3,0.1 -0.5,0.1 -0.2,0 -0.3,0 -0.5,-0.1 -0.1,-0.1 -0.3,-0.1 -0.4,-0.2 -0.1,-0.1 -0.2,-0.2 -0.3,-0.4 -0.1,-0.2 -0.1,-0.3 -0.1,-0.5 z m 4.5,4.7 c 0.4,0 0.8,0 1.2,-0.1 0.4,0 0.8,-0.1 1.1,-0.3 0.3,-0.1 0.6,-0.4 0.8,-0.6 0.2,-0.3 0.3,-0.7 0.3,-1.1 0,-0.5 -0.1,-0.9 -0.3,-1.1 -0.2,-0.2 -0.4,-0.5 -0.7,-0.6 -0.3,-0.1 -0.6,-0.2 -0.9,-0.3 -0.3,0 -0.7,-0.1 -1,-0.1 h -2.5 V 78 Z"
   id="path190"
   inkscape:connector-curvature="0"
   style="fill:#ffffff" />
</g>
<g
   class="st3"
   id="g204"
   style="enable-background:new;opacity:0.12239583">
	<path
   class="st26"
   d="m 226.8,83.8 v 0 L 230.4,73 c 0.1,-0.3 0.2,-0.5 0.4,-0.6 0.2,-0.1 0.4,-0.2 0.7,-0.2 0.2,0 0.3,0 0.4,0.1 0.1,0.1 0.3,0.1 0.4,0.2 0.1,0.1 0.2,0.2 0.3,0.3 0.1,0.1 0.1,0.3 0.1,0.4 0,0.1 0,0.1 0,0.2 0,0.1 0,0.1 0,0.2 L 229,84.1 c -0.1,0.3 -0.2,0.6 -0.3,0.8 -0.1,0.2 -0.3,0.4 -0.5,0.5 -0.2,0.1 -0.4,0.2 -0.6,0.3 -0.2,0.1 -0.5,0.1 -0.7,0.1 -0.3,0 -0.5,0 -0.7,-0.1 -0.2,-0.1 -0.4,-0.1 -0.6,-0.3 -0.2,-0.2 -0.3,-0.3 -0.5,-0.5 -0.1,-0.2 -0.3,-0.5 -0.4,-0.8 l -3.8,-10.6 c 0,-0.1 -0.1,-0.2 -0.1,-0.4 0,-0.2 0,-0.3 0.1,-0.4 0.1,-0.1 0.2,-0.3 0.3,-0.4 0.1,-0.1 0.2,-0.2 0.4,-0.2 0.2,0 0.3,-0.1 0.5,-0.1 0.3,0 0.5,0.1 0.7,0.2 0.2,0.1 0.4,0.4 0.4,0.6 z"
   id="path194"
   inkscape:connector-curvature="0"
   style="fill:#ffffff" />
	<path
   class="st26"
   d="m 236.3,85.8 c -0.2,0 -0.3,0 -0.5,-0.1 -0.1,-0.1 -0.3,-0.2 -0.4,-0.3 -0.1,-0.1 -0.2,-0.2 -0.3,-0.4 C 235,84.9 235,84.7 235,84.5 V 73.3 c 0,-0.2 0,-0.3 0.1,-0.5 0.1,-0.1 0.1,-0.3 0.3,-0.4 0.1,-0.1 0.2,-0.2 0.4,-0.3 0.1,-0.1 0.3,-0.1 0.5,-0.1 h 6.9 c 0.2,0 0.3,0 0.4,0.1 0.1,0.1 0.2,0.1 0.3,0.2 0.1,0.1 0.1,0.2 0.2,0.3 0.1,0.1 0.1,0.2 0.1,0.3 0,0.1 0,0.2 -0.1,0.3 -0.1,0.1 -0.1,0.2 -0.2,0.3 -0.1,0.1 -0.2,0.2 -0.3,0.2 -0.1,0.1 -0.3,0.1 -0.4,0.1 h -5.7 v 3.9 h 5.3 c 0.2,0 0.3,0 0.4,0.1 0.1,0.1 0.2,0.1 0.3,0.2 0.1,0.1 0.1,0.2 0.2,0.3 0,0.1 0.1,0.2 0.1,0.3 0,0.1 0,0.2 -0.1,0.3 0,0.1 -0.1,0.2 -0.2,0.3 -0.1,0.1 -0.2,0.2 -0.3,0.2 -0.1,0.1 -0.3,0.1 -0.4,0.1 h -5.3 v 4.2 h 5.9 c 0.2,0 0.3,0 0.4,0.1 0.1,0.1 0.2,0.1 0.3,0.2 0.1,0.1 0.1,0.2 0.2,0.3 0.1,0.1 0.1,0.2 0.1,0.3 0,0.1 0,0.2 -0.1,0.3 -0.1,0.1 -0.1,0.2 -0.2,0.3 -0.1,0.1 -0.2,0.2 -0.3,0.2 -0.1,0 -0.3,0.1 -0.4,0.1 h -7.1 z"
   id="path196"
   inkscape:connector-curvature="0"
   style="fill:#ffffff" />
	<path
   class="st26"
   d="m 246.4,79 c 0,-1.1 0.2,-2.1 0.5,-3 0.3,-0.9 0.8,-1.7 1.3,-2.3 0.6,-0.6 1.3,-1.1 2,-1.4 0.8,-0.3 1.6,-0.5 2.6,-0.5 0.6,0 1.2,0.1 1.8,0.2 0.6,0.1 1.3,0.3 1.9,0.6 0.2,0.1 0.4,0.2 0.5,0.4 0.1,0.2 0.1,0.3 0.1,0.5 0,0.1 0,0.2 -0.1,0.4 -0.1,0.2 -0.1,0.2 -0.2,0.3 -0.1,0.1 -0.2,0.2 -0.3,0.2 -0.1,0 -0.2,0.1 -0.4,0.1 -0.1,0 -0.2,0 -0.4,-0.1 -1,-0.4 -1.9,-0.5 -2.7,-0.5 -0.7,0 -1.2,0.1 -1.8,0.3 -0.6,0.2 -0.9,0.6 -1.3,1 -0.3,0.4 -0.6,1 -0.8,1.6 -0.2,0.6 -0.3,1.4 -0.3,2.2 0,0.7 0.1,1.4 0.2,2 0.2,0.6 0.4,1.1 0.7,1.6 0.3,0.4 0.7,0.8 1.2,1 0.5,0.2 1,0.4 1.7,0.4 0.5,0 0.9,-0.1 1.5,-0.2 0.5,-0.1 1.1,-0.3 1.7,-0.6 0.1,0 0.2,-0.1 0.2,-0.1 0.1,0 0.2,0 0.2,0 0.1,0 0.3,0 0.4,0.1 0.1,0.1 0.2,0.1 0.3,0.2 0.1,0.1 0.1,0.2 0.2,0.3 0.1,0.1 0.1,0.2 0.1,0.4 0,0.2 -0.1,0.4 -0.2,0.6 -0.1,0.2 -0.3,0.4 -0.6,0.5 -1.4,0.7 -2.7,1 -3.9,1 -0.9,0 -1.8,-0.2 -2.6,-0.5 -0.8,-0.3 -1.4,-0.8 -2,-1.5 -0.6,-0.6 -1,-1.4 -1.3,-2.2 -0.3,-0.8 -0.2,-2 -0.2,-3 z"
   id="path198"
   inkscape:connector-curvature="0"
   style="fill:#ffffff" />
	<path
   class="st26"
   d="m 261.9,85.8 c -0.2,0 -0.3,0 -0.5,-0.1 -0.1,-0.1 -0.3,-0.2 -0.4,-0.3 -0.1,-0.1 -0.2,-0.2 -0.3,-0.4 -0.1,-0.1 -0.1,-0.3 -0.1,-0.5 V 73.3 c 0,-0.2 0,-0.3 0.1,-0.5 0.1,-0.1 0.1,-0.3 0.3,-0.4 0.1,-0.1 0.2,-0.2 0.4,-0.3 0.1,-0.1 0.3,-0.1 0.5,-0.1 h 6.9 c 0.2,0 0.3,0 0.4,0.1 0.1,0.1 0.2,0.1 0.3,0.2 0.1,0.1 0.1,0.2 0.2,0.3 0.1,0.1 0.1,0.2 0.1,0.3 0,0.1 0,0.2 -0.1,0.3 -0.1,0.1 -0.1,0.2 -0.2,0.3 -0.1,0.1 -0.2,0.2 -0.3,0.2 -0.1,0.1 -0.3,0.1 -0.4,0.1 h -5.7 v 3.9 h 5.3 c 0.2,0 0.3,0 0.4,0.1 0.1,0.1 0.2,0.1 0.3,0.2 0.1,0.1 0.1,0.2 0.2,0.3 0,0.1 0.1,0.2 0.1,0.3 0,0.1 0,0.2 -0.1,0.3 0,0.1 -0.1,0.2 -0.2,0.3 -0.1,0.1 -0.2,0.2 -0.3,0.2 -0.1,0.1 -0.3,0.1 -0.4,0.1 h -5.3 v 4.2 h 5.9 c 0.2,0 0.3,0 0.4,0.1 0.1,0.1 0.2,0.1 0.3,0.2 0.1,0.1 0.1,0.2 0.2,0.3 0.1,0.1 0.1,0.2 0.1,0.3 0,0.1 0,0.2 -0.1,0.3 -0.1,0.1 -0.1,0.2 -0.2,0.3 -0.1,0.1 -0.2,0.2 -0.3,0.2 -0.1,0 -0.3,0.1 -0.4,0.1 h -7.1 z"
   id="path200"
   inkscape:connector-curvature="0"
   style="fill:#ffffff" />
	<path
   class="st26"
   d="m 274.7,75.5 c 0,0.4 0.1,0.7 0.3,1 0.2,0.3 0.5,0.5 0.8,0.7 0.3,0.2 0.7,0.3 1.2,0.5 0.4,0.1 0.9,0.3 1.4,0.4 0.6,0.2 1.2,0.4 1.7,0.6 0.5,0.2 1,0.5 1.4,0.8 0.4,0.3 0.7,0.7 0.9,1.1 0.2,0.4 0.3,0.9 0.3,1.5 0,0.6 -0.1,1.2 -0.4,1.7 -0.3,0.5 -0.6,0.9 -1.1,1.3 -0.5,0.4 -1,0.6 -1.7,0.8 -0.7,0.2 -1.4,0.3 -2.2,0.3 -0.6,0 -1.2,-0.1 -1.7,-0.2 -0.5,-0.1 -1,-0.2 -1.5,-0.4 -0.4,-0.2 -0.8,-0.4 -1.2,-0.6 -0.3,-0.2 -0.6,-0.5 -0.8,-0.8 C 272,84.1 272,84 272,83.9 c 0,-0.1 0,-0.2 0.1,-0.4 0.1,-0.1 0.1,-0.2 0.2,-0.3 0.1,-0.1 0.2,-0.2 0.3,-0.2 0.1,0 0.2,-0.1 0.3,-0.1 0.1,0 0.2,0 0.3,0.1 0.1,0.1 0.2,0.1 0.3,0.2 0.2,0.1 0.4,0.3 0.7,0.4 0.3,0.1 0.6,0.2 0.9,0.3 0.3,0.1 0.7,0.2 1,0.2 0.3,0 0.8,0.1 1.2,0.1 0.4,0 0.8,0 1.1,-0.1 0.3,-0.1 0.7,-0.2 0.9,-0.3 0.3,-0.2 0.5,-0.4 0.6,-0.6 0.1,-0.2 0.2,-0.5 0.2,-0.8 0,-0.4 -0.1,-0.8 -0.3,-1 -0.2,-0.3 -0.5,-0.5 -0.8,-0.7 -0.3,-0.2 -0.7,-0.3 -1.2,-0.5 -0.4,-0.1 -0.9,-0.3 -1.3,-0.4 -0.2,-0.1 -0.4,-0.1 -0.6,-0.2 -0.2,-0.1 -0.5,-0.2 -0.7,-0.3 -0.2,-0.1 -0.5,-0.2 -0.7,-0.3 -0.2,-0.1 -0.4,-0.2 -0.5,-0.3 -1.2,-0.6 -1.7,-1.6 -1.7,-2.9 0,-0.6 0.1,-1.2 0.4,-1.6 0.3,-0.5 0.6,-0.9 1.1,-1.2 0.5,-0.3 1,-0.6 1.6,-0.8 0.6,-0.2 1.3,-0.3 2,-0.3 1,0 1.9,0.1 2.6,0.4 0.8,0.3 1.4,0.7 2,1.3 0.1,0.1 0.1,0.2 0.2,0.3 0,0.1 0,0.2 0,0.3 0,0.1 0,0.2 0,0.3 0,0.1 -0.1,0.2 -0.2,0.3 -0.1,0.1 -0.2,0.2 -0.3,0.2 -0.1,0.1 -0.2,0.1 -0.4,0.1 -0.2,0 -0.4,-0.1 -0.6,-0.3 -0.2,-0.1 -0.4,-0.2 -0.6,-0.4 -0.2,-0.1 -0.5,-0.2 -0.8,-0.3 -0.3,-0.1 -0.6,-0.2 -0.9,-0.2 -0.3,-0.1 -0.6,-0.1 -1,-0.1 -0.3,0 -0.7,0 -1,0.1 -0.3,0.1 -0.6,0.2 -0.9,0.3 -0.3,0.1 -0.5,0.3 -0.7,0.6 0,0.1 -0.1,0.4 -0.1,0.7 z"
   id="path202"
   inkscape:connector-curvature="0"
   style="fill:#ffffff" />
</g>
<g
   id="g266"
   style="opacity:0.12239583">
	<path
   class="st27"
   d="m 877.3,53.1 c 0.5,-9 8.2,-15.9 17.3,-15.4 l 14.3,0.8 11.8,8.9 6.1,0.3 12.7,-7.5 20.5,1.1 165.8,9.3 -3,53.2 -187.2,-10.5 -12.7,7.5 -6.1,-0.3 -11.9,-8.9 -13.3,-0.7 c -9,-0.5 -15.9,-8.3 -15.4,-17.3 z"
   id="path206"
   inkscape:connector-curvature="0"
   style="fill:#3e57a3" />
	<path
   class="st28"
   d="m 875.4,51 c 0.5,-9 8.2,-15.9 17.3,-15.4 l 14.3,0.8 11.8,8.9 6.1,0.3 12.7,-7.5 20.5,1.1 165.8,9.3 -3,53.2 -187.3,-10.5 -12.7,7.5 -6.1,-0.3 -11.8,-8.9 -13.3,-0.8 c -9,-0.5 -16,-8.2 -15.5,-17.3 v 0 z"
   id="path208"
   inkscape:connector-curvature="0"
   style="fill:#516baf" />
	<path
   class="st29"
   d="m 876.4,50 c 1,-8 8.1,-13.9 16.1,-13.5 l 14.3,0.8 11.8,8.9 6.1,0.3 12.7,-7.5 19.4,1.1 m 0.2,0.1 165.8,9.3 M 879.1,82.6 c -2.7,-3 -4.1,-7 -3.9,-11.1 L 876.4,51"
   id="path210"
   inkscape:connector-curvature="0"
   style="fill:none;stroke:#8093c9;stroke-width:2.04999995;stroke-linecap:round" />
	<g
   id="g240"
   style="">
		<path
   class="st26"
   d="m 903.9,73.3 3,2 1.7,3.2 c -0.1,0 -0.2,0.1 -0.2,0.2 v 0 0 l -6.7,1.5 2.2,-6.5 v 0 c -0.2,-0.3 -0.2,-0.5 0,-0.4 z"
   id="path212"
   inkscape:connector-curvature="0"
   style="fill:#ffffff" />
		<polygon
   class="st30"
   points="903.7,73.4 901.5,79.9 905.5,74.8 905.7,74.8 "
   id="polygon214"
   style="fill:#d1d0cf" />
		<polygon
   class="st31"
   points="901.5,79.9 903.9,79.5 902.4,77.8 "
   id="polygon216"
   style="fill:#484f59" />
		<polygon
   class="st32"
   points="901.5,79.9 902.9,78.4 902.4,77.8 "
   id="polygon218"
   style="fill:#353f49" />
		
			<rect
   x="905"
   y="68.300003"
   transform="matrix(0.7448,-0.6673,0.6673,0.7448,187.6159,629.562)"
   class="st33"
   width="23.799999"
   height="2.4000001"
   id="rect220"
   style="fill:#ffca55" />
		
			<rect
   x="903.5"
   y="66.5"
   transform="matrix(0.7468,-0.6651,0.6651,0.7468,186.8127,625.9564)"
   class="st34"
   width="23.799999"
   height="2.4000001"
   id="rect222"
   style="fill:#f5a41a" />
		
			<rect
   x="901.90002"
   y="64.699997"
   transform="matrix(0.7456,-0.6664,0.6664,0.7456,188.5565,625.7037)"
   class="st35"
   width="23.799999"
   height="2.4000001"
   id="rect224"
   style="fill:#f49120" />
		
			<circle
   transform="matrix(0.7457,-0.6663,0.6663,0.7457,179.3329,624.6622)"
   class="st33"
   cx="908"
   cy="77.400002"
   id="ellipse226"
   r="1.3"
   style="fill:#ffca55" />
		
			<circle
   transform="matrix(0.7452,-0.6668,0.6668,0.7452,180.5276,623.6766)"
   class="st34"
   cx="906.40002"
   cy="75.599998"
   id="ellipse228"
   r="1.3"
   style="fill:#f5a41a" />
		
			<circle
   transform="matrix(0.7452,-0.6668,0.6668,0.7452,181.2802,622.0869)"
   class="st35"
   cx="904.70001"
   cy="73.800003"
   id="ellipse230"
   r="1.3"
   style="fill:#f49120" />
		
			<rect
   x="923.90002"
   y="55"
   transform="matrix(0.7462,-0.6658,0.6658,0.7462,195.6593,630.9066)"
   class="st36"
   width="2.5999999"
   height="7.6999998"
   id="rect232"
   style="fill:#eae9ea" />
		
			<rect
   x="922.09998"
   y="55.799999"
   transform="matrix(0.7463,-0.6656,0.6656,0.7463,196.2511,629.0909)"
   class="st30"
   width="2.5999999"
   height="2.5999999"
   id="rect234"
   style="fill:#d1d0cf" />
		<path
   class="st31"
   d="m 924.5,54.7 c 0.3,-0.2 0.7,-0.4 1.1,-0.3 0.4,0.1 0.8,0.2 1.1,0.4 l 3,3.3 c 0.2,0.3 0.4,0.7 0.3,1.1 -0.1,0.4 -0.2,0.8 -0.4,1.1 l -0.8,0.7 -5,-5.6 z"
   id="path236"
   inkscape:connector-curvature="0"
   style="fill:#484f59" />
		<path
   class="st32"
   d="m 925.3,57.3 0.8,-0.7 c 0.3,-0.2 0.7,-0.4 1.1,-0.3 0.4,0.1 0.8,0.2 1.1,0.4 l -1.6,-1.8 c -0.3,-0.3 -0.7,-0.4 -1.1,-0.4 -0.4,0 -0.8,0.1 -1.1,0.3 l -0.8,0.5 z"
   id="path238"
   inkscape:connector-curvature="0"
   style="fill:#353f49" />
	</g>
	<g
   class="st3"
   id="g258"
   style="enable-background:new">
		<path
   class="st26"
   d="m 951.2,74.7 c -0.2,0 -0.4,-0.1 -0.5,-0.1 -0.2,-0.1 -0.3,-0.2 -0.4,-0.3 -0.1,-0.1 -0.2,-0.3 -0.3,-0.5 -0.1,-0.2 -0.1,-0.4 -0.1,-0.5 l 0.7,-13 c 0,-0.2 0.1,-0.4 0.1,-0.5 0.1,-0.2 0.2,-0.3 0.3,-0.4 0.1,-0.1 0.3,-0.2 0.5,-0.3 0.2,-0.1 0.4,-0.1 0.6,-0.1 l 8,0.5 c 0.2,0 0.3,0 0.5,0.1 0.1,0.1 0.2,0.2 0.3,0.3 0.1,0.1 0.1,0.2 0.2,0.4 0,0.1 0.1,0.3 0,0.4 0,0.1 0,0.3 -0.1,0.4 -0.1,0.1 -0.1,0.2 -0.2,0.3 -0.1,0.1 -0.2,0.2 -0.4,0.2 -0.1,0.1 -0.3,0.1 -0.5,0.1 l -6.5,-0.4 -0.3,4.4 6.1,0.3 c 0.2,0 0.3,0.1 0.5,0.1 0.1,0.1 0.2,0.2 0.3,0.3 0.1,0.1 0.1,0.2 0.2,0.4 0,0.1 0.1,0.3 0,0.4 0,0.1 0,0.3 -0.1,0.4 -0.1,0.1 -0.1,0.2 -0.2,0.3 -0.1,0.1 -0.2,0.2 -0.4,0.2 -0.1,0.1 -0.3,0.1 -0.5,0.1 l -6.1,-0.3 -0.3,4.8 6.8,0.4 c 0.2,0 0.3,0 0.5,0.1 0.1,0.1 0.2,0.2 0.3,0.3 0.1,0.1 0.1,0.2 0.2,0.4 0,0.1 0.1,0.3 0,0.4 0,0.1 0,0.3 -0.1,0.4 -0.1,0.1 -0.1,0.2 -0.2,0.3 -0.1,0.1 -0.2,0.2 -0.4,0.2 -0.1,0.1 -0.3,0.1 -0.5,0.1 z"
   id="path242"
   inkscape:connector-curvature="0"
   style="fill:#ffffff" />
		<path
   class="st26"
   d="m 966.7,63.7 c 0,0.4 0.1,0.8 0.3,1.1 0.2,0.3 0.5,0.6 0.9,0.8 0.4,0.2 0.8,0.4 1.3,0.6 0.5,0.2 1,0.4 1.6,0.6 0.7,0.3 1.3,0.5 1.9,0.8 0.6,0.3 1.1,0.6 1.5,1 0.4,0.4 0.7,0.8 1,1.3 0.3,0.5 0.3,1.1 0.3,1.8 0,0.7 -0.2,1.4 -0.6,1.9 -0.3,0.6 -0.8,1 -1.3,1.4 -0.6,0.4 -1.2,0.7 -2,0.8 -0.8,0.2 -1.6,0.2 -2.6,0.2 -0.7,0 -1.4,-0.1 -2,-0.3 -0.6,-0.2 -1.2,-0.3 -1.7,-0.6 -0.5,-0.2 -0.9,-0.5 -1.3,-0.8 -0.4,-0.3 -0.7,-0.6 -0.9,-1 -0.1,-0.1 -0.1,-0.2 -0.1,-0.4 0,-0.1 0,-0.3 0.1,-0.4 0.1,-0.1 0.1,-0.3 0.2,-0.4 0.1,-0.1 0.2,-0.2 0.3,-0.3 0.1,-0.1 0.2,-0.1 0.3,-0.1 0.1,0 0.2,0.1 0.4,0.1 0.1,0.1 0.2,0.2 0.4,0.3 0.2,0.2 0.5,0.3 0.8,0.5 0.3,0.2 0.6,0.3 1,0.5 0.4,0.1 0.7,0.3 1.2,0.4 0.5,0.1 0.9,0.2 1.3,0.2 0.4,0 0.9,0 1.3,-0.1 0.4,-0.1 0.8,-0.2 1.1,-0.3 0.3,-0.2 0.6,-0.4 0.7,-0.6 0.1,-0.2 0.3,-0.6 0.3,-1 0,-0.5 -0.1,-0.9 -0.3,-1.2 -0.2,-0.3 -0.5,-0.6 -0.9,-0.8 -0.4,-0.2 -0.8,-0.4 -1.3,-0.6 -0.5,-0.2 -1,-0.4 -1.5,-0.6 -0.2,-0.1 -0.4,-0.2 -0.7,-0.3 -0.3,-0.1 -0.5,-0.2 -0.8,-0.4 -0.3,-0.1 -0.5,-0.3 -0.8,-0.4 -0.2,-0.1 -0.4,-0.3 -0.6,-0.4 -1.3,-0.7 -1.9,-1.9 -1.8,-3.5 0,-0.7 0.2,-1.3 0.6,-1.9 0.3,-0.5 0.8,-1 1.3,-1.3 0.6,-0.4 1.2,-0.6 1.9,-0.8 0.7,-0.2 1.5,-0.2 2.4,-0.2 1.1,0.1 2.1,0.3 3,0.7 0.9,0.4 1.6,0.9 2.2,1.6 0.1,0.1 0.1,0.2 0.2,0.3 0,0.1 0,0.2 0,0.4 0,0.1 0,0.3 -0.1,0.4 0,0.1 -0.1,0.2 -0.2,0.4 -0.1,0.1 -0.2,0.2 -0.3,0.3 -0.1,0.1 -0.3,0.1 -0.5,0.1 -0.2,0 -0.4,-0.1 -0.7,-0.4 -0.2,-0.2 -0.4,-0.3 -0.7,-0.5 -0.3,-0.2 -0.5,-0.3 -0.8,-0.4 -0.3,-0.1 -0.6,-0.2 -1,-0.3 -0.4,-0.1 -0.7,-0.1 -1.1,-0.2 -0.4,0 -0.8,0 -1.2,0.1 -0.4,0.1 -0.7,0.2 -1.1,0.3 -0.4,0.1 -0.6,0.3 -0.8,0.6 0,0.4 -0.1,0.7 -0.1,1 z"
   id="path244"
   inkscape:connector-curvature="0"
   style="fill:#ffffff" />
		<path
   class="st26"
   d="m 977.8,68.4 c 0.1,-1.3 0.3,-2.4 0.7,-3.4 0.4,-1 1,-1.9 1.7,-2.5 0.7,-0.6 1.5,-1.2 2.4,-1.5 0.9,-0.3 1.9,-0.5 3,-0.4 0.7,0 1.4,0.2 2.1,0.4 0.7,0.2 1.4,0.5 2.2,0.9 0.2,0.1 0.4,0.3 0.5,0.5 0.1,0.2 0.1,0.4 0.1,0.6 0,0.1 0,0.3 -0.1,0.4 -0.1,0.1 -0.1,0.2 -0.2,0.3 -0.1,0.1 -0.2,0.2 -0.3,0.2 -0.1,0.1 -0.3,0.1 -0.4,0.1 -0.1,0 -0.3,0 -0.4,-0.1 -1.2,-0.5 -2.2,-0.8 -3.1,-0.8 -0.8,0 -1.4,0.1 -2,0.3 -0.6,0.2 -1.1,0.6 -1.5,1.1 -0.4,0.5 -0.8,1.1 -1,1.8 -0.2,0.7 -0.4,1.5 -0.4,2.5 0,0.9 0,1.6 0.1,2.4 0.1,0.8 0.4,1.3 0.7,1.9 0.3,0.5 0.8,1 1.3,1.3 0.5,0.3 1.2,0.5 1.9,0.5 0.5,0 1.1,0 1.7,-0.1 0.6,-0.1 1.3,-0.3 2,-0.6 0.1,0 0.2,-0.1 0.3,-0.1 0.1,0 0.2,0 0.3,0 0.2,0 0.3,0 0.4,0.1 0.1,0.1 0.2,0.2 0.3,0.3 0.1,0.1 0.1,0.2 0.2,0.4 0,0.1 0.1,0.3 0,0.4 0,0.2 -0.1,0.4 -0.2,0.7 -0.1,0.2 -0.4,0.4 -0.7,0.5 -1.7,0.7 -3.2,1 -4.6,0.9 -1.1,-0.1 -2,-0.3 -2.9,-0.8 -0.9,-0.4 -1.6,-1 -2.2,-1.8 -0.6,-0.8 -1,-1.6 -1.3,-2.7 -0.3,-1.1 -0.7,-2.5 -0.6,-3.7 z"
   id="path246"
   inkscape:connector-curvature="0"
   style="fill:#ffffff" />
		<path
   class="st26"
   d="m 994.6,62.8 c 0,-0.2 0.1,-0.4 0.1,-0.6 0.1,-0.2 0.2,-0.3 0.3,-0.4 0.1,-0.1 0.3,-0.2 0.5,-0.3 0.2,-0.1 0.4,-0.1 0.6,-0.1 l 4.9,0.3 c 0.7,0 1.4,0.1 2.1,0.3 0.7,0.2 1.3,0.4 1.8,0.7 0.5,0.3 0.9,0.8 1.2,1.3 0.3,0.5 0.4,1.2 0.4,2 0,0.4 -0.1,0.8 -0.3,1.2 -0.2,0.4 -0.4,0.7 -0.7,1 -0.3,0.3 -0.7,0.5 -1.1,0.7 -0.4,0.2 -0.9,0.3 -1.5,0.4 v 0 c 0.5,0.1 1,0.3 1.3,0.5 0.3,0.2 0.6,0.4 0.8,0.7 0.2,0.3 0.4,0.6 0.4,1 0.1,0.4 0.1,0.8 0.2,1.3 0,0.4 0,0.9 0.1,1.3 0,0.4 0,0.7 0,1 0,0.4 0,0.7 0,1 v 0.1 c 0,0.2 -0.1,0.4 -0.2,0.6 -0.1,0.2 -0.2,0.3 -0.4,0.4 -0.1,0.1 -0.3,0.2 -0.5,0.2 -0.2,0 -0.4,0.1 -0.5,0.1 -0.2,0 -0.3,0 -0.5,-0.1 -0.2,-0.1 -0.3,-0.1 -0.4,-0.3 -0.1,-0.2 -0.2,-0.2 -0.3,-0.4 -0.1,-0.2 -0.1,-0.4 -0.1,-0.6 0,-0.8 -0.1,-1.5 -0.1,-2.1 0,-0.6 0,-1.1 -0.1,-1.5 0,-0.4 -0.1,-0.8 -0.2,-1.1 -0.1,-0.3 -0.3,-0.5 -0.5,-0.7 -0.2,-0.2 -0.5,-0.3 -0.8,-0.4 -0.3,-0.1 -0.7,-0.1 -1.2,-0.2 l -3,-0.2 -0.3,5.5 c 0,0.2 -0.1,0.4 -0.2,0.6 -0.1,0.2 -0.2,0.3 -0.4,0.4 -0.1,0.1 -0.3,0.2 -0.5,0.2 -0.2,0 -0.4,0.1 -0.5,0.1 -0.2,0 -0.4,0 -0.5,-0.1 -0.1,-0.1 -0.3,-0.2 -0.4,-0.3 -0.1,-0.1 -0.2,-0.3 -0.3,-0.5 -0.1,-0.2 -0.1,-0.4 -0.1,-0.6 z m 4.9,5.7 c 0.5,0 0.9,0 1.4,0 0.5,0 0.9,-0.1 1.3,-0.3 0.4,-0.1 0.7,-0.4 1,-0.7 0.3,-0.3 0.4,-0.7 0.4,-1.3 0,-0.5 0,-1 -0.2,-1.3 -0.2,-0.3 -0.4,-0.6 -0.8,-0.8 -0.4,-0.2 -0.7,-0.3 -1.1,-0.4 -0.4,-0.1 -0.8,-0.1 -1.1,-0.1 l -2.9,-0.2 -0.3,4.8 z"
   id="path248"
   inkscape:connector-curvature="0"
   style="fill:#ffffff" />
		<path
   class="st26"
   d="m 1010.3,63.6 c 0,-0.2 0.1,-0.4 0.2,-0.6 0.1,-0.2 0.2,-0.3 0.4,-0.4 0.1,-0.1 0.3,-0.2 0.5,-0.2 0.2,0 0.4,-0.1 0.5,-0.1 0.2,0 0.4,0 0.5,0.1 0.2,0.1 0.3,0.2 0.5,0.3 0.2,0.1 0.2,0.3 0.3,0.5 0.1,0.2 0.1,0.4 0.1,0.6 l -0.7,13 c 0,0.2 -0.1,0.4 -0.2,0.6 -0.1,0.2 -0.2,0.3 -0.4,0.4 -0.1,0.1 -0.3,0.2 -0.5,0.2 -0.2,0 -0.4,0.1 -0.5,0.1 -0.2,0 -0.4,0 -0.5,-0.1 -0.2,-0.1 -0.3,-0.2 -0.5,-0.3 -0.1,-0.1 -0.2,-0.3 -0.3,-0.5 -0.1,-0.2 -0.1,-0.4 -0.1,-0.6 z"
   id="path250"
   inkscape:connector-curvature="0"
   style="fill:#ffffff" />
		<path
   class="st26"
   d="m 1017.2,64 c 0,-0.2 0.1,-0.4 0.1,-0.5 0.1,-0.2 0.2,-0.3 0.3,-0.4 0.1,-0.1 0.3,-0.2 0.5,-0.3 0.2,-0.1 0.4,-0.1 0.6,-0.1 l 5.5,0.3 c 0.7,0 1.3,0.2 1.9,0.4 0.6,0.2 1.1,0.5 1.5,0.9 0.4,0.4 0.7,0.8 0.9,1.3 0.2,0.5 0.3,1 0.3,1.6 0,0.4 -0.1,0.8 -0.3,1.2 -0.2,0.4 -0.4,0.7 -0.7,1 -0.3,0.3 -0.6,0.6 -1,0.8 -0.4,0.2 -0.8,0.3 -1.3,0.4 v 0 c 0.5,0.1 1,0.3 1.5,0.5 0.4,0.2 0.8,0.5 1.1,0.9 0.3,0.4 0.5,0.8 0.7,1.2 0.2,0.4 0.2,0.9 0.2,1.5 0,0.5 -0.2,1 -0.4,1.5 -0.2,0.5 -0.6,0.9 -1,1.3 -0.4,0.4 -1,0.7 -1.7,0.9 -0.7,0.2 -1.5,0.3 -2.4,0.2 l -5.6,-0.3 c -0.2,0 -0.4,-0.1 -0.5,-0.1 -0.1,0 -0.3,-0.2 -0.4,-0.3 -0.1,-0.1 -0.2,-0.3 -0.3,-0.5 -0.1,-0.2 -0.1,-0.4 -0.1,-0.6 z m 2.1,12.6 2.8,0.2 c 0.6,0 1.1,0 1.6,0 0.5,-0.1 0.9,-0.2 1.2,-0.4 0.3,-0.2 0.6,-0.4 0.8,-0.8 0.2,-0.3 0.3,-0.8 0.3,-1.3 0,-0.5 -0.1,-1 -0.2,-1.4 -0.2,-0.4 -0.5,-0.6 -0.9,-0.8 -0.4,-0.2 -0.8,-0.4 -1.4,-0.5 -0.6,-0.1 -1.1,-0.2 -1.8,-0.2 l -2.1,-0.1 z m 0.7,-11.9 -0.3,4.9 2.7,0.2 c 0.4,0 0.9,0 1.3,-0.1 0.4,-0.1 0.8,-0.2 1.1,-0.4 0.3,-0.2 0.6,-0.4 0.7,-0.7 0.2,-0.3 0.3,-0.7 0.3,-1.1 0,-0.5 0,-0.9 -0.2,-1.2 -0.2,-0.3 -0.4,-0.6 -0.7,-0.8 -0.3,-0.2 -0.6,-0.3 -1,-0.4 -0.4,-0.1 -0.8,-0.2 -1.2,-0.2 z"
   id="path252"
   inkscape:connector-curvature="0"
   style="fill:#ffffff" />
		<path
   class="st26"
   d="m 1032.9,64.9 c 0,-0.2 0.1,-0.4 0.2,-0.6 0.1,-0.2 0.2,-0.3 0.4,-0.4 0.2,-0.1 0.3,-0.2 0.5,-0.2 0.2,0 0.4,-0.1 0.5,-0.1 0.2,0 0.4,0 0.5,0.1 0.2,0.1 0.3,0.2 0.5,0.3 0.1,0.1 0.2,0.3 0.3,0.5 0.1,0.2 0.1,0.4 0.1,0.6 l -0.7,13 c 0,0.2 -0.1,0.4 -0.2,0.6 -0.1,0.2 -0.2,0.3 -0.4,0.4 -0.1,0.1 -0.3,0.2 -0.5,0.2 -0.2,0 -0.4,0.1 -0.5,0.1 -0.2,0 -0.4,0 -0.5,-0.1 -0.2,-0.1 -0.3,-0.2 -0.5,-0.3 -0.1,-0.1 -0.2,-0.3 -0.3,-0.5 -0.1,-0.2 -0.1,-0.4 -0.1,-0.6 z"
   id="path254"
   inkscape:connector-curvature="0"
   style="fill:#ffffff" />
		<path
   class="st26"
   d="m 1039.8,65.3 c 0,-0.2 0.1,-0.4 0.1,-0.6 0.1,-0.2 0.2,-0.3 0.3,-0.4 0.1,-0.1 0.3,-0.2 0.5,-0.3 0.2,-0.1 0.4,-0.1 0.6,-0.1 l 4.9,0.3 c 0.7,0 1.4,0.1 2.1,0.3 0.7,0.2 1.3,0.4 1.8,0.7 0.5,0.3 0.9,0.8 1.2,1.3 0.3,0.5 0.4,1.2 0.4,2 0,0.4 -0.1,0.8 -0.3,1.2 -0.2,0.4 -0.4,0.7 -0.7,1 -0.3,0.3 -0.7,0.5 -1.1,0.7 -0.4,0.2 -0.9,0.3 -1.5,0.4 v 0 c 0.5,0.1 1,0.3 1.3,0.5 0.3,0.2 0.6,0.4 0.8,0.7 0.2,0.3 0.4,0.6 0.4,1 0.1,0.4 0.1,0.8 0.2,1.3 0,0.4 0,0.9 0.1,1.3 0,0.4 0,0.7 0,1 0,0.4 0,0.7 0,1 v 0.1 c 0,0.2 -0.1,0.4 -0.2,0.6 -0.1,0.2 -0.2,0.3 -0.4,0.4 -0.1,0.1 -0.3,0.2 -0.5,0.2 -0.2,0 -0.4,0.1 -0.5,0.1 -0.2,0 -0.3,0 -0.5,-0.1 -0.2,-0.1 -0.3,-0.1 -0.4,-0.3 -0.1,-0.2 -0.2,-0.2 -0.3,-0.4 -0.1,-0.2 -0.1,-0.4 -0.1,-0.6 0,-0.8 -0.1,-1.5 -0.1,-2.1 0,-0.6 0,-1.1 -0.1,-1.5 -0.1,-0.4 -0.1,-0.8 -0.2,-1.1 -0.1,-0.3 -0.3,-0.5 -0.5,-0.7 -0.2,-0.2 -0.5,-0.3 -0.8,-0.4 -0.3,-0.1 -0.7,-0.1 -1.2,-0.2 l -3,-0.2 -0.3,5.5 c 0,0.2 -0.1,0.4 -0.2,0.6 -0.1,0.2 -0.2,0.3 -0.4,0.4 -0.1,0.1 -0.3,0.2 -0.5,0.2 -0.2,0 -0.4,0.1 -0.5,0.1 -0.2,0 -0.4,0 -0.5,-0.1 -0.2,-0.1 -0.3,-0.2 -0.4,-0.3 -0.1,-0.1 -0.2,-0.3 -0.3,-0.5 -0.1,-0.2 -0.1,-0.4 -0.1,-0.6 z m 5,5.7 c 0.5,0 0.9,0 1.4,0 0.5,0 0.9,-0.1 1.3,-0.3 0.4,-0.1 0.7,-0.4 1,-0.7 0.3,-0.3 0.4,-0.7 0.4,-1.3 0,-0.5 0,-1 -0.2,-1.3 -0.2,-0.3 -0.4,-0.6 -0.8,-0.8 -0.3,-0.2 -0.7,-0.3 -1.1,-0.4 -0.4,-0.1 -0.8,-0.1 -1.1,-0.1 l -2.9,-0.2 -0.3,4.8 z"
   id="path256"
   inkscape:connector-curvature="0"
   style="fill:#ffffff" />
	</g>
	<g
   class="st3"
   id="g262"
   style="enable-background:new">
		<path
   class="st26"
   d="m 1054.6,79.2 c 0,-0.2 0.1,-0.4 0.1,-0.5 0.1,-0.2 0.2,-0.3 0.3,-0.4 0.1,-0.1 0.3,-0.2 0.5,-0.3 0.2,-0.1 0.4,-0.1 0.6,-0.1 0.2,0 0.4,0.1 0.6,0.2 0.2,0.1 0.3,0.2 0.5,0.3 0.1,0.1 0.2,0.3 0.3,0.5 0.1,0.2 0.1,0.3 0.1,0.5 0,0.2 -0.1,0.4 -0.1,0.5 -0.1,0.2 -0.2,0.3 -0.3,0.4 -0.1,0.1 -0.3,0.2 -0.5,0.3 -0.2,0.1 -0.4,0.1 -0.6,0.1 -0.2,0 -0.4,-0.1 -0.6,-0.1 -0.2,-0.1 -0.3,-0.2 -0.5,-0.3 -0.2,-0.1 -0.2,-0.3 -0.3,-0.5 0,-0.3 -0.1,-0.4 -0.1,-0.6 z m 0.5,-8.5 c 0,-0.2 0.1,-0.4 0.1,-0.5 0.1,-0.2 0.2,-0.3 0.3,-0.4 0.1,-0.1 0.3,-0.2 0.5,-0.3 0.2,-0.1 0.4,-0.1 0.6,-0.1 0.2,0 0.4,0.1 0.6,0.2 0.2,0.1 0.3,0.2 0.5,0.3 0.2,0.1 0.2,0.3 0.3,0.5 0.1,0.2 0.1,0.4 0.1,0.5 0,0.2 -0.1,0.4 -0.1,0.5 -0.1,0.2 -0.2,0.3 -0.3,0.4 -0.1,0.1 -0.3,0.2 -0.5,0.3 -0.2,0.1 -0.4,0.1 -0.6,0.1 -0.2,0 -0.4,-0.1 -0.6,-0.1 -0.2,-0.1 -0.3,-0.2 -0.5,-0.3 -0.1,-0.1 -0.2,-0.3 -0.3,-0.5 -0.1,-0.2 -0.1,-0.4 -0.1,-0.6 z"
   id="path260"
   inkscape:connector-curvature="0"
   style="fill:#ffffff" />
	</g>
	<path
   class="st2"
   d="m 1069.3,80.4 0.9,-16.4 c 0.3,-4.5 4.1,-8 8.6,-7.7 l 22,1.2 c 4.5,0.3 8,4.1 7.7,8.6 l -0.9,16.4 c -0.3,4.5 -4.1,8 -8.6,7.7 L 1077,89 c -4.5,-0.3 -8,-4.1 -7.7,-8.6 z"
   id="path264"
   inkscape:connector-curvature="0"
   style="fill:#ffffff;fill-opacity:0.6" />
</g>
<path
   class="st37"
   d="M818.9,203.8c-0.4-8.7,6.3-16.1,15-16.5l13.8-0.6l12.2,7.3l5.9-0.3l11.5-8.4l193.5-9l2.4,51.2l-194.5,9  l-11.5,8.5l-5.9,0.3l-12.2-7.3l-12.8,0.6c-8.7,0.4-16.1-6.3-16.5-15L818.9,203.8z"
   id="path268"
   style="opacity:0.12239583" />
<path
   class="st38"
   d="M816.9,202c-0.4-8.7,6.3-16.1,15-16.5l13.8-0.6l12.2,7.3l5.9-0.3l11.5-8.4l193.5-9l2.4,51.2l-194.5,9  l-11.5,8.4l-5.9,0.3l-12.2-7.3l-12.8,0.6c-8.7,0.4-16.1-6.3-16.5-15L816.9,202z"
   id="path270"
   style="opacity:0.12239583" />
<path
   class="st39"
   d="M817.8,200.9c0.2-7.8,6.3-14.1,14.1-14.5l13.8-0.6l12.2,7.3l5.9-0.3l11.4-8.4l192.5-9 M823.5,231.8  c-2.9-2.6-4.6-6.3-4.8-10.2l-0.9-19.7"
   id="path272"
   style="opacity:0.12239583" />
<g
   id="g276"
   style="opacity:0.12239583">
	<path
   class="st26"
   d="m 842.4,213.9 8.9,-9.8 c 0.3,-0.4 0.7,-0.6 1.2,-0.6 0.5,0 1,0.2 1.4,0.5 l 9.6,8.9 c 0.5,0.2 0.8,0.7 0.8,1.2 0,0.5 -0.2,1 -0.5,1.4 l -1,1.1 c -0.8,0.7 -1.9,0.8 -2.8,0.1 l -4.3,-4 0.5,10 c 0,1 -0.7,1.8 -1.6,1.8 v 0 l -1.7,0.1 c -0.9,0 -1.7,-0.7 -1.8,-1.6 l -0.5,-10.2 -4.3,4.5 c -0.3,0.4 -0.8,0.6 -1.4,0.6 -0.5,0 -1,-0.2 -1.4,-0.5 l -1.1,-1 c -0.4,-0.3 -0.6,-0.8 -0.6,-1.4 -0.1,-0.4 0.1,-0.9 0.6,-1.1 z"
   id="path274"
   inkscape:connector-curvature="0"
   style="fill:#ffffff" />
</g>
<g
   class="st3"
   id="g280"
   style="enable-background:new;opacity:0.12239583">
	<path
   class="st26"
   d="m 900.6,215.1 3.8,-9.9 c 0.1,-0.4 0.3,-0.8 0.4,-1 0.1,-0.3 0.3,-0.5 0.5,-0.7 0.2,-0.2 0.4,-0.3 0.6,-0.4 0.2,-0.1 0.5,-0.1 0.7,-0.1 0.3,0 0.5,0 0.8,0.1 0.3,0.1 0.5,0.2 0.7,0.4 0.2,0.2 0.4,0.4 0.5,0.7 0.1,0.3 0.2,0.6 0.2,1 l 0.6,11.7 c 0,0.2 0,0.4 -0.1,0.5 -0.1,0.2 -0.1,0.3 -0.3,0.4 -0.1,0.1 -0.2,0.2 -0.4,0.3 -0.1,0.1 -0.3,0.1 -0.4,0.1 -0.1,0 -0.3,0 -0.4,-0.1 -0.1,0 -0.3,-0.1 -0.4,-0.2 -0.1,-0.1 -0.2,-0.2 -0.3,-0.4 -0.1,-0.1 -0.1,-0.3 -0.1,-0.5 l -0.6,-11.3 -4.2,11 c -0.1,0.2 -0.1,0.4 -0.3,0.5 -0.1,0.2 -0.2,0.3 -0.4,0.4 -0.1,0.1 -0.3,0.2 -0.5,0.3 -0.2,0.1 -0.3,0.1 -0.5,0.1 -0.3,0 -0.6,-0.1 -0.9,-0.2 -0.3,-0.2 -0.5,-0.5 -0.7,-0.9 l -5.2,-10.5 0.6,11.2 c 0,0.2 0,0.4 -0.1,0.5 -0.1,0.2 -0.1,0.3 -0.3,0.4 -0.1,0.1 -0.2,0.2 -0.4,0.3 -0.1,0.1 -0.3,0.1 -0.4,0.1 -0.1,0 -0.3,0 -0.4,-0.1 -0.1,0 -0.3,-0.1 -0.4,-0.2 -0.1,-0.1 -0.2,-0.2 -0.3,-0.4 -0.1,-0.1 -0.1,-0.3 -0.1,-0.5 L 891.3,206 c 0,-0.4 0,-0.8 0.1,-1.1 0.1,-0.3 0.2,-0.5 0.4,-0.7 0.2,-0.2 0.4,-0.3 0.6,-0.4 0.2,-0.1 0.5,-0.2 0.8,-0.2 0.3,0 0.5,0 0.7,0.1 0.2,0.1 0.4,0.2 0.6,0.3 0.2,0.1 0.4,0.4 0.6,0.6 0.2,0.3 0.4,0.6 0.5,1 z"
   id="path278"
   inkscape:connector-curvature="0"
   style="fill:#ffffff" />
</g>
<g
   class="st3"
   id="g284"
   style="enable-background:new;opacity:0.12239583">
	<path
   class="st26"
   d="m 912.2,210.3 c -0.1,-1.2 0,-2.3 0.3,-3.3 0.3,-1 0.7,-1.9 1.3,-2.6 0.6,-0.7 1.3,-1.3 2.2,-1.7 0.9,-0.4 1.9,-0.7 3.1,-0.7 1.2,-0.1 2.3,0.1 3.2,0.4 0.9,0.3 1.7,0.8 2.4,1.5 0.7,0.7 1.2,1.5 1.5,2.4 0.4,1 0.6,2 0.6,3.2 0,1.2 0,2.3 -0.3,3.3 -0.3,1 -0.7,1.8 -1.3,2.6 -0.6,0.7 -1.3,1.3 -2.2,1.7 -0.9,0.4 -1.9,0.7 -3.1,0.7 -1.2,0.1 -2.2,-0.1 -3.2,-0.4 -0.9,-0.3 -1.7,-0.8 -2.4,-1.5 -0.7,-0.7 -1.2,-1.5 -1.5,-2.4 -0.3,-0.9 -0.6,-2 -0.6,-3.2 z m 3,-0.1 c 0,0.8 0.2,1.6 0.4,2.3 0.2,0.7 0.5,1.3 0.9,1.8 0.4,0.5 0.8,0.9 1.4,1.2 0.6,0.3 1.2,0.4 2,0.3 0.8,0 1.4,-0.2 1.9,-0.5 0.5,-0.3 1,-0.7 1.3,-1.3 0.3,-0.5 0.6,-1.2 0.7,-1.9 0.1,-0.7 0.2,-1.5 0.1,-2.4 0,-0.8 -0.2,-1.6 -0.4,-2.3 -0.2,-0.7 -0.5,-1.3 -0.9,-1.8 -0.4,-0.5 -0.8,-0.9 -1.4,-1.2 -0.6,-0.3 -1.2,-0.4 -2,-0.3 -0.8,0 -1.4,0.2 -1.9,0.5 -0.5,0.3 -1,0.8 -1.3,1.3 -0.3,0.5 -0.5,1.2 -0.7,1.9 -0.1,0.8 -0.2,1.5 -0.1,2.4 z"
   id="path282"
   inkscape:connector-curvature="0"
   style="fill:#ffffff" />
</g>
<g
   class="st3"
   id="g292"
   style="enable-background:new;opacity:0.12239583">
	<path
   class="st26"
   d="m 934.5,214.6 v 0 l 3.4,-12.2 c 0.1,-0.3 0.2,-0.6 0.5,-0.7 0.3,-0.1 0.5,-0.3 0.8,-0.3 0.2,0 0.3,0 0.5,0.1 0.2,0.1 0.3,0.1 0.4,0.2 0.1,0.1 0.2,0.2 0.3,0.4 0.1,0.1 0.1,0.3 0.1,0.5 0,0.1 0,0.1 0,0.2 0,0.1 0,0.1 0,0.2 l -3.6,12 c -0.1,0.3 -0.2,0.6 -0.3,0.9 -0.1,0.2 -0.3,0.4 -0.5,0.6 -0.2,0.2 -0.4,0.3 -0.7,0.3 -0.2,0.1 -0.5,0.1 -0.8,0.1 -0.3,0 -0.6,0 -0.8,0 -0.2,0 -0.5,-0.1 -0.7,-0.3 -0.2,-0.1 -0.4,-0.3 -0.6,-0.5 -0.2,-0.2 -0.3,-0.5 -0.4,-0.9 l -4.8,-11.5 c 0,-0.1 -0.1,-0.3 -0.1,-0.4 0,-0.2 0,-0.3 0.1,-0.5 0.1,-0.2 0.2,-0.3 0.3,-0.4 0.1,-0.1 0.3,-0.2 0.4,-0.3 0.2,-0.1 0.3,-0.1 0.5,-0.1 0.3,0 0.5,0.1 0.8,0.2 0.2,0.2 0.4,0.4 0.5,0.7 z"
   id="path286"
   inkscape:connector-curvature="0"
   style="fill:#ffffff" />
	<path
   class="st26"
   d="m 945.1,216.3 c -0.2,0 -0.4,0 -0.5,-0.1 -0.2,-0.1 -0.3,-0.2 -0.5,-0.3 -0.1,-0.1 -0.2,-0.3 -0.3,-0.4 -0.1,-0.2 -0.1,-0.3 -0.1,-0.5 l -0.6,-12.5 c 0,-0.2 0,-0.3 0.1,-0.5 0.1,-0.2 0.1,-0.3 0.3,-0.5 0.1,-0.1 0.3,-0.2 0.4,-0.3 0.2,-0.1 0.3,-0.1 0.5,-0.1 l 7.7,-0.4 c 0.2,0 0.3,0 0.5,0.1 0.1,0.1 0.2,0.1 0.3,0.2 0.1,0.1 0.2,0.2 0.2,0.3 0,0.1 0.1,0.2 0.1,0.4 0,0.1 0,0.3 0,0.4 0,0.1 -0.1,0.2 -0.2,0.3 -0.1,0.1 -0.2,0.2 -0.3,0.3 -0.1,0.1 -0.3,0.1 -0.5,0.1 l -6.3,0.3 0.2,4.3 5.9,-0.3 c 0.2,0 0.3,0 0.5,0.1 0.1,0.1 0.3,0.1 0.3,0.2 0.1,0.1 0.2,0.2 0.2,0.3 0,0.1 0.1,0.3 0.1,0.4 0,0.1 0,0.3 0,0.4 0,0.1 -0.1,0.2 -0.2,0.3 -0.1,0.1 -0.2,0.2 -0.3,0.3 -0.1,0.1 -0.3,0.1 -0.5,0.1 l -5.9,0.3 0.2,4.6 6.5,-0.3 c 0.2,0 0.3,0 0.5,0.1 0.1,0.1 0.2,0.1 0.3,0.2 0.1,0.1 0.2,0.2 0.2,0.3 0,0.1 0.1,0.3 0.1,0.4 0,0.1 0,0.3 0,0.4 0,0.1 -0.1,0.2 -0.2,0.3 -0.1,0.1 -0.2,0.2 -0.3,0.3 -0.1,0.1 -0.3,0.1 -0.5,0.1 z"
   id="path288"
   inkscape:connector-curvature="0"
   style="fill:#ffffff" />
	<path
   class="st26"
   d="m 956.4,201.9 c 0,-0.2 0,-0.4 0.1,-0.5 0.1,-0.2 0.2,-0.3 0.3,-0.5 0.1,-0.1 0.3,-0.2 0.4,-0.3 0.2,-0.1 0.4,-0.1 0.5,-0.1 l 4.8,-0.2 c 0.7,0 1.4,0 2.1,0.1 0.7,0.1 1.3,0.3 1.8,0.5 0.5,0.3 1,0.6 1.3,1.1 0.3,0.5 0.5,1.1 0.6,1.9 0,0.4 0,0.8 -0.1,1.2 -0.1,0.4 -0.3,0.7 -0.5,1 -0.2,0.3 -0.6,0.6 -1,0.8 -0.4,0.2 -0.9,0.4 -1.4,0.5 v 0 c 0.5,0.1 1,0.2 1.3,0.3 0.4,0.2 0.6,0.4 0.9,0.6 0.2,0.3 0.4,0.6 0.5,0.9 0.1,0.4 0.2,0.8 0.3,1.3 0.1,0.4 0.1,0.8 0.2,1.2 0.1,0.4 0.1,0.7 0.1,1 0,0.3 0.1,0.6 0.1,0.9 v 0.1 c 0,0.2 0,0.4 -0.1,0.6 -0.1,0.2 -0.2,0.3 -0.3,0.4 -0.1,0.1 -0.3,0.2 -0.4,0.3 -0.2,0.1 -0.3,0.1 -0.5,0.1 -0.2,0 -0.3,0 -0.5,0 -0.2,0 -0.3,-0.1 -0.4,-0.2 -0.1,-0.1 -0.3,-0.2 -0.3,-0.4 -0.1,-0.1 -0.2,-0.3 -0.2,-0.5 -0.1,-0.8 -0.2,-1.4 -0.3,-2 -0.1,-0.6 -0.2,-1 -0.2,-1.4 -0.1,-0.4 -0.2,-0.7 -0.3,-1 -0.1,-0.3 -0.3,-0.5 -0.5,-0.6 -0.2,-0.1 -0.5,-0.2 -0.8,-0.3 -0.3,0 -0.7,-0.1 -1.2,0 l -2.9,0.1 0.3,5.3 c 0,0.2 0,0.4 -0.1,0.6 -0.1,0.2 -0.2,0.3 -0.3,0.4 -0.1,0.1 -0.3,0.2 -0.4,0.3 -0.2,0.1 -0.3,0.1 -0.5,0.1 -0.2,0 -0.3,0 -0.5,-0.1 -0.2,0 -0.3,-0.1 -0.5,-0.2 -0.1,-0.1 -0.2,-0.2 -0.3,-0.4 -0.1,-0.2 -0.1,-0.4 -0.2,-0.6 z m 5.4,4.9 c 0.4,0 0.9,-0.1 1.3,-0.1 0.4,-0.1 0.8,-0.2 1.2,-0.4 0.4,-0.2 0.6,-0.4 0.8,-0.8 0.2,-0.3 0.3,-0.8 0.3,-1.3 0,-0.5 -0.1,-0.9 -0.4,-1.2 -0.2,-0.3 -0.5,-0.5 -0.8,-0.7 -0.3,-0.2 -0.7,-0.2 -1.1,-0.2 -0.4,0 -0.8,0 -1.1,0 l -2.8,0.1 0.2,4.7 z"
   id="path290"
   inkscape:connector-curvature="0"
   style="fill:#ffffff" />
</g>
<g
   class="st3"
   id="g302"
   style="enable-background:new;opacity:0.12239583">
	<path
   class="st26"
   d="m 990.7,212.4 c 0.1,0.1 0.1,0.3 0.1,0.4 0,0.2 0,0.4 -0.1,0.5 -0.1,0.2 -0.2,0.3 -0.3,0.4 -0.1,0.1 -0.3,0.2 -0.4,0.3 -0.2,0.1 -0.3,0.1 -0.5,0.1 -0.3,0 -0.5,0 -0.7,-0.2 -0.2,-0.1 -0.4,-0.4 -0.5,-0.7 l -1.2,-2.8 -6.8,0.3 -0.9,2.9 c -0.1,0.3 -0.2,0.6 -0.4,0.7 -0.2,0.1 -0.4,0.2 -0.7,0.2 -0.2,0 -0.3,0 -0.5,-0.1 -0.2,0 -0.3,-0.1 -0.5,-0.2 -0.1,-0.1 -0.2,-0.2 -0.3,-0.4 -0.1,-0.1 -0.1,-0.3 -0.1,-0.5 0,-0.1 0,-0.1 0,-0.2 0,-0.1 0,-0.2 0.1,-0.2 l 3.9,-11.3 c 0.2,-0.5 0.3,-0.9 0.5,-1.2 0.2,-0.3 0.3,-0.6 0.5,-0.8 0.2,-0.2 0.4,-0.3 0.6,-0.4 0.2,-0.1 0.5,-0.1 0.8,-0.1 0.3,0 0.6,0 0.8,0.1 0.2,0.1 0.5,0.2 0.7,0.4 0.2,0.2 0.4,0.4 0.6,0.7 0.2,0.3 0.4,0.7 0.6,1.2 z m -7.6,-11.1 -2.4,7.7 5.6,-0.3 z"
   id="path294"
   inkscape:connector-curvature="0"
   style="fill:#ffffff" />
	<path
   class="st26"
   d="m 992.7,200.1 c 0,-0.2 0,-0.4 0.1,-0.5 0.1,-0.2 0.2,-0.3 0.3,-0.5 0.1,-0.1 0.3,-0.2 0.4,-0.3 0.2,-0.1 0.3,-0.1 0.5,-0.1 l 4.8,-0.2 c 0.7,0 1.4,0 2.1,0.1 0.7,0.1 1.3,0.3 1.8,0.5 0.5,0.3 1,0.6 1.3,1.1 0.3,0.5 0.5,1.1 0.6,1.9 0,0.4 0,0.8 -0.1,1.2 -0.1,0.4 -0.3,0.7 -0.5,1 -0.2,0.3 -0.6,0.6 -1,0.8 -0.4,0.2 -0.9,0.4 -1.4,0.5 v 0 c 0.5,0.1 1,0.2 1.3,0.3 0.4,0.2 0.6,0.4 0.9,0.6 0.3,0.2 0.4,0.6 0.5,0.9 0.1,0.4 0.2,0.8 0.3,1.3 0.1,0.4 0.1,0.8 0.2,1.2 0.1,0.4 0.1,0.7 0.1,1 0,0.3 0.1,0.6 0.1,0.9 v 0.1 c 0,0.2 0,0.4 -0.1,0.6 -0.1,0.2 -0.2,0.3 -0.3,0.4 -0.1,0.1 -0.3,0.2 -0.4,0.3 -0.1,0.1 -0.3,0.1 -0.5,0.1 -0.2,0 -0.3,0 -0.5,0 -0.2,0 -0.3,-0.1 -0.4,-0.2 -0.1,-0.1 -0.3,-0.2 -0.3,-0.4 -0.1,-0.1 -0.2,-0.3 -0.2,-0.5 -0.1,-0.8 -0.2,-1.4 -0.3,-2 -0.1,-0.6 -0.2,-1 -0.2,-1.4 -0.1,-0.4 -0.2,-0.7 -0.3,-1 -0.1,-0.3 -0.3,-0.5 -0.5,-0.6 -0.2,-0.1 -0.5,-0.2 -0.8,-0.3 -0.3,0 -0.7,-0.1 -1.2,0 l -2.9,0.1 0.3,5.3 c 0,0.2 0,0.4 -0.1,0.6 -0.1,0.2 -0.2,0.3 -0.3,0.4 -0.1,0.1 -0.3,0.2 -0.4,0.3 -0.2,0.1 -0.3,0.1 -0.5,0.1 -0.2,0 -0.3,0 -0.5,-0.1 -0.2,0 -0.3,-0.1 -0.5,-0.2 -0.1,-0.1 -0.2,-0.2 -0.3,-0.4 -0.1,-0.2 -0.1,-0.4 -0.2,-0.6 z m 5.3,4.9 c 0.4,0 0.9,-0.1 1.3,-0.1 0.4,-0.1 0.8,-0.2 1.2,-0.4 0.4,-0.2 0.6,-0.4 0.8,-0.8 0.2,-0.3 0.3,-0.8 0.3,-1.3 0,-0.5 -0.1,-0.9 -0.4,-1.2 -0.2,-0.3 -0.5,-0.5 -0.8,-0.7 -0.3,-0.1 -0.7,-0.2 -1.1,-0.2 -0.4,0 -0.8,0 -1.1,0 l -2.8,0.1 0.2,4.7 z"
   id="path296"
   inkscape:connector-curvature="0"
   style="fill:#ffffff" />
	<path
   class="st26"
   d="m 1007.7,199.3 c 0,-0.2 0,-0.4 0.1,-0.5 0.1,-0.2 0.2,-0.3 0.3,-0.5 0.1,-0.1 0.3,-0.2 0.4,-0.3 0.2,-0.1 0.4,-0.1 0.5,-0.1 l 4.8,-0.2 c 0.7,0 1.4,0 2.1,0.1 0.7,0.1 1.3,0.3 1.8,0.5 0.5,0.3 1,0.6 1.3,1.1 0.3,0.5 0.5,1.1 0.6,1.9 0,0.4 0,0.8 -0.1,1.2 -0.1,0.4 -0.3,0.7 -0.5,1 -0.2,0.3 -0.6,0.6 -1,0.8 -0.4,0.2 -0.9,0.4 -1.4,0.5 v 0 c 0.5,0.1 1,0.2 1.3,0.3 0.4,0.2 0.6,0.4 0.9,0.6 0.2,0.3 0.4,0.6 0.5,0.9 0.1,0.4 0.2,0.8 0.3,1.3 0.1,0.4 0.1,0.8 0.2,1.2 0.1,0.4 0.1,0.7 0.1,1 0,0.3 0.1,0.6 0.1,0.9 v 0.1 c 0,0.2 0,0.4 -0.1,0.6 -0.1,0.2 -0.2,0.3 -0.3,0.4 -0.1,0.1 -0.3,0.2 -0.4,0.3 -0.2,0.1 -0.3,0.1 -0.5,0.1 -0.2,0 -0.3,0 -0.5,0 -0.2,0 -0.3,-0.1 -0.4,-0.2 -0.1,-0.1 -0.3,-0.2 -0.3,-0.4 -0.1,-0.1 -0.2,-0.3 -0.2,-0.5 -0.1,-0.8 -0.2,-1.4 -0.3,-2 -0.1,-0.6 -0.2,-1 -0.2,-1.4 -0.1,-0.4 -0.2,-0.7 -0.3,-1 -0.1,-0.3 -0.3,-0.5 -0.5,-0.6 -0.2,-0.1 -0.5,-0.2 -0.8,-0.3 -0.3,0 -0.7,-0.1 -1.2,0 l -2.9,0.1 0.3,5.3 c 0,0.2 0,0.4 -0.1,0.6 -0.1,0.2 -0.2,0.3 -0.3,0.4 -0.1,0.1 -0.3,0.2 -0.4,0.3 -0.2,0.1 -0.3,0.1 -0.5,0.1 -0.2,0 -0.3,0 -0.5,-0.1 -0.2,0 -0.3,-0.1 -0.5,-0.2 -0.1,-0.1 -0.2,-0.2 -0.3,-0.4 -0.1,-0.2 -0.1,-0.4 -0.2,-0.6 z m 5.4,5 c 0.4,0 0.9,-0.1 1.3,-0.1 0.4,-0.1 0.8,-0.2 1.2,-0.4 0.4,-0.2 0.6,-0.4 0.8,-0.8 0.2,-0.3 0.3,-0.8 0.3,-1.3 0,-0.5 -0.1,-0.9 -0.4,-1.2 -0.2,-0.3 -0.5,-0.5 -0.8,-0.7 -0.3,-0.1 -0.7,-0.2 -1.1,-0.2 -0.4,0 -0.8,0 -1.1,0 l -2.8,0.1 0.2,4.7 z"
   id="path298"
   inkscape:connector-curvature="0"
   style="fill:#ffffff" />
	<path
   class="st26"
   d="m 1022.8,198.5 c 0,-0.2 0,-0.4 0.1,-0.6 0.1,-0.2 0.2,-0.3 0.3,-0.4 0.1,-0.1 0.3,-0.2 0.4,-0.3 0.2,-0.1 0.3,-0.1 0.5,-0.1 0.2,0 0.4,0 0.5,0.1 0.2,0 0.3,0.1 0.5,0.2 0.1,0.1 0.3,0.2 0.3,0.4 0.1,0.2 0.1,0.4 0.2,0.6 l 0.6,12.5 c 0,0.2 0,0.4 -0.1,0.6 -0.1,0.2 -0.2,0.3 -0.3,0.4 -0.1,0.1 -0.3,0.2 -0.4,0.3 -0.2,0.1 -0.3,0.1 -0.5,0.1 -0.2,0 -0.4,0 -0.5,-0.1 -0.2,0 -0.3,-0.1 -0.5,-0.2 -0.1,-0.1 -0.2,-0.2 -0.3,-0.4 -0.1,-0.2 -0.1,-0.4 -0.2,-0.6 z"
   id="path300"
   inkscape:connector-curvature="0"
   style="fill:#ffffff" />
</g>
<g
   class="st3"
   id="g306"
   style="enable-background:new;opacity:0.12239583">
	<path
   class="st26"
   d="m 1029.5,198.2 c 0,-0.2 0,-0.4 0.1,-0.5 0.1,-0.2 0.2,-0.3 0.3,-0.4 0.1,-0.1 0.3,-0.2 0.4,-0.3 0.2,-0.1 0.3,-0.1 0.5,-0.1 l 5.3,-0.3 c 0.7,0 1.3,0 1.9,0.2 0.6,0.2 1.1,0.4 1.5,0.7 0.4,0.3 0.8,0.7 1,1.2 0.2,0.5 0.4,1 0.4,1.5 0,0.4 0,0.8 -0.2,1.2 -0.1,0.4 -0.3,0.7 -0.6,1.1 -0.2,0.3 -0.5,0.6 -0.9,0.8 -0.3,0.2 -0.7,0.4 -1.2,0.5 v 0 c 0.5,0.1 1,0.2 1.5,0.4 0.4,0.2 0.8,0.4 1.1,0.7 0.3,0.3 0.6,0.7 0.8,1.1 0.2,0.4 0.3,0.9 0.3,1.4 0,0.5 0,1 -0.2,1.5 -0.2,0.5 -0.4,1 -0.8,1.4 -0.4,0.4 -0.9,0.8 -1.5,1 -0.6,0.3 -1.4,0.4 -2.3,0.5 l -5.4,0.3 c -0.2,0 -0.4,0 -0.5,-0.1 -0.2,-0.1 -0.3,-0.1 -0.5,-0.3 -0.1,-0.1 -0.2,-0.3 -0.3,-0.4 -0.1,-0.2 -0.1,-0.3 -0.1,-0.5 z m 2.8,0.4 0.2,4.7 2.6,-0.1 c 0.4,0 0.8,-0.1 1.2,-0.2 0.4,-0.1 0.7,-0.3 1,-0.5 0.3,-0.2 0.5,-0.5 0.6,-0.8 0.2,-0.3 0.2,-0.7 0.2,-1.1 0,-0.5 -0.1,-0.8 -0.3,-1.1 -0.2,-0.3 -0.4,-0.5 -0.7,-0.7 -0.3,-0.2 -0.6,-0.3 -1,-0.3 -0.4,0 -0.8,-0.1 -1.2,0 z m 0.5,11.4 2.7,-0.1 c 0.6,0 1.1,-0.1 1.5,-0.2 0.4,-0.1 0.8,-0.3 1.1,-0.5 0.3,-0.2 0.5,-0.5 0.7,-0.8 0.1,-0.3 0.2,-0.8 0.2,-1.3 0,-0.5 -0.2,-1 -0.4,-1.3 -0.2,-0.3 -0.5,-0.6 -0.9,-0.7 -0.4,-0.1 -0.8,-0.3 -1.4,-0.3 -0.5,0 -1.1,0 -1.7,0 l -2.1,0.1 z"
   id="path304"
   inkscape:connector-curvature="0"
   style="fill:#ffffff" />
</g>
<g
   class="st3"
   id="g310"
   style="enable-background:new;opacity:0.12239583">
	<path
   class="st26"
   d="m 1057.5,209 c 0.1,0.1 0.1,0.3 0.1,0.4 0,0.2 0,0.4 -0.1,0.5 -0.1,0.2 -0.2,0.3 -0.3,0.4 -0.1,0.1 -0.3,0.2 -0.4,0.3 -0.2,0.1 -0.3,0.1 -0.5,0.1 -0.3,0 -0.5,0 -0.7,-0.2 -0.2,-0.1 -0.4,-0.4 -0.5,-0.7 l -1.2,-2.8 -6.8,0.3 -0.9,2.9 c -0.1,0.3 -0.2,0.6 -0.4,0.7 -0.2,0.1 -0.4,0.2 -0.7,0.2 -0.2,0 -0.3,0 -0.5,-0.1 -0.2,0 -0.3,-0.1 -0.5,-0.2 -0.1,-0.1 -0.2,-0.2 -0.3,-0.4 -0.1,-0.1 -0.1,-0.3 -0.1,-0.5 0,-0.1 0,-0.1 0,-0.2 0,-0.1 0,-0.2 0.1,-0.2 l 3.9,-11.3 c 0.2,-0.5 0.3,-0.9 0.5,-1.2 0.2,-0.3 0.3,-0.6 0.5,-0.8 0.2,-0.2 0.4,-0.3 0.6,-0.4 0.2,-0.1 0.5,-0.1 0.8,-0.1 0.3,0 0.6,0 0.8,0.1 0.2,0.1 0.5,0.2 0.7,0.4 0.2,0.2 0.4,0.4 0.6,0.7 0.2,0.3 0.4,0.7 0.6,1.2 z m -7.6,-11 -2.4,7.7 5.6,-0.3 z"
   id="path308"
   inkscape:connector-curvature="0"
   style="fill:#ffffff" />
</g>
<g
   id="g324"
   style="opacity:0.12239583">
	<path
   class="st0"
   d="m 1038.3,289.2 76.3,8.2 -7.2,66.4 -76.3,-8.2 1.4,-13.2 c 2.9,-26.5 -23.5,19 -19.1,-22.2 4.4,-41.2 20.5,8.9 23.4,-17.6 z"
   id="path312"
   inkscape:connector-curvature="0"
   style="fill:#43821b" />
	<path
   class="st1"
   d="m 1035.9,286.2 76.3,8.2 -7.2,66.5 -76.3,-8.2 1.4,-13.2 c 2.9,-26.5 -23.5,19 -19.1,-22.2 4.4,-41.2 20.5,8.9 23.4,-17.6 z"
   id="path314"
   inkscape:connector-curvature="0"
   style="fill:#53bc24" />
	<path
   class="st2"
   d="m 1029.9,352.8 c -0.6,-0.2 -1.1,-0.8 -1,-1.4 l 1.8,-15.9 c 0.1,-0.7 0.8,-1.2 1.5,-1.1 0.7,0.1 1.2,0.7 1.1,1.4 l -1.7,15.9 c -0.1,0.7 -0.7,1.3 -1.5,1.2 z m -17.7,-19.4 c -0.5,-0.1 -0.9,-0.6 -1,-1.1 -1.7,-10.1 -0.6,-20.5 3.3,-30 0.3,-0.7 1.1,-0.9 1.8,-0.6 0.6,0.3 0.9,1 0.7,1.6 -3.6,9 -4.7,18.9 -3.1,28.5 0.1,0.7 -0.4,1.4 -1.1,1.5 -0.2,0.1 -0.4,0.1 -0.6,0.1 z m 22.5,-24.5 c -0.6,-0.2 -1.1,-0.8 -1,-1.4 l 2.1,-19.6 c 0,-0.1 0,-0.2 0,-0.3 0,-0.1 0,-0.2 0.1,-0.3 l 0.1,-1 1.1,0.1 h 0.2 l 73.7,8 c 0.7,0 1.3,0.7 1.3,1.4 0,0.7 -0.7,1.3 -1.4,1.3 -0.1,0 -0.1,0 -0.1,0 l -72.1,-7.8 h -0.2 l -2,18.6 c -0.1,0.7 -0.7,1.3 -1.5,1.2 z"
   id="path316"
   inkscape:connector-curvature="0"
   style="fill:#ffffff;fill-opacity:0.6" />
	<path
   class="st2"
   d="m 1044.3,332.8 2.3,-21.3 c 0.6,-5.9 5.9,-10.1 11.8,-9.5 l 28.6,3.1 c 5.9,0.6 10.1,5.9 9.5,11.8 l -2.3,21.3 c -0.6,5.9 -5.9,10.1 -11.8,9.5 l -28.6,-3.1 c -5.9,-0.6 -10.1,-5.9 -9.5,-11.8 z"
   id="path318"
   inkscape:connector-curvature="0"
   style="fill:#ffffff;fill-opacity:0.6" />
	<g
   class="st3"
   id="g322"
   style="enable-background:new">
		<path
   class="st4"
   d="m 1076.8,315.8 c 0.3,0.2 0.4,0.3 0.5,0.6 0.1,0.3 0.1,0.5 0.1,0.7 0,0.2 -0.1,0.4 -0.2,0.6 -0.1,0.2 -0.2,0.3 -0.3,0.5 -0.1,0.1 -0.3,0.2 -0.5,0.3 -0.2,0.1 -0.4,0.1 -0.6,0.1 -0.1,0 -0.3,0 -0.4,-0.1 -0.6,-0.3 -1.3,-0.6 -1.9,-0.8 -0.6,-0.2 -1.2,-0.4 -1.7,-0.4 -0.8,-0.1 -1.5,0 -2.1,0.1 -0.6,0.1 -1.2,0.4 -1.6,0.7 -0.5,0.3 -0.9,0.7 -1.2,1.2 -0.3,0.5 -0.6,1 -0.8,1.6 -0.2,0.6 -0.4,1.2 -0.5,1.8 -0.1,0.6 -0.2,1.3 -0.3,2 v 0 c 0.3,-0.5 0.7,-0.9 1.1,-1.2 0.4,-0.3 0.9,-0.6 1.4,-0.8 0.5,-0.2 1,-0.3 1.6,-0.4 0.6,-0.1 1.1,-0.1 1.7,0 1.1,0.1 2,0.4 2.8,0.8 0.8,0.4 1.5,1 2.1,1.7 0.6,0.7 1,1.5 1.2,2.4 0.2,0.9 0.3,1.9 0.2,3 -0.1,1.1 -0.4,2.1 -0.9,3 -0.5,0.9 -1.1,1.6 -1.8,2.2 -0.8,0.6 -1.6,1 -2.7,1.3 -1,0.3 -2.1,0.3 -3.4,0.2 -1.1,-0.1 -2,-0.3 -2.8,-0.7 -0.8,-0.3 -1.5,-0.8 -2.1,-1.3 -0.6,-0.5 -1.1,-1.1 -1.5,-1.8 -0.4,-0.7 -0.7,-1.4 -0.9,-2.2 -0.2,-0.8 -0.3,-1.7 -0.4,-2.6 0,-0.9 0,-1.8 0.1,-2.8 0.1,-1.1 0.3,-2.1 0.5,-3.1 0.2,-1 0.5,-2 0.9,-2.8 0.4,-0.9 0.8,-1.7 1.4,-2.4 0.6,-0.7 1.2,-1.3 2,-1.8 0.8,-0.5 1.7,-0.8 2.7,-1 1,-0.2 2.2,-0.3 3.5,-0.1 0.8,0.1 1.7,0.3 2.5,0.5 0.8,0.2 1.6,0.5 2.3,1 z m -8,18.2 c 0.7,0.1 1.3,0 1.8,-0.1 0.5,-0.2 1,-0.4 1.4,-0.8 0.4,-0.4 0.7,-0.8 1,-1.3 0.2,-0.5 0.4,-1.1 0.5,-1.8 0.1,-0.7 0.1,-1.3 0,-1.9 -0.1,-0.6 -0.3,-1.1 -0.5,-1.6 -0.3,-0.5 -0.6,-0.8 -1.1,-1.1 -0.5,-0.3 -1,-0.5 -1.7,-0.5 -0.7,-0.1 -1.4,0 -1.9,0.2 -0.6,0.2 -1.1,0.5 -1.5,0.8 -0.4,0.4 -0.8,0.9 -1,1.4 -0.3,0.6 -0.4,1.2 -0.5,1.9 -0.1,0.6 0,1.2 0.1,1.8 0.1,0.6 0.4,1.1 0.7,1.5 0.3,0.4 0.7,0.8 1.2,1.1 0.4,0.1 0.9,0.3 1.5,0.4 z"
   id="path320"
   inkscape:connector-curvature="0"
   style="fill:#311c3b" />
	</g>
</g>
</svg>