<?xml version="1.0" encoding="utf-8"?>
<!-- Generator: Adobe Illustrator 28.1.0, SVG Export Plug-In . SVG Version: 6.00 Build 0)  -->
<svg version="1.1" id="Capa_1" xmlns="http://www.w3.org/2000/svg" xmlns:xlink="http://www.w3.org/1999/xlink" x="0px" y="0px"
	 viewBox="0 0 519.8 576.4" style="enable-background:new 0 0 519.8 576.4;" xml:space="preserve">
<style type="text/css">
	.st0{clip-path:url(#SVGID_00000123410380488997205810000013484646551828556708_);}
	.st1{opacity:0.15;fill:#E4F4F8;enable-background:new    ;}
	.st2{fill:#E73737;}
	.st3{fill:#482C76;}
	.st4{fill:#FFD005;}
	.st5{opacity:0.18;fill:#32160E;}
	.st6{fill:#E7BE36;}
	.st7{fill:#C8BF2E;}
	.st8{fill:#FFFFFF;}
	.st9{opacity:0.5;fill:url(#SVGID_00000057132563744695022940000010308805045564996233_);}
	.st10{opacity:0.5;fill:url(#SVGID_00000008833121140912276060000014560702908667480765_);}
	.st11{fill:#32160E;}
	.st12{fill:#1A1129;}
	.st13{fill:#A39393;}
	.st14{fill:#BDACAC;stroke:#482C76;stroke-width:0.7368;stroke-miterlimit:10;}
	.st15{fill:none;stroke:#FFFFFF;stroke-width:1.1467;stroke-miterlimit:10;}
</style>
<g>
	<defs>
		<circle id="SVGID_1_" cx="929.6" cy="802.5" r="92.6"/>
	</defs>
	<clipPath id="SVGID_00000066498479840365197490000011181174109416555403_">
		<use xlink:href="#SVGID_1_"  style="overflow:visible;"/>
	</clipPath>
	<g style="clip-path:url(#SVGID_00000066498479840365197490000011181174109416555403_);">
		<circle class="st1" cx="522.5" cy="867.8" r="308.9"/>
	</g>
</g>
<g>
	<g>
		<path class="st2" d="M248.3,462.2c0,0-79.7,13.7-112.4-5.3c0,0,7.8-35.6-5.3-54.6c0,0,37.6,16.6,55.6,1.5
			C204.3,388.6,269.4,411.8,248.3,462.2z"/>
		<path class="st3" d="M138.4,449.5c0,0-43.9,7.3-66.8-19.1c0,0,6.9-37.6,8.3-34.6s43.9,24.4,64.4,19.1
			C144.2,414.9,156.4,441.7,138.4,449.5z"/>
		<path class="st4" d="M100.4,420.2c0,0,6.4-11.8-3.6-14.7c-10-2.9-23.9-0.1-23.9-0.1s0.3,12.5,2.1,14.5c1.8,2,8.9,6.8,8.9,6.8"/>
		<path class="st5" d="M99.1,422.9c0,0,6.4-11.8-3.6-14.7c-10-2.9-23.9-0.1-23.9-0.1s0.3,12.5,2.1,14.5c1.8,2,8.9,6.8,8.9,6.8"/>
		<path class="st4" d="M76.1,442.6c1.8,0.8,3.9,0.6,5.4-0.7c4.4-3.9,14.5-13.7,12.5-19.6c0,0-1.4-4.1-6.8-5.7c-3-0.9-6.9-1.5-9.7-2
			c-2.3-0.3-4.5,0.9-5.3,3.1c-1.8,5.1-5.1,13.6-6.4,12.9C58.6,426.4,67.8,438.8,76.1,442.6z"/>
		<path class="st5" d="M69.5,424.6c3.7,1,8.4,2.4,12.2,3.9c3.8,1.5,6.3,3.5,7.8,5.1c-2.7,3.3-5.9,6.4-8,8.2
			c-1.5,1.3-3.6,1.6-5.4,0.7c-8.3-3.8-17.5-16.2-10.3-12C66.5,431,68,428.1,69.5,424.6z"/>
		<path class="st4" d="M70.3,435.1c0,0-21.9,2.8-27,9.2c-5.2,6.4-29.5,22.2-38.9-2.7c0,0,2.9-21.8,16.9-33l8.6-8L62,388.7
			c0,0,19.3,11.6,23.1,21.1"/>
		<path class="st5" d="M42.8,433.3l17-11.8l14.4,7l-3.9,6.7c0,0-21.9,2.8-27,9.2c-5.2,6.4-29.5,22.2-38.9-2.7c0,0,0.8-5.8,3.4-12.9
			C14.9,434.9,31.7,446.6,42.8,433.3z"/>
		<path class="st2" d="M57,442.4c0,0,13.7-9,7.6-26.1c0,0-7.1-1.8-10.1-1.9c-3.1-0.1-2,16.7-8.7,28.1
			C45.7,442.5,52.3,449.2,57,442.4z"/>
		<path class="st2" d="M6.2,445.7c0,0,2.4-25.9,27.3-41.5c0,0,27.5-12.1,33.2-12c0,0-3.1-4.4-5.1-4.6c-2-0.2-28,6.2-33.7,12.8
			c-5.7,6.6-22.5,15.5-24.3,38.3C3.7,438.7,2.3,444.2,6.2,445.7z"/>
	</g>
	<ellipse class="st2" cx="213.1" cy="405" rx="83.5" ry="74.7"/>
	
		<ellipse transform="matrix(0.4385 -0.8987 0.8987 0.4385 -147.8869 580.3388)" class="st6" cx="390.5" cy="408.5" rx="17.1" ry="20.9"/>
	
		<ellipse transform="matrix(0.4385 -0.8987 0.8987 0.4385 -154.9502 581.0797)" class="st4" cx="387.6" cy="414.5" rx="14.8" ry="18.1"/>
	<path class="st3" d="M381.4,357.4l15.6,36.5c0,0,36.8-10.1,42.9-19.3l-0.3-25.9c0,0,9.7-4.4,14.3-2.9c0,0,12.3,6,15.4,12.1
		s5,13.1,5,13.1l-14.5,18.8l-13,8.1c0,0-48.3,24.3-69.7,24.5c0,0-14.5-20-20.2-36.4C351.3,369.2,381.4,357.4,381.4,357.4z"/>
	<path class="st2" d="M325.3,322.9c0,0-7.4,4.3-2,13.1c0,0,21.5,26.3,21.6,38.7c0.1,12.4,6.1,10.9,15.3,10.1s13.6-22.4,28.8-24.7
		s-9.1-26.4-14.1-32.4c-5-6-21.4-13.9-21.4-13.9"/>
	<path class="st7" d="M404.4,417.4l2.2-27.3c0,0-12.4-2.6-14.1-7.4L372,416.3C372,416.3,387.1,440.4,404.4,417.4z"/>
	<path class="st2" d="M418.9,388.6c0,0,5.3,18.9,12.1,25.3c1.5,1.4,3.6,1.7,5.4,1l2.9-1.2c3.6-1.5,5.3-5.7,3.5-9.2
		c-4.5-9.1-11.7-24.7-8.9-26.3C435.3,377.4,415.6,378.5,418.9,388.6z"/>
	<path class="st3" d="M236.8,218.9c-0.4-3.1,22.6-35.7,31.9-73.4c9.3-37.7,62.4-93.2,121.4-96.5c0,0,26.4-4.8,44.9,8
		c0,0,20.5,6.8,0.9,18.4l-25.5,6.5c0,0,60.7-10.4,89.6,8.5c0,0,17.6,8,11.6,22.7c0,0-4,11.9-14.8,10.8c0,0-40.7-15.6-48.4-13.5
		s5.1-2.8,5.1-2.8s48.1,12.3,59.9,39.3c0,0,11.8,20.8-12,26.4c-23.8,5.6-27.3-24.2-46.4-26.9c-19.1-2.7-5.2-1.5-5.2-1.5
		s28.2,29,13,64.6c0,0-19.8,48.2-94.1,110.1l-13.3,8.6C355.3,328.2,249.5,329.5,236.8,218.9z"/>
	<path class="st8" d="M266.9,181.9c0.3-1.7,21-93.6,116.6-68.1c0,0,69.2,22.9,74.9,68.8c0,0,4.9,21.8-18.3,53.4
		c0,0-12.6,19.2-23.2,29.7c-9.5,9.5-23.7,17.7-37.2,31c-6.7,6.6-13.8,11-21.8,9.3S287.1,290,252.9,225c0,0-5.2-10.3,3.1-20.1
		C256.1,205,265.1,193.5,266.9,181.9z"/>
	
		<radialGradient id="SVGID_00000027588222018549500960000017102964588877539260_" cx="-241.1465" cy="-834.2944" r="23.2512" gradientTransform="matrix(0.8733 0.7426 -0.3166 0.3723 290.4328 640.0069)" gradientUnits="userSpaceOnUse">
		<stop  offset="0.4834" style="stop-color:#FFD1AD"/>
		<stop  offset="0.9228" style="stop-color:#FFBBA8;stop-opacity:0"/>
	</radialGradient>
	<path style="opacity:0.5;fill:url(#SVGID_00000027588222018549500960000017102964588877539260_);" d="M364.6,167.9
		c-4.1,4.8-16.7,0.9-28.1-8.8c-11.4-9.7-17.3-21.5-13.2-26.3c4.1-4.8,16.7-0.9,28.1,8.8C362.8,151.3,368.7,163.1,364.6,167.9z"/>
	
		<radialGradient id="SVGID_00000069384589334846999440000012995448849031636882_" cx="-154.3794" cy="-841.1604" r="23.2512" gradientTransform="matrix(0.8733 0.7426 -0.3166 0.3723 293.4583 636.4489)" gradientUnits="userSpaceOnUse">
		<stop  offset="0.4834" style="stop-color:#FFD1AD"/>
		<stop  offset="0.9228" style="stop-color:#FFBBA8;stop-opacity:0"/>
	</radialGradient>
	<path style="opacity:0.5;fill:url(#SVGID_00000069384589334846999440000012995448849031636882_);" d="M445.6,226.2
		c-4.1,4.8-16.7,0.9-28.1-8.8c-11.4-9.7-17.3-21.5-13.2-26.3c4.1-4.8,16.7-0.9,28.1,8.8C443.8,209.6,449.7,221.4,445.6,226.2z"/>
	<path class="st3" d="M253.6,208.4c0,0,6.5-13.6,14.6-0.5c8.1,13.2,3.6-9.6,3.3-10.6c-0.4-1-3.9-6.5-3.9-6.5l-3.7-2.6l-1.9,0.2
		c0,0-0.9,0.8-1.3,1.1"/>
	<path class="st3" d="M280.6,148.4c0,0-11.5,20.7-1.2,41.7s-5.2-0.6-7.7-3.5c-2.5-2.9-5.7-11.3-5.7-11.3l2.8-11.4l3.4-8.9"/>
	<path class="st11" d="M376.6,188.1c0,0-11.8,15.1,5.5,31.4c0,0,26,22.9,36.2,17"/>
	<path class="st5" d="M254.5,273.5c14.1-18.3,17.4-38.6,19-50.1c9-65.7,34-98.7,77.5-120.4C377.7,89.5,412.8,80.2,438,74
		c15.7-10.8-3.1-17-3.1-17c-18.4-12.8-44.9-8-44.9-8c-58.9,3.3-112.1,58.8-121.4,96.5s-32.3,70.3-31.9,73.4
		C239.4,241.4,245.8,259.3,254.5,273.5z"/>
	<path class="st3" d="M374.9,111.7c0,0,76,16.8,13.9,84.4c0,0,12.1,14.1,19.1,13.2s14.4-71.9,55.6-41.5
		C463.5,167.6,449.6,112.6,374.9,111.7z"/>
	<path class="st4" d="M238.3,215c0,0-64.5,126.4-105.3,158.5c0,0,73.1,86.6,148.3,78.9c0,0,89.7-80.4,90-136.8
		C371.3,315.6,287.4,315.7,238.3,215z"/>
	<path class="st5" d="M148,396.2c9.4-6.5,28.6-23.2,44-33.8c28.2-19.4,65.1-76.6,78.7-98.6c-11.5-12.8-22.6-28.8-32.3-48.7
		c0,0-64.5,126.4-105.3,158.5C133,373.5,134.8,387.1,148,396.2z"/>
	<path class="st2" d="M262,262.6c0,0-31.3-60.1-36.3-78.4c-5-18.3-11.7-16.5-17.6-10.9c-5.2,4.9-21.2,31.1-35,27.6
		c-1.7-0.4-3.6,0-5.6,0.9c-2.4,1.1-7.7-1.2-3.3,9s35.7,54.5,36.2,69.8s42.9,5.6,63.8-15.7"/>
	<path class="st12" d="M217.1,188.5c0,0-6.9,22.2-39.5,24c0,0-5.2-1.4-0.7-5C181.4,203.8,219.8,178.5,217.1,188.5z"/>
	<g>
		<path class="st13" d="M312.2,177.9c0,0,30.3-1.6,44.6,2.9c1.3,0.4,2.2,1.2,2.5,2.1c0.5,1.7,1,4.6-0.2,7.5c-0.5,1.3-2.5,2.2-4.7,2
			c-8.4-0.5-30.1-1.8-40-1.4c-2.3,0.1-4.4-0.9-4.8-2.4C308.4,185.1,307.3,179.1,312.2,177.9z"/>
	</g>
	<g>
		<path class="st13" d="M342.9,162.7c0,0,2.3,30.3-3.4,44.6c-0.5,1.3-1.6,2.2-2.8,2.5c-2.2,0.5-6.1,0.9-9.9-0.3
			c-1.8-0.6-2.9-2.6-2.7-4.7c0.6-8.4,2.1-30,1.5-40c-0.1-2.3,1.2-4.4,3.1-4.8C333.4,158.9,341.3,157.8,342.9,162.7z"/>
		<path class="st14" d="M343.3,175.5c0,0-14.9-0.6-18.3,0.8l0,17.9c0,0,14.9,3.1,16.3,1.9S345,177.4,343.3,175.5z"/>
	</g>
	<path class="st8" d="M304.6,89.7c20.9-5.8,51.3-4.3,51.3-4.3c-16.6-7.4-35.3-5.3-43-3.9C310.1,84.2,307.3,87,304.6,89.7z
		 M296.3,98.6c20.5-4.6,47.4-3.3,47.4-3.3c-14.9-6.7-31.6-5.6-40.4-4.3C301,93.5,298.6,96,296.3,98.6z M325.2,70.8
		c-3.4,2.8-6.7,5.6-10,8.6c20.5-6.4,54.9-2.5,54.9-2.5C351.2,66.6,328.6,70.2,325.2,70.8z"/>
	<path class="st11" d="M370,155.2l-0.8-0.6c-3.1-2.6-3.5-7.3-0.8-10.3l7.1-8.4c2.6-3.1,7.3-3.5,10.3-0.8l0.8,0.6
		c3.1,2.6,3.5,7.3,0.8,10.3l-7.1,8.4C377.7,157.4,373.1,157.8,370,155.2z"/>
	<path class="st11" d="M433.3,198l-0.9-0.8c-2.8-2.4-3.1-6.5-0.8-9.3l6.1-7.2c2.4-2.8,6.5-3.1,9.3-0.8l0.9,0.8
		c2.8,2.4,3.1,6.5,0.8,9.3l-6.1,7.2C440.2,200,436.1,200.3,433.3,198z"/>
	<path class="st3" d="M270.8,168.3c0,0,33.6,113.3,131.2,109.7l-10.9,12.8c0,0-94.8,4.9-128.9-98.2"/>
	<path class="st3" d="M179.4,212.2L165.3,190c0,0-37.3,18.6-41.8,29.8l5.8,27.7c0,0-9.5,6.7-14.7,6.1c0,0-14.4-3.8-19-9.7
		c-4.6-5.8-8.1-12.9-8.1-12.9l11.5-23.1l12.3-11.4c0,0,46.6-36.2,69.4-40.9c0,0,19.8,18.3,29.3,34.7S179.4,212.2,179.4,212.2z"/>
	<path class="st12" d="M101.7,231.8c1.3,0.3,18.7,12.3,25.5,14.6c0.4,0.1,0.8,0.2,1.1,0.3c5.7,1.2-12.7,6.4-12.7,6.4
		s-5.2,1.8-9.4-0.8l-2.6-3.1c0,0-4.4-0.2-6.7-2.7l-4.9-6.7c0,0-7.9-9.4-4.1-13.6l5-4.8C92.9,221.4,91.7,229.6,101.7,231.8z"/>
	<path class="st3" d="M382.3,134c0,0-7.8-3.3-7.5-9c0,0-4.5,4,0.8,10.8"/>
	<path class="st3" d="M447.3,185.3c0,0,4.5,7.1,10.1,6c0,0-3.2,5-10.8,0.9"/>
	<path class="st7" d="M184.2,182.3l-11.1,18.6c0,0-14.4-7.8-19.3-4.5l-2.4-27.9C151.4,168.5,183.1,174.8,184.2,182.3z"/>
	
		<ellipse transform="matrix(0.2562 -0.9666 0.9666 0.2562 -38.4092 292.9303)" class="st7" cx="171.1" cy="171.4" rx="21.6" ry="22.9"/>
	
		<ellipse transform="matrix(0.2562 -0.9666 0.9666 0.2562 -28.9095 288.9499)" class="st4" cx="173.3" cy="163.3" rx="18.6" ry="19.7"/>
	<path class="st2" d="M110.7,192.5c0,0,25.1,12.8,25.7,22.2l-4,6.1c-2,3.1-6.2,3.8-9.1,1.5c-8.6-6.7-22.2-16.5-24.6-13.8
		C97.6,209.7,100.7,186.7,110.7,192.5z"/>
	<path class="st5" d="M192,204c16.8,5.4,35.9,58.4,42.1,78.3c12.6-0.6,22.3-9.5,30-17.4l-2.2-2.3c0,0-31.3-60.1-36.3-78.4
		c-5-18.3-11.7-16.5-17.6-10.9c-4.2,3.9-15.5,16.5-26.8,23.6C183.5,199.9,187,202.4,192,204z"/>
	<circle class="st4" cx="296.7" cy="347.3" r="28.6"/>
	<circle class="st2" cx="295.7" cy="346.8" r="31.5"/>
	<path class="st2" d="M224.4,354.8L224.4,354.8c-0.4-4.5,3-8.4,7.5-8.8l68.4-5.5c4.5-0.4,8.4,3,8.8,7.5v0c0.4,4.5-3,8.4-7.5,8.8
		l-68.4,5.5C228.7,362.7,224.8,359.3,224.4,354.8z"/>
	<path class="st2" d="M245,336L245,336c-0.2-2.3,1.5-4.2,3.8-4.4l48.2-3.9c2.3-0.2,4.2,1.5,4.4,3.8l0,0c0.2,2.3-1.5,4.2-3.8,4.4
		l-48.2,3.9C247.1,339.9,245.1,338.2,245,336z"/>
	<path class="st2" d="M245.2,370.9L245.2,370.9c-0.2-2.5,1.7-4.8,4.2-5l38.8-3.1c2.5-0.2,4.8,1.7,5,4.2l0,0c0.2,2.5-1.7,4.8-4.2,5
		l-38.8,3.1C247.7,375.3,245.4,373.4,245.2,370.9z"/>
	<path class="st11" d="M412.7,192.1c0,0-2,9,9.5,18.7l18.4,14.9c0,0,9,6.9,4.6,16.1c0,0-3.7,5.2-5.7,5.9s-4.3,0.1-7.6-2.7
		c-3.3-2.8-39.4-17.5-53.4-39.3c0,0-7.9-10.6-1.9-17.7c0,0,2.9-6.7,7-3.2c0,0,1.5,7.4,5.5,7.7C393,192.8,400,180.5,412.7,192.1z"/>
	<path class="st15" d="M417.6,237.9c0,0-26.1-16.6-37.6-30.2c0,0-4.3-9.8-2.3-14.9"/>
	<path class="st3" d="M378.2,289.3c0,0,6.7,3.8-2.6,11.5c-9.3,7.8,3.2,1.2,4.4,0.7s9.1-9.4,9.1-9.4l1.5-4.9l-1-2"/>
	<g>
		<path class="st2" d="M133,373.5c0,0,77.4,23.3,98.2,54.9c0,0-22.9,28.4-19.6,51.3c0,0-26.2-31.6-49.1-26.2S91.5,409.1,133,373.5z"
			/>
		<path class="st3" d="M225.7,433.9c0,0,42.5,13.1,51.3,46.9c0,0-22.9,30.5-22.9,27.3c0-3.3-28.4-41.5-49.1-45.8
			C204.9,462.3,206,432.8,225.7,433.9z"/>
		<path class="st4" d="M246.6,477c0,0-11,7.7-3.4,14.8s21.3,10.8,21.3,10.8s5.3-11.3,4.6-13.9c-0.7-2.6-4.9-10.1-4.9-10.1"/>
		<path class="st5" d="M248.9,475.2c0,0-11,7.7-3.4,14.8c7.6,7.1,21.3,10.8,21.3,10.8s5.3-11.3,4.6-13.9s-4.9-10.1-4.9-10.1"/>
		<path class="st4" d="M278.3,467.9c-1.3-1.6-3.3-2.3-5.2-1.8c-5.7,1.5-19.1,5.8-19.9,12c0,0-0.6,4.3,3.6,8.1
			c2.3,2.1,5.5,4.4,7.8,6.1c1.9,1.3,4.4,1.2,6.1-0.4c3.9-3.7,10.7-9.9,11.5-8.7C286.7,490.2,284.1,475,278.3,467.9z"/>
		<path class="st5" d="M276.2,486.9c-2.8-2.5-6.5-5.9-9.2-9c-2.7-3-4-5.9-4.7-8c3.9-1.8,8.2-3.1,10.8-3.8c1.9-0.5,3.9,0.2,5.2,1.8
			c5.8,7.1,8.4,22.3,3.9,15.4C281.7,482.5,279,484.5,276.2,486.9z"/>
		<path class="st4" d="M280.1,477.2c0,0,20.8,7.3,28.3,3.8c7.5-3.5,36.3-6.7,33.6,19.8c0,0-12.3,18.2-29.9,22l-11.3,3.3l-34-3.6
			c0,0-12.1-19-11.3-29.2"/>
		<path class="st5" d="M303.9,491.1l-20.5,3l-9.8-12.7l6.5-4.2c0,0,20.8,7.3,28.3,3.8c7.5-3.5,36.3-6.7,33.6,19.8
			c0,0-3.3,4.8-8.8,10C329.6,502.1,319.8,484.1,303.9,491.1z"/>
		<path class="st2" d="M295.3,476.6c0,0-16.2,1.9-18.5,20c0,0,5.5,4.8,8.2,6.2c2.7,1.4,9.2-14,20.3-21.2
			C305.4,481.6,302.5,472.6,295.3,476.6z"/>
		<path class="st2" d="M342.2,496.3c0,0-13.7,22.1-43,24.9c0,0-30-1.4-35.1-4.1c0,0,0.8,5.3,2.5,6.4c1.7,1.1,27.8,7,35.9,3.6
			c8.1-3.4,27-3.9,38.8-23.5C341.3,503.7,345,499.4,342.2,496.3z"/>
	</g>
</g>
</svg>
