<?xml version="1.0" encoding="utf-8"?>
<!-- Generator: Adobe Illustrator 21.0.0, SVG Export Plug-In . SVG Version: 6.00 Build 0)  -->
<svg version="1.1" id="Capa_1" xmlns="http://www.w3.org/2000/svg" xmlns:xlink="http://www.w3.org/1999/xlink" x="0px" y="0px"
	 viewBox="0 0 1181.9 438" style="enable-background:new 0 0 1181.9 438;" xml:space="preserve">
<style type="text/css">
	.st0{fill:#43821B;}
	.st1{fill:#53BC24;}
	.st2{fill:#FFFFFF;fill-opacity:0.6;}
	.st3{enable-background:new    ;}
	.st4{fill:#311C3B;}
	.st5{fill:#F1D7D5;}
	.st6{fill:#F5E6E5;}
	.st7{fill:#FFB442;}
	.st8{fill:#FF6D3A;}
	.st9{fill:#C169FF;}
	.st10{fill:none;stroke:#4470B3;stroke-width:13.21;stroke-linecap:round;stroke-linejoin:round;}
	.st11{fill:#234D89;}
	.st12{fill:#4470B3;}
	.st13{fill:#9AA0A9;}
	.st14{fill:#B4BBC6;}
	.st15{fill:#777B80;}
	.st16{fill:#ECD318;}
	.st17{fill:none;stroke:#466931;stroke-width:0.67;stroke-miterlimit:10;}
	.st18{fill:#9196C8;}
	.st19{fill:#3E415F;}
	.st20{fill:#C17645;}
	.st21{fill:#8B5632;}
	.st22{fill:#868CC3;}
	.st23{fill:#BA6516;}
	.st24{fill:#EC7E16;}
	.st25{fill:none;stroke:#F0A15B;stroke-width:1.77;stroke-linecap:round;}
	.st26{fill:#FFFFFF;}
	.st27{fill:#3E57A3;}
	.st28{fill:#516BAF;}
	.st29{fill:none;stroke:#8093C9;stroke-width:2.05;stroke-linecap:round;}
	.st30{fill:#D1D0CF;}
	.st31{fill:#484F59;}
	.st32{fill:#353F49;}
	.st33{fill:#FFCA55;}
	.st34{fill:#F5A41A;}
	.st35{fill:#F49120;}
	.st36{fill:#EAE9EA;}
	.st37{fill:#3C58A0;}
	.st38{fill:#4B67AB;}
	.st39{fill:none;stroke:#8093C9;stroke-width:1.97;stroke-linecap:round;}
</style>
<title>Elementos-Scroll-App</title>
<path class="st0" d="M423.1,34.3l105-14.4l12.5,91.4l-105,14.4l-2.5-18.2c-5-36.6-25.3,33.2-33-23.4s30.5,5.2,25.5-31.4L423.1,34.3z
	"/>
<path class="st1" d="M418.9,31.1L524,16.7l12.5,91.5l-105.1,14.4l-2.5-18.2c-5-36.6-25.3,33.2-33-23.4s30.5,5.2,25.5-31.4
	L418.9,31.1z"/>
<path class="st2" d="M433,122.3c-0.9,0-1.7-0.7-1.8-1.6l-3-21.9c-0.1-1,0.6-1.9,1.6-2.1c1-0.1,1.9,0.6,2.1,1.6l3,21.9
	c0.1,1-0.6,1.9-1.6,2.1l0,0H433z M402.9,102.2c-0.7,0-1.4-0.4-1.7-1.1c-5.6-13-7.6-27.2-5.6-41.2c0.1-1,1.1-1.7,2.1-1.6
	c1,0.1,1.7,1.1,1.6,2.1c-1.9,13.3-0.1,26.9,5.3,39.2c0.4,0.9,0,2-1,2.4C403.4,102.1,403.1,102.2,402.9,102.2L402.9,102.2z M424.9,62
	c-0.9,0-1.7-0.7-1.8-1.6l-3.7-27c0-0.1-0.1-0.3-0.1-0.4c0-0.1,0-0.3,0-0.4l-0.2-1.4l1.5-0.2l0.3-0.1L522.2,17c1-0.1,1.9,0.6,2.1,1.6
	c0.1,1-0.6,1.9-1.6,2.1l-99.3,13.5l-0.3,0.1l3.5,25.6c0.1,1-0.6,1.9-1.6,2.1l0,0L424.9,62z"/>
<path class="st2" d="M454.3,44.9l39.3-5.4c8.1-1.1,15.5,4.5,16.6,12.6l4,29.2c1.1,8.1-4.5,15.5-12.6,16.6l-39.3,5.4
	c-8.1,1.1-15.5-4.5-16.6-12.6l-4-29.2C440.6,53.5,446.2,46.1,454.3,44.9z"/>
<g class="st3">
	<path class="st4" d="M472.8,59.1c0.4-1.1,1-2,1.7-2.5c0.7-0.5,1.5-0.8,2.5-1c0.5-0.1,1-0.1,1.5,0c0.5,0.1,0.9,0.2,1.3,0.5
		c0.4,0.3,0.7,0.6,1,1.1c0.3,0.5,0.5,1,0.6,1.7l2.4,16.7l2.6-0.4c0.3,0,0.6,0,0.9,0c0.3,0.1,0.5,0.2,0.7,0.4
		c0.2,0.2,0.3,0.4,0.5,0.6c0.1,0.2,0.2,0.5,0.2,0.7c0,0.2,0,0.5,0,0.7c0,0.2-0.1,0.5-0.3,0.7c-0.1,0.2-0.3,0.4-0.5,0.5
		c-0.2,0.1-0.5,0.2-0.8,0.3l-2.6,0.4l0.5,3.9c0.1,0.4,0,0.8-0.1,1.1c-0.1,0.3-0.3,0.6-0.5,0.9c-0.2,0.2-0.5,0.4-0.8,0.6
		c-0.3,0.2-0.6,0.3-0.9,0.3c-0.3,0-0.7,0-1,0c-0.3-0.1-0.6-0.2-0.9-0.4c-0.3-0.2-0.5-0.4-0.7-0.7c-0.2-0.3-0.3-0.6-0.4-1l-0.5-3.9
		l-11.8,1.7c-0.8,0.1-1.5,0-2.1-0.4c-0.5-0.4-0.9-0.9-1-1.6c0-0.2,0-0.5,0-0.8s0.1-0.6,0.2-0.9L472.8,59.1z M468.8,77.8l9.7-1.4
		l-2.3-16L468.8,77.8z"/>
</g>
<g>
	<path class="st5" d="M834.3,291l76,15.8c5.3,1.1,8.7,6.3,7.6,11.5l-15.6,75.1c-1.1,5.3-6.3,8.7-11.5,7.6l-76-15.8
		c-5.3-1.1-8.7-6.3-7.6-11.5l15.6-75.1C823.9,293.3,829,289.9,834.3,291z"/>
	<path class="st6" d="M841.2,297.1l61,12.6c2.6,0.5,4.3,3.1,3.8,5.7l0,0l0,0L891.6,385c-0.5,2.6-3.1,4.3-5.7,3.8l0,0l-61-12.6
		c-2.6-0.5-4.3-3.1-3.8-5.7l0,0l14.4-69.6C836,298.3,838.5,296.6,841.2,297.1L841.2,297.1L841.2,297.1z"/>
	<g class="st3">
		<path class="st4" d="M861.6,340.7c0.7,0.1,1.3,0.2,1.9,0.2s1.1-0.1,1.6-0.4c0.5-0.2,0.9-0.5,1.2-0.9c0.3-0.4,0.6-0.9,0.7-1.5
			c0.1-0.6,0.1-1.1,0-1.5c-0.1-0.5-0.4-0.9-0.7-1.3c-0.3-0.4-0.8-0.7-1.3-0.9c-0.5-0.2-1.1-0.4-1.7-0.6c-0.5-0.1-1-0.2-1.6-0.2
			c-0.6,0-1.1-0.1-1.7-0.1l-1.2,0c-0.3,0-0.6,0-0.7,0c-0.2,0-0.3,0-0.5-0.1c-0.7-0.2-1.3-0.5-1.6-1c-0.4-0.5-0.5-1.1-0.4-1.8
			c0.2-1.1,1.1-1.8,2.7-2.2c1.5-0.4,3.8-0.3,6.7,0.3c1.7,0.3,3.1,0.8,4.4,1.5c1.2,0.6,2.2,1.4,3,2.3c0.8,0.9,1.3,1.8,1.5,2.9
			c0.3,1,0.3,2.1,0.1,3.3c-0.2,0.8-0.5,1.5-0.9,2.2c-0.4,0.7-0.9,1.2-1.5,1.7c-0.6,0.5-1.2,0.8-1.9,1.1c-0.7,0.3-1.4,0.4-2.1,0.4
			l0,0.1c0.9,0.3,1.6,0.8,2.2,1.3c0.6,0.5,1.1,1.2,1.4,1.8c0.3,0.7,0.6,1.4,0.6,2.3c0.1,0.8,0,1.7-0.2,2.6c-0.3,1.4-0.8,2.6-1.6,3.5
			c-0.8,0.9-1.7,1.6-2.9,2s-2.4,0.7-3.8,0.7c-1.4,0-2.9-0.1-4.4-0.4c-0.5-0.1-1-0.2-1.5-0.4c-0.5-0.2-1.1-0.4-1.6-0.6
			c-0.6-0.2-1.1-0.5-1.6-0.8s-1-0.6-1.5-0.9c-0.7-0.4-1.2-0.9-1.5-1.4c-0.3-0.5-0.4-1.1-0.3-1.7c0.1-0.3,0.2-0.6,0.4-0.9
			c0.2-0.3,0.4-0.5,0.7-0.6c0.3-0.2,0.6-0.3,0.9-0.3c0.3-0.1,0.7,0,1.1,0l0.2,0c0.3,0.1,0.6,0.3,1,0.5c0.4,0.2,0.8,0.4,1.2,0.6
			c0.4,0.2,0.9,0.4,1.4,0.6c0.5,0.2,1,0.3,1.6,0.5c0.7,0.1,1.3,0.2,1.9,0.2s1.1-0.1,1.6-0.3c0.5-0.2,0.9-0.5,1.2-0.9
			c0.3-0.4,0.6-0.9,0.7-1.5c0.3-1.3,0-2.3-0.7-3.2c-0.8-0.9-1.9-1.5-3.6-1.8l-1.4-0.3c-0.7-0.1-1.1-0.5-1.4-1
			c-0.3-0.5-0.4-1-0.2-1.6c0.1-0.3,0.2-0.5,0.3-0.8c0.1-0.2,0.3-0.5,0.5-0.6c0.2-0.2,0.5-0.3,0.8-0.4c0.3-0.1,0.6-0.1,1,0
			L861.6,340.7z"/>
	</g>
</g>
<path class="st5" d="M638.3,41.2c-3.3,23-6.5,46.1-9.7,69.2l20.1-10.2l5.6,19.5l12-3l-5.6-19.5l23-0.4
	C668.5,78.3,653.3,59.8,638.3,41.2z"/>
<polygon class="st7" points="248.5,159.1 256.8,191.7 289.4,200 256.8,208.4 248.5,241 240.1,208.4 207.5,200 240.1,191.7 "/>
<polygon class="st8" points="51.1,332.2 56.2,352.3 76.3,357.5 56.2,362.6 51.1,382.7 46,362.6 25.9,357.5 46,352.3 "/>
<polygon class="st9" points="133.3,363.7 138.4,383.8 158.5,388.9 138.4,394.1 133.3,414.2 128.1,394.1 108,388.9 128.1,383.8 "/>
<polygon class="st4" points="418.8,338.8 424,358.9 444.1,364 424,369.2 418.8,389.3 413.7,369.2 393.6,364 413.7,358.9 "/>
<polygon class="st4" points="1139.1,207.4 1144.3,227.5 1164.4,232.6 1144.3,237.7 1139.1,257.8 1134,237.7 1113.9,232.6 
	1134,227.5 "/>
<polygon class="st8" points="501,325 503.8,336 514.7,338.8 503.8,341.6 501,352.6 498.2,341.6 487.2,338.8 498.2,336 "/>
<polygon class="st7" points="586.6,366.2 589.9,379.1 602.8,382.4 589.9,385.7 586.6,398.5 583.3,385.7 570.4,382.4 583.3,379.1 "/>
<polygon class="st1" points="758.1,29.9 760.9,40.8 771.8,43.6 760.9,46.4 758.1,57.4 755.2,46.4 744.3,43.6 755.2,40.8 "/>
<polygon class="st9" points="791.8,72.6 795.1,85.5 807.9,88.8 795.1,92.1 791.8,105 788.5,92.1 775.6,88.8 788.5,85.5 "/>
<polygon class="st9" points="1155.2,149.4 1158.5,162.3 1171.4,165.5 1158.5,168.8 1155.2,181.7 1151.9,168.8 1139.1,165.5 
	1151.9,162.3 "/>
<g>
	<path class="st10" d="M134.6,252.3c0,0,88.1,2.5,68.7,50.7s78.9,68.4,99.4,91.2"/>
	<path class="st11" d="M38.9,225.8h73.3c3.8,0,6.9,3.1,6.9,6.9V278c0,3.8-3.1,6.9-6.9,6.9H38.9c-3.8,0-6.9-3.1-6.9-6.9v-45.3
		C32,228.9,35.1,225.8,38.9,225.8z"/>
	<path class="st11" d="M115.3,275.5c0,0,8.4-10.8,26.3-12.3V241c0,0-16.4,0-26.1-10.4"/>
	<rect x="29.9" y="226.2" class="st12" width="21.6" height="58.7"/>
	<rect x="22" y="236.1" class="st13" width="19.6" height="38.8"/>
	<rect x="16.6" y="236.1" class="st14" width="10.5" height="38.8"/>
	<rect x="19" y="240" class="st15" width="5.8" height="30.9"/>
</g>
<polygon class="st16" points="354.2,250.2 352.1,264.6 424.7,275.2 425.9,267.2 431.3,268 430.1,276 664.3,309.9 665.5,301.5 
	670.2,302.2 669,310.6 731.5,319.7 733.6,305.2 "/>
<path class="st1" d="M742.2,289.9c-6.3-0.6-10.8-6.2-10.2-12.5s6.2-10.8,12.5-10.2c0.3,0,0.7,0.1,1,0.2c0.8,0.1,1.6,0.3,2.3,0.6
	l1.8-12.4c-0.8,0-1.6,0-2.4-0.1c-6.3-0.6-10.8-6.2-10.2-12.5s6.2-10.8,12.5-10.2c0.3,0,0.7,0.1,1,0.2c0.8,0.1,1.6,0.3,2.3,0.6v-0.4
	c1.4-9.7-3.9-18.6-11.8-19.8l-374.6-54.3c-7.9-1.1-15.6,5.9-17,15.6v0.2c6.1,1.3,10,7.4,8.7,13.5c-1.2,5.5-6.3,9.3-11.9,8.9
	l-1.8,12.1c6.1,1.3,10,7.4,8.7,13.5c-1.2,5.5-6.3,9.3-11.9,8.9l-0.6,4.2c-1.4,9.7,3.9,18.6,11.9,19.8L727,310.1
	c7.9,1.1,15.6-5.9,17-15.6l0.6-4.3C743.8,290.1,743,290,742.2,289.9z"/>
<path class="st0" d="M744.5,290c-0.8,0-1.6,0-2.4-0.1c-6.3-0.6-10.8-6.2-10.2-12.5s6.2-10.8,12.5-10.2c0.3,0,0.7,0.1,1,0.2
	c0.8,0.1,1.6,0.3,2.3,0.6l1.8-12.4c-0.8,0-1.6,0-2.4-0.1c-6.3-0.6-10.8-6.2-10.2-12.5s6.2-10.8,12.5-10.2c0.3,0,0.7,0.1,1,0.2
	c0.8,0.1,1.6,0.3,2.3,0.6v-0.4c1.4-9.7-3.9-18.6-11.8-19.8l-120.6-17.5l-12.7,41l-118.2-17.1l-10.8,23.9l-126.4-18.5
	c-2.1,4.2-6.5,6.7-11.1,6.4l-0.6,4.2c-1.4,9.7,3.9,18.6,11.9,19.8l374.5,54.3c7.9,1.1,15.6-5.9,17-15.6L744.5,290z"/>
<path class="st17" d="M340.6,240c0,0,263.8,35.9,265.6,38.5c0.7,1,4.5,4.6,6.1,6.8c0.8,1.1,1.9,1.9,3.2,2.1l90.6,13.9l12.9-38.4
	l28.9,4.2"/>
<rect x="357.4" y="189.9" transform="matrix(0.1435 -0.9897 0.9897 0.1435 124.4769 568.3674)" class="st18" width="66.3" height="44.8"/>
<rect x="362.8" y="192.5" transform="matrix(0.1435 -0.9897 0.9897 0.1435 125.5122 567.9338)" class="st19" width="56.1" height="37.9"/>
<rect x="418.7" y="198.8" transform="matrix(0.1435 -0.9897 0.9897 0.1435 168.1749 636.6346)" class="st18" width="66.3" height="44.8"/>
<rect x="424.1" y="201.4" transform="matrix(0.1435 -0.9897 0.9897 0.1435 169.2224 636.2198)" class="st19" width="56.1" height="37.9"/>
<rect x="480.1" y="207.6" transform="matrix(0.1435 -0.9897 0.9897 0.1435 211.9015 704.9254)" class="st18" width="66.3" height="44.8"/>
<rect x="486.4" y="208.4" transform="matrix(0.14 -0.9902 0.9902 0.14 217.3715 704.9077)" class="st19" width="56.1" height="37.9"/>
<rect x="541.3" y="216.5" transform="matrix(0.1435 -0.9897 0.9897 0.1435 255.5551 773.1229)" class="st18" width="66.3" height="44.8"/>
<rect x="546.7" y="219.2" transform="matrix(0.1435 -0.9897 0.9897 0.1435 256.6635 772.7825)" class="st19" width="56.1" height="37.9"/>
<rect x="602.6" y="225.4" transform="matrix(0.1435 -0.9897 0.9897 0.1435 299.2866 841.3972)" class="st18" width="66.3" height="44.8"/>
<rect x="608" y="228" transform="matrix(0.1435 -0.9897 0.9897 0.1435 300.3195 840.963)" class="st19" width="56.1" height="37.9"/>
<rect x="663.9" y="234.3" transform="matrix(0.1435 -0.9897 0.9897 0.1435 342.9962 909.6855)" class="st18" width="66.3" height="44.8"/>
<rect x="669.3" y="236.9" transform="matrix(0.1435 -0.9897 0.9897 0.1435 344.0436 909.2709)" class="st19" width="56.1" height="37.9"/>
<rect x="369.5" y="241.5" transform="matrix(0.1435 -0.9897 0.9897 0.1435 71.4132 581.7486)" class="st20" width="4.5" height="16.3"/>
<rect x="386.9" y="244" transform="matrix(0.1435 -0.9897 0.9897 0.1435 83.7946 601.1482)" class="st20" width="4.5" height="16.3"/>
<rect x="370.9" y="243" transform="matrix(0.1435 -0.9897 0.9897 0.1435 69.6718 582.8416)" class="st21" width="1.3" height="16.3"/>
<rect x="388.3" y="245.6" transform="matrix(0.1435 -0.9897 0.9897 0.1435 82.0623 602.2795)" class="st21" width="1.3" height="16.3"/>
<rect x="433.4" y="250.7" transform="matrix(0.1435 -0.9897 0.9897 0.1435 116.9454 652.8169)" class="st20" width="4.5" height="16.3"/>
<rect x="450.9" y="253.3" transform="matrix(0.1435 -0.9897 0.9897 0.1435 129.3974 672.327)" class="st20" width="4.5" height="16.3"/>
<rect x="434.7" y="252.3" transform="matrix(0.1435 -0.9897 0.9897 0.1435 115.2015 653.927)" class="st21" width="1.3" height="16.3"/>
<rect x="452.2" y="254.8" transform="matrix(0.1435 -0.9897 0.9897 0.1435 127.6485 673.4532)" class="st21" width="1.3" height="16.3"/>
<rect x="497.3" y="260" transform="matrix(0.1435 -0.9897 0.9897 0.1435 162.4432 724.0474)" class="st20" width="4.5" height="16.3"/>
<rect x="514.7" y="262.5" transform="matrix(0.1435 -0.9897 0.9897 0.1435 174.913 743.3905)" class="st20" width="4.5" height="16.3"/>
<rect x="498.6" y="261.6" transform="matrix(0.1435 -0.9897 0.9897 0.1435 160.6944 725.1737)" class="st21" width="1.3" height="16.3"/>
<rect x="516.1" y="264.1" transform="matrix(0.1435 -0.9897 0.9897 0.1435 173.1642 744.5168)" class="st21" width="1.3" height="16.3"/>
<rect x="561.2" y="269.3" transform="matrix(0.1435 -0.9897 0.9897 0.1435 208.046 795.226)" class="st20" width="4.5" height="16.3"/>
<rect x="578.6" y="271.7" transform="matrix(0.1435 -0.9897 0.9897 0.1435 220.5303 814.5886)" class="st20" width="4.5" height="16.3"/>
<rect x="562.6" y="270.8" transform="matrix(0.1435 -0.9897 0.9897 0.1435 206.2972 796.3524)" class="st21" width="1.3" height="16.3"/>
<rect x="580" y="273.4" transform="matrix(0.1435 -0.9897 0.9897 0.1435 218.6737 815.7684)" class="st21" width="1.3" height="16.3"/>
<rect x="625" y="278.5" transform="matrix(0.1435 -0.9897 0.9897 0.1435 253.5786 866.2921)" class="st20" width="4.5" height="16.3"/>
<rect x="642.5" y="281.1" transform="matrix(0.1435 -0.9897 0.9897 0.1435 266.0063 885.8329)" class="st20" width="4.5" height="16.3"/>
<rect x="626.4" y="280.1" transform="matrix(0.1435 -0.9897 0.9897 0.1435 251.8299 867.4184)" class="st21" width="1.3" height="16.3"/>
<rect x="643.9" y="282.7" transform="matrix(0.1435 -0.9897 0.9897 0.1435 264.2624 886.9429)" class="st21" width="1.3" height="16.3"/>
<rect x="681" y="286.6" transform="matrix(0.1435 -0.9897 0.9897 0.1435 293.507 928.6032)" class="st20" width="4.5" height="16.3"/>
<rect x="698.5" y="289.2" transform="matrix(0.1435 -0.9897 0.9897 0.1435 305.9419 948.1107)" class="st20" width="4.5" height="16.3"/>
<rect x="682.4" y="288.2" transform="matrix(0.1435 -0.9897 0.9897 0.1435 291.7581 929.7296)" class="st21" width="1.3" height="16.3"/>
<rect x="699.8" y="290.7" transform="matrix(0.1435 -0.9897 0.9897 0.1435 304.1931 949.2371)" class="st21" width="1.3" height="16.3"/>
<ellipse transform="matrix(0.1435 -0.9897 0.9897 0.1435 156.8929 593.2988)" class="st22" cx="421.2" cy="206" rx="5.3" ry="3.6"/>
<ellipse transform="matrix(0.1435 -0.9897 0.9897 0.1435 133.1627 608.584)" class="st22" cx="418.2" cy="227.4" rx="5.3" ry="3.6"/>
<ellipse transform="matrix(0.1435 -0.9897 0.9897 0.1435 201.9521 663.7586)" class="st22" cx="484.4" cy="215.2" rx="5.3" ry="3.6"/>
<ellipse transform="matrix(0.14 -0.9902 0.9902 0.14 179.2022 677.2285)" class="st22" cx="479.5" cy="235.5" rx="5.3" ry="3.6"/>
<ellipse transform="matrix(0.1435 -0.9897 0.9897 0.1435 245.5109 731.621)" class="st22" cx="545.4" cy="224" rx="5.3" ry="3.6"/>
<ellipse transform="matrix(0.1435 -0.9897 0.9897 0.1435 221.7977 746.9086)" class="st22" cx="542.4" cy="245.3" rx="5.3" ry="3.6"/>
<ellipse transform="matrix(0.14 -0.9902 0.9902 0.14 289.2736 796.318)" class="st22" cx="603.1" cy="231.6" rx="5.3" ry="3.6"/>
<ellipse transform="matrix(0.1435 -0.9897 0.9897 0.1435 264.5161 813.6558)" class="st22" cx="602.3" cy="254" rx="5.3" ry="3.6"/>
<ellipse transform="matrix(0.1435 -0.9897 0.9897 0.1435 333.1018 868.6107)" class="st22" cx="668.4" cy="241.9" rx="5.3" ry="3.6"/>
<ellipse transform="matrix(0.1435 -0.9897 0.9897 0.1435 309.323 883.7717)" class="st22" cx="665.2" cy="263.2" rx="5.3" ry="3.6"/>
<ellipse transform="matrix(0.1435 -0.9897 0.9897 0.1435 143.2728 504.9502)" class="st16" cx="363.4" cy="169.7" rx="6.1" ry="4.2"/>
<path class="st23" d="M13.6,60.4c0-7.8,6.4-14.2,14.2-14.2l0,0h12.4l10.6,7.1h5.3l10.6-7.1h239.9V110H102.3l-10.6,7.1h-5.3L75.8,110
	H63.2c-7.8,0-14.2,6.4-14.2,14.2l0,0v16c0,7.8,6.4,14.1,14.2,14.1h39V172H65.9l-10.6,7.1H50L39.4,172H27.8
	c-7.8,0-14.2-6.3-14.2-14.2V60.4z M205.9,55.1h-62.1V64c0,17.7-14.2-14.2-14.2,13.3s14.2-4.4,14.2,13.3V103h62.1V55.1z"/>
<path class="st24" d="M11.8,58.6c0-7.8,6.4-14.1,14.2-14.1h12.4L49,51.6h5.3l10.6-7.1h240v63.8H100.5l-10.6,7.1h-5.3l-10.7-7.1H61.5
	c-7.8,0-14.2,6.4-14.2,14.2l0,0v16c0,7.8,6.4,14.1,14.2,14.1h39v17.7H64.2l-10.6,7.1h-5.3l-10.6-7.1H26c-7.8,0-14.2-6.4-14.2-14.2
	l0,0C11.8,156.1,11.8,58.6,11.8,58.6z M204.1,53.3H142v8.9c0,17.7-14.2-14.2-14.2,13.3S142,71.1,142,88.8v12.4h62.1L204.1,53.3
	L204.1,53.3z"/>
<path class="st25" d="M12.7,57.8c0.5-7,6.3-12.4,13.3-12.4h12.4L49,52.5h5.3l10.6-7.1h34.6 M99.6,45.4H304 M50.8,149.1
	c2.8,2.8,6.7,4.4,10.7,4.4h38.1 M16.6,165.6c-2.5-2.5-3.9-5.9-3.9-9.4V58.6 M205,54.2v47.9h-62.1 M133,87.6l6.5-3.7"/>
<g class="st3">
	<path class="st26" d="M32.8,73.3c0-0.2,0-0.3,0.1-0.5c0.1-0.2,0.2-0.3,0.3-0.4s0.2-0.2,0.4-0.3c0.2-0.1,0.3-0.1,0.5-0.1h4.3
		c0.6,0,1.3,0.1,1.9,0.2s1.1,0.3,1.6,0.5c0.5,0.3,0.8,0.6,1.1,1.1c0.3,0.5,0.4,1,0.4,1.7c0,0.4-0.1,0.7-0.2,1.1
		c-0.1,0.3-0.3,0.6-0.5,0.9c-0.2,0.3-0.5,0.5-0.9,0.7s-0.8,0.3-1.3,0.4v0c0.5,0.1,0.9,0.2,1.2,0.3c0.3,0.2,0.6,0.4,0.8,0.6
		c0.2,0.2,0.3,0.5,0.4,0.9c0.1,0.3,0.2,0.7,0.2,1.1c0,0.4,0.1,0.7,0.1,1.1s0.1,0.6,0.1,0.9c0,0.3,0,0.6,0.1,0.8v0.1
		c0,0.2,0,0.4-0.1,0.5c-0.1,0.1-0.2,0.3-0.3,0.4c-0.1,0.1-0.3,0.2-0.4,0.2c-0.1,0.1-0.3,0.1-0.5,0.1c-0.1,0-0.3,0-0.4-0.1
		c-0.1,0-0.3-0.1-0.4-0.2s-0.2-0.2-0.3-0.3c-0.1-0.1-0.1-0.3-0.2-0.5c-0.1-0.7-0.1-1.3-0.2-1.8c0-0.5-0.1-0.9-0.2-1.3
		c-0.1-0.4-0.1-0.7-0.2-0.9c-0.1-0.2-0.2-0.4-0.4-0.6c-0.2-0.1-0.4-0.2-0.7-0.3c-0.3-0.1-0.6-0.1-1.1-0.1h-2.6v4.8
		c0,0.2,0,0.4-0.1,0.5c-0.1,0.2-0.2,0.3-0.3,0.4s-0.3,0.2-0.4,0.2c-0.1,0.1-0.3,0.1-0.5,0.1c-0.2,0-0.3,0-0.5-0.1
		c-0.1-0.1-0.3-0.1-0.4-0.2c-0.1-0.1-0.2-0.2-0.3-0.4c-0.1-0.2-0.1-0.3-0.1-0.5V73.3z M37.3,78c0.4,0,0.8,0,1.2-0.1
		c0.4,0,0.8-0.1,1.1-0.3c0.3-0.1,0.6-0.4,0.8-0.6c0.2-0.3,0.3-0.7,0.3-1.1c0-0.5-0.1-0.9-0.3-1.1s-0.4-0.5-0.7-0.6s-0.6-0.2-0.9-0.3
		c-0.3,0-0.7-0.1-1-0.1h-2.5V78H37.3z"/>
	<path class="st26" d="M47.6,85.8c-0.2,0-0.3,0-0.5-0.1c-0.1-0.1-0.3-0.2-0.4-0.3c-0.1-0.1-0.2-0.2-0.3-0.4
		c-0.1-0.1-0.1-0.3-0.1-0.5V73.3c0-0.2,0-0.3,0.1-0.5c0.1-0.1,0.1-0.3,0.3-0.4c0.1-0.1,0.2-0.2,0.4-0.3c0.1-0.1,0.3-0.1,0.5-0.1h6.9
		c0.2,0,0.3,0,0.4,0.1c0.1,0.1,0.2,0.1,0.3,0.2c0.1,0.1,0.1,0.2,0.2,0.3s0.1,0.2,0.1,0.3c0,0.1,0,0.2-0.1,0.3s-0.1,0.2-0.2,0.3
		c-0.1,0.1-0.2,0.2-0.3,0.2c-0.1,0.1-0.3,0.1-0.4,0.1h-5.7v3.9h5.3c0.2,0,0.3,0,0.4,0.1c0.1,0.1,0.2,0.1,0.3,0.2
		c0.1,0.1,0.1,0.2,0.2,0.3c0,0.1,0.1,0.2,0.1,0.3c0,0.1,0,0.2-0.1,0.3c0,0.1-0.1,0.2-0.2,0.3c-0.1,0.1-0.2,0.2-0.3,0.2
		s-0.3,0.1-0.4,0.1h-5.3v4.2h5.9c0.2,0,0.3,0,0.4,0.1c0.1,0.1,0.2,0.1,0.3,0.2c0.1,0.1,0.1,0.2,0.2,0.3c0,0.1,0.1,0.2,0.1,0.3
		c0,0.1,0,0.2-0.1,0.3c0,0.1-0.1,0.2-0.2,0.3c-0.1,0.1-0.2,0.2-0.3,0.2c-0.1,0.1-0.3,0.1-0.4,0.1H47.6z"/>
	<path class="st26" d="M60.9,80.2v4.3c0,0.2,0,0.4-0.1,0.5c-0.1,0.2-0.2,0.3-0.3,0.4s-0.3,0.2-0.4,0.2s-0.3,0.1-0.5,0.1
		c-0.2,0-0.3,0-0.5-0.1c-0.2-0.1-0.3-0.1-0.4-0.2c-0.1-0.1-0.2-0.2-0.3-0.4c-0.1-0.2-0.1-0.3-0.1-0.5V73.3c0-0.2,0-0.3,0.1-0.5
		c0.1-0.2,0.2-0.3,0.3-0.4c0.1-0.1,0.3-0.2,0.4-0.3c0.2-0.1,0.3-0.1,0.5-0.1h3.9c0.7,0,1.4,0.1,2,0.2c0.6,0.1,1.2,0.4,1.7,0.7
		c0.5,0.3,0.9,0.7,1.2,1.3c0.3,0.5,0.4,1.1,0.4,1.9c0,0.8-0.1,1.4-0.4,1.9c-0.3,0.5-0.7,0.9-1.2,1.3S66,79.9,65.4,80
		c-0.7,0.1-1.4,0.2-2.1,0.2H60.9z M63.1,78.5c0.4,0,0.8,0,1.2-0.1s0.7-0.2,1-0.4c0.3-0.2,0.5-0.4,0.7-0.7s0.2-0.7,0.2-1.1
		S66.1,75.3,66,75c-0.2-0.3-0.4-0.5-0.6-0.7c-0.3-0.2-0.6-0.3-1-0.4s-0.8-0.1-1.2-0.1h-2.3v4.7H63.1z"/>
</g>
<g class="st3">
	<path class="st26" d="M72.3,85.8c-0.2,0-0.3,0-0.5-0.1c-0.1-0.1-0.3-0.2-0.4-0.3c-0.1-0.1-0.2-0.2-0.3-0.4
		c-0.1-0.1-0.1-0.3-0.1-0.5V73.3c0-0.2,0-0.3,0.1-0.5c0.1-0.1,0.1-0.3,0.3-0.4c0.1-0.1,0.2-0.2,0.4-0.3c0.1-0.1,0.3-0.1,0.5-0.1h6.9
		c0.2,0,0.3,0,0.4,0.1c0.1,0.1,0.2,0.1,0.3,0.2c0.1,0.1,0.1,0.2,0.2,0.3s0.1,0.2,0.1,0.3c0,0.1,0,0.2-0.1,0.3s-0.1,0.2-0.2,0.3
		c-0.1,0.1-0.2,0.2-0.3,0.2c-0.1,0.1-0.3,0.1-0.4,0.1h-5.7v3.9h5.3c0.2,0,0.3,0,0.4,0.1c0.1,0.1,0.2,0.1,0.3,0.2
		c0.1,0.1,0.1,0.2,0.2,0.3c0,0.1,0.1,0.2,0.1,0.3c0,0.1,0,0.2-0.1,0.3c0,0.1-0.1,0.2-0.2,0.3c-0.1,0.1-0.2,0.2-0.3,0.2
		s-0.3,0.1-0.4,0.1h-5.3v4.2h5.9c0.2,0,0.3,0,0.4,0.1c0.1,0.1,0.2,0.1,0.3,0.2c0.1,0.1,0.1,0.2,0.2,0.3c0,0.1,0.1,0.2,0.1,0.3
		c0,0.1,0,0.2-0.1,0.3c0,0.1-0.1,0.2-0.2,0.3c-0.1,0.1-0.2,0.2-0.3,0.2c-0.1,0.1-0.3,0.1-0.4,0.1H72.3z"/>
</g>
<g class="st3">
	<path class="st26" d="M82.2,74c-0.2,0-0.3,0-0.4-0.1s-0.2-0.1-0.3-0.2c-0.1-0.1-0.1-0.2-0.2-0.3c0-0.1-0.1-0.2-0.1-0.4
		c0-0.1,0-0.2,0.1-0.4c0-0.1,0.1-0.2,0.2-0.3c0.1-0.1,0.2-0.2,0.3-0.2c0.1-0.1,0.3-0.1,0.4-0.1h9c0.2,0,0.3,0,0.4,0.1
		c0.1,0.1,0.2,0.1,0.3,0.2c0.1,0.1,0.1,0.2,0.2,0.3c0,0.1,0.1,0.2,0.1,0.4c0,0.1,0,0.2-0.1,0.4c0,0.1-0.1,0.2-0.2,0.3
		c-0.1,0.1-0.2,0.2-0.3,0.2S91.4,74,91.2,74H88v10.5c0,0.2,0,0.4-0.1,0.5c-0.1,0.2-0.2,0.3-0.3,0.4c-0.1,0.1-0.3,0.2-0.4,0.2
		s-0.3,0.1-0.5,0.1s-0.3,0-0.5-0.1s-0.3-0.1-0.4-0.2c-0.1-0.1-0.2-0.2-0.3-0.4c-0.1-0.2-0.1-0.3-0.1-0.5V74H82.2z"/>
	<path class="st26" d="M94.2,73.3c0-0.2,0-0.4,0.1-0.5c0.1-0.2,0.2-0.3,0.3-0.4s0.3-0.2,0.4-0.2s0.3-0.1,0.5-0.1
		c0.2,0,0.3,0,0.5,0.1s0.3,0.1,0.4,0.2c0.1,0.1,0.2,0.2,0.3,0.4c0.1,0.2,0.1,0.3,0.1,0.5v11.3c0,0.2,0,0.4-0.1,0.5
		c-0.1,0.2-0.2,0.3-0.3,0.4c-0.1,0.1-0.3,0.2-0.4,0.2c-0.2,0.1-0.3,0.1-0.5,0.1s-0.3,0-0.5-0.1c-0.2-0.1-0.3-0.1-0.4-0.2
		s-0.2-0.2-0.3-0.4c-0.1-0.2-0.1-0.3-0.1-0.5V73.3z"/>
	<path class="st26" d="M100.2,73.3c0-0.2,0-0.3,0.1-0.5c0.1-0.2,0.2-0.3,0.3-0.4s0.2-0.2,0.4-0.3c0.2-0.1,0.3-0.1,0.5-0.1h4.3
		c0.6,0,1.3,0.1,1.9,0.2s1.1,0.3,1.6,0.5c0.5,0.3,0.8,0.6,1.1,1.1c0.3,0.5,0.4,1,0.4,1.7c0,0.4-0.1,0.7-0.2,1.1
		c-0.1,0.3-0.3,0.6-0.5,0.9c-0.2,0.3-0.5,0.5-0.9,0.7s-0.8,0.3-1.3,0.4v0c0.5,0.1,0.9,0.2,1.2,0.3c0.3,0.2,0.6,0.4,0.8,0.6
		c0.2,0.2,0.3,0.5,0.4,0.9c0.1,0.3,0.2,0.7,0.2,1.1c0,0.4,0.1,0.7,0.1,1.1s0.1,0.6,0.1,0.9c0,0.3,0,0.6,0.1,0.8v0.1
		c0,0.2,0,0.4-0.1,0.5c-0.1,0.1-0.2,0.3-0.3,0.4c-0.1,0.1-0.3,0.2-0.4,0.2c-0.1,0.1-0.3,0.1-0.5,0.1c-0.1,0-0.3,0-0.4-0.1
		c-0.1,0-0.3-0.1-0.4-0.2s-0.2-0.2-0.3-0.3c-0.1-0.1-0.1-0.3-0.2-0.5c-0.1-0.7-0.1-1.3-0.2-1.8c0-0.5-0.1-0.9-0.2-1.3
		c-0.1-0.4-0.1-0.7-0.2-0.9c-0.1-0.2-0.2-0.4-0.4-0.6c-0.2-0.1-0.4-0.2-0.7-0.3c-0.3-0.1-0.6-0.1-1.1-0.1h-2.6v4.8
		c0,0.2,0,0.4-0.1,0.5c-0.1,0.2-0.2,0.3-0.3,0.4s-0.3,0.2-0.4,0.2c-0.1,0.1-0.3,0.1-0.5,0.1c-0.2,0-0.3,0-0.5-0.1
		c-0.1-0.1-0.3-0.1-0.4-0.2c-0.1-0.1-0.2-0.2-0.3-0.4c-0.1-0.2-0.1-0.3-0.1-0.5V73.3z M104.7,78c0.4,0,0.8,0,1.2-0.1
		c0.4,0,0.8-0.1,1.1-0.3c0.3-0.1,0.6-0.4,0.8-0.6c0.2-0.3,0.3-0.7,0.3-1.1c0-0.5-0.1-0.9-0.3-1.1s-0.4-0.5-0.7-0.6s-0.6-0.2-0.9-0.3
		c-0.3,0-0.7-0.1-1-0.1h-2.5V78H104.7z"/>
</g>
<g class="st3">
	<path class="st26" d="M226.8,83.8L226.8,83.8l3.6-10.8c0.1-0.3,0.2-0.5,0.4-0.6s0.4-0.2,0.7-0.2c0.2,0,0.3,0,0.4,0.1
		c0.1,0.1,0.3,0.1,0.4,0.2c0.1,0.1,0.2,0.2,0.3,0.3c0.1,0.1,0.1,0.3,0.1,0.4c0,0.1,0,0.1,0,0.2c0,0.1,0,0.1,0,0.2L229,84.1
		c-0.1,0.3-0.2,0.6-0.3,0.8c-0.1,0.2-0.3,0.4-0.5,0.5c-0.2,0.1-0.4,0.2-0.6,0.3c-0.2,0.1-0.5,0.1-0.7,0.1c-0.3,0-0.5,0-0.7-0.1
		s-0.4-0.1-0.6-0.3s-0.3-0.3-0.5-0.5c-0.1-0.2-0.3-0.5-0.4-0.8l-3.8-10.6c0-0.1-0.1-0.2-0.1-0.4c0-0.2,0-0.3,0.1-0.4
		c0.1-0.1,0.2-0.3,0.3-0.4s0.2-0.2,0.4-0.2s0.3-0.1,0.5-0.1c0.3,0,0.5,0.1,0.7,0.2c0.2,0.1,0.4,0.4,0.4,0.6L226.8,83.8z"/>
	<path class="st26" d="M236.3,85.8c-0.2,0-0.3,0-0.5-0.1c-0.1-0.1-0.3-0.2-0.4-0.3c-0.1-0.1-0.2-0.2-0.3-0.4
		c-0.1-0.1-0.1-0.3-0.1-0.5V73.3c0-0.2,0-0.3,0.1-0.5c0.1-0.1,0.1-0.3,0.3-0.4c0.1-0.1,0.2-0.2,0.4-0.3c0.1-0.1,0.3-0.1,0.5-0.1h6.9
		c0.2,0,0.3,0,0.4,0.1c0.1,0.1,0.2,0.1,0.3,0.2s0.1,0.2,0.2,0.3s0.1,0.2,0.1,0.3c0,0.1,0,0.2-0.1,0.3s-0.1,0.2-0.2,0.3
		c-0.1,0.1-0.2,0.2-0.3,0.2c-0.1,0.1-0.3,0.1-0.4,0.1h-5.7v3.9h5.3c0.2,0,0.3,0,0.4,0.1c0.1,0.1,0.2,0.1,0.3,0.2s0.1,0.2,0.2,0.3
		c0,0.1,0.1,0.2,0.1,0.3c0,0.1,0,0.2-0.1,0.3c0,0.1-0.1,0.2-0.2,0.3s-0.2,0.2-0.3,0.2c-0.1,0.1-0.3,0.1-0.4,0.1h-5.3v4.2h5.9
		c0.2,0,0.3,0,0.4,0.1c0.1,0.1,0.2,0.1,0.3,0.2c0.1,0.1,0.1,0.2,0.2,0.3s0.1,0.2,0.1,0.3c0,0.1,0,0.2-0.1,0.3s-0.1,0.2-0.2,0.3
		c-0.1,0.1-0.2,0.2-0.3,0.2s-0.3,0.1-0.4,0.1H236.3z"/>
	<path class="st26" d="M246.4,79c0-1.1,0.2-2.1,0.5-3s0.8-1.7,1.3-2.3c0.6-0.6,1.3-1.1,2-1.4c0.8-0.3,1.6-0.5,2.6-0.5
		c0.6,0,1.2,0.1,1.8,0.2s1.3,0.3,1.9,0.6c0.2,0.1,0.4,0.2,0.5,0.4c0.1,0.2,0.1,0.3,0.1,0.5c0,0.1,0,0.2-0.1,0.4s-0.1,0.2-0.2,0.3
		c-0.1,0.1-0.2,0.2-0.3,0.2s-0.2,0.1-0.4,0.1c-0.1,0-0.2,0-0.4-0.1c-1-0.4-1.9-0.5-2.7-0.5c-0.7,0-1.2,0.1-1.8,0.3s-0.9,0.6-1.3,1
		c-0.3,0.4-0.6,1-0.8,1.6c-0.2,0.6-0.3,1.4-0.3,2.2c0,0.7,0.1,1.4,0.2,2c0.2,0.6,0.4,1.1,0.7,1.6c0.3,0.4,0.7,0.8,1.2,1
		c0.5,0.2,1,0.4,1.7,0.4c0.5,0,0.9-0.1,1.5-0.2c0.5-0.1,1.1-0.3,1.7-0.6c0.1,0,0.2-0.1,0.2-0.1c0.1,0,0.2,0,0.2,0
		c0.1,0,0.3,0,0.4,0.1c0.1,0.1,0.2,0.1,0.3,0.2s0.1,0.2,0.2,0.3s0.1,0.2,0.1,0.4c0,0.2-0.1,0.4-0.2,0.6c-0.1,0.2-0.3,0.4-0.6,0.5
		c-1.4,0.7-2.7,1-3.9,1c-0.9,0-1.8-0.2-2.6-0.5c-0.8-0.3-1.4-0.8-2-1.5c-0.6-0.6-1-1.4-1.3-2.2S246.4,80,246.4,79z"/>
	<path class="st26" d="M261.9,85.8c-0.2,0-0.3,0-0.5-0.1c-0.1-0.1-0.3-0.2-0.4-0.3c-0.1-0.1-0.2-0.2-0.3-0.4
		c-0.1-0.1-0.1-0.3-0.1-0.5V73.3c0-0.2,0-0.3,0.1-0.5c0.1-0.1,0.1-0.3,0.3-0.4c0.1-0.1,0.2-0.2,0.4-0.3c0.1-0.1,0.3-0.1,0.5-0.1h6.9
		c0.2,0,0.3,0,0.4,0.1c0.1,0.1,0.2,0.1,0.3,0.2s0.1,0.2,0.2,0.3s0.1,0.2,0.1,0.3c0,0.1,0,0.2-0.1,0.3s-0.1,0.2-0.2,0.3
		c-0.1,0.1-0.2,0.2-0.3,0.2c-0.1,0.1-0.3,0.1-0.4,0.1h-5.7v3.9h5.3c0.2,0,0.3,0,0.4,0.1c0.1,0.1,0.2,0.1,0.3,0.2s0.1,0.2,0.2,0.3
		c0,0.1,0.1,0.2,0.1,0.3c0,0.1,0,0.2-0.1,0.3c0,0.1-0.1,0.2-0.2,0.3s-0.2,0.2-0.3,0.2c-0.1,0.1-0.3,0.1-0.4,0.1h-5.3v4.2h5.9
		c0.2,0,0.3,0,0.4,0.1c0.1,0.1,0.2,0.1,0.3,0.2c0.1,0.1,0.1,0.2,0.2,0.3s0.1,0.2,0.1,0.3c0,0.1,0,0.2-0.1,0.3s-0.1,0.2-0.2,0.3
		c-0.1,0.1-0.2,0.2-0.3,0.2s-0.3,0.1-0.4,0.1H261.9z"/>
	<path class="st26" d="M274.7,75.5c0,0.4,0.1,0.7,0.3,1c0.2,0.3,0.5,0.5,0.8,0.7c0.3,0.2,0.7,0.3,1.2,0.5c0.4,0.1,0.9,0.3,1.4,0.4
		c0.6,0.2,1.2,0.4,1.7,0.6s1,0.5,1.4,0.8c0.4,0.3,0.7,0.7,0.9,1.1s0.3,0.9,0.3,1.5c0,0.6-0.1,1.2-0.4,1.7c-0.3,0.5-0.6,0.9-1.1,1.3
		c-0.5,0.4-1,0.6-1.7,0.8c-0.7,0.2-1.4,0.3-2.2,0.3c-0.6,0-1.2-0.1-1.7-0.2s-1-0.2-1.5-0.4c-0.4-0.2-0.8-0.4-1.2-0.6
		c-0.3-0.2-0.6-0.5-0.8-0.8c-0.1-0.1-0.1-0.2-0.1-0.3c0-0.1,0-0.2,0.1-0.4c0.1-0.1,0.1-0.2,0.2-0.3s0.2-0.2,0.3-0.2s0.2-0.1,0.3-0.1
		c0.1,0,0.2,0,0.3,0.1s0.2,0.1,0.3,0.2c0.2,0.1,0.4,0.3,0.7,0.4c0.3,0.1,0.6,0.2,0.9,0.3c0.3,0.1,0.7,0.2,1,0.2s0.8,0.1,1.2,0.1
		c0.4,0,0.8,0,1.1-0.1c0.3-0.1,0.7-0.2,0.9-0.3c0.3-0.2,0.5-0.4,0.6-0.6c0.1-0.2,0.2-0.5,0.2-0.8c0-0.4-0.1-0.8-0.3-1
		c-0.2-0.3-0.5-0.5-0.8-0.7s-0.7-0.3-1.2-0.5c-0.4-0.1-0.9-0.3-1.3-0.4c-0.2-0.1-0.4-0.1-0.6-0.2c-0.2-0.1-0.5-0.2-0.7-0.3
		c-0.2-0.1-0.5-0.2-0.7-0.3c-0.2-0.1-0.4-0.2-0.5-0.3c-1.2-0.6-1.7-1.6-1.7-2.9c0-0.6,0.1-1.2,0.4-1.6c0.3-0.5,0.6-0.9,1.1-1.2
		c0.5-0.3,1-0.6,1.6-0.8c0.6-0.2,1.3-0.3,2-0.3c1,0,1.9,0.1,2.6,0.4c0.8,0.3,1.4,0.7,2,1.3c0.1,0.1,0.1,0.2,0.2,0.3
		c0,0.1,0,0.2,0,0.3c0,0.1,0,0.2,0,0.3c0,0.1-0.1,0.2-0.2,0.3c-0.1,0.1-0.2,0.2-0.3,0.2c-0.1,0.1-0.2,0.1-0.4,0.1
		c-0.2,0-0.4-0.1-0.6-0.3c-0.2-0.1-0.4-0.2-0.6-0.4c-0.2-0.1-0.5-0.2-0.8-0.3c-0.3-0.1-0.6-0.2-0.9-0.2c-0.3-0.1-0.6-0.1-1-0.1
		c-0.3,0-0.7,0-1,0.1c-0.3,0.1-0.6,0.2-0.9,0.3c-0.3,0.1-0.5,0.3-0.7,0.6C274.8,74.9,274.7,75.2,274.7,75.5z"/>
</g>
<g>
	<path class="st27" d="M877.3,53.1c0.5-9,8.2-15.9,17.3-15.4l14.3,0.8l11.8,8.9l6.1,0.3l12.7-7.5l20.5,1.1l165.8,9.3l-3,53.2
		L935.6,93.3l-12.7,7.5l-6.1-0.3l-11.9-8.9l-13.3-0.7c-9-0.5-15.9-8.3-15.4-17.3L877.3,53.1z"/>
	<path class="st28" d="M875.4,51c0.5-9,8.2-15.9,17.3-15.4l14.3,0.8l11.8,8.9l6.1,0.3l12.7-7.5l20.5,1.1l165.8,9.3l-3,53.2
		L933.6,91.2l-12.7,7.5l-6.1-0.3L903,89.5l-13.3-0.8c-9-0.5-16-8.2-15.5-17.3l0,0L875.4,51z"/>
	<path class="st29" d="M876.4,50c1-8,8.1-13.9,16.1-13.5l14.3,0.8l11.8,8.9l6.1,0.3l12.7-7.5l19.4,1.1 M957,40.2l165.8,9.3
		 M879.1,82.6c-2.7-3-4.1-7-3.9-11.1l1.2-20.5"/>
	<g>
		<path class="st26" d="M903.9,73.3l3,2l1.7,3.2c-0.1,0-0.2,0.1-0.2,0.2l0,0l0,0l-6.7,1.5l2.2-6.5l0,0
			C903.7,73.4,903.7,73.2,903.9,73.3z"/>
		<polygon class="st30" points="901.5,79.9 905.5,74.8 905.7,74.8 903.7,73.4 		"/>
		<polygon class="st31" points="901.5,79.9 903.9,79.5 902.4,77.8 		"/>
		<polygon class="st32" points="901.5,79.9 902.9,78.4 902.4,77.8 		"/>
		
			<rect x="905" y="68.3" transform="matrix(0.7448 -0.6673 0.6673 0.7448 187.6159 629.562)" class="st33" width="23.8" height="2.4"/>
		
			<rect x="903.5" y="66.5" transform="matrix(0.7468 -0.6651 0.6651 0.7468 186.8127 625.9564)" class="st34" width="23.8" height="2.4"/>
		
			<rect x="901.9" y="64.7" transform="matrix(0.7456 -0.6664 0.6664 0.7456 188.5565 625.7037)" class="st35" width="23.8" height="2.4"/>
		
			<ellipse transform="matrix(0.7457 -0.6663 0.6663 0.7457 179.3329 624.6622)" class="st33" cx="908" cy="77.4" rx="1.3" ry="1.3"/>
		
			<ellipse transform="matrix(0.7452 -0.6668 0.6668 0.7452 180.5276 623.6766)" class="st34" cx="906.4" cy="75.6" rx="1.3" ry="1.3"/>
		
			<ellipse transform="matrix(0.7452 -0.6668 0.6668 0.7452 181.2802 622.0869)" class="st35" cx="904.7" cy="73.8" rx="1.3" ry="1.3"/>
		
			<rect x="923.9" y="55" transform="matrix(0.7462 -0.6658 0.6658 0.7462 195.6593 630.9066)" class="st36" width="2.6" height="7.7"/>
		
			<rect x="922.1" y="55.8" transform="matrix(0.7463 -0.6656 0.6656 0.7463 196.2511 629.0909)" class="st30" width="2.6" height="2.6"/>
		<path class="st31" d="M924.5,54.7c0.3-0.2,0.7-0.4,1.1-0.3c0.4,0.1,0.8,0.2,1.1,0.4l3,3.3c0.2,0.3,0.4,0.7,0.3,1.1
			c-0.1,0.4-0.2,0.8-0.4,1.1l-0.8,0.7l-5-5.6L924.5,54.7z"/>
		<path class="st32" d="M925.3,57.3l0.8-0.7c0.3-0.2,0.7-0.4,1.1-0.3c0.4,0.1,0.8,0.2,1.1,0.4l-1.6-1.8c-0.3-0.3-0.7-0.4-1.1-0.4
			c-0.4,0-0.8,0.1-1.1,0.3l-0.8,0.5L925.3,57.3z"/>
	</g>
	<g class="st3">
		<path class="st26" d="M951.2,74.7c-0.2,0-0.4-0.1-0.5-0.1c-0.2-0.1-0.3-0.2-0.4-0.3c-0.1-0.1-0.2-0.3-0.3-0.5s-0.1-0.4-0.1-0.5
			l0.7-13c0-0.2,0.1-0.4,0.1-0.5c0.1-0.2,0.2-0.3,0.3-0.4c0.1-0.1,0.3-0.2,0.5-0.3c0.2-0.1,0.4-0.1,0.6-0.1l8,0.5
			c0.2,0,0.3,0,0.5,0.1c0.1,0.1,0.2,0.2,0.3,0.3s0.1,0.2,0.2,0.4c0,0.1,0.1,0.3,0,0.4c0,0.1,0,0.3-0.1,0.4c-0.1,0.1-0.1,0.2-0.2,0.3
			c-0.1,0.1-0.2,0.2-0.4,0.2c-0.1,0.1-0.3,0.1-0.5,0.1l-6.5-0.4l-0.3,4.4l6.1,0.3c0.2,0,0.3,0.1,0.5,0.1c0.1,0.1,0.2,0.2,0.3,0.3
			c0.1,0.1,0.1,0.2,0.2,0.4c0,0.1,0.1,0.3,0,0.4c0,0.1,0,0.3-0.1,0.4c-0.1,0.1-0.1,0.2-0.2,0.3c-0.1,0.1-0.2,0.2-0.4,0.2
			c-0.1,0.1-0.3,0.1-0.5,0.1l-6.1-0.3l-0.3,4.8l6.8,0.4c0.2,0,0.3,0,0.5,0.1c0.1,0.1,0.2,0.2,0.3,0.3c0.1,0.1,0.1,0.2,0.2,0.4
			c0,0.1,0.1,0.3,0,0.4c0,0.1,0,0.3-0.1,0.4c-0.1,0.1-0.1,0.2-0.2,0.3c-0.1,0.1-0.2,0.2-0.4,0.2c-0.1,0.1-0.3,0.1-0.5,0.1
			L951.2,74.7z"/>
		<path class="st26" d="M966.7,63.7c0,0.4,0.1,0.8,0.3,1.1c0.2,0.3,0.5,0.6,0.9,0.8c0.4,0.2,0.8,0.4,1.3,0.6c0.5,0.2,1,0.4,1.6,0.6
			c0.7,0.3,1.3,0.5,1.9,0.8c0.6,0.3,1.1,0.6,1.5,1c0.4,0.4,0.7,0.8,1,1.3s0.3,1.1,0.3,1.8c0,0.7-0.2,1.4-0.6,1.9
			c-0.3,0.6-0.8,1-1.3,1.4c-0.6,0.4-1.2,0.7-2,0.8c-0.8,0.2-1.6,0.2-2.6,0.2c-0.7,0-1.4-0.1-2-0.3c-0.6-0.2-1.2-0.3-1.7-0.6
			c-0.5-0.2-0.9-0.5-1.3-0.8c-0.4-0.3-0.7-0.6-0.9-1c-0.1-0.1-0.1-0.2-0.1-0.4c0-0.1,0-0.3,0.1-0.4s0.1-0.3,0.2-0.4
			c0.1-0.1,0.2-0.2,0.3-0.3c0.1-0.1,0.2-0.1,0.3-0.1c0.1,0,0.2,0.1,0.4,0.1c0.1,0.1,0.2,0.2,0.4,0.3c0.2,0.2,0.5,0.3,0.8,0.5
			c0.3,0.2,0.6,0.3,1,0.5c0.4,0.1,0.7,0.3,1.2,0.4s0.9,0.2,1.3,0.2s0.9,0,1.3-0.1c0.4-0.1,0.8-0.2,1.1-0.3c0.3-0.2,0.6-0.4,0.7-0.6
			s0.3-0.6,0.3-1c0-0.5-0.1-0.9-0.3-1.2c-0.2-0.3-0.5-0.6-0.9-0.8c-0.4-0.2-0.8-0.4-1.3-0.6s-1-0.4-1.5-0.6
			c-0.2-0.1-0.4-0.2-0.7-0.3s-0.5-0.2-0.8-0.4c-0.3-0.1-0.5-0.3-0.8-0.4c-0.2-0.1-0.4-0.3-0.6-0.4c-1.3-0.7-1.9-1.9-1.8-3.5
			c0-0.7,0.2-1.3,0.6-1.9c0.3-0.5,0.8-1,1.3-1.3c0.6-0.4,1.2-0.6,1.9-0.8c0.7-0.2,1.5-0.2,2.4-0.2c1.1,0.1,2.1,0.3,3,0.7
			c0.9,0.4,1.6,0.9,2.2,1.6c0.1,0.1,0.1,0.2,0.2,0.3c0,0.1,0,0.2,0,0.4c0,0.1,0,0.3-0.1,0.4c0,0.1-0.1,0.2-0.2,0.4
			c-0.1,0.1-0.2,0.2-0.3,0.3c-0.1,0.1-0.3,0.1-0.5,0.1c-0.2,0-0.4-0.1-0.7-0.4c-0.2-0.2-0.4-0.3-0.7-0.5c-0.3-0.2-0.5-0.3-0.8-0.4
			c-0.3-0.1-0.6-0.2-1-0.3c-0.4-0.1-0.7-0.1-1.1-0.2c-0.4,0-0.8,0-1.2,0.1s-0.7,0.2-1.1,0.3s-0.6,0.3-0.8,0.6
			C966.8,63.1,966.7,63.4,966.7,63.7z"/>
		<path class="st26" d="M977.8,68.4c0.1-1.3,0.3-2.4,0.7-3.4c0.4-1,1-1.9,1.7-2.5s1.5-1.2,2.4-1.5c0.9-0.3,1.9-0.5,3-0.4
			c0.7,0,1.4,0.2,2.1,0.4s1.4,0.5,2.2,0.9c0.2,0.1,0.4,0.3,0.5,0.5c0.1,0.2,0.1,0.4,0.1,0.6c0,0.1,0,0.3-0.1,0.4
			c-0.1,0.1-0.1,0.2-0.2,0.3c-0.1,0.1-0.2,0.2-0.3,0.2c-0.1,0.1-0.3,0.1-0.4,0.1c-0.1,0-0.3,0-0.4-0.1c-1.2-0.5-2.2-0.8-3.1-0.8
			c-0.8,0-1.4,0.1-2,0.3c-0.6,0.2-1.1,0.6-1.5,1.1s-0.8,1.1-1,1.8c-0.2,0.7-0.4,1.5-0.4,2.5c0,0.9,0,1.6,0.1,2.4s0.4,1.3,0.7,1.9
			c0.3,0.5,0.8,1,1.3,1.3s1.2,0.5,1.9,0.5c0.5,0,1.1,0,1.7-0.1c0.6-0.1,1.3-0.3,2-0.6c0.1,0,0.2-0.1,0.3-0.1c0.1,0,0.2,0,0.3,0
			c0.2,0,0.3,0,0.4,0.1c0.1,0.1,0.2,0.2,0.3,0.3c0.1,0.1,0.1,0.2,0.2,0.4c0,0.1,0.1,0.3,0,0.4c0,0.2-0.1,0.4-0.2,0.7
			c-0.1,0.2-0.4,0.4-0.7,0.5c-1.7,0.7-3.2,1-4.6,0.9c-1.1-0.1-2-0.3-2.9-0.8c-0.9-0.4-1.6-1-2.2-1.8c-0.6-0.8-1-1.6-1.3-2.7
			S977.7,69.6,977.8,68.4z"/>
		<path class="st26" d="M994.6,62.8c0-0.2,0.1-0.4,0.1-0.6c0.1-0.2,0.2-0.3,0.3-0.4c0.1-0.1,0.3-0.2,0.5-0.3
			c0.2-0.1,0.4-0.1,0.6-0.1l4.9,0.3c0.7,0,1.4,0.1,2.1,0.3c0.7,0.2,1.3,0.4,1.8,0.7c0.5,0.3,0.9,0.8,1.2,1.3s0.4,1.2,0.4,2
			c0,0.4-0.1,0.8-0.3,1.2c-0.2,0.4-0.4,0.7-0.7,1s-0.7,0.5-1.1,0.7s-0.9,0.3-1.5,0.4l0,0c0.5,0.1,1,0.3,1.3,0.5
			c0.3,0.2,0.6,0.4,0.8,0.7c0.2,0.3,0.4,0.6,0.4,1c0.1,0.4,0.1,0.8,0.2,1.3c0,0.4,0,0.9,0.1,1.3c0,0.4,0,0.7,0,1c0,0.4,0,0.7,0,1
			l0,0.1c0,0.2-0.1,0.4-0.2,0.6c-0.1,0.2-0.2,0.3-0.4,0.4c-0.1,0.1-0.3,0.2-0.5,0.2c-0.2,0-0.4,0.1-0.5,0.1c-0.2,0-0.3,0-0.5-0.1
			c-0.2-0.1-0.3-0.1-0.4-0.3s-0.2-0.2-0.3-0.4c-0.1-0.2-0.1-0.4-0.1-0.6c0-0.8-0.1-1.5-0.1-2.1c0-0.6,0-1.1-0.1-1.5
			c0-0.4-0.1-0.8-0.2-1.1c-0.1-0.3-0.3-0.5-0.5-0.7c-0.2-0.2-0.5-0.3-0.8-0.4c-0.3-0.1-0.7-0.1-1.2-0.2l-3-0.2l-0.3,5.5
			c0,0.2-0.1,0.4-0.2,0.6c-0.1,0.2-0.2,0.3-0.4,0.4c-0.1,0.1-0.3,0.2-0.5,0.2c-0.2,0-0.4,0.1-0.5,0.1c-0.2,0-0.4,0-0.5-0.1
			s-0.3-0.2-0.4-0.3c-0.1-0.1-0.2-0.3-0.3-0.5c-0.1-0.2-0.1-0.4-0.1-0.6L994.6,62.8z M999.5,68.5c0.5,0,0.9,0,1.4,0
			c0.5,0,0.9-0.1,1.3-0.3c0.4-0.1,0.7-0.4,1-0.7c0.3-0.3,0.4-0.7,0.4-1.3c0-0.5,0-1-0.2-1.3c-0.2-0.3-0.4-0.6-0.8-0.8
			s-0.7-0.3-1.1-0.4c-0.4-0.1-0.8-0.1-1.1-0.1l-2.9-0.2l-0.3,4.8L999.5,68.5z"/>
		<path class="st26" d="M1010.3,63.6c0-0.2,0.1-0.4,0.2-0.6s0.2-0.3,0.4-0.4c0.1-0.1,0.3-0.2,0.5-0.2c0.2,0,0.4-0.1,0.5-0.1
			c0.2,0,0.4,0,0.5,0.1c0.2,0.1,0.3,0.2,0.5,0.3s0.2,0.3,0.3,0.5s0.1,0.4,0.1,0.6l-0.7,13c0,0.2-0.1,0.4-0.2,0.6
			c-0.1,0.2-0.2,0.3-0.4,0.4c-0.1,0.1-0.3,0.2-0.5,0.2s-0.4,0.1-0.5,0.1c-0.2,0-0.4,0-0.5-0.1c-0.2-0.1-0.3-0.2-0.5-0.3
			c-0.1-0.1-0.2-0.3-0.3-0.5c-0.1-0.2-0.1-0.4-0.1-0.6L1010.3,63.6z"/>
		<path class="st26" d="M1017.2,64c0-0.2,0.1-0.4,0.1-0.5c0.1-0.2,0.2-0.3,0.3-0.4c0.1-0.1,0.3-0.2,0.5-0.3c0.2-0.1,0.4-0.1,0.6-0.1
			l5.5,0.3c0.7,0,1.3,0.2,1.9,0.4c0.6,0.2,1.1,0.5,1.5,0.9c0.4,0.4,0.7,0.8,0.9,1.3c0.2,0.5,0.3,1,0.3,1.6c0,0.4-0.1,0.8-0.3,1.2
			c-0.2,0.4-0.4,0.7-0.7,1c-0.3,0.3-0.6,0.6-1,0.8c-0.4,0.2-0.8,0.3-1.3,0.4l0,0c0.5,0.1,1,0.3,1.5,0.5c0.4,0.2,0.8,0.5,1.1,0.9
			c0.3,0.4,0.5,0.8,0.7,1.2s0.2,0.9,0.2,1.5c0,0.5-0.2,1-0.4,1.5c-0.2,0.5-0.6,0.9-1,1.3c-0.4,0.4-1,0.7-1.7,0.9
			c-0.7,0.2-1.5,0.3-2.4,0.2l-5.6-0.3c-0.2,0-0.4-0.1-0.5-0.1s-0.3-0.2-0.4-0.3c-0.1-0.1-0.2-0.3-0.3-0.5c-0.1-0.2-0.1-0.4-0.1-0.6
			L1017.2,64z M1019.3,76.6l2.8,0.2c0.6,0,1.1,0,1.6,0c0.5-0.1,0.9-0.2,1.2-0.4c0.3-0.2,0.6-0.4,0.8-0.8c0.2-0.3,0.3-0.8,0.3-1.3
			c0-0.5-0.1-1-0.2-1.4c-0.2-0.4-0.5-0.6-0.9-0.8c-0.4-0.2-0.8-0.4-1.4-0.5s-1.1-0.2-1.8-0.2l-2.1-0.1L1019.3,76.6z M1020,64.7
			l-0.3,4.9l2.7,0.2c0.4,0,0.9,0,1.3-0.1c0.4-0.1,0.8-0.2,1.1-0.4c0.3-0.2,0.6-0.4,0.7-0.7c0.2-0.3,0.3-0.7,0.3-1.1
			c0-0.5,0-0.9-0.2-1.2c-0.2-0.3-0.4-0.6-0.7-0.8c-0.3-0.2-0.6-0.3-1-0.4c-0.4-0.1-0.8-0.2-1.2-0.2L1020,64.7z"/>
		<path class="st26" d="M1032.9,64.9c0-0.2,0.1-0.4,0.2-0.6c0.1-0.2,0.2-0.3,0.4-0.4s0.3-0.2,0.5-0.2c0.2,0,0.4-0.1,0.5-0.1
			c0.2,0,0.4,0,0.5,0.1c0.2,0.1,0.3,0.2,0.5,0.3c0.1,0.1,0.2,0.3,0.3,0.5s0.1,0.4,0.1,0.6l-0.7,13c0,0.2-0.1,0.4-0.2,0.6
			c-0.1,0.2-0.2,0.3-0.4,0.4c-0.1,0.1-0.3,0.2-0.5,0.2c-0.2,0-0.4,0.1-0.5,0.1c-0.2,0-0.4,0-0.5-0.1c-0.2-0.1-0.3-0.2-0.5-0.3
			c-0.1-0.1-0.2-0.3-0.3-0.5s-0.1-0.4-0.1-0.6L1032.9,64.9z"/>
		<path class="st26" d="M1039.8,65.3c0-0.2,0.1-0.4,0.1-0.6c0.1-0.2,0.2-0.3,0.3-0.4c0.1-0.1,0.3-0.2,0.5-0.3
			c0.2-0.1,0.4-0.1,0.6-0.1l4.9,0.3c0.7,0,1.4,0.1,2.1,0.3c0.7,0.2,1.3,0.4,1.8,0.7s0.9,0.8,1.2,1.3c0.3,0.5,0.4,1.2,0.4,2
			c0,0.4-0.1,0.8-0.3,1.2c-0.2,0.4-0.4,0.7-0.7,1s-0.7,0.5-1.1,0.7c-0.4,0.2-0.9,0.3-1.5,0.4l0,0c0.5,0.1,1,0.3,1.3,0.5
			c0.3,0.2,0.6,0.4,0.8,0.7s0.4,0.6,0.4,1c0.1,0.4,0.1,0.8,0.2,1.3c0,0.4,0,0.9,0.1,1.3c0,0.4,0,0.7,0,1c0,0.4,0,0.7,0,1l0,0.1
			c0,0.2-0.1,0.4-0.2,0.6c-0.1,0.2-0.2,0.3-0.4,0.4c-0.1,0.1-0.3,0.2-0.5,0.2c-0.2,0-0.4,0.1-0.5,0.1c-0.2,0-0.3,0-0.5-0.1
			c-0.2-0.1-0.3-0.1-0.4-0.3s-0.2-0.2-0.3-0.4c-0.1-0.2-0.1-0.4-0.1-0.6c0-0.8-0.1-1.5-0.1-2.1c0-0.6,0-1.1-0.1-1.5
			s-0.1-0.8-0.2-1.1s-0.3-0.5-0.5-0.7c-0.2-0.2-0.5-0.3-0.8-0.4s-0.7-0.1-1.2-0.2l-3-0.2l-0.3,5.5c0,0.2-0.1,0.4-0.2,0.6
			c-0.1,0.2-0.2,0.3-0.4,0.4c-0.1,0.1-0.3,0.2-0.5,0.2c-0.2,0-0.4,0.1-0.5,0.1c-0.2,0-0.4,0-0.5-0.1c-0.2-0.1-0.3-0.2-0.4-0.3
			c-0.1-0.1-0.2-0.3-0.3-0.5c-0.1-0.2-0.1-0.4-0.1-0.6L1039.8,65.3z M1044.8,71c0.5,0,0.9,0,1.4,0c0.5,0,0.9-0.1,1.3-0.3
			c0.4-0.1,0.7-0.4,1-0.7c0.3-0.3,0.4-0.7,0.4-1.3c0-0.5,0-1-0.2-1.3c-0.2-0.3-0.4-0.6-0.8-0.8c-0.3-0.2-0.7-0.3-1.1-0.4
			c-0.4-0.1-0.8-0.1-1.1-0.1l-2.9-0.2l-0.3,4.8L1044.8,71z"/>
	</g>
	<g class="st3">
		<path class="st26" d="M1054.6,79.2c0-0.2,0.1-0.4,0.1-0.5c0.1-0.2,0.2-0.3,0.3-0.4c0.1-0.1,0.3-0.2,0.5-0.3
			c0.2-0.1,0.4-0.1,0.6-0.1c0.2,0,0.4,0.1,0.6,0.2c0.2,0.1,0.3,0.2,0.5,0.3c0.1,0.1,0.2,0.3,0.3,0.5c0.1,0.2,0.1,0.3,0.1,0.5
			c0,0.2-0.1,0.4-0.1,0.5c-0.1,0.2-0.2,0.3-0.3,0.4c-0.1,0.1-0.3,0.2-0.5,0.3c-0.2,0.1-0.4,0.1-0.6,0.1c-0.2,0-0.4-0.1-0.6-0.1
			c-0.2-0.1-0.3-0.2-0.5-0.3s-0.2-0.3-0.3-0.5C1054.7,79.5,1054.6,79.4,1054.6,79.2z M1055.1,70.7c0-0.2,0.1-0.4,0.1-0.5
			c0.1-0.2,0.2-0.3,0.3-0.4c0.1-0.1,0.3-0.2,0.5-0.3c0.2-0.1,0.4-0.1,0.6-0.1c0.2,0,0.4,0.1,0.6,0.2c0.2,0.1,0.3,0.2,0.5,0.3
			s0.2,0.3,0.3,0.5c0.1,0.2,0.1,0.4,0.1,0.5c0,0.2-0.1,0.4-0.1,0.5c-0.1,0.2-0.2,0.3-0.3,0.4c-0.1,0.1-0.3,0.2-0.5,0.3
			s-0.4,0.1-0.6,0.1c-0.2,0-0.4-0.1-0.6-0.1c-0.2-0.1-0.3-0.2-0.5-0.3c-0.1-0.1-0.2-0.3-0.3-0.5
			C1055.1,71.1,1055.1,70.9,1055.1,70.7z"/>
	</g>
	<path class="st2" d="M1069.3,80.4l0.9-16.4c0.3-4.5,4.1-8,8.6-7.7l22,1.2c4.5,0.3,8,4.1,7.7,8.6l-0.9,16.4c-0.3,4.5-4.1,8-8.6,7.7
		l-22-1.2C1072.5,88.7,1069,84.9,1069.3,80.4z"/>
</g>
<path class="st37" d="M818.9,203.8c-0.4-8.7,6.3-16.1,15-16.5l13.8-0.6l12.2,7.3l5.9-0.3l11.5-8.4l193.5-9l2.4,51.2l-194.5,9
	l-11.5,8.5l-5.9,0.3l-12.2-7.3l-12.8,0.6c-8.7,0.4-16.1-6.3-16.5-15L818.9,203.8z"/>
<path class="st38" d="M816.9,202c-0.4-8.7,6.3-16.1,15-16.5l13.8-0.6l12.2,7.3l5.9-0.3l11.5-8.4l193.5-9l2.4,51.2l-194.5,9
	l-11.5,8.4l-5.9,0.3l-12.2-7.3l-12.8,0.6c-8.7,0.4-16.1-6.3-16.5-15L816.9,202z"/>
<path class="st39" d="M817.8,200.9c0.2-7.8,6.3-14.1,14.1-14.5l13.8-0.6l12.2,7.3l5.9-0.3l11.4-8.4l192.5-9 M823.5,231.8
	c-2.9-2.6-4.6-6.3-4.8-10.2l-0.9-19.7"/>
<g>
	<path class="st26" d="M842.4,213.9l8.9-9.8c0.3-0.4,0.7-0.6,1.2-0.6s1,0.2,1.4,0.5l9.6,8.9c0.5,0.2,0.8,0.7,0.8,1.2s-0.2,1-0.5,1.4
		l-1,1.1c-0.8,0.7-1.9,0.8-2.8,0.1l-4.3-4l0.5,10c0,1-0.7,1.8-1.6,1.8l0,0l-1.7,0.1c-0.9,0-1.7-0.7-1.8-1.6l-0.5-10.2l-4.3,4.5
		c-0.3,0.4-0.8,0.6-1.4,0.6c-0.5,0-1-0.2-1.4-0.5l-1.1-1c-0.4-0.3-0.6-0.8-0.6-1.4C841.7,214.6,841.9,214.1,842.4,213.9z"/>
</g>
<g class="st3">
	<path class="st26" d="M900.6,215.1l3.8-9.9c0.1-0.4,0.3-0.8,0.4-1c0.1-0.3,0.3-0.5,0.5-0.7c0.2-0.2,0.4-0.3,0.6-0.4
		c0.2-0.1,0.5-0.1,0.7-0.1c0.3,0,0.5,0,0.8,0.1s0.5,0.2,0.7,0.4c0.2,0.2,0.4,0.4,0.5,0.7c0.1,0.3,0.2,0.6,0.2,1l0.6,11.7
		c0,0.2,0,0.4-0.1,0.5c-0.1,0.2-0.1,0.3-0.3,0.4c-0.1,0.1-0.2,0.2-0.4,0.3c-0.1,0.1-0.3,0.1-0.4,0.1c-0.1,0-0.3,0-0.4-0.1
		c-0.1,0-0.3-0.1-0.4-0.2c-0.1-0.1-0.2-0.2-0.3-0.4c-0.1-0.1-0.1-0.3-0.1-0.5l-0.6-11.3l-4.2,11c-0.1,0.2-0.1,0.4-0.3,0.5
		c-0.1,0.2-0.2,0.3-0.4,0.4c-0.1,0.1-0.3,0.2-0.5,0.3c-0.2,0.1-0.3,0.1-0.5,0.1c-0.3,0-0.6-0.1-0.9-0.2c-0.3-0.2-0.5-0.5-0.7-0.9
		l-5.2-10.5l0.6,11.2c0,0.2,0,0.4-0.1,0.5c-0.1,0.2-0.1,0.3-0.3,0.4c-0.1,0.1-0.2,0.2-0.4,0.3c-0.1,0.1-0.3,0.1-0.4,0.1
		s-0.3,0-0.4-0.1c-0.1,0-0.3-0.1-0.4-0.2c-0.1-0.1-0.2-0.2-0.3-0.4c-0.1-0.1-0.1-0.3-0.1-0.5l-0.6-11.7c0-0.4,0-0.8,0.1-1.1
		c0.1-0.3,0.2-0.5,0.4-0.7c0.2-0.2,0.4-0.3,0.6-0.4c0.2-0.1,0.5-0.2,0.8-0.2c0.3,0,0.5,0,0.7,0.1c0.2,0.1,0.4,0.2,0.6,0.3
		c0.2,0.1,0.4,0.4,0.6,0.6c0.2,0.3,0.4,0.6,0.5,1L900.6,215.1L900.6,215.1z"/>
</g>
<g class="st3">
	<path class="st26" d="M912.2,210.3c-0.1-1.2,0-2.3,0.3-3.3c0.3-1,0.7-1.9,1.3-2.6s1.3-1.3,2.2-1.7c0.9-0.4,1.9-0.7,3.1-0.7
		c1.2-0.1,2.3,0.1,3.2,0.4c0.9,0.3,1.7,0.8,2.4,1.5c0.7,0.7,1.2,1.5,1.5,2.4c0.4,1,0.6,2,0.6,3.2s0,2.3-0.3,3.3
		c-0.3,1-0.7,1.8-1.3,2.6c-0.6,0.7-1.3,1.3-2.2,1.7c-0.9,0.4-1.9,0.7-3.1,0.7c-1.2,0.1-2.2-0.1-3.2-0.4c-0.9-0.3-1.7-0.8-2.4-1.5
		c-0.7-0.7-1.2-1.5-1.5-2.4C912.5,212.6,912.2,211.5,912.2,210.3z M915.2,210.2c0,0.8,0.2,1.6,0.4,2.3c0.2,0.7,0.5,1.3,0.9,1.8
		c0.4,0.5,0.8,0.9,1.4,1.2c0.6,0.3,1.2,0.4,2,0.3c0.8,0,1.4-0.2,1.9-0.5c0.5-0.3,1-0.7,1.3-1.3c0.3-0.5,0.6-1.2,0.7-1.9
		c0.1-0.7,0.2-1.5,0.1-2.4c0-0.8-0.2-1.6-0.4-2.3c-0.2-0.7-0.5-1.3-0.9-1.8c-0.4-0.5-0.8-0.9-1.4-1.2c-0.6-0.3-1.2-0.4-2-0.3
		c-0.8,0-1.4,0.2-1.9,0.5c-0.5,0.3-1,0.8-1.3,1.3c-0.3,0.5-0.5,1.2-0.7,1.9C915.2,208.6,915.1,209.3,915.2,210.2z"/>
</g>
<g class="st3">
	<path class="st26" d="M934.5,214.6L934.5,214.6l3.4-12.2c0.1-0.3,0.2-0.6,0.5-0.7s0.5-0.3,0.8-0.3c0.2,0,0.3,0,0.5,0.1
		c0.2,0.1,0.3,0.1,0.4,0.2c0.1,0.1,0.2,0.2,0.3,0.4c0.1,0.1,0.1,0.3,0.1,0.5c0,0.1,0,0.1,0,0.2c0,0.1,0,0.1,0,0.2l-3.6,12
		c-0.1,0.3-0.2,0.6-0.3,0.9c-0.1,0.2-0.3,0.4-0.5,0.6c-0.2,0.2-0.4,0.3-0.7,0.3c-0.2,0.1-0.5,0.1-0.8,0.1c-0.3,0-0.6,0-0.8,0
		c-0.2,0-0.5-0.1-0.7-0.3c-0.2-0.1-0.4-0.3-0.6-0.5c-0.2-0.2-0.3-0.5-0.4-0.9l-4.8-11.5c0-0.1-0.1-0.3-0.1-0.4c0-0.2,0-0.3,0.1-0.5
		c0.1-0.2,0.2-0.3,0.3-0.4c0.1-0.1,0.3-0.2,0.4-0.3c0.2-0.1,0.3-0.1,0.5-0.1c0.3,0,0.5,0.1,0.8,0.2c0.2,0.2,0.4,0.4,0.5,0.7
		L934.5,214.6z"/>
	<path class="st26" d="M945.1,216.3c-0.2,0-0.4,0-0.5-0.1c-0.2-0.1-0.3-0.2-0.5-0.3c-0.1-0.1-0.2-0.3-0.3-0.4
		c-0.1-0.2-0.1-0.3-0.1-0.5l-0.6-12.5c0-0.2,0-0.3,0.1-0.5c0.1-0.2,0.1-0.3,0.3-0.5c0.1-0.1,0.3-0.2,0.4-0.3
		c0.2-0.1,0.3-0.1,0.5-0.1l7.7-0.4c0.2,0,0.3,0,0.5,0.1c0.1,0.1,0.2,0.1,0.3,0.2c0.1,0.1,0.2,0.2,0.2,0.3c0,0.1,0.1,0.2,0.1,0.4
		c0,0.1,0,0.3,0,0.4c0,0.1-0.1,0.2-0.2,0.3c-0.1,0.1-0.2,0.2-0.3,0.3c-0.1,0.1-0.3,0.1-0.5,0.1l-6.3,0.3l0.2,4.3l5.9-0.3
		c0.2,0,0.3,0,0.5,0.1c0.1,0.1,0.3,0.1,0.3,0.2c0.1,0.1,0.2,0.2,0.2,0.3c0,0.1,0.1,0.3,0.1,0.4c0,0.1,0,0.3,0,0.4
		c0,0.1-0.1,0.2-0.2,0.3c-0.1,0.1-0.2,0.2-0.3,0.3c-0.1,0.1-0.3,0.1-0.5,0.1l-5.9,0.3l0.2,4.6l6.5-0.3c0.2,0,0.3,0,0.5,0.1
		c0.1,0.1,0.2,0.1,0.3,0.2c0.1,0.1,0.2,0.2,0.2,0.3c0,0.1,0.1,0.3,0.1,0.4c0,0.1,0,0.3,0,0.4s-0.1,0.2-0.2,0.3
		c-0.1,0.1-0.2,0.2-0.3,0.3c-0.1,0.1-0.3,0.1-0.5,0.1L945.1,216.3z"/>
	<path class="st26" d="M956.4,201.9c0-0.2,0-0.4,0.1-0.5c0.1-0.2,0.2-0.3,0.3-0.5c0.1-0.1,0.3-0.2,0.4-0.3c0.2-0.1,0.4-0.1,0.5-0.1
		l4.8-0.2c0.7,0,1.4,0,2.1,0.1c0.7,0.1,1.3,0.3,1.8,0.5c0.5,0.3,1,0.6,1.3,1.1c0.3,0.5,0.5,1.1,0.6,1.9c0,0.4,0,0.8-0.1,1.2
		c-0.1,0.4-0.3,0.7-0.5,1c-0.2,0.3-0.6,0.6-1,0.8c-0.4,0.2-0.9,0.4-1.4,0.5l0,0c0.5,0.1,1,0.2,1.3,0.3c0.4,0.2,0.6,0.4,0.9,0.6
		c0.2,0.3,0.4,0.6,0.5,0.9c0.1,0.4,0.2,0.8,0.3,1.3c0.1,0.4,0.1,0.8,0.2,1.2c0.1,0.4,0.1,0.7,0.1,1c0,0.3,0.1,0.6,0.1,0.9l0,0.1
		c0,0.2,0,0.4-0.1,0.6c-0.1,0.2-0.2,0.3-0.3,0.4c-0.1,0.1-0.3,0.2-0.4,0.3c-0.2,0.1-0.3,0.1-0.5,0.1c-0.2,0-0.3,0-0.5,0
		c-0.2,0-0.3-0.1-0.4-0.2c-0.1-0.1-0.3-0.2-0.3-0.4c-0.1-0.1-0.2-0.3-0.2-0.5c-0.1-0.8-0.2-1.4-0.3-2c-0.1-0.6-0.2-1-0.2-1.4
		c-0.1-0.4-0.2-0.7-0.3-1c-0.1-0.3-0.3-0.5-0.5-0.6c-0.2-0.1-0.5-0.2-0.8-0.3c-0.3,0-0.7-0.1-1.2,0l-2.9,0.1l0.3,5.3
		c0,0.2,0,0.4-0.1,0.6c-0.1,0.2-0.2,0.3-0.3,0.4c-0.1,0.1-0.3,0.2-0.4,0.3c-0.2,0.1-0.3,0.1-0.5,0.1s-0.3,0-0.5-0.1
		c-0.2,0-0.3-0.1-0.5-0.2c-0.1-0.1-0.2-0.2-0.3-0.4c-0.1-0.2-0.1-0.4-0.2-0.6L956.4,201.9z M961.8,206.8c0.4,0,0.9-0.1,1.3-0.1
		c0.4-0.1,0.8-0.2,1.2-0.4c0.4-0.2,0.6-0.4,0.8-0.8c0.2-0.3,0.3-0.8,0.3-1.3c0-0.5-0.1-0.9-0.4-1.2c-0.2-0.3-0.5-0.5-0.8-0.7
		s-0.7-0.2-1.1-0.2c-0.4,0-0.8,0-1.1,0l-2.8,0.1l0.2,4.7L961.8,206.8z"/>
</g>
<g class="st3">
	<path class="st26" d="M990.7,212.4c0.1,0.1,0.1,0.3,0.1,0.4c0,0.2,0,0.4-0.1,0.5c-0.1,0.2-0.2,0.3-0.3,0.4
		c-0.1,0.1-0.3,0.2-0.4,0.3c-0.2,0.1-0.3,0.1-0.5,0.1c-0.3,0-0.5,0-0.7-0.2c-0.2-0.1-0.4-0.4-0.5-0.7l-1.2-2.8l-6.8,0.3l-0.9,2.9
		c-0.1,0.3-0.2,0.6-0.4,0.7s-0.4,0.2-0.7,0.2c-0.2,0-0.3,0-0.5-0.1c-0.2,0-0.3-0.1-0.5-0.2c-0.1-0.1-0.2-0.2-0.3-0.4
		c-0.1-0.1-0.1-0.3-0.1-0.5c0-0.1,0-0.1,0-0.2c0-0.1,0-0.2,0.1-0.2l3.9-11.3c0.2-0.5,0.3-0.9,0.5-1.2c0.2-0.3,0.3-0.6,0.5-0.8
		c0.2-0.2,0.4-0.3,0.6-0.4c0.2-0.1,0.5-0.1,0.8-0.1c0.3,0,0.6,0,0.8,0.1c0.2,0.1,0.5,0.2,0.7,0.4c0.2,0.2,0.4,0.4,0.6,0.7
		c0.2,0.3,0.4,0.7,0.6,1.2L990.7,212.4z M983.1,201.3l-2.4,7.7l5.6-0.3L983.1,201.3L983.1,201.3z"/>
	<path class="st26" d="M992.7,200.1c0-0.2,0-0.4,0.1-0.5c0.1-0.2,0.2-0.3,0.3-0.5c0.1-0.1,0.3-0.2,0.4-0.3c0.2-0.1,0.3-0.1,0.5-0.1
		l4.8-0.2c0.7,0,1.4,0,2.1,0.1c0.7,0.1,1.3,0.3,1.8,0.5c0.5,0.3,1,0.6,1.3,1.1c0.3,0.5,0.5,1.1,0.6,1.9c0,0.4,0,0.8-0.1,1.2
		c-0.1,0.4-0.3,0.7-0.5,1c-0.2,0.3-0.6,0.6-1,0.8c-0.4,0.2-0.9,0.4-1.4,0.5l0,0c0.5,0.1,1,0.2,1.3,0.3c0.4,0.2,0.6,0.4,0.9,0.6
		s0.4,0.6,0.5,0.9c0.1,0.4,0.2,0.8,0.3,1.3c0.1,0.4,0.1,0.8,0.2,1.2c0.1,0.4,0.1,0.7,0.1,1c0,0.3,0.1,0.6,0.1,0.9l0,0.1
		c0,0.2,0,0.4-0.1,0.6c-0.1,0.2-0.2,0.3-0.3,0.4c-0.1,0.1-0.3,0.2-0.4,0.3s-0.3,0.1-0.5,0.1c-0.2,0-0.3,0-0.5,0
		c-0.2,0-0.3-0.1-0.4-0.2c-0.1-0.1-0.3-0.2-0.3-0.4c-0.1-0.1-0.2-0.3-0.2-0.5c-0.1-0.8-0.2-1.4-0.3-2c-0.1-0.6-0.2-1-0.2-1.4
		c-0.1-0.4-0.2-0.7-0.3-1c-0.1-0.3-0.3-0.5-0.5-0.6c-0.2-0.1-0.5-0.2-0.8-0.3c-0.3,0-0.7-0.1-1.2,0l-2.9,0.1l0.3,5.3
		c0,0.2,0,0.4-0.1,0.6c-0.1,0.2-0.2,0.3-0.3,0.4c-0.1,0.1-0.3,0.2-0.4,0.3c-0.2,0.1-0.3,0.1-0.5,0.1c-0.2,0-0.3,0-0.5-0.1
		c-0.2,0-0.3-0.1-0.5-0.2c-0.1-0.1-0.2-0.2-0.3-0.4c-0.1-0.2-0.1-0.4-0.2-0.6L992.7,200.1z M998,205c0.4,0,0.9-0.1,1.3-0.1
		c0.4-0.1,0.8-0.2,1.2-0.4c0.4-0.2,0.6-0.4,0.8-0.8c0.2-0.3,0.3-0.8,0.3-1.3c0-0.5-0.1-0.9-0.4-1.2c-0.2-0.3-0.5-0.5-0.8-0.7
		c-0.3-0.1-0.7-0.2-1.1-0.2c-0.4,0-0.8,0-1.1,0l-2.8,0.1l0.2,4.7L998,205z"/>
	<path class="st26" d="M1007.7,199.3c0-0.2,0-0.4,0.1-0.5c0.1-0.2,0.2-0.3,0.3-0.5c0.1-0.1,0.3-0.2,0.4-0.3c0.2-0.1,0.4-0.1,0.5-0.1
		l4.8-0.2c0.7,0,1.4,0,2.1,0.1c0.7,0.1,1.3,0.3,1.8,0.5c0.5,0.3,1,0.6,1.3,1.1c0.3,0.5,0.5,1.1,0.6,1.9c0,0.4,0,0.8-0.1,1.2
		s-0.3,0.7-0.5,1c-0.2,0.3-0.6,0.6-1,0.8c-0.4,0.2-0.9,0.4-1.4,0.5l0,0c0.5,0.1,1,0.2,1.3,0.3c0.4,0.2,0.6,0.4,0.9,0.6
		c0.2,0.3,0.4,0.6,0.5,0.9c0.1,0.4,0.2,0.8,0.3,1.3c0.1,0.4,0.1,0.8,0.2,1.2c0.1,0.4,0.1,0.7,0.1,1c0,0.3,0.1,0.6,0.1,0.9l0,0.1
		c0,0.2,0,0.4-0.1,0.6s-0.2,0.3-0.3,0.4c-0.1,0.1-0.3,0.2-0.4,0.3c-0.2,0.1-0.3,0.1-0.5,0.1c-0.2,0-0.3,0-0.5,0
		c-0.2,0-0.3-0.1-0.4-0.2c-0.1-0.1-0.3-0.2-0.3-0.4c-0.1-0.1-0.2-0.3-0.2-0.5c-0.1-0.8-0.2-1.4-0.3-2s-0.2-1-0.2-1.4
		c-0.1-0.4-0.2-0.7-0.3-1c-0.1-0.3-0.3-0.5-0.5-0.6c-0.2-0.1-0.5-0.2-0.8-0.3c-0.3,0-0.7-0.1-1.2,0l-2.9,0.1l0.3,5.3
		c0,0.2,0,0.4-0.1,0.6c-0.1,0.2-0.2,0.3-0.3,0.4c-0.1,0.1-0.3,0.2-0.4,0.3c-0.2,0.1-0.3,0.1-0.5,0.1c-0.2,0-0.3,0-0.5-0.1
		c-0.2,0-0.3-0.1-0.5-0.2c-0.1-0.1-0.2-0.2-0.3-0.4c-0.1-0.2-0.1-0.4-0.2-0.6L1007.7,199.3z M1013.1,204.3c0.4,0,0.9-0.1,1.3-0.1
		c0.4-0.1,0.8-0.2,1.2-0.4c0.4-0.2,0.6-0.4,0.8-0.8c0.2-0.3,0.3-0.8,0.3-1.3c0-0.5-0.1-0.9-0.4-1.2c-0.2-0.3-0.5-0.5-0.8-0.7
		c-0.3-0.1-0.7-0.2-1.1-0.2c-0.4,0-0.8,0-1.1,0l-2.8,0.1l0.2,4.7L1013.1,204.3z"/>
	<path class="st26" d="M1022.8,198.5c0-0.2,0-0.4,0.1-0.6c0.1-0.2,0.2-0.3,0.3-0.4c0.1-0.1,0.3-0.2,0.4-0.3c0.2-0.1,0.3-0.1,0.5-0.1
		c0.2,0,0.4,0,0.5,0.1c0.2,0,0.3,0.1,0.5,0.2c0.1,0.1,0.3,0.2,0.3,0.4c0.1,0.2,0.1,0.4,0.2,0.6l0.6,12.5c0,0.2,0,0.4-0.1,0.6
		c-0.1,0.2-0.2,0.3-0.3,0.4c-0.1,0.1-0.3,0.2-0.4,0.3c-0.2,0.1-0.3,0.1-0.5,0.1c-0.2,0-0.4,0-0.5-0.1c-0.2,0-0.3-0.1-0.5-0.2
		c-0.1-0.1-0.2-0.2-0.3-0.4c-0.1-0.2-0.1-0.4-0.2-0.6L1022.8,198.5z"/>
</g>
<g class="st3">
	<path class="st26" d="M1029.5,198.2c0-0.2,0-0.4,0.1-0.5c0.1-0.2,0.2-0.3,0.3-0.4c0.1-0.1,0.3-0.2,0.4-0.3c0.2-0.1,0.3-0.1,0.5-0.1
		l5.3-0.3c0.7,0,1.3,0,1.9,0.2c0.6,0.2,1.1,0.4,1.5,0.7c0.4,0.3,0.8,0.7,1,1.2c0.2,0.5,0.4,1,0.4,1.5c0,0.4,0,0.8-0.2,1.2
		c-0.1,0.4-0.3,0.7-0.6,1.1c-0.2,0.3-0.5,0.6-0.9,0.8c-0.3,0.2-0.7,0.4-1.2,0.5l0,0c0.5,0.1,1,0.2,1.5,0.4c0.4,0.2,0.8,0.4,1.1,0.7
		c0.3,0.3,0.6,0.7,0.8,1.1c0.2,0.4,0.3,0.9,0.3,1.4c0,0.5,0,1-0.2,1.5c-0.2,0.5-0.4,1-0.8,1.4c-0.4,0.4-0.9,0.8-1.5,1
		c-0.6,0.3-1.4,0.4-2.3,0.5l-5.4,0.3c-0.2,0-0.4,0-0.5-0.1c-0.2-0.1-0.3-0.1-0.5-0.3c-0.1-0.1-0.2-0.3-0.3-0.4
		c-0.1-0.2-0.1-0.3-0.1-0.5L1029.5,198.2z M1032.3,198.6l0.2,4.7l2.6-0.1c0.4,0,0.8-0.1,1.2-0.2c0.4-0.1,0.7-0.3,1-0.5
		c0.3-0.2,0.5-0.5,0.6-0.8c0.2-0.3,0.2-0.7,0.2-1.1c0-0.5-0.1-0.8-0.3-1.1s-0.4-0.5-0.7-0.7c-0.3-0.2-0.6-0.3-1-0.3
		c-0.4,0-0.8-0.1-1.2,0L1032.3,198.6z M1032.8,210l2.7-0.1c0.6,0,1.1-0.1,1.5-0.2s0.8-0.3,1.1-0.5c0.3-0.2,0.5-0.5,0.7-0.8
		c0.1-0.3,0.2-0.8,0.2-1.3c0-0.5-0.2-1-0.4-1.3c-0.2-0.3-0.5-0.6-0.9-0.7s-0.8-0.3-1.4-0.3c-0.5,0-1.1,0-1.7,0l-2.1,0.1L1032.8,210z
		"/>
</g>
<g class="st3">
	<path class="st26" d="M1057.5,209c0.1,0.1,0.1,0.3,0.1,0.4c0,0.2,0,0.4-0.1,0.5c-0.1,0.2-0.2,0.3-0.3,0.4c-0.1,0.1-0.3,0.2-0.4,0.3
		c-0.2,0.1-0.3,0.1-0.5,0.1c-0.3,0-0.5,0-0.7-0.2c-0.2-0.1-0.4-0.4-0.5-0.7l-1.2-2.8l-6.8,0.3l-0.9,2.9c-0.1,0.3-0.2,0.6-0.4,0.7
		s-0.4,0.2-0.7,0.2c-0.2,0-0.3,0-0.5-0.1c-0.2,0-0.3-0.1-0.5-0.2c-0.1-0.1-0.2-0.2-0.3-0.4c-0.1-0.1-0.1-0.3-0.1-0.5
		c0-0.1,0-0.1,0-0.2c0-0.1,0-0.2,0.1-0.2l3.9-11.3c0.2-0.5,0.3-0.9,0.5-1.2c0.2-0.3,0.3-0.6,0.5-0.8c0.2-0.2,0.4-0.3,0.6-0.4
		c0.2-0.1,0.5-0.1,0.8-0.1c0.3,0,0.6,0,0.8,0.1c0.2,0.1,0.5,0.2,0.7,0.4c0.2,0.2,0.4,0.4,0.6,0.7c0.2,0.3,0.4,0.7,0.6,1.2
		L1057.5,209z M1049.9,198l-2.4,7.7l5.6-0.3L1049.9,198L1049.9,198z"/>
</g>
<g>
	<path class="st0" d="M1038.3,289.2l76.3,8.2l-7.2,66.4l-76.3-8.2l1.4-13.2c2.9-26.5-23.5,19-19.1-22.2s20.5,8.9,23.4-17.6
		L1038.3,289.2z"/>
	<path class="st1" d="M1035.9,286.2l76.3,8.2l-7.2,66.5l-76.3-8.2l1.4-13.2c2.9-26.5-23.5,19-19.1-22.2s20.5,8.9,23.4-17.6
		L1035.9,286.2z"/>
	<path class="st2" d="M1029.9,352.8c-0.6-0.2-1.1-0.8-1-1.4l1.8-15.9c0.1-0.7,0.8-1.2,1.5-1.1s1.2,0.7,1.1,1.4l-1.7,15.9
		c-0.1,0.7-0.7,1.3-1.5,1.2L1029.9,352.8z M1012.2,333.4c-0.5-0.1-0.9-0.6-1-1.1c-1.7-10.1-0.6-20.5,3.3-30c0.3-0.7,1.1-0.9,1.8-0.6
		c0.6,0.3,0.9,1,0.7,1.6c-3.6,9-4.7,18.9-3.1,28.5c0.1,0.7-0.4,1.4-1.1,1.5C1012.6,333.4,1012.4,333.4,1012.2,333.4L1012.2,333.4z
		 M1034.7,308.9c-0.6-0.2-1.1-0.8-1-1.4l2.1-19.6c0-0.1,0-0.2,0-0.3s0-0.2,0.1-0.3l0.1-1l1.1,0.1h0.2l73.7,8c0.7,0,1.3,0.7,1.3,1.4
		c0,0.7-0.7,1.3-1.4,1.3c-0.1,0-0.1,0-0.1,0l-72.1-7.8h-0.2l-2,18.6c-0.1,0.7-0.7,1.3-1.5,1.2L1034.7,308.9z"/>
	<path class="st2" d="M1044.3,332.8l2.3-21.3c0.6-5.9,5.9-10.1,11.8-9.5l28.6,3.1c5.9,0.6,10.1,5.9,9.5,11.8l-2.3,21.3
		c-0.6,5.9-5.9,10.1-11.8,9.5l-28.6-3.1C1047.9,344,1043.7,338.7,1044.3,332.8z"/>
	<g class="st3">
		<path class="st4" d="M1076.8,315.8c0.3,0.2,0.4,0.3,0.5,0.6s0.1,0.5,0.1,0.7c0,0.2-0.1,0.4-0.2,0.6c-0.1,0.2-0.2,0.3-0.3,0.5
			c-0.1,0.1-0.3,0.2-0.5,0.3c-0.2,0.1-0.4,0.1-0.6,0.1c-0.1,0-0.3,0-0.4-0.1c-0.6-0.3-1.3-0.6-1.9-0.8c-0.6-0.2-1.2-0.4-1.7-0.4
			c-0.8-0.1-1.5,0-2.1,0.1s-1.2,0.4-1.6,0.7c-0.5,0.3-0.9,0.7-1.2,1.2c-0.3,0.5-0.6,1-0.8,1.6c-0.2,0.6-0.4,1.2-0.5,1.8
			c-0.1,0.6-0.2,1.3-0.3,2l0,0c0.3-0.5,0.7-0.9,1.1-1.2c0.4-0.3,0.9-0.6,1.4-0.8c0.5-0.2,1-0.3,1.6-0.4c0.6-0.1,1.1-0.1,1.7,0
			c1.1,0.1,2,0.4,2.8,0.8c0.8,0.4,1.5,1,2.1,1.7c0.6,0.7,1,1.5,1.2,2.4c0.2,0.9,0.3,1.9,0.2,3c-0.1,1.1-0.4,2.1-0.9,3
			s-1.1,1.6-1.8,2.2c-0.8,0.6-1.6,1-2.7,1.3c-1,0.3-2.1,0.3-3.4,0.2c-1.1-0.1-2-0.3-2.8-0.7c-0.8-0.3-1.5-0.8-2.1-1.3
			c-0.6-0.5-1.1-1.1-1.5-1.8c-0.4-0.7-0.7-1.4-0.9-2.2c-0.2-0.8-0.3-1.7-0.4-2.6c0-0.9,0-1.8,0.1-2.8c0.1-1.1,0.3-2.1,0.5-3.1
			c0.2-1,0.5-2,0.9-2.8c0.4-0.9,0.8-1.7,1.4-2.4c0.6-0.7,1.2-1.3,2-1.8c0.8-0.5,1.7-0.8,2.7-1c1-0.2,2.2-0.3,3.5-0.1
			c0.8,0.1,1.7,0.3,2.5,0.5S1076.1,315.3,1076.8,315.8z M1068.8,334c0.7,0.1,1.3,0,1.8-0.1c0.5-0.2,1-0.4,1.4-0.8
			c0.4-0.4,0.7-0.8,1-1.3c0.2-0.5,0.4-1.1,0.5-1.8c0.1-0.7,0.1-1.3,0-1.9c-0.1-0.6-0.3-1.1-0.5-1.6c-0.3-0.5-0.6-0.8-1.1-1.1
			c-0.5-0.3-1-0.5-1.7-0.5c-0.7-0.1-1.4,0-1.9,0.2c-0.6,0.2-1.1,0.5-1.5,0.8c-0.4,0.4-0.8,0.9-1,1.4c-0.3,0.6-0.4,1.2-0.5,1.9
			c-0.1,0.6,0,1.2,0.1,1.8c0.1,0.6,0.4,1.1,0.7,1.5c0.3,0.4,0.7,0.8,1.2,1.1C1067.7,333.7,1068.2,333.9,1068.8,334z"/>
	</g>
</g>
</svg>
