<?xml version="1.0" encoding="utf-8"?>
<!-- Generator: Adobe Illustrator 28.1.0, SVG Export Plug-In . SVG Version: 6.00 Build 0)  -->
<svg version="1.1" id="Capa_1" xmlns="http://www.w3.org/2000/svg" xmlns:xlink="http://www.w3.org/1999/xlink" x="0px" y="0px"
	 viewBox="0 0 519.8 576.4" style="enable-background:new 0 0 519.8 576.4;" xml:space="preserve">
<style type="text/css">
	.st0{clip-path:url(#SVGID_00000139294822955061612160000014111330005430104731_);}
	.st1{opacity:0.15;fill:#E4F4F8;enable-background:new    ;}
	.st2{fill:#CEBCA5;}
	.st3{clip-path:url(#SVGID_00000083080417778045192920000008169793888316881793_);fill:#CEBCA5;}
	.st4{clip-path:url(#SVGID_00000009549131002601939300000009321090926090973865_);fill:#CEBCA5;}
	.st5{clip-path:url(#SVGID_00000183961318374929007420000004485855372020997538_);fill:#D4C7B9;}
	.st6{clip-path:url(#SVGID_00000078724266519702995680000010781343841458759859_);fill:#A39482;}
	.st7{clip-path:url(#SVGID_00000153693798472825072720000002612811218673459872_);fill:#610100;}
	.st8{clip-path:url(#SVGID_00000137814873951677383110000003198029587356240049_);fill:#CEBCA5;}
	.st9{clip-path:url(#SVGID_00000003798963446141384370000001808701172310284682_);fill:#9B9388;}
	.st10{fill:none;}
	.st11{fill:#857D74;}
	.st12{clip-path:url(#SVGID_00000124843239243647263290000014353818122404282251_);fill:#CEBCA5;}
	.st13{clip-path:url(#SVGID_00000010305874984049691300000010420956861477527954_);fill:#9B9388;}
	.st14{clip-path:url(#SVGID_00000057840902177084014430000017635433039725625738_);fill:#00BFE4;}
	.st15{clip-path:url(#SVGID_00000114073119182915955550000017582263689237661624_);fill:#00687D;}
	.st16{clip-path:url(#SVGID_00000148622862471557013330000004696069574477653136_);fill:#CEBCA5;}
	.st17{clip-path:url(#SVGID_00000163050562846949620350000001094484475379727274_);fill:#857D74;}
	.st18{clip-path:url(#SVGID_00000124147483148522963490000002407577813248346783_);fill:#DB853B;}
	.st19{clip-path:url(#SVGID_00000126285965807579239310000013640846064079047576_);fill:#BD8132;}
	.st20{clip-path:url(#SVGID_00000066475599451279081120000008277726717056247442_);fill:#231F20;}
	.st21{clip-path:url(#SVGID_00000176030653372805049830000004399028839846655377_);fill:#231F20;}
	.st22{clip-path:url(#SVGID_00000087392802995200061080000009416891651919994767_);fill:#231F20;}
	.st23{clip-path:url(#SVGID_00000029752452594895075620000006535389132502201765_);fill:#231F20;}
	.st24{clip-path:url(#SVGID_00000162335270880781210230000003522757199542470071_);fill:#1E2F39;}
	.st25{clip-path:url(#SVGID_00000164496891576256488570000005861507460994656924_);fill:#1E2F39;}
	
		.st26{clip-path:url(#SVGID_00000173151370457045375900000018354395870475725193_);fill:none;stroke:#231F20;stroke-width:1.5446;stroke-miterlimit:10;}
	.st27{clip-path:url(#SVGID_00000101063042670587042970000000022450720063370628_);fill:#00BFE4;}
	.st28{clip-path:url(#SVGID_00000145027913079491263340000003417756137772480930_);}
	.st29{fill:#00728A;}
	.st30{clip-path:url(#SVGID_00000067230948718276560980000016561954969331351173_);fill:#FFA847;}
	.st31{clip-path:url(#SVGID_00000060004048025384630360000014518786868303241359_);fill:#FFA847;}
	.st32{clip-path:url(#SVGID_00000153692610043809124930000015466521165747834547_);fill:#610100;}
	.st33{clip-path:url(#SVGID_00000075147705462652312310000007094140567196500152_);fill:#FFA847;}
	.st34{clip-path:url(#SVGID_00000039854711868797083530000004233987144839479684_);fill:#610100;}
	.st35{clip-path:url(#SVGID_00000023967750868311319930000005209179253559846528_);fill:#CEBCA5;}
	.st36{clip-path:url(#SVGID_00000099644623164604440880000007961006992265718704_);fill:#9B9288;}
	.st37{clip-path:url(#SVGID_00000075871085037844644350000017717906757615978631_);fill:#9B9388;}
	.st38{clip-path:url(#SVGID_00000164489938302313950260000002333611829547821216_);}
	.st39{fill:#A39482;}
	.st40{clip-path:url(#SVGID_00000097493003050012039520000005016066878783977652_);fill:#CEBCA5;}
	.st41{fill:#CCCCCC;}
	.st42{fill:#ADB7BA;}
	.st43{fill:#8C9496;}
	.st44{fill:#FFFFFF;}
	.st45{fill:#6E6E6E;}
	.st46{fill:#98D2E0;}
	.st47{fill:#BABABA;}
	.st48{fill:#9B9288;}
</style>
<g>
	<g>
		<defs>
			<circle id="SVGID_1_" cx="929.6" cy="802.5" r="92.6"/>
		</defs>
		<clipPath id="SVGID_00000174570066231062838070000008221266281951894424_">
			<use xlink:href="#SVGID_1_"  style="overflow:visible;"/>
		</clipPath>
		<g style="clip-path:url(#SVGID_00000174570066231062838070000008221266281951894424_);">
			<circle class="st1" cx="522.5" cy="867.8" r="308.9"/>
		</g>
	</g>
</g>
<g>
	<path class="st2" d="M310.2,393.8c1.8,1.3,41.2,51.1,82.6,25.8c0,0,1.8-9.1,7.6-11.7c0,0,6.4-3,11.3,0.1c0,0,13.6-9.7,18.6-6.3
		c1.8,1.3,11.6,5,11.1,15.8l-4.4,6.8c0,0,8.1,1.6,8.3,11c0,0,0.6,9.8-2.8,16.8c-1.4,2.8-10.9,10.8-21.4,8.4c0,0-9.8-0.4-10.9-6.4
		c0,0-13.8,24.2-26,24c-12.3-0.2-41.1,1.6-65.9-15.1c-24.8-16.7-41.9-31.5-48.7-42.8c-6.8-11.3-12.5-30.4-12.5-30.4l2.5-14"/>
	<g>
		<defs>
			<polygon id="SVGID_00000037691940572936013820000005738819839177752202_" points="164.7,526.1 390.4,445.1 401.4,-136.2 
				48.6,-118.2 0,37.4 			"/>
		</defs>
		<clipPath id="SVGID_00000151521620068480401380000013370990847394995635_">
			<use xlink:href="#SVGID_00000037691940572936013820000005738819839177752202_"  style="overflow:visible;"/>
		</clipPath>
		<path style="clip-path:url(#SVGID_00000151521620068480401380000013370990847394995635_);fill:#CEBCA5;" d="M191.7,49.2
			c-1.4-4.1-22.1-40.1-55.9-40.1c0,0-14.5,6.2-2.1,17.3c0,0-18-9.7-25.6,0c0,0-11.7,12.4,6.2,20c0,0,15.9,5.5,17.3,6.2
			s-28.3,4.1-20,21.4c0,0,12.4,9,30.4,4.8l29.7-10.4c0,0,9.7-15.2,23.5-13.1"/>
	</g>
	<g>
		<defs>
			<polygon id="SVGID_00000059997219154491349250000013455523528508300168_" points="164.7,526.1 390.4,445.1 401.4,-136.2 
				48.6,-118.2 0,37.4 			"/>
		</defs>
		<clipPath id="SVGID_00000004510792340319710730000008014836585554926001_">
			<use xlink:href="#SVGID_00000059997219154491349250000013455523528508300168_"  style="overflow:visible;"/>
		</clipPath>
		<path style="clip-path:url(#SVGID_00000004510792340319710730000008014836585554926001_);fill:#CEBCA5;" d="M191.7,49.2
			c-1.4-4.1-22.1-40.1-55.9-40.1c0,0-14.5,6.2-2.1,17.3c0,0-18-9.7-25.6,0c0,0-11.7,12.4,6.2,20c0,0,15.9,5.5,17.3,6.2
			s-28.3,4.1-20,21.4c0,0,12.4,9,30.4,4.8l29.7-10.4c0,0,9.7-15.2,23.5-13.1"/>
	</g>
	<g>
		<defs>
			<polygon id="SVGID_00000013190415020679880430000005971662240765477531_" points="164.7,526.1 390.4,445.1 401.4,-136.2 
				48.6,-118.2 0,37.4 			"/>
		</defs>
		<clipPath id="SVGID_00000098900756170280979860000013295842701576833938_">
			<use xlink:href="#SVGID_00000013190415020679880430000005971662240765477531_"  style="overflow:visible;"/>
		</clipPath>
		<path style="clip-path:url(#SVGID_00000098900756170280979860000013295842701576833938_);fill:#D4C7B9;" d="M129.4,51.8
			c0.9-0.4,1.4-0.7,1.4-0.7c-22.7-4.6-23-19.1-22.1-25.4c-0.2,0.2-0.4,0.4-0.6,0.7c0,0-11.7,12.4,6.2,20
			C114.4,46.4,124.7,50,129.4,51.8z"/>
	</g>
	<g>
		<defs>
			<polygon id="SVGID_00000177454356351094103530000015797108986504454321_" points="164.7,526.1 390.4,445.1 401.4,-136.2 
				48.6,-118.2 0,37.4 			"/>
		</defs>
		<clipPath id="SVGID_00000126303768240748465600000016546137264442323085_">
			<use xlink:href="#SVGID_00000177454356351094103530000015797108986504454321_"  style="overflow:visible;"/>
		</clipPath>
		<path style="clip-path:url(#SVGID_00000126303768240748465600000016546137264442323085_);fill:#A39482;" d="M174.4,65
			c-1.7,0.7-3.6,1.5-5.8,2.5c-39.9,17.6-52.7,1.9-56-5.6c-2.5,3-3.5,7-1,12.2c0,0,12.4,9,30.4,4.8l29.7-10.4
			C171.7,68.5,172.7,67,174.4,65z"/>
	</g>
	<g>
		<defs>
			<polygon id="SVGID_00000095320606887316034010000009543268981186240169_" points="164.7,526.1 390.4,445.1 401.4,-136.2 
				48.6,-118.2 0,37.4 			"/>
		</defs>
		<clipPath id="SVGID_00000176721829219661948150000000785376645655329200_">
			<use xlink:href="#SVGID_00000095320606887316034010000009543268981186240169_"  style="overflow:visible;"/>
		</clipPath>
		<path style="clip-path:url(#SVGID_00000176721829219661948150000000785376645655329200_);fill:#610100;" d="M213.2,428.7
			c0,0,13.1-27.6,11.7-25.6c-1.4,2.1-11.3-24.1-11.3-24.1l-23.9,58"/>
	</g>
	<g>
		<defs>
			<polygon id="SVGID_00000055677836531259199170000010260994172996114857_" points="164.7,526.1 390.4,445.1 401.4,-136.2 
				48.6,-118.2 0,37.4 			"/>
		</defs>
		<clipPath id="SVGID_00000025418335584022655230000002529661180877235349_">
			<use xlink:href="#SVGID_00000055677836531259199170000010260994172996114857_"  style="overflow:visible;"/>
		</clipPath>
		<path style="clip-path:url(#SVGID_00000025418335584022655230000002529661180877235349_);fill:#CEBCA5;" d="M476.1,541.4
			c0.7,2.1,2.1,65.6,50.4,70.4c0,0,6.9-6.2,13.1-4.8c0,0,6.9,1.4,9,6.9c0,0,16.7,0.4,18.6,6.2c0.7,2.1,6.2,11-0.7,19.3l-7.6,2.8
			c0,0,5.5,6.2,0,13.8c0,0-5.4,8.2-12.4,11.7c-2.8,1.4-15.2,2.1-22.1-6.2c0,0-7.6-6.2-4.8-11.7c0,0-25.6,11-35.2,3.5
			s-33.8-23.5-43.5-51.8s-14.5-50.4-13.1-63.5s8.3-31.8,8.3-31.8l10.4-9.7"/>
	</g>
	<g>
		<defs>
			<polygon id="SVGID_00000120543293435959442220000017953469218184494760_" points="164.7,526.1 390.4,445.1 401.4,-136.2 
				48.6,-118.2 0,37.4 			"/>
		</defs>
		<clipPath id="SVGID_00000003810650211397312310000000158651368586352061_">
			<use xlink:href="#SVGID_00000120543293435959442220000017953469218184494760_"  style="overflow:visible;"/>
		</clipPath>
		<path style="clip-path:url(#SVGID_00000003810650211397312310000000158651368586352061_);fill:#9B9388;" d="M397.1,483.8
			c0,0,12.4,4.9,17.3-3.8c0,0,1.1,13.5-22.7,7"/>
	</g>
	<polygon class="st10" points="164.7,526.1 390.4,445.1 401.4,-136.2 48.6,-118.2 0,37.4 	"/>
	<path class="st11" d="M323.9,407.2c-8.1-6.9-13.1-13-13.7-13.6l-31.6-11.1l-10.6,23c0,0,4.8,11,9.6,19.6c4.7,8.6,6.5,6.3,8.2,8.5
		l40.4,14.5C326.2,448.3,318.6,424.6,323.9,407.2z"/>
	<g>
		<defs>
			<polygon id="SVGID_00000176755231753550207550000002571264360050440880_" points="164.7,526.1 390.4,445.1 401.4,-136.2 
				48.6,-118.2 0,37.4 			"/>
		</defs>
		<clipPath id="SVGID_00000040558684659969727160000016683677766242233222_">
			<use xlink:href="#SVGID_00000176755231753550207550000002571264360050440880_"  style="overflow:visible;"/>
		</clipPath>
		<path style="clip-path:url(#SVGID_00000040558684659969727160000016683677766242233222_);fill:#CEBCA5;" d="M271.9,301.5
			c0,0,17.4,5.7,18,21.4c0,0,14.5,62.2,16.6,66.3s-22,39.8-7.6,47c1.4,0.7,2.8,6.9,2.8,6.9s-42.1,5.5-61.5-12.4
			c0,0-0.7-35.9-8.3-52.5s0-60.8,2.8-67C237.5,304.9,260.9,307,271.9,301.5z"/>
	</g>
	<g>
		<defs>
			<polygon id="SVGID_00000150809882140792220560000004265528418931474576_" points="164.7,526.1 390.4,445.1 401.4,-136.2 
				48.6,-118.2 0,37.4 			"/>
		</defs>
		<clipPath id="SVGID_00000053540776431070693490000004096828937175681428_">
			<use xlink:href="#SVGID_00000150809882140792220560000004265528418931474576_"  style="overflow:visible;"/>
		</clipPath>
		<path style="clip-path:url(#SVGID_00000053540776431070693490000004096828937175681428_);fill:#9B9388;" d="M252.7,428.5
			c0,0-6.9-36.6-2.1-45.6s-13.8-6.9-13.8-6.9l-9.7,9c0,0,18,27.6,12.4,40.7C239.6,425.7,243.7,428.5,252.7,428.5z"/>
	</g>
	<g>
		<defs>
			<polygon id="SVGID_00000021832327682119480500000007969471140100260772_" points="164.7,526.1 390.4,445.1 401.4,-136.2 
				48.6,-118.2 0,37.4 			"/>
		</defs>
		<clipPath id="SVGID_00000101100381300723083350000004527469564519870397_">
			<use xlink:href="#SVGID_00000021832327682119480500000007969471140100260772_"  style="overflow:visible;"/>
		</clipPath>
		<path style="clip-path:url(#SVGID_00000101100381300723083350000004527469564519870397_);fill:#00BFE4;" d="M173.3,80.4
			c0-2.1-7.6-10.4-0.7-18.6c0,0,3.5-6.9,11.7-9c0,0,19.7-8.9,18.8,7.3"/>
	</g>
	<g>
		<defs>
			<polygon id="SVGID_00000102538075251730962980000018385959623877897395_" points="164.7,526.1 390.4,445.1 401.4,-136.2 
				48.6,-118.2 0,37.4 			"/>
		</defs>
		<clipPath id="SVGID_00000148660221944853054160000014309861349742078895_">
			<use xlink:href="#SVGID_00000102538075251730962980000018385959623877897395_"  style="overflow:visible;"/>
		</clipPath>
		<path style="clip-path:url(#SVGID_00000148660221944853054160000014309861349742078895_);fill:#00687D;" d="M181.7,58.1
			c0,0,1.1-2.6,3.4-5.6c-0.5,0.2-0.7,0.3-0.7,0.3c-8.3,2.1-11.7,9-11.7,9c-6.9,8.3,0.7,16.6,0.7,18.6l6.1-4.2
			C178,71.2,177.4,64.7,181.7,58.1z"/>
	</g>
	<g>
		<defs>
			<polygon id="SVGID_00000142164208397300319970000008431082614636799163_" points="164.7,526.1 390.4,445.1 401.4,-136.2 
				48.6,-118.2 0,37.4 			"/>
		</defs>
		<clipPath id="SVGID_00000071545959666965146910000005836232652051430792_">
			<use xlink:href="#SVGID_00000142164208397300319970000008431082614636799163_"  style="overflow:visible;"/>
		</clipPath>
		<path style="clip-path:url(#SVGID_00000071545959666965146910000005836232652051430792_);fill:#CEBCA5;" d="M307.8,107.2
			c0,0,0.8-62.6-104.6-47.1c0,0-62.7,23.9-69.4,76.1c-0.1,1-0.2,1.9-0.3,2.9c0,0,1.7,13.7,11.4,8.1c0,0-2.1,26.2,9,29.7
			c0,0,11,4.1,15.9-5.5l5.5-5.5c0,0-4.1,24.9,9,29c0,0,8.3,5.5,11-4.1l5.5-10.4c0,0,38,53.2,35.9,125.7c0,0,16.6,23.5,33.8,26.2
			c0,0,13.1-58-29-143c0,0,70.4,4.8,70.4-55.9L307.8,107.2z"/>
	</g>
	<g>
		<defs>
			<polygon id="SVGID_00000029732558672415019850000011892095249758159239_" points="164.7,526.1 390.4,445.1 401.4,-136.2 
				48.6,-118.2 0,37.4 			"/>
		</defs>
		<clipPath id="SVGID_00000146472158096528968810000009714479129766819507_">
			<use xlink:href="#SVGID_00000029732558672415019850000011892095249758159239_"  style="overflow:visible;"/>
		</clipPath>
		<path style="clip-path:url(#SVGID_00000146472158096528968810000009714479129766819507_);fill:#857D74;" d="M241.5,189.4
			c0,0-31.9-0.9-40.7-9l15.1,26.6L241.5,189.4z"/>
	</g>
	<g>
		<defs>
			<polygon id="SVGID_00000176724272557148175490000006913823715999396257_" points="164.7,526.1 390.4,445.1 401.4,-136.2 
				48.6,-118.2 0,37.4 			"/>
		</defs>
		<clipPath id="SVGID_00000111172816698219601330000016890470429091228323_">
			<use xlink:href="#SVGID_00000176724272557148175490000006913823715999396257_"  style="overflow:visible;"/>
		</clipPath>
		<path style="clip-path:url(#SVGID_00000111172816698219601330000016890470429091228323_);fill:#DB853B;" d="M205.7,110.6
			c0.8-0.4,1.6-0.5,2.4-0.2c3.6,1.3,14.9,4.7,22.3-0.4c9-6.2,15.9-17.3,32.5-10.4c0,0,58,16.6,87,7.6c0,0,11.7-1.4,4.8,8.3
			c-6.9,9.7-74.6,38-139.5,15.9C215.2,131.4,186,120.8,205.7,110.6z"/>
	</g>
	<g>
		<defs>
			<polygon id="SVGID_00000016774240513650896870000008991569947472000643_" points="164.7,526.1 390.4,445.1 401.4,-136.2 
				48.6,-118.2 0,37.4 			"/>
		</defs>
		<clipPath id="SVGID_00000094581782901923646680000015912106530058055061_">
			<use xlink:href="#SVGID_00000016774240513650896870000008991569947472000643_"  style="overflow:visible;"/>
		</clipPath>
		<path style="clip-path:url(#SVGID_00000094581782901923646680000015912106530058055061_);fill:#BD8132;" d="M354.7,115.5
			c0.9-1.2,1.5-2.3,1.8-3.2c-95.5,44.6-155.7,3.8-155.7,3.8l-1.3-0.2c-4.1,8.2,15.8,15.5,15.8,15.5
			C280.1,153.5,347.8,125.1,354.7,115.5z"/>
	</g>
	<g>
		<defs>
			<polygon id="SVGID_00000043440955215874462360000000811882893651642008_" points="164.7,526.1 390.4,445.1 401.4,-136.2 
				48.6,-118.2 0,37.4 			"/>
		</defs>
		<clipPath id="SVGID_00000042731065672707387980000017527132824482135443_">
			<use xlink:href="#SVGID_00000043440955215874462360000000811882893651642008_"  style="overflow:visible;"/>
		</clipPath>
		<path style="clip-path:url(#SVGID_00000042731065672707387980000017527132824482135443_);fill:#231F20;" d="M210.4,74.7
			c0,0-5.5,9.7,2.8,20.7c0,0,5.5,7.6,12.4,5.5c0,0,15.9,0.7,1.4-29.7C227,71.3,212.5,73.4,210.4,74.7z"/>
	</g>
	<g>
		<defs>
			<polygon id="SVGID_00000086664650398420453990000003307233834344208290_" points="164.7,526.1 390.4,445.1 401.4,-136.2 
				48.6,-118.2 0,37.4 			"/>
		</defs>
		<clipPath id="SVGID_00000126297610727918400650000013880120011487522226_">
			<use xlink:href="#SVGID_00000086664650398420453990000003307233834344208290_"  style="overflow:visible;"/>
		</clipPath>
		<path style="clip-path:url(#SVGID_00000126297610727918400650000013880120011487522226_);fill:#231F20;" d="M263.9,74.6
			c0,0-1.7,8.6,6.8,18.1c0,0,5.7,6.5,10.2,4.6c0,0,11.5,0.3-6-26C274.9,71.3,265.1,73.4,263.9,74.6z"/>
	</g>
	<g>
		<defs>
			<polygon id="SVGID_00000150782927378147576060000018026033399442232506_" points="164.7,526.1 390.4,445.1 401.4,-136.2 
				48.6,-118.2 0,37.4 			"/>
		</defs>
		<clipPath id="SVGID_00000018215685226707269230000007323719206495585208_">
			<use xlink:href="#SVGID_00000150782927378147576060000018026033399442232506_"  style="overflow:visible;"/>
		</clipPath>
		<path style="clip-path:url(#SVGID_00000018215685226707269230000007323719206495585208_);fill:#231F20;" d="M227.1,71.1
			c0,0-13.9-4.6-28.4,3c0,0-9.7,15.9-22.8,5.5c0,0,6.2,13.1,20.7,7.6c0,0,12.4-11,22.1-8.3"/>
	</g>
	<g>
		<defs>
			<polygon id="SVGID_00000102536755093323913480000018019678354032030112_" points="164.7,526.1 390.4,445.1 401.4,-136.2 
				48.6,-118.2 0,37.4 			"/>
		</defs>
		<clipPath id="SVGID_00000124840148143536889530000011418344200678884543_">
			<use xlink:href="#SVGID_00000102536755093323913480000018019678354032030112_"  style="overflow:visible;"/>
		</clipPath>
		<path style="clip-path:url(#SVGID_00000124840148143536889530000011418344200678884543_);fill:#231F20;" d="M264.1,74.7
			c0,0,8.2-6.1,20.4-3.4c0,0,9.8,9.3,18.1-0.1c0,0-2.7,10.1-14.5,8.8c0,0-11.1-5.5-18-1.9"/>
	</g>
	<g>
		<defs>
			<polygon id="SVGID_00000119803117238928713800000010145478764345949623_" points="164.7,526.1 390.4,445.1 401.4,-136.2 
				48.6,-118.2 0,37.4 			"/>
		</defs>
		<clipPath id="SVGID_00000047053252413599098880000016731940085731855748_">
			<use xlink:href="#SVGID_00000119803117238928713800000010145478764345949623_"  style="overflow:visible;"/>
		</clipPath>
		<path style="clip-path:url(#SVGID_00000047053252413599098880000016731940085731855748_);fill:#1E2F39;" d="M216.8,309.7l21.4-7.6
			c0,0,21.4,22.8,31.1,25.6c0,0-4.1,57.3-1.4,66.3c0,0,4.1,5.5-4.8,6.9c-9,1.4-45.6,4.1-50.4,0.7s-3.5-19.3-3.5-25.6
			C209.2,369.8,198.8,316.6,216.8,309.7z"/>
	</g>
	<g>
		<defs>
			<polygon id="SVGID_00000104668045392711122260000000641793513622817459_" points="164.7,526.1 390.4,445.1 401.4,-136.2 
				48.6,-118.2 0,37.4 			"/>
		</defs>
		<clipPath id="SVGID_00000137816355282050625050000002557639431604490133_">
			<use xlink:href="#SVGID_00000104668045392711122260000000641793513622817459_"  style="overflow:visible;"/>
		</clipPath>
		<path style="clip-path:url(#SVGID_00000137816355282050625050000002557639431604490133_);fill:#1E2F39;" d="M288.6,309
			c0,0-6.9,11-7.6,19.3c0,0,15.2,52.5,14.5,66.3c0,0,3.5,5.5,10.4,4.1c0,0,15.9-6.9,20.7-13.8c0,0-25.6-51.8-26.2-58.7
			C299.6,319.4,293.4,310.4,288.6,309z"/>
	</g>
	<g>
		<defs>
			<polygon id="SVGID_00000027596567465567715540000008701796931456648585_" points="164.7,526.1 390.4,445.1 401.4,-136.2 
				48.6,-118.2 0,37.4 			"/>
		</defs>
		<clipPath id="SVGID_00000123440936310161591670000007251755303824277635_">
			<use xlink:href="#SVGID_00000027596567465567715540000008701796931456648585_"  style="overflow:visible;"/>
		</clipPath>
		
			<path style="clip-path:url(#SVGID_00000123440936310161591670000007251755303824277635_);fill:none;stroke:#231F20;stroke-width:1.5446;stroke-miterlimit:10;" d="
			M210.9,115.5c0,0,8.9,19.1,48.7,23"/>
	</g>
	<g>
		<defs>
			<path id="SVGID_00000161615526044962724170000003936744708321825180_" d="M255.3,493.6l135.1-48.5l11-581.3l-352.8,18L0,37.4
				l133.9,397.4C150.8,485,205.6,511.4,255.3,493.6z"/>
		</defs>
		<clipPath id="SVGID_00000041293305893803820050000005562015914557086384_">
			<use xlink:href="#SVGID_00000161615526044962724170000003936744708321825180_"  style="overflow:visible;"/>
		</clipPath>
		<path style="clip-path:url(#SVGID_00000041293305893803820050000005562015914557086384_);fill:#00BFE4;" d="M339.7,473.4
			c-0.7-1.4-1.5-2.8-2.4-4.2c-10.9-16.7-39.1-37.3-39.1-37.3c-0.6,0.4-1.4,0.7-2.1,1c-1.5-4.7,0-12.7,0-12.7c-9,2.1-47-6.9-47-6.9
			s-5.1,5.4-3.6,7c0.3,0.4-4.3-1-3.9-0.7c-6.4-1.7-2.1,6.1-2.1,6.1c-73.9-2.8-82.2,49.7-82.2,49.7c-9.7,27.6,14.5,74.6,16.6,82.2
			s2.1,40.7,2.1,40.7l62.8,1.4l1.3-26l13.4,1.3c19.3-1.7,26-5.9,26-5.9l-2.6,23l55.9-0.7l0.5-5.3l2.3-29.2
			C354.9,515.5,348,490.7,339.7,473.4z"/>
	</g>
	<g>
		<defs>
			<polygon id="SVGID_00000174601203801791615160000009408215211630784170_" points="164.7,526.1 390.4,445.1 401.4,-136.2 
				48.6,-118.2 0,37.4 			"/>
		</defs>
		<clipPath id="SVGID_00000183933675155317813330000016473726895801939843_">
			<use xlink:href="#SVGID_00000174601203801791615160000009408215211630784170_"  style="overflow:visible;"/>
		</clipPath>
		<g style="clip-path:url(#SVGID_00000183933675155317813330000016473726895801939843_);">
			<path class="st29" d="M185.4,489.5c10.3,9.1,31.9,16.1,41.6,6.4s10.3-51.9,10.3-51.9c3.9-2,8.4-8.9,11.9-15.4
				c-5.8-1.6-9.7-2.8-9.7-2.8c-8-0.3-15.3,0.1-21.8,0.9c-15.4,14.8-44.4,42.4-44.4,42.4l-3.4,14.3
				C169.9,483.4,175.2,480.4,185.4,489.5z"/>
			<path class="st29" d="M249.2,413.8c-0.2,2.4-7.2,11.9-6,13.3c0.1,0.1,5.7,1.7,5.8,1.8c3.5-6.6,6.5-13.5,6.5-13.5L249.2,413.8z"/>
		</g>
	</g>
	<g>
		<defs>
			<polygon id="SVGID_00000183946905460122582260000008439495902802005182_" points="164.7,526.1 390.4,445.1 401.4,-136.2 
				48.6,-118.2 0,37.4 			"/>
		</defs>
		<clipPath id="SVGID_00000070815723574159310770000002870183406521803136_">
			<use xlink:href="#SVGID_00000183946905460122582260000008439495902802005182_"  style="overflow:visible;"/>
		</clipPath>
		<path style="clip-path:url(#SVGID_00000070815723574159310770000002870183406521803136_);fill:#FFA847;" d="M215.4,425.7
			c0,0,64.2-88.4,60.1-122.9c0,0,13.8,0.7,18,8.3c0,0-36.9,118.3-65.2,129.4C228.2,440.5,225.1,434,215.4,425.7z"/>
	</g>
	<g>
		<defs>
			<polygon id="SVGID_00000149359739623899568830000016620552088613655687_" points="164.7,526.1 390.4,445.1 401.4,-136.2 
				48.6,-118.2 0,37.4 			"/>
		</defs>
		<clipPath id="SVGID_00000081642253636182420070000017595580763562429346_">
			<use xlink:href="#SVGID_00000149359739623899568830000016620552088613655687_"  style="overflow:visible;"/>
		</clipPath>
		<path style="clip-path:url(#SVGID_00000081642253636182420070000017595580763562429346_);fill:#FFA847;" d="M187.7,428.8
			c0,0,32.5-10.4,42.8,1.4c0,0,2.1,24.9-4.8,46.3c0,0-4.1,14.5-13.1,16.6s-29,6.2-37.3-6.2C175.3,486.8,160.8,433.6,187.7,428.8z"/>
	</g>
	<g>
		<defs>
			<polygon id="SVGID_00000111870474538245986350000005213961248701796777_" points="164.7,526.1 390.4,445.1 401.4,-136.2 
				48.6,-118.2 0,37.4 			"/>
		</defs>
		<clipPath id="SVGID_00000168085458996110013970000007570266923050511541_">
			<use xlink:href="#SVGID_00000111870474538245986350000005213961248701796777_"  style="overflow:visible;"/>
		</clipPath>
		<path style="clip-path:url(#SVGID_00000168085458996110013970000007570266923050511541_);fill:#610100;" d="M217.1,430.5
			c0,0-7.6,20.7-6.9,33.8c0,0,2.1,6.9-4.8,11.7c0,0-22.1,13.1-31.1,3.5c0,0-4.1-25.6,0.7-38.7c0,0,5.5-8.3,10.4-9.7
			C185.3,431.2,221.8,417.2,217.1,430.5z"/>
	</g>
	<g>
		<defs>
			<polygon id="SVGID_00000143577224523221089890000010428005214592319126_" points="164.7,526.1 390.4,445.1 401.4,-136.2 
				48.6,-118.2 0,37.4 			"/>
		</defs>
		<clipPath id="SVGID_00000129198999139948711940000016870092338539352449_">
			<use xlink:href="#SVGID_00000143577224523221089890000010428005214592319126_"  style="overflow:visible;"/>
		</clipPath>
		<path style="clip-path:url(#SVGID_00000129198999139948711940000016870092338539352449_);fill:#FFA847;" d="M215.5,424.5
			c0,0-9.8,22.9-9.1,36.1c0,0,2.1,6.9-4.8,11.7c0,0-22.1,13.1-31.1,3.5c0,0-4.1-25.6,0.7-38.7c0,0,5.5-8.3,10.4-9.7
			C181.5,427.4,208.6,421.7,215.5,424.5z"/>
	</g>
	<g>
		<defs>
			<polygon id="SVGID_00000011005402901906599350000008269353114945844908_" points="164.7,526.1 390.4,445.1 401.4,-136.2 
				48.6,-118.2 0,37.4 			"/>
		</defs>
		<clipPath id="SVGID_00000135668332341704867180000011101278172979937457_">
			<use xlink:href="#SVGID_00000011005402901906599350000008269353114945844908_"  style="overflow:visible;"/>
		</clipPath>
		
			<ellipse style="clip-path:url(#SVGID_00000135668332341704867180000011101278172979937457_);fill:#610100;" cx="182.6" cy="466.1" rx="5.9" ry="6.9"/>
	</g>
	<g>
		<defs>
			<polygon id="SVGID_00000006683043489492275400000000242234143032328580_" points="164.7,526.1 390.4,445.1 401.4,-136.2 
				48.6,-118.2 0,37.4 			"/>
		</defs>
		<clipPath id="SVGID_00000176013573036080201120000001232028701431477655_">
			<use xlink:href="#SVGID_00000006683043489492275400000000242234143032328580_"  style="overflow:visible;"/>
		</clipPath>
		<path style="clip-path:url(#SVGID_00000176013573036080201120000001232028701431477655_);fill:#CEBCA5;" d="M369.5,456.2
			c0,0,13.5-16.8,24.9-9.7c0,0,8.7,3.8,6.5,13s-7.6,37.3-18.4,33c0,0-7.6,1.6-8.7-11.4c0,0-0.5-6.5,2.2-12.4"/>
	</g>
	<g>
		<defs>
			<polygon id="SVGID_00000111877224392268369360000016285501062608062602_" points="164.7,526.1 390.4,445.1 401.4,-136.2 
				48.6,-118.2 0,37.4 			"/>
		</defs>
		<clipPath id="SVGID_00000042738599299031092900000001041087164609838264_">
			<use xlink:href="#SVGID_00000111877224392268369360000016285501062608062602_"  style="overflow:visible;"/>
		</clipPath>
		<path style="clip-path:url(#SVGID_00000042738599299031092900000001041087164609838264_);fill:#9B9288;" d="M383,460.5
			c0,0-11.9,14.6-3.8,25.4c0,0,7.2,7.9,12.6,2l3.1-2c0,0-4.9,12.4-16.2,5.4C378.7,491.4,361.3,481.1,383,460.5z"/>
	</g>
	<g>
		<defs>
			<polygon id="SVGID_00000005971339350643098660000001735283028300610223_" points="164.7,526.1 390.4,445.1 401.4,-136.2 
				48.6,-118.2 0,37.4 			"/>
		</defs>
		<clipPath id="SVGID_00000010294545320366587070000004215676267633229442_">
			<use xlink:href="#SVGID_00000005971339350643098660000001735283028300610223_"  style="overflow:visible;"/>
		</clipPath>
		<path style="clip-path:url(#SVGID_00000010294545320366587070000004215676267633229442_);fill:#9B9388;" d="M393.3,488.1
			c-0.2-1.8,9.1-12.1,7-31.9C400.3,456.2,405.7,476.2,393.3,488.1z"/>
	</g>
	<g>
		<defs>
			<polygon id="SVGID_00000008132808295823065820000007787147540641582782_" points="164.7,526.1 390.4,445.1 401.4,-136.2 
				48.6,-118.2 0,37.4 			"/>
		</defs>
		<clipPath id="SVGID_00000118384046633184075900000003375066186133536389_">
			<use xlink:href="#SVGID_00000008132808295823065820000007787147540641582782_"  style="overflow:visible;"/>
		</clipPath>
		<g style="clip-path:url(#SVGID_00000118384046633184075900000003375066186133536389_);">
			<path class="st39" d="M200,174.9c-0.3-0.2-0.4-0.3-0.4-0.3c-1.7,16.6-14.3,11.4-14.3,11.4c-9.1-2.9-9.7-28.5-9.7-28.5l-9.1,9.1
				c-17.7,14.3-17.7-28.5-17.7-28.5c-7.4,10.8-9.7,0.6-9.7,0.6c-1.8-21.7,21.4-49.1,31.2-59.6c-16.3,12.5-33.3,31.4-36.6,57.1
				c-0.1,1-0.2,1.9-0.3,2.9c0,0,1.7,13.7,11.4,8.1c0,0-2.1,26.2,9,29.7c0,0,11,4.1,15.9-5.5l5.5-5.5c0,0-4.1,24.9,9,29
				c0,0,8.3,5.5,11-4.1l5.5-10.3L200,174.9z"/>
		</g>
	</g>
	<g>
		<defs>
			<polygon id="SVGID_00000021103154315482312910000005998942787288012707_" points="164.7,526.1 477.1,515.9 401.4,-136.2 
				48.6,-118.2 0,37.4 			"/>
		</defs>
		<clipPath id="SVGID_00000005266107147675798050000011541948814065934255_">
			<use xlink:href="#SVGID_00000021103154315482312910000005998942787288012707_"  style="overflow:visible;"/>
		</clipPath>
		<path style="clip-path:url(#SVGID_00000005266107147675798050000011541948814065934255_);fill:#CEBCA5;" d="M403.3,500.2
			c0,0-10.7,6-24.1,0c0,0-4.5-3.9-3.7-10.1c0,0,11.2-5,19.4-4c8.2,1,12.3,1,12.3,1S411.2,498.2,403.3,500.2z"/>
	</g>
	<g>
		<path d="M119.5,453.8L119.5,453.8l0.4,0c0.5-0.1,1.1-0.1,1.7-0.2c0.5,0,1.1,0.1,1.6,0.1l41.6-0.5l-0.6,35.4l-41.6-0.8
			c-0.3,0.1-0.6,0.1-0.8,0.1c-6.5,0.1-11.9-7.6-11.9-17.2C109.8,462.4,113.9,455.2,119.5,453.8z"/>
		<path class="st41" d="M145,456.9l-25.2,0.3c0,0-5.7,6.8-2,9.6l23.3-1C141.1,465.8,142.2,459.2,145,456.9z"/>
		<path class="st42" d="M153.1,444L153.1,444l0.6-0.1c0.8-0.1,1.8-0.2,2.7-0.2c0.9,0,1.7,0.1,2.6,0.2l68.5-0.8l-1,58.3l-68.4-1.2
			c-0.5,0.1-0.9,0.1-1.4,0.1c-10.7,0.1-19.5-12.5-19.6-28.2C137,458.1,144,446.4,153.1,444z"/>
		<path class="st43" d="M203.9,436.8c0-0.1,0-0.1,0.1-0.2l0.7,0c1.1-0.2,2.3-0.3,3.4-0.4c1.1,0,2.2,0.1,3.3,0.3l88.4-1l-1.2,75.2
			l-88.1-1.6c-0.6,0.1-1.2,0.1-1.8,0.1c-13.9,0.1-25.2-16.2-25.3-36.4C183.2,454.8,192.1,439.8,203.9,436.8z"/>
		<path class="st44" d="M276,447.4l-79.4,2.4c0,0-8.8,10.5-3,14.9l76.5-3.4C270.1,461.3,271.6,451,276,447.4z"/>
		<path class="st44" d="M185.4,449.9l-37.7,0.5c0,0-8.4,10.2-3,14.3l35-1.4C179.6,463.3,181.1,453.4,185.4,449.9z"/>
		<ellipse transform="matrix(1 -6.528219e-03 6.528219e-03 1 -3.0738 1.9265)" cx="293.6" cy="471.8" rx="32.4" ry="47.2"/>
		<path d="M410.1,520.9l-116.5-2.1c0,0-26.2-46.5-5.7-93.7l123.7-1.3L410.1,520.9z"/>
		
			<ellipse transform="matrix(1 -6.528219e-03 6.528219e-03 1 -3.0748 2.6761)" class="st45" cx="408.4" cy="472.3" rx="29.1" ry="49.4"/>
		
			<ellipse transform="matrix(1 -6.528219e-03 6.528219e-03 1 -3.0748 2.6761)" class="st46" cx="408.4" cy="472.3" rx="21.4" ry="36.3"/>
		
			<ellipse transform="matrix(1 -6.528219e-03 6.528219e-03 1 -3.0748 2.6761)" class="st46" cx="408.4" cy="472.3" rx="21.4" ry="36.3"/>
		<path d="M424.3,473c-0.1-19.4-9.2-35.2-20.6-36.1c1.4-0.5,2.8-0.7,4.3-0.8c11.9-0.1,21.5,16.1,21.6,36.2
			c0.1,20-9.3,36.3-21.1,36.4c-0.4,0-0.8,0-1.1-0.1C417.3,505.2,424.5,490.4,424.3,473z"/>
		
			<ellipse transform="matrix(0.9616 -0.2743 0.2743 0.9616 -109.1538 130.5261)" class="st44" cx="412.1" cy="455.5" rx="7.5" ry="12.7"/>
		
			<ellipse transform="matrix(4.527160e-02 -0.999 0.999 4.527160e-02 -85.7614 874.7466)" class="st44" cx="414.8" cy="482.2" rx="9.2" ry="5.4"/>
		<path class="st47" d="M383,434.5l-107.6,3.8c0,0-12,14.5-4.3,20.4l103.7-5.1C374.8,453.7,376.9,439.6,383,434.5z"/>
		<polyline points="111.1,461.7 73,464.2 100.4,496.4 124.5,495.3 127.1,478.5 		"/>
		<path d="M104.3,463.5l1.4-31.6c0,0-17.6-6.1-22.9,0.5l0.4,35.4"/>
	</g>
	<path class="st2" d="M214.8,350.9c0,0-38,97.7-33.4,129.9c0,0-1.8,15.8,3.2,23.1c0,0,13.4,6.5,14.2,14.2c0.8,7.7-0.6,18-2.2,21.3
		c-1.6,3.3-14.6,10.7-14.6,10.7s-8.4,21.6-19.4,20.1c0,0-12.5,1.2-19.7-5.5c0,0-9-0.6-14.6-8.6c0,0-7.1,2.3-10.4-9.7
		c0,0-8.2-99.6-1.5-136.5c0,0,3.8-14.3,7.1-3c0,0,8.3-40.3,15.6-52.8c0.5-0.8,0.9-1.5,1.4-2.1c6.7-8.1,6.8,0.1,7.2,8.8
		c0.1,1.2,0.1,2.4,0.2,3.5c0.7,9.7,36.8-41,50.3-46.3s3.3,1.6,3.3,1.6s3.9-2.6,8.3-5c5.3-2.9,11.7,0.9,11.7,6.9
		C221.8,330.2,220.6,342.5,214.8,350.9z"/>
	<path class="st39" d="M209.5,314.8c-4.2,2.3-7.7,4.7-7.7,4.7s10.2-6.9-3.3-1.6s-49.6,56-50.3,46.3c-0.1-1.2-0.1-2.3-0.2-3.5
		c-0.4-8.7-0.6-16.9-7.2-8.8c-0.5,0.6-0.9,1.2-1.4,2.1c-7.3,12.5-15.6,52.8-15.6,52.8c-3.4-11.3-7.1,3-7.1,3
		c-6.8,36.9,1.5,136.5,1.5,136.5c1.4,5.2,3.6,7.8,5.6,8.9c-0.4-1.9-1-4-1.8-6.5c-9.1-27.8,0-139.9,0-139.9l5.9,10.9l1.8-10.5
		c-1.4-17.3,11.3-56.9,13.4-51.3c1.6,4.3,5.6,21.5,5.6,21.5C174.3,334.1,196.7,323.3,209.5,314.8z"/>
	<g>
		<path class="st2" d="M437.6,455.8c0,0-12.2,3.2-22.7-5.9c0,0-3.3-3.3-0.5-9.1c0,0,12.7-3.5,20.1-0.6s-0.5-0.8-0.5-0.8l11.8,4.8
			C445.7,444.2,445.7,455.8,437.6,455.8z"/>
		<path class="st48" d="M417.7,440.7c0,0-4.2,10.7,7.2,12.5c0,0,14.3,3.1,19.1-1.7c0,0-3.3,10-24,2.4c-0.1-0.3-11.4-5.9-3.8-14.5
			L417.7,440.7z"/>
		<path class="st2" d="M442.9,439.9c0,0-11.3,5.2-25.3,0c0,0-2.4-1.1-3.4-3.7c-0.7-1.9,0.2-4,2-4.8c3.9-1.6,11.7-4.5,17.9-3.7
			C444.6,429,451.3,438.2,442.9,439.9z"/>
		<path class="st48" d="M416.1,430.9L416.1,430.9c0.3,0.7-5.7,10,13,11.4c0,0,14.7-0.5,17.7-6.4c0,0,0.2,10.4-22.2,8.2
			c0,0-10.1,3-11.5-8C412.8,433.9,414.1,431.8,416.1,430.9L416.1,430.9z"/>
		<path class="st2" d="M435.3,425.3c0,0-7.5,7-19.3,4.4c0,0-2.1-0.7-3.4-3c-1-1.7-0.7-3.9,0.5-5c2.6-2.2,7.9-6.4,12.8-6.7
			C434.2,414.4,441.3,422.2,435.3,425.3z"/>
		<path class="st48" d="M412.9,421.1L412.9,421.1c0.4,0.6-2.1,10.7,12.4,8.9c0,0,11.1-3,12.1-9.3c0,0,2.4,10.1-15.1,11.8
			c0,0-7,4.7-10.5-5.8C411,424.6,411.6,422.3,412.9,421.1L412.9,421.1z"/>
	</g>
</g>
</svg>
