<?xml version="1.0" encoding="utf-8"?>
<!-- Generator: Adobe Illustrator 28.1.0, SVG Export Plug-In . SVG Version: 6.00 Build 0)  -->
<svg version="1.1" id="Capa_1" xmlns="http://www.w3.org/2000/svg" xmlns:xlink="http://www.w3.org/1999/xlink" x="0px" y="0px"
	 viewBox="0 0 519.8 576.4" style="enable-background:new 0 0 519.8 576.4;" xml:space="preserve">
<style type="text/css">
	.st0{clip-path:url(#SVGID_00000159450114908890873090000001396140396987192486_);}
	.st1{opacity:0.15;fill:#E4F4F8;enable-background:new    ;}
	.st2{fill:#CEBCA5;}
	.st3{clip-path:url(#SVGID_00000167385273036293532720000007620015239010979999_);fill:#CEBCA5;}
	.st4{clip-path:url(#SVGID_00000167385273036293532720000007620015239010979999_);fill:#D4C7B9;}
	.st5{clip-path:url(#SVGID_00000167385273036293532720000007620015239010979999_);fill:#A39482;}
	.st6{clip-path:url(#SVGID_00000167385273036293532720000007620015239010979999_);fill:#610100;}
	.st7{clip-path:url(#SVGID_00000167385273036293532720000007620015239010979999_);fill:#9B9388;}
	.st8{clip-path:url(#SVGID_00000167385273036293532720000007620015239010979999_);fill:#857D74;}
	.st9{clip-path:url(#SVGID_00000167385273036293532720000007620015239010979999_);fill:#00BFE4;}
	.st10{clip-path:url(#SVGID_00000167385273036293532720000007620015239010979999_);fill:#00687D;}
	.st11{clip-path:url(#SVGID_00000167385273036293532720000007620015239010979999_);fill:#DB853B;}
	.st12{clip-path:url(#SVGID_00000167385273036293532720000007620015239010979999_);fill:#BD8132;}
	.st13{clip-path:url(#SVGID_00000167385273036293532720000007620015239010979999_);fill:#231F20;}
	.st14{clip-path:url(#SVGID_00000167385273036293532720000007620015239010979999_);fill:#1E2F39;}
	
		.st15{clip-path:url(#SVGID_00000167385273036293532720000007620015239010979999_);fill:none;stroke:#231F20;stroke-width:1.5446;stroke-miterlimit:10;}
	.st16{clip-path:url(#SVGID_00000167385273036293532720000007620015239010979999_);}
	.st17{fill:#00728A;}
	.st18{clip-path:url(#SVGID_00000167385273036293532720000007620015239010979999_);fill:#FFA847;}
	.st19{clip-path:url(#SVGID_00000167385273036293532720000007620015239010979999_);fill:#9B9288;}
	.st20{fill:#A39482;}
	.st21{fill:#CCCCCC;}
	.st22{fill:#ADB7BA;}
	.st23{fill:#8C9496;}
	.st24{fill:#FFFFFF;}
	.st25{fill:#6E6E6E;}
	.st26{fill:#98D2E0;}
	.st27{fill:#BABABA;}
	.st28{fill:#9B9288;}
</style>
<g>
	<defs>
		<circle id="SVGID_1_" cx="929.6" cy="802.5" r="92.6"/>
	</defs>
	<clipPath id="SVGID_00000032631425990296565770000013544902142007413658_">
		<use xlink:href="#SVGID_1_"  style="overflow:visible;"/>
	</clipPath>
	<g style="clip-path:url(#SVGID_00000032631425990296565770000013544902142007413658_);">
		<circle class="st1" cx="522.5" cy="867.8" r="308.9"/>
	</g>
</g>
<g>
	<path class="st2" d="M321.1,386.4c0.7,2.1,2.1,65.6,50.4,70.4c0,0,6.9-6.2,13.1-4.8c0,0,6.9,1.4,9,6.9c0,0,16.7,0.4,18.6,6.2
		c0.7,2.1,6.2,11-0.7,19.3l-7.6,2.8c0,0,5.5,6.2,0,13.8c0,0-5.4,8.2-12.4,11.7c-2.8,1.4-15.2,2.1-22.1-6.2c0,0-7.6-6.2-4.8-11.7
		c0,0-25.6,11-35.2,3.5c-9.7-7.6-33.8-23.5-43.5-51.8c-9.7-28.3-14.5-50.4-13.1-63.5c1.4-13.1,8.3-31.8,8.3-31.8l10.4-9.7"/>
	<g>
		<defs>
			<polygon id="SVGID_00000150060214330024652440000002681675140889153714_" points="164.7,526.1 390.4,445.1 401.4,-136.2 
				48.6,-118.2 0,37.4 			"/>
		</defs>
		<clipPath id="SVGID_00000124146212579360899310000005199698159752155032_">
			<use xlink:href="#SVGID_00000150060214330024652440000002681675140889153714_"  style="overflow:visible;"/>
		</clipPath>
		<path style="clip-path:url(#SVGID_00000124146212579360899310000005199698159752155032_);fill:#CEBCA5;" d="M191.7,49.2
			c-1.4-4.1-22.1-40.1-55.9-40.1c0,0-14.5,6.2-2.1,17.3c0,0-18-9.7-25.6,0c0,0-11.7,12.4,6.2,20c0,0,15.9,5.5,17.3,6.2
			s-28.3,4.1-20,21.4c0,0,12.4,9,30.4,4.8l29.7-10.4c0,0,9.7-15.2,23.5-13.1"/>
		<path style="clip-path:url(#SVGID_00000124146212579360899310000005199698159752155032_);fill:#CEBCA5;" d="M191.7,49.2
			c-1.4-4.1-22.1-40.1-55.9-40.1c0,0-14.5,6.2-2.1,17.3c0,0-18-9.7-25.6,0c0,0-11.7,12.4,6.2,20c0,0,15.9,5.5,17.3,6.2
			s-28.3,4.1-20,21.4c0,0,12.4,9,30.4,4.8l29.7-10.4c0,0,9.7-15.2,23.5-13.1"/>
		<path style="clip-path:url(#SVGID_00000124146212579360899310000005199698159752155032_);fill:#D4C7B9;" d="M129.4,51.8
			c0.9-0.4,1.4-0.7,1.4-0.7c-22.7-4.6-23-19.1-22.1-25.4c-0.2,0.2-0.4,0.4-0.6,0.7c0,0-11.7,12.4,6.2,20
			C114.4,46.4,124.7,50,129.4,51.8z"/>
		<path style="clip-path:url(#SVGID_00000124146212579360899310000005199698159752155032_);fill:#A39482;" d="M174.4,65
			c-1.7,0.7-3.6,1.5-5.8,2.5c-39.9,17.6-52.7,1.9-56-5.6c-2.5,3-3.5,7-1,12.2c0,0,12.4,9,30.4,4.8l29.7-10.4
			C171.7,68.5,172.7,67,174.4,65z"/>
		<path style="clip-path:url(#SVGID_00000124146212579360899310000005199698159752155032_);fill:#610100;" d="M213.2,428.7
			c0,0,13.1-27.6,11.7-25.6c-1.4,2.1-11.3-24.1-11.3-24.1l-23.9,58"/>
		<path style="clip-path:url(#SVGID_00000124146212579360899310000005199698159752155032_);fill:#CEBCA5;" d="M476.1,541.4
			c0.7,2.1,2.1,65.6,50.4,70.4c0,0,6.9-6.2,13.1-4.8c0,0,6.9,1.4,9,6.9c0,0,16.7,0.4,18.6,6.2c0.7,2.1,6.2,11-0.7,19.3l-7.6,2.8
			c0,0,5.5,6.2,0,13.8c0,0-5.4,8.2-12.4,11.7c-2.8,1.4-15.2,2.1-22.1-6.2c0,0-7.6-6.2-4.8-11.7c0,0-25.6,11-35.2,3.5
			s-33.8-23.5-43.5-51.8c-9.7-28.3-14.5-50.4-13.1-63.5c1.4-13.1,8.3-31.8,8.3-31.8l10.4-9.7"/>
		<path style="clip-path:url(#SVGID_00000124146212579360899310000005199698159752155032_);fill:#9B9388;" d="M397.1,483.8
			c0,0,12.4,4.9,17.3-3.8c0,0,1.1,13.5-22.7,7"/>
		<path style="clip-path:url(#SVGID_00000124146212579360899310000005199698159752155032_);fill:#857D74;" d="M323.9,405.4
			c-2.3-10.4-2.6-18.3-2.8-19.1l-18.5-27.9l-22.3,12c0,0-2.8,11.7-4.1,21.4c-1.4,9.7,1.4,9,1.4,11.7l23.5,35.9
			C301,439.6,309.2,416.1,323.9,405.4z"/>
		<path style="clip-path:url(#SVGID_00000124146212579360899310000005199698159752155032_);fill:#CEBCA5;" d="M271.9,301.5
			c0,0,17.4,5.7,18,21.4c0,0,14.5,62.2,16.6,66.3c2.1,4.1-22,39.8-7.6,47c1.4,0.7,2.8,6.9,2.8,6.9s-42.1,5.5-61.5-12.4
			c0,0-0.7-35.9-8.3-52.5c-7.6-16.6,0-60.8,2.8-67C237.5,304.9,260.9,307,271.9,301.5z"/>
		<path style="clip-path:url(#SVGID_00000124146212579360899310000005199698159752155032_);fill:#9B9388;" d="M252.7,428.5
			c0,0-6.9-36.6-2.1-45.6s-13.8-6.9-13.8-6.9l-9.7,9c0,0,18,27.6,12.4,40.7C239.6,425.7,243.7,428.5,252.7,428.5z"/>
		<path style="clip-path:url(#SVGID_00000124146212579360899310000005199698159752155032_);fill:#00BFE4;" d="M173.3,80.4
			c0-2.1-7.6-10.4-0.7-18.6c0,0,3.5-6.9,11.7-9c0,0,19.7-8.9,18.8,7.3"/>
		<path style="clip-path:url(#SVGID_00000124146212579360899310000005199698159752155032_);fill:#00687D;" d="M181.7,58.1
			c0,0,1.1-2.6,3.4-5.6c-0.5,0.2-0.7,0.3-0.7,0.3c-8.3,2.1-11.7,9-11.7,9c-6.9,8.3,0.7,16.6,0.7,18.6l6.1-4.2
			C178,71.2,177.4,64.7,181.7,58.1z"/>
		<path style="clip-path:url(#SVGID_00000124146212579360899310000005199698159752155032_);fill:#CEBCA5;" d="M307.8,107.2
			c0,0,0.8-62.6-104.6-47.1c0,0-62.7,23.9-69.4,76.1c-0.1,1-0.2,1.9-0.3,2.9c0,0,1.7,13.7,11.4,8.1c0,0-2.1,26.2,9,29.7
			c0,0,11,4.1,15.9-5.5l5.5-5.5c0,0-4.1,24.9,9,29c0,0,8.3,5.5,11-4.1l5.5-10.4c0,0,38,53.2,35.9,125.7c0,0,16.6,23.5,33.8,26.2
			c0,0,13.1-58-29-143c0,0,70.4,4.8,70.4-55.9L307.8,107.2z"/>
		<path style="clip-path:url(#SVGID_00000124146212579360899310000005199698159752155032_);fill:#857D74;" d="M241.5,189.4
			c0,0-31.9-0.9-40.7-9l15.1,26.6L241.5,189.4z"/>
		<path style="clip-path:url(#SVGID_00000124146212579360899310000005199698159752155032_);fill:#DB853B;" d="M205.7,110.6
			c0.8-0.4,1.6-0.5,2.4-0.2c3.6,1.3,14.9,4.7,22.3-0.4c9-6.2,15.9-17.3,32.5-10.4c0,0,58,16.6,87,7.6c0,0,11.7-1.4,4.8,8.3
			c-6.9,9.7-74.6,38-139.5,15.9C215.2,131.4,186,120.8,205.7,110.6z"/>
		<path style="clip-path:url(#SVGID_00000124146212579360899310000005199698159752155032_);fill:#BD8132;" d="M354.7,115.5
			c0.9-1.2,1.5-2.3,1.8-3.2c-95.5,44.6-155.7,3.8-155.7,3.8l-1.3-0.2c-4.1,8.2,15.8,15.5,15.8,15.5
			C280.1,153.5,347.8,125.1,354.7,115.5z"/>
		<path style="clip-path:url(#SVGID_00000124146212579360899310000005199698159752155032_);fill:#231F20;" d="M210.4,74.7
			c0,0-5.5,9.7,2.8,20.7c0,0,5.5,7.6,12.4,5.5c0,0,15.9,0.7,1.4-29.7C227,71.3,212.5,73.4,210.4,74.7z"/>
		<path style="clip-path:url(#SVGID_00000124146212579360899310000005199698159752155032_);fill:#231F20;" d="M263.9,74.6
			c0,0-1.7,8.6,6.8,18.1c0,0,5.7,6.5,10.2,4.6c0,0,11.5,0.3-6-26C274.9,71.3,265.1,73.4,263.9,74.6z"/>
		<path style="clip-path:url(#SVGID_00000124146212579360899310000005199698159752155032_);fill:#231F20;" d="M227.1,71.1
			c0,0-13.9-4.6-28.4,3c0,0-9.7,15.9-22.8,5.5c0,0,6.2,13.1,20.7,7.6c0,0,12.4-11,22.1-8.3"/>
		<path style="clip-path:url(#SVGID_00000124146212579360899310000005199698159752155032_);fill:#231F20;" d="M264.1,74.7
			c0,0,8.2-6.1,20.4-3.4c0,0,9.8,9.3,18.1-0.1c0,0-2.7,10.1-14.5,8.8c0,0-11.1-5.5-18-1.9"/>
		<path style="clip-path:url(#SVGID_00000124146212579360899310000005199698159752155032_);fill:#1E2F39;" d="M216.8,309.7l21.4-7.6
			c0,0,21.4,22.8,31.1,25.6c0,0-4.1,57.3-1.4,66.3c0,0,4.1,5.5-4.8,6.9c-9,1.4-45.6,4.1-50.4,0.7s-3.5-19.3-3.5-25.6
			C209.2,369.8,198.8,316.6,216.8,309.7z"/>
		<path style="clip-path:url(#SVGID_00000124146212579360899310000005199698159752155032_);fill:#1E2F39;" d="M288.6,309
			c0,0-6.9,11-7.6,19.3c0,0,15.2,52.5,14.5,66.3c0,0,3.5,5.5,10.4,4.1c0,0,15.9-6.9,20.7-13.8c0,0-25.6-51.8-26.2-58.7
			C299.6,319.4,293.4,310.4,288.6,309z"/>
		
			<path style="clip-path:url(#SVGID_00000124146212579360899310000005199698159752155032_);fill:none;stroke:#231F20;stroke-width:1.5446;stroke-miterlimit:10;" d="
			M210.9,115.5c0,0,8.9,19.1,48.7,23"/>
		<path style="clip-path:url(#SVGID_00000124146212579360899310000005199698159752155032_);fill:#00BFE4;" d="M339.7,473.4
			c-0.7-1.4-1.5-2.8-2.4-4.2c-10.9-16.7-39.1-37.3-39.1-37.3c-0.6,0.4-1.4,0.7-2.1,1c-1.5-4.7,0-12.7,0-12.7c-9,2.1-47-6.9-47-6.9
			s-5.1,5.4-3.6,7c0.3,0.4-4.3-1-3.9-0.7c-6.4-1.7-2.1,6.1-2.1,6.1c-73.9-2.8-82.2,49.7-82.2,49.7c-9.7,27.6,14.5,74.6,16.6,82.2
			c2.1,7.6,2.1,40.7,2.1,40.7l62.8,1.4l1.3-26l13.4,1.3c19.3-1.7,26-5.9,26-5.9l-2.6,23l55.9-0.7l0.5-5.3l2.3-29.2
			C354.9,515.5,348,490.7,339.7,473.4z"/>
		<g style="clip-path:url(#SVGID_00000124146212579360899310000005199698159752155032_);">
			<path class="st17" d="M181.3,504.5c10.3,9.1,36,1.1,45.7-8.6c9.7-9.7,10.3-51.9,10.3-51.9c3.9-2,8.4-8.9,11.9-15.4
				c-5.8-1.6-9.7-2.8-9.7-2.8c-8-0.3-15.3,0.1-21.8,0.9c-15.4,14.8-44.4,42.4-44.4,42.4l-3.4,14.3
				C169.9,483.4,171.1,495.4,181.3,504.5z"/>
			<path class="st17" d="M249.2,413.8c-0.2,2.4-7.2,11.9-6,13.3c0.1,0.1,5.7,1.7,5.8,1.8c3.5-6.6,6.5-13.5,6.5-13.5L249.2,413.8z"/>
		</g>
		<path style="clip-path:url(#SVGID_00000124146212579360899310000005199698159752155032_);fill:#FFA847;" d="M215.4,425.7
			c0,0,64.2-88.4,60.1-122.9c0,0,13.8,0.7,18,8.3c0,0-36.9,118.3-65.2,129.4C228.2,440.5,225.1,434,215.4,425.7z"/>
		<path style="clip-path:url(#SVGID_00000124146212579360899310000005199698159752155032_);fill:#FFA847;" d="M187.7,428.8
			c0,0,32.5-10.4,42.8,1.4c0,0,2.1,24.9-4.8,46.3c0,0-4.1,14.5-13.1,16.6c-9,2.1-29,6.2-37.3-6.2
			C175.3,486.8,160.8,433.6,187.7,428.8z"/>
		<path style="clip-path:url(#SVGID_00000124146212579360899310000005199698159752155032_);fill:#610100;" d="M217.1,430.5
			c0,0-7.6,20.7-6.9,33.8c0,0,2.1,6.9-4.8,11.7c0,0-22.1,13.1-31.1,3.5c0,0-4.1-25.6,0.7-38.7c0,0,5.5-8.3,10.4-9.7
			C185.3,431.2,221.8,417.2,217.1,430.5z"/>
		<path style="clip-path:url(#SVGID_00000124146212579360899310000005199698159752155032_);fill:#FFA847;" d="M215.5,424.5
			c0,0-9.8,22.9-9.1,36.1c0,0,2.1,6.9-4.8,11.7c0,0-22.1,13.1-31.1,3.5c0,0-4.1-25.6,0.7-38.7c0,0,5.5-8.3,10.4-9.7
			C181.5,427.4,208.6,421.7,215.5,424.5z"/>
		
			<ellipse style="clip-path:url(#SVGID_00000124146212579360899310000005199698159752155032_);fill:#610100;" cx="182.6" cy="466.1" rx="5.9" ry="6.9"/>
		<path style="clip-path:url(#SVGID_00000124146212579360899310000005199698159752155032_);fill:#CEBCA5;" d="M369.5,456.2
			c0,0,13.5-16.8,24.9-9.7c0,0,8.7,3.8,6.5,13s-7.6,37.3-18.4,33c0,0-7.6,1.6-8.7-11.4c0,0-0.5-6.5,2.2-12.4"/>
		<path style="clip-path:url(#SVGID_00000124146212579360899310000005199698159752155032_);fill:#9B9288;" d="M383,460.5
			c0,0-11.9,14.6-3.8,25.4c0,0,7.2,7.9,12.6,2l3.1-2c0,0-4.9,12.4-16.2,5.4C378.7,491.4,361.3,481.1,383,460.5z"/>
		<path style="clip-path:url(#SVGID_00000124146212579360899310000005199698159752155032_);fill:#9B9388;" d="M393.3,488.1
			c-0.2-1.8,9.1-12.1,7-31.9C400.3,456.2,405.7,476.2,393.3,488.1z"/>
		<g style="clip-path:url(#SVGID_00000124146212579360899310000005199698159752155032_);">
			<path class="st20" d="M200,174.9c-0.3-0.2-0.4-0.3-0.4-0.3c-1.7,16.6-14.3,11.4-14.3,11.4c-9.1-2.9-9.7-28.5-9.7-28.5l-9.1,9.1
				c-17.7,14.3-17.7-28.5-17.7-28.5c-7.4,10.8-9.7,0.6-9.7,0.6c-1.8-21.7,21.4-49.1,31.2-59.6c-16.3,12.5-33.3,31.4-36.6,57.1
				c-0.1,1-0.2,1.9-0.3,2.9c0,0,1.7,13.7,11.4,8.1c0,0-2.1,26.2,9,29.7c0,0,11,4.1,15.9-5.5l5.5-5.5c0,0-4.1,24.9,9,29
				c0,0,8.3,5.5,11-4.1l5.5-10.3L200,174.9z"/>
		</g>
		<path style="clip-path:url(#SVGID_00000124146212579360899310000005199698159752155032_);fill:#CEBCA5;" d="M403.3,500.2
			c0,0-10.7,6-24.1,0c0,0-4.5-3.9-3.7-10.1c0,0,11.2-5,19.4-4c8.2,1,12.3,1,12.3,1S411.2,498.2,403.3,500.2z"/>
	</g>
	<g>
		<path d="M166.6,522.6C166.6,522.6,166.6,522.6,166.6,522.6l0.3-0.2c0.4-0.3,0.9-0.6,1.4-0.9c0.5-0.2,1-0.4,1.5-0.6l37.2-18.7
			l15,32.1l-37.7,17.5c-0.2,0.2-0.5,0.3-0.7,0.4c-5.8,2.9-14-1.6-18.2-10.2C161.6,534.6,162.2,526.3,166.6,522.6z"/>
		<path class="st21" d="M190.8,514.2l-22.5,11.3c0,0-2.1,8.6,2.4,9.5l20.5-11.1C191.3,523.9,189.3,517.5,190.8,514.2z"/>
		<path class="st22" d="M192.5,499.1c0,0,0-0.1,0-0.1l0.5-0.2c0.7-0.5,1.5-1,2.3-1.4c0.8-0.4,1.6-0.7,2.4-0.9l61.2-30.8l24.7,52.8
			l-62,28.9c-0.4,0.3-0.8,0.5-1.2,0.7c-9.6,4.8-23-2.7-30-16.7C184.2,518.8,185.3,505.2,192.5,499.1z"/>
		<path class="st23" d="M235,470.3c0-0.1,0-0.1,0-0.2l0.6-0.3c0.9-0.7,1.9-1.3,2.9-1.9c1-0.5,2-0.9,3.1-1.2l79-39.7l31.9,68.1
			l-79.9,37.2c-0.5,0.3-1,0.6-1.6,0.9c-12.4,6.2-29.7-3.5-38.7-21.6C224.3,495.6,225.7,478.2,235,470.3z"/>
		<path class="st24" d="M304.4,448.2l-70.3,37c0,0-3.3,13.3,3.8,14.7l67.3-36.6C305.2,463.3,302,453.4,304.4,448.2z"/>
		<path class="st24" d="M224.1,490.2l-33.7,17c0,0-3.1,12.9,3.6,14.2l30.8-16.6C224.8,504.8,221.8,495.2,224.1,490.2z"/>
		<ellipse transform="matrix(0.8957 -0.4447 0.4447 0.8957 -171.1165 195.3947)" cx="330.9" cy="462.4" rx="32.4" ry="47.2"/>
		<path d="M457.2,455.4l-105.6,49.2c0,0-44-30.3-46.2-81.7L416,367.4L457.2,455.4z"/>
		
			<ellipse transform="matrix(0.8957 -0.4447 0.4447 0.8957 -138.1379 236.1681)" class="st25" cx="434.3" cy="412.5" rx="29.1" ry="49.4"/>
		
			<ellipse transform="matrix(0.8957 -0.4447 0.4447 0.8957 -138.1379 236.1681)" class="st26" cx="434.3" cy="412.5" rx="21.4" ry="36.3"/>
		
			<ellipse transform="matrix(0.8957 -0.4447 0.4447 0.8957 -138.1379 236.1681)" class="st26" cx="434.3" cy="412.5" rx="21.4" ry="36.3"/>
		<path d="M448.9,406.1c-8.6-17.4-23.7-27.6-34.3-23.4c1-1.1,2.2-1.9,3.5-2.6c10.6-5.3,26.4,5,35.3,23c8.9,17.9,7.6,36.7-3,42
			c-0.3,0.2-0.7,0.3-1,0.4C456.7,438.1,456.7,421.7,448.9,406.1z"/>
		
			<ellipse transform="matrix(0.7437 -0.6685 0.6685 0.7437 -154.3486 389.0701)" class="st24" cx="430.3" cy="395.8" rx="7.5" ry="12.7"/>
		
			<ellipse transform="matrix(0.9175 -0.3977 0.3977 0.9175 -129.8282 211.2832)" class="st24" cx="444.4" cy="418.6" rx="5.4" ry="9.2"/>
		<path class="st27" d="M394.9,389.7l-95,50.6c0,0-4.4,18.3,5.1,20.2l90.9-50.1C396,410.5,391.7,396.9,394.9,389.7z"/>
		<polyline points="162.5,533.4 129.4,552.4 168.1,569.3 189.3,557.7 184.3,541.5 		"/>
		<path d="M157.2,538L144.6,509c0,0-18.5,2.3-20.4,10.5l15.9,31.6"/>
	</g>
	<path class="st2" d="M214.8,350.9c0,0-38,97.7-33.4,129.9c0,0-1.8,15.8,3.2,23.1c0,0,13.4,6.5,14.2,14.2c0.8,7.7-0.6,18-2.2,21.3
		c-1.6,3.3-14.6,10.7-14.6,10.7s-8.4,21.6-19.4,20.1c0,0-12.5,1.2-19.7-5.5c0,0-9-0.6-14.6-8.6c0,0-7.1,2.3-10.4-9.7
		c0,0-8.2-99.6-1.5-136.5c0,0,3.8-14.3,7.1-3c0,0,8.3-40.3,15.6-52.8c0.5-0.8,0.9-1.5,1.4-2.1c6.7-8.1,6.8,0.1,7.2,8.8
		c0.1,1.2,0.1,2.4,0.2,3.5c0.7,9.7,36.8-41,50.3-46.3c13.5-5.3,3.3,1.6,3.3,1.6s3.9-2.6,8.3-5c5.3-2.9,11.7,0.9,11.7,6.9
		C221.8,330.2,220.6,342.5,214.8,350.9z"/>
	<path class="st20" d="M209.5,314.8c-4.2,2.3-7.7,4.7-7.7,4.7s10.2-6.9-3.3-1.6c-13.5,5.3-49.6,56-50.3,46.3
		c-0.1-1.2-0.1-2.3-0.2-3.5c-0.4-8.7-0.6-16.9-7.2-8.8c-0.5,0.6-0.9,1.2-1.4,2.1c-7.3,12.5-15.6,52.8-15.6,52.8
		c-3.4-11.3-7.1,3-7.1,3c-6.8,36.9,1.5,136.5,1.5,136.5c1.4,5.2,3.6,7.8,5.6,8.9c-0.4-1.9-1-4-1.8-6.5c-9.1-27.8,0-139.9,0-139.9
		l5.9,10.9l1.8-10.5c-1.4-17.3,11.3-56.9,13.4-51.3c1.6,4.3,5.6,21.5,5.6,21.5C174.3,334.1,196.7,323.3,209.5,314.8z"/>
	<path class="st2" d="M398.9,514.3c0,0-12.2,3.2-22.7-5.9c0,0-3.3-3.3-0.5-9.1c0,0,12.7-3.5,20.1-0.6c7.4,2.9-0.5-0.8-0.5-0.8
		l11.8,4.8C407,502.7,407,514.3,398.9,514.3z"/>
	<path class="st28" d="M379,499.2c0,0-4.2,10.7,7.2,12.5c0,0,14.3,3.1,19.1-1.7c0,0-3.3,10-24,2.4c-0.1-0.3-11.4-5.9-3.8-14.5
		L379,499.2z"/>
	<path class="st2" d="M404.2,498.4c0,0-11.3,5.2-25.3,0c0,0-2.4-1.1-3.4-3.7c-0.7-1.9,0.2-4,2-4.8c3.9-1.6,11.7-4.5,17.9-3.7
		C405.9,487.5,412.6,496.7,404.2,498.4z"/>
	<path class="st28" d="M377.4,489.4C377.4,489.4,377.4,489.4,377.4,489.4c0.3,0.7-5.7,10,13,11.4c0,0,14.7-0.5,17.7-6.4
		c0,0,0.2,10.4-22.2,8.2c0,0-10.1,3-11.5-8C374.1,492.4,375.4,490.3,377.4,489.4L377.4,489.4z"/>
</g>
</svg>
