<svg id="Capa_1" data-name="Capa 1" xmlns="http://www.w3.org/2000/svg" viewBox="0 0 453.89 163.48"><defs><style>.cls-1{fill:#ba6516;}.cls-2{fill:#ec7e16;}.cls-3,.cls-7{fill:none;stroke-linecap:round;}.cls-3{stroke:#f0a15b;stroke-width:1.77px;}.cls-11,.cls-4{fill:#fff;}.cls-5{fill:#3c58a0;}.cls-6{fill:#4b67ab;}.cls-7{stroke:#8093c9;stroke-width:2.24px;}.cls-8{isolation:isolate;}.cls-9{fill:#43821b;}.cls-10{fill:#53bc24;}.cls-11{fill-opacity:0.6;}.cls-12{fill:#311c3b;}</style></defs><title>Mesa de trabajo 2</title><path class="cls-1" d="M9.14,44.59A14.19,14.19,0,0,1,22,29.16L34.33,28l11.25,6.09,5.3-.49,9.94-8,35.31-3.26L299.7,3.53l5.87,63.57L102,85.88l-9.94,8-5.3.49L75.51,88.33,63.15,89.47A14.19,14.19,0,0,0,50.32,104.9l1.47,15.89a14.19,14.19,0,0,0,15.43,12.82L106.07,130l1.63,17.66L71.5,151l-9.94,8-5.3.49L45,153.47l-11.48,1.06a14.19,14.19,0,0,1-15.43-12.82Zm190.95-23-61.8,5.7.81,8.83c1.63,17.66-15.43-12.82-12.9,14.55S139.92,45,141.55,62.64L142.69,75l61.8-5.7Z"/><path class="cls-2" d="M7.22,43A14.19,14.19,0,0,1,20,27.56L32.4,26.42,43.64,32.5l5.3-.49,9.94-8L94.2,20.71,297.77,1.93l5.87,63.57L100.06,84.28l-9.94,8-5.3.49L73.58,86.72,61.22,87.87A14.19,14.19,0,0,0,48.4,103.29l1.47,15.89A14.19,14.19,0,0,0,65.29,132l38.85-3.59,1.63,17.66-36.2,3.34-9.94,8-5.3.49-11.25-6.09-11.48,1.06A14.19,14.19,0,0,1,16.18,140.1ZM198.17,20l-61.8,5.7.81,8.83c1.63,17.66-15.43-12.82-12.9,14.55S138,43.38,139.62,61l1.14,12.36,61.8-5.7Z"/><path class="cls-3" d="M8,42a13.3,13.3,0,0,1,12.1-13.58L32.48,27.3l11.25,6.09L49,32.9l9.94-8L93.4,21.68m0,0L297,2.89M54.36,129.47a15.07,15.07,0,0,0,11,3.42l38-3.5M21.8,149a13.3,13.3,0,0,1-4.74-9l-9-97.11m191-22.08,4.4,47.67-61.8,5.7M130.51,60.64l6.16-4.31"/><path class="cls-4" d="M29.45,55.64a1.21,1.21,0,0,1,.05-.49,1.25,1.25,0,0,1,.23-.42,1.29,1.29,0,0,1,.38-.3,1.24,1.24,0,0,1,.48-.15l4.27-.39a11,11,0,0,1,1.86,0,4.75,4.75,0,0,1,1.62.4,3.08,3.08,0,0,1,1.19,1A3.62,3.62,0,0,1,40,58a2.66,2.66,0,0,1-.45.95,3.12,3.12,0,0,1-.84.77,4.73,4.73,0,0,1-1.26.54v0a4,4,0,0,1,1.21.22,2.16,2.16,0,0,1,.81.52,2.45,2.45,0,0,1,.51.83A7.45,7.45,0,0,1,40.34,63c.08.38.15.73.21,1.07l.17.89.14.83v.11a1.1,1.1,0,0,1-.31.9,1.21,1.21,0,0,1-.38.26,1.43,1.43,0,0,1-.45.12,1.44,1.44,0,0,1-.44,0,1.21,1.21,0,0,1-.41-.16,1.1,1.1,0,0,1-.33-.31,1.37,1.37,0,0,1-.2-.47q-.2-1-.33-1.76t-.28-1.29a3.91,3.91,0,0,0-.32-.87,1.31,1.31,0,0,0-.47-.51,1.69,1.69,0,0,0-.72-.22,5.64,5.64,0,0,0-1.06,0l-2.63.24L33,66.58a1.21,1.21,0,0,1-.06.54,1.09,1.09,0,0,1-.25.4,1.28,1.28,0,0,1-.38.26,1.43,1.43,0,0,1-.45.12,1.41,1.41,0,0,1-.47,0,1.21,1.21,0,0,1-.42-.19,1.06,1.06,0,0,1-.32-.35,1.21,1.21,0,0,1-.16-.52Zm5,4.26a11.56,11.56,0,0,0,1.18-.17,3.43,3.43,0,0,0,1.05-.38,1.94,1.94,0,0,0,.73-.71,1.91,1.91,0,0,0,.2-1.17,2,2,0,0,0-.37-1.09,1.73,1.73,0,0,0-.74-.55,2.72,2.72,0,0,0-1-.18,8.83,8.83,0,0,0-1,0L32,55.91l.38,4.17Z"/><path class="cls-4" d="M45.31,66.68a1.17,1.17,0,0,1-.48-.06,1.39,1.39,0,0,1-.42-.23,1.31,1.31,0,0,1-.31-.36,1.09,1.09,0,0,1-.15-.46l-1-11.19a1.24,1.24,0,0,1,.27-.89,1.26,1.26,0,0,1,.36-.31A1.13,1.13,0,0,1,44,53l6.9-.64a1,1,0,0,1,.42,0,.88.88,0,0,1,.31.19.86.86,0,0,1,.2.28,1,1,0,0,1,.09.34,1.07,1.07,0,0,1,0,.35.86.86,0,0,1-.15.32.91.91,0,0,1-.27.24,1,1,0,0,1-.41.12l-5.63.52.35,3.84,5.27-.49a1,1,0,0,1,.42,0,.91.91,0,0,1,.32.19.85.85,0,0,1,.2.28,1,1,0,0,1,.09.34,1,1,0,0,1,0,.35,1,1,0,0,1-.15.32.91.91,0,0,1-.27.24,1,1,0,0,1-.41.12L46,60.52l.38,4.16,5.84-.54a1,1,0,0,1,.42,0,.88.88,0,0,1,.31.19.86.86,0,0,1,.2.28,1,1,0,0,1,.09.34,1.09,1.09,0,0,1,0,.35.86.86,0,0,1-.42.56,1,1,0,0,1-.4.12Z"/><path class="cls-4" d="M58.06,59.94l.4,4.3a1.25,1.25,0,0,1-.06.55,1.09,1.09,0,0,1-.25.41,1.19,1.19,0,0,1-.39.27,1.5,1.5,0,0,1-.46.12,1.48,1.48,0,0,1-.47,0,1.22,1.22,0,0,1-.43-.19,1.12,1.12,0,0,1-.33-.36,1.25,1.25,0,0,1-.16-.53l-1-11.16a1.25,1.25,0,0,1,.05-.5,1.23,1.23,0,0,1,.24-.43,1.3,1.3,0,0,1,.38-.31,1.25,1.25,0,0,1,.49-.15l3.84-.35a9.19,9.19,0,0,1,2,0,5.07,5.07,0,0,1,1.75.55,3.57,3.57,0,0,1,1.27,1.15,4.36,4.36,0,0,1,.33,3.79,3.57,3.57,0,0,1-1.08,1.37,5.24,5.24,0,0,1-1.7.86,10.21,10.21,0,0,1-2.1.41Zm2.07-2a6.2,6.2,0,0,0,1.21-.23,2.8,2.8,0,0,0,.94-.47,1.91,1.91,0,0,0,.58-.78A2.39,2.39,0,0,0,63,55.38a2.35,2.35,0,0,0-.33-1.08,1.88,1.88,0,0,0-.7-.65,2.72,2.72,0,0,0-1-.29,5.88,5.88,0,0,0-1.18,0l-2.32.21.43,4.64Z"/><path class="cls-4" d="M69.91,64.41a1.17,1.17,0,0,1-.48-.06,1.39,1.39,0,0,1-.42-.23,1.3,1.3,0,0,1-.31-.36,1.09,1.09,0,0,1-.15-.46l-1-11.19a1.23,1.23,0,0,1,.27-.89,1.26,1.26,0,0,1,.36-.31,1.12,1.12,0,0,1,.46-.14l6.9-.64a1,1,0,0,1,.42,0,.9.9,0,0,1,.31.19.89.89,0,0,1,.2.28,1.09,1.09,0,0,1,.06.69.87.87,0,0,1-.15.32.89.89,0,0,1-.27.24,1,1,0,0,1-.41.12l-5.63.52.35,3.84,5.27-.49a1,1,0,0,1,.42,0,.9.9,0,0,1,.32.19.87.87,0,0,1,.2.28,1.06,1.06,0,0,1,.09.34,1,1,0,0,1,0,.35,1,1,0,0,1-.15.32.9.9,0,0,1-.27.24,1,1,0,0,1-.4.12l-5.27.49L71,62.41l5.84-.54a1,1,0,0,1,.42,0,.9.9,0,0,1,.31.19.89.89,0,0,1,.2.28,1.07,1.07,0,0,1,.09.34,1.09,1.09,0,0,1,0,.35.86.86,0,0,1-.42.56,1,1,0,0,1-.41.12Z"/><path class="cls-4" d="M78.72,51.77a1.09,1.09,0,0,1-.44,0,.85.85,0,0,1-.32-.19.91.91,0,0,1-.21-.29,1,1,0,0,1-.09-.35,1,1,0,0,1,0-.36.87.87,0,0,1,.16-.33,1,1,0,0,1,.28-.25,1,1,0,0,1,.42-.12l9-.83a1,1,0,0,1,.42,0,1,1,0,0,1,.32.19.88.88,0,0,1,.21.29,1.06,1.06,0,0,1,.09.34,1.05,1.05,0,0,1,0,.36,1,1,0,0,1-.15.32.82.82,0,0,1-.28.25,1.05,1.05,0,0,1-.42.12l-3.19.29,1,10.5a1.26,1.26,0,0,1-.06.55,1.17,1.17,0,0,1-.64.69,1.46,1.46,0,0,1-.93.09,1.19,1.19,0,0,1-.43-.19,1.15,1.15,0,0,1-.33-.36,1.25,1.25,0,0,1-.16-.53l-1-10.5Z"/><path class="cls-4" d="M90.56,50a1.25,1.25,0,0,1,.06-.54,1.13,1.13,0,0,1,.25-.41,1.24,1.24,0,0,1,.39-.26,1.48,1.48,0,0,1,.93-.09,1.27,1.27,0,0,1,.43.19,1.12,1.12,0,0,1,.32.36,1.24,1.24,0,0,1,.16.53l1,11.2a1.22,1.22,0,0,1-.06.54,1.13,1.13,0,0,1-.25.41,1.24,1.24,0,0,1-.39.27,1.53,1.53,0,0,1-.46.12,1.48,1.48,0,0,1-.47,0,1.18,1.18,0,0,1-.42-.19,1.15,1.15,0,0,1-.32-.35,1.21,1.21,0,0,1-.16-.52Z"/><path class="cls-4" d="M96.55,49.45A1.18,1.18,0,0,1,96.6,49a1.24,1.24,0,0,1,.23-.42,1.31,1.31,0,0,1,.38-.3,1.24,1.24,0,0,1,.48-.14l4.27-.39a10.87,10.87,0,0,1,1.86,0,4.75,4.75,0,0,1,1.62.4,3.07,3.07,0,0,1,1.19,1,3.62,3.62,0,0,1,.5,2.77,2.67,2.67,0,0,1-.45,1,3.14,3.14,0,0,1-.84.77,4.71,4.71,0,0,1-1.25.54v0a4,4,0,0,1,1.21.22,2.18,2.18,0,0,1,.81.52,2.47,2.47,0,0,1,.51.83,7.34,7.34,0,0,1,.32,1.12q.12.56.21,1.07l.17.89.14.83v.11a1.13,1.13,0,0,1-.06.51,1.12,1.12,0,0,1-.25.39,1.21,1.21,0,0,1-.38.26,1.45,1.45,0,0,1-.89.09,1.19,1.19,0,0,1-.41-.16,1.1,1.1,0,0,1-.33-.31,1.33,1.33,0,0,1-.2-.47q-.2-1-.33-1.76T104.85,57a4,4,0,0,0-.32-.87,1.32,1.32,0,0,0-.47-.51,1.69,1.69,0,0,0-.72-.22,5.64,5.64,0,0,0-1.06,0l-2.63.24.44,4.77a1.24,1.24,0,0,1-.06.54,1.09,1.09,0,0,1-.26.4,1.27,1.27,0,0,1-.38.26,1.46,1.46,0,0,1-.92.08,1.21,1.21,0,0,1-.42-.19,1.08,1.08,0,0,1-.32-.35,1.21,1.21,0,0,1-.16-.52Zm5,4.26a11.54,11.54,0,0,0,1.18-.17,3.47,3.47,0,0,0,1.05-.38,1.94,1.94,0,0,0,.73-.71,1.91,1.91,0,0,0,.2-1.17,2,2,0,0,0-.37-1.09,1.72,1.72,0,0,0-.74-.55,2.74,2.74,0,0,0-1-.18,9.32,9.32,0,0,0-1,0l-2.51.23.38,4.17Z"/><path class="cls-4" d="M223.65,48.23h0l2.58-11.12a1.19,1.19,0,0,1,1.51-.92,1.33,1.33,0,0,1,.39.19,1.07,1.07,0,0,1,.29.32,1,1,0,0,1,.13.42c0,.06,0,.11,0,.17a1,1,0,0,1,0,.18l-2.76,10.9a3.2,3.2,0,0,1-.27.81,1.75,1.75,0,0,1-1,.88,2.89,2.89,0,0,1-.72.15,3.12,3.12,0,0,1-.72,0,1.66,1.66,0,0,1-.61-.21,1.85,1.85,0,0,1-.52-.46,3.38,3.38,0,0,1-.43-.76L216.79,38.6a1.11,1.11,0,0,1-.09-.35,1,1,0,0,1,.06-.46,1.13,1.13,0,0,1,.24-.38,1.34,1.34,0,0,1,.37-.28,1.27,1.27,0,0,1,.46-.13,1.16,1.16,0,0,1,.71.16,1.18,1.18,0,0,1,.49.58Z"/><path class="cls-4" d="M233.26,49.33a1.15,1.15,0,0,1-.48-.05,1.39,1.39,0,0,1-.42-.23,1.32,1.32,0,0,1-.31-.36,1.09,1.09,0,0,1-.15-.46l-1-11.19a1.24,1.24,0,0,1,.27-.89,1.24,1.24,0,0,1,.36-.31,1.13,1.13,0,0,1,.46-.14l6.9-.64a1,1,0,0,1,.42,0,.88.88,0,0,1,.31.19.86.86,0,0,1,.2.28,1,1,0,0,1,.09.34,1.07,1.07,0,0,1,0,.35.86.86,0,0,1-.15.32.91.91,0,0,1-.27.24,1,1,0,0,1-.41.12l-5.63.52.35,3.84,5.27-.49a1,1,0,0,1,.42,0,.89.89,0,0,1,.32.19.85.85,0,0,1,.2.28,1,1,0,0,1,.09.34,1,1,0,0,1,0,.35,1,1,0,0,1-.15.32.94.94,0,0,1-.27.24,1,1,0,0,1-.41.12l-5.27.49.38,4.16,5.84-.54a1,1,0,0,1,.42,0,.87.87,0,0,1,.31.19.85.85,0,0,1,.2.28,1,1,0,0,1,.09.34,1.08,1.08,0,0,1,0,.35.85.85,0,0,1-.15.32.86.86,0,0,1-.27.24,1,1,0,0,1-.4.12Z"/><path class="cls-4" d="M242.66,41.65a8.85,8.85,0,0,1,.2-3A6.69,6.69,0,0,1,244,36.23a5.77,5.77,0,0,1,1.9-1.62,6.5,6.5,0,0,1,2.51-.73,8.23,8.23,0,0,1,1.8,0,10.43,10.43,0,0,1,2,.46.93.93,0,0,1,.49.34,1,1,0,0,1,.16.85,1,1,0,0,1-.15.32.88.88,0,0,1-.26.24.86.86,0,0,1-.37.12,1.11,1.11,0,0,1-.39,0,8.29,8.29,0,0,0-2.76-.29,4.23,4.23,0,0,0-1.71.5A3.37,3.37,0,0,0,246,37.52a4.54,4.54,0,0,0-.63,1.67,8,8,0,0,0-.07,2.18,8.3,8.3,0,0,0,.42,2,4.58,4.58,0,0,0,.86,1.51,3.38,3.38,0,0,0,1.29.92,3.64,3.64,0,0,0,1.72.21A6.37,6.37,0,0,0,251,45.7a9.71,9.71,0,0,0,1.63-.75,1,1,0,0,1,.23-.1l.22,0a.81.81,0,0,1,.36,0,.84.84,0,0,1,.29.18,1,1,0,0,1,.2.29,1,1,0,0,1,.09.35,1.14,1.14,0,0,1-.12.6,1.27,1.27,0,0,1-.53.53,9.32,9.32,0,0,1-3.82,1.35,6.28,6.28,0,0,1-2.6-.28,5.69,5.69,0,0,1-2.12-1.26,6.67,6.67,0,0,1-1.49-2.12A8.71,8.71,0,0,1,242.66,41.65Z"/><path class="cls-4" d="M258.73,47a1.17,1.17,0,0,1-.48-.06,1.37,1.37,0,0,1-.42-.23,1.29,1.29,0,0,1-.31-.36,1.09,1.09,0,0,1-.15-.46l-1-11.19a1.22,1.22,0,0,1,0-.47,1.21,1.21,0,0,1,.22-.42,1.26,1.26,0,0,1,.36-.31,1.15,1.15,0,0,1,.46-.14l6.9-.64a1,1,0,0,1,.42,0,.9.9,0,0,1,.31.19.88.88,0,0,1,.2.28,1.06,1.06,0,0,1,.09.34,1.11,1.11,0,0,1,0,.35.87.87,0,0,1-.42.56,1,1,0,0,1-.41.12l-5.63.52.35,3.84,5.27-.49a1,1,0,0,1,.42,0,.87.87,0,0,1,.52.47,1.06,1.06,0,0,1,.09.34,1,1,0,0,1,0,.35,1,1,0,0,1-.15.32.9.9,0,0,1-.27.24,1,1,0,0,1-.41.12l-5.27.49.38,4.16,5.84-.54a1,1,0,0,1,.42,0,.89.89,0,0,1,.31.19.88.88,0,0,1,.2.28,1,1,0,0,1,.09.34,1.11,1.11,0,0,1,0,.35.87.87,0,0,1-.42.56,1,1,0,0,1-.41.12Z"/><path class="cls-4" d="M270.53,35.59a1.46,1.46,0,0,0,.4.92,2.64,2.64,0,0,0,.88.58,6.92,6.92,0,0,0,1.22.36l1.4.29q.93.19,1.73.44a5.45,5.45,0,0,1,1.42.66,3.41,3.41,0,0,1,1,1,3.3,3.3,0,0,1,.47,1.5,3.62,3.62,0,0,1-1.2,3.12,5.1,5.1,0,0,1-1.61,1,8.06,8.06,0,0,1-2.16.48,9.28,9.28,0,0,1-1.73,0,7.78,7.78,0,0,1-1.52-.29,5.51,5.51,0,0,1-1.23-.53,3.13,3.13,0,0,1-.86-.73.67.67,0,0,1-.11-.32.9.9,0,0,1,0-.36,1.31,1.31,0,0,1,.16-.34,1.09,1.09,0,0,1,.24-.27.53.53,0,0,1,.28-.12.62.62,0,0,1,.34.08l.35.18a6.56,6.56,0,0,0,.73.33,6.35,6.35,0,0,0,.89.27,7.72,7.72,0,0,0,1,.15,6.82,6.82,0,0,0,1.16,0,5.33,5.33,0,0,0,1.12-.22,3,3,0,0,0,.87-.43,1.77,1.77,0,0,0,.55-.64,1.56,1.56,0,0,0,.14-.86,1.61,1.61,0,0,0-.41-1,2.66,2.66,0,0,0-.89-.6,6,6,0,0,0-1.21-.37l-1.37-.29-.63-.15-.73-.2-.7-.24a3.86,3.86,0,0,1-.54-.25,3,3,0,0,1-2-2.76,3.34,3.34,0,0,1,.24-1.66,3.66,3.66,0,0,1,1-1.31,5.15,5.15,0,0,1,1.56-.91,7.62,7.62,0,0,1,2-.45,7.53,7.53,0,0,1,2.65.18,5.38,5.38,0,0,1,2.1,1.08.76.76,0,0,1,.2.26,1,1,0,0,1,.08.31,1.22,1.22,0,0,1,0,.33.94.94,0,0,1-.12.33.81.81,0,0,1-.25.26.82.82,0,0,1-.39.13,1,1,0,0,1-.62-.23,6.17,6.17,0,0,0-.63-.31,5.28,5.28,0,0,0-.78-.26,6.33,6.33,0,0,0-.89-.15,5.19,5.19,0,0,0-1,0,5.07,5.07,0,0,0-1,.19,3.28,3.28,0,0,0-.87.4,1.92,1.92,0,0,0-.6.61A1.32,1.32,0,0,0,270.53,35.59Z"/><path class="cls-5" d="M97.63,106.2a17.89,17.89,0,0,1,18.63-17.11l15.64.66,13,9.51,6.7.28,13.78-8.37,219.51,9.33-2.47,58.08-220.63-9.38L148,157.57l-6.7-.28-13-9.51-14.52-.62a17.89,17.89,0,0,1-17.11-18.63Z"/><path class="cls-6" d="M95.49,103.87a17.89,17.89,0,0,1,18.63-17.11l15.64.66,13,9.51,6.7.28,13.78-8.37,219.51,9.33-2.47,58.08-220.63-9.38-13.78,8.37-6.7-.28-13-9.51-14.52-.62a17.89,17.89,0,0,1-17.11-18.63Z"/><path class="cls-7" d="M96.65,102.8a16.77,16.77,0,0,1,17.42-14.92l15.64.66,13,9.51,6.7.28L163.21,90l218.39,9.28M100.06,138.31a16.77,16.77,0,0,1-4.4-12.06l.95-22.34"/><g class="cls-8"><path class="cls-4" d="M123.13,119.92l11-10.12a1.78,1.78,0,0,1,1.4-.53,2.61,2.61,0,0,1,1.54.65l9.92,11a1.31,1.31,0,0,1,.72,1.4,2.61,2.61,0,0,1-.65,1.54L145.85,125a2.38,2.38,0,0,1-3.13-.13l-4.5-4.9-.48,11.35a2,2,0,0,1-2,1.87l-2-.08a2,2,0,0,1-1.87-2l.49-11.55-5.3,4.68a1.93,1.93,0,0,1-1.59.52,2.6,2.6,0,0,1-1.54-.65l-1.12-1.22a1.93,1.93,0,0,1-.52-1.59A1.31,1.31,0,0,1,123.13,119.92Z"/></g><path class="cls-4" d="M188.82,127.13l5.33-10.8a7.69,7.69,0,0,1,.6-1.11,3.06,3.06,0,0,1,.62-.7,1.82,1.82,0,0,1,.69-.35,2.94,2.94,0,0,1,.84-.07,2.61,2.61,0,0,1,.86.18,1.94,1.94,0,0,1,.71.49,2.21,2.21,0,0,1,.47.83,3.37,3.37,0,0,1,.14,1.2l-.56,13.27a1.49,1.49,0,0,1-.14.6,1.26,1.26,0,0,1-.32.42,1.33,1.33,0,0,1-.45.25,1.43,1.43,0,0,1-.5.07,1.34,1.34,0,0,1-.48-.11,1.36,1.36,0,0,1-.41-.28,1.25,1.25,0,0,1-.29-.45,1.49,1.49,0,0,1-.09-.61l.54-12.77-5.83,12a2.06,2.06,0,0,1-.81,1,2,2,0,0,1-.54.24,1.84,1.84,0,0,1-1.61-.31,2,2,0,0,1-.71-1.07l-4.79-12.36-.54,12.69a1.48,1.48,0,0,1-.14.6,1.26,1.26,0,0,1-.32.42,1.35,1.35,0,0,1-.44.25,1.41,1.41,0,0,1-.5.07,1.39,1.39,0,0,1-.49-.11,1.27,1.27,0,0,1-.42-.28,1.31,1.31,0,0,1-.28-.44,1.48,1.48,0,0,1-.09-.61l.56-13.27a3.38,3.38,0,0,1,.24-1.18,2.16,2.16,0,0,1,.54-.78,2,2,0,0,1,.76-.42,2.72,2.72,0,0,1,.89-.11,2.86,2.86,0,0,1,.83.15,1.93,1.93,0,0,1,.67.41,2.92,2.92,0,0,1,.56.75,8,8,0,0,1,.5,1.16l4.31,11.18Z"/><path class="cls-4" d="M202.33,123a11.87,11.87,0,0,1,.7-3.66,8,8,0,0,1,1.71-2.78,7.09,7.09,0,0,1,2.68-1.73,10.09,10.09,0,0,1,7.14.3,7.1,7.1,0,0,1,2.52,2,7.89,7.89,0,0,1,1.46,2.92,12.92,12.92,0,0,1-.31,7.35,7.92,7.92,0,0,1-1.7,2.78,7.11,7.11,0,0,1-2.68,1.73,10.08,10.08,0,0,1-7.14-.3,7.11,7.11,0,0,1-2.52-2,8,8,0,0,1-1.47-2.91A11.8,11.8,0,0,1,202.33,123Zm3.4.14a11.81,11.81,0,0,0,.17,2.67,6.17,6.17,0,0,0,.79,2.14,4.27,4.27,0,0,0,1.46,1.45,5.15,5.15,0,0,0,4.42.19,4.28,4.28,0,0,0,1.58-1.32,6.22,6.22,0,0,0,1-2.06,11.53,11.53,0,0,0,.4-2.65,11.73,11.73,0,0,0-.17-2.66,6.23,6.23,0,0,0-.79-2.14,4.29,4.29,0,0,0-1.47-1.46,5.13,5.13,0,0,0-4.43-.19,4.24,4.24,0,0,0-1.58,1.33,6.33,6.33,0,0,0-1,2.07A11.76,11.76,0,0,0,205.72,123.14Z"/><path class="cls-4" d="M227.06,130.17h0l5.1-13.46a1.49,1.49,0,0,1,1.49-1,1.45,1.45,0,0,1,.56.13,1.65,1.65,0,0,1,.46.31,1.34,1.34,0,0,1,.31.45,1.25,1.25,0,0,1,.1.54l0,.22a1.3,1.3,0,0,1-.06.23l-5.29,13.15a4.07,4.07,0,0,1-.48,1,2.27,2.27,0,0,1-.63.62,2.31,2.31,0,0,1-.78.32,3.72,3.72,0,0,1-.93.07,3.94,3.94,0,0,1-.9-.13,2.12,2.12,0,0,1-.73-.37,2.33,2.33,0,0,1-.57-.67,4.32,4.32,0,0,1-.41-1L220.11,117a1.38,1.38,0,0,1-.05-.45,1.29,1.29,0,0,1,.15-.56,1.41,1.41,0,0,1,.36-.44,1.69,1.69,0,0,1,.51-.29,1.57,1.57,0,0,1,.6-.09,1.46,1.46,0,0,1,.86.32,1.48,1.48,0,0,1,.51.81Z"/><path class="cls-4" d="M238.88,133.18a1.44,1.44,0,0,1-.59-.15,1.71,1.71,0,0,1-.48-.36,1.68,1.68,0,0,1-.33-.51,1.38,1.38,0,0,1-.11-.6l.6-14.16a1.57,1.57,0,0,1,.48-1.06,1.57,1.57,0,0,1,.5-.32,1.43,1.43,0,0,1,.6-.1l8.74.37a1.23,1.23,0,0,1,.52.13,1.13,1.13,0,0,1,.36.28,1.11,1.11,0,0,1,.21.39,1.35,1.35,0,0,1,.05.44,1.36,1.36,0,0,1-.09.43,1.1,1.1,0,0,1-.24.38,1.11,1.11,0,0,1-.38.25,1.25,1.25,0,0,1-.53.08l-7.13-.3-.21,4.86,6.67.28a1.31,1.31,0,0,1,.52.12,1.09,1.09,0,0,1,.57.67,1.37,1.37,0,0,1,.05.44,1.26,1.26,0,0,1-.1.43,1.17,1.17,0,0,1-.24.37,1.12,1.12,0,0,1-.38.25,1.23,1.23,0,0,1-.53.08l-6.67-.28-.22,5.27,7.39.31a1.23,1.23,0,0,1,.52.12,1.11,1.11,0,0,1,.36.29,1.08,1.08,0,0,1,.21.39,1.35,1.35,0,0,1,0,.87,1.09,1.09,0,0,1-.24.38,1.11,1.11,0,0,1-.38.25,1.24,1.24,0,0,1-.53.08Z"/><path class="cls-4" d="M253.14,118.07a1.52,1.52,0,0,1,.15-.61,1.54,1.54,0,0,1,.36-.48,1.64,1.64,0,0,1,.52-.31,1.57,1.57,0,0,1,.62-.1l5.4.23a13.88,13.88,0,0,1,2.33.29,5.94,5.94,0,0,1,2,.77,3.87,3.87,0,0,1,1.33,1.41,4.57,4.57,0,0,1,.15,3.54,3.34,3.34,0,0,1-.72,1.11,3.94,3.94,0,0,1-1.18.82,5.94,5.94,0,0,1-1.66.47v0a5.1,5.1,0,0,1,1.47.48,2.7,2.7,0,0,1,.92.79,3.11,3.11,0,0,1,.5,1.12,9.4,9.4,0,0,1,.21,1.45q.05.72.09,1.37t.06,1.14q0,.58,0,1.06v.14a1.41,1.41,0,0,1-.16.63,1.45,1.45,0,0,1-.38.45,1.56,1.56,0,0,1-.52.26,1.79,1.79,0,0,1-.59.07,1.84,1.84,0,0,1-.54-.11,1.58,1.58,0,0,1-.48-.27,1.4,1.4,0,0,1-.35-.45,1.68,1.68,0,0,1-.17-.62q-.08-1.29-.12-2.25t-.13-1.66a4.93,4.93,0,0,0-.26-1.15,1.67,1.67,0,0,0-.5-.72,2.12,2.12,0,0,0-.86-.39,7.15,7.15,0,0,0-1.32-.16l-3.32-.14-.26,6a1.53,1.53,0,0,1-.17.67,1.36,1.36,0,0,1-.39.46,1.62,1.62,0,0,1-.52.26,1.8,1.8,0,0,1-.59.07,1.77,1.77,0,0,1-.58-.12,1.54,1.54,0,0,1-.49-.3,1.39,1.39,0,0,1-.34-.49,1.55,1.55,0,0,1-.11-.68Zm5.5,6.16a14.6,14.6,0,0,0,1.5,0,4.4,4.4,0,0,0,1.38-.3,2.45,2.45,0,0,0,1-.76,2.4,2.4,0,0,0,.44-1.42,2.58,2.58,0,0,0-.28-1.43,2.2,2.2,0,0,0-.83-.82,3.46,3.46,0,0,0-1.16-.39,11.44,11.44,0,0,0-1.26-.12l-3.18-.14-.22,5.28Z"/><path class="cls-4" d="M290.7,133.49a1.46,1.46,0,0,1,.06.48,1.21,1.21,0,0,1-.16.58,1.36,1.36,0,0,1-.38.42,1.67,1.67,0,0,1-.53.25,1.82,1.82,0,0,1-.59.07,1.54,1.54,0,0,1-.82-.28,1.22,1.22,0,0,1-.49-.8L286.67,131l-7.69-.33-1.37,3.15a1.26,1.26,0,0,1-.56.76,1.49,1.49,0,0,1-.82.21,1.81,1.81,0,0,1-.57-.12,1.61,1.61,0,0,1-.5-.3,1.42,1.42,0,0,1-.34-.45,1.15,1.15,0,0,1-.11-.57,1.72,1.72,0,0,1,0-.25,1,1,0,0,1,.09-.26l5.57-12.38a9,9,0,0,1,.66-1.35,3.26,3.26,0,0,1,.68-.81,1.93,1.93,0,0,1,.76-.39,3.14,3.14,0,0,1,.9-.08,3.1,3.1,0,0,1,.91.17,1.93,1.93,0,0,1,.73.47,3.39,3.39,0,0,1,.61.87,8.87,8.87,0,0,1,.53,1.38Zm-7.44-13.24-3.53,8.4,6.37.27-2.79-8.67Z"/><path class="cls-4" d="M294.21,119.82a1.52,1.52,0,0,1,.15-.61,1.55,1.55,0,0,1,.36-.48,1.64,1.64,0,0,1,.52-.31,1.57,1.57,0,0,1,.62-.1l5.4.23a13.9,13.9,0,0,1,2.33.29,5.94,5.94,0,0,1,2,.77,3.86,3.86,0,0,1,1.33,1.41,4.57,4.57,0,0,1,.15,3.54,3.36,3.36,0,0,1-.72,1.11,3.92,3.92,0,0,1-1.18.82,5.9,5.9,0,0,1-1.66.47v0a5.13,5.13,0,0,1,1.47.48,2.7,2.7,0,0,1,.92.79,3.11,3.11,0,0,1,.5,1.12,9.44,9.44,0,0,1,.21,1.45q.05.72.09,1.37t.06,1.14c0,.39,0,.74,0,1.06v.14a1.41,1.41,0,0,1-.16.63,1.45,1.45,0,0,1-.38.45,1.55,1.55,0,0,1-.52.26,1.82,1.82,0,0,1-1.13,0,1.57,1.57,0,0,1-.48-.27,1.41,1.41,0,0,1-.35-.45,1.69,1.69,0,0,1-.17-.62q-.08-1.29-.12-2.25t-.13-1.66a4.92,4.92,0,0,0-.26-1.15,1.67,1.67,0,0,0-.5-.72,2.13,2.13,0,0,0-.86-.39,7.26,7.26,0,0,0-1.32-.16l-3.32-.14-.26,6a1.53,1.53,0,0,1-.17.67,1.36,1.36,0,0,1-.39.46,1.64,1.64,0,0,1-.52.26,1.81,1.81,0,0,1-1.16,0,1.54,1.54,0,0,1-.49-.3,1.38,1.38,0,0,1-.34-.49,1.55,1.55,0,0,1-.11-.68Zm5.5,6.16a14.88,14.88,0,0,0,1.5,0,4.4,4.4,0,0,0,1.38-.3,2.46,2.46,0,0,0,1-.76,2.4,2.4,0,0,0,.44-1.42,2.58,2.58,0,0,0-.28-1.43,2.2,2.2,0,0,0-.83-.82,3.47,3.47,0,0,0-1.16-.39,11.45,11.45,0,0,0-1.26-.12l-3.18-.14-.22,5.28Z"/><path class="cls-4" d="M311.27,120.54a1.51,1.51,0,0,1,.15-.61,1.53,1.53,0,0,1,.36-.48,1.61,1.61,0,0,1,.52-.31,1.53,1.53,0,0,1,.62-.1l5.4.23a14,14,0,0,1,2.33.29,6,6,0,0,1,2,.78,3.87,3.87,0,0,1,1.33,1.41,4.56,4.56,0,0,1,.15,3.54,3.35,3.35,0,0,1-.72,1.11,4,4,0,0,1-1.18.82,5.92,5.92,0,0,1-1.66.47v0a5.09,5.09,0,0,1,1.47.48,2.71,2.71,0,0,1,.92.79,3.1,3.1,0,0,1,.5,1.12,9.4,9.4,0,0,1,.22,1.45q.05.72.08,1.37t.06,1.14c0,.39,0,.74,0,1.06v.14a1.41,1.41,0,0,1-.16.63,1.44,1.44,0,0,1-.38.45,1.55,1.55,0,0,1-.52.26,1.77,1.77,0,0,1-.59.07,1.81,1.81,0,0,1-.54-.11,1.6,1.6,0,0,1-.48-.27,1.4,1.4,0,0,1-.35-.45,1.68,1.68,0,0,1-.17-.62q-.08-1.29-.12-2.25t-.13-1.66a4.92,4.92,0,0,0-.26-1.15,1.66,1.66,0,0,0-.5-.72,2.13,2.13,0,0,0-.86-.39,7.24,7.24,0,0,0-1.32-.16l-3.32-.14-.26,6a1.53,1.53,0,0,1-.17.67,1.37,1.37,0,0,1-.39.46,1.63,1.63,0,0,1-.52.26,1.83,1.83,0,0,1-1.16,0,1.54,1.54,0,0,1-.49-.3,1.4,1.4,0,0,1-.34-.49,1.54,1.54,0,0,1-.11-.68Zm5.5,6.16a14.87,14.87,0,0,0,1.5,0,4.37,4.37,0,0,0,1.38-.3,2.45,2.45,0,0,0,1-.76,2.41,2.41,0,0,0,.45-1.42,2.58,2.58,0,0,0-.28-1.43A2.2,2.2,0,0,0,320,122a3.48,3.48,0,0,0-1.16-.38,11.46,11.46,0,0,0-1.26-.13l-3.18-.13-.22,5.28Z"/><path class="cls-4" d="M328.41,121.22a1.58,1.58,0,0,1,.17-.67,1.39,1.39,0,0,1,.39-.47,1.55,1.55,0,0,1,.53-.26,1.85,1.85,0,0,1,1.18,0,1.58,1.58,0,0,1,.5.31,1.42,1.42,0,0,1,.34.5,1.58,1.58,0,0,1,.11.68l-.6,14.17a1.55,1.55,0,0,1-.17.67,1.43,1.43,0,0,1-.39.46,1.54,1.54,0,0,1-.53.27,1.92,1.92,0,0,1-.6.07,1.85,1.85,0,0,1-.58-.12,1.49,1.49,0,0,1-.5-.31,1.47,1.47,0,0,1-.34-.5,1.54,1.54,0,0,1-.11-.68Z"/><path class="cls-4" d="M335.93,121.56a1.5,1.5,0,0,1,.15-.59,1.57,1.57,0,0,1,.35-.47,1.55,1.55,0,0,1,1.12-.4l6.06.27a6.47,6.47,0,0,1,2.07.41,5.14,5.14,0,0,1,1.61,1,4,4,0,0,1,1,1.41,3.94,3.94,0,0,1,.31,1.76,3.76,3.76,0,0,1-.3,1.34,3.88,3.88,0,0,1-.74,1.13,4.33,4.33,0,0,1-1.09.84,4.13,4.13,0,0,1-1.36.45v0a5.47,5.47,0,0,1,1.61.56,4.24,4.24,0,0,1,1.21,1,4,4,0,0,1,.74,1.31,4.32,4.32,0,0,1,.21,1.59,4.89,4.89,0,0,1-.39,1.7,4,4,0,0,1-1.07,1.47,5.18,5.18,0,0,1-1.82,1,7.42,7.42,0,0,1-2.65.3l-6.16-.26a1.53,1.53,0,0,1-.6-.15,1.6,1.6,0,0,1-.48-.35,1.47,1.47,0,0,1-.31-.5,1.52,1.52,0,0,1-.09-.6Zm2.52,13.73,3,.13a10.07,10.07,0,0,0,1.76-.06,3.5,3.5,0,0,0,1.3-.42,2.1,2.1,0,0,0,.82-.87,3.39,3.39,0,0,0,.32-1.41,2.73,2.73,0,0,0-.29-1.47,2.35,2.35,0,0,0-.94-.91,4.78,4.78,0,0,0-1.49-.49,15.14,15.14,0,0,0-1.93-.2l-2.34-.1Zm.55-13-.23,5.34,3,.13a6.09,6.09,0,0,0,1.38-.09,3.3,3.3,0,0,0,1.15-.43,2.42,2.42,0,0,0,.8-.81,2.57,2.57,0,0,0,.33-1.24,2.51,2.51,0,0,0-.25-1.31,2.26,2.26,0,0,0-.76-.83,3.39,3.39,0,0,0-1.13-.46,7.93,7.93,0,0,0-1.35-.17Z"/><path class="cls-4" d="M366.43,136.71a1.46,1.46,0,0,1,.06.48,1.21,1.21,0,0,1-.16.58,1.37,1.37,0,0,1-.38.42,1.67,1.67,0,0,1-.53.25,1.85,1.85,0,0,1-.59.07,1.54,1.54,0,0,1-.82-.28,1.22,1.22,0,0,1-.49-.8l-1.11-3.26-7.69-.33L353.34,137a1.26,1.26,0,0,1-.56.76,1.49,1.49,0,0,1-.82.21,1.83,1.83,0,0,1-.57-.12,1.61,1.61,0,0,1-.5-.3,1.42,1.42,0,0,1-.34-.45,1.15,1.15,0,0,1-.11-.57,1.8,1.8,0,0,1,0-.25,1,1,0,0,1,.09-.26l5.57-12.38a9.23,9.23,0,0,1,.66-1.35,3.29,3.29,0,0,1,.68-.81,1.93,1.93,0,0,1,.76-.39,3.39,3.39,0,0,1,1.81.08,1.94,1.94,0,0,1,.73.47,3.4,3.4,0,0,1,.61.87,8.87,8.87,0,0,1,.53,1.38ZM359,123.47l-3.53,8.4,6.37.27L359,123.48Z"/><path class="cls-9" d="M355.2,26.86l89.57,13.43-11.69,77.93-89.61-13.44,2.32-15.52c4.7-31.16-28.68,21.19-21.43-27.11s23.77,11.54,28.45-19.66Z"/><path class="cls-10" d="M352.55,23.27l89.61,13.44-11.69,78-89.61-13.44,2.32-15.52c4.7-31.16-28.68,21.19-21.43-27.11S345.51,70.16,350.19,39Z"/><path class="cls-11" d="M342.21,101.43a1.58,1.58,0,0,1-1.11-1.75L343.9,81a1.58,1.58,0,1,1,3.12.47l-2.81,18.71a1.58,1.58,0,0,1-1.79,1.32Zm-19.89-23.7a1.58,1.58,0,0,1-1.12-1.32,65.48,65.48,0,0,1,5.32-35.16,1.58,1.58,0,0,1,2.87,1.3A62.33,62.33,0,0,0,324.32,76a1.58,1.58,0,0,1-2,1.71ZM350,50a1.58,1.58,0,0,1-1.11-1.75l3.45-23a1.58,1.58,0,0,1,0-.36,1.56,1.56,0,0,1,.09-.34l.18-1.19,1.27.19.25,0,86.49,13a1.58,1.58,0,0,1-.47,3.12L355.48,26.91l-.24,0L352,48.71A1.58,1.58,0,0,1,350.18,50Z"/><rect class="cls-11" x="366.05" y="41" width="50.43" height="59.1" rx="12.61" ry="12.61" transform="translate(263.44 447.01) rotate(-81.47)"/><path class="cls-12" d="M390,59.17a4.51,4.51,0,0,1,2-1.62,4.7,4.7,0,0,1,2.29-.2,4.37,4.37,0,0,1,1.24.37,3,3,0,0,1,1,.73,2.92,2.92,0,0,1,.58,1.12,3.76,3.76,0,0,1,.05,1.54l-2.07,14.27,2.21.32a1.72,1.72,0,0,1,.71.25,1.58,1.58,0,0,1,.46.46,1.55,1.55,0,0,1,.23.58,2,2,0,0,1,0,.65,1.94,1.94,0,0,1-.19.6,1.56,1.56,0,0,1-.39.49,1.6,1.6,0,0,1-.58.31,1.71,1.71,0,0,1-.75,0l-2.23-.32-.48,3.31a2,2,0,0,1-.34.89,2.08,2.08,0,0,1-.62.58,2.26,2.26,0,0,1-.78.3,2.56,2.56,0,0,1-1.65-.24,2.29,2.29,0,0,1-.66-.51,2.18,2.18,0,0,1-.43-.74,2.09,2.09,0,0,1-.1-1l.48-3.31-10.1-1.47a2.34,2.34,0,0,1-1.61-.84,2,2,0,0,1-.4-1.54,2.67,2.67,0,0,1,.19-.65,2.49,2.49,0,0,1,.41-.66Zm-7.78,14.34,8.27,1.2,2-13.65Z"/></svg>