<svg id="Capa_1" data-name="Capa 1" xmlns="http://www.w3.org/2000/svg" xmlns:xlink="http://www.w3.org/1999/xlink" viewBox="0 0 519.75 576.38"><defs><style>.cls-1{fill:none;}.cls-2{fill:#c94a27;}.cls-3{fill:#411e11;}.cls-4{fill:#fbc99c;}.cls-5{fill:#cd9565;}.cls-6{fill:#a26c39;}.cls-7{fill:#a33f23;}.cls-8{fill:#251013;}.cls-9{fill:#5d5e5f;}.cls-10{fill:#bf5228;}.cls-11{fill:#010101;}.cls-12{clip-path:url(#clip-path);}.cls-13{fill:#e4f4f8;opacity:0.15;}</style><clipPath id="clip-path"><circle class="cls-1" cx="929.61" cy="802.54" r="92.57" transform="translate(-225.1 384.35) rotate(-20.9)"/></clipPath></defs><title>Toto-niveles</title><g id="Tween_22_0_Layer0_0_FILL" data-name="Tween 22 0 Layer0 0 FILL"><path class="cls-2" d="M250.9,360l10.25,19.67,27.51,24-15.25,14.71Q260.13,432.79,260,444.88q-.09,6.09,2.48,9.23-2.65,13.63,4.66,18.08,6.19,3.79,17.13.19,8-2.62,1.62-7.92a31.49,31.49,0,0,0-5.21-3.33q-1.62-.89-2.82-1.41,5.6-9.65,2.09-12.83a5.4,5.4,0,0,0-3-1.22,7.39,7.39,0,0,0-1.67,0L303.61,400l-23.24-30.21q-8-14.05-19.52-13.35A18.17,18.17,0,0,0,250.9,360Z"/></g><g id="Tween_22_0_Layer0_1_FILL" data-name="Tween 22 0 Layer0 1 FILL"><path class="cls-3" d="M270.85,433.4l-10.3,27.73q3.8,14.43,14.14,14.29a17.7,17.7,0,0,0,6.71-1.55l2.82-1.5q8.67-1,3.89-7a27.59,27.59,0,0,0-4.14-4l-2.35-1.78Q284,448,279.86,445.67a4.79,4.79,0,0,0-3.08-.42,6.26,6.26,0,0,0-1.54.42l4.49-6.14q.3-3.84-4.27-5.39A14.59,14.59,0,0,0,270.85,433.4Z"/></g><g id="Tween_17_0_Layer0_0_MEMBER_0_FILL" data-name="Tween 17 0 Layer0 0 MEMBER 0 FILL"><path class="cls-3" d="M280.76,60.65a6.68,6.68,0,0,0-3.21-2.29l-1.43-.23Q256.81,60,219.8,87.91q-11.59,8.73-23.52,19-6,5.12-9.64,8.49,13.57-7.19,57.76,13.33a428.33,428.33,0,0,1,41.47,21.94l-.39-69.4Q285.43,66.18,280.76,60.65Z"/></g><g id="Tween_17_0_Layer0_1_MEMBER_0_FILL" data-name="Tween 17 0 Layer0 1 MEMBER 0 FILL"><path class="cls-2" d="M276.46,73.72l-.17-1.4a79.52,79.52,0,0,0-17.2,5.37,129.34,129.34,0,0,0-37.9,24.58L209.38,115l3.65-2q.14-.08,14.27-6.9,15-6.28,19.45-4.06a2.72,2.72,0,0,1,1.34,1.43l-11,11.54,1.67-.07H248q10,.24,14.62,1.45a9.77,9.77,0,0,1,2,2.24,4.15,4.15,0,0,1,.88,3q-.6,2.48-6.81,3.45l-6.33,2.64.44,1.34,6.15-2.58q7-1.12,7.82-4.5a5.79,5.79,0,0,0-1.36-4.59l-2.09-2.24-.23-.13q-6.83-1.78-22.59-1.56l9.09-9.52-.09-.43a3.89,3.89,0,0,0-2.2-2.74q-4-2-15.12,2A139.27,139.27,0,0,0,216,109.89l6.09-6.58A126.9,126.9,0,0,1,259.49,79,77.45,77.45,0,0,1,276.46,73.72Z"/></g><g id="Tween_16_0_Layer0_0_MEMBER_0_FILL" data-name="Tween 16 0 Layer0 0 MEMBER 0 FILL"><path class="cls-3" d="M402,150.42l2.28-9.67q3.87-14.1-2-19.1a9.17,9.17,0,0,0-4.39-2l-2.21-.16q-15.63-2.12-51.46,11-11.2,4.12-23.06,9.28l-9.64,4.3L370.48,232q13.28-20.42,24.9-57.89Q399,162.46,402,150.42Z"/></g><g id="Tween_14_0_Layer0_0_MEMBER_0_FILL" data-name="Tween 14 0 Layer0 0 MEMBER 0 FILL"><path class="cls-2" d="M78.69,391.48a41.86,41.86,0,0,0-5.42,8.23q-7.56,14.61-5.13,33.46l-1.95,7.4a86,86,0,0,1-5.55,14.31q-9.51,18.64-19.54,3a72.66,72.66,0,0,0-5-14.57q-6.19-13.2-12.22-6.12l-1.16.73a7.18,7.18,0,0,0-1.93,2.74q-2.18,5.21,2.51,14.11a12.92,12.92,0,0,0-2.39-.82,10.59,10.59,0,0,0-5.13-.16q-7.41,1.86-6.72,16.09l.28,1.85a18.83,18.83,0,0,0,1.55,4.42A19.55,19.55,0,0,0,22.13,486l-2.45,2.82a19.22,19.22,0,0,0-3.42,7.27Q13.63,508,29.82,517.39l13,7.18a159.54,159.54,0,0,0,32.19,12q51.1,12.8,80.71-19.09A25.8,25.8,0,0,0,161,509q4.69-11.28,2.11-25.31a21.82,21.82,0,0,1,2.29-3.92q3-4.13,6.49-5.07,11.14-3,22.89,27.14l5.05-7.54a65,65,0,0,0,2.74-9.3,97.81,97.81,0,0,0,2.69-23.37q-.17-37.74-28.26-62.86a130.41,130.41,0,0,0-34.5-17.66q-38.93-13.47-61.16,7.72Z"/></g><g id="Tween_14_0_Layer0_1_MEMBER_0_FILL" data-name="Tween 14 0 Layer0 1 MEMBER 0 FILL"><path class="cls-4" d="M78.69,391.48a41.86,41.86,0,0,0-5.42,8.23q-7.56,14.61-5.13,33.46l-1.95,7.4a86,86,0,0,1-5.55,14.31q-9.51,18.64-19.54,3a72.66,72.66,0,0,0-5-14.57q-6.19-13.2-12.22-6.12l-1.16.73a7.18,7.18,0,0,0-1.93,2.74q-2.18,5.21,2.51,14.11a12.92,12.92,0,0,0-2.39-.82,10.59,10.59,0,0,0-5.13-.16q-7.41,1.86-6.72,16.09l.28,1.85a18.83,18.83,0,0,0,1.55,4.42A19.55,19.55,0,0,0,22.13,486l-2.45,2.82a19.22,19.22,0,0,0-3.42,7.27Q13.63,508,29.82,517.39L37,521.57a179.2,179.2,0,0,0,18.87,8.78q31.18,12.32,56.8,9.13a46.82,46.82,0,0,0-7.26-1.4,38.57,38.57,0,0,1-7.4-1.59,68.07,68.07,0,0,1-9.85-4.7q-3-1.73-9.35-5.89L87.73,530a24.65,24.65,0,0,0,9.52,2q6.63-.16,8-3.24,1.33-3.23-4.84-6-12.44-5.64-15.94-7.58a63.08,63.08,0,0,1-14.28-10.85,42.1,42.1,0,0,0,16.66,2.19q10.2-.66,15.44-6.18-2.25-1.33-17.57-8.16-10.29-4.59-16.31-10.81,8.47-4.93,12.44-7.76,6.94-5,9.13-11.79,3-9.6-4.45-7.26-9.91,4.67-13.29,5,3.94-7.65,6.49-14.05a100.58,100.58,0,0,0,4.7-15.23q1.4-6.22,1.67-7.54,1-6.05-.32-7-1.77-1.23-4.88,3Q78.24,421,76,424.47a61,61,0,0,1,5.7-16.37,52.13,52.13,0,0,1,10-13.68,29,29,0,0,1,5.78-3.95q2.31-1.26,7.17-3.85,8.78-5.08,9.6-10.64-19.64.2-32.88,12.82Z"/></g><g id="Tween_14_0_Layer0_2_MEMBER_0_MEMBER_0_FILL" data-name="Tween 14 0 Layer0 2 MEMBER 0 MEMBER 0 FILL"><path class="cls-5" d="M22.79,466.59a51.92,51.92,0,0,1-.46-12.19q-4.84-1.72-8.23.14-5.63,3-5,15.38l.28,1.85a18.83,18.83,0,0,0,1.55,4.42A19.55,19.55,0,0,0,22.13,486l-2.45,2.82a19.22,19.22,0,0,0-3.42,7.27Q13.63,508,29.82,517.39L32.45,519q3.4,2,7.29,4-10.09-8.24-13.28-14.39-4.72-9.16,7.12-11.79A72.37,72.37,0,0,1,21.49,484Q11.61,470.39,22.79,466.59Z"/></g><g id="Tween_14_0_Layer0_2_MEMBER_1_MEMBER_0_FILL" data-name="Tween 14 0 Layer0 2 MEMBER 1 MEMBER 0 FILL"><path class="cls-5" d="M78.69,391.48a41.86,41.86,0,0,0-5.42,8.23q-7.56,14.61-5.13,33.46l-1.95,7.4a86,86,0,0,1-5.55,14.31q-9.51,18.64-19.54,3a72.66,72.66,0,0,0-5-14.57q-6.19-13.2-12.22-6.12l-1,.66a6.45,6.45,0,0,0-1.9,2.45q-2.19,4.71,1.55,12.75,1.26-9.58,7.93-4.8l3.39,5.77a73,73,0,0,0,8.33,11q13.18,13.91,20.44-.45a35.3,35.3,0,0,0,8-10.15Q78.2,441,76,424.47a54,54,0,0,1,1.42-21.22,58.79,58.79,0,0,1,8.1-18,43.75,43.75,0,0,0-4.21,3.55Z"/></g><g id="Tween_13_0_Layer0_1_MEMBER_0_FILL" data-name="Tween 13 0 Layer0 1 MEMBER 0 FILL"><path class="cls-2" d="M209.86,536.7q5.18-11.89,5.57-30.41l-13.25-8.52L202,503.4q-.31,7-1.14,13.57-2.59,21.12-9.08,30.94a28.61,28.61,0,0,0-6,7.46q-4.21,7.84,4.7,9.62l5.09,1.3q5.57.58,7.94-2.84l1.18.77a12.57,12.57,0,0,0,3.07,1.2,9.07,9.07,0,0,0,9-2.65l1.49-.19a6.45,6.45,0,0,0,2.76-1.2q3.42-2.74-.53-9.62a4.35,4.35,0,0,0,.57-3.95q-1.4-3.8-11.23-2.94h-5Q207.27,542.67,209.86,536.7Z"/></g><g id="Tween_13_0_Layer0_2_MEMBER_0_FILL" data-name="Tween 13 0 Layer0 2 MEMBER 0 FILL"><path class="cls-2" d="M252.48,495.27l-11.28,1.4,1,5.82q1.05,7.12,1.4,13.91,1.14,21.7-5.35,31.52a28.61,28.61,0,0,0-6,7.46q-4.26,7.84,4.7,9.62l5.09,1.3q5.57.58,7.94-2.84l1.19.77a12.73,12.73,0,0,0,3,1.2,9.08,9.08,0,0,0,9-2.65l1.49-.19a6.45,6.45,0,0,0,2.76-1.2q3.42-2.74-.48-9.62a4.35,4.35,0,0,0,.57-3.95q-1.4-3.8-11.23-2.94h-5q1.89-4.28,3-12.66Q256.38,515.53,252.48,495.27Z"/></g><g id="Tween_13_0_Layer0_3_MEMBER_0_FILL" data-name="Tween 13 0 Layer0 3 MEMBER 0 FILL"><path class="cls-3" d="M202.27,529q0-6.21-2.24-6.11-2.77,16.7-8.25,25a28.61,28.61,0,0,0-6,7.46q-4.21,7.84,4.7,9.62l5.09,1.3q5.57.58,7.94-2.84l1.18.77a12.57,12.57,0,0,0,3.07,1.2,9.07,9.07,0,0,0,9-2.65l1.49-.19a6.45,6.45,0,0,0,2.76-1.2q3.42-2.74-.53-9.62a4.35,4.35,0,0,0,.57-3.95q-1.4-3.8-11.23-2.94h-5l2.06-2.55a38.59,38.59,0,0,0,4.26-8.76q-1.93.19-1.93-3.85,0-5.15-3.42-3.42Z"/></g><g id="Tween_13_0_Layer0_4_MEMBER_0_FILL" data-name="Tween 13 0 Layer0 4 MEMBER 0 FILL"><path class="cls-3" d="M246.9,524.09a5.72,5.72,0,0,0-3.2,1.64q-.48,14.63-5.44,22.18a28.61,28.61,0,0,0-6,7.46q-4.26,7.84,4.7,9.62l5.09,1.3q5.57.58,7.94-2.84l1.19.77a12.73,12.73,0,0,0,3,1.2,9.08,9.08,0,0,0,9-2.65l1.49-.19a6.45,6.45,0,0,0,2.76-1.2q3.42-2.74-.48-9.62a4.35,4.35,0,0,0,.57-3.95q-1.4-3.8-11.23-2.94h-5a32,32,0,0,0,1.4-4.52A75.13,75.13,0,0,0,254.71,527q-1.58-2.69-3.95-1.3l-2.06,1.92Q248.7,524.09,246.9,524.09Z"/></g><g id="Tween_12_0_Layer0_0_MEMBER_0_FILL" data-name="Tween 12 0 Layer0 0 MEMBER 0 FILL"><path class="cls-4" d="M212.06,320.45a36.56,36.56,0,0,1,4.61,5.49q6.8,10.11,7.59,24.49l2.63,23,3.51,2.19a36,36,0,0,0,8.16,3.4q12.38,3.26,15.62-8.45a157,157,0,0,0-1-21.57q-2.63-23.71-10.75-34.55L210,318.75Z"/></g><g id="Tween_12_0_Layer0_1_MEMBER_0_FILL" data-name="Tween 12 0 Layer0 1 MEMBER 0 FILL"><path class="cls-4" d="M210,392.46q.53,2.43.92,5.2,3.42,23-2.33,64.19-2.85,20.6-6.41,36.54,12.2,19,32.65,11.42a50.82,50.82,0,0,0,18-11.42q34.93-77.79,18.34-121.47a55.33,55.33,0,0,0-14.88-22.25,43.39,43.39,0,0,0-6.14-4.57l-2.5-1.31a38.85,38.85,0,0,0-17.95-1.55,24.28,24.28,0,0,0-13.6,7Q204.33,366.56,210,392.46Z"/></g><g id="Tween_12_0_Layer0_2_MEMBER_0_FILL" data-name="Tween 12 0 Layer0 2 MEMBER 0 FILL"><path class="cls-5" d="M210,392.46q.53,2.43.92,5.2,3.42,23-2.33,64.19-2.85,20.6-6.41,36.54,7.24,11.22,17.6,13.12,8.08,1.51,17.55-2.77a22.32,22.32,0,0,0-3.12.15q-12.51,1.8-17-12.63a40.32,40.32,0,0,1-1.62-13.46A45.4,45.4,0,0,1,218,469.19q3.64-10.4,3.07-37l-1.32-24.49q-4.34-14.43-.7-37.9,1.14-7.34,2.94-14.67l1.58-5.88-.13-.1q-9.52,4.28-13.17,15.06Q206.35,375.75,210,392.46Z"/></g><g id="Tween_12_0_Layer0_3_MEMBER_0_FILL" data-name="Tween 12 0 Layer0 3 MEMBER 0 FILL"><path class="cls-6" d="M241.64,368.07a.73.73,0,0,0,.18.87,14.31,14.31,0,0,0,6.67,3.11,19.85,19.85,0,0,1,7.5,8,9.65,9.65,0,0,1,.44,7.73q-1.49,4.13-4.83,4.57T244.31,390a19.26,19.26,0,0,1-5.53-5.54.69.69,0,0,0-.44-.29.37.37,0,0,0-.44.1.67.67,0,0,0-.18,1A19.41,19.41,0,0,0,243.3,391a13.09,13.09,0,0,0,7.5,2.87,6.41,6.41,0,0,0,.92,0q4.13-.58,5.92-5.49a11.37,11.37,0,0,0-.53-8.94,19.35,19.35,0,0,0-5.75-6.9,9.54,9.54,0,0,0,4.78-.87,5.53,5.53,0,0,0,3.16-5.15,7.55,7.55,0,0,0-3.34-6.51,18.11,18.11,0,0,0-8.87-3.21q-5.27-.63-8.29.78a.72.72,0,0,0-.35.39.81.81,0,0,0,0,.58q.26.68.83.34,2.59-1.21,7.42-.68a16.84,16.84,0,0,1,8.47,3,6.07,6.07,0,0,1,2.77,5.25,4,4,0,0,1-2.37,3.89q-2.55,1.26-6.71.44a22.05,22.05,0,0,0-6.54-3A.57.57,0,0,0,241.64,368.07Z"/></g><g id="Tween_12_0_Layer0_4_MEMBER_0_FILL" data-name="Tween 12 0 Layer0 4 MEMBER 0 FILL"><path class="cls-2" d="M210.92,397.66a82.71,82.71,0,0,1-.48-19.39q1.8-21,13.17-29.06-6.32-.44-12.51,4.18-12.33,9.23-11.5,34.45l1,11.71q1.05,14.33,1.27,27.84.61,43.15-7.5,61.17l-.35,3a16.23,16.23,0,0,0,1.32,6.9q4.56,10.4,22.43,13.12a23.09,23.09,0,0,1-6-8.11q-5.53-11.18-3.07-26.43,1.76-11.66,2.94-27.4Q213.94,418.17,210.92,397.66Z"/></g><g id="Tween_12_0_Layer0_5_MEMBER_0_FILL" data-name="Tween 12 0 Layer0 5 MEMBER 0 FILL"><path class="cls-2" d="M220.7,329.68a34.26,34.26,0,0,0-3.55-5.59l-1.71-2-8.16,1.36q10.23,8.7,10.23,19.14a16.88,16.88,0,0,1-2.06,8.7l8.16-2.09A29.34,29.34,0,0,0,220.7,329.68Z"/></g><g id="Tween_12_0_Layer0_6_MEMBER_0_FILL" data-name="Tween 12 0 Layer0 6 MEMBER 0 FILL"><path class="cls-5" d="M223.82,342.32l23.13-21.77-30.63,3.84Z"/></g><g id="Tween_32_0_Layer0_0_MEMBER_0_FILL" data-name="Tween 32 0 Layer0 0 MEMBER 0 FILL"><path class="cls-2" d="M206.37,352.55q-11.32-.69-19.2,13.1L164.36,395.3l27.84,44.82h-1.63a5.29,5.29,0,0,0-2.93,1.2q-3.44,3.13,2.05,12.59l-2.77,1.38a29.27,29.27,0,0,0-5.07,3.26q-6.29,5.19,1.55,7.77,10.73,3.54,16.81-.18,7.17-4.37,4.57-17.74,2.52-3.08,2.43-9.06Q207,427.48,194,413.28l-15-14.43,27-23.53L216.09,356l-2.77-1.61A19.28,19.28,0,0,0,206.37,352.55Z"/></g><g id="Tween_32_0_Layer0_0_MEMBER_1_FILL" data-name="Tween 32 0 Layer0 0 MEMBER 1 FILL"><path class="cls-3" d="M191.6,442l-1.51-.41a4.54,4.54,0,0,0-3,.41q-4.07,2.3-1.76,13.65L183,457.44a27.06,27.06,0,0,0-4.07,4q-4.65,5.88,3.81,6.85a17.1,17.1,0,0,0,9.39,3q10.1.14,13.83-14,5.23-31.6-10.1-28.68l-4.53,2.21q-4.49,1.52-4.19,5.29Z"/></g><g id="Tween_11_0_Layer0_0_MEMBER_0_FILL" data-name="Tween 11 0 Layer0 0 MEMBER 0 FILL"><path class="cls-2" d="M345.68,164.21a6.59,6.59,0,0,1-1.61.32q-5.4-4.31-13.55-10.37Q309,138.24,296.63,133.65q-8.22-3.24-16.34-5.71a89.44,89.44,0,0,0-10-2.43l-.31-.15Q257.59,114,227.07,110.9q-29.85-3.2-49.31,4.45a49.59,49.59,0,0,0-10.57,5.44l-3,2.73q-12.43,18-43,27.76a180,180,0,0,1-19.6,4.84l-8.29,1.33q-22.68,9.39-16.21,20.43,3.34,5.47,11,9.26Q75.08,185,63.83,197a59.85,59.85,0,0,0-6.47,8.44,34.23,34.23,0,0,0-2.08,4q-12.21,22.66,5.12,31.13a40.74,40.74,0,0,0,19.66,3.64Q67.73,251,63.42,260.64a17.49,17.49,0,0,0-1.9,8.3q-2.44,27.39,20.24,28.3a54.19,54.19,0,0,0,23.21-4.6L91.26,305.54q-8,10.08-2.65,18.86,4.88,8.06,18.66,12.27a74.84,74.84,0,0,0,30.36,2.1,75,75,0,0,0,32.08-11.59q24.77-16.15,96.5,14.76A542.14,542.14,0,0,1,333.11,376,318.41,318.41,0,0,0,393,407.14q15.13,5.81,24.11,7.68,24.17-6.08,26.67-14.15a5.89,5.89,0,0,0-.63-5l-1.75-1.94Q414,369.34,406,302.81a405,405,0,0,1-2.7-43.27l.29-18.27q-1.87-38.37-35.93-63.72A129.78,129.78,0,0,0,345.68,164.21Z"/></g><g id="Tween_11_0_Layer0_1_MEMBER_0_FILL" data-name="Tween 11 0 Layer0 1 MEMBER 0 FILL"><path class="cls-7" d="M191.09,113.82l-.7-2.09A62.71,62.71,0,0,0,169.93,119a33.83,33.83,0,0,0-4.57,3.23L164,123.55q-9.71,14-30.81,23.19A145.91,145.91,0,0,1,101.85,156a66.77,66.77,0,0,0,10.3,8.2q5.29,3.44,8.13,4,2.44.5,8.17-1.53a74.1,74.1,0,0,0,12.14-5.85q15.91-9.33,20.38-19.45Q165,132.13,178.49,122A102.52,102.52,0,0,1,191.09,113.82Z"/></g><g id="Tween_11_0_Layer0_2_MEMBER_0_FILL" data-name="Tween 11 0 Layer0 2 MEMBER 0 FILL"><path class="cls-4" d="M185.17,222.24l-4.38-6.66q-10.85-37-41.91-51.92a78.26,78.26,0,0,0-20.26-6.57l-8.64-1-1.1-1.53q-5.79,1.35-11.34,2.19l-4.4.6Q70.47,166.82,77,177.89q3.29,5.54,11.06,9.19Q75,185.06,63.72,197a54.89,54.89,0,0,0-6.47,8.47q-1.43,2.37-2.2,4-12.17,22.71,5.14,31A41.43,41.43,0,0,0,80,244.28Q67.61,251,63.23,260.62A17.17,17.17,0,0,0,61.34,269q-2.46,27.28,20.28,28.22a53.6,53.6,0,0,0,23.18-4.54l-13.65,13q-8,10-2.74,18.75,4.86,8.11,18.73,12.25a74.18,74.18,0,0,0,30.34,2.14,74.8,74.8,0,0,0,32.1-11.48q24.74-16.15,96.49,14.65A553.34,553.34,0,0,1,332.94,376a317.24,317.24,0,0,0,60,31.16q15,5.79,24.06,7.63,24.16-6.05,26.66-14.12a5.87,5.87,0,0,0-.68-5l-1.63-1.93Q431,384.6,423.41,369.34q-14.19-6.7-33.6-6a99.78,99.78,0,0,0-11.94,1.15l-4.64.92q-59.37,3.32-131.85-72.93a538.78,538.78,0,0,1-43.88-52.75Q190.89,230.72,185.17,222.24Z"/></g><g id="Tween_11_0_Layer0_3_MEMBER_0_FILL" data-name="Tween 11 0 Layer0 3 MEMBER 0 FILL"><path class="cls-3" d="M423,376.41a70.35,70.35,0,0,0-11.42-2.62l-5.12-.53q-2.41,18.87,5.72,26a11.86,11.86,0,0,0,8.55,3.38,25.69,25.69,0,0,0,15.4-4.23,21,21,0,0,0,5.2-4.67Q439.87,381.91,423,376.41Z"/></g><g id="Tween_11_0_Layer0_4_MEMBER_0_FILL" data-name="Tween 11 0 Layer0 4 MEMBER 0 FILL"><path class="cls-8" d="M285.66,219.17a14.71,14.71,0,0,0-7.88-6.59l-6.32-2.35a13.27,13.27,0,0,0-9.91,0,10,10,0,0,0-6.15,6.55l-14.11,45.61a11.29,11.29,0,0,0,1.25,9.3,14.71,14.71,0,0,0,7.88,6.59l6.32,2.35a13.27,13.27,0,0,0,9.91,0,10,10,0,0,0,6.15-6.55l14.11-45.61A11.29,11.29,0,0,0,285.66,219.17Z"/></g><g id="Tween_11_0_Layer0_5_MEMBER_0_FILL" data-name="Tween 11 0 Layer0 5 MEMBER 0 FILL"><path class="cls-9" d="M274.15,249.8a49.91,49.91,0,0,0,2.55-17.24q-.43-7.73-4-9t-8.13,4.55a47.37,47.37,0,0,0-7.54,15.39,50.32,50.32,0,0,0-2.57,17.29q.41,7.67,3.94,9t8.15-4.49A47.78,47.78,0,0,0,274.15,249.8Z"/></g><g id="Tween_11_0_Layer0_6_MEMBER_0_FILL" data-name="Tween 11 0 Layer0 6 MEMBER 0 FILL"><path class="cls-8" d="M386.61,265.56a11.29,11.29,0,0,0-1.25-9.3,14.71,14.71,0,0,0-7.88-6.59l-6.32-2.35a13.27,13.27,0,0,0-9.91,0,10,10,0,0,0-6.15,6.55L341,299.46a11.29,11.29,0,0,0,1.25,9.3,14.71,14.71,0,0,0,7.88,6.59l6.32,2.35a13.27,13.27,0,0,0,9.91,0,10,10,0,0,0,6.15-6.55Z"/></g><g id="Tween_11_0_Layer0_7_MEMBER_0_FILL" data-name="Tween 11 0 Layer0 7 MEMBER 0 FILL"><path class="cls-9" d="M373.85,286.88a49.9,49.9,0,0,0,2.55-17.24q-.43-7.73-4-9t-8.13,4.55a47.37,47.37,0,0,0-7.54,15.39,50.31,50.31,0,0,0-2.57,17.29q.41,7.67,3.94,9t8.15-4.49A47.78,47.78,0,0,0,373.85,286.88Z"/></g><g id="Tween_11_0_Layer0_8_MEMBER_0_FILL" data-name="Tween 11 0 Layer0 8 MEMBER 0 FILL"><path class="cls-8" d="M196.8,285.91l-2,6.32q-1.49,6.92.69,11.54a11.35,11.35,0,0,0,6.63,6,17.1,17.1,0,0,0,3,.79,27.56,27.56,0,0,0,9,1.1q8.59-.36,12.31-6.24a2.24,2.24,0,0,0,.31-1.61,2.09,2.09,0,0,0-.83-1.37,1.68,1.68,0,0,0-1.43-.33,1.84,1.84,0,0,0-1.28.84q-2.84,4.53-10.24,4.48l-6.88-1-.21-.08q-5.2-.87-6.86-4.48-1.58-3.43-.32-9l1.63-5a2.43,2.43,0,0,0,.13-1.63,2.09,2.09,0,0,0-1-1.28,1.89,1.89,0,0,0-2.61,1Z"/></g><g id="Tween_11_0_Layer0_9_MEMBER_0_FILL" data-name="Tween 11 0 Layer0 9 MEMBER 0 FILL"><path class="cls-10" d="M411.11,377.21a5.19,5.19,0,0,0-1.37,4.72,9.19,9.19,0,0,0,.72,2.76q1.35-3.46,14.77,1.53a136,136,0,0,1,13.2,5.72q-4-8.89-16.05-12.68a47.47,47.47,0,0,0-7.89-1.77Z"/></g><g id="Tween_11_0_Layer0_10_MEMBER_0_MEMBER_0_FILL" data-name="Tween 11 0 Layer0 10 MEMBER 0 MEMBER 0 FILL"><path class="cls-5" d="M204,322.67q8.41,3.23,8.42,3.18Q210,313.94,183,318.47a157.77,157.77,0,0,0-18.35,4.35l-8.21,2.58q-26.77,14.48-45.84,2.87a38.5,38.5,0,0,1-10.39-9.4l-3.29-5.09q-2.78-5.1,1-14.53l-6.69,6.35q-8,10-2.74,18.75,4.86,8.11,18.73,12.25a74.18,74.18,0,0,0,30.34,2.14,74.8,74.8,0,0,0,32.1-11.48Q181.12,319.66,204,322.67Z"/></g><g id="Tween_11_0_Layer0_10_MEMBER_1_MEMBER_0_FILL" data-name="Tween 11 0 Layer0 10 MEMBER 1 MEMBER 0 FILL"><path class="cls-5" d="M97.54,156.77l-4.4.6Q70.47,166.82,77,177.89q3.29,5.54,11.06,9.19Q75,185.06,63.72,197a54.89,54.89,0,0,0-6.47,8.47q-1.43,2.37-2.2,4-12.17,22.71,5.14,31A41.43,41.43,0,0,0,80,244.28Q67.61,251,63.23,260.62A17.17,17.17,0,0,0,61.34,269q-2.05,22.81,13.76,27.27,9.94,2.78,25-1.92A92.36,92.36,0,0,1,107,283l3.62-4.8q-18.53,12.87-30.23,7.4a16.52,16.52,0,0,1-6.18-5l-1.8-3q-6.12-10.76,6.52-28.27a94.54,94.54,0,0,1,9.27-10.93q2.66-2.77,4.56-4.4-21.62,6.08-30-3.43a16.53,16.53,0,0,1-3.57-7.17l-.47-3.58q.08-14,19.45-24.52a84.32,84.32,0,0,1,19.34-7.69l-6.14-6.81q-12-11.21,8.44-16.63,11.92-3.19,31.11-3.78A80.32,80.32,0,0,0,116,156.68l-6-.57-1.1-1.53Q103.08,155.93,97.54,156.77Z"/></g><g id="Tween_11_0_Layer0_11_MEMBER_0_FILL" data-name="Tween 11 0 Layer0 11 MEMBER 0 FILL"><path class="cls-11" d="M304.86,272.3l-4.77,11.23q12.27-3.57,20.39,2.71a17.3,17.3,0,0,1,5.67,7l3.61-11.67q-3.15-8.39-14.35-9.66a33,33,0,0,0-7.36,0Z"/></g><g id="Tween_11_0_Layer0_12_MEMBER_0_FILL" data-name="Tween 11 0 Layer0 12 MEMBER 0 FILL"><path class="cls-2" d="M249.08,198.86a15,15,0,0,0-12.9.94,17.32,17.32,0,0,0-8.53,10.65,19.41,19.41,0,0,0,.86,14.14,16.85,16.85,0,0,0,9.71,9.35l55.4,20.61a14.9,14.9,0,0,0,12.9-.94A17.43,17.43,0,0,0,315.05,243a19.3,19.3,0,0,0-.86-14.14,16.76,16.76,0,0,0-9.71-9.35Z"/></g><g id="Tween_11_0_Layer0_13_MEMBER_0_FILL" data-name="Tween 11 0 Layer0 13 MEMBER 0 FILL"><path class="cls-2" d="M387.37,288.71A46.41,46.41,0,0,0,391,269.83q-.25-20.32-19.49-27.47l-27.06-10.06-7.52,37.65Z"/></g><g id="Tween_11_0_Layer0_14_MEMBER_0_FILL" data-name="Tween 11 0 Layer0 14 MEMBER 0 FILL"><path class="cls-8" d="M242.66,228.28a1.7,1.7,0,0,0-1.74.37,3.82,3.82,0,0,0-1.31,2,4.17,4.17,0,0,0-.07,2.46,1.94,1.94,0,0,0,1.17,1.45l47,17.47a1.8,1.8,0,0,0,1.78-.35,4,4,0,0,0,1.27-2,4.37,4.37,0,0,0,.11-2.45,2.06,2.06,0,0,0-1.21-1.47Z"/></g><g id="Tween_11_0_Layer0_15_MEMBER_0_FILL" data-name="Tween 11 0 Layer0 15 MEMBER 0 FILL"><path class="cls-8" d="M394.22,288.16a4.31,4.31,0,0,0,.07-2.46,2,2,0,0,0-1.17-1.45l-47-17.48a1.77,1.77,0,0,0-1.74.37,4,4,0,0,0-1.31,2,4.31,4.31,0,0,0-.07,2.46,2,2,0,0,0,1.17,1.45l47,17.48a1.77,1.77,0,0,0,1.74-.37A4,4,0,0,0,394.22,288.16Z"/></g><g id="Tween_11_0_Layer0_16_MEMBER_0_FILL" data-name="Tween 11 0 Layer0 16 MEMBER 0 FILL"><path class="cls-11" d="M213.16,166.23a9.69,9.69,0,0,0-5.29,6.16L181.3,258.25a10.86,10.86,0,0,0,.78,8.42,11.17,11.17,0,0,0,6.33,5.76l99,36.82a10,10,0,0,0,8.22-.35,9.69,9.69,0,0,0,5.29-6.16l26.56-85.85a10.86,10.86,0,0,0-.78-8.42,11.17,11.17,0,0,0-6.33-5.76l-99-36.82a10,10,0,0,0-8.22.35m4.61,20a7.66,7.66,0,0,1,4.15-4.86,8,8,0,0,1,6.47-.24l78,29a8.9,8.9,0,0,1,5,4.5,8.59,8.59,0,0,1,.59,6.62L291,288.89a7.66,7.66,0,0,1-4.15,4.86,8,8,0,0,1-6.47.24l-78-29a8.9,8.9,0,0,1-5-4.5,8.59,8.59,0,0,1-.59-6.62Z"/></g><g id="Tween_11_0_Layer0_17_MEMBER_0_FILL" data-name="Tween 11 0 Layer0 17 MEMBER 0 FILL"><path class="cls-11" d="M466.74,268.69a10.86,10.86,0,0,0-.78-8.42,11.17,11.17,0,0,0-6.33-5.76l-99-36.82a10,10,0,0,0-8.22.35,9.69,9.69,0,0,0-5.29,6.16l-26.56,85.85a10.86,10.86,0,0,0,.78,8.42,11.17,11.17,0,0,0,6.33,5.76l99,36.82a10,10,0,0,0,8.22-.35,9.69,9.69,0,0,0,5.29-6.16l26.56-85.85m-16.13-2.24a8.59,8.59,0,0,1,.59,6.62L430.28,340.7a7.67,7.67,0,0,1-4.15,4.86,8,8,0,0,1-6.47.24l-78-29a8.9,8.9,0,0,1-5-4.5,8.59,8.59,0,0,1-.59-6.62L357,238a7.67,7.67,0,0,1,4.15-4.86,8,8,0,0,1,6.47-.24l78,29A8.9,8.9,0,0,1,450.61,266.45Z"/></g><g id="Tween_31_0_Layer0_0_MEMBER_0_FILL" data-name="Tween 31 0 Layer0 0 MEMBER 0 FILL"><path class="cls-2" d="M345.68,164.29a6.59,6.59,0,0,1-1.61.32q-5.4-4.31-13.55-10.37Q309,138.32,296.63,133.74q-8.22-3.24-16.34-5.71a89.44,89.44,0,0,0-10-2.43l-.31-.15Q257.59,114,227.07,111q-29.85-3.2-49.31,4.45a49.59,49.59,0,0,0-10.57,5.44l-3,2.73q-12.43,18-43,27.76a180,180,0,0,1-19.6,4.84l-8.29,1.33Q70.65,166.93,77.12,178q3.34,5.47,11,9.26-13.09-2.11-24.34,9.88a59.85,59.85,0,0,0-6.47,8.44,34.2,34.2,0,0,0-2.08,4q-12.21,22.66,5.12,31.13a40.73,40.73,0,0,0,19.66,3.64q-12.33,6.81-16.64,16.41a17.49,17.49,0,0,0-1.9,8.3q-2.44,27.39,20.24,28.3a54.19,54.19,0,0,0,23.21-4.6L91.26,305.63q-8,10.08-2.65,18.86,4.88,8.06,18.66,12.27a74.84,74.84,0,0,0,30.36,2.1,75,75,0,0,0,32.08-11.59q24.77-16.15,96.5,14.76a542.14,542.14,0,0,1,66.89,34.07A318.41,318.41,0,0,0,393,407.22q15.13,5.81,24.11,7.68,24.17-6.08,26.67-14.15a5.89,5.89,0,0,0-.63-5l-1.75-1.94Q414,369.43,406,302.9a405,405,0,0,1-2.7-43.27l.29-18.27Q401.76,203,367.7,177.63A129.8,129.8,0,0,0,345.68,164.29Z"/></g><g id="Tween_31_0_Layer0_1_MEMBER_0_FILL" data-name="Tween 31 0 Layer0 1 MEMBER 0 FILL"><path class="cls-7" d="M191.2,113.81l-.7-2.09A62.7,62.7,0,0,0,170,119a33.83,33.83,0,0,0-4.57,3.23l-1.38,1.32q-9.71,14-30.81,23.19A145.93,145.93,0,0,1,102,156a66.79,66.79,0,0,0,10.3,8.2q5.29,3.44,8.13,4,2.44.5,8.17-1.53a74.13,74.13,0,0,0,12.14-5.85q15.91-9.33,20.38-19.45,4.07-9.26,17.52-19.34A102.58,102.58,0,0,1,191.2,113.81Z"/></g><g id="Tween_31_0_Layer0_2_MEMBER_0_FILL" data-name="Tween 31 0 Layer0 2 MEMBER 0 FILL"><path class="cls-4" d="M185.28,222.22l-4.38-6.66Q170,178.6,139,163.64a78.26,78.26,0,0,0-20.26-6.57l-8.64-1-1.1-1.53q-5.79,1.35-11.33,2.19l-4.4.6q-22.67,9.45-16.13,20.52,3.29,5.54,11.06,9.19Q75.09,185,63.83,197a54.89,54.89,0,0,0-6.47,8.47q-1.43,2.37-2.2,4-12.17,22.71,5.14,31a41.43,41.43,0,0,0,19.77,3.8q-12.36,6.68-16.73,16.34a17.17,17.17,0,0,0-1.89,8.34Q59,296.23,81.74,297.17a53.6,53.6,0,0,0,23.18-4.54l-13.65,13q-8,10-2.74,18.75,4.86,8.11,18.73,12.25a74.17,74.17,0,0,0,30.34,2.14,74.79,74.79,0,0,0,32.1-11.48q24.74-16.15,96.49,14.65A553.3,553.3,0,0,1,333,376a317.22,317.22,0,0,0,60,31.16q15,5.79,24.06,7.63,24.16-6.05,26.66-14.12a5.87,5.87,0,0,0-.68-5l-1.63-1.93q-10.38-9.14-17.94-24.41-14.19-6.7-33.6-6A99.77,99.77,0,0,0,378,364.47l-4.64.92Q314,368.71,241.49,292.47a538.83,538.83,0,0,1-43.88-52.75Q191,230.7,185.28,222.22Z"/></g><g id="Tween_31_0_Layer0_3_MEMBER_0_FILL" data-name="Tween 31 0 Layer0 3 MEMBER 0 FILL"><path class="cls-3" d="M423.14,376.39a70.33,70.33,0,0,0-11.42-2.62l-5.12-.53q-2.41,18.87,5.72,26a11.86,11.86,0,0,0,8.55,3.38,25.69,25.69,0,0,0,15.4-4.23,21,21,0,0,0,5.2-4.67Q440,381.89,423.14,376.39Z"/></g><g id="Tween_31_0_Layer0_4_MEMBER_0_FILL" data-name="Tween 31 0 Layer0 4 MEMBER 0 FILL"><path class="cls-8" d="M280.69,226.11a14.71,14.71,0,0,0-7.88-6.59l-6.32-2.35a13.27,13.27,0,0,0-9.91,0,10,10,0,0,0-6.15,6.55l-14.11,45.61a11.29,11.29,0,0,0,1.25,9.3,14.71,14.71,0,0,0,7.88,6.59l6.32,2.35a13.27,13.27,0,0,0,9.91,0,10,10,0,0,0,6.15-6.55l14.11-45.61A11.29,11.29,0,0,0,280.69,226.11Z"/></g><g id="Tween_31_0_Layer0_5_MEMBER_0_FILL" data-name="Tween 31 0 Layer0 5 MEMBER 0 FILL"><path class="cls-9" d="M269.18,256.74a49.89,49.89,0,0,0,2.55-17.24q-.43-7.73-4-9T259.64,235a47.38,47.38,0,0,0-7.54,15.39,50.32,50.32,0,0,0-2.57,17.29q.41,7.67,3.94,9t8.15-4.49A47.77,47.77,0,0,0,269.18,256.74Z"/></g><g id="Tween_31_0_Layer0_6_MEMBER_0_FILL" data-name="Tween 31 0 Layer0 6 MEMBER 0 FILL"><path class="cls-8" d="M381.64,272.5a11.29,11.29,0,0,0-1.25-9.3,14.71,14.71,0,0,0-7.88-6.59l-6.32-2.35a13.27,13.27,0,0,0-9.91,0,10,10,0,0,0-6.15,6.55L336,306.4a11.29,11.29,0,0,0,1.25,9.3,14.71,14.71,0,0,0,7.88,6.59l6.32,2.35a13.27,13.27,0,0,0,9.91,0,10,10,0,0,0,6.15-6.55Z"/></g><g id="Tween_31_0_Layer0_7_MEMBER_0_FILL" data-name="Tween 31 0 Layer0 7 MEMBER 0 FILL"><path class="cls-9" d="M368.88,293.82a49.9,49.9,0,0,0,2.55-17.24q-.43-7.73-4-9t-8.13,4.55a47.37,47.37,0,0,0-7.54,15.39,50.31,50.31,0,0,0-2.57,17.29q.41,7.67,3.94,9t8.15-4.49A47.77,47.77,0,0,0,368.88,293.82Z"/></g><g id="Tween_31_0_Layer0_8_MEMBER_0_FILL" data-name="Tween 31 0 Layer0 8 MEMBER 0 FILL"><path class="cls-10" d="M411.21,377.19a5.19,5.19,0,0,0-1.37,4.72,9.19,9.19,0,0,0,.72,2.76q1.35-3.46,14.77,1.53a136.14,136.14,0,0,1,13.2,5.72q-4-8.89-16.05-12.68a47.47,47.47,0,0,0-7.89-1.77Z"/></g><g id="Tween_31_0_Layer0_9_MEMBER_0_MEMBER_0_FILL" data-name="Tween 31 0 Layer0 9 MEMBER 0 MEMBER 0 FILL"><path class="cls-5" d="M204.07,322.65q8.41,3.23,8.42,3.18-2.39-11.91-29.41-7.38a157.78,157.78,0,0,0-18.35,4.35l-8.21,2.58q-26.77,14.48-45.84,2.87a38.5,38.5,0,0,1-10.39-9.4L97,313.77q-2.78-5.1,1-14.53l-6.69,6.35q-8,10-2.74,18.75,4.86,8.11,18.73,12.25a74.17,74.17,0,0,0,30.34,2.14,74.79,74.79,0,0,0,32.1-11.48Q181.23,319.64,204.07,322.65Z"/></g><g id="Tween_31_0_Layer0_9_MEMBER_1_MEMBER_0_FILL" data-name="Tween 31 0 Layer0 9 MEMBER 1 MEMBER 0 FILL"><path class="cls-5" d="M97.65,156.75l-4.4.6q-22.67,9.45-16.13,20.52,3.29,5.54,11.06,9.19Q75.09,185,63.83,197a54.89,54.89,0,0,0-6.47,8.47q-1.43,2.37-2.2,4-12.17,22.71,5.14,31a41.43,41.43,0,0,0,19.77,3.8q-12.36,6.68-16.73,16.34a17.17,17.17,0,0,0-1.89,8.34q-2.05,22.81,13.76,27.27,9.94,2.78,25-1.92A92.36,92.36,0,0,1,107.1,283l3.62-4.8q-18.53,12.87-30.23,7.4a16.51,16.51,0,0,1-6.18-5l-1.8-3Q66.38,266.81,79,249.31a94.5,94.5,0,0,1,9.27-10.93q2.66-2.77,4.56-4.4-21.62,6.08-30-3.43a16.53,16.53,0,0,1-3.57-7.17l-.47-3.58q.08-14,19.45-24.52a84.32,84.32,0,0,1,19.34-7.69l-6.14-6.81q-12-11.21,8.43-16.63,11.92-3.19,31.1-3.78a80.31,80.31,0,0,0-14.89-3.71l-6-.57-1.1-1.53Q103.19,155.91,97.65,156.75Z"/></g><g id="Tween_31_0_Layer0_10_MEMBER_0_FILL" data-name="Tween 31 0 Layer0 10 MEMBER 0 FILL"><path class="cls-11" d="M305,272.28l-4.77,11.23q12.27-3.57,20.39,2.71a17.3,17.3,0,0,1,5.67,7l3.61-11.67q-3.15-8.39-14.34-9.65a33,33,0,0,0-7.36,0Z"/></g><g id="Tween_31_0_Layer0_11_MEMBER_0_FILL" data-name="Tween 31 0 Layer0 11 MEMBER 0 FILL"><path class="cls-11" d="M213.26,166.22a9.69,9.69,0,0,0-5.29,6.16l-26.56,85.85a10.86,10.86,0,0,0,.78,8.42,11.17,11.17,0,0,0,6.33,5.76l99,36.82a10,10,0,0,0,8.22-.35,9.69,9.69,0,0,0,5.29-6.16l26.56-85.85a10.86,10.86,0,0,0-.78-8.42,11.17,11.17,0,0,0-6.33-5.76l-99-36.82a10,10,0,0,0-8.22.35m4.61,20a7.67,7.67,0,0,1,4.15-4.86,8,8,0,0,1,6.47-.24l78,29a8.9,8.9,0,0,1,5,4.5,8.58,8.58,0,0,1,.59,6.62l-20.92,67.62a7.66,7.66,0,0,1-4.15,4.86,8,8,0,0,1-6.47.24l-78-29a8.9,8.9,0,0,1-5-4.5,8.59,8.59,0,0,1-.59-6.62Z"/></g><g id="Tween_31_0_Layer0_12_MEMBER_0_FILL" data-name="Tween 31 0 Layer0 12 MEMBER 0 FILL"><path class="cls-11" d="M466.84,268.67a10.86,10.86,0,0,0-.78-8.42,11.17,11.17,0,0,0-6.33-5.76l-99-36.82a10,10,0,0,0-8.22.35,9.69,9.69,0,0,0-5.29,6.16L320.68,310a10.86,10.86,0,0,0,.78,8.42,11.17,11.17,0,0,0,6.33,5.76l99,36.82a10,10,0,0,0,8.22-.35,9.69,9.69,0,0,0,5.29-6.16l26.56-85.85m-16.13-2.24a8.59,8.59,0,0,1,.59,6.62l-20.92,67.62a7.66,7.66,0,0,1-4.15,4.86,8,8,0,0,1-6.47.24l-78-29a8.9,8.9,0,0,1-5-4.5,8.59,8.59,0,0,1-.59-6.62L357.14,238a7.67,7.67,0,0,1,4.15-4.86,8,8,0,0,1,6.47-.24l78,29A8.9,8.9,0,0,1,450.72,266.43Z"/></g><g id="Tween_31_0_Layer0_13_FILL" data-name="Tween 31 0 Layer0 13 FILL"><path class="cls-11" d="M240.11,319.84q6,0,6-7.66,0-7-5.4-6.09-5.56.7-5.56,7,0,.35.16,3.65Q236.14,319.84,240.11,319.84Z"/></g><g id="Tween_30_0_Layer0_0_FILL" data-name="Tween 30 0 Layer0 0 FILL"><path class="cls-2" d="M363,125.81l-3.1-7.77Q354,132.7,335.93,142a75.38,75.38,0,0,1-11.86,5L319,148.37l11-7.75q25-22,16.79-40.62a30.05,30.05,0,0,0-8.27-10.46l-5-3.73q-5.37,23.6-28.22,40.37a98.15,98.15,0,0,1-15,9.23l-6.57,2.87a12.38,12.38,0,0,0-3.17-7.06,127.9,127.9,0,0,0,1.38,19.7l7.45,12.35a15.41,15.41,0,0,0,4.38,2.55,150.85,150.85,0,0,0,15.88,3.57q9.44.16,11.34,0l20.06-2.7q1.54-.22,2.88-.49l-2.82-1.16q26.91,2.54,25.49-22A64.85,64.85,0,0,0,363,125.81Z"/></g><g id="Layer0_0_FILL" data-name="Layer0 0 FILL"><path class="cls-11" d="M237.63,20l1.27,8.25q1.94,6.29,5.71,7.94,1.49,4.44,3.33,4.44a3.16,3.16,0,0,0,2.54-.79l.48-.79v-2.7q2.54-1.22,2.54-5.08,0-13-7.94-19.36T237.63,20M368,18.61q-2.7-1.27-6.67,1.9a24.84,24.84,0,0,0-10,20.63,55.63,55.63,0,0,0,.32,7.46l4.76.63q5.87,0,10.79-10.16,4-8.1,4-11.9,0-7-3.17-8.57m114.76,186a7.9,7.9,0,0,0,1.27,3.33q2.44,3.5,7.94,3.65h8.41a10.94,10.94,0,0,0,7.3-3.17q3-2.86,3-5.71,0-8.73-14.44-7.94-14.6.79-14.6,7a4.22,4.22,0,0,0,.48,2.38,2,2,0,0,0,.64.48M461.69,74.32a16.37,16.37,0,0,0-.63,4.44,32.24,32.24,0,0,0,.32,5.08l3.81.48q6.83,0,14.6-10,6.67-8.57,6.67-11.9,0-11.75-12.7-2.54Q465.48,66,462.48,72.1a19.43,19.43,0,0,1-1.43,1.43A2.4,2.4,0,0,0,461.69,74.32Z"/></g><g class="cls-12"><circle class="cls-13" cx="522.55" cy="867.75" r="308.92"/></g></svg>