<svg id="Capa_1" data-name="Capa 1" xmlns="http://www.w3.org/2000/svg" xmlns:xlink="http://www.w3.org/1999/xlink" viewBox="0 0 519.75 576.38"><defs><style>.cls-1,.cls-15{fill:none;}.cls-2{clip-path:url(#clip-path);}.cls-3{fill:#e4f4f8;opacity:0.15;}.cls-4{fill:#c94a27;}.cls-5{fill:#fbc99c;}.cls-6,.cls-9{fill:#cd9565;}.cls-6{fill-rule:evenodd;}.cls-7{fill:#a26d3a;}.cls-8{fill:#411e12;}.cls-10{fill:#a33f24;}.cls-11{fill:#251112;}.cls-12{fill:#bf5128;}.cls-13{fill:#010101;}.cls-14{fill:#9e3b96;}.cls-15{stroke:#251112;stroke-miterlimit:10;stroke-width:2.83px;}.cls-16{fill:#412e7e;}.cls-17{fill:#fee85c;}.cls-18{fill:#7e2e77;}</style><clipPath id="clip-path"><circle class="cls-1" cx="399.19" cy="802.54" r="92.57" transform="translate(-259.99 195.16) rotate(-20.9)"/></clipPath></defs><title>Toto-niveles</title><g class="cls-2"><circle class="cls-3" cx="-7.88" cy="867.75" r="308.92"/></g><path class="cls-4" d="M240.52,473.4s0,31.31-10.36,45.56c0,0-15.54,12.95-1.29,15.54,0,0,9.22,3.6,13-1.4,0,0,6.88,5,13.14-.63,0,0,10,0,3.75-10,0,0,5-7.51-10.64-6.26h-5s10-8.14,10.64-35"/><path class="cls-4" d="M291.24,460.2s31.27,11,37.76,27.37c0,0,2.63,20.06,12.44,9.41,0,0,8-5.86,5.76-11.71,0,0,7.91-3.14,6.5-11.44,0,0,5.36-8.46-6.45-8.53,0,0-3.67-8.24-11,5.64l-2.68,4.23s-9.2-14.71-37.39-25.16"/><path class="cls-5" d="M249.31,288.55s11.93,31,13.22,51.7L265.12,361s22,14.24,27.19-2.59c0,0-.46-50.59-13.41-66.13"/><path class="cls-5" d="M285.84,338.8s60.86,22.63,5.18,134.6c0,0-31.08,27.4-50.5,0,0,0,14.14-57.44,8.7-90.65-.26-1.6-.57-3.16-.93-4.64C240.52,345.94,259.94,331.65,285.84,338.8Z"/><path class="cls-6" d="M272.45,482.87c-17.87,2.31-21.91-20.75-16.14-35.75S258,391.78,258,391.78c-6.92-20.76,3.83-52.62,3.83-52.62l-.13-.05c-12.12,4.89-18.47,18.2-13.45,39,.36,1.48.67,3,.93,4.64,5.44,33.21-8.7,90.65-8.7,90.65,10.53,14.85,24.47,13.6,35,9.34A16.22,16.22,0,0,0,272.45,482.87Z"/><path class="cls-7" d="M289,379.31c-5,0-10.63-4.3-13-7.66a.65.65,0,0,1,1.06-.75c2.35,3.31,8.09,7.61,12.74,7.07,2.22-.26,3.84-1.64,4.84-4.11a8,8,0,0,0-.44-7c-1.53-3-4.47-5.42-7.47-7.18a15.46,15.46,0,0,1-6.65-2.81.65.65,0,0,1,.56-1.13,25.52,25.52,0,0,1,6.53,2.72,12,12,0,0,0,6.67-.37,3.74,3.74,0,0,0,2.37-3.53,5.43,5.43,0,0,0-2.76-4.73c-4.54-3.1-12.73-3.39-15.83-2.07a.65.65,0,1,1-.51-1.19c3.84-1.64,12.48-1,17.07,2.19a6.73,6.73,0,0,1,3.32,5.84,5,5,0,0,1-3.14,4.66,10.89,10.89,0,0,1-4.77.75,18.69,18.69,0,0,1,5.76,6.25,9.26,9.26,0,0,1,.49,8c-1.17,2.9-3.2,4.6-5.89,4.91A7.89,7.89,0,0,1,289,379.31Z"/><path class="cls-4" d="M261.87,339.16s-25.23-1.5-23.94,34.76c0,0,7.77,64.75-5.18,90.65,0,0-5.18,16.83,23.31,20.72,0,0-12.95-9.06-9.06-31.08,0,0,7-41.91,2.22-71.46C249.22,382.75,243.74,350.81,261.87,339.16Z"/><path class="cls-4" d="M239.36,469.42s6.87-52.87-46.41-74.57c0,0-68.75-20.59-94,17.81,0,0-12.6,16.7-1.15,41.18,0,0,2.29,45.08-19.48,28.38,0,0-15.47-25-21.77-12.8,0,0-6.88,5,4,15,0,0-16.62-2.23-9.74,16.69,0,0,3.44,9.46,16.62,10,0,0-13.18,18.92,15.47,24.49,0,0,88.23,21.7,120.31-34.5,0,0,8-12.8-1.72-30.61,0,0,4.58-28.94,34.95,6.68"/><path class="cls-5" d="M151.16,529.57c8.18-2.53,9.66-7.78.59-8.69-12.47-1.25-22.14-1.77-33.63-7.29,9.62.11,24.45-3.32,29.64-12.17-13.14-2.71-24.76-.68-37.24-6.79,6.11-6.76,15.06-12.35,15.58-22.47.75-14.65-11.31.53-17.56,3,2.21-9.15,3.64-18.07,3.17-27.88-.1-2-.1-12-2.47-12.65-3.25-.92-5,7.95-6.15,9.72-.77-10,1.66-21.17,7.21-29.73,4.12-6.35,17.91-13.44,16.79-21.78-11.09,3.31-21.22,9.39-28.1,19.87,0,0-12.6,16.7-1.15,41.18,0,0,2.29,45.08-19.48,28.38,0,0-15.47-25-21.77-12.8,0,0-6.88,5,4,15,0,0-16.62-2.23-9.74,16.69,0,0,3.44,9.46,16.62,10,0,0-13.18,18.92,15.47,24.49,0,0,46.94,11.54,84.8-4-4.74,0-9.73,1.64-14.76,1.45-7.56-.28-13.81-1.84-21.08-3.66C138.19,530.08,144.9,531.51,151.16,529.57Z"/><path class="cls-8" d="M255,532.47s10,0,3.75-10c0,0,5-7.51-10.64-6.26h-5s3.36-2.74,6.31-10.27c-1.07.08-1.93-.73-1.93-3.5,0-7.51-6.88-.63-6.88-.63,0-4.27-1-5.57-2.22-5.54-1.48,8.21-4,16.87-8.21,22.68,0,0-15.54,12.95-1.29,15.54,0,0,9.22,3.6,13-1.4C241.84,533.09,248.72,538.1,255,532.47Z"/><path class="cls-8" d="M336.28,470.94l-2.68,4.23s-3.25-5.2-11.83-11.62c-4.62.06-2.73,5.37-2.73,5.37-4.13-2.62-4.35,1-4.13,3.29,6.17,4.25,11.74,9.45,14.09,15.36,0,0,2.63,20.06,12.44,9.41,0,0,8-5.86,5.76-11.71,0,0,7.91-3.14,6.5-11.44,0,0,5.36-8.46-6.45-8.53C347.25,465.3,343.59,457.06,336.28,470.94Z"/><path class="cls-4" d="M253.73,341s1.49-40.71-14.78-53.22l11.84,1.48s14.2,35.48,11.07,49.87Z"/><path class="cls-9" d="M81.24,517.21s-33.67-12.58-18.13-22.64a50.56,50.56,0,0,1-3.56-10.2c-3.55-.11-14.48.8-8.68,16.77,0,0,3.44,9.46,16.62,10,0,0-13.18,18.92,15.47,24.49,0,0,4.14,1,10.92,2C83.15,533.85,65.06,525.53,81.24,517.21Z"/><path class="cls-9" d="M56.6,469.42s-6.3,4.6,2.75,13.8c-.64-4.39.37-8,6.34-6.26,0,0,29.78,27.67,35,5,0,0,12.63-16.27,2.43-37.69-5.68-11.92-5-25-1-35.77A45,45,0,0,0,99,412.66s-12.6,16.7-1.15,41.18c0,0,2.29,45.08-19.48,28.38C78.38,482.22,62.91,457.18,56.6,469.42Z"/><line class="cls-9" x1="253.73" y1="314.76" x2="284.55" y2="315.65"/><polygon class="cls-9" points="247.09 286.33 278.9 287.07 262.07 332.97 247.09 286.33"/><path class="cls-4" d="M157.58,352.25s90.78-41.89,95.09,2.35c0,0-2.76,8.8-12.17,4.3,0,0-20.72-17.12-80.95,5.56"/><path class="cls-8" d="M147.47,373.42s-8.82-3.92-2.51-9.87c0,0-7.81-12.69,3.18-17.55,0,0,5.17-4.18,9.38,2.75,0,0,4.76,5.16,2.62,15.7,0,0-1,9.35,1.39,12.22,0,0-2.24,5.29-5.78,3,0,0-7-2.2-1.93-9.88Z"/><path class="cls-8" d="M281.69,143.36s-14.33-62.69-31.59-81c0,0-7.69-12.6-20.63,4.48,0,0-35.66,41.69-47.08,76.32"/><path class="cls-4" d="M417.41,189.78s-4.78-21.56-47.9-42.1-53-6.1-53-6.1-27.2-33.66-16-67c0,0-40.06-4.64-24,43.85l5.42,11.76s-23-22.18-19.41-45.24c0,0-45.33,26-7.27,46.12,0,0-66.28-18.23-97.43,28.05,0,0-47.55,91.76-103.54,99.59,0,0-17.55,1.52,11,28.86,0,0,34.36,12.69,90,12.73,0,0,140.64,5.08,162.4,45.53s83.26,56.32,77.13,23.21l-5.59-17.1s31.17,39.82,48.2,3.75c0,0,7.51-10.3-4.41-28.76,0,0,37.24,23.91,37.55-14.44,0,0,1.65-26.14-17.79-34.29,0,0,33.46,4.55,9.52-25.77C462.22,252.4,421,222.34,417.41,189.78Z"/><path class="cls-10" d="M400.32,167.06c14.88,12.79,17.09,22.72,17.09,22.72,2.67,24.2,26.11,47,38,57.13-8.46,1.61-18,1.32-21.42.07-6.15-2.27-23.6-26.87-22.29-41.75s-12.91-36.89-12.91-36.89Z"/><path class="cls-5" d="M54.23,258.69c9.19-1.28,18.16-4.84,26.72-9.87,24.44,3.24,44.72,22.59,44.72,22.59C204.41,324.1,360.11,253,360.11,253c42.45-37.23,88.28-10.15,88.28-10.15l1.68-.63a151.66,151.66,0,0,0,12.15,10.23c23.94,30.32-9.52,25.77-9.52,25.77,19.44,8.15,17.79,34.29,17.79,34.29C470.2,350.81,433,326.9,433,326.9c11.92,18.46,4.41,28.76,4.41,28.76-17,36.07-48.2-3.75-48.2-3.75l5.59,17.1c6.12,33.11-55.37,17.23-77.13-23.21s-162.4-45.53-162.4-45.53c-55.62,0-90-12.73-90-12.73C36.68,260.21,54.23,258.69,54.23,258.69Z"/><path class="cls-8" d="M413,180.58s-13.14-75.38-34.92-97.28c0,0-6.51-6.7-20.72,10.11l-40.83,48.17S403.14,158.59,413,180.58Z"/><path class="cls-8" d="M93.57,260.52s-28.48-15.4-39.34-1.84c0,0,1.62,10.94,13.46,17.47C67.69,276.15,82.79,286,93.57,260.52Z"/><path class="cls-4" d="M395.15,165.17l-1.55-16.48c-6.32-35.75-24.45-56-24.64-56.19l-1,.87c.18.2,18.07,20.19,24.31,55.49l.8,8.51c-3.54-7.56-12.15-24.64-18.61-26.43a3.67,3.67,0,0,0-3.28.53l-.31.22,1.38,12.49c-3.34-2.89-12.47-10.58-18.19-13.39l-.12-.06h-.13c-.21,0-5.28-.26-6.62,2.53-.93,1.95.16,4.61,3.33,8.15l3.19,5.75,1.13-.63-3.31-5.93c-2.74-3-3.84-5.39-3.18-6.77.78-1.62,3.93-1.86,5.25-1.81,6.81,3.4,18.92,14.13,19,14.23l1.26,1.12-1.66-15a2.46,2.46,0,0,1,1.87-.14c7.55,2.1,19.25,29,19.37,29.23Z"/><path class="cls-11" d="M297.94,315.5a11.05,11.05,0,0,0,8.5-1.26c6.36-4,7.16-14.17,7.19-14.6a1.94,1.94,0,0,0-3.88-.28h0c0,.09-.69,8.65-5.39,11.6-2.09,1.31-4.69,1.31-8,0l-.2-.07c-.12,0-12.52-3.56-13-11.47a1.94,1.94,0,0,0-3.88.26C280,310,293.6,314.2,295.06,314.62A18.81,18.81,0,0,0,297.94,315.5Z"/><path class="cls-12" d="M87.78,261.26S69.62,251,57.55,258.76c0,0,28.07,3.24,27.31,8.67C84.85,267.43,89,264.73,87.78,261.26Z"/><path class="cls-9" d="M281.7,322.8c12.15-12.91,48,28.26,48,28.26,25.84,40,56.33,21.39,56.33,21.39,3.56-1.93,5.26-6.55,5.95-11.8l2.74,8.37c6.12,33.11-55.37,17.23-77.13-23.21-4.59-8.54-14.5-15.5-27.25-21.17C290.43,324.58,281.64,322.85,281.7,322.8Z"/><path class="cls-9" d="M392.39,355.62a93.88,93.88,0,0,0-1.51-17.9c15.8,31.22,33,19,33,19,16.38-8.4,2.93-44.41,2.93-44.41,25,25.25,35.72,6.36,35.72,6.36,10.41-17.63-18.14-45-18.14-45l8.41-2.17c24.21-4.12-14.65-30-24.29-36.16a76.75,76.75,0,0,1,19.88,7.39l1.68-.63a151.66,151.66,0,0,0,12.15,10.23c23.94,30.32-9.52,25.77-9.52,25.77,19.44,8.15,17.79,34.29,17.79,34.29C470.2,350.81,433,326.9,433,326.9c11.92,18.46,4.41,28.76,4.41,28.76C423.66,384.69,400.8,364.59,392.39,355.62Z"/><path class="cls-13" d="M227.56,233.73s-15-13.42-25.59-5.5l-2.36,11s12.72-8.74,26.81,5.77"/><path class="cls-13" d="M205.33,162.65c5.86,1.25,9.69,6.63,8.52,12l-17.33,80.57c-1.13,5.35-6.83,8.67-12.69,7.42L82,240.67c-5.83-1.25-9.66-6.6-8.5-12l17.33-80.57c1.13-5.35,6.83-8.67,12.66-7.42Zm-6.4,17.7c.91-4.19-2.1-8.41-6.68-9.4L112,153.7c-4.62-1-9.09,1.61-10,5.83L88.4,223c-.91,4.19,2.1,8.41,6.71,9.4l80.2,17.25c4.62,1,9.06-1.61,10-5.81Z"/><path class="cls-14" d="M192.25,170.95c4.59,1,7.59,5.21,6.68,9.4l-13.65,63.47c-.91,4.19-5.35,6.8-10,5.81l-80.2-17.25c-4.62-1-7.62-5.21-6.71-9.4l13.65-63.44c.91-4.22,5.38-6.83,10-5.83Z"/><path class="cls-15" d="M270.24,211.09a49.47,49.47,0,0,0-15.69,30.33c-.28,2.32-.35,4.86,1,6.78,2.23,3.2,7,3,10.79,2.22a88.23,88.23,0,0,0,39.83-19.72"/><path class="cls-13" d="M348.61,193.46c5.83,1.25,9.66,6.63,8.5,12L339.77,286c-1.13,5.35-6.83,8.67-12.66,7.42L225.24,271.48c-5.83-1.25-9.66-6.6-8.5-12L234.08,179c1.13-5.35,6.83-8.67,12.66-7.42Zm-6.43,17.7c.91-4.19-2.07-8.41-6.68-9.4l-80.2-17.25c-4.62-1-9.09,1.61-10,5.83l-13.62,63.44c-.91,4.19,2.1,8.41,6.68,9.4l80.2,17.25c4.62,1,9.09-1.61,10-5.81Z"/><path class="cls-14" d="M335.49,201.76c4.62,1,7.59,5.21,6.68,9.4l-13.62,63.47c-.91,4.19-5.38,6.8-10,5.81l-80.2-17.25c-4.59-1-7.59-5.21-6.68-9.4l13.62-63.44c.91-4.22,5.38-6.83,10-5.83Z"/><path class="cls-14" d="M206.26,356.23s-3.47-15.94,4.85-22.87c0,0,22.87-4.85,35.35,4.85,0,0,13.17,20.1-6.93,25.65C239.53,363.86,213.19,354.15,206.26,356.23Z"/><path class="cls-16" d="M240.22,426.93s-4.85,2.87-4.16,11.47c0,0,4.85,46.59-5.55,68.81,0,0,15.25,5.73,23.57,2.87a203,203,0,0,0,3.47-22.22s29.11,7.88,41.59-17.2c0,0,14.56-1.43,21.49,8.6,0,0,2.08-10.75,9.7-15.05,0,0-9.7-12.19-27.73-24.37"/><path class="cls-14" d="M236.76,359s3.47,61.69-1.39,69.31l24.26,23.57,24.26-15.94,16.64,19.41S339.34,389.5,303.3,350l-16.64-.69L280.43,377,263.1,350"/><path class="cls-17" d="M264.48,355.54s0,34.66,20.79,31.88c0,0,23.82-6,10.87-32.82,0,0,22.4,19.65-9.48,38.37,0,0-27-1.39-27-40.2"/><polygon class="cls-18" points="243 333.36 270.03 342.37 265.87 367.32 239.53 343.06 243 333.36"/><polygon class="cls-18" points="293.6 338.9 281.12 343.76 288.05 363.16 303.3 349.99 293.6 338.9"/><ellipse class="cls-17" cx="286.66" cy="399.21" rx="7.62" ry="6.93"/><path class="cls-14" d="M143.68,41.36,126.5,36.61l-3,10.74,1.69,23.71s-8.59-12.86-12.94-9.1c0,0-10.41,13.68,11.1,15.76l5.32-1.29-.37-27.76,12.38,3.42Z"/><path class="cls-14" d="M113.1,99.39l-.48-9.29-6.68.41H103.7v-.07L89.09,90v.4H89v9.25h.23l6.46,18.21s-9.72-8.4-12.38-4.42c0,0-5.3,13.26,12.38,10.17l4-2.21L93.3,99.54l7.25-.25h3l5.38.22v.17l6.51,18.71s-9.72-8.4-12.38-4.42c0,0-5.3,13.26,12.38,10.17l4-2.21Z"/><path class="cls-4" d="M333.63,396.28c23.86-2.48,41.4-19,41.4-19l-6.54-9.46c-10.09,11.27-22.75,15.18-34.86,15.6Z"/><path class="cls-18" d="M314.39,373.56s11.09,8.32,18.71,4.85l2.08,18.71s-13.17,5.55-20.79-3.47"/><path class="cls-14" d="M201.05,62.82l-24.9-6.88-4.3,15.56,2.46,34.36s-12.45-18.64-18.76-13.19c0,0-15.08,19.84,16.09,22.85l7.72-1.87-.54-40.23,17.94,5Z"/><path class="cls-8" d="M362.28,375.49c-.67-4.13-8.44-21.47,5.73-14.19,1.9-3.52,4.81-7.32,9.62-6.82,5.05.53,9.3,4.63,5.94,8.52,3.91,1,4.92,3.3,2.6,6.07,15.75,6.24-22.1,29.46-22,5"/></svg>