<?xml version="1.0" encoding="UTF-8" standalone="no"?>
<svg
   xmlns:dc="http://purl.org/dc/elements/1.1/"
   xmlns:cc="http://creativecommons.org/ns#"
   xmlns:rdf="http://www.w3.org/1999/02/22-rdf-syntax-ns#"
   xmlns:svg="http://www.w3.org/2000/svg"
   xmlns="http://www.w3.org/2000/svg"
   xmlns:sodipodi="http://sodipodi.sourceforge.net/DTD/sodipodi-0.dtd"
   xmlns:inkscape="http://www.inkscape.org/namespaces/inkscape"
   id="Layer_4"
   data-name="Layer 4"
   viewBox="0 0 420 480"
   version="1.1"
   sodipodi:docname="fondo.duba-01.svg"
   inkscape:version="1.0.2 (e86c870879, 2021-01-15)">
  <metadata
     id="metadata860">
    <rdf:RDF>
      <cc:Work
         rdf:about="">
        <dc:format>image/svg+xml</dc:format>
        <dc:type
           rdf:resource="http://purl.org/dc/dcmitype/StillImage" />
      </cc:Work>
    </rdf:RDF>
  </metadata>
  <sodipodi:namedview
     pagecolor="#ffffff"
     bordercolor="#666666"
     borderopacity="1"
     objecttolerance="10"
     gridtolerance="10"
     guidetolerance="10"
     inkscape:pageopacity="0"
     inkscape:pageshadow="2"
     inkscape:window-width="1669"
     inkscape:window-height="998"
     id="namedview858"
     showgrid="false"
     inkscape:zoom="0.85104167"
     inkscape:cx="64.138204"
     inkscape:cy="413.62124"
     inkscape:window-x="0"
     inkscape:window-y="25"
     inkscape:window-maximized="0"
     inkscape:current-layer="Layer_4" />
  <defs
     id="defs7">
    <style
       id="style2">
      .cls-1 {
        fill: #233810;
      }

      .cls-1, .cls-2, .cls-3, .cls-4, .cls-5, .cls-6, .cls-7, .cls-8, .cls-9, .cls-10, .cls-11, .cls-12, .cls-13, .cls-14, .cls-15, .cls-16, .cls-17, .cls-18, .cls-19, .cls-20, .cls-21, .cls-22, .cls-23, .cls-24, .cls-25, .cls-26, .cls-27, .cls-28, .cls-29, .cls-30, .cls-31, .cls-32, .cls-33, .cls-34, .cls-35, .cls-36, .cls-37, .cls-38, .cls-39, .cls-40 {
        stroke-width: 0px;
      }

      .cls-2 {
        fill: #83d13a;
      }

      .cls-3 {
        fill: #d463a3;
      }

      .cls-4 {
        fill: #d42588;
      }

      .cls-5 {
        fill: #d9f5ff;
      }

      .cls-41 {
        stroke-width: .39px;
      }

      .cls-41, .cls-42, .cls-17, .cls-43, .cls-44, .cls-45, .cls-46, .cls-47, .cls-48 {
        fill: none;
      }

      .cls-41, .cls-42, .cls-43, .cls-44, .cls-45, .cls-46, .cls-47, .cls-48 {
        stroke-miterlimit: 10;
      }

      .cls-41, .cls-43, .cls-44, .cls-45 {
        stroke: #000;
      }

      .cls-6 {
        fill: #ccebdd;
      }

      .cls-7 {
        opacity: .4;
      }

      .cls-8 {
        fill: #a5cf39;
      }

      .cls-9 {
        fill: #73cbeb;
      }

      .cls-10 {
        fill: #dbffff;
      }

      .cls-11 {
        fill: #b30085;
      }

      .cls-12 {
        fill: #691a0e;
      }

      .cls-13 {
        fill: #bcd0e0;
      }

      .cls-14 {
        fill: #8998a3;
      }

      .cls-42 {
        stroke: #396113;
      }

      .cls-15 {
        fill: #c90095;
      }

      .cls-16 {
        fill: #436b1e;
      }

      .cls-18 {
        fill: #7a4522;
      }

      .cls-19 {
        opacity: .2;
      }

      .cls-20 {
        fill: #396113;
      }

      .cls-21 {
        fill: #8acfb0;
      }

      .cls-22 {
        fill: #94e3ff;
      }

      .cls-23 {
        fill: #c92da1;
      }

      .cls-24 {
        fill: #b7e5f7;
      }

      .cls-25 {
        fill: #ff615c;
      }

      .cls-26 {
        fill: #487a18;
      }

      .cls-27 {
        fill: #abbdcc;
      }

      .cls-28 {
        fill: #78bf35;
      }

      .cls-29 {
        fill: #fff;
      }

      .cls-43 {
        stroke-width: .44px;
      }

      .cls-44 {
        stroke-width: 1.91px;
      }

      .cls-30 {
        fill: #5e962a;
      }

      .cls-31 {
        fill: #b5ffff;
      }

      .cls-45 {
        stroke-width: 1.46px;
      }

      .cls-32 {
        fill: #84ffff;
      }

      .cls-46 {
        stroke: #436b1e;
      }

      .cls-49 {
        clip-path: url(#clippath);
      }

      .cls-33 {
        fill: #6b7780;
      }

      .cls-47 {
        stroke: #4d889e;
      }

      .cls-34 {
        fill: #b3288f;
      }

      .cls-35 {
        fill: #b3e0cc;
      }

      .cls-36 {
        fill: #7f962a;
      }

      .cls-37 {
        fill: #c4311a;
      }

      .cls-48 {
        stroke: #6b7780;
        stroke-width: .5px;
      }

      .cls-38 {
        fill: #9cadba;
      }

      .cls-39 {
        fill: #381700;
      }

      .cls-40 {
        fill: #b8ecff;
      }
    </style>
    <clipPath
       id="clippath">
      <rect
         class="cls-17"
         width="420"
         height="480"
         id="rect4" />
    </clipPath>
  </defs>
  <g
     class="cls-49"
     clip-path="url(#clippath)"
     id="g855"
     style="opacity:0.4">
    <rect
       class="cls-32"
       x="-1.33"
       y="-2.67"
       width="426.67"
       height="317.33"
       id="rect9" />
    <rect
       class="cls-31"
       x="-1.33"
       y="49.33"
       width="426.67"
       height="265.33"
       id="rect11" />
    <rect
       class="cls-10"
       x="-1.33"
       y="87.33"
       width="426.67"
       height="227.33"
       id="rect13" />
    <path
       class="cls-29"
       d="m92.66,91.66c-6.24,2.38-19.91,4.25-27.19,2.68-13.26-2.85,3.67-9.29,9.6-6.63-10.48-4.62.97-14.61,9.8-5.5.23.26.22.27-.02.02-6.06-9.28,1.83-20.43,10.53-10.17-13.08-12.74,4.45-31.36,18.6-31.08,19.36.39,19.79,20.59,10.75,32.61,4.27-3.1,16.97-8.02,21.28-1.95,4.39,6.18-4.72,12.94-9.98,13.88,3.6-1.95,19.88-4.79,20.63,2.14.6,5.51-7.97,5.74-11.81,6,6.12-.21,21.76-3.77,25.73,1.33-11,6.43-28.89,5.38-41.26,6-7.16.36-14.34.04-21.33.67-3.77.34-5.39.44-8.5-.84-2.8-1.15-3.04-4.26-6.83-4.5"
       id="path15" />
    <path
       class="cls-29"
       d="m268,63.42c-10.1.06-31.96,7.17-40.1.68,3.88-5.27,15.82-3.42,21.86-3.32-2.5-1.12-9.1-2.61-7.79-6.73,1.25-3.93,8.74-3.16,11.1-1.24-5.89-4.78,3.32-10.03,7.16-4.82-8.53-10.47,6.16-17.71,8.48-8.13-6.6-8.73,3.45-21.77,12.78-22.45,8.94-.65,23.45,15.07,15.28,22.61.4-19.59,33.6-5.23,17.32,7.95,9.87-13.74,24.53,2.23,12.82,7.48,3.16-2.78,7.89-6.15,12.42-4.73,5.47,1.71,5.03,6.48-.46,9.21,7.53.13,13.98-.12,21.65,1.34,4.29.81,13.48,1.45,6.81,5.45-4.22,2.53-13.79.63-18.65.68-6.72.08-13.23,1.04-19.87,1.33-9.99.45-22.25,3.39-31.63,2.52-5.01-.46-7.01-4-11.85-5.19-2.61-.64-10.4-1.02-12-.67"
       id="path17" />
    <path
       class="cls-35"
       d="m-12.16,69.67s33.76-12.33,42.34,20.9,27.87,97.54,27.87,97.54c0,0-65.92,68.06-76.63,62.7"
       id="path19" />
    <path
       class="cls-35"
       d="m162.54,170.16s21.44-10.88,26.8-32.65c5.36-21.76,60.56-78.09,89.5,25.61,28.94,103.7.54,56.33-5.89,56.97-6.43.64-37.51,10.88-45.02,10.88s-30.01-7.04-30.01-7.04c0,0-7.5-3.2-11.25-4.48"
       id="path21" />
    <path
       class="cls-21"
       d="m-5.73,201.5s32.69-16.08,48.76-41.27c16.08-25.19,38.05-49.3,70.74-41.8,0,0,33.23,13.93,58.41,52.52,0,0,36.44,47.16,69.67,35.91,33.23-11.25,36.44-41.27,40.73-75.03,4.29-33.76,20.36-68.06,44.48-72.35,0,0,32.15-11.25,45.55,27.87,13.4,39.12,26.26,138.26,60.56,152.2,34.3,13.93,36.98,63.77,35.37,67.52s-506.97,4.82-504.82,4.82"
       id="path23" />
    <path
       class="cls-35"
       d="m296.52,121.12s9.65,28.94,20.9,8.04l4.82-21.44s-2.68,25.19,16.61,30.55c0,0,17.15,0,17.69-30.01,0,0,6.97,38.05,29.47,33.76.28-.05.54-.14.81-.2-5.24-21.27-9.69-41.28-14.21-54.46-13.4-39.12-45.55-27.87-45.55-27.87-24.12,4.29-40.19,38.59-44.48,72.35-.91,7.16-1.77,14.15-2.88,20.83,1.99-.51,12.46-4.44,16.82-31.55Z"
       id="path25" />
    <path
       class="cls-35"
       d="m56.43,157.56c7.5-12.86,17.69,42.87,47.7,9.11,0,0,6.97,21.97,19.83,5.9,0,0,6.43-5.36,5.9-18.76-.54-13.4,0-2.14,0-2.14,0,0,1.07,29.48,16.61,21.44,0,0,5.36-1.07,4.82-13.4-.33-7.48,7.64-1.34,13.36.69-23.8-30.59-50.87-41.95-50.87-41.95-32.69-7.5-54.66,16.61-70.74,41.8-2.11,3.31-4.27,6.34-6.43,9.11l-3.21,1.08s15.54,0,23.04-12.86Z"
       id="path27" />
    <path
       class="cls-30"
       d="m227.92,254.55c1.61-.54,43.41-21.97,43.41-21.97l50.38-6.97,33.23-24.65,31.62-4.29,41.26-31.62,14.47,117.36"
       id="path29" />
    <rect
       class="cls-22"
       x="-4.12"
       y="252.94"
       width="493.57"
       height="131.83"
       id="rect31" />
    <path
       class="cls-40"
       d="m-19.67,276.52c2.14,0,289.39-8.57,289.39-8.57l-29.47,14.47,254.56-13.4,3.75,14.47-285.1,10.72,15.54-18.76"
       id="path33" />
    <path
       class="cls-5"
       d="m-8.95,256.7h310.29l-2.14,4.82,194.53-4.82,1.61,8.57s-213.29.54-211.68,1.07c1.61.54,7.5-5.9,7.5-5.9l-305.47,2.14"
       id="path35" />
    <polyline
       class="cls-30"
       points="338.32 329.04 327.06 298.5 332.42 293.14 341.53 330.11 335.64 281.35 345.28 278.13 347.43 332.79 355.47 267.95 367.79 268.48 352.25 332.79 375.83 276.52 382.26 282.42 359.75 330.65 384.41 297.96 394.05 303.32 367.79 331.72"
       id="polyline37" />
    <g
       id="g95">
      <g
         id="g71">
        <path
           class="cls-34"
           d="m353.71,310.98s-4.43-1.29-2.7-3.27c0,0,.5-.92,1.57-.25,0,0-.38-1.52,1.26-1.39,0,0,1.84-.36,1.36,2.15l.1,1.4s.61-2,2.6-1.62c0,0,1.8.3.69,1.87l-.81,1.13s2.07.19.05,1.49c0,0-3.44.93-4.12-1.5Z"
           id="path39" />
        <path
           class="cls-34"
           d="m352.25,323.46s-4.43-1.29-2.7-3.27c0,0,.5-.92,1.57-.25,0,0-.38-1.52,1.26-1.39,0,0,1.84-.36,1.36,2.15l.09,1.4s.61-2,2.6-1.62c0,0,1.79.3.69,1.87l-.81,1.13s2.07.19.05,1.49c0,0-3.44.93-4.12-1.5Z"
           id="path41" />
        <path
           class="cls-34"
           d="m352.43,333.37s-4.43-1.29-2.7-3.27c0,0,.5-.92,1.57-.25,0,0-.38-1.52,1.26-1.39,0,0,1.84-.36,1.36,2.15l.09,1.39s.61-2,2.6-1.62c0,0,1.8.3.69,1.87l-.81,1.13s2.07.19.05,1.49c0,0-3.44.93-4.12-1.5Z"
           id="path43" />
        <path
           class="cls-3"
           d="m352.82,302.11s-4.43.1-3.42-2.22c0,0,.19-.99,1.37-.68,0,0-.79-1.28.75-1.64,0,0,1.59-.86,1.87,1.58l.49,1.25s-.02-2.01,1.91-2.24c0,0,1.73-.24,1.17,1.52l-.42,1.27s1.95-.42.48,1.35c0,0-2.88,1.85-4.21-.18Z"
           id="path45" />
        <path
           class="cls-23"
           d="m351,309.43s-3.02,3.49-4.1,1.08c0,0-.63-.84.43-1.53,0,0-1.54-.29-.74-1.73,0,0,.45-1.82,2.52-.34l1.31.5s-1.56-1.39-.39-3.04c0,0,1.02-1.51,1.99.16l.69,1.21s1.04-1.8,1.38.57c0,0-.59,3.52-3.08,3.11Z"
           id="path47" />
        <path
           class="cls-23"
           d="m349.3,335.13s-4.6,3.46-5.29.25c0,0-.55-1.19.93-1.75,0,0-1.8-.75-.45-2.3,0,0,1.02-2.11,3.16.25l1.46.95s-1.54-2.11.32-3.81c0,0,1.64-1.57,2.38.71l.52,1.65s1.73-1.93,1.53,1.06c0,0-1.64,4.13-4.57,2.99Z"
           id="path49" />
        <path
           class="cls-23"
           d="m349.01,321.77s-4.25,3.2-4.89.23c0,0-.51-1.1.86-1.62,0,0-1.66-.69-.42-2.13,0,0,.94-1.95,2.93.23l1.35.88s-1.43-1.95.3-3.52c0,0,1.52-1.45,2.2.66l.48,1.53s1.6-1.78,1.41.98c0,0-1.52,3.82-4.23,2.77Z"
           id="path51" />
        <path
           class="cls-41"
           d="m353.77,347.95s-6.58-24.38-.39-48.07"
           id="path53" />
        <path
           class="cls-3"
           d="m352.05,315.09s-4.45-1.21-2.75-3.23c0,0,.48-.93,1.57-.27,0,0-.41-1.51,1.24-1.41,0,0,1.84-.39,1.4,2.13l.12,1.39s.58-2.01,2.57-1.67c0,0,1.8.27.72,1.86l-.79,1.14s2.07.15.08,1.49c0,0-3.42.99-4.14-1.43Z"
           id="path55" />
        <path
           class="cls-3"
           d="m351.71,328.35s-5.76.12-4.44-2.89c0,0,.25-1.28,1.78-.88,0,0-1.02-1.66.98-2.13,0,0,2.06-1.12,2.42,2.05l.63,1.62s-.02-2.61,2.49-2.91c0,0,2.25-.32,1.52,1.97l-.54,1.65s2.53-.55.62,1.75c0,0-3.74,2.4-5.46-.24Z"
           id="path57" />
        <path
           class="cls-3"
           d="m352.56,339.47s-5.25,2.37-5.21-.92c0,0-.27-1.28,1.29-1.51,0,0-1.59-1.13.07-2.34,0,0,1.46-1.83,3.03.94l1.22,1.25s-1.04-2.4,1.15-3.65c0,0,1.95-1.17,2.17,1.22l.14,1.73s2.11-1.5,1.26,1.37c0,0-2.51,3.67-5.12,1.91Z"
           id="path59" />
        <path
           class="cls-41"
           d="m350.99,314.98s-.02-1.58,2.63-1.29"
           id="path61" />
        <path
           class="cls-41"
           d="m350.91,328.39s.48-2.75,3.16-2.92"
           id="path63" />
        <line
           class="cls-41"
           x1="352.22"
           y1="340.12"
           x2="351.42"
           y2="334.64"
           id="line65" />
        <path
           class="cls-41"
           d="m351.45,314.29s.79-.94.48-2.34"
           id="path67" />
        <path
           class="cls-41"
           d="m351,327.81s.71-1.18-.25-3.33"
           id="path69" />
      </g>
      <path
         class="cls-41"
         d="m351.87,338.59c-.16-.79-1.68-3.07-1.98-2.78"
         id="path73" />
      <path
         class="cls-41"
         d="m351.78,339.17c.24-.77,1.42-2.61,2.16-2.2"
         id="path75" />
      <path
         class="cls-41"
         d="m350.75,328.3c-.31-.95-.97-2.11-1.16-2.77"
         id="path77" />
      <path
         class="cls-41"
         d="m351.07,314.82c-.12-.69-.15-1.45-.51-2.02"
         id="path79" />
      <path
         class="cls-41"
         d="m352.53,302.34c.03-.72-.42-1.95-.84-2.19"
         id="path81" />
      <path
         class="cls-41"
         d="m353.2,301.44c-.11-.75,1.12-2.08,1.7-1.5"
         id="path83" />
      <path
         class="cls-41"
         d="m351.13,327.77c.9-.83,2.17-.08,2.96-.13"
         id="path85" />
      <path
         class="cls-41"
         d="m351.2,314.78c.88-.42,2.01-.03,2.83.32"
         id="path87" />
      <path
         class="cls-41"
         d="m350.37,322.01c-.2-.76-.57-1.51-1.29-1.91"
         id="path89" />
      <path
         class="cls-41"
         d="m350.98,333.69c-.39-.7-1.15-1.06-1.75-1.62"
         id="path91" />
      <path
         class="cls-41"
         d="m351.59,308.78c-.1-.59-.39-1.16-.89-1.49"
         id="path93" />
    </g>
    <g
       id="g153">
      <g
         id="g129">
        <path
           class="cls-34"
           d="m366.16,302.84s-4.43-1.29-2.7-3.27c0,0,.5-.92,1.57-.25,0,0-.38-1.52,1.26-1.39,0,0,1.84-.36,1.36,2.15l.1,1.4s.61-2,2.6-1.62c0,0,1.8.3.69,1.87l-.81,1.13s2.07.19.05,1.49c0,0-3.44.93-4.12-1.5Z"
           id="path97" />
        <path
           class="cls-34"
           d="m364.7,315.32s-4.43-1.29-2.7-3.27c0,0,.5-.92,1.57-.25,0,0-.38-1.52,1.26-1.39,0,0,1.84-.36,1.36,2.15l.09,1.4s.61-2,2.6-1.62c0,0,1.79.3.69,1.87l-.81,1.13s2.07.19.05,1.49c0,0-3.44.93-4.12-1.5Z"
           id="path99" />
        <path
           class="cls-34"
           d="m364.88,325.23s-4.43-1.29-2.7-3.27c0,0,.5-.92,1.57-.25,0,0-.38-1.52,1.26-1.39,0,0,1.84-.36,1.36,2.15l.09,1.39s.61-2,2.6-1.62c0,0,1.8.3.69,1.87l-.81,1.13s2.07.19.05,1.49c0,0-3.44.93-4.12-1.5Z"
           id="path101" />
        <path
           class="cls-3"
           d="m365.27,293.97s-4.43.1-3.42-2.22c0,0,.19-.99,1.37-.68,0,0-.79-1.28.75-1.64,0,0,1.59-.86,1.87,1.58l.49,1.25s-.02-2.01,1.91-2.24c0,0,1.73-.24,1.17,1.52l-.42,1.27s1.95-.42.48,1.35c0,0-2.88,1.85-4.21-.18Z"
           id="path103" />
        <path
           class="cls-23"
           d="m363.45,301.3s-3.02,3.49-4.1,1.08c0,0-.63-.84.43-1.53,0,0-1.54-.29-.74-1.73,0,0,.45-1.82,2.52-.34l1.31.5s-1.56-1.39-.39-3.04c0,0,1.02-1.51,1.99.16l.69,1.21s1.04-1.8,1.38.57c0,0-.59,3.52-3.08,3.11Z"
           id="path105" />
        <path
           class="cls-23"
           d="m361.74,326.99s-4.6,3.46-5.29.25c0,0-.55-1.19.93-1.75,0,0-1.8-.75-.45-2.3,0,0,1.02-2.11,3.16.25l1.46.95s-1.54-2.11.32-3.81c0,0,1.64-1.57,2.38.71l.52,1.65s1.73-1.93,1.53,1.06c0,0-1.64,4.13-4.57,2.99Z"
           id="path107" />
        <path
           class="cls-23"
           d="m361.45,313.63s-4.25,3.2-4.89.23c0,0-.51-1.1.86-1.62,0,0-1.66-.69-.42-2.13,0,0,.94-1.95,2.93.23l1.35.88s-1.43-1.95.3-3.52c0,0,1.52-1.45,2.2.66l.48,1.53s1.6-1.78,1.41.98c0,0-1.52,3.82-4.23,2.77Z"
           id="path109" />
        <path
           class="cls-41"
           d="m366.22,339.81s-6.58-24.38-.39-48.07"
           id="path111" />
        <path
           class="cls-3"
           d="m364.5,306.95s-4.45-1.21-2.75-3.23c0,0,.48-.93,1.57-.27,0,0-.41-1.51,1.24-1.41,0,0,1.84-.39,1.4,2.13l.12,1.39s.58-2.01,2.57-1.67c0,0,1.8.27.72,1.86l-.79,1.14s2.07.15.08,1.49c0,0-3.42.99-4.14-1.43Z"
           id="path113" />
        <path
           class="cls-3"
           d="m364.16,320.21s-5.76.12-4.44-2.89c0,0,.25-1.28,1.78-.88,0,0-1.02-1.66.98-2.13,0,0,2.06-1.12,2.42,2.05l.63,1.62s-.02-2.61,2.49-2.91c0,0,2.25-.32,1.52,1.97l-.54,1.65s2.53-.55.62,1.75c0,0-3.74,2.4-5.46-.24Z"
           id="path115" />
        <path
           class="cls-3"
           d="m365,331.33s-5.25,2.37-5.21-.92c0,0-.27-1.28,1.29-1.51,0,0-1.59-1.13.07-2.34,0,0,1.46-1.83,3.03.94l1.22,1.25s-1.04-2.4,1.15-3.65c0,0,1.95-1.17,2.16,1.22l.14,1.73s2.11-1.5,1.26,1.37c0,0-2.51,3.67-5.12,1.91Z"
           id="path117" />
        <path
           class="cls-41"
           d="m363.44,306.85s-.02-1.58,2.63-1.29"
           id="path119" />
        <path
           class="cls-41"
           d="m363.36,320.25s.48-2.75,3.16-2.92"
           id="path121" />
        <line
           class="cls-41"
           x1="364.67"
           y1="331.98"
           x2="363.87"
           y2="326.5"
           id="line123" />
        <path
           class="cls-41"
           d="m363.9,306.15s.79-.94.48-2.34"
           id="path125" />
        <path
           class="cls-41"
           d="m363.45,319.67s.71-1.18-.25-3.33"
           id="path127" />
      </g>
      <path
         class="cls-41"
         d="m364.31,330.46c-.16-.79-1.68-3.07-1.98-2.78"
         id="path131" />
      <path
         class="cls-41"
         d="m364.23,331.03c.24-.77,1.42-2.61,2.16-2.2"
         id="path133" />
      <path
         class="cls-41"
         d="m363.2,320.17c-.31-.95-.97-2.11-1.16-2.77"
         id="path135" />
      <path
         class="cls-41"
         d="m363.52,306.68c-.12-.69-.15-1.45-.51-2.02"
         id="path137" />
      <path
         class="cls-41"
         d="m364.98,294.2c.03-.72-.42-1.95-.84-2.19"
         id="path139" />
      <path
         class="cls-41"
         d="m365.65,293.3c-.11-.75,1.12-2.08,1.7-1.5"
         id="path141" />
      <path
         class="cls-41"
         d="m363.58,319.64c.9-.83,2.17-.08,2.96-.13"
         id="path143" />
      <path
         class="cls-41"
         d="m363.64,306.64c.88-.42,2.01-.03,2.83.32"
         id="path145" />
      <path
         class="cls-41"
         d="m362.82,313.87c-.2-.76-.57-1.51-1.29-1.91"
         id="path147" />
      <path
         class="cls-41"
         d="m363.43,325.55c-.39-.7-1.15-1.06-1.75-1.62"
         id="path149" />
      <path
         class="cls-41"
         d="m364.04,300.65c-.1-.59-.39-1.16-.89-1.49"
         id="path151" />
    </g>
    <g
       id="g211">
      <g
         id="g187">
        <path
           class="cls-34"
           d="m410.22,296.36s-4.87-1.5-2.97-3.81c0,0,.55-1.07,1.73-.29,0,0-.42-1.77,1.39-1.62,0,0,2.03-.42,1.5,2.5l.1,1.62s.67-2.33,2.86-1.89c0,0,1.98.35.76,2.18l-.89,1.31s2.28.22.06,1.74c0,0-3.78,1.09-4.53-1.74Z"
           id="path155" />
        <path
           class="cls-34"
           d="m408.62,310.9s-4.87-1.5-2.97-3.81c0,0,.55-1.07,1.73-.29,0,0-.42-1.77,1.39-1.62,0,0,2.03-.42,1.5,2.5l.1,1.62s.67-2.33,2.86-1.89c0,0,1.97.35.76,2.18l-.89,1.32s2.28.22.06,1.74c0,0-3.78,1.09-4.53-1.74Z"
           id="path157" />
        <path
           class="cls-34"
           d="m408.81,322.44s-4.88-1.5-2.97-3.81c0,0,.55-1.07,1.73-.29,0,0-.42-1.77,1.39-1.62,0,0,2.03-.42,1.5,2.5l.1,1.62s.67-2.33,2.86-1.89c0,0,1.98.35.76,2.18l-.89,1.31s2.28.22.06,1.74c0,0-3.78,1.09-4.53-1.74Z"
           id="path159" />
        <path
           class="cls-3"
           d="m409.24,286.04s-4.88.11-3.76-2.59c0,0,.21-1.15,1.51-.79,0,0-.87-1.49.83-1.91,0,0,1.75-1,2.05,1.84l.54,1.46s-.02-2.34,2.11-2.61c0,0,1.91-.28,1.29,1.76l-.46,1.48s2.14-.49.53,1.57c0,0-3.17,2.15-4.63-.21Z"
           id="path161" />
        <path
           class="cls-23"
           d="m407.24,294.56s-3.33,4.06-4.51,1.26c0,0-.69-.98.48-1.78,0,0-1.69-.33-.81-2.01,0,0,.49-2.12,2.77-.39l1.44.58s-1.72-1.62-.43-3.54c0,0,1.13-1.75,2.18.18l.75,1.41s1.14-2.1,1.52.67c0,0-.65,4.09-3.39,3.63Z"
           id="path163" />
        <path
           class="cls-23"
           d="m405.36,324.49s-5.06,4.03-5.82.29c0,0-.6-1.38,1.02-2.04,0,0-1.98-.87-.49-2.68,0,0,1.12-2.46,3.48.29l1.61,1.11s-1.7-2.46.35-4.44c0,0,1.81-1.83,2.62.83l.57,1.93s1.91-2.24,1.68,1.24c0,0-1.8,4.81-5.03,3.49Z"
           id="path165" />
        <path
           class="cls-23"
           d="m405.04,308.93s-4.68,3.73-5.38.26c0,0-.56-1.28.95-1.89,0,0-1.83-.81-.46-2.48,0,0,1.04-2.27,3.22.27l1.49,1.02s-1.57-2.27.33-4.1c0,0,1.67-1.69,2.42.77l.53,1.78s1.76-2.07,1.56,1.14c0,0-1.67,4.45-4.65,3.22Z"
           id="path167" />
        <path
           class="cls-43"
           d="m410.29,339.42s-7.24-28.39-.43-55.98"
           id="path169" />
        <path
           class="cls-3"
           d="m408.39,301.15s-4.9-1.41-3.03-3.76c0,0,.53-1.08,1.72-.32,0,0-.45-1.76,1.36-1.65,0,0,2.02-.45,1.54,2.48l.13,1.62s.64-2.34,2.83-1.94c0,0,1.98.31.79,2.16l-.87,1.33s2.28.18.09,1.73c0,0-3.77,1.15-4.56-1.66Z"
           id="path171" />
        <path
           class="cls-3"
           d="m408.02,316.6s-6.33.15-4.88-3.36c0,0,.27-1.49,1.96-1.03,0,0-1.12-1.93,1.08-2.48,0,0,2.27-1.3,2.67,2.39l.7,1.89s-.02-3.04,2.73-3.38c0,0,2.47-.37,1.67,2.29l-.6,1.92s2.78-.64.69,2.04c0,0-4.12,2.79-6.01-.28Z"
           id="path173" />
        <path
           class="cls-3"
           d="m408.95,329.54s-5.77,2.75-5.73-1.08c0,0-.3-1.49,1.42-1.75,0,0-1.75-1.31.07-2.73,0,0,1.61-2.13,3.34,1.09l1.34,1.45s-1.15-2.79,1.27-4.25c0,0,2.14-1.36,2.38,1.42l.16,2.01s2.33-1.74,1.38,1.6c0,0-2.76,4.28-5.63,2.23Z"
           id="path175" />
        <path
           class="cls-43"
           d="m407.22,301.03s-.02-1.84,2.89-1.51"
           id="path177" />
        <path
           class="cls-43"
           d="m407.14,316.64s.53-3.2,3.48-3.4"
           id="path179" />
        <line
           class="cls-43"
           x1="408.58"
           y1="330.3"
           x2="407.7"
           y2="323.92"
           id="line181" />
        <path
           class="cls-43"
           d="m407.73,300.22s.87-1.09.53-2.72"
           id="path183" />
        <path
           class="cls-43"
           d="m407.24,315.97s.78-1.38-.27-3.88"
           id="path185" />
      </g>
      <path
         class="cls-43"
         d="m408.19,328.52c-.18-.92-1.85-3.57-2.18-3.24"
         id="path189" />
      <path
         class="cls-43"
         d="m408.09,329.19c.27-.89,1.57-3.04,2.38-2.56"
         id="path191" />
      <path
         class="cls-43"
         d="m406.96,316.54c-.34-1.11-1.07-2.46-1.28-3.22"
         id="path193" />
      <path
         class="cls-43"
         d="m407.32,300.84c-.13-.8-.16-1.68-.56-2.35"
         id="path195" />
      <path
         class="cls-43"
         d="m408.92,286.3c.03-.84-.46-2.27-.92-2.55"
         id="path197" />
      <path
         class="cls-43"
         d="m409.66,285.26c-.12-.87,1.23-2.42,1.87-1.75"
         id="path199" />
      <path
         class="cls-43"
         d="m407.38,315.92c.99-.96,2.39-.09,3.26-.15"
         id="path201" />
      <path
         class="cls-43"
         d="m407.45,300.79c.97-.49,2.21-.04,3.12.37"
         id="path203" />
      <path
         class="cls-43"
         d="m406.55,309.21c-.22-.89-.63-1.76-1.42-2.22"
         id="path205" />
      <path
         class="cls-43"
         d="m407.21,322.81c-.43-.82-1.27-1.24-1.92-1.89"
         id="path207" />
      <path
         class="cls-43"
         d="m407.89,293.81c-.11-.69-.42-1.35-.98-1.74"
         id="path209" />
    </g>
    <g
       id="g269">
      <g
         id="g245">
        <path
           class="cls-34"
           d="m389.98,307.08s4.87-1.5,2.97-3.81c0,0-.55-1.07-1.73-.29,0,0,.42-1.77-1.39-1.62,0,0-2.03-.42-1.5,2.5l-.1,1.62s-.67-2.33-2.86-1.89c0,0-1.98.35-.76,2.18l.89,1.31s-2.28.22-.06,1.74c0,0,3.78,1.09,4.53-1.74Z"
           id="path213" />
        <path
           class="cls-34"
           d="m391.58,321.61s4.87-1.5,2.97-3.81c0,0-.55-1.07-1.73-.29,0,0,.42-1.77-1.39-1.62,0,0-2.03-.42-1.5,2.5l-.1,1.62s-.67-2.33-2.86-1.89c0,0-1.97.35-.76,2.18l.89,1.31s-2.28.22-.06,1.74c0,0,3.78,1.09,4.53-1.74Z"
           id="path215" />
        <path
           class="cls-34"
           d="m391.39,333.15s4.88-1.5,2.97-3.81c0,0-.55-1.07-1.73-.29,0,0,.42-1.77-1.39-1.62,0,0-2.03-.42-1.5,2.5l-.1,1.62s-.67-2.33-2.86-1.89c0,0-1.98.35-.76,2.18l.89,1.32s-2.28.22-.06,1.74c0,0,3.78,1.09,4.53-1.74Z"
           id="path217" />
        <path
           class="cls-3"
           d="m390.96,296.76s4.88.11,3.76-2.59c0,0-.21-1.15-1.51-.79,0,0,.87-1.49-.83-1.91,0,0-1.75-1-2.05,1.84l-.54,1.46s.02-2.34-2.11-2.61c0,0-1.91-.28-1.29,1.76l.46,1.48s-2.14-.49-.53,1.57c0,0,3.17,2.15,4.63-.21Z"
           id="path219" />
        <path
           class="cls-23"
           d="m392.96,305.28s3.33,4.06,4.51,1.26c0,0,.69-.98-.48-1.78,0,0,1.69-.33.81-2.01,0,0-.49-2.12-2.77-.39l-1.44.58s1.72-1.62.43-3.54c0,0-1.13-1.75-2.18.18l-.75,1.41s-1.14-2.1-1.52.67c0,0,.65,4.09,3.39,3.63Z"
           id="path221" />
        <path
           class="cls-23"
           d="m394.84,335.21s5.06,4.03,5.82.29c0,0,.6-1.38-1.02-2.04,0,0,1.98-.87.49-2.68,0,0-1.12-2.46-3.48.29l-1.61,1.11s1.7-2.46-.35-4.44c0,0-1.81-1.83-2.62.83l-.57,1.93s-1.91-2.24-1.68,1.24c0,0,1.8,4.81,5.03,3.49Z"
           id="path223" />
        <path
           class="cls-23"
           d="m395.16,319.65s4.68,3.73,5.38.26c0,0,.56-1.28-.95-1.89,0,0,1.83-.81.46-2.48,0,0-1.04-2.27-3.22.27l-1.49,1.02s1.57-2.27-.33-4.1c0,0-1.67-1.69-2.42.77l-.53,1.78s-1.76-2.07-1.56,1.14c0,0,1.67,4.45,4.65,3.22Z"
           id="path225" />
        <path
           class="cls-43"
           d="m389.91,350.14s7.24-28.39.43-55.98"
           id="path227" />
        <path
           class="cls-3"
           d="m391.81,311.87s4.9-1.41,3.03-3.76c0,0-.53-1.08-1.72-.32,0,0,.45-1.76-1.36-1.65,0,0-2.02-.45-1.54,2.48l-.13,1.62s-.64-2.34-2.83-1.94c0,0-1.98.31-.79,2.16l.87,1.33s-2.28.18-.09,1.73c0,0,3.77,1.15,4.56-1.66Z"
           id="path229" />
        <path
           class="cls-3"
           d="m392.18,327.31s6.33.15,4.88-3.36c0,0-.27-1.49-1.96-1.03,0,0,1.12-1.93-1.08-2.48,0,0-2.27-1.3-2.67,2.39l-.7,1.89s.02-3.04-2.73-3.38c0,0-2.47-.37-1.67,2.29l.6,1.92s-2.78-.64-.68,2.04c0,0,4.12,2.79,6.01-.28Z"
           id="path231" />
        <path
           class="cls-3"
           d="m391.25,340.26s5.77,2.75,5.73-1.08c0,0,.3-1.49-1.42-1.75,0,0,1.75-1.31-.07-2.73,0,0-1.61-2.13-3.34,1.09l-1.34,1.45s1.15-2.79-1.27-4.25c0,0-2.14-1.36-2.38,1.42l-.16,2.01s-2.33-1.74-1.38,1.6c0,0,2.76,4.28,5.63,2.23Z"
           id="path233" />
        <path
           class="cls-43"
           d="m392.98,311.75s.02-1.84-2.89-1.51"
           id="path235" />
        <path
           class="cls-43"
           d="m393.06,327.35s-.53-3.2-3.48-3.4"
           id="path237" />
        <line
           class="cls-43"
           x1="391.62"
           y1="341.02"
           x2="392.5"
           y2="334.64"
           id="line239" />
        <path
           class="cls-43"
           d="m392.47,310.94s-.87-1.09-.53-2.72"
           id="path241" />
        <path
           class="cls-43"
           d="m392.96,326.69s-.78-1.38.27-3.88"
           id="path243" />
      </g>
      <path
         class="cls-43"
         d="m392.01,339.24c.18-.92,1.85-3.57,2.18-3.24"
         id="path247" />
      <path
         class="cls-43"
         d="m392.11,339.91c-.27-.89-1.57-3.04-2.38-2.56"
         id="path249" />
      <path
         class="cls-43"
         d="m393.24,327.26c.34-1.11,1.07-2.46,1.28-3.22"
         id="path251" />
      <path
         class="cls-43"
         d="m392.89,311.56c.13-.8.16-1.68.56-2.35"
         id="path253" />
      <path
         class="cls-43"
         d="m391.28,297.02c-.03-.84.46-2.27.92-2.55"
         id="path255" />
      <path
         class="cls-43"
         d="m390.54,295.98c.12-.87-1.23-2.42-1.87-1.75"
         id="path257" />
      <path
         class="cls-43"
         d="m392.82,326.64c-.99-.96-2.39-.09-3.26-.15"
         id="path259" />
      <path
         class="cls-43"
         d="m392.75,311.51c-.97-.49-2.21-.04-3.12.37"
         id="path261" />
      <path
         class="cls-43"
         d="m393.66,319.93c.22-.89.63-1.76,1.42-2.22"
         id="path263" />
      <path
         class="cls-43"
         d="m392.99,333.53c.43-.82,1.27-1.24,1.92-1.89"
         id="path265" />
      <path
         class="cls-43"
         d="m392.31,304.53c.11-.69.42-1.35.98-1.74"
         id="path267" />
    </g>
    <polyline
       class="cls-30"
       points="280.44 334.94 271.33 319.93 278.3 315.64 284.19 335.47 277.76 300.64 284.73 299.03 288.48 333.33 291.16 300.1 298.66 300.64 293.3 337.08 300.8 310.29 307.77 310.82 298.66 335.47 308.84 317.79 314.2 319.93 304.02 336.01"
       id="polyline271" />
    <path
       class="cls-30"
       d="m-3.05,263.12s101.29-1.07,142.01,12.33c40.73,13.4,106.11,61.09,106.11,61.09L-30.38,369.77"
       id="path273" />
    <g
       id="g335">
      <g
         id="g299">
        <path
           class="cls-36"
           d="m104.34,183.55s1.1,14.07,14.38,24.01l-18.55,2.67-14.52-5.78-20.27,2.13s17.55-10.76,22.34-21.78c4.79-11.02,13.47-12.26,16.61-1.25Z"
           id="path275" />
        <polyline
           class="cls-16"
           points="118.72 207.56 113.33 215.52 93.69 218.06 72.7 212.47 65.39 206.59 87.64 199.06"
           id="polyline277" />
        <polyline
           class="cls-1"
           points="89.18 202.24 72.59 207.85 78.04 212.23 93.69 216.4 108.33 214.51 112.35 208.58"
           id="polyline279" />
        <polygon
           class="cls-36"
           points="107.22 208.13 120.86 233.38 102.48 230.43 84.44 228.86 66.48 228.29 56.87 231.41 80.08 205.42 89.33 202.26 107.22 208.13"
           id="polygon281" />
        <polygon
           class="cls-16"
           points="120.86 233.38 95.16 224.55 70.36 224.12 56.77 231.73 73.25 241.07 107.17 241.3 120.86 233.38"
           id="polygon283" />
        <polygon
           class="cls-1"
           points="113.05 234.25 93.28 228.29 74.53 227.61 65.73 232.08 77.39 238.27 103.02 238.98 113.05 234.25"
           id="polygon285" />
        <polygon
           class="cls-36"
           points="109.92 233.35 127.55 260.42 103.51 256.77 80.05 254.52 56.78 253.29 44.62 256.09 73.78 227.86 92.93 228.25 109.92 233.35"
           id="polygon287" />
        <polygon
           class="cls-16"
           points="127.55 260.42 93.54 250.56 61.43 249.22 45.17 255.5 66.65 266.46 110.54 267.92 127.55 260.42"
           id="polygon289" />
        <polygon
           class="cls-1"
           points="117.52 261.01 91.43 254.27 67.12 252.9 56.14 257.1 71.75 263.78 104.97 265.43 117.52 261.01"
           id="polygon291" />
        <polygon
           class="cls-36"
           points="108.33 259.03 129.96 286.59 102.01 282.46 74.79 279.75 47.84 278.06 33.92 280.64 66.32 252.82 88.46 253.57 108.33 259.03"
           id="polygon293" />
        <polygon
           class="cls-16"
           points="129.96 286.59 90.2 276.02 53.03 274.06 34.53 280.06 59.86 291.49 110.65 293.82 129.96 286.59"
           id="polygon295" />
        <polygon
           class="cls-1"
           points="118.39 287 87.94 279.72 59.78 277.87 47.28 281.88 65.63 288.89 104.1 291.19 118.39 287"
           id="polygon297" />
      </g>
      <polygon
         class="cls-18"
         points="69.53 279.22 69.94 303.63 83.96 303.94 98.87 282.2 87.94 279.72 69.53 279.22"
         id="polygon301" />
      <path
         class="cls-30"
         d="m68.68,308.86c4.37-3.5.83-9.98,6.15-13.78,2.16,2.04,1.6,6.34,1.49,9.26,1.15-3.5,2.45-7.26,6.13-8.8,1.89,2.55.2,8.44-1.58,11.07,1.08-9.76,14.29-4.73,6.04,2.97,1.77-2.92,5.38-4.57,8.63-3.97.56,2.9-.8,5.34-2.22,7.83-.87.59-.03-.36-.3-.67"
         id="path303" />
      <path
         class="cls-46"
         d="m102.44,180.06c1.22,2.27.4,6.59.53,9.52.2,4.84.99,9.77,2.07,14.47.09-1.58-.06-3.15-.46-4.7"
         id="path305" />
      <path
         class="cls-46"
         d="m94.4,202.03c1.72-7.97,2.24-16.76,3.75-24.65"
         id="path307" />
      <path
         class="cls-46"
         d="m84.21,202.03c1.09-2.54,1.16-4.81,1.6-7.52.18-1.12,1.41-6.45,1.08-4.81"
         id="path309" />
      <path
         class="cls-46"
         d="m106.19,207.39c-2.35,6.26-3.37,13.41-5.95,19.67.52-.67.41-1.26.59-1.98"
         id="path311" />
      <path
         class="cls-46"
         d="m97.61,204.71c0,2.95-.17,5.81-.42,8.68-.21,2.45-.32,4.98-.62,7.41-.11.84-.32,5.23-.57,3.2"
         id="path313" />
      <path
         class="cls-46"
         d="m83.14,223.47c6.15-5.45,6.85-16.17,9.65-23.58"
         id="path315" />
      <path
         class="cls-46"
         d="m74.03,224c3.49-5.15,4.07-17.41,7.5-20.36"
         id="path317" />
      <path
         class="cls-46"
         d="m77.25,226.68c-1.22,7.36-3.45,18.18-8.02,24,1.06-1.12,1.77-2.39,2.66-3.64"
         id="path319" />
      <path
         class="cls-46"
         d="m88.5,225.61c-1.83,5.45-4.87,10.25-6.83,15.55-.66,1.77-1.25,3.57-1.86,5.35-.47,1.37-2.87,3.52-.95,2.68"
         id="path321" />
      <path
         class="cls-46"
         d="m94.4,227.22c0,7.92-2.87,19.32.03,26.62-.03-.63-.1-1.34-.03-1.96"
         id="path323" />
      <path
         class="cls-46"
         d="m105.65,229.36c-.37,6.27,1.16,18.98,4.29,25.72"
         id="path325" />
      <path
         class="cls-46"
         d="m54.2,274.91c9.46-6.97,12.62-14.99,18.22-24.12"
         id="path327" />
      <path
         class="cls-46"
         d="m72.42,275.45c4.41-5.85,5.65-17.84,5.9-23.58"
         id="path329" />
      <path
         class="cls-46"
         d="m90.65,252.94c-3.46,6.12-4.7,17.17-9.99,23.66.59-.3.92-.75,1.42-1.15"
         id="path331" />
      <path
         class="cls-46"
         d="m99.76,255.62c2.67,6.39,1,16.04,4.29,23.04"
         id="path333" />
    </g>
    <path
       class="cls-28"
       d="m219.5,329s117-6,203.5,4.5,2,195-11,194-285-19.5-286.5-19.5-38.5-23.5-41-29.5-11.5-73-11.5-73c0,0,14.5-42,18-41.5s10.07-13.19,12.54-11.84"
       id="path337" />
    <polyline
       class="cls-14"
       points="405.21 430.2 385.99 409.66 370.49 411.22 357.46 410.42 341.62 421.34 334.96 433.61 336.18 446.08 366.65 451.03 398.1 447.19"
       id="polyline339" />
    <polyline
       class="cls-33"
       points="376.49 425.66 366.65 451.03 398.33 451 405.67 430.67 399.67 424.33"
       id="polyline341" />
    <polygon
       class="cls-13"
       points="357.46 410.42 376.49 425.66 399.88 424.31 385.99 409.66 357.46 410.42"
       id="polygon343" />
    <path
       class="cls-9"
       d="m347.23,405.9l.91,27.16v14.03l81.02-1.81.91,57.94s-235.38-4.07-236.74-5.88,9.05-31.69,9.05-31.69"
       id="path345" />
    <path
       class="cls-9"
       d="m348.14,414.05c3.62-25.8-33.5-29.88-33.5-29.88l.11-.09c-125.3.79-275.52-7.02-86.11-55.51l-63.64,1.92S15.82,341.4-3.23,358.49c-19.05,17.09-71.85,112.7,10.34,124.98,31.9,4.77,105.19,5.43,182.94,4.46,56.06-19.38,155.5-55.49,158.08-73.88Z"
       id="path347" />
    <g
       id="g357">
      <path
         class="cls-47"
         d="m127.73,346.18s-93.27,36.45-8.06,48.78l158.09,23.58s33.23,3.75,30.01,18.22l.54,58.41"
         id="path349" />
      <path
         class="cls-47"
         d="m337.78,434.61c3.75-35.37-44.48-38.05-44.48-38.05l-152.73-15c-61.63-3.75,2.68-30.55,2.68-30.55,0,0,43.94-17.15,72.88-20.9"
         id="path351" />
      <path
         class="cls-47"
         d="m95.56,354.23s-55.2,25.19-12.86,38.05c42.34,12.86,109.32,20.9,109.32,20.9l58.95,7.5s36.98,6.97,39.12,17.15c2.14,10.18-.54,66.99-.54,66.99"
         id="path353" />
      <path
         class="cls-47"
         d="m267.04,483.38s6.97-36.98-8.57-45.55-177.38-35.37-177.38-35.37c0,0-107.18-21.97-1.07-52.52l83.07-18.22"
         id="path355" />
    </g>
    <path
       class="cls-24"
       d="m120.99,340.56l-5.34.56,3.37,3.37s7.87,1.69,8.71,1.69,12.36-1.69,12.36-1.69l-8.43-4.5"
       id="path359" />
    <path
       class="cls-24"
       d="m71.82,346.74l-6.46.84-1.12,2.53s7.02,1.4,7.87,1.4,13.49-.56,13.49-.56c0,0-4.78,3.37-3.93,3.65.84.28,13.77,1.97,13.77,1.97l13.77-3.09-20.51-7.59"
       id="path361" />
    <polyline
       class="cls-24"
       points="14.23 368.09 8.33 369.78 14.79 375.96 43.44 377.92 81.94 373.99 88.12 370.34 76.04 366.4"
       id="polyline363" />
    <polygon
       class="cls-24"
       points="218.33 386.33 269 399.67 304.33 392.33 268.33 412.33 237.67 405.67 218.33 386.33"
       id="polygon365" />
    <path
       class="cls-24"
       d="m111,371.67l-15.33,3.33,10.67,12,32.67,2.67-7.33,5.33,16.67,6,32-2h7.33l6.67,5.33s12,.67,14.67,0c2.67-.67,12.67-8,12.67-8l-10,12.67-20-.67-8.67-6.67-29.33,5.33-34-14-19.33-3.33-14-14.67,24.67-3.33Z"
       id="path367" />
    <polyline
       class="cls-24"
       points="84.33 456.33 119.67 462.33 175 455.67 185 453 147 438.33 73 432.33"
       id="polyline369" />
    <polyline
       class="cls-14"
       points="164.36 375.58 151.23 359.73 138.56 359.28 128.15 357.47 114.12 363.35 107.33 371.05 106.87 379.65 130.86 385.99 156.66 386.44"
       id="polyline371" />
    <polyline
       class="cls-33"
       points="141.73 369.69 130.86 385.99 156.11 387.48 164.54 374.55"
       id="polyline373" />
    <path
       class="cls-33"
       d="m171.15,374.67l5.88-10.86,8.6-3.17,8.6,4.98,1.36,4.98-2.72,5.88s-3.17.45-5.43.91"
       id="path375" />
    <path
       class="cls-33"
       d="m171.15,374.67l5.88-10.86,8.6-3.17,8.6,4.98,1.36,4.98-2.72,5.88s-3.17.45-5.43.91"
       id="path377" />
    <path
       class="cls-14"
       d="m145.35,392.32s-4.98-9.05-1.36-14.03l10.86-2.72,41.19-2.72,10.86,10.41.45,8.15-10.86,2.72-40.74,1.81-10.41-3.62Z"
       id="path379" />
    <g
       id="g389">
      <path
         class="cls-27"
         d="m56.63,406.81l4.98-12.67,27.16-4.07,25.8,18.56,19.92,30.33,13.58-4.98s3.62,13.13,2.26,13.13-33.5,6.79-33.5,6.79l-39.38-4.98-20.82-42.1Z"
         id="path381" />
      <polygon
         class="cls-13"
         points="88.77 390.06 120.45 397.75 148.06 433.97 128.6 441.21 90.13 414.5 88.77 390.06"
         id="polygon383" />
      <polyline
         class="cls-14"
         points="128.6 441.21 116.83 453.88 150.33 447.09 148.06 433.97"
         id="polyline385" />
      <polyline
         class="cls-33"
         points="90.13 414.5 77.45 448.9 116.83 453.88 129.96 440.76"
         id="polyline387" />
    </g>
    <polygon
       class="cls-14"
       points="0 408.62 37.62 399.11 81.07 432.16 90.13 480 0 480 0 408.62"
       id="polygon391" />
    <polygon
       class="cls-13"
       points="37.62 399.11 40.79 439.85 81.07 432.16 37.62 399.11"
       id="polygon393" />
    <polyline
       class="cls-33"
       points="40.79 439.85 0 480 0 408.62 37.62 399.11"
       id="polyline395" />
    <path
       class="cls-33"
       d="m154.85,375.58l.91,20.37s-8.15,1.81-13.13-4.98l1.36-12.67s5.88-2.26,10.86-2.72Z"
       id="path397" />
    <path
       class="cls-13"
       d="m148.06,379.65l6.79,3.62h52.06l-10.86-10.41-41.19,2.72s-19.01.91-6.79,4.07Z"
       id="path399" />
    <path
       class="cls-13"
       d="m185.63,368.33l6.34,4.53s1.15,0,2.61-.07l1.01-2.2-1.36-4.98-8.6-4.98-1.61.59,1.61,7.1Z"
       id="path401" />
    <polygon
       class="cls-13"
       points="128.15 357.47 141.73 369.69 160.74 371.05 151.23 359.73 128.15 357.47"
       id="polygon403" />
    <polygon
       class="cls-14"
       points="190.61 396.85 194.24 388.25 203.74 386.44 209.17 390.97 208.72 397.3 197.4 400.47 190.61 396.85"
       id="polygon405" />
    <polygon
       class="cls-13"
       points="196.5 388.7 200.57 392.78 207.36 391.42 203.74 386.44 196.5 388.7"
       id="polygon407" />
    <polyline
       class="cls-33"
       points="200.57 392.78 197.4 400.47 190.61 396.85 196.5 388.7"
       id="polyline409" />
    <polygon
       class="cls-33"
       points="212.34 384.63 227.28 373.31 256.7 369.24 280.69 377.39 282.05 385.08 259.87 396.4 220.04 391.42 212.34 384.63"
       id="polygon411" />
    <polygon
       class="cls-13"
       points="210.98 384.63 220.04 391.42 252.63 371.5 280.69 377.39 256.25 369.24 227.28 373.31 210.98 384.63"
       id="polygon413" />
    <polygon
       class="cls-14"
       points="244.93 375.58 259.87 396.4 282.05 385.08 280.69 377.39 256.25 369.24 244.93 375.58"
       id="polygon415" />
    <polygon
       class="cls-13"
       points="268.47 397.3 270.28 385.99 286.58 376.93 298.8 384.18 291.1 397.3 271.64 400.47 268.47 397.3"
       id="polygon417" />
    <polygon
       class="cls-33"
       points="268.47 397.3 275.71 396.4 292.91 381.01 298.8 384.18 291.1 397.3 271.64 400.47 268.47 397.3"
       id="polygon419" />
    <path
       class="cls-13"
       d="m244.03,403.64l1.81-12.22,12.67-8.15,6.34,4.53.91,12.22-7.7,6.79s-14.03-2.26-14.03-3.17Z"
       id="path421" />
    <path
       class="cls-33"
       d="m244.03,403.64c1.36-.91,13.58-11.32,13.58-11.32l.91-9.05,5.88,3.17,1.36,13.58-7.7,6.79-14.03-3.17Z"
       id="path423" />
    <polygon
       class="cls-14"
       points="277.98 381.91 286.12 387.34 291.1 397.3 271.64 400.47 268.47 397.3 270.28 385.99 277.98 381.91"
       id="polygon425" />
    <path
       class="cls-14"
       d="m280.69,481.95l25.8-30.33s37.12-7.24,38.02-9.05c.91-1.81,37.12,2.26,37.12,2.26l66.99,9.96,1.81,25.21-169.75,1.95Z"
       id="path427" />
    <polyline
       class="cls-38"
       points="306.49 451.62 307.69 452.06 354.02 469.27 422.37 450.71 348.59 441.21"
       id="polyline429" />
    <polyline
       class="cls-33"
       points="355.38 481.95 354.02 469.27 422.37 450.71 448.62 454.79 449.08 479.23"
       id="polyline431" />
    <polyline
       class="cls-38"
       points="69.76 345.7 71.52 344.72 77.9 341.17 90.12 342.98 92.84 348.87 80.62 349.32 68.4 347.96"
       id="polyline433" />
    <path
       class="cls-13"
       d="m78.2,341.94s2.2,1.83,2.32,2.07c.12.24,9.61-1.03,9.61-1.03l-11.68-1.89-.24.85Z"
       id="path435" />
    <polygon
       class="cls-14"
       points="81.25 349.14 80.51 344.02 90.12 342.98 93.32 348.9 81.25 349.14"
       id="polygon437" />
    <polygon
       class="cls-33"
       points="88.32 350.61 93.81 345.36 102.72 346.58 105.04 353.66 86 353.66 88.32 350.61"
       id="polygon439" />
    <polygon
       class="cls-38"
       points="85.88 353.66 94.42 353.66 100.16 348.53 93.08 348.41 93.69 345.12 85.88 353.66"
       id="polygon441" />
    <polyline
       class="cls-13"
       points="93.45 345.12 90.4 348.65 100.16 348.53 102.72 346.58"
       id="polyline443" />
    <polygon
       class="cls-14"
       points="118.79 342.03 124.57 331.12 132.12 331.61 134.92 343.45 123.91 343.69 118.79 342.03"
       id="polygon445" />
    <polygon
       class="cls-13"
       points="131.72 331.69 126.97 335.73 122.59 334.35 124.57 331.12 131.72 331.69"
       id="polygon447" />
    <path
       class="cls-33"
       d="m126.97,335.73s-3.65,8.29-3.06,7.95c.59-.34,11.01-.24,11.01-.24l-2.8-11.84"
       id="path449" />
    <polygon
       class="cls-24"
       points="91.67 466.33 124.33 469.67 197 453 178.33 442.33 207.67 455.67 126.33 476.33 91.67 466.33"
       id="polygon451" />
    <polygon
       class="cls-24"
       points="138.33 406.33 155 412.33 179.67 406.33 157 416.33 138.33 406.33"
       id="polygon453" />
    <polygon
       class="cls-24"
       points="185.67 410.33 213 415.67 226.33 401 217 420.33 185.67 410.33"
       id="polygon455" />
    <polygon
       class="cls-24"
       points="231 408.33 271.67 419.67 310.33 395 276.33 424.33 231 408.33"
       id="polygon457" />
    <path
       class="cls-24"
       d="m193,480s-13.33-7,8.67-6.33l12-.67s10.67-2,2-8h16.67s11.33-6.67-.67-12c-12-5.33,18.67,1.33,18.67,1.33,0,0,16-6.67,11.33-13.33-4.67-6.67-11.33-6.67-11.33-6.67l28.67,6-2-9.33,14,3.33s12-4.67,10-10-6-9.33-6-9.33l16.67,6s12-10,8-13.33-4-8-4-8l14.67,7.33-6.67-13.33,12.67,9.33-4.67-11.33s14.67,4,12,20l-2.67,16s4.67-12-3.33-12-14-2-15.33,4c-1.33,6,0,9.33,0,12s-7.33-8-7.33-8c0,0-6,25.33-6,23.33s-6-12.67-6-12.67c0,0-18.67,10.67-17.33,18,1.33,7.33-4.67,16-4.67,16,0,0,2.67-14-4.67-18.67-7.33-4.67-19.33,2-20,10s-4.67,16.67-4.67,16.67l-6.67-12.67s-17.33,2-17.33,7.33-5.33,14.67-5.33,14.67l-5.33-8-24,2.33Z"
       id="path459" />
    <polyline
       class="cls-24"
       points="297 439 293.67 458.33 292.33 437.67"
       id="polyline461" />
    <polyline
       class="cls-24"
       points="269.67 446.33 267 466.33 263.67 449"
       id="polyline463" />
    <polygon
       class="cls-14"
       points="14.23 366.12 29.12 358.82 68.17 358.54 81.65 366.97 82.78 370.9 38.95 374.55 12.54 372.02 14.23 366.12"
       id="polygon465" />
    <polyline
       class="cls-33"
       points="38.39 363.6 38.95 374.55 82.78 370.9 81.65 366.97 68.17 358.54"
       id="polyline467" />
    <polygon
       class="cls-13"
       points="29.12 358.82 38.39 363.6 60.02 362.19 68.17 358.54 29.12 358.82"
       id="polygon469" />
    <path
       class="cls-24"
       d="m4.39,371.18c.84.56,8.99,8.43,8.99,8.43l29.5,1.97,24.16-4.5-23.88,7.59-30.06-1.69-8.71-11.8Z"
       id="path471" />
    <polygon
       class="cls-24"
       points="28.55 386.91 51.31 386.63 81.94 376.8 53.56 389.16 28.55 386.91"
       id="polygon473" />
    <path
       class="cls-24"
       d="m61.71,350.95c.84,0,15.45,2.81,15.45,2.81l-14.33-.56-1.12-2.25Z"
       id="path475" />
    <path
       class="cls-24"
       d="m83.34,357.7c1.12-.28,14.89,1.97,14.89,1.97l12.92-5.62-10.96,7.87-16.86-4.21Z"
       id="path477" />
    <polygon
       class="cls-24"
       points="114.53 342.81 117.9 345.9 129.14 347.58 136.44 346.18 128.01 349.27 117.34 347.86 114.53 342.81"
       id="polygon479" />
    <polygon
       class="cls-14"
       points="208.5 355.5 217.5 344.5 233 340.5 258 344.5 265.5 353 265.5 358.5 238 360.5 209.5 359 208.5 355.5"
       id="polygon481" />
    <polygon
       class="cls-13"
       points="217.5 344.5 228.5 349.5 258 344.5 233 340.5 217.5 344.5"
       id="polygon483" />
    <polyline
       class="cls-33"
       points="228.5 349.5 230 360 265.5 358.5 265.5 353 258 344.5"
       id="polyline485" />
    <polyline
       class="cls-24"
       points="157 330.5 152 332.5 160.5 339 180 339.5 183.04 336.32"
       id="polyline487" />
    <g
       id="g497">
      <path
         class="cls-27"
         d="m155.13,330.55l1.48-1.82,8.09-.58,7.69,2.66,5.93,4.35,4.05-.71s1.08,1.88.67,1.88-9.98.97-9.98.97l-11.73-.71-6.2-6.03Z"
         id="path489" />
      <polygon
         class="cls-13"
         points="164.7 328.15 174.14 329.25 182.37 334.44 176.57 335.48 165.11 331.65 164.7 328.15"
         id="polygon491" />
      <polyline
         class="cls-14"
         points="176.57 335.48 173.06 337.3 183.04 336.32 182.37 334.44"
         id="polyline493" />
      <polyline
         class="cls-33"
         points="165.11 331.65 161.33 336.58 173.06 337.3 176.97 335.41"
         id="polyline495" />
    </g>
    <polygon
       class="cls-24"
       points="151.5 335 158 340.5 169.5 342 156 342.5 151.5 335"
       id="polygon499" />
    <g
       id="g505">
      <path
         class="cls-29"
         d="m250.94,349.56c-.65-.08-2.5-.28-2.57-1.3-.1-1.51,2.21-.59,2.88-.11-2.33-2.46,2.56-4,1.56-.68.4-.8.89-2.64,2.21-2.31,1.34.35.45,2-.26,2.62,2.78-1.72,3.89,1.7.76,1.49.83.41,1.87,1.09,1.75,2.22-1.04.15-2.33.05-2.83-.94.86,2.53-2.47,2.84-1.99.33.31,1.6-3.57,1.74-1.79-1.29.27-.14.19.12.29.14"
         id="path501" />
      <path
         class="cls-25"
         d="m254.19,349.24c0,.81-.55,1.47-1.22,1.47s-1.22-.66-1.22-1.47.55-1.47,1.22-1.47,1.22.66,1.22,1.47Z"
         id="path503" />
    </g>
    <g
       id="g511">
      <path
         class="cls-29"
         d="m260.86,352.81c-.28-.59-1.1-2.26-.28-2.87,1.22-.9,1.68,1.55,1.64,2.37.83-3.28,4.75.02,1.41.95.89-.09,2.71-.66,3.13.63.42,1.32-1.45,1.45-2.36,1.19,2.94,1.43.64,4.19-.85,1.44.09.92.08,2.17-.94,2.67-.69-.8-1.29-1.95-.72-2.9-1.68,2.08-3.72-.57-1.34-1.51-1.19,1.12-3.38-2.08.13-2.21.26.15,0,.23.04.32"
         id="path507" />
      <path
         class="cls-25"
         d="m262.88,355.39c-.68.43-1.53.32-1.89-.25-.36-.57-.1-1.38.58-1.82.68-.43,1.53-.32,1.89.25.36.57.1,1.38-.58,1.82Z"
         id="path509" />
    </g>
    <g
       id="g517">
      <path
         class="cls-29"
         d="m253.17,356.04c-.45-.36-1.75-1.37-1.27-2.28.7-1.34,1.97.5,2.23,1.2-.49-3.16,3.99-2.28,1.53.12.71-.5,2.04-1.86,2.85-.98.83.9-.69,1.91-1.54,2.13,2.98-.22,2.06,3.22-.19,1.62.41.73.85,1.78.18,2.69-.87-.34-1.78-1.02-1.66-2.09-.65,2.56-3.32,1.32-1.67-.62-.59,1.51-3.59-.12-.69-1.92.27,0,.08.19.15.25"
         id="path513" />
      <path
         class="cls-25"
         d="m255.8,357.23c-.42.69-1.17,1.01-1.67.7-.51-.3-.58-1.11-.17-1.81.42-.69,1.17-1.01,1.67-.7.51.3.58,1.12.17,1.81Z"
         id="path515" />
    </g>
    <path
       class="cls-28"
       d="m234.07,362.52c-.31-.11-5.02-3.1-3.89-4.5,1.19-1.48,4.7,3.08,5.51,3.66-.27-1.1-2.17-5.06-.54-5.98,1.78-1,2.82,4.26,3.02,5.33-.33-1.37-.21-6.12,1.69-6.58,2-.49,1.49,4.73,1.02,5.93.36-1.47,3.04-3.33,4.51-2.15,1.83,1.46-1.26,5.08-.78,5.32"
       id="path519" />
    <path
       class="cls-28"
       d="m209.08,359.63c-.51-.07-3.29-2.45-2.44-3.68,1.19-1.72,3.8,2.15,4.42,2.88-.94-1.44-1.11-3.71-.12-5.17,1.46.63,1.86,3.02,2.07,4.47-.13-1.08.28-4.13,1.85-4.09,1.62.04,1.18,3.44.82,4.5-.06-1.55,2.8-3.54,4.35-2.79,2.14,1.04-.17,3.09-.62,4.5"
       id="path521" />
    <g
       id="g527">
      <path
         class="cls-29"
         d="m302.33,452.49c-1.32-.15-5.09-.57-5.23-2.64-.21-3.07,4.49-1.19,5.85-.23-4.73-5,5.2-8.14,3.17-1.38.81-1.62,1.82-5.38,4.48-4.69,2.72.7.91,4.06-.53,5.33,5.65-3.5,7.9,3.46,1.55,3.02,1.68.84,3.81,2.21,3.56,4.51-2.12.31-4.74.09-5.76-1.91,1.75,5.14-5.01,5.77-4.05.66.62,3.26-7.25,3.54-3.65-2.63.54-.28.39.25.6.29"
         id="path523" />
      <path
         class="cls-25"
         d="m308.95,451.83c0,1.64-1.11,2.98-2.48,2.98s-2.48-1.33-2.48-2.98,1.11-2.98,2.48-2.98,2.48,1.33,2.48,2.98Z"
         id="path525" />
    </g>
    <g
       id="g533">
      <path
         class="cls-29"
         d="m286.27,468.08c-1.65-.19-6.38-.71-6.56-3.31-.26-3.85,5.63-1.49,7.33-.29-5.93-6.28,6.52-10.21,3.98-1.73,1.02-2.03,2.28-6.74,5.62-5.88,3.41.88,1.14,5.09-.66,6.69,7.09-4.39,9.91,4.34,1.94,3.79,2.11,1.06,4.78,2.78,4.47,5.65-2.66.38-5.95.12-7.22-2.4,2.19,6.45-6.29,7.23-5.08.83.78,4.09-9.1,4.44-4.58-3.3.68-.35.49.32.75.36"
         id="path529" />
      <path
         class="cls-25"
         d="m294.57,467.25c0,2.06-1.39,3.74-3.11,3.74s-3.11-1.67-3.11-3.74,1.4-3.74,3.11-3.74,3.11,1.67,3.11,3.74Z"
         id="path531" />
    </g>
    <g
       id="g591">
      <g
         id="g567">
        <path
           class="cls-34"
           d="m50.01,383.54s-14.29-9.63-5.86-14.72c0,0,2.82-2.71,5.87.91,0,0,.37-5.83,6.07-3.52,0,0,6.97.83,2.39,9.2l-1.25,5.07s4.46-6.43,11.1-2.81c0,0,6.05,3.11.31,7.43l-4.17,3.09s7.14,3.02-1.51,5.37c0,0-13.3-.6-12.94-10.02Z"
           id="path535" />
        <path
           class="cls-34"
           d="m30.59,426.27s-14.29-9.63-5.86-14.72c0,0,2.82-2.71,5.87.91,0,0,.36-5.83,6.07-3.52,0,0,6.97.83,2.39,9.2l-1.25,5.07s4.46-6.43,11.1-2.81c0,0,6.05,3.11.31,7.43l-4.17,3.09s7.14,3.02-1.51,5.37c0,0-13.3-.6-12.94-10.02Z"
           id="path537" />
        <path
           class="cls-34"
           d="m19.9,461.72s-14.29-9.63-5.86-14.72c0,0,2.82-2.71,5.87.91,0,0,.37-5.83,6.07-3.52,0,0,6.97.83,2.39,9.2l-1.25,5.07s4.46-6.43,11.1-2.81c0,0,6.05,3.11.31,7.43l-4.17,3.09s7.14,3.02-1.51,5.37c0,0-13.3-.6-12.94-10.02Z"
           id="path539" />
        <path
           class="cls-3"
           d="m56.94,351s-15.88-4.71-9.61-11.8c0,0,1.81-3.3,5.64-.85,0,0-1.34-5.45,4.55-4.97,0,0,6.62-1.25,4.84,7.74l.31,5.01s2.23-7.18,9.36-5.78c0,0,6.44,1.11,2.43,6.72l-2.93,4.04s7.42.71.16,5.35c0,0-12.36,3.28-14.75-5.45Z"
           id="path541" />
        <path
           class="cls-23"
           d="m42.12,374.97s-14.73,8.95-15.82-.84c0,0-1.28-3.7,3.29-4.95,0,0-5.14-2.77-.65-6.99,0,0,3.67-5.98,9.35,1.68l4.08,3.26s-3.97-6.74,2.09-11.26c0,0,5.35-4.19,6.88,2.83l1.06,5.08s5.73-5.22,4.24,3.61c0,0-6.11,11.83-14.52,7.56Z"
           id="path543" />
        <path
           class="cls-23"
           d="m6.75,464.41s-20.31,7.07-19.08-5.15c0,0-.59-4.84,5.3-5.18,0,0-5.55-4.72,1.03-8.69,0,0,6.04-6.34,10.97,4.5l4.12,5.04s-3.08-9.26,5.49-13.18c0,0,7.63-3.71,7.65,5.24l-.03,6.48s8.36-4.87,4.23,5.52c0,0-10.55,12.83-19.68,5.43Z"
           id="path545" />
        <path
           class="cls-23"
           d="m20.95,416.57s-18.78,6.54-17.64-4.77c0,0-.55-4.48,4.9-4.79,0,0-5.13-4.37.95-8.04,0,0,5.58-5.86,10.14,4.16l3.81,4.66s-2.85-8.56,5.07-12.19c0,0,7.05-3.43,7.08,4.85l-.03,5.99s7.73-4.51,3.91,5.1c0,0-9.75,11.86-18.2,5.02Z"
           id="path547" />
        <path
           class="cls-45"
           d="m8.06,515.11s4.37-94.2,53.41-171.41"
           id="path549" />
        <path
           class="cls-3"
           d="m39.4,396.27s-14.45-9.4-6.1-14.62c0,0,2.78-2.75,5.88.82,0,0,.27-5.83,6.01-3.62,0,0,6.98.71,2.54,9.16l-1.17,5.09s4.35-6.5,11.05-3c0,0,6.1,3.01.44,7.42l-4.12,3.16s7.19,2.9-1.42,5.39c0,0-13.31-.38-13.11-9.8Z"
           id="path551" />
        <path
           class="cls-3"
           d="m23.08,443.06s-20.61-6.12-12.48-15.33c0,0,2.35-4.28,7.33-1.11,0,0-1.74-7.07,5.91-6.46,0,0,8.6-1.62,6.28,10.05l.4,6.5s2.9-9.32,12.15-7.5c0,0,8.36,1.44,3.15,8.72l-3.81,5.24s9.63.92.21,6.95c0,0-16.05,4.26-19.15-7.08Z"
           id="path553" />
        <path
           class="cls-3"
           d="m13.4,483.55s-21.36,2.43-17.48-9.23c0,0,.49-4.86,6.31-3.88,0,0-4.37-5.83,2.91-8.26,0,0,7.28-4.86,9.71,6.8l2.91,5.83s-.97-9.71,8.25-11.65c0,0,8.25-1.94,6.31,6.8l-1.46,6.31s9.23-2.91,2.91,6.31c0,0-13.11,10.2-20.39.97Z"
           id="path555" />
        <path
           class="cls-45"
           d="m35.74,394.69s1.74-5.63,10.82-1.6"
           id="path557" />
        <path
           class="cls-45"
           d="m20.2,442.28s4.86-9.23,14.57-6.8"
           id="path559" />
        <line
           class="cls-45"
           x1="11.46"
           y1="485.49"
           x2="14.86"
           y2="465.1"
           id="line561" />
        <path
           class="cls-45"
           d="m38.17,392.75s3.88-2.43,4.37-7.77"
           id="path563" />
        <path
           class="cls-45"
           d="m21.17,440.33s3.88-3.4,2.91-12.14"
           id="path565" />
      </g>
      <path
         class="cls-45"
         d="m11.95,479.66c.32-2.99-2.49-12.82-3.88-12.14"
         id="path569" />
      <path
         class="cls-45"
         d="m10.97,481.61c1.73-2.46,8.04-7.65,10.2-5.34"
         id="path571" />
      <path
         class="cls-45"
         d="m19.71,441.79c0-3.73-1.06-8.61-.97-11.17"
         id="path573" />
      <path
         class="cls-45"
         d="m36.22,394.21c.36-2.59,1.13-5.31.49-7.77"
         id="path575" />
      <path
         class="cls-45"
         d="m55.65,351.48c.92-2.52.73-7.4-.49-8.74"
         id="path577" />
      <path
         class="cls-45"
         d="m59.05,349.05c.46-2.78,6.35-6.13,7.77-3.4"
         id="path579" />
      <path
         class="cls-45"
         d="m21.66,440.33c4.14-1.92,7.81,2.19,10.68,2.91"
         id="path581" />
      <path
         class="cls-45"
         d="m36.71,394.2c3.6-.5,7.18,2.18,9.71,4.37"
         id="path583" />
      <path
         class="cls-45"
         d="m25.54,418.97c.16-2.94-.32-6.02-2.43-8.25"
         id="path585" />
      <path
         class="cls-45"
         d="m14.37,461.21c-.58-2.94-2.88-5.1-4.37-7.77"
         id="path587" />
      <path
         class="cls-45"
         d="m44.96,373.33c.32-2.23-.05-4.57-1.46-6.31"
         id="path589" />
    </g>
    <path
       class="cls-19"
       d="m71.52,351.1l2.93-4.04c4.01-5.61-2.43-6.72-2.43-6.72-5.37-1.06-7.96,2.76-8.91,4.7-.17.07-.33.14-.5.22l-.26-4.16c1.79-8.99-4.84-7.74-4.84-7.74-5.9-.47-4.55,4.97-4.55,4.97-3.84-2.44-5.64.85-5.64.85-5.13,5.81,4.58,10.02,8.27,11.35l.05.93c.09-.25.17-.53.24-.83.65.23,1.05.35,1.05.35,0,.03.02.05.02.07-1.83,3.09-3.58,6.2-5.28,9.32l-.35-1.69c-1.52-7.01-6.88-2.83-6.88-2.83-6.06,4.52-2.09,11.26-2.09,11.26l-4.08-3.26c-5.68-7.66-9.35-1.68-9.35-1.68-4.48,4.22.65,6.99.65,6.99-4.57,1.25-3.29,4.95-3.29,4.95,1.03,9.25,14.24,1.77,15.69.92.31.72.74,1.44,1.24,2.14-.18.39-.36.78-.54,1.17-3.31.13-3.51,4.11-3.51,4.11-3.11-3.57-5.88-.82-5.88-.82-5.61,3.51-.92,8.91,2.76,12.07-.46,1.15-.92,2.29-1.36,3.43-1.68-3.89-6.51-1.54-6.51-1.54-7.93,3.63-5.07,12.19-5.07,12.19l-3.81-4.66c-4.56-10.02-10.14-4.16-10.14-4.16-6.08,3.67-.95,8.04-.95,8.04-5.45.31-4.9,4.79-4.9,4.79-1.13,11.3,17.64,4.77,17.64,4.77.51.42,1.03.76,1.55,1.04.34.86.85,1.71,1.47,2.53-.08.01-.13.02-.13.02-7.65-.61-5.91,6.46-5.91,6.46-4.98-3.17-7.33,1.11-7.33,1.11-5.31,6.02,1.65,10.71,7.11,13.25-1.65.04-3.13.76-3.13.76-8.57,3.92-5.49,13.18-5.49,13.18l-4.12-5.04c-4.93-10.83-10.97-4.5-10.97-4.5-6.57,3.97-1.03,8.69-1.03,8.69-5.9.33-5.3,5.18-5.3,5.18-.79,7.92,7.44,7.74,13.35,6.63-.48,2.29,1.21,4.55,1.21,4.55-5.83-.97-6.31,3.88-6.31,3.88-3.2,9.59,10.69,9.64,15.72,9.36-3.01,19.22-3.58,31.42-3.58,31.42l8.92-28.64c7.32,3.48,16.81-3.89,16.81-3.89,6.31-9.23-2.91-6.31-2.91-6.31l1.06-4.61c.56.06.9.08.9.08,8.65-2.34,1.51-5.37,1.51-5.37l4.17-3.09c5.73-4.32-.31-7.43-.31-7.43-6.64-3.61-11.1,2.81-11.1,2.81l1.25-5.07c.75-1.37,1.19-2.54,1.4-3.53,5.61,1.9,12.46.08,12.46.08,9.42-6.02-.21-6.95-.21-6.95l3.81-5.24c.99-1.39,1.49-2.57,1.65-3.57.56-.69.34-1.36-.15-1.93-.31-.87-.94-1.53-1.64-2.01l3.53-2.62c5.73-4.32-.31-7.43-.31-7.43-6.64-3.61-11.1,2.81-11.1,2.81l1.25-5.07c1.71-3.12,1.81-5.19,1.27-6.56l2.62-8.42c3.88,2.74,9.56,2.9,9.56,2.9,8.61-2.49,1.42-5.39,1.42-5.39l4.12-3.16c2.12-1.66,2.59-3.11,2.35-4.29,1.51.28,2.56.33,2.56.33,8.65-2.34,1.51-5.37,1.51-5.37l4.17-3.09c5.73-4.32-.31-7.43-.31-7.43-6.64-3.61-11.1,2.81-11.1,2.81l1.25-5.07c3.66-6.69-.06-8.56-1.69-9.04.34-2.87-.25-3.9-1.1-4.08l2.64-8.47c4,5.11,13.36,2.63,13.36,2.63,7.25-4.64-.16-5.35-.16-5.35Zm-57.3,115.53c.15-.02.3-.04.45-.06-.06.31-.12.62-.18.93-.08-.3-.17-.59-.26-.87Zm32.33-73.53l1.17-5.09c1.09-2.08,1.49-3.69,1.48-4.93l.03-.08c.48.35.78.56.78.56-.09,2.45.75,4.3,2.03,5.71-3.44.8-5.48,3.84-5.48,3.84Z"
       id="path593" />
    <g
       id="g641">
      <g
         id="g623">
        <path
           class="cls-34"
           d="m78.56,430.08s-10.67-13.54-1.09-15.81c0,0,3.51-1.72,5.31,2.66,0,0,2.13-5.44,6.86-1.5,0,0,6.38,2.92-.54,9.49l-2.74,4.44s6.21-4.76,11.42.71c0,0,4.81,4.81-1.97,7.17l-4.92,1.67s5.88,5.06-3.07,4.65c0,0-12.48-4.63-9.27-13.49Z"
           id="path595" />
        <path
           class="cls-34"
           d="m47.01,464.83s-10.67-13.54-1.09-15.81c0,0,3.51-1.72,5.31,2.66,0,0,2.13-5.44,6.86-1.5,0,0,6.38,2.92-.54,9.49l-2.74,4.44s6.21-4.76,11.43.71c0,0,4.81,4.81-1.97,7.17l-4.92,1.67s5.88,5.06-3.07,4.65c0,0-12.48-4.63-9.27-13.49Z"
           id="path597" />
        <path
           class="cls-34"
           d="m26.01,495.32s-10.67-13.54-1.09-15.81c0,0,3.51-1.72,5.31,2.66,0,0,2.13-5.44,6.86-1.5,0,0,6.38,2.92-.54,9.49l-2.74,4.44s6.21-4.76,11.43.71c0,0,4.81,4.81-1.97,7.17l-4.92,1.67s5.88,5.06-3.07,4.65c0,0-12.48-4.63-9.27-13.49Z"
           id="path599" />
        <path
           class="cls-3"
           d="m95.09,401.2s-13.68-9.33-5.55-14.18c0,0,2.73-2.59,5.64.91,0,0,.38-5.6,5.85-3.35,0,0,6.69.83,2.24,8.85l-1.23,4.86s4.32-6.15,10.68-2.64c0,0,5.79,3.02.26,7.14l-4.03,2.95s6.85,2.94-1.48,5.15c0,0-12.78-.65-12.38-9.7Z"
           id="path601" />
        <path
           class="cls-23"
           d="m73.66,419.5s-16.76,4.02-14.81-5.63c0,0-.09-3.91,4.64-3.71,0,0-4.05-4.21,1.51-6.85,0,0,5.32-4.57,8.39,4.46l2.89,4.35s-1.72-7.63,5.43-10.08c0,0,6.38-2.35,5.69,4.79l-.54,5.16s7.06-3.22,2.93,4.74c0,0-9.43,9.39-16.13,2.77Z"
           id="path603" />
        <path
           class="cls-23"
           d="m12.67,493.87s-21.5.53-16.6-10.74c0,0,.91-4.79,6.63-3.31,0,0-3.84-6.19,3.63-7.97,0,0,7.69-4.19,9.07,7.63l2.39,6.06s-.11-9.76,9.25-10.88c0,0,8.39-1.2,5.69,7.33l-2.01,6.16s9.45-2.09,2.34,6.55c0,0-13.96,9-20.4-.84Z"
           id="path605" />
        <path
           class="cls-23"
           d="m40.8,452.66s-19.88.49-15.35-9.93c0,0,.84-4.43,6.13-3.06,0,0-3.55-5.73,3.36-7.36,0,0,7.11-3.88,8.39,7.06l2.21,5.6s-.1-9.02,8.56-10.06c0,0,7.76-1.11,5.26,6.78l-1.86,5.7s8.73-1.93,2.17,6.05c0,0-12.91,8.32-18.86-.77Z"
           id="path607" />
        <path
           class="cls-45"
           d="m-1.57,542.55s32.93-88.36,103.21-146.9"
           id="path609" />
        <path
           class="cls-3"
           d="m64.57,438.96s-10.89-13.36-1.35-15.79c0,0,3.49-1.77,5.35,2.58,0,0,2.04-5.47,6.83-1.61,0,0,6.43,2.81-.38,9.49l-2.67,4.49s6.13-4.86,11.44.52c0,0,4.89,4.73-1.85,7.2l-4.89,1.75s5.96,4.96-3,4.7c0,0-12.56-4.43-9.49-13.34Z"
           id="path611" />
        <path
           class="cls-3"
           d="m34.73,478.53s-17.76-12.12-7.21-18.41c0,0,3.54-3.36,7.32,1.18,0,0,.5-7.27,7.6-4.35,0,0,8.69,1.08,2.91,11.49l-1.6,6.31s5.61-7.99,13.86-3.43c0,0,7.52,3.92.34,9.27l-5.23,3.83s8.89,3.82-1.92,6.68c0,0-16.59-.85-16.07-12.59Z"
           id="path613" />
        <path
           class="cls-45"
           d="m61.56,436.34s3.37-4.83,10.79,1.78"
           id="path615" />
        <path
           class="cls-45"
           d="m32.23,476.9s7.44-7.3,15.95-2.02"
           id="path617" />
        <path
           class="cls-45"
           d="m64.47,435.23s4.44-1.12,6.53-6.06"
           id="path619" />
        <path
           class="cls-45"
           d="m33.75,475.35s4.74-2.05,6.48-10.67"
           id="path621" />
      </g>
      <path
         class="cls-45"
         d="m31.92,476.29c1.14-3.55,1.62-8.52,2.49-10.93"
         id="path625" />
      <path
         class="cls-45"
         d="m62.17,436.02c1.13-2.36,2.7-4.71,2.83-7.25"
         id="path627" />
      <path
         class="cls-45"
         d="m93.72,401.27c1.65-2.11,2.95-6.82,2.21-8.47"
         id="path629" />
      <path
         class="cls-45"
         d="m97.7,399.99c1.29-2.51,7.92-3.9,8.44-.86"
         id="path631" />
      <path
         class="cls-45"
         d="m34.21,475.5c4.52-.56,6.77,4.47,9.28,6.04"
         id="path633" />
      <path
         class="cls-45"
         d="m62.63,436.17c3.58.63,6.17,4.26,7.91,7.13"
         id="path635" />
      <path
         class="cls-45"
         d="m44.44,456.34c1.05-2.75,1.53-5.83.21-8.6"
         id="path637" />
      <path
         class="cls-45"
         d="m76.87,418.81c.98-2.03,1.35-4.36.54-6.46"
         id="path639" />
    </g>
    <g
       id="g695">
      <g
         id="g675">
        <path
           class="cls-11"
           d="m-3.26,360.35s21.17-7.76,12.05-16.86c0,0-2.73-4.32-7.74-.68,0,0,1.36-7.52-6.61-6.37,0,0-9.11-1.13-5.91,10.94v6.83s-3.64-9.56-13.2-7.05c0,0-8.65,2.06-2.72,9.34l4.33,5.23s-10.02,1.6.23,7.29c0,0,17.08,3.4,19.57-8.67Z"
           id="path643" />
        <path
           class="cls-11"
           d="m8.04,420.69s21.17-7.76,12.05-16.86c0,0-2.73-4.32-7.74-.68,0,0,1.36-7.51-6.61-6.37,0,0-9.11-1.13-5.91,10.93v6.83s-3.64-9.56-13.21-7.05c0,0-8.65,2.06-2.72,9.34l4.33,5.23s-10.02,1.6.24,7.29c0,0,17.08,3.4,19.57-8.67Z"
           id="path645" />
        <path
           class="cls-11"
           d="m10.52,469.05s21.17-7.76,12.05-16.86c0,0-2.73-4.32-7.74-.68,0,0,1.36-7.52-6.61-6.37,0,0-9.11-1.13-5.91,10.94v6.83s-3.64-9.56-13.21-7.05c0,0-8.65,2.06-2.72,9.34l4.33,5.23s-10.02,1.6.23,7.29c0,0,17.08,3.4,19.57-8.67Z"
           id="path647" />
        <path
           class="cls-4"
           d="m-1.88,316.85s21.64-1.02,15.9-11.98c0,0-1.26-4.75-6.9-2.85,0,0,3.41-6.5-4.22-7.74,0,0-8.02-3.66-8.57,8.32l-1.96,6.26s-.59-9.81-10.08-10.26c0,0-8.52-.61-5.19,7.77l2.46,6.04s-9.64-1.42-1.88,6.75c0,0,14.68,8.04,20.44-2.31Z"
           id="path649" />
        <path
           class="cls-15"
           d="m9.44,351.93s15.91,15.97,20.36,3.88c0,0,2.78-4.29-2.63-7.31,0,0,7.39-1.91,3.02-8.67,0,0-2.79-8.74-12.4-.79l-6.2,2.87s7.15-7.32.87-14.95c0,0-5.49-6.99-9.62,1.44l-2.94,6.12s-5.65-8.43-6.52,3.26c0,0,4.06,16.93,16.07,14.14Z"
           id="path651" />
        <path
           class="cls-15"
           d="m26.38,476.59s23.58,15.33,25.85-.58c0,0,2.27-5.97-5.12-8.23,0,0,8.52-4.26,1.42-11.36,0,0-5.69-9.94-15.34,2.28l-6.81,5.11s6.81-10.8-2.85-18.46c0,0-8.52-7.1-11.36,4.26l-1.98,8.24s-9.09-8.8-7.1,5.68c0,0,9.38,19.6,23.3,13.06Z"
           id="path653" />
        <path
           class="cls-15"
           d="m23.31,411.39s21.8,14.18,23.9-.53c0,0,2.1-5.52-4.73-7.61,0,0,7.88-3.94,1.31-10.51,0,0-5.26-9.19-14.18,2.11l-6.3,4.73s6.3-9.98-2.63-17.07c0,0-7.88-6.56-10.5,3.94l-1.84,7.62s-8.41-8.14-6.56,5.25c0,0,8.67,18.12,21.54,12.07Z"
           id="path655" />
        <path
           class="cls-44"
           d="m8.86,540.58s23.92-121.01-14.21-234.4"
           id="path657" />
        <path
           class="cls-4"
           d="m6.23,379.83s21.29-7.41,12.33-16.66c0,0-2.67-4.37-7.73-.8,0,0,1.48-7.49-6.51-6.48,0,0-9.09-1.28-6.09,10.84l-.11,6.83s-3.49-9.62-13.1-7.26c0,0-8.68,1.91-2.88,9.29l4.24,5.3s-10.04,1.44.11,7.29c0,0,17.02,3.68,19.71-8.35Z"
           id="path659" />
        <path
           class="cls-4"
           d="m12.32,444.37s28.09-1.32,20.65-15.56c0,0-1.64-6.17-8.96-3.7,0,0,4.43-8.44-5.48-10.05,0,0-10.42-4.75-11.12,10.8l-2.55,8.13s-.77-12.74-13.09-13.33c0,0-11.07-.79-6.73,10.09l3.2,7.85s-12.52-1.84-2.45,8.76c0,0,19.06,10.43,26.54-3Z"
           id="path661" />
        <path
           class="cls-4"
           d="m11.95,498.82s26.38,9.77,25.09-6.25c0,0,.9-6.32-6.8-6.91,0,0,7.37-6.03-1.12-11.4,0,0-7.73-8.44-14.46,5.6l-5.52,6.49s4.27-12.03-6.84-17.38c0,0-9.88-5.05-10.14,6.66l-.13,8.47s-10.81-6.59-5.67,7.11c0,0,13.46,17.05,25.6,7.61Z"
           id="path663" />
        <path
           class="cls-44"
           d="m11.38,378.98s-.44-7.69-13.24-5.42"
           id="path665" />
        <path
           class="cls-44"
           d="m16.22,444.27s-3.28-13.24-16.37-13.19"
           id="path667" />
        <line
           class="cls-44"
           x1="13.81"
           y1="501.89"
           x2="15.87"
           y2="474.93"
           id="line669" />
        <path
           class="cls-44"
           d="m8.9,375.75s-4.17-4.3-3.12-11.23"
           id="path671" />
        <path
           class="cls-44"
           d="m15.6,441.5s-3.87-5.53.1-16.33"
           id="path673" />
      </g>
      <path
         class="cls-44"
         d="m15.01,494.34c.53-3.9,7.17-15.51,8.73-14.2"
         id="path677" />
      <path
         class="cls-44"
         d="m16.99,443.81c1.17-4.74,4.04-10.6,4.73-13.88"
         id="path679" />
      <path
         class="cls-44"
         d="m10.91,378.21c.35-3.4.22-7.09,1.81-10.02"
         id="path681" />
      <path
         class="cls-44"
         d="m-.39,317.86c-.39-3.49,1.39-9.63,3.35-10.95"
         id="path683" />
      <path
         class="cls-44"
         d="m14.98,441.35c-4.65-3.73-10.61.33-14.48.36"
         id="path685" />
      <path
         class="cls-44"
         d="m10.29,378.05c-4.42-1.76-9.8.52-13.7,2.51"
         id="path687" />
      <path
         class="cls-44"
         d="m16.73,413c.72-3.78,2.29-7.55,5.67-9.72"
         id="path689" />
      <path
         class="cls-44"
         d="m17.7,470.15c1.66-3.56,5.25-5.58,7.98-8.5"
         id="path691" />
      <path
         class="cls-44"
         d="m6.34,348.95c.3-2.93,1.49-5.79,3.83-7.56"
         id="path693" />
    </g>
    <path
       class="cls-7"
       d="m47.11,467.78s8.52-4.26,1.42-11.36c0,0-5.69-9.94-15.34,2.28l-6.81,5.11s6.81-10.8-2.85-18.46c0,0-1.65-1.37-3.73-1.94,7.73-1.51,18.04-5.29,13.18-14.6,0,0-1.64-6.17-8.96-3.7,0,0,4.43-8.44-5.48-10.05,0,0-.06-.03-.16-.07,1.04-.85,1.96-1.77,2.66-2.76.75-.2,1.51-.47,2.3-.84,0,0,21.8,14.18,23.9-.53,0,0,2.1-5.52-4.73-7.61,0,0,7.88-3.94,1.31-10.51,0,0-5.26-9.19-14.18,2.11l-6.3,4.73s6.3-9.98-2.63-17.07c0,0-5.4-4.49-8.75-.08-.21-1.59-.43-3.19-.66-4.79,5.66-2.86,13.31-8.25,7.28-14.47,0,0-2.67-4.37-7.73-.8,0,0,1-5.11-3.17-6.31-.11-.55-.21-1.1-.32-1.65.86-.73,1.63-1.51,2.25-2.33,1.57,1.53,16.01,15.16,20.21,3.74,0,0,2.78-4.29-2.63-7.31,0,0,7.39-1.91,3.02-8.67,0,0-2.79-8.74-12.4-.79l-6.2,2.87s7.15-7.32.87-14.95c0,0-5.49-6.99-9.62,1.44l-.97,2.03c-1.18-4.5-2.43-9-3.78-13.49.02-.03.04-.05.05-.08,0,0,.55-.03,1.44-.11,0,.4,0,.78.05,1.13l.36-1.17c5.1-.54,18.75-2.85,14.06-11.83,0,0-1.26-4.75-6.9-2.85,0,0,3.41-6.5-4.22-7.74,0,0-8.02-3.66-8.57,8.32l-1.63,5.2c-.19-.15-.38-.3-.57-.44-.6-2.77-2.7-8.42-9.85-8.76,0,0-8.52-.61-5.19,7.77l2.46,6.04s-9.64-1.42-1.88,6.75c0,0,11.11,6.08,17.8.84l.7,11.59c-1.13-.04-2.21,1.09-2.67,4.84-2.23.1-7.54,1.31-4.98,10.95v6.83s-3.64-9.56-13.2-7.05c0,0-8.65,2.06-2.72,9.34l4.33,5.23s-10.02,1.6.23,7.29c0,0,1.35.27,3.35.39-.67,1.42-.53,3.41,1.64,6.18l4.24,5.3s-10.04,1.44.11,7.29c0,0,7.26,1.57,13.05-.7l.7,11.52c-1.12,1.57-1.63,4.23-.44,8.73v6.83s-3.64-9.56-13.21-7.05c0,0-8.65,2.06-2.72,9.34l3.67,4.43c-1.04.39-2.04,1.02-2.72,2.04-.8.56-1.3,1.34-.8,2.4-.11,1.31.15,2.96.98,5.04l3.2,7.85s-12.52-1.84-2.45,8.76c0,0,8.13,4.45,15.85,3.79-.04,1.33.15,2.95.67,4.93v6.83s-3.64-9.56-13.21-7.05c0,0-8.65,2.06-2.72,9.34l4.33,5.23s-10.02,1.6.23,7.29c0,0,.44.09,1.17.18l-.09,6.19s-10.81-6.59-5.67,7.11c0,0,9.75,12.34,20.13,10.2l2.38,39.17s3.1-15.68,5.29-41.03c6.3,1.93,23.95,6.2,22.89-6.97,0,0,.9-6.32-6.8-6.91,0,0,2.86-2.34,2.96-5.4,7.15,3.25,17.56,6.06,19.03-4.25,0,0,2.27-5.97-5.12-8.23Zm-31.52,10.3c.02-.41.04-.83.06-1.24.18.08.37.15.55.22-.2.32-.41.66-.61,1.02Zm-23.21-111.12c2.07-1.38,3.72-3.47,4.37-6.61,0,0,.44-.16,1.16-.46v.11c-.4,1.58-.4,3.75.34,6.73l-.11,6.83s-1.64-4.51-5.76-6.6Z"
       id="path697" />
    <g
       id="g709">
      <path
         class="cls-37"
         d="m398.67,388.6s-11.93,1.63-15.58,24.44c0,0-3.6,17.87-10.85,27.74,0,0-.97,4.18,7.9,6.24,0,0,40.76,4.52,68-22.72,0,0,8.29-9.63-2.03-12.58-10.32-2.95-11.56-7.09-14.89-11.71-3.33-4.62-16-16.37-32.56-11.41Z"
         id="path699" />
      <path
         class="cls-12"
         d="m446.12,411.72c-10.32-2.95-11.56-7.09-14.89-11.71-1.66-2.3-5.62-6.36-11.23-9.25-2.96-.16-6.12.16-9.44,1.15,0,0-11.93,1.63-15.58,24.44,0,0-3.6,17.87-10.85,27.74,0,0-.34,1.53,1.35,3.2,11.93.18,41.42-1.73,62.67-22.99,0,0,8.29-9.63-2.03-12.58Z"
         id="path701" />
      <path
         class="cls-39"
         d="m379.44,443s12.41-27.38,66.76-26.86c0,0,6.14,1.98-4.76,11,0,0-39.08,26.13-62,15.86Z"
         id="path703" />
      <path
         class="cls-12"
         d="m401.88,424.55s17.03,30.91,15.75,55.37c0,0,3.33,4.62,12.81,4.08,0,0,5.5,2.38,8.92-2.88,3.42-5.26-4.32-40.62-18.87-63.25,0,0-6.11.23-18.61,6.68Z"
         id="path705" />
      <path
         class="cls-37"
         d="m401.88,424.55s17.03,30.91,15.75,55.37c0,0,2.3,3.17,8.49,3.94,3.1-5.77-4.37-39.7-18.38-62.11-1.77.77-3.71,1.68-5.85,2.79Z"
         id="path707" />
    </g>
    <g
       id="g721">
      <path
         class="cls-37"
         d="m380.8,451.19s-4.84,1.33-2.18,12.55c0,0,1.76,8.82.47,13.94,0,0,.36,2.07,4.56,2.67,0,0,18.4.35,25.08-14.09,0,0,1.78-5.04-3.21-6-4.99-.96-6.29-2.91-8.58-5-2.29-2.09-9.93-7.21-16.14-4.06Z"
         id="path711" />
      <path
         class="cls-12"
         d="m405.53,460.25c-4.99-.96-6.29-2.91-8.58-5-1.14-1.04-3.6-2.83-6.55-3.98-1.31.06-2.61.35-3.85.98,0,0-4.84,1.33-2.18,12.55,0,0,1.76,8.82.47,13.94,0,0,.14.76,1.17,1.49,5.17-.45,17.52-2.71,22.73-13.98,0,0,1.78-5.04-3.21-6Z"
         id="path713" />
      <path
         class="cls-39"
         d="m382.6,478.43s.27-13.83,23.77-16.04c0,0,3.01.68,0,5.55,0,0-11.99,14.44-23.77,10.49Z"
         id="path715" />
      <path
         class="cls-12"
         d="m388.85,468.47s13.07,14.21,17.05,26.13c0,0,2.29,2.09,6.27,1.4,0,0,2.81.9,3.31-1.8.5-2.7-9.39-19.49-19.85-29.8,0,0-2.59.39-6.78,4.08Z"
         id="path717" />
      <path
         class="cls-37"
         d="m388.85,468.47s13.07,14.21,17.05,26.13c0,0,1.58,1.43,4.39,1.53.27-2.94-9.24-19.04-19.43-29.27-.62.45-1.29.98-2,1.62Z"
         id="path719" />
    </g>
    <path
       class="cls-20"
       d="m353.53,487.8s-5.43-22.16-21.05-36.95c0,0-10.84-6.36-1.55-16.29,0,0,26.63-19.69,31.6,47.45"
       id="path723" />
    <path
       class="cls-26"
       d="m351.81,495.91s-13.94-14.35-33.9-18.43c0,0-12.24.13-8.08-11.67,0,0,15.56-27.14,47.59,21.58"
       id="path725" />
    <path
       class="cls-42"
       d="m353.33,382.63c-2.32-.28-5.73-3.57-6.91-6.32,3.25-.43,6.81.93,9.11,3.43-2.3-2.55-4.17-6.93-3.72-10.42,3.95.29,5.69,4.5,6.91,7.79-.8-2.96-4.15-12.66-.15-14.46,4.99-2.25,3.89,9.74,3.87,12.86.6-2.34,1.79-4.4,3.75-5.8,2.67,2.56.6,6.76-2.07,8.95,1.91-.9,4.15-1.17,6.28-.75,1.09,3.1-3.33,5.21-4.73,5.8"
       id="path727" />
    <path
       class="cls-42"
       d="m292.23,361.2c-.06-.07-2.54-4.07-3.27-5.89.07-.06.67-.88.73-.99,2.43,1.42,3.61,4.66,6.23,5.75-.47-1.32-2.84-6.77-2.13-7.98,1.72-2.92,4.19,1.21,4.65,3.18-1.75-3.23-3.53-11.88,1.19-13.29,1.58,4.14,2.44,9.11,1.4,13.29,2.02-7.65,8.27-1.55,2,4.13,4.17-5.81,7.32,1.43,3.67,2.88"
       id="path729" />
    <path
       class="cls-42"
       d="m370.48,346.19c-6.05-3.62-1.54-8.92,1.1-2.3-.02-1.81-.94-6.58,1.02-7.37,2.73-1.1,3.74,4.54,3.78,4.93-.39-3.17.46-6.97,3.11-8.61,1.42,2.56,1.29,5.51,1.15,8.37.4-.99,1.26-1.86,1.65-2.59,1.89,2.38,1.07,5.87-.9,8.19,3.62-4.14,6.63-.12,3.56,3.14"
       id="path731" />
    <path
       class="cls-42"
       d="m332.43,351.28c0,1.04-2.52,1.88-5.63,1.88s-5.63-.84-5.63-1.88,2.52-1.88,5.63-1.88,5.63.84,5.63,1.88Z"
       id="path733" />
    <path
       class="cls-42"
       d="m340.47,373.52c0,2.07-4.92,3.75-10.99,3.75s-10.99-1.68-10.99-3.75,4.92-3.75,10.99-3.75,10.99,1.68,10.99,3.75Z"
       id="path735" />
    <path
       class="cls-42"
       d="m192.56,352.62c0,.89-2.16,1.61-4.82,1.61s-4.82-.72-4.82-1.61,2.16-1.61,4.82-1.61,4.82.72,4.82,1.61Z"
       id="path737" />
    <path
       class="cls-48"
       d="m145.93,362.8c0,.59-1.32,1.07-2.95,1.07s-2.95-.48-2.95-1.07,1.32-1.07,2.95-1.07,2.95.48,2.95,1.07Z"
       id="path739" />
    <path
       class="cls-48"
       d="m150.75,365.75c0,.74-.84,1.34-1.88,1.34s-1.88-.6-1.88-1.34.84-1.34,1.88-1.34,1.88.6,1.88,1.34Z"
       id="path741" />
    <path
       class="cls-48"
       d="m166.83,378.61c0,.74-1.44,1.34-3.22,1.34s-3.22-.6-3.22-1.34,1.44-1.34,3.22-1.34,3.22.6,3.22,1.34Z"
       id="path743" />
    <path
       class="cls-48"
       d="m179.16,377.81c0,.59-1.2,1.07-2.68,1.07s-2.68-.48-2.68-1.07,1.2-1.07,2.68-1.07,2.68.48,2.68,1.07Z"
       id="path745" />
    <ellipse
       class="cls-48"
       cx="227.66"
       cy="379.42"
       rx="3.48"
       ry="1.07"
       id="ellipse747" />
    <path
       class="cls-48"
       d="m237.57,344.05c0,.59-2.28,1.07-5.09,1.07s-5.09-.48-5.09-1.07,2.28-1.07,5.09-1.07,5.09.48,5.09,1.07Z"
       id="path749" />
    <path
       class="cls-48"
       d="m262.22,375.93c0,1.04-1.68,1.88-3.75,1.88s-3.75-.84-3.75-1.88,1.68-1.88,3.75-1.88,3.75.84,3.75,1.88Z"
       id="path751" />
    <path
       class="cls-48"
       d="m362.44,422.29c0,1.18-1.56,2.14-3.48,2.14s-3.48-.96-3.48-2.14,1.56-2.14,3.48-2.14,3.48.96,3.48,2.14Z"
       id="path753" />
    <path
       class="cls-48"
       d="m361.9,431.4c0,.89-1.08,1.61-2.41,1.61s-2.41-.72-2.41-1.61,1.08-1.61,2.41-1.61,2.41.72,2.41,1.61Z"
       id="path755" />
    <path
       class="cls-8"
       d="m361.37,354.76c0,2.37-3.96,4.29-8.84,4.29s-8.84-1.92-8.84-4.29,3.96-4.29,8.84-4.29,8.84,1.92,8.84,4.29Z"
       id="path757" />
    <path
       class="cls-8"
       d="m216.13,367.63c0,1.18-3,2.14-6.7,2.14s-6.7-.96-6.7-2.14,3-2.14,6.7-2.14,6.7.96,6.7,2.14Z"
       id="path759" />
    <path
       class="cls-8"
       d="m171.65,358.52c0,.59-2.04,1.07-4.56,1.07s-4.56-.48-4.56-1.07,2.04-1.07,4.56-1.07,4.56.48,4.56,1.07Z"
       id="path761" />
    <path
       class="cls-8"
       d="m283.12,341.63c0,1.33-2.52,2.41-5.63,2.41s-5.63-1.08-5.63-2.41,2.52-2.41,5.63-2.41,5.63,1.08,5.63,2.41Z"
       id="path763" />
    <path
       class="cls-8"
       d="m283.12,366.29c0,1.63-2.76,2.95-6.16,2.95s-6.16-1.32-6.16-2.95,2.76-2.95,6.16-2.95,6.16,1.32,6.16,2.95Z"
       id="path765" />
    <ellipse
       class="cls-8"
       cx="393.79"
       cy="376.2"
       rx="10.45"
       ry="4.29"
       id="ellipse767" />
    <path
       class="cls-8"
       d="m409.6,368.97c0,.74-2.28,1.34-5.09,1.34s-5.09-.6-5.09-1.34,2.28-1.34,5.09-1.34,5.09.6,5.09,1.34Z"
       id="path769" />
    <g
       id="g827">
      <g
         id="g795">
        <path
           class="cls-36"
           d="m33.67,144.82s-5.76,17.29-23.47,27.59l19.35,6.18,17.71-4.94,21.41,5.77s-15.65-16.06-17.29-30.47c-1.65-14.41-10.71-17.29-17.71-4.12Z"
           id="path771" />
        <polyline
           class="cls-16"
           points="10.2 172.4 13.49 183.11 34.08 189.29 58.78 185.58 68.67 179.4 46.84 166.64"
           id="polyline773" />
        <polyline
           class="cls-1"
           points="44.13 170.34 60.4 179.86 53.03 184.46 34.62 187.23 19.27 182.62 16.81 174.64"
           id="polyline775" />
        <polygon
           class="cls-36"
           points="22.55 174.87 -.51 204.11 20.49 203.29 40.67 204.11 60.43 206.17 69.9 211.52 53.02 175.7 43.96 170.34 22.55 174.87"
           id="polygon777" />
        <polygon
           class="cls-16"
           points="-.51 204.11 30.37 197.11 57.55 200.4 69.9 211.93 48.9 220.99 11.84 216.05 -.51 204.11"
           id="polygon779" />
        <polygon
           class="cls-1"
           points="7.73 206.4 31.21 202.05 51.88 204.09 60.02 210.99 45.3 216.87 17.12 213.81 7.73 206.4"
           id="polygon781" />
        <polygon
           class="cls-36"
           points="11.43 205.76 -16.57 236.64 10.82 235.81 37.13 236.64 62.9 238.7 75.25 244.05 52.61 204.52 31.61 202.05 11.43 205.76"
           id="polygon783" />
        <polygon
           class="cls-16"
           points="-16.57 236.64 23.71 229.64 59.15 232.93 74.84 243.23 47.87 253.52 -.46 248.58 -16.57 236.64"
           id="polygon785" />
        <polygon
           class="cls-1"
           points="-5.83 238.92 24.8 234.58 51.75 236.62 62.37 243.52 43.17 249.4 6.42 246.33 -5.83 238.92"
           id="polygon787" />
        <polygon
           class="cls-36"
           points="4.83 237.87 -27.69 268.75 4.12 267.93 34.68 268.75 64.62 270.81 78.96 276.17 52.66 236.64 28.27 234.17 4.83 237.87"
           id="polygon789" />
        <polygon
           class="cls-16"
           points="-27.69 268.75 19.09 261.75 60.25 265.05 78.48 275.34 47.15 285.64 -8.98 280.7 -27.69 268.75"
           id="polygon791" />
        <polygon
           class="cls-1"
           points="-15.21 271.04 20.36 266.7 51.66 268.74 63.99 275.64 41.7 281.52 -.98 278.45 -15.21 271.04"
           id="polygon793" />
      </g>
      <polygon
         class="cls-18"
         points="10.9 267.95 15.19 298.49 30.73 297.96 39.84 267.95 22.15 266.88 10.9 267.95"
         id="polygon797" />
      <path
         class="cls-30"
         d="m15.19,300.1c-2.63-.89-4.88-3.5-4.74-6.35,4.08-.64,6.78,3.71,9.51,6.19-1.3-3.24-3.68-8.51-1.55-12.04,4.01-6.66,4.81,7.68,5.92,10.98-.84-3.8-1.17-14.19,4.15-14.79,2.86,4.35,1.02,12,.33,16.5,5.48-11.1,10.38-1.64,6.2,2.19"
         id="path799" />
      <path
         class="cls-46"
         d="m39.84,170.41c3.65,6.71-10.97,26.71-16.08,30.01"
         id="path801" />
      <path
         class="cls-46"
         d="m49.48,173.63c.27,7.05-3.18,18.13.54,26.26"
         id="path803" />
      <path
         class="cls-46"
         d="m8.76,200.42c9.47-4.76,19.95-18.88,23.04-28.94"
         id="path805" />
      <path
         class="cls-46"
         d="m36.62,140.4c-.02,7.01-1.06,13.45-3.88,19.84-1.23,2.78-3.17,5.64-5.11,8.05-.91,1.14-4.68,5.18-3.87,3.72"
         id="path807" />
      <path
         class="cls-46"
         d="m40.91,167.73c2.89-8.93,3.75-20.23,3.75-28.4"
         id="path809" />
      <path
         class="cls-46"
         d="m.18,236.33c3.8-4.63,5.78-12.65,7.52-19.29.62-2.38,1.43-4.88,2.01-7.08.34-1.32,1.48-6.71,1.19-5.24"
         id="path811" />
      <path
         class="cls-46"
         d="m24.3,201.5c-6.81,9.49-8.48,25.43-15.99,35.82.77-.43,1.82-.97,2.6-1.53"
         id="path813" />
      <path
         class="cls-46"
         d="m33.94,200.96c0,10.38.77,21.56-1.66,31.47.53-1.17.75-2.36,1.13-3.6"
         id="path815" />
      <path
         class="cls-46"
         d="m45.2,201.5c.07,11.19,3.25,21.39,6.97,31.62"
         id="path817" />
      <path
         class="cls-46"
         d="m46.27,235.26c.98,9.06,4.05,23.28,7.95,31.04-.07-.57-.32-.99-.44-1.57"
         id="path819" />
      <path
         class="cls-46"
         d="m40.91,235.26c-2.81,2.78-2.91,11.42-3.9,15.54-1.13,4.71-2,9.3-3.63,13.77.03-.48.03-.96.03-1.45"
         id="path821" />
      <path
         class="cls-46"
         d="m17.87,263.12c4.19-4.42-3.06-24.22-2.68-29.47"
         id="path823" />
      <path
         class="cls-46"
         d="m8.76,236.33c-4.28,9.02-8.4,22.88-15.94,31.07.87-.36,1.32-.98,2.01-1.59"
         id="path825" />
    </g>
    <path
       class="cls-42"
       d="m62.33,318.86c-8.01-1.64-5.11-13.74,1.5-3.38-.74-4.54-1.08-10.14,1.71-14.26,2.73,1.62,3.94,7.94,2.81,10.63-.87-3.61,1.41-7.69,4.17-9.69,3.36,2.89,1.48,10.39-.69,12.88,4.01-6.84,12.43-3.49,6.77,1.76.25-.3.78-.81.88-1.16"
       id="path829" />
    <path
       class="cls-42"
       d="m165.76,321c-2.37-1.88-4.04-5.46-3.66-8.5,1.91.8,3.37,3.3,4.52,5.37-1.79-2.98-1.93-7.33-.74-10.63.99,1.91,1.31,3.93,1.49,6.1.11-3.23,1.45-6.82,4.18-8.35,1.37,4.23.67,7.98.22,12.24,4.36-8.09,10.26-1.09,5.41,3.08,2.36-3.54,6.22-2.19,5.2,1.23"
       id="path831" />
    <path
       class="cls-42"
       d="m144.02,302.79c0,1.18-2.76,2.14-6.16,2.14s-6.16-.96-6.16-2.14,2.76-2.14,6.16-2.14,6.16.96,6.16,2.14Z"
       id="path833" />
    <path
       class="cls-42"
       d="m125.56,316.72c0,1.78-4.32,3.22-9.65,3.22s-9.65-1.44-9.65-3.22,4.32-3.22,9.65-3.22,9.65,1.44,9.65,3.22Z"
       id="path835" />
    <path
       class="cls-42"
       d="m52.14,328.77c0,1.33-2.4,2.41-5.36,2.41s-5.36-1.08-5.36-2.41,2.4-2.41,5.36-2.41,5.36,1.08,5.36,2.41Z"
       id="path837" />
    <path
       class="cls-2"
       d="m271.33,232.58c.54,1.61,41.8,13.4,41.8,13.4l8.57-20.36-50.38,6.97Z"
       id="path839" />
    <polygon
       class="cls-2"
       points="307.24 235.8 356 234.72 388.69 202.03 429.42 180.6 427.81 165.06 389.57 189.67 354.78 195.71 307.24 235.8"
       id="polygon841" />
    <path
       class="cls-6"
       d="m189.34,137.52c-.95,3.85-2.4,7.35-4.15,10.52,2.31.31,10.07.36,15.94-11.38,0,0-4.29,28.4,14.47,25.72,0,0,6.97-3.22,9.65-18.22,0,0,3.22,15.01,15.01,9.65,11.79-5.36,5.36-3.75,5.36-13.93,0,0,10.56,28.03,18.22,20.36.4-.4,6.64-5.19,9.01-15.45-29.95-78.14-78.49-27.61-83.5-7.27Z"
       id="path843" />
    <path
       class="cls-6"
       d="m30.17,91.57c-8.57-33.23-42.34-20.9-42.34-20.9l-1.87,52.73c2.75.35,7.21-.73,9.91-9.86,0,0,7.39,18.05,11.04,9.37,0,0,5.67-11.42,6.25-15.08,0,0,2.92,15.08,12.58,14.75,0,0,4.33-1.83,4.08-9.08,0,0,4.36,4.79,7.35,3.9-2.65-9.45-5.09-18.41-7.01-25.82Z"
       id="path845" />
    <polyline
       class="cls-16"
       points="353.64 208.27 367.64 172.27 376.97 209.6"
       id="polyline847" />
    <polyline
       class="cls-16"
       points="385.77 194.66 397.52 163.12 405.36 195.83"
       id="polyline849" />
    <polyline
       class="cls-16"
       points="404.27 184.21 412.82 162.23 418.52 185.03"
       id="polyline851" />
    <polyline
       class="cls-16"
       points="331.15 220.19 339.7 198.2 345.4 221"
       id="polyline853" />
  </g>
</svg>
