<svg xmlns="http://www.w3.org/2000/svg" xmlns:xlink="http://www.w3.org/1999/xlink" viewBox="0 0 368.01 537.64"><defs><style>.cls-1{fill:url(#Degradado_sin_nombre_14);}.cls-2{fill:url(#Degradado_sin_nombre_12);}.cls-3{fill:url(#Degradado_sin_nombre_10);}.cls-4{fill:url(#Degradado_sin_nombre_12-2);}.cls-5{fill:url(#Degradado_sin_nombre_14-2);}.cls-15,.cls-30,.cls-6{fill:none;}.cls-7{fill:#cf6c28;}.cls-8{fill:#82461e;}.cls-9{clip-path:url(#clip-path);}.cls-10{mask:url(#mask);}.cls-11{fill:url(#Degradado_sin_nombre_13);}.cls-12{clip-path:url(#clip-path-2);}.cls-13{mask:url(#mask-2);}.cls-14{fill:url(#Degradado_sin_nombre_11);}.cls-15{stroke:#0f0809;stroke-miterlimit:10;stroke-width:3.02px;}.cls-16{fill:#b05e28;}.cls-17{opacity:0.51;}.cls-18{clip-path:url(#clip-path-3);}.cls-19{clip-path:url(#clip-path-4);}.cls-20{mask:url(#mask-3);}.cls-21{fill:url(#Degradado_sin_nombre_9);}.cls-22{fill:#fdd400;}.cls-23{fill:#c4a73a;}.cls-24{fill:#6da80f;}.cls-25{fill:#569141;}.cls-26{fill:#0f0809;}.cls-27{fill:#221813;}.cls-28{fill:#421c0d;}.cls-29{fill:#3d0c00;}.cls-30{stroke:#221813;stroke-linecap:round;stroke-linejoin:round;stroke-width:3.94px;}.cls-31{clip-path:url(#clip-path-5);}.cls-32{mask:url(#mask-4);}.cls-33{fill:url(#Degradado_sin_nombre_11-2);}.cls-34{clip-path:url(#clip-path-6);}.cls-35{mask:url(#mask-5);}.cls-36{fill:url(#Degradado_sin_nombre_13-2);}.cls-37{fill:#ffb700;}.cls-38{fill:#ffe59e;}.cls-39{opacity:0.27;}.cls-40{clip-path:url(#clip-path-7);}.cls-41{fill:#050504;}.cls-42{clip-path:url(#clip-path-8);}</style><linearGradient id="Degradado_sin_nombre_14" x1="-873.23" y1="3456.83" x2="-872.23" y2="3456.83" gradientTransform="translate(137350.16 35141.58) rotate(90) scale(39.67)" gradientUnits="userSpaceOnUse"><stop offset="0"/><stop offset="0.24"/><stop offset="0.74" stop-color="#fff"/><stop offset="1" stop-color="#fff"/></linearGradient><linearGradient id="Degradado_sin_nombre_12" x1="-870.87" y1="3462.59" x2="-869.87" y2="3462.59" gradientTransform="matrix(-3.47, 60.74, -52.46, -12.64, 178864.11, 97012.98)" gradientUnits="userSpaceOnUse"><stop offset="0"/><stop offset="0.24"/><stop offset="0.7" stop-color="#fff"/><stop offset="1" stop-color="#fff"/></linearGradient><linearGradient id="Degradado_sin_nombre_10" x1="-849.76" y1="3475.49" x2="-848.76" y2="3475.49" gradientTransform="matrix(116.61, 0, 0, -116.61, 99290.03, 405494.37)" gradientUnits="userSpaceOnUse"><stop offset="0"/><stop offset="0.22"/><stop offset="0.88" stop-color="#fff"/><stop offset="1" stop-color="#fff"/></linearGradient><linearGradient id="Degradado_sin_nombre_12-2" x1="-861.18" y1="3488.34" x2="-860.18" y2="3488.34" gradientTransform="matrix(0, 69.2, 69.2, 0, -241344.81, 59943.04)" xlink:href="#Degradado_sin_nombre_12"/><linearGradient id="Degradado_sin_nombre_14-2" x1="-874.39" y1="3492.07" x2="-873.39" y2="3492.07" gradientTransform="matrix(-39.67, 0, 0, 39.67, -34619.78, -137993.96)" xlink:href="#Degradado_sin_nombre_14"/><clipPath id="clip-path"><path class="cls-6" d="M212.54,534.26l26,.5c13.48-.5-4.49-13.48-4.49-13.48l-1.61-8.49c-6.61-.32-16.15-.71-22.63-.71Z"/></clipPath><mask id="mask" x="209.02" y="510.69" width="43.7" height="25.45" maskUnits="userSpaceOnUse"><rect class="cls-1" x="209.41" y="511.39" width="42.93" height="24.06" transform="translate(-17.03 7.85) rotate(-1.88)"/></mask><linearGradient id="Degradado_sin_nombre_13" x1="-873.23" y1="3456.83" x2="-872.23" y2="3456.83" gradientTransform="translate(137350.16 35141.58) rotate(90) scale(39.67)" gradientUnits="userSpaceOnUse"><stop offset="0" stop-color="#82361c"/><stop offset="0.24" stop-color="#82361c"/><stop offset="0.74" stop-color="#4e361c"/><stop offset="1" stop-color="#4e361c"/></linearGradient><clipPath id="clip-path-2"><path class="cls-6" d="M212.71,390.61c2.59,4.21,10.66,6,10.66,6,9.76,3.48,26.21-3.88,26.21-3.88,4.75-5.93-18.26-7.89-18.26-7.89l11.09-13.37c.5-.41,1-.81,1.4-1.22-5.06-.58-16.44-2.25-22-5.87-4.45,9.2-10.84,23.46-9.12,26.27"/></clipPath><mask id="mask-2" x="208.98" y="354.04" width="47.36" height="56.31" maskUnits="userSpaceOnUse"><polygon class="cls-2" points="211.58 354.04 208.98 399.57 253.74 410.36 256.34 364.83 211.58 354.04"/></mask><linearGradient id="Degradado_sin_nombre_11" x1="-870.87" y1="3462.59" x2="-869.87" y2="3462.59" gradientTransform="matrix(-3.47, 60.74, -52.46, -12.64, 178864.11, 97012.97)" gradientUnits="userSpaceOnUse"><stop offset="0" stop-color="#82361c"/><stop offset="0.24" stop-color="#82361c"/><stop offset="0.7" stop-color="#4e361c"/><stop offset="1" stop-color="#4e361c"/></linearGradient><clipPath id="clip-path-3"><rect class="cls-6" x="157.81" y="160.04" width="151.16" height="118.07"/></clipPath><clipPath id="clip-path-4"><path class="cls-6" d="M303.5,214.67c6.47-8.41,5.4-25.35,5.4-25.35-2.13-17.87-18.39-21.85-18.39-21.85-18.46-5.87-60.38-7.41-99.1-7.43-11,11.35-22.47,23.9-33.6,36.41,10.94,6,123.55,67.49,140.53,81.66l.49-.53c6-24.36,4.67-62.91,4.67-62.91"/></clipPath><mask id="mask-3" x="99.77" y="85.24" width="268.23" height="267.66" maskUnits="userSpaceOnUse"><rect class="cls-3" x="137.65" y="125.04" width="192.49" height="188.06" transform="translate(-86 200.05) rotate(-39.72)"/></mask><linearGradient id="Degradado_sin_nombre_9" x1="-849.76" y1="3475.49" x2="-848.76" y2="3475.49" gradientTransform="matrix(116.61, 0, 0, -116.61, 99290.09, 405494.4)" gradientUnits="userSpaceOnUse"><stop offset="0" stop-color="#82361c"/><stop offset="0.22" stop-color="#82361c"/><stop offset="0.88" stop-color="#4e361c"/><stop offset="1" stop-color="#4e361c"/></linearGradient><clipPath id="clip-path-5"><path class="cls-6" d="M21.87,376.74c.55.26,1.12.51,1.73.76l15,10s-21,11-14.48,15.48c0,0,18,1.5,26-6,0,0,7-5,8-10.48.66-3.66-10.2-16.41-17.52-24.51-4,6-14.1,12.19-18.66,14.76"/></clipPath><mask id="mask-4" x="0" y="344.94" width="76.33" height="76.56" maskUnits="userSpaceOnUse"><rect class="cls-4" x="10.04" y="354.82" width="56.24" height="56.81" transform="translate(-175.49 62.81) rotate(-28.01)"/></mask><linearGradient id="Degradado_sin_nombre_11-2" x1="-861.18" y1="3488.34" x2="-860.18" y2="3488.34" gradientTransform="matrix(0, 69.2, 69.2, 0, -241344.84, 59943.05)" xlink:href="#Degradado_sin_nombre_11"/><clipPath id="clip-path-6"><path class="cls-6" d="M42.69,512.79l-1.61,8.49s-18,13-4.49,13.48l26-.5,2.77-22.19c-6.48,0-16,.4-22.63.71"/></clipPath><mask id="mask-5" x="22.36" y="510.69" width="43.7" height="25.45" maskUnits="userSpaceOnUse"><rect class="cls-5" x="32.18" y="501.95" width="24.06" height="42.93" transform="translate(-480.37 550.45) rotate(-88.12)"/></mask><linearGradient id="Degradado_sin_nombre_13-2" x1="-874.39" y1="3492.07" x2="-873.39" y2="3492.07" gradientTransform="matrix(-39.67, 0, 0, 39.67, -34619.78, -137993.96)" xlink:href="#Degradado_sin_nombre_13"/><clipPath id="clip-path-7"><rect class="cls-6" x="109.28" y="0.01" width="34.7" height="62.29"/></clipPath><clipPath id="clip-path-8"><rect class="cls-6" x="78.96" y="52.6" width="57.07" height="65.12"/></clipPath></defs><title>Recurso 3</title><g id="Capa_2" data-name="Capa 2"><g id="Capa_1-2" data-name="Capa 1"><path class="cls-7" d="M228.52,492.32l5.49,29s18,13,4.49,13.48l-26-.5L207,490.33Z"/><path class="cls-8" d="M229.61,498s-14,3.45-17.26,2.53l3.22,20.72s-4.83.69-4.6,0-3-24.86-3-24.86l21.18-.46Z"/><g class="cls-9"><g class="cls-10"><rect class="cls-11" x="209.41" y="511.39" width="42.93" height="24.06" transform="translate(-17.03 7.85) rotate(-1.88)"/></g></g><path class="cls-7" d="M191.58,322s7.22-15.25,16.75-6.53L249.52,353s6,7.66-7.11,18.48l-11.09,13.37s23,2,18.26,7.89c0,0-16.45,7.36-26.21,3.88,0,0-8.07-1.76-10.66-6s13.09-34.22,13.09-34.22l-21.65-9.93s-15.85-13-12.57-24.45"/><g class="cls-12"><g class="cls-13"><polygon class="cls-14" points="211.58 354.04 208.98 399.57 253.74 410.36 256.34 364.83 211.58 354.04"/></g></g><line class="cls-15" x1="119.62" y1="174.14" x2="119.62" y2="128.88"/><line class="cls-15" x1="138.26" y1="128.88" x2="138.26" y2="174.14"/><path class="cls-7" d="M46.57,492.32l-5.49,29s-18,13-4.49,13.48l26-.5L68,490.33Z"/><path class="cls-8" d="M57,488.36l-5.29,26.93s-9.44.69-9,0,3.22-21.41,3.22-21.41"/><polyline class="cls-8" points="48 503.1 66.87 499.64 67.33 495.27 52.83 495.5"/><path class="cls-7" d="M308.9,189.31c-2.13-17.87-18.39-21.85-18.39-21.85-38.6-12.26-179.76-5.66-179.76-5.66-5.94,1-21,2.14-32.1,2.91-4.89-2.84-11-6.16-15.35-7.72-8.41-3-29.43,9-19.22,24.63,0,0,4.69,9.82,19.83,9.24C51.48,209.24,50.66,288.29,50.25,291.7c-7.93,64.53-.71,147.11-.71,147.11,77.88,29.09,174.39-11,174.39-11C214.46,341.35,188.83,300,188.83,300l31.27,4s53.19,2.64,69.5-8.4,13.9-80.92,13.9-80.92c6.47-8.41,5.4-25.35,5.4-25.35"/><path class="cls-7" d="M308.9,189.31c-2.13-17.87-18.39-21.85-18.39-21.85-38.6-12.26-179.76-5.66-179.76-5.66-5.94,1-21,2.14-32.1,2.91-4.89-2.84-11-6.16-15.35-7.72-8.41-3-29.43,9-19.22,24.63,0,0,4.69,9.82,19.83,9.24a38.91,38.91,0,0,0-4.44,10.5c-3.44,5.91-7.32,14-8,21.29,0,0,1,1.62,3.63.72-.27,2-.53,3.95-.77,6-3.91,7.42-8.71,18.1-8.71,25.81,0,0,3.62,1.59,6.43-.89l-.07,1c-2.21,4.88-5,13.33-2.46,20.66a9,9,0,0,0,1.26,2.5c-.29,7.43-.41,12.45-.51,13.25-7.93,64.53-.71,147.11-.71,147.11,77.88,29.09,174.39-11,174.39-11C214.46,341.35,188.83,300,188.83,300l31.27,4s53.19,2.64,69.5-8.4,13.9-80.92,13.9-80.92c6.47-8.41,5.4-25.35,5.4-25.35"/><path class="cls-16" d="M47.41,340.65l10-6.3-.61,73.5s-9.07-1.34-9.48-3.8.11-63.4.11-63.4"/><path class="cls-16" d="M61.59,220.34c.25-4.72,4.73-17.09,9.39-28.81A60,60,0,0,1,62,187.34c-7.11-4.13-2.29-19.49,2.06-24.76,2.06-2.5,1.65-4.06.65-5-.5-.2-1-.4-1.45-.56-8.41-3-29.43,9-19.22,24.63,0,0,4.69,9.82,19.83,9.24a39,39,0,0,0-4.44,10.5c-3.44,5.91-7.32,14-8,21.29,0,0,1,1.62,3.63.72-.27,2-.53,4-.77,6-3.91,7.42-8.71,18.1-8.71,25.81,0,0,3.62,1.59,6.43-.89l-.07,1c-2.21,4.88-5,13.33-2.46,20.66a9,9,0,0,0,1.26,2.5c-.29,7.43-.41,12.45-.51,13.25q-.27,2.19-.51,4.41c2.1.29,4.18.53,6.08.93,7.35,1.58,5.78-3.68,4.2-9.46s4.73-44.13,4.73-44.13l-12.08,8.41,15.76-32.57Z"/><g class="cls-17"><g class="cls-18"><g class="cls-19"><g class="cls-20"><rect class="cls-21" x="137.65" y="125.04" width="192.49" height="188.06" transform="translate(-86 200.05) rotate(-39.72)"/></g></g></g></g><path class="cls-22" d="M47.1,437.89l-5.23,58.33s20.51,4.42,27.35.4l2.41-14.08s126.71.8,132.74,4l2.41,9.65s20.11,2.82,23.73-.4c0,0,2.4-59.14-.82-66.38S47.1,437.89,47.1,437.89"/><path class="cls-23" d="M41.87,496.22s20.51,4.43,27.35.4l2.41-14.08s6.14,0,15.77.13C85,454.38,122,449.39,122,449.39l-26-16.2c-27.65,2.52-48.87,4.71-48.87,4.71Z"/><path class="cls-24" d="M192.5,306.61c5.13,15.29,1.24,21.47,1.24,21.47-6.32,4.83-65.55,7.64-65.55,7.64-10.66-.8-26.06-30.17-26.06-30.17-7.9-20.92-49.36-23.33-49.36-23.33l-1.18.4c-2.88,7.33-2.26,17.52-2.26,17.52s32.41,4.46,33.39,40.91c0,0,2.45,48.93-9.8,58.91-10.07,8.21-17.78,12-25.6,4.08-.12,20-3.63,32.24-3.63,32.24l9.87,6.84c77.4,31,173.25-2.22,173.25-2.22l5-2c32.57-64.09-39.31-132.28-39.31-132.28"/><path class="cls-25" d="M96.42,377.5c3.74-28.93-3.35-68.28-6.93-85.36-15-8.64-36.74-9.92-36.74-9.92l-1.19.4c-2.88,7.33-2.26,17.52-2.26,17.52s32.41,4.46,33.39,40.91c0,0,2.45,48.93-9.8,58.91-10.07,8.21-17.78,12-25.6,4.08-.12,20-3.63,32.24-3.63,32.24l9.87,6.84a185.46,185.46,0,0,0,48,11.68c-4.18-16-8.76-48.89-5.09-77.31"/><path class="cls-23" d="M72.9,400c-10.07,8.21-17.78,12-25.6,4.08,0,2.51-.24,4.51-.24,6.82,15.49,10.76,35.4,3.69,42.22-28.73,7.35-34.95-7.49-69-7.49-69-5.52-15.56-27.07-19.45-32.46-18.31-.27,2.3-.65,5.77-.65,5.77s27.89.29,30.84,36.14c0,0,5.63,53.22-6.63,63.2"/><path class="cls-22" d="M200.09,330.29c0-5.06-.75-11.23-2.58-15.69-2.39-4.4-4.35-7.62-5.54-9.51,4.27,14.14,1.76,23,1.76,23-6.32,4.83-65.55,7.64-65.55,7.64-10.66-.8-26.06-30.17-26.06-30.17C90,281.12,61.49,283,54.18,282.34a4.55,4.55,0,0,0-3.55.74,13.2,13.2,0,0,0-.52,4.14,12.59,12.59,0,0,1-.46,2.12c8-.41,28.89-2.79,40.49,11.8,0,0,12.07,16.89,13.27,22.12s12.47,19.71,23.33,19.31c0,0,59.53-.8,66.77-4.83,0,0,6.57-.6,6.57-7.44"/><path class="cls-7" d="M34.09,355l17-19s10.48-20,3.49-31c0,0-12-13.48-18-.5l-.5,1.09c-5.86,5.38-15.77,15.57-17.13,24.2,0,0,1.3,2.6,4.55,0,0,0-8.45,7.8-9.75,16.25,0,0,.91.91,3.35.45l-6.47,13.93s-3,10.48,13,17l15,10s-21,11-14.48,15.48c0,0,18,1.5,26-6,0,0,7-5,8-10.48s-24-31.45-24-31.45"/><path class="cls-26" d="M148.91,20c0,4.23-2.09,7.66-4.66,7.66s-4.66-3.43-4.66-7.66,2.09-7.65,4.66-7.65,4.66,3.43,4.66,7.65"/><path class="cls-27" d="M97.24,201.51S88,195.51,94,189.3a23.67,23.67,0,0,1,23.2-.68s19.3,15.52-20,12.89"/><path class="cls-28" d="M47.08,173.82s-2.4-8.41,8.41-10.21c0,0,6.61-1.8,12,6.61,0,0-9,5.41-6.61,10.81s-15.62,6-13.82-7.21"/><path class="cls-29" d="M288.66,203.49s3.77-1.73,3.25-2.6c-3-4.94-11.9-16.42-24-10.07,0,0-5.07,5.63,0,9.82a10.12,10.12,0,0,0,1.3.9,9.1,9.1,0,0,0,10.07,2.6s2.92-5.52,7.47-1.3"/><path class="cls-30" d="M87.84,185.61s4.55-14.3,20.8-13"/><g class="cls-31"><g class="cls-32"><rect class="cls-33" x="10.05" y="354.82" width="56.24" height="56.81" transform="translate(-175.49 62.81) rotate(-28.01)"/></g></g><g class="cls-34"><g class="cls-35"><rect class="cls-36" x="32.18" y="501.95" width="24.06" height="42.93" transform="translate(-480.37 550.45) rotate(-88.12)"/></g></g><path class="cls-7" d="M205.47,313.65c1.95.65,11,3.25,16.9,9.1l-6.5,1.95s13.65,4.55,18.2,9.1c0,0-3.9,1.95-12.35,0"/><path class="cls-37" d="M109.28,60.18s7.8-8.45,5.2-23.4,6.28-34.44,22.1-36.4c0,0,24.7-3.25,29.9,9.1,0,0,9.75,14.3.65,24.7,0,0-11,7.8-8.45,12.35s7.1,6.39,11.49,16.59c8.48,19.73-8.67,73-57.63,71.15,0,0-18.85,1.95-25.35-5.2S3,130.38,12.45,125.82c20.34-9.82,70.68-15.68,74-19.55,0,0,5.94-25.95,22.84-46.09"/><path class="cls-38" d="M158.68,46.53c-2.6-4.55,8.45-12.35,8.45-12.35,9.1-10.4-.65-24.7-.65-24.7-5.2-12.35-29.9-9.1-29.9-9.1-16.68,2.93-24.7,21.45-22.1,36.4s-5.2,23.4-5.2,23.4,17.92-17.27,24.85-7.74,7.43,20.6,26.27,24.21c4.3.82,7.48.18,9.86-2.17,1.73-3.9,2.68-4.89-.1-11.36-4.39-10.2-8.89-12-11.49-16.59"/><g class="cls-39"><g class="cls-40"><path d="M144,0a60.46,60.46,0,0,0-7.41.38c-16.68,2.93-24.7,21.45-22.1,36.4s-5.2,23.4-5.2,23.4,15.6,9.11,17.31-10.44c0-6.66-1.35-14.75-2.8-23.13C121.31,12.17,137.27,3.13,144,0"/></g></g><path class="cls-24" d="M112.75,52.6s21.71,4.27,28.09,23.07a11,11,0,0,0,4.59,5.85c7.68,4.77,25,13,27.32-7.79l-.43,1.08s2.71,38.13-38.78,57.51c0,0-29.9,6.5-54.59-28.16,0,0,12.79-8.46,17.76-23.4,3.47-10.4,6.27-11.44,7.8-16,2.6-7.8,3.47-6.5,8.23-12.13"/><path class="cls-22" d="M126.26,79.48A16.08,16.08,0,1,1,110.19,63a16.28,16.28,0,0,1,16.07,16.49"/><path class="cls-22" d="M172.33,74.81s0,.51,0,1.44c.16-.8.3-1.62.4-2.53Z"/><path class="cls-41" d="M185.59,28c-5.83-.45-12.93-3.7-12.93-3.7l-1.75-.68c-1.6-.61-2.11-1.88-4.57-1.6-1.22.14-4.71,3.57-7.27,6.34s-10.23-1.84-10.23-1.84c-2.4.92-.48,3.14-.48,3.14,3.52,5,12.62,3.69,12.62,3.69l.06,0s19.93-1.53,23.72-2.2c1.9-.33,2.32-1.1,2.28-1.78A1.52,1.52,0,0,0,185.59,28"/><path class="cls-41" d="M99.32,69.49s-37.7,33.8-50.26,38.56c0,0-6.93,5.2,10,2.6s33.36.87,51.13-12.13,12.13-42.9-10.83-29"/><path class="cls-41" d="M152.08,23h0a2.82,2.82,0,0,1-3.42-2L147.19,15a2.82,2.82,0,0,1,5.46-1.37l1.47,5.88a2.82,2.82,0,0,1-2,3.42"/><path class="cls-22" d="M140.69,75.23C134.13,56.8,112.75,52.6,112.75,52.6c-2.29,2.71-3.68,3.82-4.8,5.11l0,.53c1.3.43,8.67-3.9,19.5,6.07,11.42,10.5,6.5,16.47,16,20.8,0,0,11.7,9.53,23,5.2l0,0c2.63-1,4.16-3.42,5.2-6,2.66-6.72.49-11.27.49-11.27v.22c-2.29,20.32-18.3,13.1-26.23,8.54a12.1,12.1,0,0,1-5.3-6.5"/><path class="cls-41" d="M86.47,128.47a2.36,2.36,0,0,0,.33-.16c-6.62-5.37-7.5-13.91-7.24-19.49-15.16,3.8-50.79,9.13-67.12,17-9.46,4.56,5.81,2.66,11,6.5,2.44,1.79,7.8-.32,7.8-.32s46.46-9.37,55.18-3.53"/><path class="cls-30" d="M252.3,273.4s3.68,14.19,17.34,6.3"/><path class="cls-22" d="M180.36,361.29s-22.94,11.94-17,24.87c0,0,4.59,12.44,17,18.9l13.76,7.46s15.08-12.44,15.73-25.87c0,0,.65-26.37-29.5-25.37"/><path class="cls-22" d="M180.48,365.27s-1.73-9-5.18-11.94c0,0,4.61-2,6.34-1s3.46,9.95,2.88,11.44-4,1.49-4,1.49"/><path class="cls-25" d="M194.12,412.53c2.94-16.49-10.92-49.74-10.92-49.74s1.8-.89,2.32.22c0,0,12.35,32.67,9.52,49.34"/><polygon class="cls-25" points="186.55 369.45 172.4 385.9 187.58 371.68 186.55 369.45"/><polygon class="cls-25" points="190.75 383.23 177.8 395.24 191.69 384.86 190.75 383.23"/><polygon class="cls-25" points="188.87 374.79 204.56 382.79 189.12 376.79 188.87 374.79"/><polygon class="cls-25" points="192.72 388.12 202.25 392.79 192.88 389.29 192.72 388.12"/><path class="cls-16" d="M16.94,369c-4.73-6.3,8.41-27.32,8.41-27.32l-3.68,1.58s1.58,2.1-2.1.53,12.08-17.86,12.08-17.86H26.39c1-5.78,19.42-22.64,22.48-25.4-3.92-2.21-9-3-12.29,4.07l-.51,1.09c-5.86,5.38-15.77,15.57-17.13,24.2,0,0,1.3,2.6,4.55,0,0,0-8.45,7.8-9.75,16.25,0,0,.91.91,3.35.45l-6.47,13.93s-2.6,9.11,10,15.6c-.26-1.58-1.31-3.95-3.68-7.11"/><g class="cls-39"><g class="cls-42"><path d="M134.33,64.75l0,0c-6.46-7-15-10.26-19.13-11.49h-.05l-.5-.15h0l-1.14-.3-.12,0-.17,0-.13,0-.1,0-.12,0h-.08c-4.6,5.44-5.57,4.44-8,11.38a16.32,16.32,0,0,0-9.57,9.56,6.5,6.5,0,0,1,1.51,7.22A40.76,40.76,0,0,1,95,85v0c-.53,1.14-1.09,2.23-1.69,3.27v0l-.53.89-.11.19-.51.81-.15.23-.51.76-.16.24-.51.74-.16.22-.53.73-.13.17-.57.74-.06.07c-1.1,1.4-2.2,2.66-3.27,3.78l0,0-.58.6-.09.09-.53.53-.13.13-.5.48-.12.12-.48.45-.12.11-.48.43-.07.06c-.88.79-1.66,1.43-2.3,1.94l-.09.07-.27.21-.13.1-.23.17-.12.09-.19.14-.11.08-.15.11-.1.07-.11.08-.1.07-.05,0-.13.09c.45.63.9,1.24,1.35,1.84l.41.53,1,1.26.44.55,1.05,1.28.32.38q.7.83,1.41,1.63l.05.05q.67.76,1.35,1.48l.31.33,1.14,1.18.29.3q.68.68,1.36,1.33l0,0q.75.72,1.51,1.39c6.8-1.05,44.89-8.81,45.09-51q-.82-1.05-1.69-2"/></g></g><path class="cls-24" d="M25.49,532.07s0-8.77,8.77-11.11l8.19-4.09s17,1.17,22.22,0c0,0,2.92,10.18,1.75,16.37,0,0,1.39,5.3-3.34,3.72l-37.18.68s-1.57-3.81-.41-5.57"/><path class="cls-25" d="M37.84,535.61c-.23-11,15.78-17.13,15.78-17.13l-1.32-1.15c-5.19-.14-9.85-.46-9.85-.46L34.26,521c-8.77,2.34-8.77,11.11-8.77,11.11-1.17,1.75.4,5.57.4,5.57l11.92-.22c0-.57,0-1.17,0-1.81"/><path class="cls-22" d="M41.45,517.81s.45-5.86,1.8-7.21c0,0,18.48,1.13,22.54-.45l-.68,8.11s-19.73,2-23.66-.45"/><rect class="cls-22" x="24.77" y="534.48" width="41.69" height="2.93"/><rect class="cls-23" x="24.77" y="534.48" width="14.82" height="2.93"/><path class="cls-22" d="M38.52,518.71s6.76,1.8,8.56,4.06l-3.15,2.7s-6.48-4.05-9.67-4.51c0,0,2-2.71,4.26-2.26"/><path class="cls-23" d="M41.45,517.81c1.53,1,5.47,1.23,9.7,1.22a39.72,39.72,0,0,1,.09-8.1c-4.38-.11-8-.33-8-.33-1.35,1.35-1.8,7.21-1.8,7.21"/><path class="cls-24" d="M250,532.07s0-8.77-8.77-11.11L233,516.87s-17,1.17-22.22,0c0,0-2.92,10.18-1.75,16.37,0,0-1.39,5.3,3.34,3.72l37.18.68s1.57-3.81.41-5.57"/><path class="cls-25" d="M223.67,519.26s13.81,3.22,15.88,6.12c0,0,3.22,4.46,3,8.72l.21.62H209a36.89,36.89,0,0,1,1.35-16.47Z"/><path class="cls-22" d="M233.73,517.6a36.55,36.55,0,0,0-1.51-7s-18.52,1.42-22.57-.16l.71,7.82s19.11.9,23.37-.66"/><rect class="cls-22" x="209.01" y="534.48" width="41.69" height="2.93"/><rect class="cls-23" x="209.01" y="534.41" width="23.04" height="3"/><path class="cls-22" d="M237,518.71s-6.76,1.8-8.56,4.06l3.15,2.7s6.48-4.05,9.67-4.51c0,0-2-2.71-4.26-2.26"/><path class="cls-23" d="M221.17,518.54s-1.45-5.71-.83-7.37a55.5,55.5,0,0,1-10.69-.73l.71,7.82s7.38.8,10.81.28"/><path class="cls-23" d="M204.09,486.35s24.69-9,27.31-31l-.69,41.31s-17.58,4.07-23.88-.14Z"/></g></g></svg>