<?xml version="1.0" encoding="UTF-8"?>
<svg id="Capa_1" data-name="Capa 1" xmlns="http://www.w3.org/2000/svg" xmlns:xlink="http://www.w3.org/1999/xlink" viewBox="0 0 245 350">
  <defs>
    <style>
      .cls-1 {
        fill: #421c0d;
      }

      .cls-1, .cls-2, .cls-3, .cls-4, .cls-5, .cls-6, .cls-7, .cls-8, .cls-9, .cls-10, .cls-11, .cls-12, .cls-13, .cls-14, .cls-15, .cls-16, .cls-17, .cls-18, .cls-19, .cls-20, .cls-21, .cls-22, .cls-23, .cls-24, .cls-25, .cls-26 {
        stroke-width: 0px;
      }

      .cls-2 {
        fill: url(#Degradado_sin_nombre_12);
      }

      .cls-3 {
        fill: url(#Degradado_sin_nombre_14);
      }

      .cls-4 {
        fill: url(#Degradado_sin_nombre_8);
      }

      .cls-27 {
        stroke: #221813;
        stroke-linecap: round;
        stroke-linejoin: round;
        stroke-width: 4.59px;
      }

      .cls-27, .cls-12, .cls-28 {
        fill: none;
      }

      .cls-5 {
        fill: #6da80f;
      }

      .cls-6 {
        fill: #fdd400;
      }

      .cls-7 {
        fill: url(#Degradado_sin_nombre_13);
      }

      .cls-29 {
        mask: url(#mask-2);
      }

      .cls-30 {
        clip-path: url(#clippath-2);
      }

      .cls-8 {
        fill: #3d0c00;
      }

      .cls-10 {
        fill: #ffe59e;
      }

      .cls-11 {
        fill: #569141;
      }

      .cls-31 {
        clip-path: url(#clippath-6);
      }

      .cls-32 {
        mask: url(#mask-3);
      }

      .cls-33 {
        opacity: .51;
      }

      .cls-34 {
        clip-path: url(#clippath-7);
      }

      .cls-35 {
        clip-path: url(#clippath-1);
      }

      .cls-36 {
        clip-path: url(#clippath-4);
      }

      .cls-28 {
        stroke: #0f0809;
        stroke-miterlimit: 10;
        stroke-width: 3.52px;
      }

      .cls-13 {
        fill: url(#Degradado_sin_nombre_7);
      }

      .cls-14 {
        fill: url(#Degradado_sin_nombre_9);
      }

      .cls-15 {
        fill: #c4a73a;
      }

      .cls-16 {
        fill: #cf6c28;
      }

      .cls-17 {
        fill: url(#Degradado_sin_nombre_11);
      }

      .cls-37 {
        mask: url(#mask-4);
      }

      .cls-38 {
        clip-path: url(#clippath);
      }

      .cls-18 {
        fill: #ffb700;
      }

      .cls-39 {
        clip-path: url(#clippath-3);
      }

      .cls-19 {
        fill: #b05e28;
      }

      .cls-40 {
        mask: url(#mask-1);
      }

      .cls-41 {
        mask: url(#mask);
      }

      .cls-20 {
        fill: #221813;
      }

      .cls-42 {
        clip-path: url(#clippath-5);
      }

      .cls-43 {
        opacity: .27;
      }

      .cls-21 {
        fill: url(#Degradado_sin_nombre_10);
      }

      .cls-22 {
        fill: #050504;
      }

      .cls-23 {
        fill: #0f0809;
      }

      .cls-24 {
        fill: #82461e;
      }

      .cls-25 {
        fill: url(#Degradado_sin_nombre_5);
      }

      .cls-26 {
        fill: url(#Degradado_sin_nombre_6);
      }
    </style>
    <clipPath id="clippath">
      <path class="cls-12" d="m150.47,347.63l13.61.26c7.07-.26-2.36-7.07-2.36-7.07l-.84-4.46c-3.46-.17-8.47-.37-11.87-.37l1.45,11.64Z"/>
    </clipPath>
    <linearGradient id="Degradado_sin_nombre_6" data-name="Degradado sin nombre 6" x1="-2740.25" y1="1990.61" x2="-2739.73" y2="1990.61" gradientTransform="translate(79120.23 109027.13) rotate(90) scale(39.67)" gradientUnits="userSpaceOnUse">
      <stop offset="0" stop-color="#000"/>
      <stop offset=".24" stop-color="#000"/>
      <stop offset=".74" stop-color="#fff"/>
      <stop offset="1" stop-color="#fff"/>
    </linearGradient>
    <mask id="mask" x="148.62" y="335.27" width="22.92" height="13.35" maskUnits="userSpaceOnUse">
      <rect class="cls-26" x="148.82" y="335.63" width="22.52" height="12.62" transform="translate(-11.1 5.42) rotate(-1.87)"/>
    </mask>
    <linearGradient id="Degradado_sin_nombre_5" data-name="Degradado sin nombre 5" x1="-2740.25" y1="1990.61" x2="-2739.73" y2="1990.61" gradientTransform="translate(79120.23 109027.13) rotate(90) scale(39.67)" gradientUnits="userSpaceOnUse">
      <stop offset="0" stop-color="#82361c"/>
      <stop offset=".24" stop-color="#82361c"/>
      <stop offset=".74" stop-color="#4e361c"/>
      <stop offset="1" stop-color="#4e361c"/>
    </linearGradient>
    <clipPath id="clippath-1">
      <path class="cls-12" d="m150.56,272.29c1.36,2.21,5.59,3.13,5.59,3.13,5.12,1.83,13.74-2.03,13.74-2.03,2.49-3.11-9.57-4.14-9.57-4.14l5.81-7.01c.26-.22.5-.43.73-.64-2.65-.31-8.62-1.18-11.52-3.08-2.34,4.83-5.69,12.3-4.78,13.78"/>
    </clipPath>
    <linearGradient id="Degradado_sin_nombre_8" data-name="Degradado sin nombre 8" x1="-2756.59" y1="2005.66" x2="-2756.07" y2="2005.66" gradientTransform="translate(95808.18 193043.57) rotate(93.27) scale(60.84 53.1) skewX(-8.99)" gradientUnits="userSpaceOnUse">
      <stop offset="0" stop-color="#000"/>
      <stop offset=".24" stop-color="#000"/>
      <stop offset=".7" stop-color="#fff"/>
      <stop offset="1" stop-color="#fff"/>
    </linearGradient>
    <mask id="mask-1" x="148.6" y="253.11" width="24.84" height="29.53" maskUnits="userSpaceOnUse">
      <polygon class="cls-4" points="149.97 253.11 148.6 276.99 172.08 282.65 173.44 258.77 149.97 253.11"/>
    </mask>
    <linearGradient id="Degradado_sin_nombre_7" data-name="Degradado sin nombre 7" x1="-2756.59" y1="2005.66" x2="-2756.07" y2="2005.66" gradientTransform="translate(95808.18 193043.54) rotate(93.27) scale(60.84 53.1) skewX(-8.99)" gradientUnits="userSpaceOnUse">
      <stop offset="0" stop-color="#82361c"/>
      <stop offset=".24" stop-color="#82361c"/>
      <stop offset=".7" stop-color="#4e361c"/>
      <stop offset="1" stop-color="#4e361c"/>
    </linearGradient>
    <clipPath id="clippath-2">
      <rect class="cls-12" x="121.77" y="151.37" width="79.27" height="61.92"/>
    </clipPath>
    <clipPath id="clippath-3">
      <path class="cls-12" d="m198.18,180.02c3.39-4.41,2.83-13.3,2.83-13.3-1.12-9.37-9.64-11.46-9.64-11.46-9.68-3.08-31.67-3.89-51.97-3.9-5.76,5.95-11.79,12.54-17.62,19.1,5.74,3.13,64.79,35.4,73.7,42.83.08-.09.17-.19.26-.28,3.15-12.77,2.45-32.99,2.45-32.99"/>
    </clipPath>
    <linearGradient id="Degradado_sin_nombre_10" data-name="Degradado sin nombre 10" x1="-2745.15" y1="2035.19" x2="-2744.63" y2="2035.19" gradientTransform="translate(320255.29 237505.57) scale(116.61 -116.61)" gradientUnits="userSpaceOnUse">
      <stop offset="0" stop-color="#000"/>
      <stop offset=".22" stop-color="#000"/>
      <stop offset=".88" stop-color="#fff"/>
      <stop offset="1" stop-color="#fff"/>
    </linearGradient>
    <mask id="mask-2" x="91.34" y="112.14" width="140.67" height="140.37" maskUnits="userSpaceOnUse">
      <rect class="cls-21" x="111.2" y="133.01" width="100.95" height="98.63" transform="translate(-79.19 145.4) rotate(-39.72)"/>
    </mask>
    <linearGradient id="Degradado_sin_nombre_9" data-name="Degradado sin nombre 9" x1="-2745.15" y1="2035.19" x2="-2744.63" y2="2035.19" gradientTransform="translate(320255.35 237505.55) scale(116.61 -116.61)" gradientUnits="userSpaceOnUse">
      <stop offset="0" stop-color="#82361c"/>
      <stop offset=".22" stop-color="#82361c"/>
      <stop offset=".88" stop-color="#4e361c"/>
      <stop offset="1" stop-color="#4e361c"/>
    </linearGradient>
    <clipPath id="clippath-4">
      <path class="cls-12" d="m50.48,265.01c.29.14.59.27.91.4l7.85,5.24s-11,5.76-7.59,8.12c0,0,9.43.79,13.61-3.14,0,0,3.67-2.62,4.19-5.5.35-1.92-5.35-8.6-9.19-12.85-2.08,3.15-7.4,6.39-9.79,7.74"/>
    </clipPath>
    <linearGradient id="Degradado_sin_nombre_12" data-name="Degradado sin nombre 12" x1="-2731.27" y1="2082.84" x2="-2730.74" y2="2082.84" gradientTransform="translate(-144067.5 189247.46) rotate(90) scale(69.2 -69.2)" gradientUnits="userSpaceOnUse">
      <stop offset="0" stop-color="#000"/>
      <stop offset=".24" stop-color="#000"/>
      <stop offset=".7" stop-color="#fff"/>
      <stop offset="1" stop-color="#fff"/>
    </linearGradient>
    <mask id="mask-3" x="39.01" y="248.33" width="40.03" height="40.15" maskUnits="userSpaceOnUse">
      <rect class="cls-2" x="44.27" y="253.51" width="29.49" height="29.79" transform="translate(-119.12 59.14) rotate(-28.01)"/>
    </mask>
    <linearGradient id="Degradado_sin_nombre_11" data-name="Degradado sin nombre 11" x1="-2731.27" y1="2082.84" x2="-2730.74" y2="2082.84" gradientTransform="translate(-144067.51 189247.49) rotate(90) scale(69.2 -69.2)" gradientUnits="userSpaceOnUse">
      <stop offset="0" stop-color="#82361c"/>
      <stop offset=".24" stop-color="#82361c"/>
      <stop offset=".7" stop-color="#4e361c"/>
      <stop offset="1" stop-color="#4e361c"/>
    </linearGradient>
    <clipPath id="clippath-5">
      <path class="cls-12" d="m61.39,336.36l-.84,4.46s-9.43,6.81-2.36,7.07l13.61-.26,1.45-11.64c-3.4,0-8.4.21-11.87.37"/>
    </clipPath>
    <linearGradient id="Degradado_sin_nombre_14" data-name="Degradado sin nombre 14" x1="-2744.5" y1="2120.28" x2="-2743.98" y2="2120.28" gradientTransform="translate(-108791.64 -83761.62) rotate(-180) scale(39.67 -39.67)" gradientUnits="userSpaceOnUse">
      <stop offset="0" stop-color="#000"/>
      <stop offset=".24" stop-color="#000"/>
      <stop offset=".74" stop-color="#fff"/>
      <stop offset="1" stop-color="#fff"/>
    </linearGradient>
    <mask id="mask-4" x="50.73" y="335.26" width="22.92" height="13.35" maskUnits="userSpaceOnUse">
      <rect class="cls-3" x="55.88" y="330.68" width="12.62" height="22.52" transform="translate(-281.6 392.86) rotate(-88.12)"/>
    </mask>
    <linearGradient id="Degradado_sin_nombre_13" data-name="Degradado sin nombre 13" x1="-2744.5" y1="2120.28" x2="-2743.98" y2="2120.28" gradientTransform="translate(-108791.64 -83761.62) rotate(-180) scale(39.67 -39.67)" gradientUnits="userSpaceOnUse">
      <stop offset="0" stop-color="#82361c"/>
      <stop offset=".24" stop-color="#82361c"/>
      <stop offset=".74" stop-color="#4e361c"/>
      <stop offset="1" stop-color="#4e361c"/>
    </linearGradient>
    <clipPath id="clippath-6">
      <rect class="cls-12" x="96.33" y="67.43" width="18.2" height="32.67"/>
    </clipPath>
    <clipPath id="clippath-7">
      <rect class="cls-12" x="80.42" y="95.01" width="29.93" height="34.15"/>
    </clipPath>
  </defs>
  <path class="cls-16" d="m158.85,325.63l2.88,15.19s9.43,6.81,2.36,7.07l-13.62-.26-2.88-23.04,11.26,1.05Z"/>
  <path class="cls-24" d="m159.42,328.63s-7.36,1.81-9.05,1.33l1.69,10.87s-2.54.36-2.41,0c.12-.36-1.57-13.04-1.57-13.04l11.11-.24.24,1.09Z"/>
  <g class="cls-38">
    <g class="cls-41">
      <rect class="cls-25" x="148.82" y="335.63" width="22.52" height="12.62" transform="translate(-11.1 5.42) rotate(-1.87)"/>
    </g>
  </g>
  <path class="cls-16" d="m139.48,236.31s3.79-8,8.78-3.43l21.6,19.66s3.13,4.02-3.73,9.69l-5.81,7.01s12.07,1.03,9.57,4.14c0,0-8.63,3.86-13.74,2.03,0,0-4.23-.92-5.59-3.13-1.36-2.21,6.87-17.94,6.87-17.94l-11.36-5.21s-8.31-6.8-6.59-12.82"/>
  <g class="cls-35">
    <g class="cls-40">
      <polygon class="cls-13" points="149.97 253.11 148.6 276.99 172.08 282.65 173.44 258.77 149.97 253.11"/>
    </g>
  </g>
  <g>
    <line class="cls-28" x1="101.75" y1="158.76" x2="101.75" y2="135.02"/>
    <line class="cls-28" x1="111.52" y1="135.02" x2="111.52" y2="158.76"/>
    <path class="cls-16" d="m63.42,325.63l-2.88,15.19s-9.43,6.81-2.36,7.07l13.62-.26,2.88-23.04-11.26,1.05Z"/>
    <path class="cls-24" d="m68.88,323.55l-2.78,14.12s-4.95.36-4.71,0c.24-.36,1.69-11.23,1.69-11.23"/>
    <polyline class="cls-24" points="64.17 331.28 74.07 329.47 74.31 327.17 66.71 327.29"/>
    <path class="cls-16" d="m201.01,166.72c-1.12-9.37-9.64-11.46-9.64-11.46-20.24-6.43-94.28-2.97-94.28-2.97-3.12.51-11.01,1.12-16.84,1.53-2.57-1.49-5.77-3.23-8.05-4.05-4.41-1.58-15.44,4.72-10.08,12.92,0,0,2.46,5.15,10.4,4.84-6.52,9.64-6.94,51.09-7.16,52.88-4.16,33.84-.37,77.15-.37,77.15,40.84,15.26,91.46-5.78,91.46-5.78-4.96-45.34-18.4-67.05-18.4-67.05l16.4,2.11s27.9,1.39,36.45-4.4c8.55-5.79,7.29-42.44,7.29-42.44,3.39-4.41,2.83-13.3,2.83-13.3"/>
    <path class="cls-16" d="m201.01,166.72c-1.12-9.37-9.64-11.46-9.64-11.46-20.24-6.43-94.28-2.97-94.28-2.97-3.12.51-11.01,1.12-16.84,1.53-2.57-1.49-5.77-3.23-8.05-4.05-4.41-1.58-15.44,4.72-10.08,12.92,0,0,2.46,5.15,10.4,4.84-.88,1.31-1.66,3.21-2.33,5.51-1.81,3.1-3.84,7.33-4.2,11.17,0,0,.52.85,1.91.38-.14,1.03-.28,2.07-.41,3.13-2.05,3.89-4.57,9.49-4.57,13.54,0,0,1.9.84,3.37-.47-.01.18-.02.36-.04.54-1.16,2.56-2.65,6.99-1.29,10.83.21.58.43,1.01.66,1.31-.15,3.9-.22,6.53-.27,6.95-4.16,33.84-.37,77.15-.37,77.15,40.84,15.26,91.46-5.78,91.46-5.78-4.96-45.34-18.4-67.05-18.4-67.05l16.4,2.11s27.9,1.39,36.45-4.4c8.55-5.79,7.29-42.44,7.29-42.44,3.39-4.41,2.83-13.3,2.83-13.3"/>
    <path class="cls-19" d="m63.87,246.08l5.24-3.31-.32,38.55s-4.76-.7-4.97-1.99c-.22-1.29.06-33.25.06-33.25"/>
    <path class="cls-19" d="m71.31,182.99c.13-2.48,2.48-8.96,4.92-15.11-1.36-.51-3.04-1.23-4.69-2.19-3.73-2.16-1.2-10.22,1.08-12.98,1.08-1.31.87-2.13.34-2.63-.26-.11-.52-.21-.76-.29-4.41-1.58-15.44,4.72-10.08,12.92,0,0,2.46,5.15,10.4,4.84-.88,1.31-1.66,3.21-2.33,5.51-1.81,3.1-3.84,7.33-4.2,11.17,0,0,.52.85,1.91.38-.14,1.03-.28,2.07-.41,3.13-2.05,3.89-4.57,9.49-4.57,13.54,0,0,1.9.83,3.37-.47-.01.18-.03.36-.04.54-1.16,2.56-2.65,6.99-1.29,10.83.21.58.43,1.01.66,1.31-.15,3.9-.22,6.53-.27,6.95-.09.77-.18,1.54-.27,2.31,1.1.15,2.19.28,3.19.49,3.86.83,3.03-1.93,2.2-4.96-.83-3.03,2.48-23.14,2.48-23.14l-6.34,4.41,8.27-17.08-3.58.55Z"/>
    <g class="cls-33">
      <g class="cls-30">
        <g class="cls-39">
          <g class="cls-29">
            <rect class="cls-14" x="111.2" y="133.01" width="100.95" height="98.63" transform="translate(-79.19 145.4) rotate(-39.72)"/>
          </g>
        </g>
      </g>
    </g>
    <path class="cls-6" d="m63.71,297.08l-2.74,30.59s10.76,2.32,14.34.21l1.27-7.38s66.45.43,69.62,2.11l1.27,5.06s10.55,1.48,12.45-.21c0,0,1.26-31.02-.43-34.82-1.69-3.8-95.77,4.43-95.77,4.43"/>
    <path class="cls-15" d="m60.96,327.67s10.76,2.32,14.35.21l1.27-7.38s3.22.02,8.27.07c-1.26-14.84,18.12-17.46,18.12-17.46l-13.63-8.5c-14.5,1.32-25.63,2.47-25.63,2.47l-2.74,30.59Z"/>
    <path class="cls-5" d="m139.96,228.23c2.69,8.02.65,11.26.65,11.26-3.31,2.53-34.38,4.01-34.38,4.01-5.59-.42-13.67-15.82-13.67-15.82-4.14-10.97-25.89-12.24-25.89-12.24l-.62.21c-1.51,3.84-1.19,9.19-1.19,9.19,0,0,17,2.34,17.51,21.46,0,0,1.28,25.66-5.14,30.9-5.28,4.3-9.32,6.3-13.42,2.14-.06,10.47-1.9,16.91-1.9,16.91l5.18,3.59c40.59,16.25,90.86-1.16,90.86-1.16l2.63-1.06c17.08-33.61-20.61-69.38-20.61-69.38"/>
    <path class="cls-11" d="m89.57,265.41c1.96-15.17-1.75-35.81-3.63-44.77-7.86-4.53-19.27-5.2-19.27-5.2l-.62.21c-1.51,3.84-1.19,9.19-1.19,9.19,0,0,17,2.34,17.51,21.46,0,0,1.28,25.66-5.14,30.9-5.28,4.3-9.32,6.3-13.42,2.14-.06,10.47-1.9,16.91-1.9,16.91l5.18,3.59c8.16,3.26,16.7,5.17,25.15,6.13-2.19-8.38-4.59-25.64-2.66-40.54"/>
    <path class="cls-15" d="m77.23,277.19c-5.28,4.3-9.32,6.3-13.42,2.14,0,1.32-.12,2.36-.13,3.58,8.12,5.65,18.57,1.93,22.14-15.07,3.86-18.33-3.92-36.17-3.92-36.17-2.89-8.16-14.19-10.2-17.02-9.6-.14,1.21-.34,3.02-.34,3.02,0,0,14.63.15,16.17,18.95,0,0,2.95,27.91-3.48,33.15"/>
    <path class="cls-6" d="m143.94,240.66c0-2.65-.39-5.89-1.35-8.23-1.25-2.31-2.28-3.99-2.9-4.99,2.24,7.42.92,12.05.92,12.05-3.31,2.53-34.38,4.01-34.38,4.01-5.59-.42-13.67-15.82-13.67-15.82-6.35-12.82-21.31-11.84-25.14-12.18-1.31-.12-1.54.25-1.86.39-.23.63-.26,1.36-.27,2.17-.03.4-.16.79-.24,1.11,4.17-.22,15.15-1.46,21.23,6.19,0,0,6.33,8.86,6.96,11.6.63,2.74,6.54,10.34,12.23,10.13,0,0,31.22-.42,35.02-2.53,0,0,3.44-.32,3.44-3.9"/>
    <path class="cls-16" d="m56.88,253.63l8.9-9.95s5.5-10.47,1.83-16.23c0,0-6.28-7.07-9.43-.26l-.26.57c-3.07,2.82-8.27,8.17-8.99,12.69,0,0,.68,1.36,2.39,0,0,0-4.43,4.09-5.11,8.52,0,0,.48.47,1.75.24l-3.39,7.31s-1.57,5.5,6.81,8.9l7.85,5.24s-11,5.76-7.59,8.12c0,0,9.43.79,13.62-3.14,0,0,3.67-2.62,4.19-5.5.52-2.88-12.57-16.5-12.57-16.5"/>
    <path class="cls-23" d="m117.11,77.94c0,2.22-1.09,4.01-2.44,4.01s-2.44-1.8-2.44-4.01c0-2.22,1.09-4.01,2.44-4.01s2.44,1.8,2.44,4.01"/>
    <path class="cls-20" d="m90.01,173.11s-4.86-3.15-1.7-6.4c0,0,5.63-3.79,12.17-.35,0,0,10.12,8.14-10.47,6.76"/>
    <path class="cls-1" d="m63.7,158.59s-1.26-4.41,4.41-5.36c0,0,3.47-.94,6.3,3.47,0,0-4.73,2.83-3.47,5.67,1.26,2.84-8.19,3.15-7.25-3.78"/>
    <path class="cls-8" d="m190.4,174.15s1.98-.9,1.7-1.36c-1.55-2.59-6.24-8.61-12.61-5.28,0,0-2.66,2.95,0,5.15.2.16.42.32.68.47,0,0,2.04,2.56,5.28,1.36,0,0,1.53-2.9,3.92-.68"/>
    <path class="cls-27" d="m85.08,164.77s2.39-7.5,10.91-6.82"/>
  </g>
  <g class="cls-36">
    <g class="cls-32">
      <rect class="cls-17" x="44.27" y="253.51" width="29.49" height="29.79" transform="translate(-119.12 59.14) rotate(-28.01)"/>
    </g>
  </g>
  <g class="cls-42">
    <g class="cls-37">
      <rect class="cls-7" x="55.88" y="330.68" width="12.62" height="22.52" transform="translate(-281.6 392.86) rotate(-88.12)"/>
    </g>
  </g>
  <path class="cls-16" d="m146.77,231.93c1.02.34,5.79,1.7,8.86,4.77l-3.41,1.02s7.16,2.39,9.54,4.77c0,0-2.04,1.02-6.48,0"/>
  <path class="cls-18" d="m96.33,98.99s4.09-4.43,2.73-12.27c-1.36-7.84,3.3-18.06,11.59-19.09,0,0,12.95-1.7,15.68,4.77,0,0,5.11,7.5.34,12.95,0,0-5.79,4.09-4.43,6.48,1.36,2.39,3.72,3.35,6.02,8.7,4.45,10.35-4.55,38.3-30.23,37.31,0,0-9.88,1.02-13.29-2.73-3.41-3.75-44.16.69-39.2-1.71,10.67-5.15,37.07-8.22,38.81-10.25,0,0,3.12-13.61,11.98-24.17"/>
  <path class="cls-10" d="m122.23,91.84c-1.36-2.39,4.43-6.48,4.43-6.48,4.77-5.45-.34-12.95-.34-12.95-2.73-6.48-15.68-4.77-15.68-4.77-8.75,1.54-12.95,11.25-11.59,19.09,1.36,7.84-2.73,12.27-2.73,12.27,0,0,9.4-9.06,13.03-4.06,3.64,5,3.89,10.81,13.78,12.7,2.26.43,3.92.09,5.17-1.14.91-2.04,1.41-2.56-.05-5.96-2.3-5.35-4.66-6.32-6.02-8.7"/>
  <g class="cls-43">
    <g class="cls-31">
      <path class="cls-9" d="m114.53,67.43c-2.24-.01-3.88.2-3.88.2-8.75,1.54-12.95,11.25-11.59,19.09,1.36,7.84-2.73,12.27-2.73,12.27,0,0,8.18,4.78,9.08-5.47.01-3.49-.71-7.73-1.47-12.13-1.31-7.57,7.07-12.31,10.59-13.95"/>
    </g>
  </g>
  <path class="cls-5" d="m98.15,95.02s11.39,2.24,14.73,12.1c.43,1.27,1.27,2.36,2.41,3.07,4.03,2.5,13.1,6.83,14.33-4.08l-.23.57s1.42,20-20.34,30.16c0,0-15.68,3.41-28.63-14.77,0,0,6.71-4.43,9.32-12.27,1.82-5.45,3.29-6,4.09-8.41,1.36-4.09,1.82-3.41,4.32-6.36"/>
  <path class="cls-6" d="m105.23,109.11c0,4.78-3.77,8.65-8.43,8.65s-8.43-3.87-8.43-8.65c0-4.78,3.77-8.65,8.43-8.65s8.43,3.87,8.43,8.65"/>
  <path class="cls-6" d="m129.39,106.67s.02.27.02.76c.08-.42.15-.85.21-1.33l-.23.57Z"/>
  <path class="cls-22" d="m136.35,82.11c-3.06-.24-6.78-1.94-6.78-1.94l-.92-.36c-.84-.32-1.11-.98-2.4-.84-.64.07-2.47,1.87-3.81,3.32-1.34,1.45-5.36-.97-5.36-.97-1.26.48-.25,1.64-.25,1.64,1.84,2.61,6.62,1.93,6.62,1.93l.03-.02s10.45-.8,12.44-1.15c.99-.17,1.22-.58,1.19-.93-.03-.39-.38-.67-.77-.7"/>
  <path class="cls-22" d="m91.1,103.88s-19.77,17.72-26.36,20.22c0,0-3.64,2.73,5.23,1.36,8.86-1.36,17.5.46,26.81-6.36,9.32-6.82,6.36-22.5-5.68-15.23"/>
  <path class="cls-22" d="m118.78,79.47h0c-.79.2-1.59-.29-1.79-1.07l-.77-3.09c-.2-.79.29-1.59,1.07-1.79.79-.2,1.59.29,1.79,1.07l.77,3.09c.2.79-.29,1.59-1.07,1.79"/>
  <path class="cls-6" d="m112.8,106.88c-3.44-9.67-14.65-11.87-14.65-11.87-1.2,1.42-1.93,2-2.52,2.68l.02.28c.68.23,4.54-2.04,10.23,3.18,5.99,5.51,3.41,8.64,8.41,10.91,0,0,6.13,5,12.04,2.73h.02c1.38-.54,2.18-1.8,2.73-3.18,1.4-3.52.26-5.91.26-5.91v.11c-1.2,10.66-9.6,6.87-13.76,4.48-1.31-.76-2.27-1.98-2.78-3.41"/>
  <path class="cls-22" d="m84.36,134.8c.06-.02.12-.05.17-.08-3.47-2.82-3.93-7.3-3.8-10.22-7.95,1.99-26.64,4.79-35.2,8.92-4.96,2.39,3.05,1.39,5.79,3.41,1.28.94,4.09-.17,4.09-.17,0,0,24.37-4.91,28.94-1.85"/>
  <path class="cls-27" d="m171.33,210.82s1.93,7.44,9.09,3.31"/>
  <path class="cls-6" d="m133.59,256.91s-12.03,6.26-8.94,13.04c0,0,2.41,6.52,8.94,9.91l7.22,3.91s7.91-6.52,8.25-13.57c0,0,.34-13.83-15.47-13.31"/>
  <path class="cls-6" d="m133.66,259s-.91-4.7-2.72-6.26c0,0,2.42-1.04,3.32-.52.91.52,1.81,5.22,1.51,6-.3.78-2.11.78-2.11.78"/>
  <path class="cls-11" d="m140.81,283.78c1.54-8.65-5.73-26.09-5.73-26.09,0,0,.95-.47,1.21.12,0,0,6.48,17.13,4.99,25.88"/>
  <polygon class="cls-11" points="136.84 261.19 129.42 269.82 137.38 262.36 136.84 261.19"/>
  <polygon class="cls-11" points="139.05 268.42 132.25 274.71 139.54 269.27 139.05 268.42"/>
  <polygon class="cls-11" points="138.06 263.99 146.29 268.19 138.19 265.04 138.06 263.99"/>
  <polygon class="cls-11" points="140.08 270.98 145.07 273.43 140.16 271.6 140.08 270.98"/>
  <path class="cls-19" d="m47.89,260.96c-2.48-3.31,4.41-14.33,4.41-14.33l-1.93.83s.83,1.1-1.1.28c-1.93-.83,6.34-9.37,6.34-9.37h-2.75c.51-3.03,10.19-11.87,11.79-13.32-2.06-1.16-4.72-1.6-6.44,2.13l-.27.57c-3.07,2.82-8.27,8.17-8.99,12.69,0,0,.68,1.36,2.39,0,0,0-4.43,4.09-5.11,8.52,0,0,.48.47,1.75.24l-3.39,7.31s-1.36,4.78,5.24,8.18c-.14-.83-.68-2.07-1.93-3.73"/>
  <g class="cls-43">
    <g class="cls-34">
      <path class="cls-9" d="m109.47,101.39s-.01-.01-.02-.02c-3.39-3.69-7.87-5.38-10.03-6.03,0,0-.02,0-.03,0-.09-.03-.18-.05-.26-.08h0c-.24-.07-.44-.12-.6-.16-.02,0-.04-.01-.06-.02-.03,0-.06-.01-.09-.02-.02,0-.05-.01-.07-.02-.02,0-.04,0-.06-.01-.02,0-.05,0-.06-.01,0,0,0,0-.01,0-.02,0-.03,0-.03,0h0c-2.41,2.85-2.92,2.33-4.18,5.97-2.3.85-4.14,2.69-5.02,5.02.89.9,1.36,2.08.79,3.79-.26.77-.55,1.5-.88,2.2,0,0,0,.01,0,.02-.28.6-.57,1.17-.88,1.71,0,0,0,0,0,.01-.09.16-.18.31-.28.47-.02.03-.04.07-.06.1-.09.14-.18.28-.26.42-.03.04-.05.08-.08.12-.09.14-.18.27-.26.4-.03.04-.06.08-.08.12-.09.13-.18.26-.27.39-.03.04-.06.08-.08.12-.09.13-.19.26-.28.38-.02.03-.05.06-.07.09-.1.13-.2.26-.3.39-.01.01-.02.03-.03.04-.58.73-1.16,1.4-1.71,1.98,0,0,0,0,0,0-.1.11-.2.21-.3.31-.02.02-.03.03-.05.05-.09.09-.19.19-.28.28-.02.02-.04.04-.07.07-.09.09-.18.17-.26.25-.02.02-.04.04-.07.06-.09.08-.17.16-.25.24-.02.02-.04.04-.06.06-.08.08-.17.15-.25.23-.01.01-.02.02-.04.03-.46.41-.87.75-1.21,1.02-.02.01-.03.03-.05.04-.05.04-.1.07-.14.11-.02.02-.05.04-.07.05-.04.03-.08.06-.12.09-.02.02-.04.03-.06.05-.04.03-.07.05-.1.08-.02.01-.04.03-.06.04-.03.02-.05.04-.08.06-.02.01-.04.03-.05.04-.02.01-.04.03-.06.04-.02.01-.04.03-.05.04,0,0-.02.01-.03.02-.04.03-.07.05-.07.05.23.33.47.65.71.96.07.09.14.19.21.28.17.22.34.44.51.66.08.1.15.19.23.29.18.23.37.45.55.67.06.07.11.13.17.2.25.29.49.58.74.85,0,0,.02.02.03.03.24.26.47.52.71.77.05.06.11.11.16.17.2.21.4.42.6.62.05.05.1.1.15.16.24.24.48.47.72.7,0,0,0,0,.02.01.26.25.53.49.79.73,3.57-.55,23.54-4.62,23.65-26.72-.29-.37-.58-.72-.89-1.05"/>
    </g>
  </g>
  <path class="cls-5" d="m52.37,346.47s0-4.6,4.6-5.83l4.29-2.15s8.89.61,11.65,0c0,0,1.53,5.34.92,8.59,0,0,.73,2.78-1.75,1.95l-19.5.35s-.83-2-.21-2.92"/>
  <path class="cls-11" d="m58.85,348.33c-.12-5.79,8.27-8.98,8.27-8.98l-.69-.61c-2.72-.07-5.17-.24-5.17-.24l-4.29,2.15c-4.6,1.23-4.6,5.83-4.6,5.83-.61.92.21,2.92.21,2.92l6.25-.11c.02-.3.02-.61.01-.95"/>
  <path class="cls-6" d="m60.74,338.99s.24-3.07.95-3.78c0,0,9.69.59,11.82-.24l-.35,4.25s-10.35,1.04-12.41-.24"/>
  <rect class="cls-6" x="51.99" y="347.74" width="21.87" height="1.54"/>
  <rect class="cls-15" x="51.99" y="347.74" width="7.77" height="1.54"/>
  <path class="cls-6" d="m59.2,339.47s3.55.95,4.49,2.13l-1.65,1.42s-3.4-2.13-5.07-2.36c0,0,1.05-1.42,2.23-1.18"/>
  <path class="cls-15" d="m60.74,338.99c.8.5,2.87.65,5.09.64-.17-.98-.07-2.9.05-4.25-2.3-.06-4.19-.17-4.19-.17-.71.71-.95,3.78-.95,3.78"/>
  <path class="cls-5" d="m170.11,346.48s0-4.6-4.6-5.83l-4.29-2.15s-8.89.61-11.65,0c0,0-1.53,5.34-.92,8.59,0,0-.73,2.78,1.75,1.95l19.5.36s.83-2,.21-2.92"/>
  <path class="cls-11" d="m156.3,339.76s7.24,1.69,8.33,3.21c0,0,1.69,2.34,1.58,4.57l.11.33h-17.7s-.77-4,.71-8.64l6.98.53Z"/>
  <path class="cls-6" d="m161.58,338.89s-.27-2.34-.79-3.67c0,0-9.71.75-11.84-.08l.37,4.1s10.02.47,12.26-.34"/>
  <rect class="cls-6" x="148.62" y="347.74" width="21.87" height="1.54"/>
  <rect class="cls-15" x="148.62" y="347.71" width="12.08" height="1.57"/>
  <path class="cls-6" d="m163.27,339.47s-3.55.95-4.49,2.13l1.65,1.42s3.4-2.13,5.07-2.36c0,0-1.05-1.42-2.23-1.18"/>
  <path class="cls-15" d="m155,339.38s-.76-2.99-.44-3.87c0,0-3.16.11-5.61-.38l.37,4.1s3.87.42,5.67.15"/>
  <path class="cls-15" d="m146.04,322.5s12.95-4.7,14.33-16.27l-.36,21.67s-9.22,2.13-12.52-.07l-1.44-5.33Z"/>
</svg>