<svg xmlns="http://www.w3.org/2000/svg" xmlns:xlink="http://www.w3.org/1999/xlink" viewBox="0 0 303.77 522"><defs><style>.cls-1{fill:url(#Degradado_sin_nombre_4);}.cls-2{fill:url(#Degradado_sin_nombre_4-2);}.cls-3,.cls-36,.cls-38{fill:none;}.cls-4{fill:#611717;}.cls-5{fill:#ffd005;}.cls-6{opacity:0.18;}.cls-7{clip-path:url(#clip-path);}.cls-8{fill:#32160e;}.cls-9{clip-path:url(#clip-path-2);}.cls-10{fill:#482c76;}.cls-11{fill:#bc2e2c;}.cls-12{fill:#ed3532;}.cls-13{clip-path:url(#clip-path-3);}.cls-14{clip-path:url(#clip-path-4);}.cls-15{fill:#e73737;}.cls-16{clip-path:url(#clip-path-5);}.cls-17{opacity:0.33;}.cls-18{clip-path:url(#clip-path-6);}.cls-19{fill:#e7be36;}.cls-20{fill:#c8bf2e;}.cls-21{fill:#fff;}.cls-22{opacity:0.5;}.cls-23{clip-path:url(#clip-path-7);}.cls-24{clip-path:url(#clip-path-8);}.cls-25{mask:url(#mask);}.cls-26{fill:url(#Degradado_sin_nombre_3);}.cls-27{clip-path:url(#clip-path-9);}.cls-28{clip-path:url(#clip-path-10);}.cls-29{mask:url(#mask-2);}.cls-30{fill:url(#Degradado_sin_nombre_3-2);}.cls-31{clip-path:url(#clip-path-11);}.cls-32{clip-path:url(#clip-path-12);}.cls-33{fill:#1a1129;}.cls-34{fill:#a39393;}.cls-35{fill:#bdacac;}.cls-36{stroke:#482c76;stroke-width:0.67px;}.cls-36,.cls-38{stroke-miterlimit:10;}.cls-37{clip-path:url(#clip-path-13);}.cls-38{stroke:#fff;stroke-width:1.04px;}.cls-39{fill:#00adee;}</style><radialGradient id="Degradado_sin_nombre_4" cx="-1350.02" cy="3608.08" r="1" gradientTransform="matrix(24.21, 0, 0, -10.32, 32793.98, 37367.84)" gradientUnits="userSpaceOnUse"><stop offset="0" stop-color="#fff"/><stop offset="0.48" stop-color="#fff"/><stop offset="0.92"/><stop offset="1"/></radialGradient><radialGradient id="Degradado_sin_nombre_4-2" cx="-1350.02" cy="3608.08" r="1" gradientTransform="matrix(24.21, 0, 0, -10.32, 32884.31, 37360.55)" xlink:href="#Degradado_sin_nombre_4"/><clipPath id="clip-path"><rect class="cls-3" x="213.4" y="464.98" width="11.97" height="23.48"/></clipPath><clipPath id="clip-path-2"><rect class="cls-3" x="95.08" y="465.21" width="19.47" height="23.01"/></clipPath><clipPath id="clip-path-3"><rect class="cls-3" x="83.55" y="466.64" width="12.1" height="17.64"/></clipPath><clipPath id="clip-path-4"><rect class="cls-3" x="49.7" y="477.79" width="42.32" height="40.99"/></clipPath><clipPath id="clip-path-5"><rect class="cls-3" x="218.19" y="485.03" width="54.44" height="35.59"/></clipPath><clipPath id="clip-path-6"><rect class="cls-3" x="87.45" y="394.25" width="66.94" height="59.24"/></clipPath><clipPath id="clip-path-7"><rect class="cls-3" x="89.79" y="123.64" width="49.22" height="20.84"/></clipPath><clipPath id="clip-path-8"><path class="cls-3" d="M139,134.06c0,5.76-11,10.42-24.61,10.42s-24.61-4.67-24.61-10.42,11-10.42,24.61-10.42S139,128.3,139,134.06"/></clipPath><mask id="mask" x="89.79" y="123.64" width="49.22" height="20.85" maskUnits="userSpaceOnUse"><rect class="cls-1" x="89.79" y="123.64" width="49.22" height="20.85"/></mask><radialGradient id="Degradado_sin_nombre_3" cx="-1350.02" cy="3608.08" r="1" gradientTransform="matrix(24.21, 0, 0, -10.32, 32793.98, 37367.84)" gradientUnits="userSpaceOnUse"><stop offset="0" stop-color="#ffd1ad"/><stop offset="0.48" stop-color="#ffd1ad"/><stop offset="0.92" stop-color="#ffbba8"/><stop offset="1" stop-color="#ffbba8"/></radialGradient><clipPath id="clip-path-9"><rect class="cls-3" x="180.12" y="116.35" width="49.22" height="20.84"/></clipPath><clipPath id="clip-path-10"><path class="cls-3" d="M229.34,126.77c0,5.76-11,10.42-24.61,10.42s-24.61-4.67-24.61-10.42,11-10.42,24.61-10.42,24.61,4.67,24.61,10.42"/></clipPath><mask id="mask-2" x="180.12" y="116.35" width="49.22" height="20.85" maskUnits="userSpaceOnUse"><rect class="cls-2" x="180.12" y="116.35" width="49.22" height="20.85"/></mask><radialGradient id="Degradado_sin_nombre_3-2" cx="-1350.02" cy="3608.08" r="1" gradientTransform="matrix(24.21, 0, 0, -10.32, 32884.31, 37360.56)" xlink:href="#Degradado_sin_nombre_3"/><clipPath id="clip-path-11"><rect class="cls-3" x="50.92" y="14.58" width="84.46" height="257.33"/></clipPath><clipPath id="clip-path-12"><rect class="cls-3" x="79.32" y="240.97" width="58.11" height="171.62"/></clipPath><clipPath id="clip-path-13"><rect class="cls-3" x="11.01" y="241.2" width="89.36" height="89.96"/></clipPath></defs><title>Recurso 4</title><g id="Capa_2" data-name="Capa 2"><g id="Capa_1-2" data-name="Capa 1"><path class="cls-4" d="M134,456c-.1,2.5-10.59,4.11-23.43,3.6s-23.17-3-23.07-5.45,10.59-4.11,23.43-3.6,23.17,3,23.07,5.45"/><path class="cls-4" d="M248,457.83c-.12,3.08-7.92,5.27-17.42,4.89s-17.1-3.18-17-6.26,7.92-5.27,17.42-4.89,17.1,3.18,17,6.26"/><path class="cls-5" d="M221.78,465s-10.49,1-8,8.5,10.49,15,10.49,15,8-5.5,8.49-7.49.5-8.49.5-8.49"/><g class="cls-6"><g class="cls-7"><path class="cls-8" d="M224.28,488.46s-8-7.49-10.49-15,8-8.49,8-8.49-4.49,3.95-3.63,6.53,7.22,12.43,7.22,12.43"/></g></g><path class="cls-5" d="M108.58,465.56s10.28,1,7.83,8.32-10.28,14.69-10.28,14.69-7.83-5.39-8.32-7.34-.49-8.32-.49-8.32"/><g class="cls-6"><g class="cls-9"><path class="cls-8" d="M106.34,465.21s10.28,1,7.83,8.32-10.28,14.69-10.28,14.69-7.83-5.39-8.32-7.34-.49-8.32-.49-8.32"/></g></g><path class="cls-10" d="M104.4,426,90.24,473.16l11.81,9.44L123.8,426s-14.68-6.82-19.4,0"/><path class="cls-10" d="M240.79,431.92l-1.43,56.5-14-4.48-3.58-50.7s16.58-9.25,19-1.32"/><path class="cls-11" d="M107.55,461.62h-7.34a9.44,9.44,0,1,1,0-18.88h7.34a9.44,9.44,0,1,1,0,18.88"/><path class="cls-12" d="M105.7,460H102a7.12,7.12,0,0,1-7.1-7.09v-1.48a7.12,7.12,0,0,1,7.1-7.09h3.66a7.12,7.12,0,0,1,7.09,7.09V453A7.12,7.12,0,0,1,105.7,460"/><path class="cls-11" d="M237,462.67h-7.34a9.44,9.44,0,1,1,0-18.88H237a9.44,9.44,0,0,1,0,18.88"/><path class="cls-12" d="M238.87,461.62h-3.66a7.12,7.12,0,0,1-7.1-7.09V453a7.12,7.12,0,0,1,7.1-7.09h3.66A7.12,7.12,0,0,1,246,453v1.48a7.12,7.12,0,0,1-7.09,7.09"/><path class="cls-5" d="M83.79,471.12a3.78,3.78,0,0,1,2.81-3c4.44-1.08,15-3.18,17.91.52a7.14,7.14,0,0,1,.67,6.55,56.43,56.43,0,0,1-3,6.79,3.76,3.76,0,0,1-4.25,2c-4-1-10.91-2.52-11-1.46-.47,6.13-4.4-4.66-3.18-11.35"/><g class="cls-6"><g class="cls-13"><path class="cls-8" d="M92.37,482.68c1-2.68,2.12-6.18,2.82-9.13a15.2,15.2,0,0,0,.13-6.91,58,58,0,0,0-8.72,1.47,3.78,3.78,0,0,0-2.82,3c-1.21,6.69,2.71,17.48,3.18,11.34,0-.63,2.54-.34,5.4.22"/></g></g><path class="cls-5" d="M86.06,477.79S74.8,490,68.44,490.52s-26.93,8.81-15.18,25c0,0,15.18,7.34,28.39,3.43l8.81-2L112,502.27s1-16.65-3.43-23"/><g class="cls-6"><g class="cls-14"><path class="cls-8" d="M75.3,495.44l14.94-5.51L92,478.18l-6-.39S74.8,490,68.44,490.52s-26.93,8.81-15.18,25A52.62,52.62,0,0,0,63,518.78c-.8-6.92-1-22.13,12.33-23.34"/></g></g><path class="cls-5" d="M247.75,468.62s-16.52-4.83-20.31,0a7.29,7.29,0,0,0-.69,6.69,73.41,73.41,0,0,0,4.48,9.66s14-3.76,14.11-2.23c.55,7.13,5.66-8.13,2.41-14.11"/><path class="cls-5" d="M244.77,477.47s11.49,12.49,18,13,27.48,9,15.49,25.48c0,0-15.49,7.49-29,3.5l-9-2-22-15s-1-17,3.5-23.48"/><path class="cls-15" d="M75.64,482.94a17.5,17.5,0,0,1,19.95,6.23,51.1,51.1,0,0,1-3.19,7c-1.28,1.92-11.48-5.74-21.69-6.38,0,0-1.45-6.86,4.93-6.86"/><path class="cls-15" d="M258.11,484.77s-6.61-2.07-13.09,5c0,0,2.71,4.53,4,6.48s8.14-3.51,18.56-4.16c0,0-3-7.31-9.49-7.31"/><path class="cls-15" d="M51.51,512.68a47.47,47.47,0,0,0,38.34.56s19.64-11.78,22.07-15.34c0,0,1.5,3.74.75,5s-16.09,14.59-22.82,15.34-19.64,7.29-35-1.12c0,0-4.11-1.5-3.37-4.49"/><path class="cls-15" d="M281.27,512.72a48.29,48.29,0,0,1-39.79.6S221.09,500.81,218.57,497c0,0-1.55,4-.78,5.36s16.69,15.48,23.68,16.28,20.38,7.74,36.3-1.19c0,0,4.27-1.59,3.49-4.76"/><g class="cls-6"><g class="cls-16"><path class="cls-8" d="M255.14,504.09c-7.87,0-14.16-4.72-21.24-14.16-3.89-5.19-9.93-5.38-14.57-4.51-1.6,7.51-1,17-1,17l22,15,9,2c8.43,2.5,17.64.51,23.37-1.34-.26-8.39-10.85-14-17.49-14"/></g></g><path class="cls-15" d="M106.5,406,87.41,453.41s35.34-3.9,46.35,2.39c0,0,2.62-20.45,13.63-23.07,0,0,54.52-5.24,62.39.52s3.15,24.31,3.15,24.31,5.77-3.4,18.35-2.62,17,2.1,17,2.1S244.26,414.5,235.87,403s-113.12-11.66-129.37,3"/><g class="cls-17"><g class="cls-18"><path class="cls-8" d="M87.45,453.49s14.88-.4,25.12-.73c5.09-10.77,19.83-39.71,35.09-48.61,5.74-3.35,7.25-6.77,6.59-9.91-20.79,1.41-40.64,5.32-47.75,11.74Z"/></g></g><path class="cls-10" d="M255.4,376a49.33,49.33,0,0,0-11.2-13,13.52,13.52,0,0,1-3.19,3.48l-24.15.44s-3.81,9.16-2.32,13.4c0,0,5.89,11.26,11.62,14a72.42,72.42,0,0,0,12.3,4.32l17.08-14,2.63-4.53c-.94-1.28-1.87-2.65-2.78-4.14"/><path class="cls-19" d="M265.48,336.25c0-11.46,7.61-20.75,17-20.75s17,9.29,17,20.75-7.61,20.75-17,20.75-17-9.29-17-20.75"/><path class="cls-5" d="M274.46,336.25c0-9.88,6.56-17.89,14.66-17.89s14.65,8,14.65,17.89-6.56,17.89-14.65,17.89-14.66-8-14.66-17.89"/><path class="cls-10" d="M240.84,305.93l25.71,29.77s-25,28.42-35.86,29.77l-23-11.5s-8.12,6.77-8.8,11.5c0,0,0,13.53,4.06,18.94a77,77,0,0,0,9.47,10.15l23-4.73,12.85-8.12s42.62-32.47,52.09-51.42c0,0-11.5-21.65-23.68-33.83s-35.86,9.47-35.86,9.47"/><path class="cls-15" d="M234.49,241s7.05-4.7,12.54,3.92c0,0,14.11,30.56,25.08,36s7.05,10.19,2.35,18S248.6,301.31,240,313.85s-19.59-19.59-22.73-26.64-3.13-25.08-3.13-25.08"/><path class="cls-20" d="M284.37,352.49l-25.27-9.92s3.07-12.18-.45-15.79l38.8-3.61s14.89,23.91-13.08,29.32"/><path class="cls-15" d="M252.38,352.89s14.56,12.9,17.23,21.77a5.13,5.13,0,0,1-1.5,5.26L265.82,382a6.65,6.65,0,0,1-9.74-.85c-6.15-7.95-16.94-21.13-19.59-19.34-1.25.85,8.36-16.26,15.88-8.93"/><path class="cls-10" d="M80.62,244.53c-2.06-1.93-5.36-38.06-21.1-69.57S47.87,73.74,86.72,36.8c0,0,15.45-18.86,35.73-20.88,0,0,18.17-7.32,11.46,12.25L120.09,47.65S156,4.71,187.1.82c0,0,16.85-4.83,21.36,8.9,0,0,4.21,10.61-3.91,16.14,0,0-37.28,13.16-41.42,19.08S165,40,165,40s40.56-19.79,64.57-8c0,0,20.43,7.42,7.24,25.27s-33.14-.64-48,8.71-4.52,2-4.52,2,36.57,3.45,47,37.06c0,0,14.72,45-.3,131.55l-4.14,13.8s-72.47,63.13-146.28-5.92"/><path class="cls-21" d="M79.65,201.23c-.79-1.3-40.59-77.13,40.59-115.69,0,0,61.4-24.86,92.35,3.55,0,0,16.24,12.18,18.77,47.7,0,0,2.55,20.67,1.42,34.24-1,12.18-6,26.14-7.51,43.39-.75,8.47-3,15.73-9.64,19.28s-58.35,30.45-120.26,5.58a17.12,17.12,0,0,1-9.64-15.73s-.51-13.19-6.09-22.33"/><g class="cls-22"><g class="cls-23"><g class="cls-24"><g class="cls-25"><rect class="cls-26" x="89.79" y="123.64" width="49.22" height="20.85"/></g></g></g></g><g class="cls-22"><g class="cls-27"><g class="cls-28"><g class="cls-29"><rect class="cls-30" x="180.12" y="116.35" width="49.22" height="20.85"/></g></g></g></g><path class="cls-10" d="M86,227.41s-3.49-13.26,9.85-8.92-3.1-8.77-4-9.23-6.52-2.17-6.52-2.17l-4.11.39-1.16,1.24s-.15,1.09-.23,1.55"/><path class="cls-10" d="M69.41,170s4.22,21.12,23.75,29.56-4,2.64-7.39,2.11-10.56-4.49-10.56-4.49l-4.75-9.5-2.9-8.18"/><path class="cls-8" d="M146.18,140.94s.73,17.42,22.24,18.48c0,0,31.48.53,35.06-9.5"/><g class="cls-6"><g class="cls-31"><path class="cls-8" d="M124.92,271.91c-1-20.94-10.67-36.95-16.34-45.81C76.1,175.35,74.07,137.81,91.32,97.21,102,72.12,120.72,45,134.59,25.91c4.56-16.71-12.14-10-12.14-10-20.28,2-35.72,20.88-35.72,20.88C47.87,73.74,43.78,143.45,59.52,175s19,67.64,21.1,69.57c15,14.05,30,22.63,44.3,27.38"/></g></g><path class="cls-10" d="M106.54,91.63s58.86-31.46,55.81,47.7c0,0,15.73,2.54,19.79-2S151.7,82,195.34,78.95c0,0-39.58-28.42-88.8,12.68"/><path class="cls-5" d="M79.32,241S109.1,366.36,99.7,412.6c0,0,111.28-14.89,142.63-1.57,0,0,21.16-139.49-11.76-178.68,0,0-58,49.37-151.25,8.62"/><g class="cls-6"><g class="cls-32"><path class="cls-8" d="M123.72,409.83c2.73-10,5.8-23.29,10.22-39.63,8.12-30,0-91.28-3.57-114.55a190.74,190.74,0,0,1-51-14.68S109.1,366.36,99.7,412.59c0,0,9.63-1.29,24-2.77"/></g></g><path class="cls-15" d="M79.84,243.7s-44,43-58.53,52.2-11.24,14.52-4.84,18.21c5.6,3.23,32.65,10.24,33.21,23.14A7.66,7.66,0,0,0,52,341.84c1.63,1.82,1,7,8.64.47s24.05-29.09,37.22-33.49,7.43-55.16-16.54-67.63"/><path class="cls-33" d="M27.26,302.23s21.13.13,31.24,28c0,0,.18,4.89-4.15,1.93s-36.41-29.6-27.09-29.93"/><path class="cls-34" d="M82.28,170.49s20-18.88,32.54-24.22a3.23,3.23,0,0,1,3,0,10.63,10.63,0,0,1,4.3,5.32c.41,1.24-.49,3-2,4.16-6.1,4.55-21.88,16.42-28.5,22.53-1.53,1.41-3.57,1.93-4.76,1.2-2.93-1.8-7.25-5.28-4.53-9"/><path class="cls-34" d="M94.53,141.92S114,161.5,118.39,174.75a3.62,3.62,0,0,1-.46,3.36,18.27,18.27,0,0,1-7,5.66,4,4,0,0,1-4.64-1.66c-4.48-6.16-16.2-22-22.47-28.55a4.1,4.1,0,0,1-.69-5.16c2.6-3.57,7.43-9,11.42-6.48"/><path class="cls-35" d="M102.4,150.53s-10.63,8.37-12.17,11.31l10.52,12.42s12.13-6.63,12.41-8.29-8.5-15.16-10.76-15.44"/><path class="cls-36" d="M102.4,150.53s-10.63,8.37-12.17,11.31l10.52,12.42s12.13-6.63,12.41-8.29S104.66,150.8,102.4,150.53Z"/><path class="cls-21" d="M51.49,115.28c11-16.26,33-33.14,33-33.14-15.84,4.61-27.51,17.09-32,22.58q-.61,5.3-1,10.56m-.49,11C62.5,111,81.87,96.09,81.87,96.09c-14.27,4.15-25.16,14.7-30.49,20.76q-.29,4.76-.38,9.43M54.65,90c-.73,3.91-1.33,7.85-1.84,11.79,10.46-16.49,36.48-34,36.48-34C70.17,71.83,56.63,87.61,54.65,90"/><path class="cls-8" d="M125.28,122.08h-.91a6.68,6.68,0,0,1-6.66-6.66v-10a6.68,6.68,0,0,1,6.66-6.66h.91a6.68,6.68,0,0,1,6.66,6.66v10a6.68,6.68,0,0,1-6.66,6.66"/><path class="cls-8" d="M190.23,114.46h-1.1a6,6,0,0,1-6-6V99.9a6,6,0,0,1,6-6h1.1a6,6,0,0,1,6,6v8.57a6,6,0,0,1-6,6"/><path class="cls-10" d="M74.3,189.53s89.87,58.61,155.32-1.27v15.23s-62.72,59.12-146.95,7.87"/><path class="cls-10" d="M57.85,328.7l-15.6,18.16s26,27.5,36.9,28.46L101.73,363s8.36,6.47,9.2,11.18c0,0,.49,13.52-3.38,19.08a77,77,0,0,1-9.1,10.48L75.3,399.84l-13.14-7.65S18.4,361.26,8.26,342.67c0,0,10.72-22,22.45-34.66S57.85,328.7,57.85,328.7"/><path class="cls-33" d="M95.36,391.07c-.1-1.19,5.76-19.5,6-26a8.91,8.91,0,0,0,0-1c-.43-5.27,8.92,9.35,8.92,9.35s2.94,4,1.81,8.39l-2,3.11s1,3.87-.63,6.52l-4.52,6s-6.13,9.32-10.73,7.1l-5.49-3.05s7.49-1.14,6.73-10.43"/><path class="cls-10" d="M121.27,100.2s-7.31,2.28-10.51-1.83c0,0-.74,5.36,6.94,7"/><path class="cls-10" d="M192.5,97.46s7.31,2.28,10.5-1.83c0,0,.74,5.36-6.94,7"/><path class="cls-20" d="M30.62,332.49l19.05,4.75s-3,14.54,1.17,18l-23.59,9.42s-2.86-29.24,3.36-32.17"/><path class="cls-20" d="M44.2,346c.41,11.45-8,21.06-18.87,21.44S5.39,358.85,5,347.4,13,326.35,23.84,326s19.95,8.58,20.36,20"/><path class="cls-5" d="M33.83,346.36c.35,9.88-6.93,18.16-16.27,18.49S.37,357.45,0,347.58s6.93-18.16,16.27-18.49,17.2,7.4,17.55,17.28"/><path class="cls-15" d="M58.83,393.66s4.51-25.21,12.53-28.21l6.34,1.86a5.67,5.67,0,0,1,3.7,7.48c-3.55,9.2-8.51,23.69-5.5,25.07,1.38.63-19.41,4-17.07-6.21"/><g class="cls-6"><g class="cls-37"><path class="cls-8" d="M47.38,319.94c.23-16,37.31-42.84,53-53.46-3.84-10.81-10.21-20.66-19.08-25.28l-1.46,2.5s-44,43-58.53,52.19-11.24,14.52-4.84,18.21c4.5,2.59,18.42,9.11,27.55,17.06,2-2.75,3.29-6.44,3.36-11.22"/></g></g><path class="cls-5" d="M222.83,304.36a26,26,0,1,1-19-31.49,26,26,0,0,1,19,31.49"/><path class="cls-15" d="M224.39,305.32a28.63,28.63,0,1,1-20.91-34.68,28.63,28.63,0,0,1,20.91,34.68"/><path class="cls-15" d="M152,345.86h0a7.44,7.44,0,0,1,0-10.49l44.07-44.07a7.42,7.42,0,0,1,10.49,10.49l-44.07,44.07a7.44,7.44,0,0,1-10.49,0"/><path class="cls-15" d="M155.13,320.75h0a3.74,3.74,0,0,1,0-5.28l31-31a3.73,3.73,0,0,1,5.28,5.28l-31,31a3.74,3.74,0,0,1-5.28,0"/><path class="cls-15" d="M175.85,344.73h0a4.22,4.22,0,0,1,0-5.95l25-25a4.22,4.22,0,0,1,5.95,0h0a4.22,4.22,0,0,1,0,6l-25,25a4.22,4.22,0,0,1-5.95,0"/><path class="cls-8" d="M173.52,122.47s3.91,7.39,17.58,7.39l21.48-.53s10.25-.53,12.69,8.45c0,0,.49,5.81-.49,7.39s-2.93,2.64-6.84,2.64S180.36,158.89,157.9,152c0,0-11.72-2.64-11.72-11.08,0,0-2-6.33,2.93-6.33,0,0,5.37,4.22,8.3,2.11s.49-14.78,16.11-14.25"/><path class="cls-38" d="M203.86,151.31s-27.87,3.88-43.81,1.24c0,0-8.76-4.22-10.36-9"/><path class="cls-10" d="M219.85,210.1s6.86-1.32,5,9.5,2.9-1.06,3.43-2.11.79-11.88.79-11.88l-1.85-4.22-1.85-.79"/><path class="cls-10" d="M221.43,195.05s9.24-2.64,11.08-28.5,2.38,17.95,2.38,17.95l-2.38,9-3.7,3.43"/><path class="cls-39" d="M40.94,482.41a3.18,3.18,0,0,1,2,2.55"/></g></g></svg>