<?xml version="1.0" encoding="UTF-8"?>
<svg id="Capa_1" data-name="Capa 1" xmlns="http://www.w3.org/2000/svg" xmlns:xlink="http://www.w3.org/1999/xlink" viewBox="0 0 245 350">
  <defs>
    <style>
      .cls-1 {
        fill: #bc2e2c;
      }

      .cls-1, .cls-2, .cls-3, .cls-4, .cls-5, .cls-6, .cls-7, .cls-8, .cls-9, .cls-10, .cls-11, .cls-12, .cls-13, .cls-14, .cls-15, .cls-16, .cls-17, .cls-18, .cls-19 {
        stroke-width: 0px;
      }

      .cls-20 {
        clip-path: url(#clippath-11);
      }

      .cls-2 {
        fill: #00adee;
      }

      .cls-3 {
        fill: #e73737;
      }

      .cls-21 {
        opacity: .5;
      }

      .cls-4 {
        fill: #1a1129;
      }

      .cls-5 {
        fill: url(#Degradado_sin_nombre_3);
      }

      .cls-22 {
        clip-path: url(#clippath-2);
      }

      .cls-6 {
        fill: #c8bf2e;
      }

      .cls-23 {
        clip-path: url(#clippath-6);
      }

      .cls-7 {
        fill: #ffd005;
      }

      .cls-8, .cls-24, .cls-25 {
        fill: none;
      }

      .cls-26 {
        clip-path: url(#clippath-7);
      }

      .cls-27 {
        clip-path: url(#clippath-1);
      }

      .cls-28 {
        clip-path: url(#clippath-4);
      }

      .cls-9 {
        fill: #482c76;
      }

      .cls-29 {
        clip-path: url(#clippath-12);
      }

      .cls-10 {
        fill: #fff;
      }

      .cls-11 {
        fill: url(#Degradado_sin_nombre_4);
      }

      .cls-12 {
        fill: #e7be36;
      }

      .cls-13 {
        fill: #32160e;
      }

      .cls-14 {
        fill: #611717;
      }

      .cls-30 {
        clip-path: url(#clippath-9);
      }

      .cls-31 {
        clip-path: url(#clippath);
      }

      .cls-15 {
        fill: #ed3532;
      }

      .cls-32 {
        clip-path: url(#clippath-3);
      }

      .cls-33 {
        clip-path: url(#clippath-8);
      }

      .cls-24 {
        stroke: #fff;
        stroke-width: 1.23px;
      }

      .cls-24, .cls-25 {
        stroke-miterlimit: 10;
      }

      .cls-16 {
        fill: url(#Degradado_sin_nombre);
      }

      .cls-34 {
        mask: url(#mask-1);
      }

      .cls-35 {
        mask: url(#mask);
      }

      .cls-17 {
        fill: #bdacac;
      }

      .cls-36 {
        clip-path: url(#clippath-5);
      }

      .cls-18 {
        fill: url(#Degradado_sin_nombre_2);
      }

      .cls-37 {
        opacity: .18;
      }

      .cls-38 {
        clip-path: url(#clippath-10);
      }

      .cls-39 {
        opacity: .33;
      }

      .cls-19 {
        fill: #a39393;
      }

      .cls-25 {
        stroke: #482c76;
        stroke-width: .79px;
      }
    </style>
    <clipPath id="clippath">
      <rect class="cls-8" x="152.66" y="321.44" width="5.87" height="11.51"/>
    </clipPath>
    <clipPath id="clippath-1">
      <rect class="cls-8" x="94.64" y="321.55" width="9.55" height="11.28"/>
    </clipPath>
    <clipPath id="clippath-2">
      <rect class="cls-8" x="88.99" y="322.25" width="5.93" height="8.65"/>
    </clipPath>
    <clipPath id="clippath-3">
      <rect class="cls-8" x="72.39" y="327.72" width="20.75" height="20.1"/>
    </clipPath>
    <clipPath id="clippath-4">
      <rect class="cls-8" x="155.01" y="331.27" width="26.7" height="17.45"/>
    </clipPath>
    <clipPath id="clippath-5">
      <rect class="cls-8" x="90.9" y="286.75" width="32.82" height="29.05"/>
    </clipPath>
    <clipPath id="clippath-6">
      <rect class="cls-8" x="92.06" y="154.05" width="24.14" height="10.22"/>
    </clipPath>
    <clipPath id="clippath-7">
      <path class="cls-8" d="m116.19,159.16c0,2.82-5.4,5.11-12.07,5.11s-12.07-2.29-12.07-5.11,5.4-5.11,12.07-5.11,12.07,2.29,12.07,5.11"/>
    </clipPath>
    <radialGradient id="Degradado_sin_nombre_2" data-name="Degradado sin nombre 2" cx="-2379.43" cy="2064.59" fx="-2379.43" fy="2064.59" r=".49" gradientTransform="translate(57700.91 21468.16) scale(24.21 -10.32)" gradientUnits="userSpaceOnUse">
      <stop offset="0" stop-color="#fff"/>
      <stop offset=".48" stop-color="#fff"/>
      <stop offset=".92" stop-color="#000"/>
      <stop offset="1" stop-color="#000"/>
    </radialGradient>
    <mask id="mask" x="92.05" y="154.05" width="24.14" height="10.22" maskUnits="userSpaceOnUse">
      <rect class="cls-18" x="92.06" y="154.05" width="24.14" height="10.22"/>
    </mask>
    <radialGradient id="Degradado_sin_nombre" data-name="Degradado sin nombre" cx="-2379.43" cy="2064.59" fx="-2379.43" fy="2064.59" r=".49" gradientTransform="translate(57700.91 21468.16) scale(24.21 -10.32)" gradientUnits="userSpaceOnUse">
      <stop offset="0" stop-color="#ffd1ad"/>
      <stop offset=".48" stop-color="#ffd1ad"/>
      <stop offset=".92" stop-color="#ffbba8"/>
      <stop offset="1" stop-color="#ffbba8"/>
    </radialGradient>
    <clipPath id="clippath-8">
      <rect class="cls-8" x="136.35" y="150.48" width="24.14" height="10.22"/>
    </clipPath>
    <clipPath id="clippath-9">
      <path class="cls-8" d="m160.49,155.59c0,2.82-5.4,5.11-12.07,5.11-6.66,0-12.07-2.29-12.07-5.11,0-2.82,5.4-5.11,12.07-5.11,6.66,0,12.07,2.29,12.07,5.11"/>
    </clipPath>
    <radialGradient id="Degradado_sin_nombre_4" data-name="Degradado sin nombre 4" cx="-2381.33" cy="2064.23" fx="-2381.33" fy="2064.23" r=".49" gradientTransform="translate(57791.25 21460.88) scale(24.21 -10.32)" gradientUnits="userSpaceOnUse">
      <stop offset="0" stop-color="#fff"/>
      <stop offset=".48" stop-color="#fff"/>
      <stop offset=".92" stop-color="#000"/>
      <stop offset="1" stop-color="#000"/>
    </radialGradient>
    <mask id="mask-1" x="136.35" y="150.48" width="24.14" height="10.22" maskUnits="userSpaceOnUse">
      <rect class="cls-11" x="136.35" y="150.48" width="24.14" height="10.22"/>
    </mask>
    <radialGradient id="Degradado_sin_nombre_3" data-name="Degradado sin nombre 3" cx="-2381.33" cy="2064.23" fx="-2381.33" fy="2064.23" r=".49" gradientTransform="translate(57791.25 21460.88) scale(24.21 -10.32)" gradientUnits="userSpaceOnUse">
      <stop offset="0" stop-color="#ffd1ad"/>
      <stop offset=".48" stop-color="#ffd1ad"/>
      <stop offset=".92" stop-color="#ffbba8"/>
      <stop offset="1" stop-color="#ffbba8"/>
    </radialGradient>
    <clipPath id="clippath-10">
      <rect class="cls-8" x="73" y="100.57" width="41.42" height="126.19"/>
    </clipPath>
    <clipPath id="clippath-11">
      <rect class="cls-8" x="86.92" y="211.59" width="28.49" height="84.16"/>
    </clipPath>
    <clipPath id="clippath-12">
      <rect class="cls-8" x="53.42" y="211.7" width="43.82" height="44.11"/>
    </clipPath>
  </defs>
  <path class="cls-14" d="m113.72,317.03c-.05,1.23-5.19,2.02-11.49,1.77-6.3-.25-11.36-1.45-11.31-2.67.05-1.23,5.19-2.02,11.49-1.77,6.3.25,11.36,1.45,11.31,2.67"/>
  <path class="cls-14" d="m169.65,317.93c-.06,1.51-3.89,2.58-8.54,2.4-4.66-.19-8.39-1.56-8.33-3.07.06-1.51,3.88-2.58,8.54-2.4,4.66.19,8.39,1.56,8.33,3.07"/>
  <path class="cls-7" d="m156.77,321.44s-5.15.49-3.92,4.17c1.22,3.68,5.15,7.35,5.15,7.35,0,0,3.92-2.69,4.17-3.68.25-.98.25-4.17.25-4.17"/>
  <g class="cls-37">
    <g class="cls-31">
      <path class="cls-13" d="m158,332.95s-3.92-3.68-5.15-7.35c-1.23-3.68,3.92-4.16,3.92-4.16,0,0-2.2,1.94-1.78,3.2.42,1.27,3.54,6.1,3.54,6.1"/>
    </g>
  </g>
  <path class="cls-7" d="m101.26,321.72s5.04.48,3.84,4.08c-1.2,3.6-5.04,7.2-5.04,7.2,0,0-3.84-2.64-4.08-3.6-.24-.96-.24-4.08-.24-4.08"/>
  <g class="cls-37">
    <g class="cls-27">
      <path class="cls-13" d="m100.16,321.55s5.04.48,3.84,4.08c-1.2,3.6-5.04,7.2-5.04,7.2,0,0-3.84-2.64-4.08-3.6-.24-.96-.24-4.08-.24-4.08"/>
    </g>
  </g>
  <path class="cls-9" d="m99.21,302.3l-6.94,23.14,5.79,4.63,10.66-27.77s-7.2-3.34-9.51,0"/>
  <path class="cls-9" d="m166.09,305.23l-.7,27.7-6.86-2.2-1.75-24.86s8.13-4.53,9.31-.64"/>
  <path class="cls-1" d="m100.75,319.79h-3.6c-2.55,0-4.63-2.08-4.63-4.63s2.08-4.63,4.63-4.63h3.6c2.55,0,4.63,2.08,4.63,4.63s-2.08,4.63-4.63,4.63"/>
  <path class="cls-15" d="m99.85,319.02h-1.79c-1.91,0-3.48-1.57-3.48-3.48v-.73c0-1.91,1.57-3.48,3.48-3.48h1.79c1.91,0,3.48,1.57,3.48,3.48v.73c0,1.91-1.57,3.48-3.48,3.48"/>
  <path class="cls-1" d="m164.26,320.31h-3.6c-2.55,0-4.63-2.08-4.63-4.63s2.08-4.63,4.63-4.63h3.6c2.55,0,4.63,2.08,4.63,4.63s-2.08,4.63-4.63,4.63"/>
  <path class="cls-15" d="m165.15,319.79h-1.79c-1.91,0-3.48-1.57-3.48-3.48v-.73c0-1.91,1.57-3.48,3.48-3.48h1.79c1.91,0,3.48,1.57,3.48,3.48v.73c0,1.91-1.57,3.48-3.48,3.48"/>
  <path class="cls-7" d="m89.1,324.44c.13-.72.67-1.3,1.38-1.47,2.18-.53,7.36-1.56,8.78.26,0,0,.99,1.25.33,3.21-.36,1.08-.98,2.38-1.46,3.33-.39.76-1.25,1.16-2.08.96-1.97-.48-5.35-1.24-5.39-.72-.23,3.01-2.16-2.28-1.56-5.56"/>
  <g class="cls-37">
    <g class="cls-22">
      <path class="cls-13" d="m93.31,330.11c.47-1.31,1.04-3.03,1.38-4.48.34-1.44.24-2.6.06-3.39-1.62.13-3.27.48-4.28.72-.71.17-1.25.75-1.38,1.47-.6,3.28,1.33,8.57,1.56,5.56.02-.31,1.25-.16,2.65.11"/>
    </g>
  </g>
  <path class="cls-7" d="m90.22,327.72s-5.52,6-8.64,6.24c-3.12.24-13.2,4.32-7.44,12.24,0,0,7.44,3.6,13.92,1.68l4.32-.96,10.56-7.2s.48-8.16-1.68-11.28"/>
  <g class="cls-37">
    <g class="cls-32">
      <path class="cls-13" d="m84.94,336.37l7.33-2.7.87-5.76-2.92-.19s-5.52,6-8.64,6.24c-3.12.24-13.2,4.32-7.44,12.24,0,0,1.97.95,4.76,1.62-.39-3.4-.49-10.85,6.04-11.44"/>
    </g>
  </g>
  <path class="cls-7" d="m169.51,323.22s-8.1-2.37-9.96,0c0,0-1.01,1.27-.34,3.28.68,2,2.19,4.74,2.19,4.74,0,0,6.86-1.84,6.92-1.09.27,3.49,2.78-3.99,1.18-6.92"/>
  <path class="cls-7" d="m168.04,327.56s5.64,6.13,8.82,6.37,13.48,4.41,7.6,12.5c0,0-7.6,3.67-14.21,1.71l-4.41-.98-10.78-7.35s-.49-8.33,1.72-11.52"/>
  <path class="cls-3" d="m85.11,330.24s5.72-2.27,9.78,3.05c0,0-.94,2.5-1.56,3.44-.63.94-5.63-2.82-10.64-3.13,0,0-.71-3.37,2.42-3.37"/>
  <path class="cls-3" d="m174.58,331.14s-3.24-1.02-6.42,2.45c0,0,1.33,2.22,1.97,3.18.64.96,3.99-1.72,9.1-2.04,0,0-1.46-3.59-4.65-3.59"/>
  <path class="cls-3" d="m73.27,344.82s8.62,4.59,18.8.28c0,0,9.63-5.78,10.82-7.52,0,0,.73,1.83.37,2.48-.37.64-7.89,7.15-11.19,7.52-3.3.37-9.63,3.58-17.15-.55,0,0-2.02-.73-1.65-2.2"/>
  <path class="cls-3" d="m185.94,344.85s-8.95,4.87-19.51.29c0,0-9.99-6.13-11.23-7.98,0,0-.76,1.95-.38,2.63.38.68,8.19,7.59,11.61,7.98,3.43.39,9.99,3.8,17.8-.58,0,0,2.09-.78,1.71-2.34"/>
  <g class="cls-37">
    <g class="cls-28">
      <path class="cls-13" d="m173.13,340.62c-3.86,0-6.94-2.31-10.41-6.94-1.91-2.55-4.87-2.64-7.15-2.21-.79,3.68-.51,8.35-.51,8.35l10.78,7.35,4.41.98c4.13,1.23,8.65.25,11.46-.65-.13-4.11-5.32-6.87-8.58-6.87"/>
    </g>
  </g>
  <path class="cls-3" d="m100.24,292.51l-9.36,23.26s17.33-1.91,22.73,1.17c0,0,1.29-10.03,6.69-11.31,0,0,26.74-2.57,30.59.26,3.86,2.83,1.54,11.92,1.54,11.92,0,0,2.83-1.67,9-1.29,6.17.38,8.36,1.03,8.36,1.03,0,0-1.99-20.86-6.11-26.52-4.11-5.66-55.47-5.72-63.44,1.48"/>
  <g class="cls-39">
    <g class="cls-36">
      <path class="cls-13" d="m90.9,315.8s7.3-.2,12.32-.36c2.5-5.28,9.73-19.47,17.21-23.84,2.81-1.64,3.55-3.32,3.23-4.86-10.19.69-19.93,2.61-23.41,5.76l-9.34,23.29Z"/>
    </g>
  </g>
  <path class="cls-9" d="m173.26,277.79c-1.74-2.84-3.62-4.89-5.49-6.39-.52.75-1.04,1.34-1.56,1.71l-11.84.21s-1.87,4.49-1.14,6.57c0,0,2.89,5.52,5.7,6.87,2.81,1.34,6.03,2.12,6.03,2.12l8.38-6.84,1.29-2.22c-.46-.63-.92-1.3-1.36-2.03"/>
  <path class="cls-12" d="m178.2,258.31c0-5.62,3.73-10.18,8.34-10.18s8.33,4.56,8.33,10.18c0,5.62-3.73,10.18-8.34,10.18-4.6,0-8.33-4.56-8.33-10.18"/>
  <path class="cls-7" d="m182.61,258.31c0-4.85,3.22-8.77,7.19-8.77,3.97,0,7.19,3.93,7.19,8.78s-3.22,8.77-7.19,8.77c-3.97,0-7.19-3.93-7.19-8.78"/>
  <path class="cls-9" d="m166.12,243.44l12.61,14.6s-12.28,13.93-17.58,14.6l-11.28-5.64s-3.98,3.32-4.31,5.64c0,0,0,6.64,1.99,9.29,1.99,2.65,4.64,4.98,4.64,4.98l11.28-2.32,6.3-3.98s20.9-15.92,25.55-25.21c0,0-5.64-10.62-11.61-16.59-5.97-5.97-17.58,4.64-17.58,4.64"/>
  <path class="cls-3" d="m163.01,211.59s3.46-2.31,6.15,1.92c0,0,6.92,14.99,12.3,17.68,5.38,2.69,3.46,5,1.15,8.84-2.31,3.84-12.68,1.15-16.91,7.3-4.23,6.15-9.61-9.61-11.14-13.07-1.54-3.46-1.54-12.3-1.54-12.3"/>
  <path class="cls-6" d="m187.47,266.28l-12.39-4.87s1.5-5.97-.22-7.74l19.03-1.77s7.3,11.73-6.42,14.38"/>
  <path class="cls-3" d="m171.78,266.47s7.14,6.32,8.45,10.68c.28.93-.02,1.93-.73,2.58l-1.12,1.02c-1.41,1.28-3.61,1.09-4.77-.42-3.01-3.9-8.31-10.36-9.6-9.48-.61.42,4.1-7.97,7.79-4.38"/>
  <path class="cls-9" d="m87.55,213.33c-1.01-.95-2.63-18.66-10.34-34.11-7.72-15.45-5.71-49.64,13.34-67.75,0,0,7.58-9.25,17.52-10.24,0,0,8.91-3.59,5.62,6.01l-6.77,9.56s17.6-21.06,32.86-22.96c0,0,8.26-2.37,10.48,4.36,0,0,2.06,5.2-1.92,7.91,0,0-18.28,6.45-20.31,9.36-2.03,2.9.92-2.41.92-2.41,0,0,19.89-9.7,31.66-3.92,0,0,10.02,3.64,3.55,12.39-6.47,8.75-16.25-.31-23.52,4.27-7.27,4.58-2.22.99-2.22.99,0,0,17.93,1.69,23.05,18.18,0,0,7.22,22.07-.15,64.51l-2.03,6.77s-35.54,30.95-71.73-2.91"/>
  <path class="cls-10" d="m87.08,192.1c-.39-.64-19.9-37.82,19.91-56.73,0,0,30.11-12.19,45.28,1.74,0,0,7.96,5.97,9.2,23.39,0,0,1.25,10.14.7,16.79-.5,5.97-2.94,12.82-3.68,21.28-.37,4.15-1.49,7.71-4.73,9.45-3.24,1.74-28.61,14.93-58.97,2.73,0,0-4.73-1.99-4.73-7.71,0,0-.25-6.47-2.99-10.95"/>
  <g class="cls-21">
    <g class="cls-23">
      <g class="cls-26">
        <g class="cls-35">
          <rect class="cls-16" x="92.06" y="154.05" width="24.14" height="10.22"/>
        </g>
      </g>
    </g>
  </g>
  <g class="cls-21">
    <g class="cls-33">
      <g class="cls-30">
        <g class="cls-34">
          <rect class="cls-5" x="136.35" y="150.48" width="24.14" height="10.22"/>
        </g>
      </g>
    </g>
  </g>
  <path class="cls-9" d="m90.22,204.94s-1.71-6.5,4.83-4.37c6.54,2.13-1.52-4.3-1.94-4.53-.42-.23-3.2-1.07-3.2-1.07l-2.02.19-.57.61s-.08.53-.11.76"/>
  <path class="cls-9" d="m82.06,176.77s2.07,10.35,11.65,14.5c9.58,4.14-1.94,1.29-3.62,1.04-1.68-.26-5.18-2.2-5.18-2.2l-2.33-4.66-1.42-4.01"/>
  <path class="cls-13" d="m119.71,162.54s.36,8.54,10.91,9.06c0,0,15.43.26,17.19-4.66"/>
  <g class="cls-37">
    <g class="cls-38">
      <path class="cls-13" d="m109.28,226.76c-.49-10.27-5.23-18.12-8.01-22.47-15.92-24.88-16.92-43.3-8.46-63.2,5.23-12.31,14.42-25.58,21.22-34.96,2.24-8.2-5.95-4.9-5.95-4.9-9.94.99-17.52,10.24-17.52,10.24-19.05,18.11-21.06,52.3-13.34,67.75,7.72,15.45,9.33,33.17,10.34,34.11,7.37,6.89,14.71,11.1,21.72,13.43"/>
    </g>
  </g>
  <path class="cls-9" d="m100.27,138.36s28.86-15.42,27.37,23.39c0,0,7.71,1.24,9.7-.99,1.99-2.24-14.93-27.12,6.47-28.61,0,0-19.41-13.94-43.54,6.22"/>
  <path class="cls-7" d="m86.92,211.59s14.6,61.49,9.99,84.16c0,0,54.57-7.3,69.94-.76,0,0,10.38-68.4-5.76-87.62,0,0-28.44,24.21-74.17,4.22"/>
  <g class="cls-37">
    <g class="cls-20">
      <path class="cls-13" d="m108.69,294.39c1.34-4.91,2.84-11.42,5.01-19.43,3.98-14.73,0-44.76-1.75-56.17-7.61-1.02-15.98-3.24-25.03-7.2,0,0,14.6,61.49,9.99,84.16,0,0,4.72-.63,11.78-1.36"/>
    </g>
  </g>
  <path class="cls-3" d="m87.17,212.92s-21.56,21.11-28.7,25.59c-7.15,4.49-5.51,7.12-2.37,8.93,2.75,1.58,16.01,5.02,16.28,11.35.03.77.46,1.52,1.12,2.26.8.89.51,3.44,4.24.23,3.73-3.21,11.79-14.27,18.25-16.42,6.46-2.15,3.65-27.05-8.11-33.16"/>
  <path class="cls-4" d="m61.39,241.62s10.36.06,15.32,13.73c0,0,.09,2.4-2.04.95-2.12-1.45-17.86-14.51-13.28-14.68"/>
  <path class="cls-19" d="m88.37,177.03s9.82-9.26,15.96-11.87c.56-.24,1.11-.24,1.47,0,.65.43,1.67,1.28,2.11,2.61.2.61-.24,1.47-1,2.04-2.99,2.23-10.73,8.05-13.98,11.05-.75.69-1.75.94-2.33.59-1.44-.88-3.56-2.59-2.22-4.4"/>
  <path class="cls-19" d="m94.38,163.01s9.53,9.6,11.7,16.1c.2.6.11,1.21-.23,1.65-.62.8-1.79,2.08-3.44,2.77-.76.32-1.72-.04-2.28-.81-2.2-3.02-7.94-10.81-11.02-14-.71-.74-.86-1.82-.34-2.53,1.28-1.75,3.64-4.4,5.6-3.18"/>
  <path class="cls-17" d="m98.24,167.24s-5.21,4.11-5.97,5.54l5.16,6.09s5.95-3.25,6.09-4.06c.14-.81-4.17-7.43-5.28-7.57"/>
  <path class="cls-25" d="m98.24,167.24s-5.21,4.11-5.97,5.54l5.16,6.09s5.95-3.25,6.09-4.06c.14-.81-4.17-7.43-5.28-7.57Z"/>
  <path class="cls-10" d="m73.28,149.95c5.42-7.97,16.18-16.25,16.18-16.25-7.77,2.26-13.49,8.38-15.71,11.07-.2,1.73-.36,3.46-.47,5.18m-.24,5.39c5.64-7.49,15.14-14.8,15.14-14.8-7,2.03-12.34,7.21-14.95,10.18-.1,1.56-.16,3.1-.19,4.62m1.79-17.76c-.36,1.92-.65,3.85-.9,5.78,5.13-8.09,17.89-16.7,17.89-16.7-9.37,1.98-16.01,9.72-16.99,10.91"/>
  <path class="cls-13" d="m109.46,153.28h-.45c-1.8,0-3.27-1.47-3.27-3.27v-4.91c0-1.8,1.47-3.27,3.27-3.27h.45c1.8,0,3.27,1.47,3.27,3.27v4.91c0,1.8-1.47,3.27-3.27,3.27"/>
  <path class="cls-13" d="m141.31,149.55h-.54c-1.62,0-2.94-1.32-2.94-2.94v-4.2c0-1.62,1.32-2.94,2.94-2.94h.54c1.62,0,2.94,1.32,2.94,2.94v4.2c0,1.62-1.32,2.94-2.94,2.94"/>
  <path class="cls-9" d="m84.46,186.36s44.07,28.74,76.17-.62v7.47s-30.76,28.99-72.06,3.85"/>
  <path class="cls-9" d="m76.39,254.61l-7.65,8.91s12.77,13.49,18.09,13.96l11.07-6.04s4.1,3.17,4.51,5.48c0,0,.24,6.63-1.66,9.35-1.89,2.72-4.46,5.14-4.46,5.14l-11.36-1.92-6.44-3.75s-21.46-15.17-26.43-24.28c0,0,5.26-10.81,11.01-16.99,5.75-6.18,13.31,10.15,13.31,10.15"/>
  <path class="cls-4" d="m94.78,285.19c-.05-.58,2.82-9.56,2.93-12.75,0-.19,0-.35,0-.5-.21-2.58,4.37,4.59,4.37,4.59,0,0,1.44,1.97.89,4.11l-1,1.52s.49,1.9-.31,3.2l-2.22,2.95s-3,4.57-5.26,3.48l-2.69-1.5s3.68-.56,3.3-5.11"/>
  <path class="cls-9" d="m107.5,142.56s-3.58,1.12-5.15-.9c0,0-.36,2.63,3.4,3.44"/>
  <path class="cls-9" d="m142.42,141.22s3.58,1.12,5.15-.9c0,0,.36,2.63-3.4,3.44"/>
  <path class="cls-6" d="m63.04,256.46l9.34,2.33s-1.48,7.13.58,8.83l-11.57,4.62s-1.4-14.34,1.65-15.78"/>
  <path class="cls-6" d="m69.69,263.08c.2,5.62-3.94,10.32-9.25,10.51-5.31.19-9.78-4.21-9.98-9.83-.2-5.62,3.94-10.32,9.25-10.51,5.31-.19,9.78,4.21,9.98,9.83"/>
  <path class="cls-7" d="m64.61,263.27c.17,4.84-3.4,8.9-7.98,9.07-4.58.16-8.43-3.63-8.61-8.47-.17-4.84,3.4-8.9,7.98-9.07,4.58-.16,8.43,3.63,8.61,8.47"/>
  <path class="cls-3" d="m76.87,286.46s2.21-12.36,6.14-13.83l3.11.91c1.56.46,2.4,2.15,1.81,3.67-1.74,4.51-4.17,11.62-2.7,12.29.67.31-9.52,1.98-8.37-3.05"/>
  <g class="cls-37">
    <g class="cls-29">
      <path class="cls-13" d="m71.25,250.31c.11-7.86,18.3-21.01,25.99-26.21-1.88-5.3-5.01-10.13-9.35-12.4l-.72,1.22s-21.56,21.11-28.7,25.59c-7.15,4.49-5.51,7.12-2.37,8.93,2.21,1.27,9.03,4.47,13.51,8.37,1-1.35,1.61-3.16,1.65-5.5"/>
    </g>
  </g>
  <path class="cls-7" d="m157.29,242.68c-1.69,6.84-8.61,11-15.44,9.31-6.84-1.69-11.01-8.61-9.31-15.44,1.69-6.84,8.61-11,15.44-9.31,6.84,1.69,11.01,8.61,9.31,15.44"/>
  <path class="cls-3" d="m158.06,243.14c-1.86,7.53-9.48,12.12-17.01,10.25-7.53-1.86-12.12-9.48-10.25-17.01,1.86-7.53,9.48-12.12,17.01-10.25,7.53,1.86,12.12,9.48,10.25,17.01"/>
  <path class="cls-3" d="m122.55,263.02h0c-1.41-1.41-1.41-3.73,0-5.14l21.61-21.61c1.42-1.42,3.73-1.41,5.14,0,1.42,1.41,1.42,3.73,0,5.15l-21.61,21.61c-1.41,1.41-3.73,1.41-5.14,0"/>
  <path class="cls-3" d="m124.09,250.71h0c-.71-.71-.71-1.88,0-2.59l15.22-15.22c.71-.71,1.88-.71,2.59,0s.71,1.88,0,2.59l-15.22,15.22c-.71.71-1.88.71-2.59,0"/>
  <path class="cls-3" d="m134.25,262.47h0c-.8-.8-.8-2.12,0-2.92l12.26-12.25c.8-.8,2.12-.8,2.92,0h0c.8.8.8,2.12,0,2.92l-12.26,12.25c-.8.8-2.12.8-2.92,0"/>
  <path class="cls-13" d="m133.12,153.48s1.92,3.62,8.62,3.62l10.53-.26s5.03-.26,6.22,4.14c0,0,.24,2.85-.24,3.62-.48.78-1.44,1.29-3.35,1.29s-18.43,5.44-29.45,2.07c0,0-5.75-1.29-5.75-5.44,0,0-.96-3.11,1.44-3.11,0,0,2.63,2.07,4.07,1.04,1.44-1.04.24-7.25,7.9-6.99"/>
  <path class="cls-24" d="m147.99,167.62s-13.67,1.9-21.48.61c0,0-4.3-2.07-5.08-4.4"/>
  <path class="cls-9" d="m155.83,196.45s3.36-.65,2.46,4.66c-.91,5.31,1.42-.52,1.68-1.04.26-.52.39-5.82.39-5.82l-.91-2.07-.91-.39"/>
  <path class="cls-9" d="m156.61,189.07s4.53-1.29,5.44-13.98c.91-12.68,1.16,8.8,1.16,8.8l-1.17,4.4-1.81,1.68"/>
  <path class="cls-2" d="m68.09,329.98s.83.28.97,1.25"/>
</svg>