<svg xmlns="http://www.w3.org/2000/svg" viewBox="0 0 469.35 445.5"><defs><style>.cls-1{fill:#d98e38;}.cls-2{fill:#895b24;}.cls-3{fill:#1c92a7;}.cls-4{fill:#1ca6be;}.cls-5{fill:#f8e7ab;}.cls-6{opacity:0.3;}.cls-7{fill:#cec08d;}.cls-8{fill:#230c0d;}.cls-10,.cls-11,.cls-13,.cls-14,.cls-9{fill:none;stroke-miterlimit:10;}.cls-10,.cls-11,.cls-9{stroke:#230c0d;stroke-linecap:round;}.cls-9{stroke-width:1.35px;}.cls-10{stroke-width:9.77px;}.cls-11{stroke-width:9.3px;}.cls-12{fill:#5c5d5d;}.cls-13,.cls-14{stroke:#752715;}.cls-13{stroke-width:0.81px;}.cls-14{stroke-width:0.76px;}</style></defs><title>Recurso 6</title><g id="Capa_2" data-name="Capa 2"><g id="Capa_1-2" data-name="Capa 1"><path class="cls-1" d="M274.39,355.17c-6.23-3.13-14.57-10.71-14.57-10.71-4.34-7.6-10.32-9.23-10.32-9.23l-1.22.88c-11.41-14.69-16.7-32-16.7-32l-14.26,21.59c27.82,59.46,82.75,37.93,82.75,37.93l1.74-11.13C291.45,356.94,282.33,357.31,274.39,355.17Z"/><path class="cls-1" d="M98.72,407a50.28,50.28,0,0,1-9.43-.88c-13-2.49-21.94-15.9-25.75-38.8-3-9.42-13.28-33.29-28.46-40-6.12-2.72-12.65-2.36-20,1.1a10.59,10.59,0,0,1-9.06-19.15c12.87-6.09,25.9-6.53,37.67-1.28C70.86,320,82.76,357.62,84,361.86l.2.67.11.69c2.57,16,7.44,21.81,8.92,22.09,22.78,4.34,46.36-20.08,46.6-20.33a10.59,10.59,0,0,1,15.38,14.56C154.08,380.76,128.93,407,98.72,407Z"/><path class="cls-2" d="M133,388.25c-23.86,21.38-51.34,15.27-57.67-5.47-2-6.47-5.47-27.34-17.4-46.73S32.62,313.68,18.7,320.64c-9.58,4.79-15.63.63-18.63-2.91a10.57,10.57,0,0,0,15.05,10.65c7.31-3.46,13.84-3.82,20-1.1,15.18,6.74,25.49,30.62,28.46,40,3.81,22.9,12.7,36.31,25.75,38.8a50.28,50.28,0,0,0,9.43.88c16.12,0,30.79-7.47,41.15-14.62C144,383.6,143.76,378.65,133,388.25Z"/><ellipse class="cls-1" cx="62.03" cy="275.15" rx="14.58" ry="13.54" transform="translate(-43.1 13.42) rotate(-9.18)"/><path class="cls-1" d="M203.89,362s55,17.51,52.77,55v19.77s12.45-1.46,11.72,8.79H232.49s6.29-53.38-45.71-53.38"/><path class="cls-1" d="M145.34,368.6S131.43,406,97,429.39c0,0-10.25,8.79-10.25,13.91h38.08s4.39-6.59-7.32-8.79c0,0,43.21-13.92,58.59-62.25"/><path class="cls-3" d="M163.65,291s-39.55,16.84-59.32-8.06C104.33,282.92,119,261,163.65,291Z"/><path class="cls-4" d="M165.69,290.31s-25.17,34.85-55,23.74C110.74,314,111.93,287.66,165.69,290.31Z"/><path class="cls-1" d="M139.26,273.32s-12.49,32,3.89,98.21c2.77,11.21,0,12.45,0,12.45s36.62,22.7,62.25,0c0,0,45.6-32.33,71.26-93.83"/><path class="cls-5" d="M166.39,396.15s1.22-40.32-4.89-59.87c0,0-7.33-29.32,20.77-28.1,0,0,70.86,9.77,50.09,47.65,0,0-13.44,28.1-26.88,39.1C205.49,394.93,174.94,391.27,166.39,396.15Z"/><polyline class="cls-6" points="144.42 282.96 194.8 349.91 213.25 324.63 168.84 295.25 159.28 291.84"/><path class="cls-4" d="M149.31,281.33s54.62,60.91,72.93,74.82c0,0,21-28,45.18-38.3S149.31,281.33,149.31,281.33Z"/><path class="cls-6" d="M240.58,318.48S194.8,328,164.74,294.57s56.71,4.78,56.71,4.78"/><path class="cls-4" d="M62.11,210.81S59.31,207.28,60,214c0,0,6.73,18.7,4.51,24.22,0,0-.24,3.84-3.86,1.28l-6.45-25.19s-.4-4.07-3.38-3.18c0,0-1.49.45-1.15,3.94l5.81,25a3.6,3.6,0,0,1-2.06,3.55,3.77,3.77,0,0,1-2.49-2.37L46.39,216c-1.06-3.34-2.61-3.18-2.61-3.18-3.1.33-1.85,4.23-1.85,4.23l4,25.69c-2.32,3.77-4.06.32-4.06.32-4.22-4.22-5.41-24-5.41-24-2-6.41-3.22-2.08-3.22-2.08-1.36,10.81,3.91,29.39,3.91,29.39,2,8.57,11.28,7.69,15.79,6.71l8.82,46s1.24,4.22,6.41,2.4l0-.14a4.18,4.18,0,0,0,3.42-4.78L58.2,251.68c4.52-.84,13.45-3.62,11.91-12.3C70.11,239.38,67.63,220.24,62.11,210.81Z"/><path class="cls-1" d="M72,262.38c-2.72-.9-9.14.7-10.74,4.31-2.78,6.26,3.93,5.78,7.15,2q.42-.54,0,0c-2.92,2.95-4.27,6.71-1.07,9"/><path class="cls-1" d="M54.63,269.26a12.5,12.5,0,0,1,7.68,11.09s1.37,15.28-8.71,5.28"/><ellipse class="cls-1" cx="312.07" cy="360.21" rx="13.54" ry="13.96" transform="translate(-163.22 395.34) rotate(-53.32)"/><path class="cls-4" d="M299.9,372.1l17-28.56,5,.27,2.6-4.74-3.94-4.54s10.25-23.74,31.75-27.43L305.06,376S299.22,377.7,299.9,372.1Z"/><path class="cls-1" d="M310.85,346.62c2.74.4,6.1,2.57,5.78,6.45-.55,6.74-6.06,3.39-7-1.34q-.1-.66,0,0c1.12,3.88.51,7.79-3.3,8.43"/><path class="cls-1" d="M321.13,358.24s-7.1-1-11.73,6.44c0,0-8.3,12.89,5,8.47"/><path class="cls-1" d="M108.31,149.74S97.45,112.27,94.17,98.58c-4.32-18-2.69-26.18-2.69-26.18s5.7-32.18,33.4-25.25c0,0,28.92,5.7,55.39,23.22"/><path class="cls-5" d="M161.53,72c-15.73-12-37.47-14.66-37.47-14.66-22.81-4.48-20.81,19.93-20.81,19.93a76.05,76.05,0,0,0,2.9,17.58c2.87,10.7,9.48,29.2,9.48,29.2"/><path class="cls-7" d="M161.53,72c-15.73-12-37.47-14.66-37.47-14.66-8.27-1.62-13.26.55-16.29,4v.09S141,66.88,135,102Z"/><path class="cls-1" d="M360.81,64.53s38.53-6.05,52.54-7.58c18.44-2,26.31.63,26.31.63s31.2,9.71,20.84,36.31c0,0-9.3,28-30,52"/><path class="cls-5" d="M431.23,127.13C445.1,113,450.5,91.8,450.5,91.8c7.32-22.06-17.14-23.15-17.14-23.15s-6.83-.84-17.81.66S385.38,75,385.38,75"/><path class="cls-7" d="M431.23,127.13C445.1,113,450.5,91.8,450.5,91.8c2.65-8,1.12-13.23-1.9-16.66h-.09s-9.63,32.31-43.73,21.95Z"/><path class="cls-1" d="M441.19,187q.25-3.81.26-7.67c0-77.83-77.32-140.92-172.69-140.92-78,0-143.86,42.17-165.32,100.09C93.79,149.11,84,163.3,78.94,177.73c-4.07,11.66-13.91,49.6,10.54,38-2.49,9-2.45,23.71,1,32.84,3.92,10.25,15.27,17.54,18.63,2.9,16.26,20.91,41.43,43.13,68.63,47.6,26.42,13.39,57.6,21.14,91,21.14,35.63,0,68.74-8.81,96.24-23.9a108.6,108.6,0,0,0,14.2-3.42c12-3.83,21.71-12.22,29.32-21.84,4.52,8.89,15.05,1.6,19.55-4.16,6.4-8.19,5.58-18.28,6.35-28,2.39,4,4.86,4.16,9.32,4.58C450.71,225.37,447.39,205.5,441.19,187Z"/><rect class="cls-8" x="339.22" y="133.69" width="32.58" height="79.01" rx="13.03" ry="13.03"/><rect class="cls-8" x="177.93" y="133.69" width="32.58" height="79.01" rx="13.03" ry="13.03"/><path class="cls-2" d="M102.88,245.69c-3.5-9.13-3.54-23.88-1-32.84-24.45,11.57-14.61-26.37-10.54-38,5-14.43,14.85-28.62,24.51-39.25,16.26-43.9,58.05-78.74,111.28-93-59.08,11.95-106.15,48.71-123.65,96C93.79,149.11,84,163.3,78.94,177.73c-4.07,11.66-13.91,49.6,10.54,38-2.49,9-2.45,23.71,1,32.84,3.68,9.61,13.88,16.61,17.91,5.39A22,22,0,0,1,102.88,245.69Z"/><path class="cls-2" d="M377.36,293.42l-.2.11.61-.18Z"/><path class="cls-2" d="M281.12,317.32c-33.39,0-64.57-7.74-91-21.14-27.2-4.47-52.37-26.69-68.63-47.6-1.53,6.68-4.73,8.79-8.13,8.13C129.6,276,152.83,295,177.77,299.1c26.42,13.39,57.6,21.14,91,21.14a208.28,208.28,0,0,0,54.08-7.05A210.21,210.21,0,0,1,281.12,317.32Z"/><path class="cls-2" d="M420.88,268.17a84.83,84.83,0,0,1-6.23,7.05c2.93,0,6.19-1.68,9-3.87A7.86,7.86,0,0,1,420.88,268.17Z"/><ellipse class="cls-7" cx="281.79" cy="234.7" rx="40.73" ry="33.4"/><ellipse class="cls-5" cx="283.61" cy="236.19" rx="38.91" ry="31.91"/><path class="cls-8" d="M293.16,216.08c4.71,0,5.84,3.18,2.52,7.07l-5.3,6.21a7.71,7.71,0,0,1-12.07,0l-5.3-6.21c-3.32-3.89-2.18-7.07,2.52-7.07Z"/><path class="cls-1" d="M265.45,43.45c11.87-4.62-7-18.56-2.79-25.65,7.42-12.57,15,1.05,14.67,9.32,3.09-9.62-3.82-29.54,12.28-26.87,14.64,2.43,9.8,22.41,4.16,31.39,3-2.52,6.13-9.7,10.47-11.64,7-3.12,13.25,2.61,15.58,8.81,7.7,20.54-26.89,36.93-41.92,24.17"/><path class="cls-9" d="M283.76,230.19v14.66s-4.39,9.6-16.11,5.56c0,0-5.86-1.52-4.39-8.09"/><path class="cls-9" d="M284.43,230.19v14.66s4.39,9.6,16.11,5.56c0,0,5.86-1.52,4.39-8.09"/><path class="cls-1" d="M150.47,103.5s22.7,49.8,73.23,35.15-6.59-40.28-6.59-40.28"/><path class="cls-10" d="M154.13,116.68s25.63,30,56.39,27.83"/><path class="cls-11" d="M359.19,105.7s42.46-25.63,56.39,31.49"/><ellipse class="cls-12" cx="283.73" cy="220.48" rx="9.16" ry="1.82"/><path class="cls-13" d="M351.85,241.22s61.91-4.07,117.3,27.7"/><path class="cls-13" d="M350.16,248.92s61.89,4.31,112.5,43.25"/><path class="cls-13" d="M219.83,241.22s-61.91-4.07-117.3,27.7"/><path class="cls-13" d="M221.51,248.92s-61.89,4.31-112.5,43.25"/><ellipse class="cls-12" cx="352.13" cy="172.22" rx="8.83" ry="21.82"/><ellipse class="cls-12" cx="195.97" cy="172.22" rx="8.85" ry="21.82"/><path class="cls-14" d="M108.56,443.23c4-2.81-.34-6.32-.73-6.25"/><path class="cls-14" d="M118.75,443.23c.48-3.08-2.22-6.17-2.91-6.25"/><path class="cls-14" d="M254.75,444.86c4-2.81-.34-6.32-.73-6.25"/><path class="cls-14" d="M264.94,444.86c.48-3.08-2.22-6.17-2.91-6.25"/><path class="cls-1" d="M148.79,288.55a61.33,61.33,0,0,1-6.41,5.69,9.3,9.3,0,0,0-4.56-3c-8.65-2.45-23,10.87-23,10.87-5.12-1.6-11.16.22-14,1.3-8.53-3.69-17.12-11.84-24.73-27.15,0,0,1.53-18.24-8.4-13.21,0,0-17.44,14-3.81,15.18,0,0,32.45,85.34,91.08,38.16Z"/></g></g></svg>