<?xml version="1.0" encoding="UTF-8"?>
<svg id="Capa_1" data-name="Capa 1" xmlns="http://www.w3.org/2000/svg" viewBox="0 0 245 350">
  <defs>
    <style>
      .cls-1 {
        fill: #1ca6be;
      }

      .cls-1, .cls-2, .cls-3, .cls-4, .cls-5, .cls-6, .cls-7, .cls-8, .cls-9 {
        stroke-width: 0px;
      }

      .cls-2 {
        fill: #cec08d;
      }

      .cls-10 {
        stroke-width: 4.27px;
      }

      .cls-10, .cls-11, .cls-12, .cls-13, .cls-14 {
        fill: none;
        stroke-miterlimit: 10;
      }

      .cls-10, .cls-12, .cls-13 {
        stroke: #230c0d;
        stroke-linecap: round;
      }

      .cls-3 {
        fill: #5c5d5d;
      }

      .cls-11 {
        stroke-width: .36px;
      }

      .cls-11, .cls-14 {
        stroke: #752715;
      }

      .cls-4 {
        opacity: .3;
      }

      .cls-5 {
        fill: #d98e38;
      }

      .cls-12 {
        stroke-width: .59px;
      }

      .cls-6 {
        fill: #230c0d;
      }

      .cls-13 {
        stroke-width: 4.07px;
      }

      .cls-7 {
        fill: #895b24;
      }

      .cls-14 {
        stroke-width: .33px;
      }

      .cls-8 {
        fill: #f8e7ab;
      }

      .cls-9 {
        fill: #1c92a7;
      }
    </style>
  </defs>
  <path class="cls-5" d="m139.91,309.9c-2.72-1.37-6.37-4.68-6.37-4.68-1.9-3.32-4.51-4.04-4.51-4.04l-.53.39c-4.99-6.43-7.3-13.98-7.3-13.98l-6.23,9.44c12.16,26,36.18,16.58,36.18,16.58l.76-4.87c-4.53,1.93-8.52,2.09-11.99,1.16Z"/>
  <path class="cls-5" d="m63.1,332.56c-1.35,0-2.73-.12-4.12-.39-5.71-1.09-9.59-6.95-11.26-16.97-1.3-4.12-5.81-14.56-12.45-17.51-2.68-1.19-5.53-1.03-8.73.48-2.31,1.09-5.07.11-6.17-2.21-1.09-2.31-.11-5.07,2.21-6.17,5.63-2.66,11.33-2.86,16.47-.56,11.86,5.29,17.06,21.72,17.62,23.57l.09.29.05.3c1.12,7.02,3.25,9.54,3.9,9.66,9.96,1.9,20.27-8.78,20.37-8.89,1.76-1.85,4.69-1.93,6.54-.17,1.85,1.76,1.94,4.68.18,6.53-.51.54-11.5,12.01-24.71,12.01Z"/>
  <path class="cls-7" d="m78.1,324.37c-10.43,9.35-22.45,6.68-25.21-2.39-.86-2.83-2.39-11.96-7.61-20.43-5.22-8.48-11.09-9.78-17.17-6.74-4.19,2.09-6.83.28-8.15-1.27-.08.81.04,1.66.42,2.45,1.09,2.31,3.85,3.3,6.17,2.21,3.2-1.51,6.05-1.67,8.73-.48,6.64,2.95,11.15,13.39,12.45,17.51,1.67,10.02,5.55,15.88,11.26,16.97,1.39.27,2.77.39,4.12.39,7.05,0,13.46-3.27,18-6.39,1.82-3.84,1.7-6-2.99-1.8Z"/>
  <path class="cls-5" d="m53.35,273.89c.52,3.23-1.87,6.3-5.35,6.86-3.48.56-6.72-1.6-7.24-4.83-.52-3.23,1.87-6.3,5.35-6.86,3.48-.56,6.72,1.6,7.24,4.83Z"/>
  <path class="cls-5" d="m109.08,312.88s24.04,7.66,23.07,24.03v8.65s5.44-.64,5.12,3.84h-15.69s2.75-23.34-19.99-23.34"/>
  <path class="cls-5" d="m83.48,315.78s-6.08,16.33-21.13,26.58c0,0-4.48,3.84-4.48,6.08h16.65s1.92-2.88-3.2-3.84c0,0,18.89-6.08,25.62-27.22"/>
  <path class="cls-9" d="m91.49,281.83s-17.29,7.37-25.94-3.52c0,0,6.4-9.61,25.94,3.52Z"/>
  <path class="cls-1" d="m92.38,281.54s-11,15.24-24.03,10.38c0,0,.52-11.53,24.03-10.38Z"/>
  <path class="cls-5" d="m80.82,274.11s-5.46,14.01,1.7,42.94c1.21,4.9,0,5.44,0,5.44,0,0,16.01,9.93,27.22,0,0,0,19.94-14.13,31.16-41.03"/>
  <path class="cls-8" d="m92.69,327.82s.53-17.63-2.14-26.18c0,0-3.21-12.82,9.08-12.29,0,0,30.99,4.27,21.9,20.84,0,0-5.88,12.29-11.75,17.1,0,0-13.36-1.6-17.1.53Z"/>
  <polyline class="cls-4" points="83.08 278.33 105.11 307.6 113.18 296.55 93.76 283.7 89.58 282.21"/>
  <path class="cls-1" d="m85.22,277.62s23.88,26.63,31.89,32.72c0,0,9.19-12.26,19.76-16.75,10.57-4.48-51.65-15.97-51.65-15.97Z"/>
  <path class="cls-4" d="m125.13,293.86s-20.02,4.18-33.16-10.46c-13.14-14.64,24.79,2.09,24.79,2.09"/>
  <path class="cls-1" d="m47.09,246.78s-1.22-1.54-.94,1.38c0,0,2.94,8.18,1.97,10.59,0,0-.1,1.68-1.69.56l-2.82-11.02s-.17-1.78-1.48-1.39c0,0-.65.2-.5,1.72l2.54,10.92s.11,1.11-.9,1.55c-.82-.2-1.09-1.04-1.09-1.04l-1.97-11.03c-.47-1.46-1.14-1.39-1.14-1.39-1.35.15-.81,1.85-.81,1.85l1.76,11.23c-1.02,1.65-1.77.14-1.77.14-1.85-1.84-2.37-10.51-2.37-10.51-.89-2.8-1.41-.91-1.41-.91-.59,4.73,1.71,12.85,1.71,12.85.88,3.75,4.93,3.36,6.9,2.94l3.86,20.11s.54,1.84,2.8,1.05v-.06c1.79-.49,1.48-2.09,1.48-2.09l-5.84-19.59c1.98-.37,5.88-1.58,5.21-5.38,0,0-1.09-8.37-3.5-12.49Z"/>
  <path class="cls-5" d="m51.44,269.33c-1.19-.39-4,.31-4.7,1.88-1.22,2.74,1.72,2.53,3.13.88.12-.16.12-.16-.01,0-1.28,1.29-1.87,2.93-.47,3.94"/>
  <path class="cls-5" d="m43.82,272.34s3.07,1.04,3.36,4.85c0,0,.6,6.68-3.81,2.31"/>
  <path class="cls-5" d="m151.49,308.46c-1.95,2.62-1.34,6.38,1.36,8.39,2.7,2.01,6.48,1.52,8.43-1.1,1.95-2.62,1.34-6.38-1.36-8.39-2.7-2.01-6.48-1.52-8.43,1.1Z"/>
  <path class="cls-1" d="m151.07,317.31l7.45-12.49,2.17.12,1.14-2.07-1.72-1.98s4.48-10.38,13.88-12l-20.66,30.13s-2.55.74-2.25-1.71Z"/>
  <path class="cls-5" d="m155.85,306.16c1.2.17,2.67,1.12,2.53,2.82-.24,2.95-2.65,1.48-3.08-.59-.03-.19-.03-.19.01,0,.49,1.7.22,3.4-1.44,3.69"/>
  <path class="cls-5" d="m160.35,311.25s-3.1-.42-5.13,2.81c0,0-3.63,5.64,2.17,3.7"/>
  <g>
    <path class="cls-5" d="m67.29,220.08s-4.75-16.38-6.18-22.37c-1.89-7.89-1.18-11.45-1.18-11.45,0,0,2.49-14.07,14.6-11.04,0,0,12.64,2.49,24.22,10.15"/>
    <path class="cls-8" d="m90.56,186.08c-6.88-5.24-16.38-6.41-16.38-6.41-9.97-1.96-9.1,8.71-9.1,8.71,0,0,.01,3.01,1.27,7.69,1.26,4.68,4.15,12.77,4.15,12.77"/>
    <path class="cls-2" d="m90.56,186.08c-6.88-5.24-16.38-6.41-16.38-6.41-3.61-.71-5.8.24-7.12,1.74v.04s14.54,2.4,11.93,17.76l11.58-13.13Z"/>
    <path class="cls-5" d="m177.7,182.82s16.85-2.65,22.97-3.31c8.06-.88,11.5.27,11.5.27,0,0,13.64,4.25,9.11,15.88,0,0-4.07,12.23-13.12,22.75"/>
    <path class="cls-8" d="m208.49,210.19c6.06-6.16,8.43-15.45,8.43-15.45,3.2-9.65-7.5-10.12-7.5-10.12,0,0-2.99-.37-7.79.29-4.8.66-13.19,2.5-13.19,2.5"/>
    <path class="cls-2" d="m208.49,210.19c6.06-6.16,8.43-15.45,8.43-15.45,1.16-3.5.49-5.78-.83-7.29h-.04s-4.21,14.12-19.12,9.59l11.57,13.14Z"/>
    <path class="cls-5" d="m212.85,236.36c.07-1.11.11-2.23.11-3.35,0-34.03-33.81-61.62-75.51-61.62-34.09,0-62.91,18.44-72.29,43.76-4.22,4.65-8.51,10.85-10.72,17.16-1.78,5.1-6.08,21.69,4.61,16.63-1.09,3.92-1.07,10.37.46,14.36,1.72,4.48,6.68,7.67,8.15,1.27,7.11,9.14,18.11,18.86,30.01,20.81,11.55,5.86,25.18,9.24,39.79,9.24,15.58,0,30.06-3.85,42.08-10.45,2.52-.43,4.85-1.06,6.21-1.49,5.25-1.68,9.49-5.34,12.82-9.55,1.97,3.89,6.58.7,8.55-1.82,2.8-3.58,2.44-7.99,2.78-12.24,1.04,1.75,2.12,1.82,4.07,2,3.05-7.92,1.6-16.61-1.11-24.71Z"/>
    <rect class="cls-6" x="168.26" y="213.06" width="14.25" height="34.55" rx="5.7" ry="5.7"/>
    <rect class="cls-6" x="97.73" y="213.06" width="14.25" height="34.55" rx="5.7" ry="5.7"/>
    <g>
      <path class="cls-7" d="m64.92,262.03c-1.53-3.99-1.55-10.44-.46-14.36-10.69,5.06-6.39-11.53-4.61-16.63,2.2-6.31,6.49-12.51,10.72-17.16,7.11-19.19,25.38-34.43,48.66-40.68-25.83,5.22-46.41,21.3-54.07,41.96-4.22,4.65-8.51,10.85-10.72,17.16-1.78,5.1-6.08,21.69,4.61,16.63-1.09,3.92-1.07,10.37.46,14.36,1.61,4.2,6.07,7.26,7.83,2.36-.99-.9-1.88-2.2-2.42-3.63Z"/>
      <path class="cls-7" d="m184.94,282.9s-.06.03-.09.05c.09-.03.18-.05.27-.08-.06.01-.12.02-.18.03Z"/>
      <path class="cls-7" d="m142.86,293.35c-14.6,0-28.23-3.39-39.79-9.24-11.89-1.95-22.9-11.67-30.01-20.81-.67,2.92-2.07,3.84-3.55,3.56,7.09,8.42,17.25,16.74,28.16,18.53,11.55,5.86,25.18,9.24,39.79,9.24,8.26,0,16.21-1.08,23.65-3.08-5.84,1.18-11.95,1.81-18.24,1.81Z"/>
      <path class="cls-7" d="m203.96,271.86c-.85,1.07-1.76,2.11-2.72,3.08,1.28,0,2.71-.73,3.92-1.69-.46-.29-.86-.74-1.2-1.39Z"/>
    </g>
    <ellipse class="cls-2" cx="143.15" cy="257.23" rx="17.81" ry="14.6"/>
    <path class="cls-8" d="m160.96,257.88c0,7.71-7.62,13.95-17.01,13.95s-17.01-6.25-17.01-13.95,7.62-13.95,17.01-13.95,17.01,6.25,17.01,13.95Z"/>
    <path class="cls-6" d="m148.12,249.08c2.06,0,2.55,1.39,1.1,3.09l-2.32,2.71c-1.45,1.7-3.83,1.7-5.28,0l-2.32-2.71c-1.45-1.7-.96-3.09,1.1-3.09h7.71Z"/>
    <path class="cls-5" d="m136,173.6c5.19-2.02-3.05-8.12-1.22-11.22,3.25-5.5,6.55.46,6.41,4.07,1.35-4.21-1.67-12.92,5.37-11.75,6.4,1.06,4.28,9.8,1.82,13.73,1.3-1.1,2.68-4.24,4.58-5.09,3.04-1.36,5.79,1.14,6.81,3.85,3.37,8.98-11.76,16.15-18.33,10.57"/>
    <path class="cls-12" d="m144.01,255.26v6.41s-1.92,4.2-7.04,2.43c0,0-2.56-.66-1.92-3.54"/>
    <path class="cls-12" d="m144.3,255.26v6.41s1.92,4.2,7.04,2.43c0,0,2.56-.66,1.92-3.54"/>
    <path class="cls-5" d="m85.73,199.86s9.93,21.78,32.02,15.37c22.1-6.4-2.88-17.61-2.88-17.61"/>
    <path class="cls-10" d="m87.33,205.62s11.21,13.13,24.66,12.17"/>
    <path class="cls-13" d="m176.99,200.82s18.57-11.21,24.66,13.77"/>
    <ellipse class="cls-3" cx="144" cy="251.01" rx="4.01" ry=".8"/>
    <path class="cls-11" d="m173.78,260.08s27.07-1.78,51.29,12.11"/>
    <path class="cls-11" d="m173.04,263.44s27.06,1.88,49.19,18.91"/>
    <path class="cls-11" d="m116.05,260.08s-27.07-1.78-51.29,12.11"/>
    <path class="cls-11" d="m116.79,263.44s-27.06,1.88-49.19,18.91"/>
    <ellipse class="cls-3" cx="173.9" cy="229.9" rx="3.86" ry="9.54"/>
    <ellipse class="cls-3" cx="105.62" cy="229.9" rx="3.87" ry="9.54"/>
  </g>
  <path class="cls-14" d="m67.4,348.41c1.73-1.23-.15-2.76-.32-2.73"/>
  <path class="cls-14" d="m71.85,348.41c.21-1.35-.97-2.7-1.27-2.73"/>
  <path class="cls-14" d="m131.32,349.12c1.73-1.23-.15-2.76-.32-2.73"/>
  <path class="cls-14" d="m135.78,349.12c.21-1.35-.97-2.7-1.27-2.73"/>
  <path class="cls-5" d="m84.99,280.77s-1.04,1.11-2.8,2.49c-.51-.59-1.16-1.06-1.99-1.29-3.78-1.07-10.06,4.75-10.06,4.75-2.24-.7-4.88.1-6.12.57-3.73-1.61-7.49-5.18-10.81-11.87,0,0,.67-7.98-3.67-5.78,0,0-7.63,6.1-1.67,6.64,0,0,14.19,37.31,39.82,16.68l-2.69-12.19Z"/>
</svg>