<?xml version="1.0" encoding="UTF-8"?>
<svg id="Capa_1" data-name="Capa 1" xmlns="http://www.w3.org/2000/svg" viewBox="0 0 245 350">
  <defs>
    <style>
      .cls-1 {
        stroke: #3d3c38;
        stroke-width: .29px;
      }

      .cls-1, .cls-2, .cls-3, .cls-4, .cls-5, .cls-6, .cls-7, .cls-8, .cls-9, .cls-10, .cls-11, .cls-12, .cls-13 {
        fill: none;
      }

      .cls-1, .cls-2, .cls-3, .cls-5, .cls-6, .cls-8, .cls-11 {
        stroke-miterlimit: 10;
      }

      .cls-14 {
        fill: #5c5d5e;
      }

      .cls-14, .cls-15, .cls-16, .cls-17, .cls-18, .cls-19, .cls-20, .cls-21, .cls-22, .cls-23, .cls-24, .cls-25, .cls-26, .cls-27, .cls-28, .cls-29 {
        stroke-width: 0px;
      }

      .cls-2 {
        stroke-width: .87px;
      }

      .cls-2, .cls-5, .cls-6, .cls-8, .cls-9, .cls-10, .cls-11, .cls-12, .cls-13 {
        stroke: #78766d;
      }

      .cls-15 {
        fill: #918e86;
      }

      .cls-3 {
        stroke: #912916;
        stroke-width: 1.33px;
      }

      .cls-3, .cls-4, .cls-7, .cls-9, .cls-10, .cls-12, .cls-13 {
        stroke-linecap: round;
      }

      .cls-16 {
        fill: #c2beb2;
      }

      .cls-4 {
        stroke: #706365;
        stroke-width: 1.17px;
      }

      .cls-4, .cls-7, .cls-9, .cls-10, .cls-12, .cls-13 {
        stroke-linejoin: round;
      }

      .cls-5, .cls-7, .cls-13 {
        stroke-width: .87px;
      }

      .cls-17 {
        fill: #240e10;
      }

      .cls-18 {
        fill: #949087;
      }

      .cls-6 {
        stroke-width: .85px;
      }

      .cls-19 {
        fill: #ff4827;
      }

      .cls-20 {
        fill: #b8341c;
      }

      .cls-21 {
        fill: #96481e;
      }

      .cls-7 {
        stroke: #4f4647;
      }

      .cls-22 {
        fill: #858279;
      }

      .cls-8 {
        stroke-width: .91px;
      }

      .cls-23 {
        fill: #69665e;
      }

      .cls-9 {
        stroke-width: .86px;
      }

      .cls-10 {
        stroke-width: .86px;
      }

      .cls-24 {
        fill: #b3afa4;
      }

      .cls-25 {
        fill: #9c998e;
      }

      .cls-11 {
        stroke-width: .86px;
      }

      .cls-12 {
        stroke-width: .86px;
      }

      .cls-26 {
        fill: #6e3516;
      }

      .cls-27 {
        fill: #78766d;
      }

      .cls-28 {
        fill: #a6a298;
      }

      .cls-29 {
        fill: #33180a;
      }
    </style>
  </defs>
  <g>
    <g>
      <path class="cls-28" d="m122.01,203.35s-10.24-30.94,17.74-40.59c0,0,11.8,23.9-17.74,40.59Z"/>
      <path class="cls-16" d="m109.64,203.71s-32.5-2.36-30.73-31.91c0,0,26.59-1.77,30.73,31.91Z"/>
      <path class="cls-5" d="m107.22,202c-3.89.44-9.51-3.31-12.56-5.45-3.63-2.55-6.95-5.62-9.16-9.45-1.19-2.06-3.55-6.94-1.6-9.17,2.41-2.77,7.23,1.94,9.08,3.52-.09,0-.1-.28-.19-.54"/>
      <g>
        <path class="cls-21" d="m187.45,275.82s9.17-21.32,10.09-31.86c0,0,.23-.69-1.6-7.11,0,0-4.13-10.09,1.6-15.13,0,0,5.27-5.73,12.61-2.98,0,0,11.92,4.58,1.6,19.48,0,0-3.9,3.21-7.79,6.19-3.5,2.68-14.9,37.13-14.9,37.13l-11.23,31.18s-3.9,2.98-2.29-3.21l8.71-28.2"/>
        <path class="cls-26" d="m197.53,226.3s1.6-6.19,8.48-5.96c0,0,5.73-.46,4.36,6.88,0,0-1.15,9.17-7.56,11.69,0,0-8.25,1.83-5.27-12.61Z"/>
        <path class="cls-29" d="m206.01,220.34c-6.88-.23-8.48,5.96-8.48,5.96-.75,3.66-.79,6.27-.42,8.13.4-1.23,3.99-11.3,13.03-10.65.11,0,.22.01.32.02-.71-3.75-4.45-3.46-4.45-3.46Z"/>
      </g>
      <path class="cls-27" d="m188.14,276.73s5.96-1.6,5.04,2.98l-.92,2.75s1.83.23,0,2.75c0,0,.23,2.98-3.21,3.67,0,0-5.73,1.83-6.42-1.83,0,0-2.06-.69,0-2.06,0,0-2.52-1.38.23-3.9,2.75-2.52,4.36-3.21,4.36-3.21"/>
      <path class="cls-27" d="m148.64,325.44s.59,11.82,7.09,17.73c0,0,3.55,5.32-4.14,2.95,0,0,2.47,4.19-3.71,1.67,0,0-.92,4.13-5.73-2.52,0,0-4.36-6.65-4.13-14.21"/>
      <path class="cls-25" d="m153.15,345.27s2.75-.46,3.21,3.44c0,0-4.72-1.74-6.37-.75,0,0-.73-2.68,3.16-2.68Z"/>
      <path class="cls-25" d="m149.48,345.96s2.75-.46,3.21,3.44c0,0-4.72-1.74-6.37-.75,0,0-.74-2.68,3.16-2.68Z"/>
      <path class="cls-15" d="m58.82,310.08s-16.55,28.36-29.55,26c0,0-2.36,3.55,8.27,4.14,0,0,31.32,7.09,43.14-17.14"/>
      <path class="cls-24" d="m61.85,312.63l18.24,11.6c.2-.38.4-.76.59-1.15l-21.86-13s-16.55,28.36-29.55,26c0,0-.18.28-.22.69,13.73,2.67,32.79-24.13,32.79-24.13Z"/>
      <path class="cls-27" d="m151.59,260.44s30.14,27.18,14.18,55.55c0,0-2.4,12.09-14.09,16.91-21.03,8.66-55.82,16.99-79.27-14.54,0,0-17.73-34.86-6.5-62.64,11.23-27.77,23.64-37.23,23.64-37.23"/>
      <path class="cls-23" d="m152.34,242.76c0,13.29-17.02,24.07-38.02,24.07s-38.02-10.78-38.02-24.07,17.02-24.07,38.02-24.07,38.02,10.78,38.02,24.07Z"/>
      <path class="cls-25" d="m92.3,225.75c3.33-6.35,7.33-12.45,12.03-17.31,0,0-67.36,1.18-61.46,70.91,0,0,1.18,11.23,13.59,30.14,0,0,6.5,10.64,15.95,15.36,15.95,5.32,28.19-19.42,20.09-30.73-21.96-30.68,5.32-47.27,5.32-47.27l-5.53-21.1Z"/>
      <path class="cls-22" d="m71.33,312.55c-12.41-18.91-13.59-30.14-13.59-30.14-3.72-43.87,21.57-60.61,40.83-66.99,1.79-2.51,3.7-4.87,5.75-6.99,0,0-67.36,1.18-61.46,70.91,0,0,1.18,11.23,13.59,30.14,0,0,6.5,10.64,15.95,15.36,3.44,1.15,6.7.89,9.63-.32-6.53-5.15-10.71-11.99-10.71-11.99Z"/>
      <path class="cls-5" d="m82.92,213.24c-.86.46-3.84,2.13-3.21,4.31.71,2.48,4.6.87,6.35.3-.96,1.13-3.44,4.44-2.01,5.95,1.09,1.15,3.51-.03,4.22-.67-4.26,4.11.72,8.5,5,5.7-1.64-.64-1.46,2-.51,2.94,1.45,1.45,4.77.58,6.44.04"/>
      <path class="cls-5" d="m70.08,218.28c-1.04,1.35-4.72,3.59-3.45,5.56,1.6,2.5,6.33-.62,7.72-1.82-1.53,2.21-5.64,6.22-4.5,9.32,1.49,4.09,6.5-1.59,8.23-2.91-1,2.22-3.25,7.06.25,8.24,2.99,1,5.26-3.11,6.44-5.27-2.31,4.35-.32,14.21,4.29,7.06-.43,2.18-.84,6.23,1.19,7.79,1.89,1.45,4.09.19,5.24-1.54-.44,1.1-.19,2.43.5,3.4.52.29-.03-.13,0-.26"/>
      <path class="cls-5" d="m58.39,227.91c-1.56,1.11-3.34,3.98-1.62,5.56,2.23,2.05,5.89-.11,7.71-1.41-1.16,2.39-3.94,7.28-1.74,9.79,1.96,2.24,6.3.25,8.4-.86-.94,2.39-2.18,5.82.81,7.27,2.08,1.01,5.24-.09,6.28-2.05-3.05,4.29.43,9.77,4.6,5.32-2.99,3.29,3.57,6.6,4.89,4.34"/>
      <path class="cls-5" d="m49.45,240.06c-1.41,1.02-.91,4.59.28,5.73,1.6,1.53,4.92,1.1,6.8.39-2.66,3.52,1.88,12.53,6.19,7.93-.56,2.78-.63,6.74,2.79,7.68,2.02.55,6.18-.64,5.68-3.33-3.07,4.45,2.84,9.1,6.65,5.92-2.69,3.22,3.74,4.17,5.75,3.59-.13-.32-.38-.26-.67-.41"/>
      <path class="cls-11" d="m45.76,253.12c-1.76,4.76,2.72,10.53,7.5,7.36-.66,4.17-.97,13.36,5.16,7.85-.48,2.46-.98,6.21,1.52,7.77,1.91,1.19,5.21-.04,5.73-2.33-2.62,5.91,8.69,7.18,8.24,2.34-.19,2.67.68,6.28,3.83,6.13,1.47-.07,4.11-2.01,2.64-3.42-.28,2.52,3.4,3.16,4.62,3.42"/>
      <path class="cls-2" d="m42.85,274.9c-.18,1.95.97,5.28,2.51,6.43,1.96,1.46,5.19.66,5.87-1.79-.04,2.66,1.01,7.05,3.93,7.92,1.86.56,4.67-.62,4.39-2.64-2.76,5.18,8.21,9.75,7.92,3.89.34,2.27,1.52,4.78,4.1,4.98,1.72.13,3.91-.99,3.87-2.92.26,4.93,7.75,4.5,6.88,1.61.28,2.9,5.94,2.89,7.48,2.91"/>
      <path class="cls-8" d="m51.06,297.14c-.25,2.58,2.47,6.14,4.15,8.03,2.03,2.29,6.97,2.35,7.49-1.32-.32,2.42,1.94,6.48,4.44,7.34,2.68.93,5.2-1.28,3.83-3.69.81,2.26,2.38,5.74,5.15,6.14,2.72.39,3.38-1.51,3.14-3.61,1.84,4.53,7.07,5.81,8.45.7.17,1.21,1.87,2.93,3.27,3.19,1.27.24,4.91-.88,2.66-2.13"/>
      <path class="cls-6" d="m62.75,316.85c.11,3.5,11.4,5.8,12.7,1.92,1.27,1.82,3.76,3.56,6.04,2.85,1.45-.45,2.64-1.91,1-2.68,1.04,1.68,2.98,2.52,4.83,2.22.44-.37-.01-.26-.02-.42"/>
      <path class="cls-19" d="m47.16,293.01s34.38,11.46,64.87,4.36c0,0,6.88-27.97,2.52-39.66h5.27s2.25,23.66-2.75,39.43c0,0,22.69-2.06,32.09,1.15,0,0,4.36-23.38-1.15-39.43l4.36-.46s4.88,25.33,1.83,40.34c0,0,13.07,6.42,14.67,10.54,0,0-8.71,24.3-6.65,29.34,0,0-16.05-2.98-32.09,5.27-16.05,8.25-29.34,2.75-35.53-2.75,0,0,3.9-24.76,1.38-36.68,0,0-33.47,1.15-46.53-7.34,0,0-3.44-.69-2.29-4.13Z"/>
      <path class="cls-20" d="m135.83,338.95c-5.7,5.5-19.85,3.14-19.85,3.14-12.63-2.86-18.3-28.46-19.67-35.71,1.8,12.46-1.71,34.77-1.71,34.77,6.19,5.5,19.48,11,35.53,2.75,13-6.68,25.99-6,30.46-5.5-4.59-4.41-19.43-4.61-24.77.55Z"/>
      <path class="cls-20" d="m150.96,298.86s3.34-24.17-.79-36.35c-.53-1.56-1.41-2.43-1.94-3.01,5.17,16.02.93,38.78.93,38.78l1.8.58Z"/>
      <path class="cls-20" d="m116.77,260.54l-1.08-2.83h-1.14c4.36,11.69-2.52,39.66-2.52,39.66-.46.11-.92.21-1.38.31l.03.21,1.97-.59c5.31-9.63,4.13-36.75,4.13-36.75Z"/>
      <path class="cls-16" d="m131.74,196.05s28.35-2.54,34.16,17.08c0,0,5.09,29.07,18.54,31.62,0,0,8.36,3.63,5.09,10.18,0,0-11.27,8-18.9,6.18-7.63-1.82-62.51,12.36-77.05-17.44,0,0-9.81-18.54,4.72-27.62,0,0,9.45-23.26,33.44-19.99Z"/>
      <path class="cls-17" d="m120.57,221.46c3.36,0,6.48.85,9.07,2.31-.26-1.69-.82-3.52-1.68-5.35-2.67-5.63-7.21-9.07-10.15-7.68-2.66,1.26-3.1,6.04-1.18,11.11,1.26-.26,2.58-.41,3.94-.41Z"/>
      <path class="cls-17" d="m154.85,222.35c3.48-.49,6.27-.24,8.49.51,1.43-5.82.49-11.2-2.17-12.12-2.72-.94-6.19,3.13-7.77,9.09-.26.97-.45,1.93-.57,2.87.66-.14,1.33-.26,2.01-.35Z"/>
      <g>
        <path class="cls-18" d="m170.63,261.1c.49.12.99.19,1.51.23-.47-.09-.97-.16-1.51-.23Z"/>
        <path class="cls-18" d="m169.44,260.95c-21.64-2.6-49.52-1.79-49.52-1.79-36.55-8.25-17.88-41.66-17.88-41.66.39-9.04,13.52-18.52,13.52-18.52l-.29-.7c-11.95,5.45-16.95,17.75-16.95,17.75-14.54,9.09-4.72,27.62-4.72,27.62,13.93,28.56,64.91,16.73,75.85,17.3Z"/>
      </g>
      <path class="cls-14" d="m127.39,222.72c-.25-.79-.6-1.63-1.04-2.46-1.73-3.32-4.22-5.44-5.57-4.74-1.17.61-1.09,3.13.08,5.96,2.33.03,4.53.48,6.52,1.25Z"/>
      <path class="cls-14" d="m160.89,222.28c.54-3.49.01-6.48-1.24-6.77-1.3-.3-2.88,2.42-3.53,6.09-.04.21-.07.41-.1.61,1.82-.18,3.43-.14,4.86.07Z"/>
      <path class="cls-27" d="m80.09,325.44s-.59,11.82-7.09,17.73c0,0-3.55,5.32,4.14,2.95,0,0-2.47,4.19,3.71,1.67,0,0,.92,4.13,5.73-2.52,0,0,4.36-6.65,4.13-14.21"/>
      <path class="cls-25" d="m72.37,343.67s-2.75-.46-3.21,3.44c0,0,4.72-1.74,6.37-.75,0,0,.73-2.68-3.16-2.68Z"/>
      <path class="cls-25" d="m75.58,345.27s-2.75-.46-3.21,3.44c0,0,4.72-1.74,6.37-.75,0,0,.73-2.68-3.16-2.68Z"/>
      <path class="cls-25" d="m79.25,345.96s-2.75-.46-3.21,3.44c0,0,4.72-1.74,6.37-.75,0,0,.74-2.68-3.16-2.68Z"/>
      <path class="cls-25" d="m156.36,343.67s2.75-.46,3.21,3.44c0,0-4.72-1.74-6.37-.75,0,0-.73-2.68,3.16-2.68Z"/>
      <path class="cls-5" d="m74.21,331.52s-15.82,3.67-19.94-13.98"/>
      <path class="cls-5" d="m48.99,324.18s3.21,15.59,14.67,13.75"/>
      <path class="cls-5" d="m44.64,329s-2.75,8.94,4.13,12.15"/>
      <path class="cls-5" d="m38.91,333.58s-1.83,4.81.92,6.88"/>
      <path class="cls-27" d="m92.09,280.63s1.83,14.9-4.36,23.61c0,0-5.73.46-5.73-3.21,0,0,5.5-14.67,2.98-23.61"/>
      <path class="cls-27" d="m87.27,303.78c1.37.81,4.1,2.32,3.67,4.58-.65,3.41-3.13-.72-4.14-1.76-.34,1.25-2.07,6.3-3.87,6.37-2.83.1.09-4.85.35-5.95-.88,1.45-4.01,4.38-5.86,2.73-2.35-2.1,3.49-3.19,4.49-4.38-1.81,1.25-8.17.91-5.19-1.59.75-.63,3.12-.36,4.14-.91,1.08-.58,1.9-1.7,2.75-2.29"/>
      <path class="cls-19" d="m47.39,293.7c-2.9-.94-4.68-4.88-7.34-5.74-2.51-.81-2.9,5.63-3.25,7.8-.12.73-.86,3-.42,3.67.7,1.08,3.21.23,4.32,0,2.83-.62,7.18-.95,9.6-2.12-1.91-2.55-7.57.26-10.42.02-.1-1.81-.12-3.7.23-5.44,3.05,1.28,6.01,2.98,9.13,3.87"/>
      <path class="cls-19" d="m48.19,296.63c-1.91,2.37-6.24,2.62-7.99,4.8-1.66,2.06,4.22,4.73,6.12,5.84.64.37,2.49,1.88,3.28,1.71,1.26-.27,1.37-2.91,1.54-4.03.44-2.86,1.69-7.04,1.46-9.72-3.06.87-2.47,7.16-3.71,9.74-1.72-.56-3.5-1.21-5-2.16,2.29-2.39,4.93-4.54,6.89-7.14"/>
      <path class="cls-27" d="m161.77,273.98s13.98,13.52,21.09,3.67c0,0,2.06-2.98,4.58-1.83,0,0,2.52,2.29.46,5.96,0,0-3.9,3.9-3.67-.46,0,0-9.86,7.79-19.26,1.38"/>
      <path class="cls-1" d="m187.91,275.82c1.64,1.58,2.27,6.75.64,8.66-3.14,3.66-3.45-2.84-3.39-4.46,0,1.14-.73,2.29-1.83,2.68"/>
      <path class="cls-3" d="m118.23,306.68s29.61.87,37.58-1.75c0,0,2.85,15.74-18.79,19.24,0,0-17.08-1.75-18.79-17.49Z"/>
      <path class="cls-20" d="m127.58,306.92s-5.48,14.66,9.44,17.26c0,0-17.1-2.12-17.89-17.26h8.45Z"/>
      <path class="cls-4" d="m111.04,222.88s9.49-4.13,20.64,2.06c0,0,5.61,2.56-.22,11.31"/>
      <path class="cls-4" d="m176.9,251.35s-.39-3.69,2.14-3.3c0,0,1.36.19,1.17,1.55"/>
      <path class="cls-4" d="m182.93,249.6s-.97-2.53,2.33-1.75c0,0,1.55.58.19,3.31"/>
      <path class="cls-7" d="m172.48,253.62c-.5,2.7.5,4.39.5,4.39,0,0,1.8,3.64,7.44,1.11,0,0,2.25-.51,2.74-2.91"/>
    </g>
    <path class="cls-4" d="m153.95,222.83s14.83-4.07,13.08,6.43"/>
  </g>
  <path class="cls-25" d="m113.48,199.53s19.62,6.33,20.21,20.51c0,0-1.77,14.18,10.64,14.77,0,0,10.64.59,12.41-4.14,0,0,1.18-2.36-2.36-8.27,0,0-3.55-2.96-2.36-10.05,1.18-7.09,3.53-12.01-7.68-15.36,0,0-25.53-5.15-30.85,2.53Z"/>
  <path class="cls-22" d="m148.66,232.74c-12.41-.59-10.64-14.77-10.64-14.77-.59-14.18-17.77-20.76-17.5-21.03-2.62-.6-6.03,1.07-7.18,2.73,0,0,19.28,6.74,19.87,20.92,0,0-1.77,14.18,10.64,14.77,0,0,9.19.51,11.91-3.22-3.4.8-7.1.6-7.1.6Z"/>
  <path class="cls-13" d="m117.72,201.27c.41-.55,5.18,3.12,6.6,3.5,3.59.96,2.54-2.12,1.17-4.1,1.27,1.54,4.63,5.38,6.9,4.96,2.44-.45,1.56-3.63.96-5.21,2.13,4.64,8.55,8.86,7.81.9.55,1.79,1.46,5.71,4.08,5.45,2.12-.21,1.53-2.22,1.64-3.83.78,1.51,3.27,6.57,5.63,4.31-.2-.42.21-.96-.21-2.26"/>
  <path class="cls-9" d="m130.19,210.41c-.44,2.49,7.5,4.69,8.31.55,1.01,3.73,4.96,4.81,5.8.48.34,3.21,4.69,4.34,4.66,1.26.26,1.31.74,3.09,2.14,2.67.68-.18.96-1.87.8-2.1"/>
  <path class="cls-10" d="m133.64,219.15c1.08,1.17,2.09,3.46,4.14,3.45,1.88,0,3.14-1.96,2.46-3.6.83,1.59,1.82,3.79,3.78,4.06,2,.27,2.68-1.08,2.43-2.94.03,3.43,4.66,5.6,3.98,1.16.04,2.26,1.92,3.43,3.94,3.11.2-.44-.28-1.97-.35-2.16"/>
  <path class="cls-12" d="m133.84,227.7c.82,1.25,1.63,2.42,3.45,2.26,1.12-.1,1.83-1.25,1.43-2.31.12,3.01,5.97,3.83,5.54.36.94,2.83,5.65,3.1,6.05-.21.57,1.45,1.98,2.33,3.58,2.24.59-.04,1.32-.31,1.8-.68,1.04-.78.48-1.39.82-1.59"/>
</svg>