<svg xmlns="http://www.w3.org/2000/svg" viewBox="0 0 548.77 548.01"><defs><style>.cls-1{fill:#a6a298;}.cls-2{fill:#c2beb2;}.cls-13,.cls-14,.cls-15,.cls-16,.cls-22,.cls-23,.cls-24,.cls-25,.cls-26,.cls-27,.cls-28,.cls-29,.cls-3{fill:none;}.cls-13,.cls-14,.cls-15,.cls-16,.cls-26,.cls-27,.cls-28,.cls-29,.cls-3{stroke:#78766d;}.cls-13,.cls-14,.cls-15,.cls-16,.cls-22,.cls-23,.cls-3{stroke-miterlimit:10;}.cls-25,.cls-26,.cls-3{stroke-width:2.57px;}.cls-4{fill:#96481e;}.cls-5{fill:#6e3516;}.cls-6{fill:#33180a;}.cls-7{fill:#78766d;}.cls-8{fill:#9c998e;}.cls-9{fill:#918e86;}.cls-10{fill:#b3afa4;}.cls-11{fill:#69665e;}.cls-12{fill:#858279;}.cls-13{stroke-width:2.53px;}.cls-14{stroke-width:2.56px;}.cls-15{stroke-width:2.67px;}.cls-16{stroke-width:2.49px;}.cls-17{fill:#ff4827;}.cls-18{fill:#b8341c;}.cls-19{fill:#240e10;}.cls-20{fill:#949087;}.cls-21{fill:#5c5d5e;}.cls-22{stroke:#3d3c38;stroke-width:0.86px;}.cls-23{stroke:#912916;stroke-width:3.91px;}.cls-23,.cls-24,.cls-25,.cls-26,.cls-27,.cls-28,.cls-29{stroke-linecap:round;}.cls-24{stroke:#706365;stroke-width:3.42px;}.cls-24,.cls-25,.cls-26,.cls-27,.cls-28,.cls-29{stroke-linejoin:round;}.cls-25{stroke:#4f4647;}.cls-27{stroke-width:2.53px;}.cls-28{stroke-width:2.52px;}.cls-29{stroke-width:2.52px;}</style></defs><title>Recurso 7</title><g id="Capa_2" data-name="Capa 2"><g id="Capa_1-2" data-name="Capa 1"><path class="cls-1" d="M273,119.18S242.9,28.34,325.05,0C325.05,0,359.7,70.16,273,119.18Z"/><path class="cls-2" d="M236.63,120.24S141.2,113.3,146.4,26.54C146.4,26.54,224.48,21.34,236.63,120.24Z"/><path class="cls-3" d="M229.51,115.22c-11.42,1.28-27.93-9.72-36.87-16-10.65-7.48-20.4-16.5-26.9-27.74-3.49-6-10.41-20.37-4.71-26.94,7.07-8.15,21.22,5.7,26.65,10.34-.27,0-.28-.82-.57-1.58"/><path class="cls-4" d="M465.08,332s26.92-62.6,29.61-93.56c0,0,.67-2-4.71-20.87,0,0-12.12-29.61,4.71-44.42,0,0,15.48-16.83,37-8.75,0,0,35,13.46,4.71,57.21,0,0-11.44,9.42-22.88,18.17-10.27,7.85-43.75,109-43.75,109l-33,91.54s-11.44,8.75-6.73-9.42l25.58-82.79"/><path class="cls-5" d="M494.7,186.57s4.71-18.17,24.9-17.5c0,0,16.83-1.35,12.79,20.19,0,0-3.37,26.92-22.21,34.33C510.18,223.59,485.95,229,494.7,186.57Z"/><path class="cls-6" d="M519.6,169.07c-20.19-.67-24.9,17.5-24.9,17.5-2.21,10.73-2.31,18.4-1.23,23.87,1.18-3.61,11.7-33.17,38.25-31.27l1,.05C530.58,168.19,519.6,169.07,519.6,169.07Z"/><path class="cls-7" d="M467.1,334.64s17.5-4.71,14.81,8.75l-2.69,8.08s5.38.67,0,8.08c0,0,.67,8.75-9.42,10.77,0,0-16.83,5.38-18.85-5.38,0,0-6.06-2,0-6.06,0,0-7.4-4,.67-11.44S464.41,338,464.41,338"/><path class="cls-7" d="M351.14,477.66s1.74,34.7,20.82,52.05c0,0,10.41,15.62-12.15,8.68,0,0,7.26,12.31-10.91,4.91,0,0-2.69,12.12-16.83-7.4,0,0-12.79-19.52-12.12-41.73"/><path class="cls-8" d="M364.38,535.89s8.08-1.34,9.42,10.1c0,0-13.86-5.1-18.71-2.22C355.1,543.77,352.94,535.89,364.38,535.89Z"/><path class="cls-8" d="M353.61,537.91s8.08-1.34,9.42,10.1c0,0-13.86-5.1-18.71-2.22C344.33,545.79,342.17,537.91,353.61,537.91Z"/><path class="cls-9" d="M87.41,432.55S38.83,515.83.66,508.89c0,0-6.94,10.41,24.29,12.15,0,0,92,20.82,126.66-50.32"/><path class="cls-10" d="M96.31,440l53.56,34.06q.89-1.66,1.73-3.38l-64.2-38.17S38.83,515.83.66,508.89a4.65,4.65,0,0,0-.64,2C40.35,518.73,96.31,440,96.31,440Z"/><path class="cls-7" d="M359.81,286.8s88.49,79.81,41.64,163.1c0,0-7,35.51-41.37,49.64-61.76,25.43-163.91,49.9-232.77-42.7,0,0-52.05-102.37-19.09-183.92s69.4-109.31,69.4-109.31"/><ellipse class="cls-11" cx="250.35" cy="234.88" rx="111.65" ry="70.68"/><path class="cls-8" d="M185.7,184.94c9.78-18.64,21.51-36.56,35.31-50.82,0,0-197.8,3.47-180.45,208.21,0,0,3.47,33,39.91,88.49,0,0,19.09,31.23,46.85,45.11,46.85,15.62,82.76-57,59-90.22-64.49-90.1,15.62-138.8,15.62-138.8Z"/><path class="cls-12" d="M124.13,439.8c-36.44-55.52-39.91-88.49-39.91-88.49-10.92-128.81,63.33-178,119.9-196.68A176.94,176.94,0,0,1,221,134.12S23.21,137.59,40.56,342.32c0,0,3.47,33,39.91,88.49,0,0,19.09,31.23,46.85,45.11a39.56,39.56,0,0,0,28.27-.93C136.41,459.88,124.13,439.8,124.13,439.8Z"/><path class="cls-3" d="M158.16,148.2c-2.54,1.36-11.28,6.26-9.44,12.65,2.09,7.27,13.5,2.56,18.66.87-2.82,3.32-10.09,13-5.9,17.47,3.2,3.39,10.31-.09,12.39-2-12.52,12.06,2.11,25,14.67,16.74-4.81-1.88-4.28,5.86-1.5,8.64,4.27,4.27,14,1.69,18.91.1"/><path class="cls-3" d="M120.47,163c-3.05,4-13.86,10.53-10.13,16.34,4.71,7.34,18.58-1.83,22.68-5.33-4.5,6.48-16.55,18.26-13.22,27.38,4.39,12,19.07-4.68,24.16-8.54-2.93,6.53-9.55,20.73.74,24.19,8.77,3,15.45-9.14,18.91-15.46-6.78,12.78-.95,41.71,12.59,20.72-1.25,6.39-2.46,18.29,3.5,22.86,5.54,4.25,12,.55,15.38-4.53a10.8,10.8,0,0,0,1.47,10c1.54.86-.09-.37,0-.77"/><path class="cls-3" d="M86.15,191.28c-4.58,3.25-9.81,11.68-4.74,16.34,6.54,6,17.28-.33,22.64-4.15-3.4,7-11.58,21.38-5.12,28.75,5.77,6.59,18.49.72,24.68-2.52-2.77,7-6.39,17.09,2.39,21.35,6.12,3,15.4-.26,18.44-6-9,12.59,1.26,28.69,13.49,15.63-8.77,9.66,10.48,19.39,14.37,12.74"/><path class="cls-3" d="M59.9,227c-4.13,3-2.68,13.48.81,16.82,4.7,4.5,14.44,3.23,20,1.15-7.82,10.34,5.52,36.78,18.18,23.28C97.21,276.36,97,288,107,290.76c5.93,1.62,18.14-1.89,16.69-9.77-9,13.06,8.35,26.71,19.53,17.4-7.89,9.47,11,12.25,16.88,10.55-.38-.94-1.11-.76-2-1.21"/><path class="cls-13" d="M49,265.32c-5.17,14,8,30.92,22,21.61-1.93,12.24-2.85,39.22,15.15,23-1.42,7.22-2.89,18.23,4.46,22.82,5.61,3.51,15.3-.13,16.84-6.84C99.82,343.3,133,347,131.69,332.81c-.57,7.83,2,18.43,11.24,18,4.31-.2,12.06-5.89,7.74-10.06-.81,7.4,10,9.27,13.55,10"/><path class="cls-14" d="M40.5,329.26c-.53,5.72,2.84,15.52,7.38,18.89,5.77,4.28,15.23,1.95,17.23-5.24-.12,7.81,3,20.69,11.55,23.26,5.46,1.64,13.7-1.83,12.88-7.74-8.1,15.21,24.11,28.64,23.24,11.41,1,6.68,4.48,14,12,14.62,5,.4,11.47-2.9,11.38-8.58.77,14.49,22.77,13.2,20.21,4.73.81,8.5,17.43,8.5,21.95,8.54"/><path class="cls-15" d="M64.61,394.55c-.74,7.56,7.26,18,12.18,23.59,6,6.73,20.46,6.89,22-3.86-.93,7.11,5.69,19,13.05,21.56,7.88,2.72,15.28-3.76,11.23-10.83,2.38,6.64,7,16.85,15.13,18,8,1.14,9.91-4.44,9.22-10.59,5.4,13.31,20.75,17.05,24.81,2.07.49,3.55,5.49,8.6,9.59,9.38,3.72.71,14.41-2.6,7.81-6.25"/><path class="cls-16" d="M98.93,452.43c.33,10.27,33.46,17,37.28,5.63,3.73,5.34,11,10.44,17.72,8.37,4.26-1.32,7.74-5.62,2.93-7.85a14.15,14.15,0,0,0,14.19,6.53c1.29-1.09,0-.75-.07-1.23"/><path class="cls-17" d="M53.17,382.43s101,33.65,190.48,12.79c0,0,20.19-82.12,7.4-116.44h15.48s6.62,69.48-8.08,115.77c0,0,66.63-6.06,94.23,3.36,0,0,12.79-68.65-3.37-115.77l12.79-1.35s14.32,74.39,5.38,118.46c0,0,38.36,18.85,43.08,31,0,0-25.58,71.35-19.52,86.15,0,0-47.12-8.75-94.23,15.48s-86.15,8.08-104.33-8.08c0,0,11.44-72.69,4-107.69,0,0-98.27,3.37-136.63-21.54C59.9,394.55,49.8,392.53,53.17,382.43Z"/><path class="cls-18" d="M313.53,517.32c-16.73,16.16-58.28,9.23-58.28,9.23-37.1-8.41-53.75-83.57-57.75-104.86,5.29,36.58-5,102.09-5,102.09,18.17,16.15,57.21,32.31,104.33,8.08,38.16-19.62,76.32-17.62,89.44-16.14C372.78,502.75,329.22,502.18,313.53,517.32Z"/><path class="cls-18" d="M358,399.61s9.81-71-2.31-106.74a22.94,22.94,0,0,0-5.71-8.83c15.19,47,2.74,113.87,2.74,113.87Z"/><path class="cls-18" d="M257.56,287.1l-3.17-8.32H251c12.79,34.33-7.4,116.44-7.4,116.44q-2,.47-4.05.91l.09.6,5.77-1.73C261,366.73,257.56,287.1,257.56,287.1Z"/><path class="cls-2" d="M301.53,97.73s83.24-7.47,100.31,50.16c0,0,14.94,85.37,54.42,92.84,0,0,24.54,10.67,14.94,29.88,0,0-33.08,23.48-55.49,18.14S232.17,325,189.48,237.52c0,0-28.81-54.42,13.87-81.1C203.35,156.42,231.1,88.12,301.53,97.73Z"/><path class="cls-19" d="M268.72,172.36a54.26,54.26,0,0,1,26.64,6.8,57.91,57.91,0,0,0-4.95-15.7c-7.83-16.54-21.17-26.63-29.81-22.54-7.81,3.7-9.09,17.74-3.47,32.63A56.71,56.71,0,0,1,268.72,172.36Z"/><path class="cls-19" d="M369.36,174.95c10.22-1.43,18.41-.72,24.93,1.5,4.21-17.08,1.45-32.88-6.36-35.58-8-2.77-18.19,9.19-22.81,26.7a69.63,69.63,0,0,0-1.68,8.42C365.39,175.58,367.36,175.23,369.36,174.95Z"/><path class="cls-20" d="M415.71,288.75a29,29,0,0,0,4.43.68C418.76,289.17,417.28,288.95,415.71,288.75Z"/><path class="cls-20" d="M412.2,288.31c-63.54-7.64-145.41-5.25-145.41-5.25-107.32-24.23-52.51-122.32-52.51-122.32C215.45,134.2,254,106.36,254,106.36l-.84-2.06c-35.1,16-49.78,52.13-49.78,52.13-42.69,26.68-13.87,81.1-13.87,81.1C230.39,321.38,380.08,286.65,412.2,288.31Z"/><path class="cls-21" d="M288.74,176a46.09,46.09,0,0,0-3-7.24c-5.08-9.75-12.4-16-16.35-13.92-3.42,1.78-3.19,9.2.23,17.49A55.34,55.34,0,0,1,288.74,176Z"/><path class="cls-21" d="M387.11,174.75c1.59-10.25,0-19-3.63-19.88S375,162,373.11,172.75c-.11.6-.2,1.2-.29,1.79A59.33,59.33,0,0,1,387.11,174.75Z"/><path class="cls-7" d="M149.87,477.66s-1.73,34.7-20.82,52.05c0,0-10.41,15.62,12.15,8.68,0,0-7.26,12.31,10.91,4.91,0,0,2.69,12.12,16.83-7.4,0,0,12.79-19.52,12.12-41.73"/><path class="cls-8" d="M127.2,531.18s-8.08-1.34-9.42,10.1c0,0,13.86-5.1,18.71-2.21C136.49,539.06,138.64,531.18,127.2,531.18Z"/><path class="cls-8" d="M136.62,535.89s-8.08-1.34-9.42,10.1c0,0,13.86-5.1,18.71-2.22C145.91,543.77,148.07,535.89,136.62,535.89Z"/><path class="cls-8" d="M147.39,537.91s-8.08-1.34-9.42,10.1c0,0,13.86-5.1,18.71-2.22C156.68,545.79,158.84,537.91,147.39,537.91Z"/><path class="cls-8" d="M373.81,531.18s8.08-1.34,9.42,10.1c0,0-13.86-5.1-18.71-2.21C364.52,539.06,362.36,531.18,373.81,531.18Z"/><path class="cls-3" d="M132.59,495.51S86.14,506.28,74,454.45"/><path class="cls-3" d="M58.55,474s9.42,45.77,43.08,40.38"/><path class="cls-3" d="M45.76,488.1s-8.08,26.25,12.11,35.67"/><path class="cls-3" d="M28.93,501.56s-5.38,14.13,2.69,20.19"/><path class="cls-7" d="M185.09,346.09s5.38,43.75-12.79,69.33c0,0-16.83,1.35-16.83-9.42,0,0,16.15-43.08,8.75-69.33"/><path class="cls-7" d="M171,414.07c4,2.37,12,6.81,10.77,13.46-1.91,10-9.2-2.1-12.15-5.18-1,3.68-6.08,18.5-11.37,18.69-8.3.3.26-14.23,1-17.48-2.59,4.24-11.78,12.85-17.21,8-6.91-6.17,10.24-9.38,13.19-12.85-5.31,3.67-24,2.67-15.24-4.68,2.21-1.86,9.16-1,12.15-2.66,3.16-1.71,5.57-5,8.08-6.73"/><path class="cls-17" d="M53.84,384.45c-8.51-2.75-13.75-14.34-21.55-16.86-7.38-2.38-8.52,16.54-9.56,22.92-.35,2.14-2.53,8.81-1.24,10.79,2.06,3.16,9.43.69,12.67,0,8.31-1.81,21.08-2.79,28.18-6.22-5.6-7.49-22.24.76-30.61.07a64.67,64.67,0,0,1,.67-16c9,3.75,17.64,8.74,26.82,11.37"/><path class="cls-17" d="M56.2,393.08c-5.62,7-18.32,7.7-23.47,14.08-4.87,6,12.39,13.88,18,17.13,1.87,1.09,7.32,5.52,9.62,5,3.69-.79,4-8.55,4.53-11.83,1.29-8.41,5-20.68,4.29-28.54-9,2.54-7.26,21-10.91,28.6a64.64,64.64,0,0,1-14.68-6.35c6.71-7,14.48-13.34,20.23-21"/><path class="cls-7" d="M389.7,326.57s41.06,39.71,61.92,10.77c0,0,6.06-8.75,13.46-5.38,0,0,7.4,6.73,1.35,17.5,0,0-11.44,11.44-10.77-1.35,0,0-28.94,22.88-56.54,4"/><path class="cls-22" d="M466.43,332c4.83,4.65,6.67,19.83,1.87,25.43-9.22,10.74-10.14-8.34-9.94-13.11a8.5,8.5,0,0,1-5.39,7.87"/><path class="cls-23" d="M261.85,422.58s86.94,2.57,110.35-5.14c0,0,8.36,46.23-55.17,56.5C317,473.94,266.86,468.8,261.85,422.58Z"/><path class="cls-18" d="M289.3,423.27S273.2,466.33,317,473.94c0,0-50.22-6.24-52.53-50.67Z"/><path class="cls-24" d="M240.74,176.51s27.87-12.12,60.59,6.06c0,0,16.46,7.53-.66,33.21"/><path class="cls-24" d="M434.12,260.11s-1.14-10.84,6.28-9.7c0,0,4,.57,3.42,4.57"/><path class="cls-24" d="M451.81,255s-2.85-7.42,6.85-5.14c0,0,4.56,1.72.57,9.71"/><path class="cls-25" d="M421.15,266.77c-1.46,7.91,1.47,12.9,1.47,12.9s5.29,10.67,21.84,3.26a11.27,11.27,0,0,0,8.06-8.53"/><path class="cls-24" d="M366.72,176.37s43.53-12,38.4,18.87"/><path class="cls-8" d="M247.91,108s57.61,18.59,59.35,60.23c0,0-5.21,41.64,31.23,43.38,0,0,31.23,1.74,36.44-12.14,0,0,3.47-6.94-6.94-24.29,0,0-10.41-8.68-6.94-29.5s10.37-35.26-22.56-45.11C338.49,100.52,263.52,85.4,247.91,108Z"/><path class="cls-12" d="M351.21,205.46C314.77,203.73,320,162.09,320,162.09c-1.73-41.64-52.18-61-51.39-61.76-7.69-1.76-17.69,3.14-21.07,8,0,0,56.61,19.79,58.34,61.44,0,0-5.21,41.64,31.23,43.38,0,0,27,1.49,35-9.45A84.27,84.27,0,0,1,351.21,205.46Z"/><path class="cls-26" d="M260.35,113.06c1.21-1.62,15.21,9.16,19.37,10.28,10.55,2.83,7.46-6.22,3.45-12,3.72,4.53,13.61,15.8,20.26,14.57,7.16-1.32,4.59-10.65,2.81-15.29,6.26,13.64,25.11,26,22.92,2.64,1.61,5.24,4.29,16.77,12,16,6.23-.63,4.5-6.51,4.83-11.25,2.29,4.42,9.6,19.28,16.54,12.65-.58-1.23.6-2.81-.6-6.62"/><path class="cls-27" d="M297,139.9c-1.3,7.31,22,13.77,24.41,1.62,3,11,14.56,14.12,17,1.4,1,9.42,13.77,12.76,13.69,3.7.78,3.86,2.19,9.07,6.29,7.85,2-.53,2.81-5.5,2.34-6.18"/><path class="cls-28" d="M307.08,165.56c3.18,3.42,6.15,10.15,12.16,10.14a7.81,7.81,0,0,0,7.23-10.58c2.44,4.67,5.34,11.13,11.09,11.91s7.86-3.16,7.14-8.63c.08,10.09,13.68,16.43,11.67,3.4.12,6.65,5.63,10.08,11.57,9.14.57-1.29-.83-5.78-1-6.36"/><path class="cls-29" d="M307.69,190.67c2.41,3.66,4.8,7.09,10.12,6.64a5,5,0,0,0,4.21-6.79c.35,8.85,17.52,11.26,16.27,1.07,2.76,8.31,16.59,9.1,17.76-.63a10.39,10.39,0,0,0,10.5,6.56,10.76,10.76,0,0,0,5.29-2c3-2.3,1.4-4.08,2.41-4.66"/></g></g></svg>