<svg xmlns="http://www.w3.org/2000/svg" viewBox="0 0 353.66 940.25"><defs><style>.cls-1{opacity:0.34;}.cls-2{fill:#cebca5;}.cls-3{fill:#d4c7b9;}.cls-4{fill:#a39482;}.cls-5{fill:#00bcdc;}.cls-6{fill:#007185;}.cls-7{fill:#badfe2;}.cls-8{fill:#1e2f39;}.cls-9{fill:#f4a740;}.cls-10{fill:#825919;}.cls-11{fill:#9b9288;}.cls-12{fill:#610100;}.cls-13{fill:#9b9388;}.cls-14{fill:#857d74;}.cls-15{fill:#00bfe4;}.cls-16{fill:#00687d;}.cls-17{fill:#db853b;}.cls-18{fill:#bd8132;}.cls-19{fill:#231f20;}.cls-20{fill:none;stroke:#231f20;stroke-miterlimit:10;stroke-width:1.46px;}.cls-21{fill:#00728a;}.cls-22{fill:#cecec5;}.cls-23{fill:#94948d;}.cls-24{fill:#008da8;}.cls-25{fill:#ffa847;}.cls-26{fill:#ffefde;}.cls-27{fill:#cc8b27;}</style></defs><title>Recurso 5</title><g id="Capa_2" data-name="Capa 2"><g id="Capa_1-2" data-name="Capa 1"><path class="cls-2" d="M125,119.26c-1.3-3.91-20.87-37.82-52.82-37.82,0,0-13.69,5.87-2,16.3,0,0-17-9.13-24.13,0,0,0-11.08,11.74,5.87,18.91,0,0,15,5.22,16.3,5.87s-26.73,3.91-18.91,20.21c0,0,11.74,8.48,28.69,4.57l28-9.78s9.13-14.34,22.17-12.39"/><path class="cls-2" d="M125,119.26c-1.3-3.91-20.87-37.82-52.82-37.82,0,0-13.69,5.87-2,16.3,0,0-17-9.13-24.13,0,0,0-11.08,11.74,5.87,18.91,0,0,15,5.22,16.3,5.87s-26.73,3.91-18.91,20.21c0,0,11.74,8.48,28.69,4.57l28-9.78s9.13-14.34,22.17-12.39"/><path class="cls-3" d="M66.2,121.7a9.44,9.44,0,0,0,1.34-.66c-21.4-4.35-21.75-18-20.84-23.94-.19.2-.38.41-.56.64,0,0-11.09,11.74,5.87,18.91,0,0,9.73,3.38,14.2,5"/><path class="cls-4" d="M108.7,134.18c-1.62.68-3.43,1.45-5.45,2.35-37.65,16.58-49.79,1.82-52.89-5.31-2.4,2.84-3.34,6.57-1,11.52,0,0,11.74,8.48,28.69,4.56l28-9.78a30.83,30.83,0,0,1,2.58-3.34"/><path class="cls-5" d="M353.66,62.18c0,34.34-18.15,62.18-40.54,62.18s-40.54-27.84-40.54-62.18S290.73,0,313.12,0s40.54,27.84,40.54,62.18"/><path class="cls-5" d="M353.66,62.18c0,34.34-18.15,62.18-40.54,62.18s-40.54-27.84-40.54-62.18S290.73,0,313.12,0s40.54,27.84,40.54,62.18"/><path class="cls-6" d="M327.53,102.29c-22.39,0-40.54-27.84-40.54-62.18A88.31,88.31,0,0,1,292.6,8.56c-12,10.81-20,30.77-20,53.62,0,34.34,18.15,62.18,40.54,62.18,14.88,0,27.88-12.3,34.93-30.62-6,5.43-13,8.56-20.52,8.56"/><path class="cls-7" d="M334.9,19.87c4.95,10.82,3.24,22.21-3.82,25.43s-16.79-2.93-21.73-13.75-3.23-22.21,3.82-25.43S330,9,334.9,19.87"/><path class="cls-8" d="M172.73,914.72c0,10.45-8,18.91-18,18.91s-18-8.47-18-18.91,8-18.91,18-18.91,18,8.47,18,18.91"/><path class="cls-8" d="M150,917.56c0,10.45-8,18.91-18,18.91s-18-8.47-18-18.91,8-18.91,18-18.91,18,8.47,18,18.91"/><path class="cls-8" d="M121.66,921.34c0,10.45-8,18.91-18,18.91s-18-8.47-18-18.91,8-18.91,18-18.91,18,8.47,18,18.91"/><path class="cls-9" d="M136.93,667.15l-1.3,38.66s-2.63.85-4.39,7.9c-2.88,11.51,3,15.68,3.52,16.16,9.78,9.13,5.43,128.44,5.43,128.44s16.3,3.91,16.3,1.3-4.72-129.08-4.72-129.08,14.5-9.08,5.38-22.78l-3.91-44.52s-15-1.3-16.3,3.91"/><path class="cls-10" d="M153.85,672.38l-.63-9.14s-15-1.3-16.3,4.5l-.65,20.58s.37-.72.33-.65c4.56-3.44,12-10.84,17.25-15.29"/><path class="cls-9" d="M245.55,667.15l1.15,36.57s9.83,11.62,2.36,20.55c-.41.49-3.45,4.27-4,4.75-9.78,9.13-2.8,129.28-2.8,129.28s-16.3,3.91-16.3,1.3,3.75-130.5,3.75-130.5-13.69-9.75-4.56-23.44l4.07-42.44s15-1.3,16.3,3.91"/><path class="cls-10" d="M245.55,667.15c-1.3-5.22-16.3-3.91-16.3-3.91l-1.69,16.57c3.94-2.38,12.32-7.49,18.13-10.55Z"/><path class="cls-11" d="M63.9,528.92S.65,580.43,0,610.42c0,0,3.26,11.74,18.91-6.52,0,0-7.82,63.9,8.48,84.11,0,0,14.35,16.3,22.17-2.61l7.17-39.77s7.82,45,23.47,43c0,0,11.74,5.87,12.39-13s3.91-71.07,20.87-89.33S67.81,518.49,63.9,528.92"/><path class="cls-12" d="M145.28,477.56s12.39-26.08,11.08-24.12-10.65-22.79-10.65-22.79l-22.6,54.74"/><path class="cls-2" d="M247.12,437.63c.65,2,2,61.94,47.6,66.51,0,0,6.52-5.87,12.39-4.56,0,0,6.52,1.3,8.48,6.52,0,0,15.76.34,17.61,5.87.65,2,5.87,10.43-.65,18.26l-7.17,2.61s5.22,5.87,0,13c0,0-5.09,7.76-11.74,11.08-2.61,1.3-14.35,2-20.87-5.87,0,0-7.17-5.87-4.57-11.08,0,0-24.12,10.43-33.25,3.26s-31.95-22.17-41.08-48.9-13.69-47.6-12.39-60,7.82-30,7.82-30l9.78-9.13"/><path class="cls-13" d="M318.9,529.62s11.75,4.6,16.35-3.58c0,0,1,12.78-21.46,6.64"/><path class="cls-14" d="M249.8,455.63a166.11,166.11,0,0,1-2.68-18l-17.43-26.36-21,11.36s-2.61,11.09-3.91,20.21,1.3,8.48,1.3,11.09l22.17,33.91s7.7-22.18,21.59-32.21"/><path class="cls-2" d="M200.75,357.47s16.43,5.35,17,20.18c0,0,13.69,58.68,15.65,62.59s-20.77,37.54-7.17,44.34c1.3.65,2.61,6.52,2.61,6.52s-39.77,5.22-58-11.74c0,0-.65-33.91-7.83-49.55s0-57.38,2.61-63.25,24.7-3.88,35.13-9.1"/><path class="cls-13" d="M182.57,477.41s-6.52-34.56-2-43-13-6.52-13-6.52l-9.13,8.48s17,26.08,11.74,38.47c0,0,3.91,2.61,12.39,2.61"/><path class="cls-15" d="M107.59,148.78c0-2-7.17-9.78-.65-17.6A17.89,17.89,0,0,1,118,122.7s18.6-8.45,17.78,6.86"/><path class="cls-16" d="M115.53,127.71a24.56,24.56,0,0,1,3.17-5.3l-.68.29a17.89,17.89,0,0,0-11.08,8.48c-6.52,7.82.65,15.65.65,17.6l5.8-4c-1.37-4.8-1.93-11,2.15-17.12"/><path class="cls-2" d="M234.57,174s.71-59.11-98.78-44.47c0,0-59.24,22.57-65.54,71.86q-.18,1.36-.29,2.76s1.61,12.89,10.73,7.68c0,0-2,24.78,8.48,28,0,0,10.43,3.91,15-5.22l5.22-5.22s-3.91,23.47,8.48,27.39c0,0,7.82,5.22,10.43-3.91l5.22-9.78s35.86,50.21,33.91,118.67c0,0,15.65,22.17,31.95,24.78,0,0,12.39-54.77-27.39-135,0,0,66.51,4.57,66.51-52.82Z"/><path class="cls-14" d="M172,251.63s-30.16-.83-38.47-8.48l14.22,25.12Z"/><path class="cls-17" d="M138.18,177.23a2.85,2.85,0,0,1,2.29-.17c3.4,1.23,14,4.45,21.08-.42,8.48-5.87,15-16.3,30.65-9.78,0,0,54.77,15.65,82.16,7.17,0,0,11.09-1.3,4.56,7.82s-70.42,35.86-131.71,15c0,0-27.55-10-9-19.62"/><path class="cls-18" d="M278.91,181.86a13.45,13.45,0,0,0,1.69-3c-90.17,42.11-147,3.61-147,3.61l-1.25-.23c-3.87,7.79,14.9,14.61,14.9,14.61,61.29,20.86,125.19-5.87,131.71-15"/><path class="cls-19" d="M142.64,143.39s-5.22,9.13,2.61,19.56c0,0,5.22,7.17,11.74,5.22,0,0,15,.65,1.3-28,0,0-13.69,2-15.65,3.26"/><path class="cls-19" d="M193.16,143.27s-1.59,8.08,6.44,17c0,0,5.4,6.17,9.6,4.34,0,0,10.85.29-5.63-24.53,0,0-9.31,2-10.4,3.14"/><path class="cls-19" d="M158.39,139.91a37.25,37.25,0,0,0-26.84,2.82s-9.13,15-21.52,5.22c0,0,5.87,12.39,19.56,7.17,0,0,11.74-10.43,20.86-7.82"/><path class="cls-19" d="M193.32,143.33a24.81,24.81,0,0,1,19.27-3.19s9.25,8.77,17.1-.09c0,0-2.51,9.54-13.69,8.29,0,0-10.51-5.18-17-1.82"/><path class="cls-8" d="M148.66,365.26l20.21-7.17s20.21,21.52,29.34,24.13c0,0-3.91,54.12-1.3,62.6,0,0,3.91,5.22-4.56,6.52s-43,3.91-47.6.65-3.26-18.26-3.26-24.12-9.78-56.08,7.17-62.6"/><path class="cls-8" d="M216.48,364.61S210,375,209.3,382.86c0,0,14.34,49.55,13.69,62.6a9.5,9.5,0,0,0,9.78,3.91s15-6.52,19.56-13c0,0-24.12-48.9-24.78-55.42s-6.52-15-11.08-16.3"/><path class="cls-20" d="M143.12,181.87s8.36,18.07,46,21.68"/><path class="cls-15" d="M264.73,519.79a35.17,35.17,0,0,0-2.25-3.95c-10.3-15.8-36.87-35.17-36.87-35.17a13.68,13.68,0,0,1-2,.9c-1.4-4.42,0-12,0-12-8.48,2-44.34-6.52-44.34-6.52s-1.36,12.14,0,13.69a10.09,10.09,0,0,0,1,1c-6-1.61-10.14-3-10.14-3-69.77-2.61-77.59,46.95-77.59,46.95-9.13,26.08,13.69,70.42,15.65,77.59s2,38.47,2,38.47l59.28,1.35,1.19-24.55,12.67,1.19c18.21-1.58,24.55-5.54,24.55-5.54l-2.48,21.69,52.82-.65.43-5,2.18-27.58c18.26-39.12,11.74-62.6,3.91-78.9"/><path class="cls-21" d="M113.22,616l2.39-11.36,7.18-6.58,7.18-5.38,7.77-8.37s3-12.56,2.39-22.72S133,550.83,130.56,549l-30.5,10.17s0,17.61,1,22.08c3.42,8.87,6.5,15.62,7.17,18.06,1.06,3.9,1.55,14.92,1.77,24.17a13.92,13.92,0,0,0,2.61-.92Z"/><path class="cls-21" d="M115.21,549.16c9.7,8.62,33.95,1.08,43.11-8.08s9.7-49,9.7-49c3.71-1.85,7.93-8.39,11.28-14.56-5.48-1.48-9.11-2.67-9.11-2.67a122.32,122.32,0,0,0-20.62.87c-14.53,13.93-41.9,40.08-41.9,40.08l-3.23,13.47a33.48,33.48,0,0,0,10.78,19.94"/><path class="cls-21" d="M179.26,463.54c-.23,2.26-1.15,11.85.05,13.21.07.08.17.16.24.24,3.33-6.2,5.71-11.9,5.71-11.9Z"/><path class="cls-22" d="M111.33,665.85s-7.71.65-8.31-5.87c0,0,3.58-3.08,3.21-12.11s-2.62-13.32-2.62-13.32,1.78-2.61,7.12-3.26c0,0,55.93,4.83,64.24.27,0,0,2.21,3.64,2.21,6.9,0,0-3.56,9.78-.59,18.26s1.78,9.78-3.56,10.43-45.68,9.78-61.7-1.3"/><path class="cls-23" d="M119.46,631.87c-4.86-.33-11.48-1.26-11.48-1.26-5.87.65-4.3,3.94-4.3,3.94s.8,4.28.35,14S103,660,103,660c.65,6.52,8.72,8.16,8.72,8.16,3.66,1.6,8.2,1.23,13.11,2.07-2.78-10.11-4.86-32.23-5.39-38.34"/><path class="cls-22" d="M207.7,662.59s-7.18.65-7.73-5.87a28.2,28.2,0,0,0,2.13-11.55,137,137,0,0,0-1.58-13.88s1.66-2.61,6.63-3.26c0,0,44.24,4,52-.51,0,0,9.9,4.43,9.9,7.69,0,0-3.32,9.78-.55,18.26s1.66,9.78-3.31,10.43-42.54,9.78-57.45-1.3"/><path class="cls-23" d="M200.52,631.29a72.09,72.09,0,0,1,1,14c-.15,8.11-1.59,11.42-1.59,11.42.55,6.52,7.56,7.47,7.56,7.47,3.52,1.45,7.5,2.18,12.15,3a13.39,13.39,0,0,0-1.47-1.42c-6.24-5.26-3.61-33.84-3.61-33.84l-1.25-3.35c-3.81-.31-6.21-.54-6.21-.54-5,.65-6.63,3.26-6.63,3.26"/><path class="cls-24" d="M205.5,611.44s49.88-9.9,58.58-21.23l-5.65,39.51s-37.79,4.17-51.28-1.7Z"/><path class="cls-25" d="M147.36,474.8S208,391.34,204.09,358.74c0,0,13,.65,17,7.83,0,0-34.87,111.72-61.6,122.15,0,0-3-6.09-12.08-13.91"/><path class="cls-25" d="M121.25,477.69s30.65-9.78,40.43,1.3c0,0,2,23.47-4.56,43.69,0,0-3.91,13.69-12.39,15.65s-27.39,5.87-35.21-5.87c0,0-13.69-50.21,11.74-54.77"/><path class="cls-12" d="M149,479.33s-7.17,19.56-6.52,32c0,0,2,6.52-4.57,11.08,0,0-20.86,12.39-29.34,3.26,0,0-3.91-24.13.65-36.51,0,0,5.22-7.82,9.78-9.13,0,0,34.47-13.28,30-.65"/><path class="cls-25" d="M147.48,473.63s-9.28,21.66-8.62,34c0,0,2,6.52-4.57,11.09,0,0-20.86,12.39-29.34,3.26,0,0-3.91-24.12.65-36.51,0,0,5.22-7.82,9.78-9.13,0,0,25.58-5.36,32.1-2.75"/><path class="cls-12" d="M121.9,512.9c0,3.6-2.48,6.52-5.54,6.52s-5.54-2.92-5.54-6.52,2.48-6.52,5.54-6.52,5.54,2.92,5.54,6.52"/><path class="cls-15" d="M138.33,853.61s17.42,3.17,22.17.53c0,0,3.7,2.64,3.17,6.33l-.53,26.92s-4.22,10.56-9,11.09-52.26,16.36-70.74,11.08c0,0-9.5-3.17-7.92-11.61,0,0,1.06-13.2,14.25-9.5,0,0,4.75,8.45,17.95,2.11s2.11-.53,2.11-.53l26.92-5.28L142,883.7l-3.17-23.75s-4.22-6.34-.53-6.34"/><path class="cls-8" d="M163.14,887.4l5.81,11.5s-3.78,5.67-8.51,6.62-10.4-7.57-10.4-7.57"/><path class="cls-22" d="M116,924.65c0,6-3.39,10.88-7.57,10.88s-7.57-4.87-7.57-10.87,3.39-10.87,7.57-10.87,7.57,4.87,7.57,10.88"/><path class="cls-22" d="M141,921c0,6-3.39,10.88-7.57,10.88S125.92,927,125.92,921s3.39-10.87,7.57-10.87S141,915,141,921"/><path class="cls-22" d="M167.48,918.72c0,6-3.39,10.88-7.57,10.88s-7.57-4.87-7.57-10.87,3.39-10.87,7.57-10.87,7.57,4.87,7.57,10.88"/><path class="cls-8" d="M140.46,866.43c-7.65-.33-6.65-14-6.65-14s2.57-6.51,6.56-7.84c0,0,12.06,1.52,16.38-.81,0,0,9.31-.33,10.31,7.65l-.68,9.82a5.08,5.08,0,0,1-4.82,4.73c-5.64.28-15.26.67-21.09.42"/><path class="cls-10" d="M269.44,60.73c-3,8.71-6.34,40.57,13.26,63.35l10.69,13.07,5.94,27.32,2.38,65.33s-5.94,63-5.94,78.39-4.75,38,0,49.89,7.13,28.51,7.13,45.13-2.37,34.44,0,45.13,4.75,32.07,2.38,35.63-2.38,187.66-2.38,204.29,0,28.5,2.38,41.57,2.38,124.19,2.38,131.32.89,71.09.89,71.09,7.13,2.38,9.5-1.19.3-230.91.3-230.91,1.19-41.57,1.19-46.32-1.19-73.64-1.19-73.64L313.63,557s3.52-178.7,3.52-183.46S316,349.75,316,346.18s-1.19-13.07-3.56-23.75-1.19-21.38,1.19-30.88,8.31-52.26,9.5-57,2.38-17.82,2.38-27.32S329,183.46,329,177.53s-7.13-19-7.13-27.32S332.61,131,332.61,131s8.29-2.55,11.3-10.14c1-2.61,2.92-9.83,2.92-9.83s5-21.71-5.65-8.88c-11.88,14.25-52.52,20.63-57.69.39-4.49-17.6-6.46-35.08-4.09-42.2s-3.83-11.27-10,.41"/><path class="cls-2" d="M320.57,558.37a25.39,25.39,0,0,1-21.47-5.53s-3.15-3.13-.46-8.55c0,0,12-3.35,19-.57s-.5-.79-.5-.79l11.17,4.53s0,10.91-7.72,10.9"/><path class="cls-11" d="M301.84,544.11s-4,10.06,6.81,11.84c0,0,13.47,3,18-1.64,0,0-3.14,9.44-22.67,2.26-.1-.29-10.73-5.59-3.63-13.73Z"/><path class="cls-2" d="M325.11,545.06a22.67,22.67,0,0,1-20.91,0s-3.8-2.21-3.11-8.07c0,0,9.68-6.17,16.76-5.22s-.69-.63-.69-.63l11.41,1.58s3.46,10.44-3.46,12.34"/><path class="cls-10" d="M276.26,83.28c.45,1.35-.9,2.7,9.9,7.65s18.91,11.26,21.61,17.56,1.35,15.76,1.35,15.76l-9.45,3.15-14.41-7.2-8.1-12.61"/><path class="cls-2" d="M292.83,503.56s12.78-15.84,23.51-9.2c0,0,8.18,3.58,6.13,12.27s-7.15,35.27-17.38,31.18c0,0-7.15,1.53-8.18-10.73a26.61,26.61,0,0,1,2-11.76"/><path class="cls-11" d="M305.61,507.65s-11.24,13.8-3.58,24c0,0,6.79,7.47,11.9,1.85l2.92-1.85s-4.6,11.75-15.33,5.11c0,0-16.35-9.71,4.09-29.13"/><path class="cls-13" d="M315.32,533.71c-.18-1.72,8.62-11.43,6.64-30.15,0,0,5.11,18.91-6.64,30.15"/><path class="cls-11" d="M300.33,534.91a0,0,0,0,1,.06,0c.07.8-5.23,9.43,12.19,10.75,0,0,13.9-.48,16.68-6,0,0,.19,9.81-20.94,7.75,0,0-11.56,3.41-11-11.27.13-3.11.37-4.28.87-4.06Z"/><path class="cls-2" d="M146.82,404.11S110.9,496.36,115.3,526.74c0,0-1.7,14.91,3,21.78,0,0,12.64,6.12,13.44,13.37s-.54,17-2.07,20.12-13.79,10.14-13.79,10.14-8,20.36-18.33,19c0,0-11.85,1.13-18.59-5.23a20,20,0,0,1-13.81-8.16s-6.69,2.14-9.81-9.19c0,0-7.76-94-1.38-128.87,0,0,3.56-13.48,6.73-2.79,0,0,7.87-38.08,14.75-49.87a14.74,14.74,0,0,1,1.32-1.94c6.3-7.62,6.44.07,6.84,8.3.05,1.11.11,2.22.19,3.31.66,9.2,34.76-38.73,47.53-43.71s3.16,1.53,3.16,1.53,3.7-2.43,7.85-4.7a7.47,7.47,0,0,1,11,6.55c0,8.3-1.11,19.84-6.59,27.78"/><path class="cls-4" d="M141.83,370.09c-3.92,2.18-7.31,4.4-7.31,4.4s9.61-6.51-3.16-1.53-46.87,52.91-47.53,43.72c-.08-1.09-.14-2.2-.19-3.31-.4-8.23-.54-15.92-6.84-8.3A14.64,14.64,0,0,0,75.49,407c-6.88,11.79-14.75,49.88-14.75,49.88C57.57,446.2,54,459.67,54,459.67c-6.38,34.85,1.38,128.87,1.38,128.87,1.37,4.95,3.41,7.33,5.28,8.44-.41-1.78-1-3.79-1.74-6.11-8.6-26.24,0-132.08,0-132.08l5.59,10.33,1.72-9.9C65,442.86,77,405.53,78.93,410.76c1.55,4.1,5.26,20.33,5.26,20.33,24.4-42.82,45.47-53,57.63-61"/><path class="cls-4" d="M132.87,238l-.42-.31C130.84,253.31,119,248.46,119,248.46c-8.62-2.69-9.16-26.94-9.16-26.94l-8.62,8.62c-16.71,13.47-16.71-26.94-16.71-26.94-7,10.24-9.16.54-9.16.54-1.71-20.49,20.25-46.38,29.45-56.26-15.41,11.81-31.42,29.62-34.53,54q-.17,1.37-.29,2.76s1.61,12.89,10.74,7.68c0,0-2,24.78,8.48,28,0,0,10.43,3.91,15-5.22l5.22-5.22s-3.91,23.47,8.48,27.39c0,0,7.82,5.22,10.43-3.91l5.17-9.7Z"/><path class="cls-26" d="M104.7,632.9s39.85,7,70.94-.9l-4.87-3.7s-43.65,6.57-61,0c0,0-8.07,3.61-5.08,4.6"/><path class="cls-26" d="M201,632.56s35.54,5.21,65.2-1L259.12,627s-36.77,6.33-53.31,1.17c0,0-8.7,2.28-4.77,4.36"/><path class="cls-27" d="M307.64,448.33a38.4,38.4,0,0,0,8,4.54c.78-40.22,1.48-77.24,1.48-79.36,0-4.75-1.19-23.76-1.19-27.32s-1.19-13.07-3.56-23.75-1.19-21.38,1.19-30.88,8.31-52.26,9.5-57,2.38-17.82,2.38-27.32S329,183.46,329,177.53s-7.13-19-7.13-27.32S332.61,131,332.61,131s10.46-3.54,11.31-10.14c.35-2.79,2.92-9.83,2.92-9.83s5-21.71-5.65-8.88c-9,10.75-34.27,17-48.39,10.77a67.08,67.08,0,0,0,6.87,14.51c9.16,14.49,9.16,25.18,10.35,34.68s3.56,30.88,4.75,39.2-3.56,38-4.75,43.95-4.75,28.51-4.75,33.26-7.13,34.44-7.13,39.2-1.19,22.57,1.19,28.51,5.94,15.44,7.13,23.76,1.19,10.69,1.19,20.19,1.19,24.94,0,29.69,0,28.5,0,28.5"/><path class="cls-8" d="M105.75,891.34a4.3,4.3,0,0,1,3.85-4.28l16.25-2.57s6,1.71,6.84,6.41c0,0-9.41,3.85-15.39,3.85s-.43-7.27-11.55-3.42"/><path class="cls-27" d="M292.8,112.9s3.06-7.6.74-11.78l-2.32-4.18s.53-.33,5.57.93c1.86.46,12,9.93,12.44,19.68"/><path class="cls-8" d="M213,914.72c0,10.45,8,18.91,18,18.91s18-8.47,18-18.91-8-18.91-18-18.91-18,8.47-18,18.91"/><path class="cls-8" d="M235.65,917.56c0,10.45,8,18.91,18,18.91s18-8.47,18-18.91-8-18.91-18-18.91-18,8.47-18,18.91"/><path class="cls-8" d="M264,921.34c0,10.45,8,18.91,18,18.91s18-8.47,18-18.91-8-18.91-18-18.91-18,8.47-18,18.91"/><path class="cls-15" d="M247.35,853.61s-17.42,3.17-22.17.53c0,0-3.7,2.64-3.17,6.33l.53,26.92s4.22,10.56,9,11.09,52.26,16.36,70.74,11.08c0,0,9.5-3.17,7.92-11.61,0,0-1.06-13.2-14.25-9.5,0,0-4.75,8.45-17.95,2.11s-2.56-1.16-2.56-1.16l-26.48-4.65-5.28-1.06,3.17-23.75s4.22-6.34.53-6.34"/><path class="cls-15" d="M222.54,887.4l-5.81,11.5s3.78,5.67,8.51,6.62,10.4-7.57,10.4-7.57"/><path class="cls-22" d="M269.69,924.65c0,6,3.39,10.88,7.56,10.88s7.57-4.87,7.57-10.87-3.39-10.87-7.57-10.87-7.56,4.87-7.56,10.88"/><path class="cls-22" d="M244.63,921c0,6,3.39,10.88,7.56,10.88s7.57-4.87,7.57-10.87-3.39-10.87-7.57-10.87S244.63,915,244.63,921"/><path class="cls-22" d="M218.2,918.72c0,6,3.39,10.88,7.56,10.88s7.57-4.87,7.57-10.87-3.39-10.87-7.57-10.87-7.56,4.87-7.56,10.88"/><path class="cls-8" d="M243.41,869.31c7.49-.33,6.52-14,6.52-14s-.51-9.1-8.23-9.1c0,0-10.92,2.83-15.15.51,0,0-8.22-.38-9.2,7.6l.67,9.82a5,5,0,0,0,4.72,4.73c5.53.28,15,.67,20.67.42"/><path class="cls-8" d="M276.82,890.2a4.66,4.66,0,0,0-4.24-4l-16.25-2.57s-6,1.71-6.84,6.41c0,0,9.41,3.85,15.4,3.85s.82-7.56,11.94-3.71"/><path class="cls-8" d="M76.14,903.86s8.48,10.86,44.16,1.19l31.23-7.43,10.41-9.07,1.36-1.39L170,898.81s-.74,5.21-11.45,7.88a22.88,22.88,0,0,1-7.14-4.91l-43.67,9.52s-27,5.35-31.57-7.44"/><path class="cls-8" d="M309.39,903.78s-7.43,10.78-43.12,1.11L235,897.46l-10.78-7.77-1.86-2.19-5.8,11.15s.74,5.2,11.45,7.88a22.87,22.87,0,0,0,7.14-4.91l43.72,8.63s25.86,6.32,30.48-6.46"/></g></g></svg>