<?xml version="1.0" encoding="UTF-8"?>
<svg id="Capa_1" data-name="Capa 1" xmlns="http://www.w3.org/2000/svg" viewBox="0 0 245 350">
  <defs>
    <style>
      .cls-1 {
        fill: #d4c7b9;
      }

      .cls-1, .cls-2, .cls-3, .cls-4, .cls-5, .cls-6, .cls-7, .cls-8, .cls-9, .cls-10, .cls-11, .cls-12, .cls-13, .cls-14, .cls-15, .cls-16, .cls-17, .cls-18, .cls-19, .cls-20, .cls-21, .cls-22, .cls-23, .cls-24, .cls-25 {
        stroke-width: 0px;
      }

      .cls-2 {
        fill: #bd8132;
      }

      .cls-3 {
        fill: #00687d;
      }

      .cls-4 {
        fill: #db853b;
      }

      .cls-5 {
        fill: #007185;
      }

      .cls-6 {
        fill: #00bcdc;
      }

      .cls-7 {
        fill: #857d74;
      }

      .cls-8 {
        fill: #ffefde;
      }

      .cls-9 {
        fill: #9b9388;
      }

      .cls-10 {
        fill: #9b9288;
      }

      .cls-11 {
        fill: #cc8b27;
      }

      .cls-12 {
        fill: #825919;
      }

      .cls-13 {
        fill: #00bfe4;
      }

      .cls-14 {
        fill: #00728a;
      }

      .cls-15 {
        fill: #610100;
      }

      .cls-16 {
        fill: #cecec5;
      }

      .cls-17 {
        fill: #94948d;
      }

      .cls-18 {
        fill: #cebca5;
      }

      .cls-19 {
        fill: #231f20;
      }

      .cls-20 {
        fill: #1e2f39;
      }

      .cls-21 {
        fill: #f4a740;
      }

      .cls-26 {
        fill: none;
        stroke: #231f20;
        stroke-miterlimit: 10;
        stroke-width: 1.46px;
      }

      .cls-22 {
        fill: #a39482;
      }

      .cls-23 {
        fill: #badfe2;
      }

      .cls-24 {
        fill: #ffa847;
      }

      .cls-25 {
        fill: #008da8;
      }
    </style>
  </defs>
  <path class="cls-18" d="m103.33,45.43c-.48-1.45-7.72-14-19.55-14,0,0-5.07,2.17-.72,6.04,0,0-6.28-3.38-8.93,0,0,0-4.1,4.34,2.17,7,0,0,5.55,1.93,6.04,2.17.48.24-9.9,1.45-7,7.48,0,0,4.34,3.14,10.62,1.69l10.38-3.62s3.38-5.31,8.21-4.59"/>
  <path class="cls-18" d="m103.33,45.43c-.48-1.45-7.72-14-19.55-14,0,0-5.07,2.17-.72,6.04,0,0-6.28-3.38-8.93,0,0,0-4.1,4.34,2.17,7,0,0,5.55,1.93,6.04,2.17.48.24-9.9,1.45-7,7.48,0,0,4.34,3.14,10.62,1.69l10.38-3.62s3.38-5.31,8.21-4.59"/>
  <path class="cls-1" d="m81.54,46.33c.32-.13.5-.24.5-.24-7.92-1.61-8.05-6.68-7.72-8.86-.07.08-.14.15-.21.24,0,0-4.1,4.34,2.17,7,0,0,3.6,1.25,5.26,1.87"/>
  <path class="cls-22" d="m97.28,50.96c-.6.25-1.27.54-2.02.87-13.94,6.14-18.43.67-19.58-1.97-.89,1.05-1.24,2.43-.36,4.26,0,0,4.35,3.14,10.62,1.69l10.38-3.62s.34-.53.95-1.24"/>
  <path class="cls-6" d="m187.98,24.3c0,12.71-6.72,23.02-15.01,23.02s-15.01-10.31-15.01-23.02c0-12.71,6.72-23.02,15.01-23.02s15.01,10.31,15.01,23.02"/>
  <path class="cls-6" d="m187.98,24.3c0,12.71-6.72,23.02-15.01,23.02s-15.01-10.31-15.01-23.02c0-12.71,6.72-23.02,15.01-23.02s15.01,10.31,15.01,23.02"/>
  <path class="cls-5" d="m178.3,39.15c-8.29,0-15.01-10.31-15.01-23.02,0-4.27.76-8.26,2.08-11.68-4.43,4-7.41,11.39-7.41,19.85,0,12.71,6.72,23.02,15.01,23.02,5.51,0,10.32-4.55,12.93-11.34-2.23,2.01-4.82,3.17-7.6,3.17"/>
  <path class="cls-23" d="m181.03,8.64c1.83,4.01,1.2,8.22-1.41,9.42-2.61,1.19-6.21-1.09-8.05-5.09-1.83-4.01-1.2-8.22,1.41-9.42,2.61-1.19,6.21,1.09,8.05,5.09"/>
  <path class="cls-20" d="m120.97,339.94c0,3.87-2.98,7-6.65,7s-6.65-3.14-6.65-7,2.98-7,6.65-7,6.65,3.14,6.65,7"/>
  <path class="cls-20" d="m112.56,340.99c0,3.87-2.98,7-6.65,7-3.67,0-6.65-3.14-6.65-7s2.98-7,6.65-7,6.65,3.14,6.65,7"/>
  <path class="cls-20" d="m102.06,342.39c0,3.87-2.98,7-6.65,7s-6.65-3.14-6.65-7,2.98-7,6.65-7,6.65,3.14,6.65,7"/>
  <path class="cls-21" d="m107.72,248.28l-.48,14.31s-.97.32-1.63,2.93c-1.07,4.26,1.12,5.81,1.3,5.98,3.62,3.38,2.01,47.55,2.01,47.55,0,0,6.04,1.45,6.04.48s-1.75-47.79-1.75-47.79c0,0,5.37-3.36,1.99-8.43l-1.45-16.49s-5.55-.48-6.04,1.45"/>
  <path class="cls-12" d="m113.99,250.22l-.23-3.38s-5.55-.48-6.04,1.67l-.24,7.62s.14-.27.12-.24c1.69-1.27,4.45-4.01,6.39-5.66"/>
  <path class="cls-21" d="m147.93,248.29l.42,13.54s3.64,4.3.87,7.61c-.15.18-1.28,1.58-1.47,1.76-3.62,3.38-1.04,47.87-1.04,47.87,0,0-6.04,1.45-6.04.48s1.39-48.32,1.39-48.32c0,0-5.07-3.61-1.69-8.68l1.51-15.71s5.55-.48,6.04,1.45"/>
  <path class="cls-12" d="m147.93,248.29c-.48-1.93-6.04-1.45-6.04-1.45l-.63,6.13c1.46-.88,4.56-2.77,6.71-3.91l-.05-.78Z"/>
  <path class="cls-10" d="m80.68,197.1s-23.42,19.07-23.66,30.18c0,0,1.21,4.35,7-2.41,0,0-2.9,23.66,3.14,31.14,0,0,5.31,6.04,8.21-.97l2.66-14.73s2.9,16.66,8.69,15.93c0,0,4.35,2.17,4.59-4.83.24-7,1.45-26.31,7.73-33.07,6.28-6.76-16.9-25.11-18.35-21.25"/>
  <path class="cls-15" d="m110.82,178.09s4.59-9.66,4.1-8.93c-.48.72-3.94-8.44-3.94-8.44l-8.37,20.27"/>
  <path class="cls-18" d="m148.52,163.31c.24.72.72,22.93,17.62,24.63,0,0,2.41-2.17,4.59-1.69,0,0,2.41.48,3.14,2.41,0,0,5.84.12,6.52,2.17.24.72,2.17,3.86-.24,6.76l-2.66.97s1.93,2.17,0,4.83c0,0-1.88,2.87-4.35,4.1-.97.48-5.31.72-7.72-2.17,0,0-2.66-2.17-1.69-4.1,0,0-8.93,3.86-12.31,1.21-3.38-2.66-11.83-8.21-15.21-18.11-3.38-9.9-5.07-17.62-4.59-22.21.48-4.59,2.9-11.1,2.9-11.1l3.62-3.38"/>
  <path class="cls-9" d="m175.09,197.37s4.35,1.7,6.06-1.32c0,0,.38,4.73-7.95,2.46"/>
  <path class="cls-7" d="m149.51,169.97c-.8-3.62-.91-6.41-.99-6.66l-6.45-9.76-7.79,4.21s-.97,4.1-1.45,7.48c-.48,3.38.48,3.14.48,4.1l8.21,12.55s2.85-8.21,7.99-11.93"/>
  <path class="cls-18" d="m131.35,133.63s6.08,1.98,6.31,7.47c0,0,5.07,21.73,5.79,23.18.72,1.45-7.69,13.9-2.66,16.42.48.24.97,2.41.97,2.41,0,0-14.73,1.93-21.49-4.35,0,0-.24-12.55-2.9-18.35-2.66-5.79,0-21.24.97-23.42.97-2.17,9.14-1.44,13.01-3.37"/>
  <path class="cls-9" d="m124.62,178.03s-2.41-12.79-.72-15.93c1.69-3.14-4.83-2.41-4.83-2.41l-3.38,3.14s6.28,9.66,4.34,14.24c0,0,1.45.97,4.59.97"/>
  <path class="cls-13" d="m96.87,56.36c0-.72-2.66-3.62-.24-6.52,0,0,1.21-2.41,4.1-3.14,0,0,6.89-3.13,6.58,2.54"/>
  <path class="cls-3" d="m99.81,48.56s.37-.92,1.17-1.96c-.16.06-.25.11-.25.11-2.9.72-4.1,3.14-4.1,3.14-2.41,2.9.24,5.79.24,6.52l2.15-1.46c-.51-1.78-.71-4.06.79-6.34"/>
  <path class="cls-18" d="m143.88,65.71s.26-21.88-36.57-16.47c0,0-21.93,8.35-24.27,26.6-.04.34-.08.68-.11,1.02,0,0,.59,4.77,3.97,2.84,0,0-.72,9.17,3.14,10.38,0,0,3.86,1.45,5.55-1.93l1.93-1.93s-1.45,8.69,3.14,10.14c0,0,2.9,1.93,3.86-1.45l1.93-3.62s13.28,18.59,12.55,43.94c0,0,5.79,8.21,11.83,9.17,0,0,4.59-20.28-10.14-49.97,0,0,24.62,1.69,24.63-19.55l-1.45-9.17Z"/>
  <path class="cls-7" d="m120.7,94.44s-11.16-.31-14.24-3.14l5.27,9.3,8.98-6.16Z"/>
  <path class="cls-4" d="m108.19,66.9c.26-.14.57-.16.85-.06,1.26.46,5.2,1.65,7.81-.16,3.14-2.17,5.55-6.03,11.35-3.62,0,0,20.28,5.8,30.42,2.66,0,0,4.1-.48,1.69,2.9-2.41,3.38-26.07,13.28-48.77,5.55,0,0-10.2-3.71-3.34-7.27"/>
  <path class="cls-2" d="m160.3,68.61c.31-.43.51-.8.63-1.11-33.38,15.59-54.44,1.33-54.44,1.33l-.46-.08c-1.43,2.88,5.52,5.41,5.52,5.41,22.69,7.73,46.35-2.17,48.77-5.55"/>
  <path class="cls-19" d="m109.84,54.36s-1.93,3.38.97,7.24c0,0,1.93,2.66,4.35,1.93,0,0,5.55.24.48-10.38,0,0-5.07.72-5.79,1.21"/>
  <path class="cls-19" d="m128.55,54.32s-.59,2.99,2.38,6.31c0,0,2,2.28,3.55,1.61,0,0,4.02.11-2.09-9.08,0,0-3.45.73-3.85,1.16"/>
  <path class="cls-19" d="m115.67,53.08s-4.87-1.61-9.94,1.04c0,0-3.38,5.55-7.97,1.93,0,0,2.17,4.59,7.24,2.66,0,0,4.35-3.86,7.73-2.9"/>
  <path class="cls-19" d="m128.61,54.34s2.88-2.14,7.14-1.18c0,0,3.42,3.25,6.33-.03,0,0-.93,3.53-5.07,3.07,0,0-3.89-1.92-6.3-.67"/>
  <path class="cls-20" d="m112.07,136.51l7.48-2.65s7.48,7.97,10.86,8.93c0,0-1.45,20.04-.48,23.18,0,0,1.45,1.93-1.69,2.41-3.14.48-15.93,1.45-17.62.24-1.69-1.21-1.21-6.76-1.21-8.93s-3.62-20.76,2.66-23.18"/>
  <path class="cls-20" d="m137.18,136.27s-2.41,3.86-2.66,6.76c0,0,5.31,18.35,5.07,23.18,0,0,1.21,1.93,3.62,1.45,0,0,5.55-2.41,7.24-4.83,0,0-8.93-18.11-9.17-20.52s-2.41-5.55-4.1-6.04"/>
  <path class="cls-26" d="m110.02,68.61s3.09,6.69,17.02,8.03"/>
  <path class="cls-13" d="m155.04,193.73c-.23-.47-.51-.96-.83-1.46-3.81-5.85-13.65-13.02-13.65-13.02-.22.13-.48.24-.74.33-.52-1.64.01-4.44.01-4.44-3.14.72-16.42-2.41-16.42-2.41,0,0-.5,4.5,0,5.07.11.13.24.25.38.37-2.24-.59-3.76-1.09-3.76-1.09-25.83-.97-28.73,17.38-28.73,17.38-3.38,9.66,5.07,26.07,5.79,28.73.72,2.66.72,14.24.72,14.24l21.95.5.44-9.09,4.69.44c6.74-.59,9.09-2.05,9.09-2.05l-.92,8.03,19.55-.24.16-1.86.81-10.21c6.76-14.48,4.35-23.18,1.45-29.21"/>
  <path class="cls-14" d="m98.94,229.35l.89-4.21,2.66-2.44,2.66-1.99,2.88-3.1s1.11-4.65.89-8.41c-.22-3.76-2.66-3.99-3.54-4.65l-11.29,3.76s0,6.52.37,8.17c1.26,3.28,2.41,5.78,2.65,6.69.39,1.44.57,5.52.65,8.95.57-.14.97-.34.97-.34l.22-2.44Z"/>
  <path class="cls-14" d="m99.68,204.6c3.59,3.19,12.57.4,15.96-2.99,3.39-3.39,3.59-18.16,3.59-18.16,1.37-.69,2.94-3.11,4.17-5.39-2.03-.55-3.37-.99-3.37-.99-2.81-.11-5.34.02-7.63.32-5.38,5.16-15.51,14.84-15.51,14.84l-1.2,4.99s.4,4.19,3.99,7.38"/>
  <path class="cls-14" d="m123.4,172.9c-.09.83-.42,4.39.02,4.89.03.03.06.06.09.09,1.23-2.3,2.11-4.41,2.11-4.41l-2.22-.57Z"/>
  <path class="cls-16" d="m98.24,247.8s-2.86.24-3.08-2.17c0,0,1.32-1.14,1.19-4.49-.14-3.34-.97-4.93-.97-4.93,0,0,.66-.97,2.64-1.21,0,0,20.71,1.79,23.78.1,0,0,.82,1.35.82,2.56,0,0-1.32,3.62-.22,6.76,1.1,3.14.66,3.62-1.32,3.86-1.98.24-16.91,3.62-22.85-.48"/>
  <path class="cls-17" d="m101.25,235.22c-1.8-.12-4.25-.47-4.25-.47-2.17.24-1.59,1.46-1.59,1.46,0,0,.29,1.59.13,5.17-.16,3.59-.37,4.24-.37,4.24.24,2.41,3.23,3.02,3.23,3.02,1.35.59,3.04.46,4.85.77-1.03-3.74-1.8-11.93-2-14.19"/>
  <path class="cls-16" d="m133.92,246.59s-2.66.24-2.86-2.17c0,0,.89-1.98.79-4.28-.1-2.3-.58-5.14-.58-5.14,0,0,.61-.97,2.45-1.21,0,0,16.38,1.5,19.24-.19,0,0,3.66,1.64,3.66,2.85,0,0-1.23,3.62-.21,6.76,1.02,3.14.61,3.62-1.23,3.86-1.84.24-15.75,3.62-21.27-.48"/>
  <path class="cls-17" d="m131.26,235.01s.44,2.19.38,5.19c-.05,3-.59,4.23-.59,4.23.2,2.41,2.8,2.76,2.8,2.76,1.3.54,2.77.81,4.5,1.11-.14-.16-.32-.34-.54-.53-2.31-1.95-1.34-12.53-1.34-12.53l-.46-1.24c-1.41-.11-2.3-.2-2.3-.2-1.84.24-2.45,1.21-2.45,1.21"/>
  <path class="cls-25" d="m133.11,227.66s18.47-3.66,21.69-7.86l-2.09,14.63s-13.99,1.54-18.99-.63l-.61-6.14Z"/>
  <path class="cls-24" d="m111.59,177.07s22.45-30.9,21.01-42.97c0,0,4.83.24,6.28,2.9,0,0-12.91,41.36-22.81,45.22,0,0-1.09-2.25-4.47-5.15"/>
  <path class="cls-24" d="m101.92,178.14s11.35-3.62,14.97.48c0,0,.72,8.69-1.69,16.17,0,0-1.45,5.07-4.59,5.79-3.14.72-10.14,2.17-13.04-2.17,0,0-5.07-18.59,4.35-20.28"/>
  <path class="cls-15" d="m112.18,178.74s-2.66,7.24-2.41,11.83c0,0,.72,2.41-1.69,4.1,0,0-7.73,4.59-10.86,1.21,0,0-1.45-8.93.24-13.52,0,0,1.93-2.9,3.62-3.38,0,0,12.76-4.91,11.11-.24"/>
  <path class="cls-24" d="m111.63,176.64s-3.44,8.02-3.19,12.61c0,0,.72,2.41-1.69,4.1,0,0-7.73,4.59-10.86,1.21,0,0-1.45-8.93.24-13.52,0,0,1.93-2.9,3.62-3.38,0,0,9.47-1.98,11.88-1.02"/>
  <path class="cls-15" d="m102.16,191.17c0,1.33-.92,2.41-2.05,2.41s-2.05-1.08-2.05-2.41.92-2.41,2.05-2.41,2.05,1.08,2.05,2.41"/>
  <path class="cls-13" d="m108.23,317.32s6.45,1.17,8.21.2c0,0,1.37.98,1.17,2.35l-.2,9.97s-1.56,3.91-3.32,4.1c-1.76.2-19.35,6.06-26.19,4.1,0,0-3.52-1.17-2.93-4.3,0,0,.39-4.89,5.28-3.52,0,0,1.76,3.13,6.65.78,4.89-2.35.78-.2.78-.2l9.97-1.95,1.95-.39-1.17-8.79s-1.56-2.35-.2-2.35"/>
  <path class="cls-20" d="m117.42,329.83l2.15,4.26s-1.4,2.1-3.15,2.45c-1.75.35-3.85-2.8-3.85-2.8"/>
  <path class="cls-16" d="m99.96,343.62c0,2.22-1.25,4.03-2.8,4.03s-2.8-1.8-2.8-4.03,1.25-4.03,2.8-4.03,2.8,1.8,2.8,4.03"/>
  <path class="cls-16" d="m109.24,342.27c0,2.22-1.25,4.03-2.8,4.03s-2.8-1.8-2.8-4.03,1.25-4.03,2.8-4.03,2.8,1.8,2.8,4.03"/>
  <path class="cls-16" d="m119.02,341.43c0,2.22-1.25,4.03-2.8,4.03s-2.8-1.8-2.8-4.03c0-2.22,1.25-4.03,2.8-4.03s2.8,1.8,2.8,4.03"/>
  <path class="cls-20" d="m109.02,322.07c-2.83-.12-2.46-5.17-2.46-5.17,0,0,.95-2.41,2.43-2.9,0,0,4.46.56,6.06-.3,0,0,3.45-.12,3.82,2.83l-.25,3.63c-.07.95-.83,1.7-1.79,1.75-2.09.1-5.65.25-7.81.16"/>
  <path class="cls-12" d="m156.79,23.76c-1.1,3.22-2.35,15.02,4.91,23.45l3.96,4.84,2.2,10.11.88,24.19s-2.2,23.31-2.2,29.02-1.76,14.07,0,18.47c1.76,4.4,2.64,10.55,2.64,16.71s-.88,12.75,0,16.71c.88,3.96,1.76,11.87.88,13.19-.88,1.32-.88,69.48-.88,75.64,0,6.16,0,10.55.88,15.39.88,4.84.88,45.98.88,48.62s.33,26.32.33,26.32c0,0,2.64.88,3.52-.44.88-1.32.12-85.49.12-85.49,0,0,.44-15.39.44-17.15s-.44-27.26-.44-27.26l-1.74-8.59s1.31-66.16,1.31-67.92-.44-8.79-.44-10.11-.44-4.84-1.32-8.8c-.88-3.96-.44-7.92.44-11.43.88-3.52,3.08-19.35,3.52-21.11.44-1.76.88-6.6.88-10.11s1.32-8.8,1.32-10.99-2.64-7.04-2.64-10.11c0-3.08,3.97-7.12,3.97-7.12,0,0,3.07-.94,4.19-3.75.38-.97,1.08-3.64,1.08-3.64,0,0,1.87-8.04-2.09-3.29-4.4,5.28-19.45,7.64-21.36.14-1.66-6.52-2.39-12.99-1.51-15.63.88-2.64-1.42-4.17-3.69.15"/>
  <path class="cls-18" d="m175.71,208.01s-4.26,1.11-7.95-2.05c0,0-1.17-1.16-.17-3.16,0,0,4.45-1.24,7.03-.21s-.18-.29-.18-.29l4.14,1.68s0,4.04-2.86,4.04"/>
  <path class="cls-10" d="m168.78,202.73s-1.47,3.72,2.52,4.39c0,0,4.99,1.1,6.66-.61,0,0-1.16,3.49-8.39.84-.04-.11-3.97-2.07-1.34-5.08l.55.47Z"/>
  <path class="cls-18" d="m177.4,203.09s-3.46,2.11-7.74,0c0,0-1.41-.82-1.15-2.99,0,0,3.58-2.28,6.21-1.93,2.62.35-.26-.23-.26-.23l4.22.59s1.28,3.87-1.28,4.57"/>
  <path class="cls-12" d="m159.32,32.11c.17.5-.33,1,3.67,2.83,4,1.83,7,4.17,8,6.5,1,2.33.5,5.83.5,5.83l-3.5,1.17-5.33-2.67-3-4.67"/>
  <path class="cls-18" d="m165.44,187.72s4.73-5.87,8.7-3.41c0,0,3.03,1.32,2.27,4.54-.76,3.22-2.65,13.06-6.43,11.54,0,0-2.65.57-3.03-3.97,0,0-.19-2.27.76-4.35"/>
  <path class="cls-10" d="m170.17,189.23s-4.16,5.11-1.33,8.89c0,0,2.51,2.77,4.41.68l1.08-.68s-1.7,4.35-5.68,1.89c0,0-6.05-3.6,1.51-10.79"/>
  <path class="cls-9" d="m173.77,198.88c-.06-.64,3.19-4.23,2.46-11.16,0,0,1.89,7-2.46,11.16"/>
  <path class="cls-10" d="m168.22,199.33s.02,0,.02.01c.03.3-1.94,3.49,4.51,3.98,0,0,5.15-.18,6.18-2.23,0,0,.07,3.63-7.75,2.87,0,0-4.28,1.26-4.06-4.17.05-1.15.14-1.59.32-1.5l.78,1.04Z"/>
  <path class="cls-18" d="m111.39,150.9s-13.3,34.15-11.67,45.4c0,0-.63,5.52,1.13,8.07,0,0,4.68,2.27,4.98,4.95.29,2.68-.2,6.28-.77,7.45-.57,1.17-5.1,3.75-5.1,3.75,0,0-2.95,7.54-6.79,7.02,0,0-4.39.42-6.88-1.94,0,0-3.13-.22-5.11-3.02,0,0-2.48.79-3.63-3.4,0,0-2.87-34.81-.51-47.71,0,0,1.32-4.99,2.49-1.03,0,0,2.92-14.1,5.46-18.47.16-.28.33-.52.49-.72,2.33-2.82,2.38.03,2.53,3.07.02.41.04.82.07,1.23.24,3.41,12.87-14.34,17.6-16.18,4.73-1.85,1.17.57,1.17.57,0,0,1.37-.9,2.91-1.74,1.84-1.01,4.08.33,4.09,2.42,0,3.07-.41,7.35-2.44,10.29"/>
  <path class="cls-22" d="m109.54,138.3c-1.45.81-2.7,1.63-2.7,1.63,0,0,3.56-2.41-1.17-.57-4.73,1.85-17.35,19.59-17.6,16.18-.03-.4-.05-.82-.07-1.23-.15-3.05-.2-5.9-2.53-3.07-.16.19-.32.44-.49.72-2.55,4.36-5.46,18.47-5.46,18.47-1.17-3.95-2.49,1.03-2.49,1.03-2.36,12.9.51,47.71.51,47.71.51,1.83,1.26,2.71,1.95,3.12-.15-.66-.36-1.4-.64-2.26-3.19-9.72,0-48.9,0-48.9l2.07,3.82.64-3.66c-.48-6.05,3.96-19.88,4.7-17.94.57,1.52,1.95,7.53,1.95,7.53,9.04-15.85,16.83-19.62,21.34-22.59"/>
  <path class="cls-22" d="m106.23,89.39c-.1-.07-.15-.12-.15-.12-.6,5.79-4.99,3.99-4.99,3.99-3.19-1-3.39-9.98-3.39-9.98l-3.19,3.19c-6.19,4.99-6.18-9.98-6.18-9.98-2.59,3.79-3.39.2-3.39.2-.63-7.59,7.5-17.17,10.91-20.83-5.71,4.37-11.63,10.97-12.79,19.97-.04.34-.08.68-.11,1.02,0,0,.59,4.77,3.97,2.84,0,0-.72,9.17,3.14,10.38,0,0,3.86,1.45,5.55-1.93l1.93-1.93s-1.45,8.69,3.14,10.14c0,0,2.9,1.93,3.86-1.45l1.92-3.59-.22-1.94Z"/>
  <path class="cls-8" d="m95.79,235.6s14.75,2.59,26.26-.33l-1.8-1.37s-16.16,2.43-22.58,0c0,0-2.99,1.34-1.88,1.7"/>
  <path class="cls-8" d="m131.45,235.48s13.16,1.93,24.14-.36l-2.63-1.69s-13.62,2.34-19.74.43c0,0-3.22.84-1.77,1.61"/>
  <path class="cls-11" d="m170.93,167.27s1.54,1.15,2.97,1.68c.29-14.89.55-28.6.55-29.38,0-1.76-.44-8.8-.44-10.11s-.44-4.84-1.32-8.79c-.88-3.96-.44-7.92.44-11.43.88-3.52,3.08-19.35,3.52-21.11.44-1.76.88-6.6.88-10.11s1.32-8.79,1.32-10.99-2.64-7.04-2.64-10.11c0-3.08,3.97-7.12,3.97-7.12,0,0,3.87-1.31,4.19-3.75.13-1.03,1.08-3.64,1.08-3.64,0,0,1.87-8.04-2.09-3.29-3.32,3.98-12.69,6.3-17.92,3.98.54,1.62,1.35,3.48,2.54,5.37,3.39,5.36,3.39,9.32,3.83,12.84.44,3.52,1.32,11.43,1.76,14.51.44,3.08-1.32,14.07-1.76,16.27-.44,2.2-1.76,10.55-1.76,12.31s-2.64,12.75-2.64,14.51-.44,8.36.44,10.55c.88,2.2,2.2,5.72,2.64,8.8.44,3.08.44,3.96.44,7.48s.44,9.23,0,10.99c-.44,1.76,0,10.55,0,10.55"/>
  <path class="cls-20" d="m96.17,331.29s0-1.43,1.43-1.58l6.02-.95s2.22.63,2.53,2.37c0,0-3.48,1.42-5.7,1.42s-.16-2.69-4.27-1.27"/>
  <path class="cls-11" d="m165.44,43.08s1.13-2.82.27-4.36l-.86-1.55s.2-.12,2.06.34c.69.17,4.43,3.68,4.61,7.29"/>
  <path class="cls-20" d="m135.86,339.94c0,3.87,2.98,7,6.65,7s6.65-3.13,6.65-7-2.98-7-6.65-7c-3.67,0-6.65,3.13-6.65,7"/>
  <path class="cls-20" d="m144.26,341c0,3.87,2.98,7,6.65,7,3.67,0,6.65-3.13,6.65-7s-2.98-7-6.65-7-6.65,3.13-6.65,7"/>
  <path class="cls-20" d="m154.77,342.4c0,3.87,2.98,7,6.65,7s6.65-3.13,6.65-7c0-3.87-2.98-7-6.65-7-3.67,0-6.65,3.13-6.65,7"/>
  <path class="cls-13" d="m148.6,317.32s-6.45,1.17-8.21.2c0,0-1.37.98-1.17,2.35l.19,9.97s1.56,3.91,3.32,4.1c1.76.2,19.35,6.06,26.19,4.11,0,0,3.52-1.17,2.93-4.3,0,0-.39-4.89-5.28-3.52,0,0-1.76,3.13-6.65.78-4.89-2.35-.95-.43-.95-.43l-9.8-1.72-1.95-.39,1.17-8.79s1.56-2.35.2-2.35"/>
  <path class="cls-13" d="m139.41,329.83l-2.15,4.26s1.4,2.1,3.15,2.45c1.75.35,3.85-2.8,3.85-2.8"/>
  <path class="cls-16" d="m156.87,343.62c0,2.22,1.25,4.03,2.8,4.03s2.8-1.8,2.8-4.03-1.25-4.03-2.8-4.03-2.8,1.8-2.8,4.03"/>
  <path class="cls-16" d="m147.59,342.27c0,2.22,1.25,4.03,2.8,4.03s2.8-1.8,2.8-4.03-1.25-4.03-2.8-4.03-2.8,1.8-2.8,4.03"/>
  <path class="cls-16" d="m137.8,341.43c0,2.22,1.25,4.03,2.8,4.03s2.8-1.8,2.8-4.03c0-2.22-1.25-4.03-2.8-4.03s-2.8,1.8-2.8,4.03"/>
  <path class="cls-20" d="m147.14,323.13c2.77-.12,2.41-5.17,2.41-5.17,0,0-.19-3.37-3.05-3.37,0,0-4.04,1.05-5.61.19,0,0-3.04-.14-3.41,2.81l.25,3.63c.06.95.82,1.7,1.75,1.75,2.05.1,5.54.25,7.65.16"/>
  <path class="cls-20" d="m159.51,330.87s-.14-1.32-1.57-1.48l-6.02-.95s-2.22.63-2.53,2.37c0,0,3.48,1.43,5.7,1.43s.3-2.8,4.42-1.37"/>
  <path class="cls-20" d="m85.21,335.92s3.14,4.02,16.35.44l11.56-2.75,3.85-3.36.5-.52,2.47,4.31s-.28,1.93-4.24,2.92c0,0-1.21-.44-2.64-1.82l-16.17,3.53s-9.98,1.98-11.69-2.76"/>
  <path class="cls-20" d="m171.56,335.9s-2.75,3.99-15.96.41l-11.56-2.75-3.99-2.88-.69-.81-2.15,4.13s.28,1.93,4.24,2.92c0,0,1.21-.44,2.64-1.82l16.19,3.19s9.58,2.34,11.28-2.39"/>
</svg>