<?xml version="1.0" encoding="UTF-8"?>
<svg id="Capa_1" data-name="Capa 1" xmlns="http://www.w3.org/2000/svg" viewBox="0 0 245 350">
  <defs>
    <style>
      .cls-1 {
        fill: #ad6e31;
      }

      .cls-1, .cls-2, .cls-3, .cls-4, .cls-5, .cls-6, .cls-7, .cls-8, .cls-9, .cls-10, .cls-11, .cls-12, .cls-13, .cls-14, .cls-15 {
        stroke-width: 0px;
      }

      .cls-2 {
        fill: #891b54;
      }

      .cls-3 {
        fill: #7b4e23;
      }

      .cls-4 {
        fill: #eb008b;
      }

      .cls-5 {
        fill: #fde6d3;
      }

      .cls-16 {
        stroke-linecap: round;
        stroke-width: 1.57px;
      }

      .cls-16, .cls-17 {
        fill: none;
        stroke: #221813;
        stroke-miterlimit: 10;
      }

      .cls-6 {
        fill: #8c191c;
      }

      .cls-17 {
        stroke-width: 2.3px;
      }

      .cls-7 {
        fill: #a02063;
      }

      .cls-8 {
        fill: #171640;
      }

      .cls-9 {
        fill: #2e3191;
      }

      .cls-10 {
        fill: #f89c49;
      }

      .cls-11 {
        fill: #ed91bc;
      }

      .cls-12 {
        fill: #b27132;
      }

      .cls-13 {
        fill: #6966ad;
      }

      .cls-14 {
        fill: #f6a6aa;
      }

      .cls-15 {
        fill: #221813;
      }
    </style>
  </defs>
  <path class="cls-10" d="m123.92,71.65s.71-7.63,6.21-9.36c0,0,4.88-1.73,5.59,1.53,0,0,1.22,1.02-.71,3.05,0,0,4.07-1.63,4.68,1.12,0,0,1.42,2.24-1.93,3.97-3.36,1.73-9.87,3.86-13.83-.31"/>
  <path class="cls-10" d="m165.22,195.05s2.04,5.03-1.06,9.52c0,0,8.02,5.35,6.85,7.23-1.17,1.87-1.31,1.57-4.4.23-3.08-1.34-10.26-2.59-10.31-8.95"/>
  <path class="cls-10" d="m147.04,146.95s3.59-6.98,8.14-.54l24.18,25.56s3.35,4.3,1.2,8.86l-22.27,24.65-4.55-11.55,14.84-16.22s-5.03-4.49-5.98-5.03c-.96-.54-13.41-8.56-13.41-8.56"/>
  <path class="cls-1" d="m158.65,195.15l16.83-21.22-4.39.49c-3.66-1.71-8.54-11.95-8.54-11.95l-11.95-1.46-.49,3.41s-.02.1-.06.27c2.84,1.83,11.74,7.55,12.54,8,.96.54,5.98,5.03,5.98,5.03l-12.76,13.95,2.83,3.49Z"/>
  <path class="cls-15" d="m167.03,159.84c.85.85,1.07,2.02.49,2.6s-1.75.36-2.6-.49c-.85-.85-1.07-2.02-.49-2.6s1.75-.36,2.6.49"/>
  <path class="cls-15" d="m163.11,167.78c.85.85,1.07,2.02.49,2.6s-1.75.36-2.6-.49c-.85-.85-1.07-2.02-.49-2.6s1.75-.36,2.6.49"/>
  <path class="cls-15" d="m167.71,165.01c.85.85,1.07,2.02.49,2.6s-1.75.36-2.6-.49c-.85-.85-1.07-2.02-.49-2.6s1.75-.36,2.6.49"/>
  <path class="cls-10" d="m119.19,145.39l-7.66,6.72s26.04,48.77,13.72,65.2c0,0,17.23,3.53,28.41,2.31,0,0,8.18.43,11.06-2.93-5.47,5.07-13.78-56.48-17.12-64.27-3.26-7.6-16.92-12.83-28.41-7.03"/>
  <path class="cls-1" d="m159.46,207.15c-.06-.2-.11-.41-.17-.62l-16.4-10.72-4.83,1.45h-5.8s-4.05,2.09-4.05,2.09c.85,7.22.25,13.68-2.96,17.95,0,0,1.51.31,3.91.71,1.2-2.49,4.07-5.54,5.24-6.73.46,0,.95-.01,1.48-.02,12.79-.21,21.51-3.31,23.58-4.12"/>
  <path class="cls-4" d="m125.61,215.68s-25.45,80.12-25.56,81.08c-.11.96,18.68-5.82,18.68-5.82l25.78-48.83s1.71-1.26,5.6.97l14.69,81.24,10.44-32.24s-5.25-49.72-10.4-73.83c-.28-1.31-1.61-2.11-2.9-1.75-6.26,1.74-23.67,5.62-36.32-.82"/>
  <path class="cls-2" d="m124.49,216.82c-2.42,8.16-14.85,49.97-24.78,79.98,2.88.07,5.56-.25,5.56-.25l25.98-76.71c1.64-.1,6.74-.14,9.14-.74-3.4-.58-10.21-1.61-14.19-3.12-.71-.27-1.5.11-1.72.84"/>
  <path class="cls-2" d="m150.1,243.07l11.9,65.82c3.13.51,6.64,1.05,7.32,1.05,1.15,0-11.42-56.9-14.1-69.22-.28-1.27-3-3.55-4.24-3.15-6.22,1.98-7.4,5.7-7.4,5.7,0,0,2.63-2.44,6.52-.2"/>
  <path class="cls-8" d="m101.64,290.79s12.83,2.24,17.67-.96l-15.82,37.35.18-1.6s4.05-1.92,4.28,1.6c0,0-.98,5.75-2.63,8.94l-3.09,7.34s-3.41,1.91-3.23.32c.19-1.6,1.86-10.53,1.86-10.53,0,0-10.96,14.68-12.98,15.64-2.03.96-9.01.64-9.39-1.6-.38-2.23,11.33-17.87,12.52-22.66,1.19-4.79,10.62-33.83,10.62-33.83"/>
  <path class="cls-8" d="m175.35,290.8s-12.89,2.07-16.99-1.12l6.71,37.51.19-1.6s-3.61-1.92-4.65,1.6c0,0-.35,5.75.56,8.94l1.38,7.34s2.97,1.92,3.15.32c.18-1.6.58-10.53.58-10.53,0,0,7.56,14.68,9.36,15.64,1.8.96,8.86.64,9.76-1.6.9-2.23-7.19-17.88-7.27-22.66-.08-4.79-2.78-33.84-2.78-33.84"/>
  <path class="cls-13" d="m126.59,260.26h-45.9c-1.63,0-2.97-1.34-2.97-2.97v-20.06c0-1.63,1.34-2.97,2.97-2.97h45.9c1.63,0,2.97,1.34,2.97,2.97v20.06c0,1.63-1.34,2.97-2.97,2.97"/>
  <path class="cls-8" d="m123,260.26h-45.9c-1.63,0-2.97-1.34-2.97-2.97v-20.06c0-1.63,1.34-2.97,2.97-2.97h45.9c1.63,0,2.97,1.34,2.97,2.97v20.06c0,1.63-1.34,2.97-2.97,2.97"/>
  <path class="cls-10" d="m101.97,228.95l.29.96s4.79-1.92,6.46.24c0,0,1.44,1.92,1.44,4.07l-7.18.48s-.72,11.73,0,15.8c0,0-.24,3.11-2.63,3.11s-3.83-7.9-3.83-11.49l-.48-6.22s-1.44,10.77-.24,15.8c0,0-.72,3.35-2.63,2.63l-2.39-.72s-2.73.76-3.7-1.84c-.64-1.71-2.76-9.89-.6-16.84,0,0,4.42-5.27,7.78-6.22,0,0,1.21-.13,1.27-.13l6.46.37Z"/>
  <path class="cls-13" d="m122.92,241.04c0,2.45-1.93,4.43-4.31,4.43s-4.31-1.98-4.31-4.43,1.93-4.43,4.31-4.43,4.31,1.98,4.31,4.43"/>
  <path class="cls-8" d="m120.86,241.04c0,1.28-1.01,2.31-2.25,2.31s-2.25-1.03-2.25-2.31,1.01-2.31,2.25-2.31,2.25,1.03,2.25,2.31"/>
  <path class="cls-3" d="m90.77,253.6s-1.59-10.86.2-15.25c0,0-2.36,7.88-.73,15.2,0,0-.15.18.53.05"/>
  <path class="cls-10" d="m114.46,150.39s-11.28-9.78-14.01,6.77l-5.25,67.95s-4.72,6.74.7,7.01c-2.3.23-1.66,2.11,6.47-1.79,1.89-.91,11.49-51.35,15.37-62.54.34-.97-1.24-1.67-.97-5.24.11-1.42-1.66-3.02-2.43-4.81-1.83-4.27-1.93-7.45-1.93-7.45"/>
  <path class="cls-1" d="m95.14,225.09s-1.37,1.91-1.64,3.88l3.28-1.31,4.31-38.37c.73-6.34,10-7.56,10-7.56l-11.47-13.86-4.48,57.21Z"/>
  <path class="cls-15" d="m103.18,183c-.49,1.21-1.62,1.89-2.52,1.53-.9-.37-1.22-1.64-.73-2.85.49-1.21,1.62-1.89,2.52-1.53.9.37,1.22,1.64.73,2.85"/>
  <path class="cls-15" d="m111.2,183.74c-.49,1.21-1.62,1.89-2.52,1.53-.9-.37-1.22-1.64-.73-2.85.49-1.21,1.62-1.89,2.52-1.53.9.37,1.22,1.64.73,2.85"/>
  <path class="cls-15" d="m106.43,186.86c-.18,1.13-1,1.94-1.83,1.81s-1.37-1.15-1.19-2.28c.18-1.13,1-1.94,1.84-1.81.84.13,1.37,1.15,1.19,2.28"/>
  <path class="cls-9" d="m115.3,147.69s-12.62-5.39-15.43,8.68c0,0-.77,19.06-2.74,22.75,0,0,.77,4.3,7.18,3.35,6.41-.95,9.37-.53,10.77.8l2.87-16.07"/>
  <path class="cls-9" d="m144.46,145.97s6.55-5.32,10.3-2.06c0,0,10.44,12.39,13.37,14.03,0,0-3.16,1.65-3.91,4.89-1.42,6.11-5.47,12.05-8.74,11.23"/>
  <path class="cls-9" d="m113.95,177.72c1.01,3.2,5.67,18.26,6.16,24.37.17,2.09,1.47,3.93,3.44,4.68.52.2,1.12.37,1.81.5.14.03.28.05.42.06,2.34.27,23.33,2.59,34.16-.38,2.85-.78,4.54-3.72,3.81-6.58-3.24-12.63-12.76-49.22-14.87-51.94-2.55-3.29-13.41-7.47-16.6-6.87-2.82.53-13.36,1.99-15.78,2.32-.33.05-.66.12-.98.23-2.35.79-3.87,3.06-3.69,5.53l1.89,26.84c.03.42.11.84.24,1.25"/>
  <path class="cls-10" d="m124.29,140.13l2.55,11.17s6.7,6.7,14.04,5.11l-2.23-17.24-14.36.96Z"/>
  <polygon class="cls-1" points="138.66 139.17 124.29 140.13 126.61 150.26 138.85 140.67 138.66 139.17"/>
  <polygon class="cls-4" points="151.08 182.15 143.3 180.61 135.99 183.69 135.04 175.81 129.86 169.81 137.06 166.48 141.17 159.7 146.56 165.51 154.28 167.32 150.41 174.25 151.08 182.15"/>
  <g>
    <path class="cls-4" d="m172.92,114.63h0c-8.15,2.05-16.49-2.94-18.54-11.09l-2.09-8.29c-2.05-8.15,2.94-16.49,11.09-18.54,8.15-2.05,16.49,2.94,18.54,11.09l2.09,8.29c2.05,8.15-2.94,16.49-11.09,18.54"/>
    <path class="cls-7" d="m184,96.08l-.13-.53c-3.46,2.31-9.94,1.74-9.94,1.74l-5.11,8.62,8.14,7.02.09-.04c5.6-3.38,8.62-10.16,6.95-16.82"/>
    <path class="cls-10" d="m169.97,87.94s-.89-.38-.66-1.2c.08-.27.14-.6.21-.96.93-5.48.51-20.82.51-20.82-.48-4.31-3.59-3.83-3.59-3.83-7.9.96-18.43,11.49-18.43,11.49-10.95-3.51-25.6-1.38-25.6-1.38-4.55.48-15.34,4.96-15.34,4.96l-11.49-11.49c-4.31-4.31-8.38-4.31-8.38-4.31-5.27,3.11-5.75,23.7-5.75,23.7-1.78,3.2-3.11,6.29-4.1,9.24-3.37,5.94-7.4,16.08-4.04,26.91,0,0,1.74,3.48,3.36.27.3.9.54,1.49.65,1.74.68,2.9,2.37,7.9,6.29,10.68,0,0,2.99,2.04,4.36,1.4,13.55,9.79,31.07,9.37,31.07,9.37,22.11,2.77,35.77-2.54,44.13-9.3,1.44.4,4.18-1.47,4.18-1.47,5.07-3.59,6.41-10.91,6.66-12.58.03-.08.07-.15.1-.23,1.66,3.86,3.54.12,3.54.12,5.27-17-7.66-32.32-7.66-32.32"/>
    <path class="cls-12" d="m130.6,63.38c-.48.09-.94.23-1.37.41.47-.08.91-.15,1.3-.19,0,0,.02-.08.07-.22"/>
    <path class="cls-12" d="m170.81,126.12c-8.36,6.76-22.01,12.06-44.13,9.3,0,0-17.52.42-31.07-9.37-1.37.63-4.36-1.4-4.36-1.4-3.92-2.78-5.61-7.78-6.29-10.68-.11-.25-.35-.84-.65-1.74-1.62,3.21-3.36-.27-3.36-.27-3.35-10.83.67-20.97,4.04-26.91.99-2.95,2.32-6.04,4.1-9.24,0,0,.18-7.79,1.55-14.51-2.04-.88-3.46-.89-3.46-.89-5.27,3.11-5.75,23.7-5.75,23.7-1.78,3.2-3.11,6.29-4.1,9.24-3.37,5.94-7.4,16.08-4.04,26.91,0,0,1.74,3.48,3.36.27.3.9.54,1.49.65,1.74.68,2.9,2.37,7.9,6.29,10.68,0,0,2.99,2.04,4.36,1.4,13.55,9.79,31.07,9.37,31.07,9.37,22.11,2.76,35.77-2.54,44.13-9.3,1.44.4,4.18-1.47,4.18-1.47,2.54-1.8,4.14-4.52,5.14-7.01-.6.2-1.19.31-1.65.18"/>
    <path class="cls-15" d="m101.74,131.04c-.62,1.2-2.63,1.39-4.49.43-1.86-.96-2.87-2.71-2.25-3.9.62-1.2,2.63-1.39,4.49-.43,1.86.96,2.87,2.71,2.25,3.9"/>
    <path class="cls-15" d="m86.31,120.51c-.7,1.35-2.66,1.73-4.38.84-1.72-.89-2.56-2.71-1.86-4.06.7-1.35,2.66-1.73,4.38-.84,1.72.89,2.56,2.71,1.86,4.06"/>
    <path class="cls-15" d="m171.63,120.27c.88.57.82,2.24-.14,3.72-.96,1.48-2.45,2.22-3.34,1.65s-.82-2.24.14-3.72c.96-1.48,2.45-2.22,3.34-1.65"/>
    <path class="cls-15" d="m163.79,129.44c.56.79.1,2.09-1.04,2.9-1.14.81-2.52.82-3.08.02-.56-.79-.1-2.09,1.04-2.9s2.52-.82,3.08-.02"/>
    <path class="cls-15" d="m175.2,112.32c.56.79.1,2.09-1.04,2.9-1.14.81-2.52.82-3.08.02-.56-.79-.1-2.09,1.04-2.9s2.52-.82,3.08-.02"/>
    <path class="cls-15" d="m112.86,137.88c-.21,1.27-1.82,2.06-3.59,1.77-1.77-.3-3.03-1.57-2.82-2.84.21-1.27,1.82-2.06,3.59-1.77,1.77.3,3.03,1.57,2.82,2.84"/>
    <path class="cls-15" d="m98.91,119.6c-.71,1.19-2.74,1.29-4.52.22-1.78-1.07-2.65-2.9-1.94-4.09.71-1.19,2.74-1.29,4.52-.22,1.78,1.07,2.65,2.9,1.94,4.09"/>
    <path class="cls-15" d="m135.43,74.44c-.1,1.15-1.97,1.92-4.18,1.72-2.21-.2-3.91-1.29-3.81-2.43.1-1.15,1.98-1.92,4.18-1.72,2.21.2,3.91,1.29,3.81,2.43"/>
    <path class="cls-15" d="m142.65,75.96c-.07.84-1.34,1.41-2.82,1.28-1.48-.13-2.62-.92-2.55-1.76.07-.84,1.34-1.41,2.82-1.28,1.48.13,2.62.92,2.55,1.76"/>
    <path class="cls-15" d="m123.47,75.96c0,1.09-1.3,1.98-2.9,1.98s-2.9-.89-2.9-1.98,1.3-1.98,2.9-1.98,2.9.89,2.9,1.98"/>
    <path class="cls-15" d="m129.89,81.71c-.14,1.01-1.52,1.66-3.09,1.44-1.56-.22-2.72-1.22-2.57-2.23.14-1.01,1.52-1.66,3.09-1.44,1.56.22,2.72,1.22,2.57,2.23"/>
    <path class="cls-15" d="m142.02,81.49c-.14.97-1.47,1.59-2.99,1.38-1.51-.21-2.63-1.17-2.5-2.14.14-.97,1.47-1.59,2.99-1.38,1.51.21,2.63,1.17,2.5,2.14"/>
    <path class="cls-15" d="m112.19,128.11c-.71,1.19-2.74,1.29-4.52.22-1.78-1.07-2.65-2.9-1.94-4.09.71-1.19,2.74-1.29,4.52-.22,1.78,1.07,2.65,2.9,1.94,4.09"/>
    <path class="cls-15" d="m90.15,130.54c-.55.92-2.09,1.02-3.42.22-1.34-.8-1.97-2.2-1.42-3.12s2.09-1.02,3.42-.22c1.34.8,1.97,2.2,1.42,3.12"/>
    <path class="cls-5" d="m86.63,64.48s8.94,1.92,14.36,11.49c0,0-13.41-.32-18.51,7.98,0,0-.64-18.51,4.15-19.47"/>
    <path class="cls-6" d="m96.21,55.54s54.9-9.09,65.75,21.07l9.1,8.3s-3.03-13.41-6.06-17.72c-3.03-4.31-28.25-27.77-68.79-11.66"/>
    <path class="cls-4" d="m72.61,114.79h0c-8.31-1.21-14.13-9-12.92-17.31l1.23-8.46c1.21-8.31,9-14.13,17.31-12.92,8.31,1.21,14.13,9,12.92,17.31l-1.23,8.46c-1.21,8.31-9,14.13-17.31,12.92"/>
    <path class="cls-7" d="m89.93,101.87l.34-2.33c-4.45,1.03-13.85-2.1-13.85-2.1l-16.78,1.63.18,3.47v.02c1.21,6.19,6.22,11.27,12.79,12.22,8.31,1.21,16.11-4.61,17.31-12.92"/>
    <path class="cls-4" d="m66.85,84.45s10.15-26.35,27.31-32.47c0,0,65.32-18.37,78.74,27.99l.68,4.06-3.87.85s.68-30.98-44.38-34.19c0,0-46.69-2.18-46.43,29.48l-.91,8.76s-3.41,3.85-7.28,3.2c0,0-5.01.43-3.87-7.69"/>
    <path class="cls-14" d="m67.87,109.96h0c-4.56-.66-7.75-4.94-7.09-9.49l1.73-11.92c.66-4.56,4.94-7.75,9.49-7.09,4.56.66,7.75,4.94,7.09,9.49l-1.73,11.92c-.66,4.56-4.94,7.75-9.49,7.09"/>
    <path class="cls-4" d="m65.63,107.11h0c-3.86-.56-6.55-4.17-5.99-8.03l1.46-10.08c.56-3.86,4.17-6.55,8.03-5.99,3.86.56,6.55,4.17,5.99,8.03l-1.46,10.08c-.56,3.85-4.17,6.55-8.03,5.99"/>
    <path class="cls-10" d="m168.16,83.25c.18.16,1.22.94,1.42,1.04.33-6.71.69-18.93.69-18.93-.48-4.31-3.83-4.23-3.83-4.23-7.14.86-16.43,9.55-18.15,11.21,2.89.8,16.14,7.59,19.88,10.9"/>
    <path class="cls-5" d="m167.1,63.69s-9.1.83-15.64,9.69c0,0,12.38,1.88,17.21,10.5,0,0,2.24-18.11-1.57-20.19"/>
    <path class="cls-11" d="m80.89,87.72s6.06-.64,7.82.48c0,0,.16-4.79-3.19-7.5l-8.62.16s3.83,3.51,4.15,6.22"/>
    <path class="cls-11" d="m173.77,90.11s3.79-.4,6.25-.01c.84.13,1.55-.62,1.4-1.46-.27-1.53-.95-3.65-2.65-5.23-.23-.21-.54-.31-.85-.31l-5.65.1c-1,.02-1.57,1.14-1,1.96.82,1.19,1.7,2.76,1.87,4.15"/>
    <path class="cls-5" d="m148.68,97.45c-15.83-.99-11.22.33-11.22.33,0,0-21.94-1.65-17.48,17.65,0,0,1.86,8.65,8.65,13.24,13.22,7.16,25.54,5.14,30.3-3.05.99.27,2.23-4.15,2.23-4.15,1.06-.75.74-2.16,1.37-3.21.46-7.13-1.32-20.02-13.86-20.8"/>
    <path class="cls-17" d="m143.45,106s-.7,9.14-10.72,5.1c0,0-4.57-1.93-3.16-6.68"/>
    <path class="cls-17" d="m143.45,107.06s.53,6.15,7.74,4.04c0,0,5.8-1.41,2.99-6.15"/>
    <path class="cls-16" d="m142.01,121.7s4.55-1.44,5.27-4.07"/>
    <path class="cls-6" d="m133.76,97.34s4.69,6.24,8,8.25c0,0,2.61.88,4.3-.79,0,0,5.78-4.71,6.53-7.23,0,0-6.64-3.17-18.83-.23"/>
    <path class="cls-5" d="m138.05,98.12s7.47-1.44,11.15-.26c0,0-9.7,1.05-10.1,2.1,0,0-2.88-1.97-1.05-1.84"/>
    <path class="cls-15" d="m113.28,87.62s-9.58.96-12.45-1.92c0,0,.96,4.79,11.01,3.83l1.44-1.91Z"/>
    <path class="cls-15" d="m152.88,87.01s8.28.93,11.16-1.94c0,0-.96,4.79-11.01,3.83l-.14-1.89Z"/>
    <path class="cls-15" d="m119.11,88.3c-.2-.55-.5-1.04-.88-1.44l-7.51.93c-.23.81.2,2.49.5,3.34l2.18,6.08c.78,2.17,3.19,3.31,5.36,2.53,2.17-.78,3.31-3.19,2.53-5.36l-2.18-6.08Z"/>
    <path class="cls-15" d="m160.57,90.45c.13-.43-.21-2.34-.28-2.77l-6.17.11c-.56.36-.33-.41-.53.25l-1.46,4.7c-.52,1.68.63,3.59,2.55,4.25,1.92.66,3.92-.17,4.44-1.84l1.46-4.7Z"/>
  </g>
</svg>