<svg xmlns="http://www.w3.org/2000/svg" viewBox="0 0 272.62 651.55"><defs><style>.cls-1{fill:#f89c49;}.cls-2{fill:#ad6e31;}.cls-3{fill:#221813;}.cls-4{fill:#eb008b;}.cls-5{fill:#891b54;}.cls-6{fill:#171640;}.cls-7{fill:#6966ad;}.cls-8{fill:#7b4e23;}.cls-9{fill:#2e3191;}.cls-10{fill:#a02063;}.cls-11{fill:#b27132;}.cls-12{fill:#fde6d3;}.cls-13{fill:#8c191c;}.cls-14{fill:#f6a6aa;}.cls-15{fill:#ed91bc;}.cls-16,.cls-17{fill:none;stroke:#221813;stroke-miterlimit:10;}.cls-16{stroke-width:2.3px;}.cls-17{stroke-linecap:round;stroke-width:1.57px;}</style></defs><title>Recurso 2</title><g id="Capa_2" data-name="Capa 2"><g id="Capa_1-2" data-name="Capa 1"><path class="cls-1" d="M139.37,50.36s1.54-16.51,13.43-20.26c0,0,10.57-3.74,12.11,3.3,0,0,2.64,2.2-1.54,6.61,0,0,8.81-3.52,10.13,2.42,0,0,3.08,4.84-4.18,8.59s-21.36,8.37-29.94-.66"/><path class="cls-1" d="M228.78,317.45s4.41,10.89-2.3,20.61c0,0,17.35,11.59,14.83,15.64s-2.84,3.4-9.51.5-22.2-5.6-22.31-19.37"/><path class="cls-1" d="M189.41,213.35s7.77-15.11,17.62-1.16l52.34,55.32s7.26,9.3,2.59,19.18l-48.19,53.37-9.85-25L236,279.94s-10.88-9.72-13-10.88-29-18.52-29-18.52"/><path class="cls-2" d="M214.55,317.68,251,271.76l-9.5,1.06c-7.92-3.7-18.48-25.87-18.48-25.87l-25.87-3.17-1.06,7.39-.13.58c6.14,4,25.4,16.33,27.14,17.31,2.07,1.16,13,10.88,13,10.88l-27.62,30.19Z"/><path class="cls-3" d="M232.69,241.24c1.85,1.85,2.32,4.37,1.06,5.63s-3.78.79-5.63-1.06-2.32-4.37-1.06-5.63,3.78-.79,5.63,1.06"/><path class="cls-3" d="M224.2,258.43c1.85,1.85,2.32,4.37,1.06,5.63s-3.78.79-5.63-1.06-2.32-4.37-1.06-5.63,3.78-.79,5.63,1.06"/><path class="cls-3" d="M234.16,252.44c1.85,1.85,2.32,4.37,1.06,5.63s-3.78.79-5.63-1.06-2.32-4.37-1.06-5.63,3.78-.79,5.63,1.06"/><path class="cls-1" d="M129.13,210l-16.58,14.55s56.38,105.57,29.71,141.12c0,0,37.3,7.65,61.49,5,0,0,17.71.93,23.93-6.34-11.85,11-29.83-122.26-37.06-139.12-7-16.46-36.62-27.77-61.49-15.21"/><path class="cls-2" d="M216.3,343.64l-.36-1.34-35.51-23.19L170,322.25H157.42l-8.76,4.53c1.85,15.63.54,29.61-6.4,38.86,0,0,3.26.67,8.46,1.54,2.59-5.4,8.82-12,11.35-14.56l3.19,0c27.69-.45,46.55-7.17,51-8.93"/><path class="cls-4" d="M143,362.11S88,535.53,87.71,537.61,128.13,525,128.13,525l55.8-105.7s3.7-2.73,12.13,2.11l31.8,175.84,22.59-69.78s-11.38-107.62-22.53-159.79a5,5,0,0,0-6.29-3.79C208.1,367.64,170.4,376,143,362.11"/><path class="cls-5" d="M140.62,364.6C135.39,382.26,108.49,472.77,87,537.72a95.84,95.84,0,0,0,12-.55l56.22-166c3.54-.21,14.59-.31,19.79-1.61-7.35-1.25-22.11-3.48-30.71-6.75a2.82,2.82,0,0,0-3.72,1.83"/><path class="cls-5" d="M196.06,421.41l25.76,142.47c6.79,1.1,14.38,2.27,15.85,2.27,2.48,0-24.72-123.15-30.53-149.82-.6-2.75-6.5-7.68-9.19-6.82-13.46,4.28-16,12.34-16,12.34s5.69-5.28,14.12-.44"/><path class="cls-6" d="M91.17,524.7s27.77,4.84,38.24-2.07L95.17,603.46l.4-3.45s8.77-4.15,9.27,3.45c0,0-2.13,12.44-5.69,19.35L92.47,638.7s-7.39,4.15-7,.69,4-22.8,4-22.8-23.72,31.78-28.1,33.85S41.9,651.83,41.08,647s24.52-38.69,27.1-49.06,23-73.24,23-73.24"/><path class="cls-6" d="M250.71,524.7s-27.91,4.49-36.78-2.42l14.53,81.18.4-3.45s-7.81-4.15-10.07,3.45c0,0-.75,12.44,1.21,19.35l3,15.89s6.43,4.15,6.83.69,1.26-22.8,1.26-22.8,16.36,31.78,20.26,33.85,19.19,1.38,21.13-3.45-15.56-38.69-15.74-49.06-6-73.24-6-73.24"/><path class="cls-7" d="M145.18,458.62H45.83a6.45,6.45,0,0,1-6.43-6.43V408.77a6.45,6.45,0,0,1,6.43-6.43h99.35a6.45,6.45,0,0,1,6.43,6.43v43.42a6.45,6.45,0,0,1-6.43,6.43"/><path class="cls-6" d="M137.4,458.62H38.06a6.45,6.45,0,0,1-6.43-6.43V408.77a6.45,6.45,0,0,1,6.43-6.43H137.4a6.45,6.45,0,0,1,6.43,6.43v43.42a6.45,6.45,0,0,1-6.43,6.43"/><path class="cls-1" d="M91.88,390.84l.63,2.07s10.36-4.15,14,.52c0,0,3.11,4.15,3.11,8.81l-15.55,1s-1.55,25.39,0,34.2c0,0-.52,6.74-5.7,6.74s-8.29-17.1-8.29-24.87l-1-13.47s-3.11,23.32-.52,34.2c0,0-1.55,7.25-5.7,5.7l-5.18-1.55s-5.9,1.66-8-4c-1.39-3.7-6-21.42-1.31-36.44,0,0,9.58-11.4,16.83-13.47,0,0,2.61-.29,2.75-.29Z"/><path class="cls-7" d="M137.22,417a9.33,9.33,0,1,1-9.33-9.59,9.46,9.46,0,0,1,9.33,9.59"/><path class="cls-6" d="M132.76,417a4.87,4.87,0,1,1-4.87-5,4.94,4.94,0,0,1,4.87,5"/><path class="cls-8" d="M67.64,444.21s-3.44-23.51.43-33c0,0-5.1,17.07-1.58,32.9,0,0-.33.38,1.15.1"/><path class="cls-1" d="M118.91,220.79s-24.43-21.16-30.32,14.66L77.23,382.53S67,397.12,78.76,397.69c-5,.5-3.59,4.56,14-3.88,4.1-2,24.86-111.14,33.27-135.37.73-2.1-2.69-3.62-2.1-11.34.23-3.07-3.6-6.54-5.26-10.41a49.09,49.09,0,0,1-4.18-16.13"/><path class="cls-2" d="M77.1,382.49a22,22,0,0,0-3.55,8.41l7.1-2.83L90,305c1.58-13.72,21.64-16.36,21.64-16.36l-24.82-30Z"/><path class="cls-3" d="M94.49,291.38c-1.07,2.62-3.51,4.1-5.45,3.3s-2.64-3.56-1.57-6.18,3.51-4.1,5.45-3.3,2.64,3.56,1.57,6.18"/><path class="cls-3" d="M111.84,293c-1.07,2.62-3.51,4.1-5.45,3.3s-2.64-3.56-1.57-6.18,3.51-4.1,5.45-3.3,2.64,3.56,1.57,6.18"/><path class="cls-3" d="M101.52,299.73c-.38,2.44-2.16,4.19-4,3.91s-3-2.49-2.58-4.94,2.16-4.19,4-3.91,3,2.5,2.58,4.94"/><path class="cls-9" d="M120.71,214.95S93.4,203.29,87.32,233.74c0,0-1.66,41.25-5.93,49.24,0,0,1.67,9.3,15.55,7.25s20.28-1.15,23.32,1.73l6.21-34.79"/><path class="cls-9" d="M183.83,211.23s14.17-11.52,22.29-4.46c0,0,22.59,26.83,28.95,30.36,0,0-6.84,3.58-8.47,10.59-3.07,13.22-11.85,26.07-18.91,24.31"/><path class="cls-9" d="M117.8,280c2.18,6.92,12.28,39.53,13.34,52.74a11.73,11.73,0,0,0,7.44,10.12,23.58,23.58,0,0,0,3.92,1.08c.3.06.61.1.91.14,5.06.59,50.51,5.6,73.93-.82A11.73,11.73,0,0,0,225.58,329c-7-27.33-27.63-106.54-32.2-112.42-5.53-7.12-29-16.17-35.93-14.88-6.1,1.14-28.93,4.31-34.16,5a11.75,11.75,0,0,0-10.11,12.46l4.1,58.1a11.67,11.67,0,0,0,.51,2.7"/><path class="cls-1" d="M140.18,198.59l5.53,24.18s14.51,14.51,30.4,11.05l-4.84-37.31Z"/><polygon class="cls-2" points="171.27 196.51 140.18 198.59 145.2 220.52 171.69 199.77 171.27 196.51"/><polygon class="cls-4" points="198.16 289.53 181.32 286.21 165.5 292.86 163.45 275.82 152.24 262.83 167.81 255.62 176.71 240.94 188.38 253.52 205.08 257.44 196.72 272.43 198.16 289.53"/><path class="cls-4" d="M245.42,143.38h0a33.16,33.16,0,0,1-40.14-24l-4.51-17.94A33.06,33.06,0,0,1,264.9,85.3l4.51,17.94a33.16,33.16,0,0,1-24,40.14"/><path class="cls-10" d="M269.42,103.24l-.29-1.15c-7.49,5-21.51,3.78-21.51,3.78l-11.05,18.65,17.62,15.2.2-.08a33.19,33.19,0,0,0,15-36.4"/><path class="cls-1" d="M239,85.62s-1.92-.82-1.43-2.59a21.16,21.16,0,0,0,.45-2.08c2-11.86,1.11-45.07,1.11-45.07-1-9.33-7.77-8.29-7.77-8.29-17.1,2.07-39.9,24.87-39.9,24.87-23.7-7.6-55.41-3-55.41-3-9.85,1-33.2,10.75-33.2,10.75L78,35.36C68.67,26,59.86,26,59.86,26c-11.4,6.74-12.44,51.3-12.44,51.3a119.67,119.67,0,0,0-8.87,20c-7.29,12.86-16,34.81-8.74,58.25,0,0,3.77,7.53,7.26.59.64,1.94,1.17,3.22,1.41,3.76,1.47,6.28,5.13,17.1,13.61,23.11,0,0,6.47,4.41,9.44,3,29.33,21.19,67.25,20.28,67.25,20.28,47.86,6,77.42-5.51,95.51-20.13,3.11.86,9-3.18,9-3.18,11-7.77,13.88-23.61,14.41-27.23l.22-.49c3.6,8.36,7.66.25,7.66.25,11.4-36.79-16.58-70-16.58-70"/><path class="cls-11" d="M153.81,32.47a14,14,0,0,0-3,.89c1-.18,2-.33,2.81-.42,0,0,.05-.17.16-.47"/><path class="cls-11" d="M240.87,168.26c-18.09,14.62-47.65,26.12-95.51,20.13,0,0-37.92.91-67.25-20.28-3,1.37-9.44-3-9.44-3-8.48-6-12.14-16.83-13.61-23.11-.24-.54-.76-1.82-1.4-3.76-3.5,6.94-7.26-.59-7.26-.59-7.26-23.44,1.46-45.39,8.74-58.25a119.67,119.67,0,0,1,8.87-20s.4-16.86,3.35-31.41A21.2,21.2,0,0,0,59.86,26c-11.4,6.74-12.44,51.3-12.44,51.3a119.67,119.67,0,0,0-8.87,20c-7.29,12.86-16,34.81-8.74,58.25,0,0,3.77,7.53,7.26.59.64,1.94,1.17,3.22,1.4,3.76C39.95,166.21,43.61,177,52.09,183c0,0,6.47,4.41,9.44,3,29.33,21.19,67.25,20.28,67.25,20.28,47.86,6,77.42-5.51,95.51-20.13,3.11.86,9-3.19,9-3.19,5.49-3.89,9-9.79,11.12-15.18a6.47,6.47,0,0,1-3.58.4"/><path class="cls-3" d="M91.37,178.91c-1.34,2.59-5.68,3-9.71.93s-6.21-5.86-4.87-8.45,5.68-3,9.71-.93,6.21,5.86,4.88,8.45"/><path class="cls-3" d="M58,156.14c-1.51,2.93-5.76,3.74-9.49,1.81s-5.54-5.86-4-8.78,5.76-3.74,9.49-1.81,5.54,5.86,4,8.78"/><path class="cls-3" d="M242.64,155.6c1.91,1.24,1.78,4.84-.29,8.05s-5.31,4.81-7.22,3.57-1.78-4.84.29-8.05,5.31-4.81,7.22-3.57"/><path class="cls-3" d="M225.67,175.44c1.22,1.72.21,4.53-2.25,6.27s-5.44,1.77-6.66,0-.21-4.53,2.25-6.27,5.44-1.77,6.66,0"/><path class="cls-3" d="M250.36,138.38c1.22,1.72.21,4.53-2.25,6.27s-5.44,1.77-6.66,0-.21-4.53,2.25-6.27,5.44-1.77,6.66,0"/><path class="cls-3" d="M115.43,193.71c-.46,2.75-3.94,4.46-7.77,3.82s-6.56-3.4-6.1-6.15,3.94-4.46,7.77-3.82,6.56,3.4,6.1,6.15"/><path class="cls-3" d="M85.25,154.15c-1.54,2.58-5.93,2.8-9.79.49s-5.74-6.28-4.2-8.86,5.93-2.8,9.79-.48,5.74,6.28,4.2,8.85"/><path class="cls-3" d="M164.28,56.41c-.22,2.48-4.27,4.15-9.05,3.72s-8.47-2.78-8.25-5.26,4.27-4.15,9.05-3.72,8.47,2.78,8.25,5.26"/><path class="cls-3" d="M179.9,59.69c-.16,1.82-2.89,3.06-6.1,2.77s-5.67-2-5.51-3.81,2.89-3.06,6.1-2.77,5.67,2,5.51,3.81"/><path class="cls-3" d="M138.39,59.7c0,2.37-2.81,4.28-6.27,4.28s-6.27-1.92-6.27-4.28,2.81-4.28,6.27-4.28,6.27,1.92,6.27,4.28"/><path class="cls-3" d="M152.28,72.15c-.31,2.2-3.3,3.59-6.68,3.12s-5.88-2.64-5.57-4.83,3.3-3.59,6.68-3.12,5.88,2.64,5.57,4.83"/><path class="cls-3" d="M178.54,71.67c-.29,2.11-3.19,3.44-6.47,3s-5.7-2.53-5.41-4.64,3.19-3.44,6.47-3,5.7,2.53,5.41,4.64"/><path class="cls-3" d="M114,172.57c-1.54,2.58-5.93,2.8-9.79.49s-5.74-6.28-4.2-8.86,5.93-2.8,9.79-.48,5.74,6.28,4.2,8.85"/><path class="cls-3" d="M66.28,177.84c-1.2,2-4.51,2.21-7.41.48s-4.27-4.76-3.08-6.76,4.51-2.21,7.41-.48,4.27,4.76,3.08,6.76"/><path class="cls-12" d="M58.65,34.84S78,39,89.75,59.71c0,0-29-.69-40.07,17.27,0,0-1.38-40.07,9-42.15"/><path class="cls-13" d="M79.38,15.5S198.22-4.2,221.71,61.1l19.69,18s-6.56-29-13.13-38.34S167.13-19.4,79.38,15.5"/><path class="cls-4" d="M28.31,143.76h0a33.16,33.16,0,0,1-28-37.47L3,88a33.06,33.06,0,0,1,65.44,9.51l-2.66,18.3a33.16,33.16,0,0,1-37.47,28"/><path class="cls-10" d="M65.79,115.79l.73-5c-9.63,2.24-30-4.54-30-4.54L.23,109.76l.39,7.51v0a33.05,33.05,0,0,0,65.17-1.52"/><path class="cls-4" d="M15.85,78.07S37.81,21,75,7.78c0,0,141.38-39.77,170.45,60.58l1.48,8.79L238.51,79S240,11.94,142.45,5C142.45,5,41.38.3,42,68.82l-2,19S32.6,96.1,24.22,94.72c0,0-10.84.93-8.38-16.65"/><path class="cls-14" d="M18.05,133.28h0A18.19,18.19,0,0,1,2.72,112.73l3.75-25.8a18.13,18.13,0,1,1,35.89,5.21l-3.75,25.8a18.19,18.19,0,0,1-20.55,15.34"/><path class="cls-4" d="M13.2,127.13h0a15.38,15.38,0,0,1-13-17.37L3.4,87.94a15.33,15.33,0,0,1,30.34,4.41l-3.17,21.81a15.38,15.38,0,0,1-17.37,13"/><path class="cls-1" d="M235.12,75.46c.39.35,2.65,2,3.06,2.25.71-14.51,1.49-41,1.49-41-1-9.33-8.29-9.15-8.29-9.15-15.45,1.87-35.55,20.66-39.29,24.27,6.26,1.74,34.94,16.44,43,23.6"/><path class="cls-12" d="M232.82,33.12s-19.7,1.8-33.85,21c0,0,26.8,4.07,37.25,22.73,0,0,4.84-39.21-3.4-43.7"/><path class="cls-15" d="M46.22,85.14s13.13-1.38,16.93,1c0,0,.35-10.36-6.91-16.24l-18.65.34s8.29,7.6,9,13.47"/><path class="cls-15" d="M247.27,90.32s8.2-.86,13.52,0a2.7,2.7,0,0,0,3-3.17,20.1,20.1,0,0,0-5.74-11.32,2.62,2.62,0,0,0-1.83-.66L244,75.37a2.7,2.7,0,0,0-2.17,4.24c1.77,2.58,3.68,6,4,9"/><path class="cls-12" d="M193,106.2c-34.27-2.14-24.28.71-24.28.71s-47.48-3.57-37.84,38.2c0,0,4,18.72,18.73,28.65,28.61,15.5,55.29,11.11,65.58-6.61,2.14.59,4.84-9,4.84-9,2.3-1.63,1.59-4.69,3-6.95,1-15.43-2.85-43.33-30-45"/><path class="cls-16" d="M181.63,124.71s-1.52,19.79-23.21,11c0,0-9.89-4.19-6.85-14.46"/><path class="cls-16" d="M181.63,127s1.14,13.32,16.74,8.75c0,0,12.56-3,6.47-13.32"/><path class="cls-17" d="M178.53,158.69s9.85-3.11,11.4-8.81"/><path class="cls-13" d="M160.66,106s10.15,13.51,17.32,17.86c0,0,5.65,1.9,9.31-1.71,0,0,12.51-10.19,14.13-15.64,0,0-14.36-6.87-40.76-.51"/><path class="cls-12" d="M169.95,107.65s16.18-3.12,24.12-.57c0,0-21,2.27-21.85,4.54,0,0-6.24-4.26-2.27-4"/><path class="cls-3" d="M116.35,84.93S95.62,87,89.4,80.79c0,0,2.07,10.36,23.84,8.29Z"/><path class="cls-3" d="M202.06,83.6s17.93,2,24.14-4.2c0,0-2.07,10.36-23.84,8.29Z"/><path class="cls-3" d="M129,86.4a9,9,0,0,0-1.91-3.12l-16.25,2c-.5,1.76.43,5.39,1.09,7.23l4.73,13.17a9.07,9.07,0,0,0,17.07-6.13Z"/><path class="cls-3" d="M218.69,91.06c.29-.92-.46-5.06-.61-6l-13.35.24c-1.22.77-.71-.88-1.16.54L200.42,96c-1.12,3.63,1.36,7.77,5.51,9.2s8.48-.36,9.6-4Z"/></g></g></svg>