<svg xmlns="http://www.w3.org/2000/svg" xmlns:xlink="http://www.w3.org/1999/xlink" id="Layer_1" x="0px" y="0px" viewBox="0 0 358.7 91.3" style="enable-background:new 0 0 358.7 91.3;" xml:space="preserve"><style type="text/css">	.st0{fill:#FFFFFF;}	.st1{fill:url(#SVGID_1_);}</style><path class="st0" d="M350,44.8l0.7-5.4l1.5-12.4l0.5-4.4l-4.3-1.1c-5-1.3-10.1-1.9-15.2-1.9c-5.7,0-10.4,1.6-14,4.7 c-1.2-1.3-2.6-2.4-4.1-3.3c-2.5-1.5-5.5-2.2-8.7-2.2c-2.8,0-5.8,0.5-9.1,1.6l-1.9,0.6v-0.7l-5,0.2l-14.8,0.6l-5,0.2h-1.1l-15,0.6 l-3.3,0.1l-4.3-0.7l-3.6-0.6c-1.7-1-3.9-1.7-6.6-2.2c-0.9-0.2-1.9-0.2-2.8-0.2c-4.6,0-9,1.9-12.1,5.3c-3.5-4-8.8-6.3-15.7-7 c-1.1-0.1-2.3-0.2-3.3-0.2c-6.3,0-11.3,1.8-15,5.4c-0.1,0.1-0.3,0.3-0.4,0.4l-1.5-13.9l-0.5-5l-5,0.5l-14.5,1.6l-5,0.5l0.5,4.8 c-2.1-0.4-4.4-0.6-6.9-0.6h-21.2h-5v3.5c-0.5,0-0.9,0-1.4,0c-1.7,0-3.4,0.1-5,0.2c-5.9,0.5-10.5,2.5-13.8,6.1 c-0.2,0.2-0.4,0.4-0.6,0.7c-1.5-0.5-3.2-0.9-5-1.3c-3.2-0.6-6.9-0.8-11-0.8c-2.8,0-5.9,0.1-9.1,0.4v-5.1v-5h-5H66.5 c-0.2-0.3-0.4-0.5-0.6-0.7c-2-2.2-4.9-3.5-9.1-4C55.8,4,55,4,54.3,4c-3,0-5.4,0.7-7.3,2.1c-1.4,1-2.4,2.3-3.2,3.9 C40.8,8.8,37,8,32.8,8c-1.4,0-2.8,0.1-4.3,0.2l-17.6,1.9l-5,0.5l0.5,5l6,54.2l0.5,5l5-0.5l14.7-1.6l5-0.5L37.3,70l4.7,0.5l14.5,1.6 l5,0.6v-0.4c0.3,0.3,0.5,0.5,0.8,0.8c2.8,2.4,6.8,3.6,11.9,3.6H79h4.6l0.4-4.5v-0.5c1.3,0.2,2.6,0.4,3.9,0.4c2.2,0,4.3-0.4,6.2-1.1 c1.7,1.8,4.4,3.4,8.5,4.1c0.3,0.1,0.7,0.1,6,0.7l4.1,0.4l1.2-3.9l1.3-4.1c2.4,0.3,4.7,0.4,7.1,0.4c1.7,0,3.4-0.1,5.1-0.2 c0.2,0,0.5,0,0.7-0.1v2.3v5h5h21.7c8.7,0,13.9-2.8,17.1-6.3c0.1,0.1,0.2,0.2,0.3,0.2c2.4,1.7,5.5,2.5,9.2,2.5c1,0,2-0.1,3-0.2 l4.8-0.5l4.5-0.5v-1.1c2.2,0.7,4.6,1.2,7.2,1.5c1.1,0.1,2.2,0.2,3.3,0.2c5.5,0,10-1.4,13.5-4.2c2.2,2.5,5.7,4.7,11.1,5.5 c0.7,0.1,1.4,0.2,2.1,0.2l-1,6.3l-0.8,4.9l4.9,0.8l14.7,2.3l4.9,0.8l0.8-4.9l1.8-11.4c1.6,1.3,3.5,2.2,5.6,2.7V75l5.2-0.2 c2.3-0.1,4.6-0.5,6.8-1.3l4.7-0.2l14-0.6l5-0.2v-0.7c2.6,1.1,5.4,1.7,8.3,1.7c2.6,0,5.3-0.5,8.1-1.4c0.7-0.2,1.4-0.5,2.1-0.7l3,0.8 c4.9,1.3,10,1.9,15.1,1.9h0.2c5.9,0,10.5-1.7,13.7-4.9c3.2-3.3,4.8-7.8,4.8-13.5C352.8,51.3,351.8,47.7,350,44.8z"></path><title>pilasbloques-logo</title><linearGradient id="SVGID_1_" gradientUnits="userSpaceOnUse" x1="186.08" y1="598.9933" x2="186.08" y2="526.0933" gradientTransform="matrix(1 0 0 1 -6.73 -516.7667)">	<stop offset="0" style="stop-color:#462DAD"></stop>	<stop offset="0.26" style="stop-color:#5939CB"></stop>	<stop offset="0.52" style="stop-color:#6743E2"></stop>	<stop offset="0.77" style="stop-color:#7048EF"></stop>	<stop offset="0.99" style="stop-color:#734AF4"></stop></linearGradient><path class="st1" d="M33.8,49.6l-4,0.4l1.9,17.7L17,69.3l-5.9-54.1l17.7-1.9c6.2-0.7,11,0.3,14.3,2.8s5.4,7,6.1,13.6 c0.7,6.5-0.2,11.3-2.8,14.4S39.7,49,33.8,49.6z M34.1,37.6c0.5-1.8,0.5-3.6,0.2-5.4c-0.1-1.9-0.6-3.7-1.5-5.3 c-0.7-1-1.9-1.4-3.7-1.2l-2,0.2l1.5,13.8l2.4-0.3C32.7,39.3,33.7,38.7,34.1,37.6L34.1,37.6z M56.8,67.3l-14.5-1.7L47,24l14.5,1.6 L56.8,67.3z M48.5,20.8c-1.1-1.2-1.5-3-1.3-5.3s1.1-4,2.4-5c1.3-1,3.4-1.3,6.3-1c2.8,0.3,4.8,1.1,5.9,2.3c1.1,1.3,1.5,3,1.3,5.4 c-0.3,2.3-1.1,4-2.4,4.9c-1.3,0.9-3.4,1.3-6.3,0.9C51.6,22.8,49.6,22,48.5,20.8z M62.4,61.3v-47H77v42.3c-0.1,0.8,0.2,1.5,0.7,2.1 c0.7,0.5,1.5,0.7,2.3,0.6l-1.1,12.5H74c-3.9,0-6.8-0.8-8.7-2.4C63.3,67.8,62.4,65.1,62.4,61.3z M112.4,39.1l-3.6,18 c-0.3,0.8-0.1,1.7,0.4,2.4c0.8,0.6,1.7,1,2.7,1.1l-3.2,10.3c-3.4-0.4-5.3-0.6-5.6-0.6c-4.3-0.8-6.8-2.7-7.4-5.9l-0.4-0.1 c-2.7,2.6-6.2,3.5-10.7,2.7c-3.4-0.6-5.9-2.2-7.3-4.7c-1.4-2.5-1.8-5.7-1.1-9.5c0.8-4.8,2.9-7.9,6.3-9.2c3.3-1.3,8.3-1.7,14.8-1.2 l0.4-2.1c0.4-1.1-0.3-2.4-1.4-2.8c-0.2-0.1-0.4-0.1-0.6-0.1c-2.8-0.5-7.3-0.4-13.5,0.2l0.1-13.1c7.8-0.6,14.1-0.5,19.1,0.4 c4.9,0.9,8.2,2.4,9.9,4.7C112.7,31.7,113.1,34.9,112.4,39.1L112.4,39.1z M91.8,57.6c2.1,0.4,3.4-0.6,3.8-2.8l0.7-4.3 c-1.6-0.2-3.3,0-4.8,0.5c-1.1,0.6-1.8,1.6-1.9,2.9C89.3,56.1,90,57.3,91.8,57.6z M108.3,34.2c-0.4-4.3,0.7-7.7,3.1-10.3 s5.9-4.1,10.5-4.5c4.7-0.4,9.4-0.2,14.1,0.6l-0.5,12.4c-6.1-0.8-10.2-1.2-12.3-1c-1.2,0.1-1.8,0.7-1.7,1.7c0.1,0.7,0.8,1.2,2.2,1.6 c4.8,1.3,8.6,3,11.1,4.9s4,5.1,4.4,9.5c0.4,4.3-0.5,7.7-2.5,10.2s-5.4,3.9-10,4.3c-4.6,0.4-9.3,0.2-13.9-0.6V51 c6,1.1,9.9,1.6,11.6,1.4c1.7-0.1,2.6-0.6,2.5-1.5c-0.1-0.8-0.8-1.4-2.1-1.8c-5.4-1.6-9.4-3.4-12-5.4 C110.2,41.5,108.7,38.4,108.3,34.2L108.3,34.2z M171.5,54.8c0,10.6-5.7,15.8-17,15.8h-21.6V15.7h21.2c5.6,0,9.8,1.1,12.5,3.4 s4.1,5.9,4.1,10.8c0.2,4.6-2.2,8.9-6.1,11.3v0.5C169.2,43.6,171.5,47.9,171.5,54.8L171.5,54.8z M153.9,37.9c0.6-1.4,0.9-2.9,0.8-4.4 c0.1-1.5-0.2-3-0.8-4.4c-0.7-0.9-1.8-1.4-2.9-1.3h-2.9v11.3h2.9C152.2,39.3,153.2,38.8,153.9,37.9z M154.6,59.6 c0.6-0.8,0.9-2.5,0.9-5s-0.3-4.3-1-5.3c-0.8-1.1-2.2-1.7-3.5-1.5h-2.9v13h2.8C152.7,60.7,153.9,60.4,154.6,59.6L154.6,59.6z  M171,57.6l-5-46.7l14.5-1.6l4.5,42c0,0.8,0.3,1.5,0.9,2c0.7,0.4,1.6,0.5,2.4,0.4l0.2,12.6l-4.8,0.5c-3.9,0.4-6.8-0.1-8.9-1.5 C172.7,64,171.4,61.4,171,57.6L171,57.6z M184.9,42.3c0.7-7.7,2.7-13.2,6-16.4s8.1-4.5,14.4-3.9c6.3,0.6,10.7,2.7,13.3,6.4 s3.5,9.4,2.8,17.2s-2.7,13.3-5.8,16.5c-3.1,3.2-7.9,4.6-14.3,4c-6.4-0.6-10.9-2.8-13.5-6.6C185.1,55.8,184.2,50,184.9,42.3 L184.9,42.3z M206.9,36c-0.3-1.2-1.2-1.9-2.7-2c-1.2-0.3-2.5,0.3-3.1,1.5c-0.5,1.1-1,3.6-1.3,7.3l-0.2,2.1c-0.4,4.2-0.4,6.9-0.1,8.2 c0.6,1.6,2.4,2.5,4,2c0.7-0.2,1.3-0.8,1.7-1.4c0.5-1.2,1-3.7,1.3-7.5l0.2-2.5C207.1,39.7,207.1,37.2,206.9,36L206.9,36z M234.7,80 l2.1-13.3l-0.4-0.1c-2.2,1.1-4.6,1.5-7,1.1c-5.2-0.8-8.6-3.3-10.2-7.3s-1.8-9.6-0.7-16.8c1.1-7.1,3.2-12.4,6.2-15.8 c2.6-3.2,6.8-4.8,10.9-4.1c4.2,0.7,7.1,2.4,8.5,5.1l0.4,0.1l1.3-2.5l12.1,1.9l-8.5,53.8L234.7,80z M237.8,36.8 c-1.3-0.2-2.2,0.4-2.8,1.8c-0.8,2-1.3,4.2-1.6,6.3c-0.4,2.8-0.7,4.7-0.8,5.7s-0.1,2.1-0.1,3.1c0,0.8,0.2,1.6,0.6,2.3 c0.6,0.5,1.3,0.9,2.1,0.9c1.1,0.2,2.2,0.1,3.3-0.3l2.9-18.1C240.4,37.7,239.1,37.1,237.8,36.8z M266.7,69.8c-7,0.3-10.7-3.4-11-11.2 l-1.3-31.5l15-0.6l1.2,27.9c0.1,1.5,0.7,2.2,2,2.1c1.5,0,2.9-0.5,4.1-1.4l-1.2-28.9l14.8-0.6l1.8,42.1l-14,0.6l-0.1-3.1h-0.4 C274.7,68.1,270.8,69.8,266.7,69.8L266.7,69.8z M298.5,25.3c5.8-1.9,10.4-1.8,13.8,0.2s5.9,5.5,7.6,10.7c0.2,0.7,1,3.8,2.3,9.3 L303,51.7c1.3,4.2,3.9,5.7,7.8,4.5c1.9-0.6,5.3-2.4,10.2-5.4l4.5,10.1c-4.1,2.9-8.6,5.2-13.4,6.7c-5.8,1.9-10.8,1.4-15.1-1.4 c-4.3-2.8-7.5-7.5-9.6-14C282.9,38,286.6,29.2,298.5,25.3L298.5,25.3z M302,37.4c-1.5,0.5-2.3,1.3-2.4,2.4c-0.1,1.6,0.2,3.2,0.8,4.7 l7.3-2.3l-0.6-2C306.2,37.6,304.5,36.7,302,37.4L302,37.4z M318.1,38.3c0-4.3,1.3-7.6,3.9-10s6.2-3.6,10.8-3.6c4.7,0,9.4,0.6,14,1.8 l-1.5,12.4c-6-1.3-10-2-12.1-2c-1.3,0-1.9,0.5-1.9,1.5c0,0.7,0.7,1.3,2,1.8c4.7,1.7,8.3,3.7,10.7,5.8c2.4,2.2,3.6,5.5,3.6,9.8 s-1.1,7.7-3.4,10c-2.2,2.3-5.7,3.4-10.3,3.4c-4.7,0-9.3-0.6-13.8-1.8l1-11.9c5.9,1.6,9.7,2.4,11.5,2.4c1.7,0,2.6-0.4,2.6-1.2 s-0.6-1.5-1.9-2c-5.2-2-9.1-4.1-11.5-6.4C319.3,46,318.1,42.7,318.1,38.3L318.1,38.3z"></path></svg>