<svg id="Capa_1" data-name="Capa 1" xmlns="http://www.w3.org/2000/svg" viewBox="0 0 623.04 68.5"><defs><style>.cls-1{fill:#6d6e70;}</style></defs><title>logos-footer</title><path class="cls-1" d="M437.34,29.39a1.47,1.47,0,0,0,.35-1,1.43,1.43,0,0,0-.41-1.06,1.47,1.47,0,0,0-1.08-.4,1.84,1.84,0,0,0-.51.08,9.51,9.51,0,0,0-.93.37l-12.44,5.8-.13.08c-1.16.53-1.74,1.15-1.74,1.85s.55,1.29,1.67,1.8l.29.12,12.35,5.69a6,6,0,0,0,.82.32,2.37,2.37,0,0,0,.62.09,1.47,1.47,0,0,0,1.08-.41,1.56,1.56,0,0,0,.06-2,3.57,3.57,0,0,0-1.21-.81l-10.2-4.84,10.2-4.84a3.71,3.71,0,0,0,1.2-.83m167.68-7a1.19,1.19,0,0,0-.85.36,4.75,4.75,0,0,0-.8,1.32L594.2,43.73l0,.06a4,4,0,0,0-.43,1.41,1.41,1.41,0,0,0,.56,1.13,2,2,0,0,0,1.28.46,1.13,1.13,0,0,0,.84-.36,4.4,4.4,0,0,0,.78-1.29l9.19-19.67a7.62,7.62,0,0,0,.36-.88,2.18,2.18,0,0,0,.08-.59,1.39,1.39,0,0,0-.56-1.13,2,2,0,0,0-1.27-.45m18.92,10.86-.13-.08-12.41-5.8a7.91,7.91,0,0,0-.91-.36,2,2,0,0,0-.57-.09,1.39,1.39,0,0,0-1.05.4,1.48,1.48,0,0,0-.39,1.06,1.46,1.46,0,0,0,.36,1,3.61,3.61,0,0,0,1.19.83l10.22,4.84L610,39.9a3.46,3.46,0,0,0-1.2.81,1.42,1.42,0,0,0-.34,1,1.48,1.48,0,0,0,.39,1.08,1.42,1.42,0,0,0,1.05.4,2.43,2.43,0,0,0,.63-.09,5.3,5.3,0,0,0,.81-.32l12.4-5.69.26-.12c1.12-.51,1.67-1.11,1.67-1.8s-.58-1.32-1.74-1.85" transform="translate(-2.64 -1.92)"/><path class="cls-1" d="M454.09,27a9.43,9.43,0,0,0-5.69-1.44h-6.34a2.12,2.12,0,0,0-1.45.41,1.69,1.69,0,0,0-.44,1.3,1.72,1.72,0,0,0,.42,1.25,1.6,1.6,0,0,0,1.2.44h.26V40.4h-.26a1.63,1.63,0,0,0-1.21.42,1.71,1.71,0,0,0-.42,1.23,1.68,1.68,0,0,0,.44,1.3,2.12,2.12,0,0,0,1.45.41h5.31a2,2,0,0,0,1.41-.41,1.71,1.71,0,0,0,.43-1.3,1.66,1.66,0,0,0-.42-1.27,2.09,2.09,0,0,0-1.42-.39h-1.58V37.25h2.61a9.06,9.06,0,0,0,5.7-1.52A5.37,5.37,0,0,0,456,31.24,5,5,0,0,0,454.09,27m-3.39,6.19a4.91,4.91,0,0,1-2.72.62h-2.18V28.94H448a4.9,4.9,0,0,1,2.69.62,2,2,0,0,1,.94,1.77,2.08,2.08,0,0,1-.91,1.84" transform="translate(-2.64 -1.92)"/><path class="cls-1" d="M510.42,33.38a3.27,3.27,0,0,1,1.73-.66,3.46,3.46,0,0,1,1.32.51,3.58,3.58,0,0,0,1.64.5,2.21,2.21,0,0,0,1.58-.58,1.93,1.93,0,0,0,.61-1.46,2.19,2.19,0,0,0-.89-1.83,3.85,3.85,0,0,0-2.41-.68,6.54,6.54,0,0,0-3.12.77,12.35,12.35,0,0,0-3.13,2.56V30.23a.59.59,0,0,0-.23-.48,1.05,1.05,0,0,0-.65-.18h-8.63a1.16,1.16,0,0,0-.67.16.54.54,0,0,0-.23.47V31a4.68,4.68,0,0,0-1.81-1.36,6.23,6.23,0,0,0-2.43-.44,7.2,7.2,0,0,0-5.25,2,6.6,6.6,0,0,0-1.47,2.15,7,7,0,0,0-1.58-2,9.77,9.77,0,0,0-12.08,0,7.56,7.56,0,0,0-.58.58,1.49,1.49,0,0,0,0-.21,2.17,2.17,0,0,0-.89-1.83,3.83,3.83,0,0,0-2.41-.68,6.57,6.57,0,0,0-3.13.77,12.5,12.5,0,0,0-3.13,2.56V30.23a.56.56,0,0,0-.23-.48,1,1,0,0,0-.64-.18h-3.27A2.25,2.25,0,0,0,457,30a1.68,1.68,0,0,0-.42,1.29,1.67,1.67,0,0,0,.43,1.3,2.23,2.23,0,0,0,1.49.39h.66V40.4H458a2.28,2.28,0,0,0-1.51.39,1.6,1.6,0,0,0-.44,1.27,1.67,1.67,0,0,0,.45,1.31,2.25,2.25,0,0,0,1.51.4h8.59a2.17,2.17,0,0,0,1.48-.4,1.68,1.68,0,0,0,.44-1.31,1.6,1.6,0,0,0-.44-1.27,2.22,2.22,0,0,0-1.48-.39h-3.63v-5a15.84,15.84,0,0,1,2.37-2,3.26,3.26,0,0,1,1.73-.66,3.47,3.47,0,0,1,1.31.51,3.6,3.6,0,0,0,1.63.5,2.42,2.42,0,0,0,1.13-.25,7.29,7.29,0,0,0-.69,3.2,6.9,6.9,0,0,0,2.32,5.37,9.78,9.78,0,0,0,12.08,0,6.83,6.83,0,0,0,1.75-2.41,6.65,6.65,0,0,0,1.22,1.66,6.89,6.89,0,0,0,5,1.92,8.15,8.15,0,0,0,2.22-.3,9.5,9.5,0,0,0,2.15-.93v.69a4.13,4.13,0,0,1-.84,3,4.26,4.26,0,0,1-3,.83,17.75,17.75,0,0,1-2.08-.14c-.75-.09-1.19-.14-1.32-.14a1.73,1.73,0,0,0-1.26.46,1.58,1.58,0,0,0-.48,1.2,1.63,1.63,0,0,0,1.18,1.55,10.12,10.12,0,0,0,3.67.49q4,0,5.87-1.52t1.83-4.88V32.94h3.52V40.4h-1.17a2.32,2.32,0,0,0-1.51.39,1.63,1.63,0,0,0-.43,1.27,1.66,1.66,0,0,0,.45,1.31,2.24,2.24,0,0,0,1.5.4h8.59a2.18,2.18,0,0,0,1.48-.4,1.69,1.69,0,0,0,.44-1.31,1.61,1.61,0,0,0-.44-1.27,2.23,2.23,0,0,0-1.48-.39h-3.63v-5a16.34,16.34,0,0,1,2.37-2m-28.7,6.32a4.23,4.23,0,0,1-5.92,0,4.2,4.2,0,0,1-1.16-3,4.08,4.08,0,0,1,1.16-3,4.33,4.33,0,0,1,5.93,0,4.09,4.09,0,0,1,1.16,3,4.18,4.18,0,0,1-1.17,3m14.34-.64a3.43,3.43,0,0,1-5,0,3.9,3.9,0,0,1-1-2.74,4,4,0,0,1,1-2.78,3.43,3.43,0,0,1,5,0,4,4,0,0,1,1,2.78,3.9,3.9,0,0,1-1,2.74" transform="translate(-2.64 -1.92)"/><path class="cls-1" d="M549.75,40.82a1.35,1.35,0,0,0-1.08-.42h-.21V34.58a7.08,7.08,0,0,0-.92-4.14,3.51,3.51,0,0,0-3-1.24,4.51,4.51,0,0,0-1.82.36,4.37,4.37,0,0,0-1.49,1.05,3,3,0,0,0-2.7-1.41,3.89,3.89,0,0,0-1.78.41,3.79,3.79,0,0,0-1.37,1.19,1.5,1.5,0,0,0-.22-1,1.11,1.11,0,0,0-.85-.26h-2.07a1.78,1.78,0,0,0-1.29.39,1.75,1.75,0,0,0-.39,1.28,1.85,1.85,0,0,0,.37,1.25,1.35,1.35,0,0,0,1.1.44h.22V40.4h-1.76V34.7q0-3-1.41-4.27t-4.69-1.26a13.58,13.58,0,0,0-4.95.73c-1.22.49-1.82,1.14-1.82,2A1.47,1.47,0,0,0,518,33a1.63,1.63,0,0,0,1.17.42,6.24,6.24,0,0,0,2.31-.75,6.34,6.34,0,0,1,2.59-.75,2.56,2.56,0,0,1,2,.72,3,3,0,0,1,.67,2.1V35c-.7-.12-1.31-.2-1.86-.25s-1.07-.08-1.56-.08A8.86,8.86,0,0,0,518.19,36a4.1,4.1,0,0,0-1.83,3.58,4.24,4.24,0,0,0,1.41,3.36,5.75,5.75,0,0,0,3.89,1.23,9.58,9.58,0,0,0,2.89-.45,10.44,10.44,0,0,0,2.7-1.29,2.15,2.15,0,0,0,.62,1.06,1.85,1.85,0,0,0,1.14.29h6.69a1.8,1.8,0,0,0,1.29-.39,2.41,2.41,0,0,0,0-2.56,1.37,1.37,0,0,0-1.09-.42h-.23V35a3.65,3.65,0,0,1,.44-2,1.36,1.36,0,0,1,1.2-.69,1,1,0,0,1,.92.5,3,3,0,0,1,.31,1.54V43.1a.57.57,0,0,0,.25.48,1.1,1.1,0,0,0,.66.18h2.61a1.78,1.78,0,0,0,1.29-.39,1.82,1.82,0,0,0,.39-1.31,1.86,1.86,0,0,0-.37-1.24,1.36,1.36,0,0,0-1.08-.42h-.23V35a3.73,3.73,0,0,1,.42-2,1.32,1.32,0,0,1,1.19-.68,1,1,0,0,1,.94.5,2.9,2.9,0,0,1,.33,1.54V43.1a.58.58,0,0,0,.23.48,1,1,0,0,0,.64.18h2.61a1.77,1.77,0,0,0,1.28-.39,1.86,1.86,0,0,0,.37-1.31,1.88,1.88,0,0,0-.36-1.24m-23-1a6.9,6.9,0,0,1-1.85,1,6.44,6.44,0,0,1-2,.31,2.85,2.85,0,0,1-1.76-.47,1.6,1.6,0,0,1-.61-1.36,1.74,1.74,0,0,1,1-1.57,5.16,5.16,0,0,1,2.65-.57,9.54,9.54,0,0,1,1.2.08c.43.06.9.14,1.41.25Z" transform="translate(-2.64 -1.92)"/><path class="cls-1" d="M553.91,38.2a3.31,3.31,0,0,0-2.3.8,2.89,2.89,0,0,0,0,4.17,3.74,3.74,0,0,0,4.63,0,2.91,2.91,0,0,0,0-4.17,3.36,3.36,0,0,0-2.33-.8" transform="translate(-2.64 -1.92)"/><path class="cls-1" d="M591.87,40.81a1.92,1.92,0,0,0-1.34-.41h-.47l-2.51-4-.1-.15a2.59,2.59,0,0,0-.79-.89,5.34,5.34,0,0,0,2.67-1.86,4.89,4.89,0,0,0,.92-3,4.39,4.39,0,0,0-1.67-3.74,8,8,0,0,0-4.93-1.27h-7.08a2.18,2.18,0,0,0-1.47.41,1.67,1.67,0,0,0-.45,1.3,1.7,1.7,0,0,0,.43,1.25,1.64,1.64,0,0,0,1.23.44h.26V40.4h-.26a2.69,2.69,0,0,0-.46,0,2.63,2.63,0,0,0-.47,0h-.26l-4.86-13.33v0a2,2,0,0,0-1.92-1.47h-5.76a2.26,2.26,0,0,0-1.49.4,1.67,1.67,0,0,0-.46,1.31,1.62,1.62,0,0,0,.46,1.29,2.27,2.27,0,0,0,1.49.4h1.23L559.69,40.4h-.26a1.73,1.73,0,0,0-1.26.42,1.67,1.67,0,0,0-.43,1.23,1.65,1.65,0,0,0,.45,1.3,2.25,2.25,0,0,0,1.51.4h4a2.24,2.24,0,0,0,1.5-.4,1.64,1.64,0,0,0,.45-1.3,1.58,1.58,0,0,0-.45-1.26,2.28,2.28,0,0,0-1.5-.39h-.54l.66-1.8h6.64l.63,1.8h-.53a2.3,2.3,0,0,0-1.51.38,1.59,1.59,0,0,0-.45,1.27,1.67,1.67,0,0,0,.45,1.31,2.28,2.28,0,0,0,1.51.39h4.62a3.7,3.7,0,0,0,.73-.07,3.78,3.78,0,0,0,.73.07h4a2.19,2.19,0,0,0,1.48-.4,1.68,1.68,0,0,0,.44-1.3,1.48,1.48,0,0,0-1.67-1.65h-.25V36.34H582a1.12,1.12,0,0,1,.59.18,1.65,1.65,0,0,1,.49.52l3.76,5.79,0,0a1.84,1.84,0,0,0,1.63.91h1.89a2.23,2.23,0,0,0,1.5-.4,1.64,1.64,0,0,0,.45-1.3,1.58,1.58,0,0,0-.45-1.24m-27-5.39,2.23-6.48,2.22,6.48Zm20.27-2.73a5.22,5.22,0,0,1-2.69.5h-2.07V28.85h2.58a3.84,3.84,0,0,1,2.25.52,1.93,1.93,0,0,1,.7,1.67,1.85,1.85,0,0,1-.76,1.67" transform="translate(-2.64 -1.92)"/><g id="_Grupo_" data-name="&lt;Grupo&gt;"><g id="_Grupo_2" data-name="&lt;Grupo&gt;"><path id="_Trazado_compuesto_" data-name="&lt;Trazado compuesto&gt;" class="cls-1" d="M267.14,6.73a6.57,6.57,0,0,1,3.64,2.68,4.42,4.42,0,0,1,.42,3.92,3.55,3.55,0,0,1-1.72,2.06,3.43,3.43,0,0,1-2.85.13,3.5,3.5,0,0,1-2.31-3.28q-.29-2.59-1.27-2.92-4-1.36-11.33,20.29l-2.53,6.77q-1.5,4.4-3.16,8.27t-4,8.61a33,33,0,0,1-5,7.64,15.29,15.29,0,0,1-6.08,4.16,9.45,9.45,0,0,1-6.43.24,6.62,6.62,0,0,1-3.61-2.67,4.37,4.37,0,0,1-.45-3.93,3.44,3.44,0,0,1,1.69-2.11,3.65,3.65,0,0,1,2.85,0,3.49,3.49,0,0,1,2.34,3.21c.21,1.68.65,2.66,1.34,2.95q4,1.35,11.67-21.27l2.13-5.82q1.43-4.19,3-8t4-8.58a34.3,34.3,0,0,1,5.1-7.81,15.78,15.78,0,0,1,6.1-4.31A9.33,9.33,0,0,1,267.14,6.73Z" transform="translate(-2.64 -1.92)"/></g><g id="_Grupo_3" data-name="&lt;Grupo&gt;"><path id="_Trazado_compuesto_2" data-name="&lt;Trazado compuesto&gt;" class="cls-1" d="M266.09,51.12a4.31,4.31,0,0,0,1.66-.35q.85-.35.85-.94s-.31-.87-.92-2.46l-1.1-2.69a.41.41,0,0,0-.26-.15q-.7,0-3.53,0-2.43,0-3.72,0a.31.31,0,0,0-.26.18l-1.21,2.8a7.13,7.13,0,0,0-.74,2.24,1,1,0,0,0,.66.92,3.59,3.59,0,0,0,1.16.39,8,8,0,0,0,.86.05c.07,0,.11.22.11.59a2.81,2.81,0,0,1-.07.77l-1.93-.17q-1.45-.13-2.37-.13t-2.21.13q-1.29.13-2,.17a.79.79,0,0,1-.15-.55c0-.52,0-.77.07-.77a5,5,0,0,0,1.47-.39,2.66,2.66,0,0,0,1.29-.79,9.47,9.47,0,0,0,.61-1.08c.21-.43.37-.78.5-1l.18-.44,8.13-18.69a1.39,1.39,0,0,1,1.36-1,1,1,0,0,1,.88.48L273,46.89q.7,1.69,1.21,3a1.72,1.72,0,0,0,1.21.9,5.52,5.52,0,0,0,1.51.31c.1,0,.15.21.15.63a2,2,0,0,1-.07.74l-2.26-.15q-2.12-.15-3.07-.15l-5.55.29a1.2,1.2,0,0,1-.15-.75C265.94,51.32,266,51.12,266.09,51.12Zm-6-8.94q1.1.11,2.72.11t2.61-.07l.11-.18-2.65-6.58L260,42C260,42.13,260,42.18,260.06,42.18Z" transform="translate(-2.64 -1.92)"/><path id="_Trazado_compuesto_3" data-name="&lt;Trazado compuesto&gt;" class="cls-1" d="M283.49,28.09h6.4q6,0,9.38,3.55A11.68,11.68,0,0,1,302.65,40a12.38,12.38,0,0,1-3.42,8.88q-3.42,3.59-9.38,3.59-.7,0-2.87-.09t-3.46-.09l-5.37.22a.93.93,0,0,1-.15-.63q0-.74.15-.74a5.83,5.83,0,0,0,1.38-.26q.94-.26,1-.55a15.29,15.29,0,0,0,.22-3.24V33.17a12.82,12.82,0,0,0-.22-2.87c-.07-.2-.43-.42-1.08-.66a4.72,4.72,0,0,0-1.38-.37c-.1,0-.15-.22-.15-.66s0-.63.11-.7Q281,28.09,283.49,28.09Zm2.47,5V47.33q0,2.39.33,2.57.81.48,4.16.48a5.37,5.37,0,0,0,4.78-2.65q1.69-2.65,1.69-7.91A12.55,12.55,0,0,0,295.13,33a5.57,5.57,0,0,0-4.95-2.81H290q-3.13,0-3.57.59A4.13,4.13,0,0,0,286,33.05Z" transform="translate(-2.64 -1.92)"/><path id="_Trazado_compuesto_4" data-name="&lt;Trazado compuesto&gt;" class="cls-1" d="M308,49.06a12.27,12.27,0,0,1-3.48-8.79A12.34,12.34,0,0,1,308,31.45a11.33,11.33,0,0,1,16.68,0,12.3,12.3,0,0,1,3.49,8.81,12.24,12.24,0,0,1-3.49,8.79,11.37,11.37,0,0,1-16.68,0Zm7.78-19.2a4.19,4.19,0,0,0-3.24,1.42,7.78,7.78,0,0,0-1.78,3.48,20.18,20.18,0,0,0-.5,4.71,19.53,19.53,0,0,0,.35,3.7,18.61,18.61,0,0,0,1.07,3.57,6.88,6.88,0,0,0,2.08,2.83A4.92,4.92,0,0,0,317,50.64a4.42,4.42,0,0,0,4.14-2.8A15.45,15.45,0,0,0,322.48,41a22.84,22.84,0,0,0-.31-3.84,16.9,16.9,0,0,0-1-3.53,6.24,6.24,0,0,0-2.06-2.72A5.34,5.34,0,0,0,315.82,29.85Z" transform="translate(-2.64 -1.92)"/><path id="_Trazado_compuesto_5" data-name="&lt;Trazado compuesto&gt;" class="cls-1" d="M330.35,34.34a5.84,5.84,0,0,1,2.45-4.71,8.45,8.45,0,0,1,5.39-1.95,12.2,12.2,0,0,1,1.6.11q.83.11,1.4.22l1.58.35q1,.24,1.6.35a55.34,55.34,0,0,1,.4,6.11.55.55,0,0,1-.55.37c-.71,0-1.09-.09-1.14-.26a7.25,7.25,0,0,0-1.58-3.51,4,4,0,0,0-3.27-1.67,3.06,3.06,0,0,0-2.12.77,3.15,3.15,0,0,0-.86,2.47,3,3,0,0,0,.37,1.43,5,5,0,0,0,1.23,1.43,15.67,15.67,0,0,0,1.42,1.1l1.8,1.18.52.33,1.21.74q.92.55,1.31.83a12.64,12.64,0,0,1,1.07.9,4.56,4.56,0,0,1,1,1.23,8,8,0,0,1,.57,1.58,8.47,8.47,0,0,1,.26,2.15,6,6,0,0,1-2.43,4.87A8.73,8.73,0,0,1,338,52.7a31.48,31.48,0,0,1-7-1,31.38,31.38,0,0,1-.57-3.22,25,25,0,0,1-.28-2.89q.11-.37.66-.37c.76,0,1.15.07,1.18.22a7,7,0,0,0,1.84,3.4,4.55,4.55,0,0,0,3.42,1.71q3.64,0,3.64-4a2.55,2.55,0,0,0-.33-1.23,4.56,4.56,0,0,0-1-1.2,15,15,0,0,0-1.18-1q-.51-.37-1.45-1t-1.2-.77l-.55-.37q-1.22-.81-1.84-1.29a14,14,0,0,1-1.45-1.32,5,5,0,0,1-1.18-1.86A7,7,0,0,1,330.35,34.34Z" transform="translate(-2.64 -1.92)"/><path id="_Trazado_compuesto_6" data-name="&lt;Trazado compuesto&gt;" class="cls-1" d="M353.42,28.2q.74,0,5.15-.22a2.1,2.1,0,0,1,.11.66c0,.47,0,.7-.15.7a5.68,5.68,0,0,0-1.33.31c-.66.21-1,.4-1.07.57a13.62,13.62,0,0,0-.26,3.13v5.81a.3.3,0,0,0,.07.22.21.21,0,0,0,.15.07h.29q.26,0,1.62-1.4,3.16-3.24,6.7-7.28a1.32,1.32,0,0,0,.29-.85q0-.37-.81-.52a8,8,0,0,0-1.4-.15c-.1,0-.17-.17-.22-.52a2,2,0,0,1,0-.77q4.08.22,4.93.22.44,0,4.86-.22a2,2,0,0,1,.06.72c0,.38-.06.57-.13.57l-.22,0-.42,0-.53.07-.63.11a4.54,4.54,0,0,0-.66.18,5.75,5.75,0,0,0-.66.28,6.33,6.33,0,0,0-.61.35,2.46,2.46,0,0,0-.53.46l-6.33,7a.74.74,0,0,0,0,1.07l8.72,11.37a2.38,2.38,0,0,0,1.27.7,5.79,5.79,0,0,0,1.31.22c.1,0,.15.23.15.7a1.46,1.46,0,0,1-.15.66l-2.34-.15q-2.3-.15-3.22-.15-2,0-5.22.29a1.2,1.2,0,0,1-.15-.75c0-.4,0-.61.15-.61a3.57,3.57,0,0,0,1.07-.22c.44-.15.66-.32.66-.52q0-1.18-6.55-8.57a.79.79,0,0,0-.52-.11q-1,0-1,.62V47a13.62,13.62,0,0,0,.29,3.24c0,.17.39.37,1,.59a4.82,4.82,0,0,0,1.27.33c.1,0,.15.23.15.7a2.27,2.27,0,0,1-.07.66q-.26,0-2.21-.15t-2.91-.15q-1,0-2.91.13l-2.43.17a.86.86,0,0,1-.15-.59q0-.77.11-.77a5.15,5.15,0,0,0,1.36-.31c.64-.21,1-.41,1.07-.61a12.51,12.51,0,0,0,.26-2.94V33.13a7.86,7.86,0,0,0-.29-2.87,2.14,2.14,0,0,0-1-.61,4.1,4.1,0,0,0-1.25-.31c-.1,0-.15-.21-.15-.63a1.78,1.78,0,0,1,.07-.74Z" transform="translate(-2.64 -1.92)"/><path id="_Trazado_compuesto_7" data-name="&lt;Trazado compuesto&gt;" class="cls-1" d="M380.75,28.2q.85,0,5.26-.22a2.1,2.1,0,0,1,.06.75c0,.4-.06.61-.13.61a4.39,4.39,0,0,0-1.23.2q-.68.2-.72.57a1.81,1.81,0,0,0,.29.81L388,37.43c.12.12.25.1.37-.07q1.07-1.55,2.54-4.08a10.56,10.56,0,0,0,1.47-3.13q0-.81-2.35-.81c-.1,0-.15-.2-.17-.61a1.14,1.14,0,0,1,.13-.75q3.31.22,4.45.22,1,0,4.16-.22a2.1,2.1,0,0,1,.11.66c0,.44,0,.66-.15.66a4.22,4.22,0,0,0-1.51.33,3.13,3.13,0,0,0-1.36,1q-1,1.29-3.7,5.66t-2.74,4.86V47a13.33,13.33,0,0,0,.29,3.2c0,.17.39.37,1,.59a4.81,4.81,0,0,0,1.27.33c.1,0,.15.23.15.7a2.22,2.22,0,0,1-.07.66q-.26,0-2.21-.15t-2.9-.15q-1,0-2.91.13l-2.43.17a.85.85,0,0,1-.15-.59q0-.77.11-.77a5.14,5.14,0,0,0,1.36-.31c.64-.21,1-.41,1.07-.61a12.83,12.83,0,0,0,.26-3V41a12.48,12.48,0,0,0-1.16-2.35q-1.16-2.1-2.3-4.08l-1.14-2a7.36,7.36,0,0,0-2-2.68,3.73,3.73,0,0,0-2-.55c-.1,0-.15-.2-.15-.61a1.22,1.22,0,0,1,.15-.75l1.66.09,1.89.09Q379.94,28.2,380.75,28.2Z" transform="translate(-2.64 -1.92)"/></g><g id="_Grupo_4" data-name="&lt;Grupo&gt;"><path id="_Trazado_compuesto_8" data-name="&lt;Trazado compuesto&gt;" class="cls-1" d="M308.5,9.85q1.29,0,3.33,0t3.07,0q0,.2.57,2.93a.7.7,0,0,1-.46.1c-.15,0-.24,0-.28-.14a3.33,3.33,0,0,0-1.19-1.29,2.88,2.88,0,0,0-1.58-.53h-.75q-1.25,0-1.29.26a8.48,8.48,0,0,0-.1,1.54v3q0,.12.85.12h1a5.3,5.3,0,0,0,1.35-.08c.07-.05.12-.24.16-.58a3.88,3.88,0,0,1,.12-.57c0-.09.11-.14.3-.14a.65.65,0,0,1,.43.1v3.74a.66.66,0,0,1-.41.08c-.17,0-.28-.05-.32-.16l-.14-.47c0-.13-.07-.23-.1-.3a1.19,1.19,0,0,0-.09-.18l-.07-.1-.08,0-.08,0a4.17,4.17,0,0,0-1.54-.16q-1.43,0-1.43.18v3a7.67,7.67,0,0,0,.14,1.62q.06.24.65.38a4.26,4.26,0,0,0,.89.14c.05,0,.08.13.08.38a1.19,1.19,0,0,1,0,.36q-2.38-.12-3-.12l-2.89.12a.5.5,0,0,1-.08-.34c0-.26,0-.4.08-.4a3.11,3.11,0,0,0,.74-.14c.34-.09.52-.19.56-.3a8.15,8.15,0,0,0,.12-1.74V12.58a6.84,6.84,0,0,0-.12-1.54c0-.11-.23-.22-.58-.36a2.53,2.53,0,0,0-.74-.2c-.05,0-.08-.12-.08-.36a.68.68,0,0,1,.06-.38Q307.37,9.85,308.5,9.85Z" transform="translate(-2.64 -1.92)"/><path id="_Trazado_compuesto_9" data-name="&lt;Trazado compuesto&gt;" class="cls-1" d="M326.1,16.42V20.3a2.28,2.28,0,0,0,.2,1.25.64.64,0,0,0,.32.15,1.91,1.91,0,0,0,.43,0h.2a.16.16,0,0,1,.08.16c0,.38,0,.57-.12.57l-.77.08-1,.13-.9.14-.7.11-.28.06c-.08,0-.12-.12-.12-.36V21.9a.16.16,0,0,0,0-.1s0,0-.06,0a3.82,3.82,0,0,1-1.22.79,4.21,4.21,0,0,1-1.73.36,2.16,2.16,0,0,1-1.87-1,4.32,4.32,0,0,1-.7-2.49V17.53a2.23,2.23,0,0,0-.36-1.48,1,1,0,0,0-.42-.26,3.5,3.5,0,0,0-.47-.14c-.13,0-.2,0-.2-.06,0-.46,0-.69.1-.69a12.11,12.11,0,0,0,1.72-.27,19.46,19.46,0,0,0,1.9-.45l.1,0,.12,0a.27.27,0,0,1,.2.13.39.39,0,0,1,.1.21q-.22,1.74-.22,2v2.12a4.29,4.29,0,0,0,.4,2.17,1.76,1.76,0,0,0,2.34.32.91.91,0,0,0,.34-.68V17.53a2.23,2.23,0,0,0-.36-1.48,1,1,0,0,0-.42-.26,3.51,3.51,0,0,0-.48-.14c-.13,0-.2,0-.2-.06,0-.46,0-.69.1-.69a12.11,12.11,0,0,0,1.72-.27,19.46,19.46,0,0,0,1.9-.45l.12,0,.1,0a.26.26,0,0,1,.2.13.39.39,0,0,1,.1.21Q326.1,16.2,326.1,16.42Z" transform="translate(-2.64 -1.92)"/><path id="_Trazado_compuesto_10" data-name="&lt;Trazado compuesto&gt;" class="cls-1" d="M335.49,14.06a2.23,2.23,0,0,1,1.87,1,4.93,4.93,0,0,1,.72,2.95v2a8,8,0,0,0,.14,1.8c0,.09.21.2.55.32a2.67,2.67,0,0,0,.69.18s.06.11.07.33a1.14,1.14,0,0,1,0,.41l-1.24-.09q-1-.07-1.48-.07t-1.43.07l-1.2.09a.65.65,0,0,1-.08-.41c0-.22,0-.33.08-.33a2.24,2.24,0,0,0,.69-.18c.32-.12.49-.22.52-.32a6.8,6.8,0,0,0,.14-1.5V18.46a4,4,0,0,0-.41-2.09,1.43,1.43,0,0,0-1.3-.62,1.9,1.9,0,0,0-1,.23.71.71,0,0,0-.38.64v3.33a8.11,8.11,0,0,0,.14,1.8c0,.09.2.2.53.32a2.4,2.4,0,0,0,.64.18s.06.11.07.33a1.16,1.16,0,0,1,0,.41l-1.21-.09q-1-.07-1.42-.07t-1.48.07l-1.23.09a.64.64,0,0,1-.08-.41c0-.22,0-.33.08-.33a2.62,2.62,0,0,0,.73-.18c.34-.12.53-.22.55-.32a6.8,6.8,0,0,0,.14-1.5V17.53a2.23,2.23,0,0,0-.36-1.48,1,1,0,0,0-.42-.26,3.5,3.5,0,0,0-.47-.14c-.13,0-.2,0-.2-.06,0-.46,0-.69.1-.69a4.71,4.71,0,0,0,.79-.11l1.45-.31,1.39-.3.09,0,.09,0,0,0a.27.27,0,0,1,.2.13.39.39,0,0,1,.1.21c-.05.37-.08.58-.08.61a.2.2,0,0,0,0,.12s.07,0,.14-.1A3.89,3.89,0,0,1,335.49,14.06Z" transform="translate(-2.64 -1.92)"/><path id="_Trazado_compuesto_11" data-name="&lt;Trazado compuesto&gt;" class="cls-1" d="M345.24,14a4.69,4.69,0,0,1,1.39.18s.06-.09.06-.28V12.38a7.39,7.39,0,0,0-.12-1.42q-.1-.32-1-.32h-.18c-.08,0-.12-.13-.12-.4s0-.34.12-.34c.41,0,.82-.09,1.24-.16s.77-.13,1.06-.2l.78-.2L349,9.2l.2-.06h0q.08,0,.16.12a.64.64,0,0,1,.1.22,8.4,8.4,0,0,0-.22,2V20a7.23,7.23,0,0,0,.12,1.43.35.35,0,0,0,.22.22,1.23,1.23,0,0,0,.38.1l.38,0,.2,0s.06.09.06.24q0,.49-.12.49l-.78.08-1,.13-.92.14-.71.13-.3,0c-.08,0-.12-.11-.12-.34v-.42a.16.16,0,0,0,0-.1s0,0-.06,0a2.73,2.73,0,0,1-2,.83,4,4,0,0,1-2.86-1.2,4.11,4.11,0,0,1-1.26-3.12,4.47,4.47,0,0,1,1.36-3.32A4.65,4.65,0,0,1,345.24,14Zm-.12,1.07a1.45,1.45,0,0,0-1.36.74,5,5,0,0,0-.43,2.37q0,3.58,1.78,3.58a1.65,1.65,0,0,0,1.12-.39,1.2,1.2,0,0,0,.45-.94v-3.6a2.55,2.55,0,0,0,0-.46,2.94,2.94,0,0,0-.18-.55,1.14,1.14,0,0,0-.48-.54A1.65,1.65,0,0,0,345.13,15.11Z" transform="translate(-2.64 -1.92)"/><path id="_Trazado_compuesto_12" data-name="&lt;Trazado compuesto&gt;" class="cls-1" d="M356.07,14a2.84,2.84,0,0,1,2.13.76,4,4,0,0,1,.74,2.76v3.21q0,.67.47.67a1.1,1.1,0,0,0,.67-.26.32.32,0,0,1,.14.3,1.51,1.51,0,0,1-.14.73,3.54,3.54,0,0,1-.9.54A2.83,2.83,0,0,1,358,23a1.63,1.63,0,0,1-.91-.29,1.38,1.38,0,0,1-.57-.66l-.16.11-.36.25a4.65,4.65,0,0,1-.51.28,3.49,3.49,0,0,1-.68.24,3.28,3.28,0,0,1-.79.1,2.43,2.43,0,0,1-1.73-.6,2.09,2.09,0,0,1-.4-2.49,2.73,2.73,0,0,1,.57-.73,3.57,3.57,0,0,1,.88-.54,9.94,9.94,0,0,1,1-.38l1-.3.86-.25a.27.27,0,0,0,.18-.3v-.71q0-1.62-1-1.62-1.15,0-1.15,1.33a.69.69,0,0,1-.36.64,1.55,1.55,0,0,1-.79.21,1.31,1.31,0,0,1-1.25-.59,2.31,2.31,0,0,1,1.34-1.85A5.35,5.35,0,0,1,356.07,14Zm-.79,7.6a1.19,1.19,0,0,0,.8-.25.77.77,0,0,0,.29-.6v-2l-.39.13-.45.15-.38.15a1.5,1.5,0,0,0-.39.2l-.27.23a.74.74,0,0,0-.22.3,1,1,0,0,0-.06.36,1.44,1.44,0,0,0,.31,1A1,1,0,0,0,355.28,21.61Z" transform="translate(-2.64 -1.92)"/><path id="_Trazado_compuesto_13" data-name="&lt;Trazado compuesto&gt;" class="cls-1" d="M366,14a4.82,4.82,0,0,1,1.59.26,3.92,3.92,0,0,1,1,.48,2.58,2.58,0,0,1,.46.43Q369.06,17,368,17c-.52,0-.9-.33-1.17-1a1.7,1.7,0,0,0-.45-.68,1.11,1.11,0,0,0-.74-.23q-1.59,0-1.58,3,0,3.35,2.24,3.35a4.61,4.61,0,0,0,2.08-.52c.16-.1.37-.25.63-.45.12.05.18.18.18.38a.88.88,0,0,1-.08.4,3,3,0,0,1-1.18,1.14,3.93,3.93,0,0,1-2.21.64,4.25,4.25,0,0,1-3.19-1.34,4.55,4.55,0,0,1-1.29-3.28,4.07,4.07,0,0,1,1.37-3.1A4.76,4.76,0,0,1,366,14Z" transform="translate(-2.64 -1.92)"/><path id="_Trazado_compuesto_14" data-name="&lt;Trazado compuesto&gt;" class="cls-1" d="M374.46,19.94a8,8,0,0,0,.14,1.8q0,.14.56.32a2.84,2.84,0,0,0,.68.18c.05,0,.08.11.08.33a1.21,1.21,0,0,1,0,.41l-1.23-.09q-1-.07-1.48-.07t-1.47.07l-1.24.09a.83.83,0,0,1-.06-.41c0-.22,0-.33.06-.33a2.51,2.51,0,0,0,.74-.18c.34-.12.52-.22.54-.32a6.8,6.8,0,0,0,.14-1.5V17.53a2.23,2.23,0,0,0-.36-1.48,1,1,0,0,0-.41-.26,3,3,0,0,0-.47-.14c-.14,0-.21,0-.21-.06,0-.46,0-.69.1-.69a11.76,11.76,0,0,0,1.73-.27c.89-.18,1.52-.33,1.89-.45l.22-.06a.25.25,0,0,1,.21.13.4.4,0,0,1,.09.21l-.08.59c0,.29-.07.54-.1.76a5.24,5.24,0,0,0,0,.62ZM372,11.74a1.46,1.46,0,0,1,0-2.08,1.44,1.44,0,0,1,1-.42,1.47,1.47,0,0,1,1,2.5,1.4,1.4,0,0,1-1,.43A1.43,1.43,0,0,1,372,11.74Z" transform="translate(-2.64 -1.92)"/><path id="_Trazado_compuesto_15" data-name="&lt;Trazado compuesto&gt;" class="cls-1" d="M378.2,15.35a4.81,4.81,0,0,1,6.59,0,4.44,4.44,0,0,1,0,6.37,4.83,4.83,0,0,1-6.6,0,4.42,4.42,0,0,1,0-6.37Zm3-.22a1.18,1.18,0,0,0-1,.46,2.34,2.34,0,0,0-.49,1,6.45,6.45,0,0,0-.12,1.3q0,4,2,4a1.27,1.27,0,0,0,1.22-.81,4.37,4.37,0,0,0,.39-1.9Q383.29,15.13,381.22,15.13Zm1.9-5.6a1,1,0,0,1,.68.2.53.53,0,0,1,.23.38q0,.5-1.42,1.59a6.07,6.07,0,0,1-1.67,1.1.32.32,0,0,1-.22-.13.36.36,0,0,1-.12-.23,2.83,2.83,0,0,1,.3-.54q.3-.49.75-1.14t.79-1A1,1,0,0,1,383.12,9.53Z" transform="translate(-2.64 -1.92)"/><path id="_Trazado_compuesto_16" data-name="&lt;Trazado compuesto&gt;" class="cls-1" d="M394.34,14.06a2.23,2.23,0,0,1,1.87,1,4.93,4.93,0,0,1,.72,2.95v2a8,8,0,0,0,.14,1.8c0,.09.21.2.55.32a2.66,2.66,0,0,0,.69.18s.06.11.07.33a1.16,1.16,0,0,1,0,.41l-1.24-.09c-.68,0-1.17-.07-1.47-.07s-.8,0-1.44.07L393,23a.65.65,0,0,1-.08-.41c0-.22,0-.33.08-.33a2.25,2.25,0,0,0,.69-.18c.32-.12.49-.22.51-.32a6.7,6.7,0,0,0,.14-1.5V18.46a4,4,0,0,0-.41-2.09,1.43,1.43,0,0,0-1.3-.62,1.89,1.89,0,0,0-1,.23.71.71,0,0,0-.38.64v3.33a8.23,8.23,0,0,0,.14,1.8c0,.09.2.2.53.32a2.42,2.42,0,0,0,.64.18s.06.11.07.33a1.16,1.16,0,0,1,0,.41l-1.21-.09c-.65,0-1.12-.07-1.42-.07s-.81,0-1.49.07l-1.23.09a.64.64,0,0,1-.08-.41c0-.22,0-.33.08-.33a2.62,2.62,0,0,0,.73-.18c.34-.12.53-.22.55-.32a6.9,6.9,0,0,0,.14-1.5V17.53a2.22,2.22,0,0,0-.36-1.48,1,1,0,0,0-.42-.26,3.5,3.5,0,0,0-.47-.14c-.13,0-.2,0-.2-.06,0-.46,0-.69.1-.69a4.71,4.71,0,0,0,.79-.11l1.45-.31,1.39-.3.09,0,.09,0,0,0a.26.26,0,0,1,.2.13.38.38,0,0,1,.1.21c-.05.37-.08.58-.08.61a.22.22,0,0,0,0,.12s.07,0,.14-.1A3.89,3.89,0,0,1,394.34,14.06Z" transform="translate(-2.64 -1.92)"/></g></g><path class="cls-1" d="M25.23,10.85v0a10.82,10.82,0,0,1,1.67-.15c1.57,0,1.81.52,1.83.58a.23.23,0,0,0,.21.13H29a.14.14,0,0,0,.1-.06.19.19,0,0,0,0-.17,2.2,2.2,0,0,0-2-1.19,6.74,6.74,0,0,0-1.79.05c-.25,0-.33.63-.33.64a.17.17,0,0,0,0,.15.21.21,0,0,0,.17,0" transform="translate(-2.64 -1.92)"/><path class="cls-1" d="M22.56,11.52h0a3.82,3.82,0,0,0-1.24-.13,1.89,1.89,0,0,0-1.76.91.23.23,0,0,0,0,.21.16.16,0,0,0,.11.07.29.29,0,0,0,.37-.15s.09-.26.68-.41h0a0,0,0,0,1,0,0,.69.69,0,0,0,0,.26.69.69,0,1,0,1.38,0A.71.71,0,0,0,22,12a0,0,0,0,1,0,0h0a1,1,0,0,1,.54.49c0,.08.12.13.4.13a.22.22,0,0,0,.18-.06.1.1,0,0,0,0-.09,1.37,1.37,0,0,0-.63-.95" transform="translate(-2.64 -1.92)"/><path class="cls-1" d="M25.17,12.61c.28,0,.36,0,.4-.13A1,1,0,0,1,26.1,12h0a0,0,0,0,1,0,0,.69.69,0,1,0,1.33.27.7.7,0,0,0,0-.26,0,0,0,0,1,0,0h0c.58.14.68.39.69.42a.28.28,0,0,0,.35.14.16.16,0,0,0,.12-.07.24.24,0,0,0,0-.21,1.89,1.89,0,0,0-1.75-.91,3.74,3.74,0,0,0-1.24.13,1.38,1.38,0,0,0-.62.94.1.1,0,0,0,0,.09s.12.06.18.06" transform="translate(-2.64 -1.92)"/><path class="cls-1" d="M19.12,11.4h.09a.24.24,0,0,0,.22-.13s.39-.92,3.5-.42a.23.23,0,0,0,.18,0,.17.17,0,0,0,0-.15s-.08-.59-.33-.64a6.32,6.32,0,0,0-1.08-.09A5.92,5.92,0,0,0,21,10a2.18,2.18,0,0,0-2,1.18.2.2,0,0,0,0,.18.14.14,0,0,0,.09.06" transform="translate(-2.64 -1.92)"/><path class="cls-1" d="M45.31,45.12a.35.35,0,0,0-.39-.39,5.06,5.06,0,0,0,.21-.5,7.41,7.41,0,0,0,.41-2.48.35.35,0,0,0-.16-.3.35.35,0,0,0-.26-.05c.06-.16.11-.32.15-.49a7.45,7.45,0,0,0,.17-2.5.35.35,0,0,0-.46-.3,5.4,5.4,0,0,0,.12-.58A7.39,7.39,0,0,0,45,35a.35.35,0,0,0-.21-.26.35.35,0,0,0-.21,0c0-.13,0-.27.06-.41a7.45,7.45,0,0,0-.2-2.5.35.35,0,0,0-.22-.25.35.35,0,0,0-.33,0l0,0a5.37,5.37,0,0,0,0-.64,7.45,7.45,0,0,0-.54-2.45.35.35,0,0,0-.54-.15,5.33,5.33,0,0,0,0-.59A7.43,7.43,0,0,0,42,25.44a.35.35,0,0,0-.28-.19.35.35,0,0,0-.28.1,5.4,5.4,0,0,0-.11-.54,7.52,7.52,0,0,0-1.06-2.28.36.36,0,0,0-.29-.16.35.35,0,0,0-.29.16v0a5.28,5.28,0,0,0-.23-.63A7.48,7.48,0,0,0,38,19.84a.35.35,0,0,0-.33-.1.35.35,0,0,0-.22.16,5.65,5.65,0,0,0-.34-.61,7.37,7.37,0,0,0-1.69-1.81.35.35,0,0,0-.54.15,4.09,4.09,0,0,0-1.83-1.37l.29,0a5.4,5.4,0,0,0,1.77-.16.52.52,0,0,0-.13-1,3.82,3.82,0,0,1-2-.56l-.15-.08,2.4-.36a.52.52,0,0,0,0-1L33,12.73l.73-.23a5.46,5.46,0,0,0,1.57-.83.52.52,0,0,0,.12-.66.52.52,0,0,0-.63-.23,3.82,3.82,0,0,1-2.07.26l-.17,0L34.6,9.76a.53.53,0,0,0,.21-.65.52.52,0,0,0-.61-.3L32,9.38l.59-.5a5.44,5.44,0,0,0,1.13-1.37.52.52,0,0,0-.14-.66.52.52,0,0,0-.67,0,3.85,3.85,0,0,1-1.82,1L30.9,8,32.34,6a.53.53,0,0,0-.05-.68.52.52,0,0,0-.68,0l-1.86,1.4c.13-.24.25-.47.36-.7a5.54,5.54,0,0,0,.52-1.7.52.52,0,0,0-1-.27,3.85,3.85,0,0,1-1.29,1.66l-.12.1.59-2.35a.52.52,0,0,0-1-.4L26.69,5c0-.27.05-.54.07-.79a5.48,5.48,0,0,0-.17-1.78.52.52,0,0,0-1,.13,3.88,3.88,0,0,1-.55,2l-.07.13L24.6,2.36a.52.52,0,0,0-1,0l-.32,2.27c-.07-.25-.15-.49-.22-.71a5.52,5.52,0,0,0-.83-1.58.52.52,0,0,0-.89.51,3.89,3.89,0,0,1,.25,2.09l0,.17L20.29,3a.52.52,0,0,0-.95.4l.57,2.24c-.16-.2-.33-.4-.49-.58a5.42,5.42,0,0,0-1.37-1.14.52.52,0,0,0-.65.14.52.52,0,0,0,0,.67,3.87,3.87,0,0,1,1,1.82l0,.16-2-1.45a.52.52,0,0,0-.68.05.53.53,0,0,0,0,.68l1.39,1.86-.68-.35A5.39,5.39,0,0,0,14.84,7a.52.52,0,0,0-.27,1,3.87,3.87,0,0,1,1.66,1.3l.1.12L14,8.81a.52.52,0,0,0-.39,1l2,1.19-.77-.07a5.47,5.47,0,0,0-1.77.17.52.52,0,0,0,.13,1,3.84,3.84,0,0,1,2,.56l.13.07-2.39.35a.52.52,0,0,0,0,1l2.31.34-.75.24a5.48,5.48,0,0,0-1.57.84.52.52,0,0,0,.51.89,4.41,4.41,0,0,1,1.3-.3,9.32,9.32,0,0,0-1.09,1.07c-.11.14-.21.28-.3.42a.35.35,0,0,0-.52-.11,7.53,7.53,0,0,0-1.73,1.83,5.38,5.38,0,0,0-.34.6.35.35,0,0,0-.25-.18.35.35,0,0,0-.31.11,7.48,7.48,0,0,0-1.41,2.08,5.52,5.52,0,0,0-.22.59.35.35,0,0,0-.24-.11.34.34,0,0,0-.3.14,7.42,7.42,0,0,0-1.16,2.23,5.61,5.61,0,0,0-.15.61h0a.34.34,0,0,0-.31-.13.35.35,0,0,0-.28.19,7.43,7.43,0,0,0-.81,2.38,5.29,5.29,0,0,0-.05.6h0a.35.35,0,0,0-.57.13A7.43,7.43,0,0,0,4.18,31a5.29,5.29,0,0,0,0,.59.35.35,0,0,0-.54.21,7.42,7.42,0,0,0-.2,2.5c0,.15,0,.3.07.44a.35.35,0,0,0-.38.28,7.43,7.43,0,0,0-.08,2.51,5.28,5.28,0,0,0,.12.59.34.34,0,0,0-.16,0,.35.35,0,0,0-.19.27,7.43,7.43,0,0,0,.08,2.51c0,.17.08.34.14.5a.35.35,0,0,0-.42.34A7.45,7.45,0,0,0,3,44.26a5.35,5.35,0,0,0,.26.64l-.08,0a.35.35,0,0,0-.32.08.35.35,0,0,0-.11.32,7.43,7.43,0,0,0,.77,2.39c.07.14.15.27.24.4a.35.35,0,0,0-.27.42,7.43,7.43,0,0,0,.95,2.33,5.36,5.36,0,0,0,.33.46.34.34,0,0,0-.27.14.35.35,0,0,0,0,.33A7.47,7.47,0,0,0,5.65,54c.11.14.23.27.35.39a.35.35,0,0,0-.24.5,7.47,7.47,0,0,0,1.46,2c.12.12.25.23.38.34a.35.35,0,0,0-.18.52A7.47,7.47,0,0,0,9.1,59.64a5.26,5.26,0,0,0,.6.41l-.11,0a.35.35,0,0,0-.13.57,8.66,8.66,0,0,0,1.94,1.56,5.22,5.22,0,0,0,1.6.61,3.55,3.55,0,0,0,1.26,0,19.28,19.28,0,0,0,3.64,2,17.53,17.53,0,0,0,3.17,1l.47.09.36.07a5.61,5.61,0,0,0,.6.16,1.62,1.62,0,0,0,0,.7,6.51,6.51,0,0,1-3.6,1.78h-.11l.06.1a2.89,2.89,0,0,0,.52.62l0,0h0a7.24,7.24,0,0,0,3.47-1.77l.14.14A3.27,3.27,0,0,1,20.46,70l-.21.06.2.08a4.77,4.77,0,0,0,1.15.31h0a3.8,3.8,0,0,0,2.16-2.26,1.63,1.63,0,0,0,.57,0,3.81,3.81,0,0,0,2.16,2.25h0a4.77,4.77,0,0,0,1.15-.31l.2-.08L27.71,70a3.28,3.28,0,0,1-2.59-2.15l.15-.14a7.25,7.25,0,0,0,3.46,1.77h0l0,0a2.88,2.88,0,0,0,.52-.62l.06-.1h-.11a6.42,6.42,0,0,1-3.59-1.77,1.63,1.63,0,0,0,0-.72,5.24,5.24,0,0,0,.55-.15l.41-.07c.51-.09,1-.19,1.47-.32a17.23,17.23,0,0,0,3.13-1.18,15.71,15.71,0,0,0,2.68-1.65,3.54,3.54,0,0,0,1.27,0,5.21,5.21,0,0,0,1.6-.61,8.66,8.66,0,0,0,1.94-1.56.35.35,0,0,0-.14-.57l-.09,0a5.44,5.44,0,0,0,.61-.41,7.47,7.47,0,0,0,1.67-1.89.35.35,0,0,0-.18-.52c.13-.1.26-.22.38-.34a7.48,7.48,0,0,0,1.46-2,.35.35,0,0,0-.29-.51,5.24,5.24,0,0,0,.39-.43,7.44,7.44,0,0,0,1.21-2.2.35.35,0,0,0,0-.32.35.35,0,0,0-.28-.16h0c.11-.14.22-.29.33-.44a7.44,7.44,0,0,0,1-2.31.35.35,0,0,0-.08-.33.35.35,0,0,0-.31-.11,5.7,5.7,0,0,0,.29-.52,7.44,7.44,0,0,0,.69-2.41m-.4-2.88h0a0,0,0,0,1,0,0A6.47,6.47,0,0,1,44.57,44a4.32,4.32,0,0,1-.76,1.34,3.31,3.31,0,0,1-.91.76h0a4,4,0,0,1-.74-2.52,5.47,5.47,0,0,1,.1-.94,0,0,0,0,1,0,0h0a4.75,4.75,0,0,1,.7,1.3.26.26,0,0,0,.23.18h0a.26.26,0,0,0,.23-.15,4.37,4.37,0,0,1,1.4-1.7h0M44.82,39h0a0,0,0,0,1,0,0,6.42,6.42,0,0,1-.17,1.74,4.33,4.33,0,0,1-.62,1.41,3.28,3.28,0,0,1-.83.84h0a4.9,4.9,0,0,1-.95-3.32,0,0,0,0,1,0,0h0a5.66,5.66,0,0,1,.8,1.17.25.25,0,0,0,.25.14.26.26,0,0,0,.23-.17A4.35,4.35,0,0,1,44.82,39m-.35-3.33h0a0,0,0,0,1,0,0,6.43,6.43,0,0,1,0,1.75A4.35,4.35,0,0,1,44,38.88a3.32,3.32,0,0,1-.76.93h0A5,5,0,0,1,42,36.61a0,0,0,0,1,0,0h0a5.73,5.73,0,0,1,.89,1.06.26.26,0,0,0,.47-.07,4.36,4.36,0,0,1,1-1.94m-.52-3.16h0a0,0,0,0,1,0,0,6.43,6.43,0,0,1,.08,1.75,4.33,4.33,0,0,1-.41,1.49,3.31,3.31,0,0,1-.7,1h0a4.26,4.26,0,0,1-1.26-2.22,6.75,6.75,0,0,1-.16-.93,0,0,0,0,1,0,0h0a5.79,5.79,0,0,1,1,1,.26.26,0,0,0,.46-.1,4.38,4.38,0,0,1,1-2M26.88,49.69a.39.39,0,0,0,.2.23A7.25,7.25,0,0,1,29.39,52a0,0,0,0,1,0,0,1,1,0,0,1-.16.25,1,1,0,0,1-.77.31h-.06a3.86,3.86,0,0,0-.61-.89,8.25,8.25,0,0,0-1.18-1,.39.39,0,0,0-.55.09.4.4,0,0,0,.09.55,7.32,7.32,0,0,1,1,.88,2.91,2.91,0,0,1,.49.7,0,0,0,0,1,0,0,1.17,1.17,0,0,1-.23.32.76.76,0,0,1-.68.2h0A5,5,0,0,0,26,52.16a.39.39,0,0,0-.59.52,4.3,4.3,0,0,1,.65,1,0,0,0,0,1,0,0,1.54,1.54,0,0,1-.28.15,1.56,1.56,0,0,1-.83.08h0a0,0,0,0,1,0,0,1.25,1.25,0,0,0,.23-.58,1.14,1.14,0,0,0-.39-1,1.2,1.2,0,0,0-1.09-.27h0a1.14,1.14,0,0,0-.42-.76A1.36,1.36,0,0,0,21.84,51h-.06a1.26,1.26,0,0,0-.67-.7,1.52,1.52,0,0,0-1.19-.07h0a1.77,1.77,0,0,0-1-.39,2.47,2.47,0,0,0-1.85.68h0c-2.61,1.4-6,2.92-7.31,3.51h0A26.33,26.33,0,0,1,7.93,49.7c-.14-.43-.27-.87-.39-1.32h0c3.82-.44,6.89-.89,9.13-1.34a14.25,14.25,0,0,0,4.58-1.45h0a3.39,3.39,0,0,1,2.39-.87l.73.09h0a2.32,2.32,0,0,0-.62.32c-.35.25-.57.43-.77.59a6.19,6.19,0,0,1-.6.45,6.83,6.83,0,0,1-.63.34c-.52.25-.93.45-1.05.79h0a1.05,1.05,0,0,0,.17,1,1.59,1.59,0,0,0,1.54.48,4.41,4.41,0,0,0,1.82-.55c.19-.11.35-.22.5-.32a2.16,2.16,0,0,1,.58-.32h0a2.56,2.56,0,0,1,1.62.16,9,9,0,0,1,1.6.88,10.66,10.66,0,0,1,2.35,2.17h0a.81.81,0,0,1-.23.47,1,1,0,0,1-.67.22h0a8,8,0,0,0-2.6-2.33.39.39,0,0,0-.54.48m-3,4,0,0h0a2.17,2.17,0,0,1-1.1.45h-.14a.56.56,0,0,1-.33-.2,0,0,0,0,1,0,0,2.4,2.4,0,0,1,1.06-1c.54-.31.78-.13.81-.11s.16.27.16.31c0,.21-.29.44-.42.52h0Zm-4.53-2.21c.56-.54,1-.7,1.37-.51a.55.55,0,0,1,.29.26.26.26,0,0,1,0,.13h0l-.26.18a2.48,2.48,0,0,0-1.06,1.3h0l-.26-.07c-.48-.16-.51-.42-.51-.51,0-.25.11-.47.46-.81M18.84,51a2.17,2.17,0,0,0-.66,1h0l-.23,0c-.28,0-.48-.14-.53-.25s-.09-.21.1-.46a1.69,1.69,0,0,1,1.33-.6h0a1.19,1.19,0,0,1,.25.05h0l-.28.25m2.39,1.29c.72-.51,1.1-.68,1.47-.36a.36.36,0,0,1,.16.27.81.81,0,0,1-.33.46,2.55,2.55,0,0,0-.93,1.07h0a2.68,2.68,0,0,1-.42,0,1,1,0,0,1-.54-.12.38.38,0,0,1-.16-.3c0-.41.46-.83.77-1m8-34.84a0,0,0,0,1,0,0,0,0,0,0,1,0,0,4.07,4.07,0,0,1,1-.19,2.81,2.81,0,0,1,2.32.89,0,0,0,0,1,0,0l0,0a3.07,3.07,0,0,1-.88.16h-.13a3.71,3.71,0,0,1-2.3-.86m1.09,1.32H17.9a13.56,13.56,0,0,1,12.38,0m1.56-2.54a6.8,6.8,0,0,1-1.21.35,4.92,4.92,0,0,1-.89.09,2.89,2.89,0,0,1-1.71-.5,0,0,0,0,1,0,0,0,0,0,0,1,0,0,3.81,3.81,0,0,1,1-.4,3.6,3.6,0,0,1,1.45,0,4.3,4.3,0,0,1,1.36.49,0,0,0,0,1,0,0,0,0,0,0,1,0,0m-3-1a5.44,5.44,0,0,1-1.65.44.26.26,0,0,0-.11.47,5.69,5.69,0,0,1,1.08,1,0,0,0,0,1,0,0l0,0A4.31,4.31,0,0,1,25,15.65a0,0,0,0,1,0,0,2.58,2.58,0,0,1,.88-.54,5,5,0,0,1,3,0,0,0,0,0,1,0,0,0,0,0,0,1,0,0m-3.39-.56a4.77,4.77,0,0,1-1.55.76.26.26,0,0,0,0,.49,4.8,4.8,0,0,1,1.23.72,0,0,0,0,1,0,0,0,0,0,0,1,0,0c-.22,0-.45,0-.68,0a4.55,4.55,0,0,1-2.72-.78,0,0,0,0,1,0,0,2.58,2.58,0,0,1,.75-.7,5,5,0,0,1,3-.59,0,0,0,0,1,0,0,0,0,0,0,1,0,0M22,14.64a3.73,3.73,0,0,1-1.4,1.08.26.26,0,0,0,.07.49,5.77,5.77,0,0,1,1.36.46,0,0,0,0,1,0,0,0,0,0,0,1,0,0,6.61,6.61,0,0,1-.9.23,5.42,5.42,0,0,1-.94.09,3.83,3.83,0,0,1-1.63-.34,0,0,0,0,1,0,0,2.53,2.53,0,0,1,.57-.84A5,5,0,0,1,22,14.59l0,0a0,0,0,0,1,0,0m-3.26.58h0a4.43,4.43,0,0,1-1.23,1.57.26.26,0,0,0,.17.46h0a5.57,5.57,0,0,1,.69.05,4.57,4.57,0,0,1,.73.15,0,0,0,0,1,0,0,0,0,0,0,1,0,0,6.89,6.89,0,0,1-.87.37,5,5,0,0,1-1.64.3,3.52,3.52,0,0,1-1-.13,0,0,0,0,1,0,0c.12-.58.65-2,3.08-2.84h0a0,0,0,0,1,0,0m13,4.35a16.84,16.84,0,0,1,2,1.47H14.49a16.83,16.83,0,0,1,2-1.47Zm2.85,2.31q.69.69,1.33,1.47H26.57a4.42,4.42,0,0,0-2.78-.83,5.19,5.19,0,0,0-2.6.83H12.26q.64-.78,1.33-1.47ZM21,32.75a4.49,4.49,0,0,0-2.28.51h0c0-.07,0-.14,0-.22a11.32,11.32,0,0,1,1.93-4.55,7.43,7.43,0,0,1,1.14-1.24l.2-.16a.46.46,0,0,0,.06-.63.45.45,0,0,0-.62-.1l-.22.17a.89.89,0,0,1-.9.19.56.56,0,0,1-.21-.62A3.32,3.32,0,0,1,21,24.76l0,0a4.1,4.1,0,0,1,2.82-1.31,3.49,3.49,0,0,1,1.26.18,3.63,3.63,0,0,1,2.12,1.89,20.25,20.25,0,0,1,1.58,4.13,0,0,0,0,1,0,0h0a6.49,6.49,0,0,1-1.8-1,.46.46,0,1,0-.58.71A7,7,0,0,0,29,30.65h0c.11.51.21,1,.3,1.69h0a6.75,6.75,0,0,0-1.49-.53,7.52,7.52,0,0,1-.81-.25,8.49,8.49,0,0,1-1.82-1.05.46.46,0,0,0-.57.72,9.18,9.18,0,0,0,2,1.19,8.2,8.2,0,0,0,.92.28c1.24.33,1.83.6,1.85,1.25h0a.52.52,0,0,1-.17.28,2.17,2.17,0,0,1-1.47.48H26.48A5,5,0,0,1,24,34a6.76,6.76,0,0,0-3-1.26m2.4,2h-3.7a1,1,0,0,1-.81-.29.79.79,0,0,1-.11-.19,0,0,0,0,1,0,0c1.66-.76,2.44-.9,4.6.48a0,0,0,0,1,0,0M24.65,38H41.54c0,.53.08,1.05.09,1.59h-17Zm0-.84V35.71H41.26q.12.73.2,1.48Zm5.3-2.31a1.74,1.74,0,0,0,.37-.65.44.44,0,0,0,0-.08,2.25,2.25,0,0,0,.06-.73H40.8c.12.49.22,1,.31,1.47Zm.34-2.31c-.07-.47-.15-1-.25-1.47h10.1l.12.37q.17.55.32,1.1Zm-.42-2.31c-.1-.47-.23-1-.38-1.47h9.75q.32.72.6,1.47ZM29.23,28q-.24-.71-.56-1.47h9.42q.41.72.78,1.47Zm-.94-2.31L28,25.07a5.27,5.27,0,0,0-.57-.89h9.14q.53.71,1,1.47Zm-8-1.47a4.5,4.5,0,0,0-.94,1.47H10.6q.48-.76,1-1.47Zm-1,2.31a1.36,1.36,0,0,0,.67,1,1.32,1.32,0,0,0,.26.11h0l-.24.31H9.32q.37-.75.78-1.47Zm.14,2.31a11.8,11.8,0,0,0-.74,1.47H8.34q.28-.75.6-1.47Zm-1.05,2.31a13.82,13.82,0,0,0-.41,1.47H7.6c.1-.37.21-.74.33-1.1L8,31.09Zm-.54,2.31a3.15,3.15,0,0,0,0,.6.43.43,0,0,0,0,.08,2,2,0,0,0,.29.79h-11c.09-.49.2-1,.31-1.47Zm5.75,2.31v1.48H6.72q.08-.75.2-1.48Zm0,2.32v1.59h-17c0-.53.05-1.06.09-1.59Zm0,2.45v3.41h-.12a4.38,4.38,0,0,0-2.59,1c-1.35.91-5.88,1.8-13.47,2.67h0a30.45,30.45,0,0,1-.8-7s0-.07,0-.11ZM29,48c-.83-.54-2.36-1.54-3.84-1.14a2.61,2.61,0,0,0-.84.43l-.46.29a3.62,3.62,0,0,1-1.47.44c-.45,0-.73,0-.86-.15s-.11-.21-.08-.29h0a3.69,3.69,0,0,1,.67-.38,6.81,6.81,0,0,0,.71-.39,7.42,7.42,0,0,0,.67-.5c.19-.15.39-.32.72-.56A2.86,2.86,0,0,1,26,45.41h.65a6.83,6.83,0,0,1,2.64.62l1.07.38h0s1.48.47,3.53,1a42.32,42.32,0,0,0,6.76,1.1h0c-.11.41-.23.82-.36,1.21a26.22,26.22,0,0,1-1.9,4.49h0A31.64,31.64,0,0,1,32.27,51a4.61,4.61,0,0,1-.79-.71h0v0h0l-.07-.08A11.23,11.23,0,0,0,29,48m1.56-2.36-1.06-.37a7.43,7.43,0,0,0-2.94-.67h-.17A6.19,6.19,0,0,0,24.66,44h0V40.47h17s0,.07,0,.11a30.38,30.38,0,0,1-.83,7.1h0a49.63,49.63,0,0,1-10.25-2M42.94,29.27l0,0,0,0A6.44,6.44,0,0,1,43.32,31a4.33,4.33,0,0,1-.21,1.53,3.31,3.31,0,0,1-.56,1h0a4.07,4.07,0,0,1-1.58-2,6.14,6.14,0,0,1-.27-.89,0,0,0,0,1,0,0h0a5.76,5.76,0,0,1,1.12.91.26.26,0,0,0,.45-.16,4.37,4.37,0,0,1,.67-2.09M41,28.59a.26.26,0,0,0,.15-.24,4.35,4.35,0,0,1,.45-2.15,0,0,0,0,1,0,0l0,0a6.48,6.48,0,0,1,.5,1.68,4.34,4.34,0,0,1,0,1.54,3.29,3.29,0,0,1-.45,1.09h0a4.08,4.08,0,0,1-1.78-1.87,6,6,0,0,1-.36-.86,0,0,0,0,1,0,0h0a5.82,5.82,0,0,1,1.21.79.26.26,0,0,0,.28,0h0m-1.36-2.82a.26.26,0,0,0,.12-.26,4.35,4.35,0,0,1,.2-2.19l0,0h0l0,0a6.52,6.52,0,0,1,.69,1.62,4.33,4.33,0,0,1,.13,1.54,3.3,3.3,0,0,1-.32,1.14l0,0h0a4,4,0,0,1-2-1.67,5.37,5.37,0,0,1-.45-.84,0,0,0,0,1,0,0h0a4.38,4.38,0,0,1,1.32.68.26.26,0,0,0,.29,0m-2-2.62a.26.26,0,0,0,.39-.29,4.83,4.83,0,0,1-.14-2.17,0,0,0,0,1,0,0h0a6.49,6.49,0,0,1,.92,1.46,4.35,4.35,0,0,1,.38,1.5,3.25,3.25,0,0,1-.13,1.17,0,0,0,0,1,0,0h0a4.13,4.13,0,0,1-2.24-1.32,6.13,6.13,0,0,1-.62-.79,0,0,0,0,1,0,0l0,0a3.11,3.11,0,0,1,1.38.48m-2-2.34a.26.26,0,0,0,.29-.07.26.26,0,0,0,0-.29,4.36,4.36,0,0,1-.5-2.13,0,0,0,0,1,0,0h0a6.44,6.44,0,0,1,1.13,1.3A4.53,4.53,0,0,1,37.25,21a3.51,3.51,0,0,1,.08,1.2,0,0,0,0,1,0,0h0A4,4,0,0,1,35,21.34a7.18,7.18,0,0,1-.78-.71,0,0,0,0,1,0,0l0,0a4.15,4.15,0,0,1,1.43.25m-.8-2.12A3.64,3.64,0,0,1,35.06,20a0,0,0,0,1,0,0h-.15a6.46,6.46,0,0,1-3.11-1.22,0,0,0,0,1,0,0,0,0,0,0,1,0,0,3.74,3.74,0,0,1,1.39,0,.26.26,0,0,0,.26-.41,5.64,5.64,0,0,1-.87-1.64,0,0,0,0,1,0,0h0a3.36,3.36,0,0,1,2.21,2M14,15.58h0a0,0,0,0,1,0,0,5.51,5.51,0,0,1,.71-.3,15.26,15.26,0,0,1,1.61-.46,4.25,4.25,0,0,0,1.23-.49.09.09,0,0,0,0-.1.09.09,0,0,0-.08-.07l-3.74-.55h0L17.49,13a.09.09,0,0,0,0-.19A6.28,6.28,0,0,1,16,12.38c-.22-.1-.4-.2-.57-.29A4.18,4.18,0,0,0,14,11.54h0a5.37,5.37,0,0,1,.77,0,15.28,15.28,0,0,1,1.66.2,4.25,4.25,0,0,0,1.32,0,.1.1,0,0,0,0-.18L14.53,9.61a0,0,0,0,1,0,0h0l3.67.92a.09.09,0,0,0,.11-.06.1.1,0,0,0,0-.12,6.15,6.15,0,0,1-1.17-1C17,9.2,16.82,9,16.7,8.88a4.16,4.16,0,0,0-1.15-1.07,0,0,0,0,1,0,0h0a5.57,5.57,0,0,1,.71.29,15,15,0,0,1,1.46.82,4.2,4.2,0,0,0,1.21.53.09.09,0,0,0,.1,0,.1.1,0,0,0,0-.11l-2.26-3a0,0,0,0,1,0,0h0l3,2.26A.09.09,0,0,0,20,8.35,6.26,6.26,0,0,1,19.25,7c-.08-.22-.14-.42-.2-.61A4.2,4.2,0,0,0,18.4,5a0,0,0,0,1,0,0h0a5.4,5.4,0,0,1,.55.54A15.29,15.29,0,0,1,20,6.8a4.22,4.22,0,0,0,.91,1,.09.09,0,0,0,.11,0,.1.1,0,0,0,0-.1L20.12,4a0,0,0,0,1,0,0h0l2,3.25a.1.1,0,0,0,.12,0,.1.1,0,0,0,.06-.11,6.29,6.29,0,0,1-.14-1.51c0-.23,0-.44.05-.64a4.21,4.21,0,0,0-.06-1.58,0,0,0,0,1,0,0h0a5.44,5.44,0,0,1,.3.71,15.53,15.53,0,0,1,.45,1.61A4.24,4.24,0,0,0,23.38,7a.09.09,0,0,0,.17,0l.53-3.74h0l.54,3.74a.09.09,0,0,0,.09.08.1.1,0,0,0,.09-.08,6.29,6.29,0,0,1,.44-1.45c.1-.21.19-.4.29-.57a4.21,4.21,0,0,0,.55-1.48h0a5.51,5.51,0,0,1,0,.77A15.16,15.16,0,0,1,26,5.87a4.23,4.23,0,0,0,0,1.32.09.09,0,0,0,.17,0L28,4h0a0,0,0,0,1,0,0l-.92,3.68a.1.1,0,0,0,.06.11.09.09,0,0,0,.12,0,6.32,6.32,0,0,1,1-1.17c.17-.16.33-.29.49-.42A4.15,4.15,0,0,0,29.83,5h0a0,0,0,0,1,0,0,5.48,5.48,0,0,1-.29.72,15.23,15.23,0,0,1-.81,1.46,4.24,4.24,0,0,0-.53,1.21.1.1,0,0,0,0,.1.09.09,0,0,0,.11,0l3-2.27h0a0,0,0,0,1,0,0l-2.25,3a.09.09,0,0,0,.13.13,6.17,6.17,0,0,1,1.33-.71c.22-.08.42-.14.61-.2a4.16,4.16,0,0,0,1.43-.66h0a0,0,0,0,1,0,0,5.69,5.69,0,0,1-.54.55,15,15,0,0,1-1.31,1,4.24,4.24,0,0,0-1,.92.09.09,0,0,0,.1.15l3.66-.94h0a0,0,0,0,1,0,0l-3.24,2a.1.1,0,0,0,0,.12.09.09,0,0,0,.11.06,6.27,6.27,0,0,1,1.5-.14c.24,0,.44,0,.64.05a4.15,4.15,0,0,0,1.57-.06h0a0,0,0,0,1,0,0,5.63,5.63,0,0,1-.71.3,14.86,14.86,0,0,1-1.61.45,4.27,4.27,0,0,0-1.23.48.1.1,0,0,0,0,.1.1.1,0,0,0,.08.07l3.73.54h0l-3.74.56a.1.1,0,0,0,0,.19,6.17,6.17,0,0,1,1.44.44c.21.1.39.2.57.29a4.17,4.17,0,0,0,1.47.55h0l-.44,0h-.33a14.79,14.79,0,0,1-1.66-.2h-.1a4.42,4.42,0,0,0-1.79-.39h0a.26.26,0,0,0,0-.07.27.27,0,0,0-.18-.2,8.11,8.11,0,0,0-2-.44H27.2a4.79,4.79,0,0,0-.82.07h0a.27.27,0,0,0,0-.11v0a.27.27,0,0,0-.21-.15L26,14H25.6a7.1,7.1,0,0,0-1.93.09l-.47.11h0l-.08,0h0l-.1,0h0l-.22.08h0v0h0a.28.28,0,0,0-.07-.23h0l0,0h0a.28.28,0,0,0-.2-.06,7.56,7.56,0,0,0-2.38.55,4.94,4.94,0,0,0-.64.33h0a.74.74,0,0,0,0-.08h0a.28.28,0,0,0-.1-.23h0l0,0h0a.27.27,0,0,0-.19,0,7.41,7.41,0,0,0-2.27,1l0,0h-.55l-.64,0a4.18,4.18,0,0,0-1.57.06m1.42.74h0a0,0,0,0,1,0,0,4.35,4.35,0,0,1-.71,2.08.26.26,0,0,0,.27.39,5.74,5.74,0,0,1,1.4-.08,0,0,0,0,1,0,0,0,0,0,0,1,0,0,5.33,5.33,0,0,1-3.07,1.28h-.14a0,0,0,0,1,0,0c0-.61.11-2.21,2.21-3.72M11,21a4.35,4.35,0,0,1,.61-1.42,6.5,6.5,0,0,1,1.17-1.32h0a0,0,0,0,1,0,0,4.35,4.35,0,0,1-.51,2.14.26.26,0,0,0,.31.36A5.39,5.39,0,0,1,14,20.57a0,0,0,0,1,0,0,0,0,0,0,1,0,0,8.8,8.8,0,0,1-.8.71,3.89,3.89,0,0,1-2.16.93H11a0,0,0,0,1,0,0A3.26,3.26,0,0,1,11,21m-.71-.38h0l0,0a4.33,4.33,0,0,1-.16,2.19.26.26,0,0,0,.39.29,3.13,3.13,0,0,1,1.36-.48l0,0a0,0,0,0,1,0,0,4.9,4.9,0,0,1-2.84,2.11h0a0,0,0,0,1,0,0c-.19-.59-.46-2.17,1.19-4.16M7.45,24.92a6.45,6.45,0,0,1,.76-1.59h0l0,0a4.32,4.32,0,0,1,.11,2.2.26.26,0,0,0,.43.23,2.63,2.63,0,0,1,1.33-.65h0a0,0,0,0,1,0,0,6,6,0,0,1-.53.89,4,4,0,0,1-2.07,1.56h0l0,0a3.29,3.29,0,0,1-.27-1.15,4.31,4.31,0,0,1,.2-1.53M5.92,27.87a6.48,6.48,0,0,1,.51-1.68l0,0,0,0a4.34,4.34,0,0,1,.43,2.16.26.26,0,0,0,.15.25.25.25,0,0,0,.28,0,5.67,5.67,0,0,1,1.28-.81h0a0,0,0,0,1,0,0,4.1,4.1,0,0,1-.29.8,4.18,4.18,0,0,1-1.94,1.93h0A3.28,3.28,0,0,1,6,29.41a4.33,4.33,0,0,1,0-1.54m-.83,1.38,0,0h0a4.34,4.34,0,0,1,.7,2.09.26.26,0,0,0,.45.15,4.86,4.86,0,0,1,1.16-1h0a0,0,0,0,1,0,0,4.28,4.28,0,0,1-.19.86,3.92,3.92,0,0,1-1.69,2.15h0a3.3,3.3,0,0,1-.58-1A4.32,4.32,0,0,1,4.8,31a6.39,6.39,0,0,1,.3-1.73m-.94,3.2h0a0,0,0,0,1,0,0h0a4.37,4.37,0,0,1,1,2,.26.26,0,0,0,.46.09,5.62,5.62,0,0,1,1-1.08h0a0,0,0,0,1,0,0,5,5,0,0,1-.12.85,4.34,4.34,0,0,1-1.35,2.33h0a3.3,3.3,0,0,1-.69-1,4.37,4.37,0,0,1-.41-1.49,6.44,6.44,0,0,1,.08-1.75m-.48,3.21a0,0,0,0,1,0,0h0a4.37,4.37,0,0,1,1,1.94.26.26,0,0,0,.48,0,4.06,4.06,0,0,1,.85-1.12h0a0,0,0,0,1,0,0,6.18,6.18,0,0,1-.08,1A3.93,3.93,0,0,1,4.95,39.8h0a3.31,3.31,0,0,1-.74-.92,4.33,4.33,0,0,1-.48-1.47,6.43,6.43,0,0,1,0-1.75M3.41,39h0a0,0,0,0,1,0,0h0l.2.2a4.48,4.48,0,0,1,1,1.67.26.26,0,0,0,.25.18h0a.26.26,0,0,0,.23-.22,2.39,2.39,0,0,1,.7-1.22h0l0,0a5,5,0,0,1,0,1.6,3.26,3.26,0,0,1-.94,1.86h0c-.5-.36-1.66-1.49-1.5-4.07m-.12,3.26h0l.22.18A4.48,4.48,0,0,1,4.68,44a.26.26,0,0,0,.23.15h0A.26.26,0,0,0,5.15,44a5.64,5.64,0,0,1,.78-1.29H6l0,0a4.23,4.23,0,0,1-.77,3.44h0c-.54-.31-1.79-1.32-1.9-3.88a0,0,0,0,1,0,0m.16,3.42h0a0,0,0,0,1,0,0h0a4.38,4.38,0,0,1,1.64,1.48.26.26,0,0,0,.46-.09h0a5.57,5.57,0,0,1,.55-1.43l0,0h0l0,0a3.9,3.9,0,0,1,.3.87A3.68,3.68,0,0,1,6,49.19l0,0H6a3.32,3.32,0,0,1-1-.63,4.35,4.35,0,0,1-1-1.22,6.48,6.48,0,0,1-.59-1.65m.77,3.16h0a0,0,0,0,1,0,0h0l.26.12A4.52,4.52,0,0,1,6,50.18a.26.26,0,0,0,.46-.12,5.7,5.7,0,0,1,.42-1.41l0,0,0,0a4.29,4.29,0,0,1,.13,3.5l0,0H7c-.6-.17-2.07-.83-2.81-3.3m1.9,4.68A6.5,6.5,0,0,1,5.22,52a0,0,0,0,1,0,0h0l.27.09a4.52,4.52,0,0,1,1.62,1.06A.26.26,0,0,0,7.58,53a5.67,5.67,0,0,1,.25-1.43l0,0,0,0a5.67,5.67,0,0,1,.39.84A4,4,0,0,1,8.43,55a0,0,0,0,1,0,0h0a3.38,3.38,0,0,1-1.11-.42,4.4,4.4,0,0,1-1.17-1M6.57,55a0,0,0,0,1,0,0h0a4.41,4.41,0,0,1,2,.92A.26.26,0,0,0,9,55.68a5,5,0,0,1,.07-1.42l0,0h0a6.6,6.6,0,0,1,.48.81,4.24,4.24,0,0,1,.46,2.52,0,0,0,0,1,0,0,3.31,3.31,0,0,1-1.16-.29,4.39,4.39,0,0,1-1.28-.88A6.47,6.47,0,0,1,6.57,55m2.89,4.1a6.55,6.55,0,0,1-1.2-1.28,0,0,0,0,1,0,0l0,0a4.43,4.43,0,0,1,2.09.71.26.26,0,0,0,.39-.28,4.58,4.58,0,0,1-.09-1.41,0,0,0,0,1,0,0h0A5,5,0,0,1,12,60a0,0,0,0,1,0,0h-.13a3.42,3.42,0,0,1-1-.17,4.45,4.45,0,0,1-1.36-.75m4.68,3.1a2.52,2.52,0,0,1-.43,0,3.3,3.3,0,0,1-.65-.07,5.89,5.89,0,0,1-2.79-1.6,0,0,0,0,1,0,0l0,0a4.44,4.44,0,0,1,2.2.3.26.26,0,0,0,.33-.34,5.33,5.33,0,0,1-.33-1.39,0,0,0,0,1,0,0h0a4.07,4.07,0,0,1,1.62,3.12,0,0,0,0,1,0,0M20.34,65a17.16,17.16,0,0,1-2.15-.75,18.59,18.59,0,0,1-3.48-2h0a3.57,3.57,0,0,0-.19-1.31,0,0,0,0,1,0,0h0A16.78,16.78,0,0,0,17,62.64a15.06,15.06,0,0,0,3,1.27h0l.25.08a1.61,1.61,0,0,0,.26,1Zm1.7-.8a1.36,1.36,0,0,0,.07,1.1,0,0,0,0,1,0,0h0a2.18,2.18,0,0,1-1-.61,1,1,0,0,1-.21-.75.61.61,0,0,1,.28-.48,2.43,2.43,0,0,1,1.47-.18,0,0,0,0,1,0,0,0,0,0,0,1,0,0,1.69,1.69,0,0,0-.59.79m2.06,3.27a.89.89,0,1,1,.89-.89.89.89,0,0,1-.89.89m1.09-2.07a0,0,0,0,1-.06,0,1.55,1.55,0,0,0-2.07,0H23a1,1,0,0,1-.34-1c.29-.79,1.39-.8,1.43-.8h0a2.28,2.28,0,0,1,.62.1,1.18,1.18,0,0,1,.81.7,1,1,0,0,1-.33,1m1.93-.66a2.18,2.18,0,0,1-1,.61h0a0,0,0,0,1,0,0,1.37,1.37,0,0,0,.07-1.1,1.69,1.69,0,0,0-.59-.79,0,0,0,0,1,0,0,0,0,0,0,1,0,0,2.55,2.55,0,0,1,1.47.18.61.61,0,0,1,.28.48,1,1,0,0,1-.21.75m6.38-2.46h0a15,15,0,0,1-2.58,1.58,16.58,16.58,0,0,1-3,1.13l-.2,0A1.61,1.61,0,0,0,28,64l.3-.09h0a15,15,0,0,0,2.93-1.26,17.09,17.09,0,0,0,2.45-1.75h0a0,0,0,0,1,0,0,3.53,3.53,0,0,0-.2,1.33m-2.61-.14a14.59,14.59,0,0,1-2.95,1.25l-.09,0a1.27,1.27,0,0,0-.43-.48c-1-.63-2.78-.17-3.31,0h0c-.54-.15-2.36-.61-3.31,0a1.27,1.27,0,0,0-.43.47l-.16,0a14.58,14.58,0,0,1-2.89-1.23,18.16,18.16,0,0,1-5.58-5,23.22,23.22,0,0,1-1.56-2.37,0,0,0,0,1,0,0h0c1.11-.49,4-1.78,6.42-3h0a1.15,1.15,0,0,0,.09.31,1.41,1.41,0,0,0,1.14.71l.39,0h0a1.48,1.48,0,0,0,1,.83,2.83,2.83,0,0,0,.53.11h0a1.12,1.12,0,0,0,.42.53,2.19,2.19,0,0,0,1.51.22h0a1.36,1.36,0,0,0,.8.49,1.88,1.88,0,0,0,1-.11h0v4.33a.56.56,0,1,0,1.11,0V54.67h0A2.38,2.38,0,0,0,26,54.55a2.26,2.26,0,0,0,.58-.34h0A1.54,1.54,0,0,0,28,53.77a1.9,1.9,0,0,0,.3-.4h.13a1.73,1.73,0,0,0,1.36-.58,1.78,1.78,0,0,0,.28-.44h0a1.67,1.67,0,0,0,1.13-.44,1.47,1.47,0,0,0,.31-.44h0a31.21,31.21,0,0,0,6.37,3.43h0a22.88,22.88,0,0,1-1.48,2.22,18.16,18.16,0,0,1-5.58,5m7-1.5h0a5.84,5.84,0,0,1-2.79,1.6,3.33,3.33,0,0,1-.65.07,2.5,2.5,0,0,1-.43,0,0,0,0,0,1,0,0A3.45,3.45,0,0,1,35,59.79a5.73,5.73,0,0,1,.7-.68h0a0,0,0,0,1,0,0,5.83,5.83,0,0,1-.35,1.37.26.26,0,0,0,.05.28.26.26,0,0,0,.28.06,4.44,4.44,0,0,1,2.19-.29l0,0a0,0,0,0,1,0,0M40,57.87a6.51,6.51,0,0,1-1.2,1.27,4.45,4.45,0,0,1-1.36.75,3.43,3.43,0,0,1-1,.17h-.13a0,0,0,0,1,0,0,4.06,4.06,0,0,1,.72-2.47,6.15,6.15,0,0,1,.57-.75h0a0,0,0,0,1,0,0,5.6,5.6,0,0,1-.08,1.43.26.26,0,0,0,.11.27.26.26,0,0,0,.28,0,4.44,4.44,0,0,1,2.09-.71l0,0a0,0,0,0,1,0,0M41.66,55a6.46,6.46,0,0,1-1.06,1.39,4.4,4.4,0,0,1-1.28.88,3.35,3.35,0,0,1-1.15.29,0,0,0,0,1,0,0A4.05,4.05,0,0,1,38.58,55a6.24,6.24,0,0,1,.48-.81h0a0,0,0,0,1,0,0,5.78,5.78,0,0,1,.07,1.43.26.26,0,0,0,.42.23,4.44,4.44,0,0,1,2-.92h0a0,0,0,0,1,0,0M43,52h0a6.5,6.5,0,0,1-.91,1.55,4.39,4.39,0,0,1-1.17,1,3.3,3.3,0,0,1-1.11.42h0a0,0,0,0,1,0,0,4.12,4.12,0,0,1,.15-2.61,5.67,5.67,0,0,1,.37-.82l0,0,0,0a6.35,6.35,0,0,1,.25,1.42.26.26,0,0,0,.45.16h0A3.94,3.94,0,0,1,42.68,52l.29-.08h0a0,0,0,0,1,0,0m1-3.1h0a6.47,6.47,0,0,1-.74,1.59,4.38,4.38,0,0,1-1.06,1.13,3.38,3.38,0,0,1-1.07.53h0a0,0,0,0,1,0,0A4.35,4.35,0,0,1,41,49.46a6.58,6.58,0,0,1,.29-.91l0,0,0,0a6.31,6.31,0,0,1,.4,1.46.26.26,0,0,0,.45.13,4.42,4.42,0,0,1,1.77-1.33h0a0,0,0,0,1,0,0m.1-1.61a4.33,4.33,0,0,1-.91,1.25,3.33,3.33,0,0,1-1,.66h0l0,0a4.26,4.26,0,0,1-.45-2.64,5.92,5.92,0,0,1,.19-.92l0,0,0,0A6.3,6.3,0,0,1,42.53,47a.26.26,0,0,0,.21.19.26.26,0,0,0,.26-.12,4.4,4.4,0,0,1,1.59-1.53h0a0,0,0,0,1,0,0,6.47,6.47,0,0,1-.54,1.67" transform="translate(-2.64 -1.92)"/><path class="cls-1" d="M67.36,60.11,66.18,56.5a.3.3,0,0,0-.29-.21h-5a.3.3,0,0,0-.29.21l-1.18,3.62a.3.3,0,0,1-.29.21H57.27a.3.3,0,0,1-.29-.4l4.51-13.4a.3.3,0,0,1,.29-.21H65a.3.3,0,0,1,.29.21l4.51,13.4a.3.3,0,0,1-.29.4H67.64A.3.3,0,0,1,67.36,60.11Zm-5.65-5.85H65a.3.3,0,0,0,.29-.39l-1.67-5.09a.3.3,0,0,0-.57,0l-1.66,5.09A.3.3,0,0,0,61.71,54.26Z" transform="translate(-2.64 -1.92)"/><path class="cls-1" d="M71.63,50h1.48a.3.3,0,0,1,.3.26l.15,1.08h.13a2.92,2.92,0,0,1,1.2-1.1,3.61,3.61,0,0,1,1.63-.37l.56,0a.31.31,0,0,1,.27.3v1.64a.3.3,0,0,1-.33.3l-.64,0a3.7,3.7,0,0,0-1.45.3,2.64,2.64,0,0,0-1.06.78.31.31,0,0,0-.07.19V60a.3.3,0,0,1-.3.3H71.63a.3.3,0,0,1-.3-.3V50.3A.3.3,0,0,1,71.63,50Z" transform="translate(-2.64 -1.92)"/><path class="cls-1" d="M80.36,64.56A11.06,11.06,0,0,1,79,64.3a.3.3,0,0,1-.22-.3V62.66a.3.3,0,0,1,.38-.29,11.08,11.08,0,0,0,2.75.37,4.64,4.64,0,0,0,1.72-.27,1.87,1.87,0,0,0,1-.87A3.35,3.35,0,0,0,84.88,60v-.81h-.12a3.34,3.34,0,0,1-1.18.87A3.77,3.77,0,0,1,82,60.4a3.84,3.84,0,0,1-2-.53,3.73,3.73,0,0,1-1.44-1.67A6.58,6.58,0,0,1,78,55.37a5.55,5.55,0,0,1,1.42-4.13,5.8,5.8,0,0,1,4.22-1.41,13.53,13.53,0,0,1,1.92.14,10.7,10.7,0,0,1,1.56.33.3.3,0,0,1,.21.29v9a6.31,6.31,0,0,1-.58,2.91A3.55,3.55,0,0,1,85,64.15a7.33,7.33,0,0,1-3,.53A13.62,13.62,0,0,1,80.36,64.56ZM84,58.16a2.25,2.25,0,0,0,.8-.53.31.31,0,0,0,.08-.21V52.16a.31.31,0,0,0-.25-.3,6.43,6.43,0,0,0-1.17-.11,2.81,2.81,0,0,0-2.2.81,3.8,3.8,0,0,0-.73,2.59,3.9,3.9,0,0,0,.61,2.49,2.18,2.18,0,0,0,1.76.72A3,3,0,0,0,84,58.16Z" transform="translate(-2.64 -1.92)"/><path class="cls-1" d="M97.9,55.9H92.14a.3.3,0,0,0-.3.34,3.25,3.25,0,0,0,.35,1.25,1.9,1.9,0,0,0,1,.86,5.27,5.27,0,0,0,1.84.26,10.37,10.37,0,0,0,2.22-.27.3.3,0,0,1,.37.29V59.9a.31.31,0,0,1-.24.3,12.06,12.06,0,0,1-2.7.31,7.14,7.14,0,0,1-3-.56,3.67,3.67,0,0,1-1.77-1.74,6.87,6.87,0,0,1-.59-3.06,7.07,7.07,0,0,1,.54-2.92,3.85,3.85,0,0,1,1.56-1.79,4.8,4.8,0,0,1,2.47-.6,3.88,3.88,0,0,1,3.21,1.36,6.32,6.32,0,0,1,1.1,4v.37A.3.3,0,0,1,97.9,55.9Zm-5.55-3.77a3.58,3.58,0,0,0-.54,2,.3.3,0,0,0,.3.32h3.45a.3.3,0,0,0,.3-.31,3.72,3.72,0,0,0-.51-2,1.71,1.71,0,0,0-1.48-.68A1.8,1.8,0,0,0,92.36,52.13Z" transform="translate(-2.64 -1.92)"/><path class="cls-1" d="M100.35,50h1.49a.3.3,0,0,1,.3.25l.13.83h.13a4,4,0,0,1,1.39-.93,4.53,4.53,0,0,1,1.71-.32,3.38,3.38,0,0,1,2.53.94,4.11,4.11,0,0,1,.93,3V60a.3.3,0,0,1-.3.3h-1.88a.3.3,0,0,1-.3-.3V53.89a2,2,0,0,0-.44-1.47,1.71,1.71,0,0,0-1.27-.44,3.09,3.09,0,0,0-1.23.26,2.54,2.54,0,0,0-.94.69.31.31,0,0,0-.07.2V60a.3.3,0,0,1-.3.3h-1.88a.3.3,0,0,1-.3-.3V50.3A.3.3,0,0,1,100.35,50Z" transform="translate(-2.64 -1.92)"/><path class="cls-1" d="M117.48,58.67v1.38a.31.31,0,0,1-.24.3,7.88,7.88,0,0,1-1.55.16q-3.67,0-3.67-3.7V52.27a.3.3,0,0,0-.3-.3h-1.18a.3.3,0,0,1-.3-.3V50.3a.3.3,0,0,1,.3-.3h1.21a.3.3,0,0,0,.3-.27l.37-3.15a.3.3,0,0,1,.3-.27h1.47a.3.3,0,0,1,.3.3v3.08a.3.3,0,0,0,.3.3h2.28a.3.3,0,0,1,.3.3v1.37a.3.3,0,0,1-.3.3H114.8a.3.3,0,0,0-.3.3v4.14a3.06,3.06,0,0,0,.19,1.2,1.22,1.22,0,0,0,.59.64,2.41,2.41,0,0,0,1.05.19,5.34,5.34,0,0,0,.8-.07A.3.3,0,0,1,117.48,58.67Z" transform="translate(-2.64 -1.92)"/><path class="cls-1" d="M119.29,47.88a1.26,1.26,0,0,1-.39-1,1.27,1.27,0,0,1,.39-1,2.16,2.16,0,0,1,2.36,0,1.28,1.28,0,0,1,.39,1,1.26,1.26,0,0,1-.39,1,2.18,2.18,0,0,1-2.36,0ZM119.22,60V50.3a.3.3,0,0,1,.3-.3h1.89a.3.3,0,0,1,.3.3V60a.3.3,0,0,1-.3.3h-1.89A.3.3,0,0,1,119.22,60Z" transform="translate(-2.64 -1.92)"/><path class="cls-1" d="M124,50h1.49a.3.3,0,0,1,.3.25l.13.83h.13a4,4,0,0,1,1.39-.93,4.54,4.54,0,0,1,1.71-.32,3.38,3.38,0,0,1,2.53.94,4.1,4.1,0,0,1,.93,3V60a.3.3,0,0,1-.3.3h-1.88a.3.3,0,0,1-.3-.3V53.89a2,2,0,0,0-.44-1.47,1.71,1.71,0,0,0-1.27-.44,3.1,3.1,0,0,0-1.23.26,2.54,2.54,0,0,0-.94.69.31.31,0,0,0-.07.2V60a.3.3,0,0,1-.3.3H124a.3.3,0,0,1-.3-.3V50.3A.3.3,0,0,1,124,50Z" transform="translate(-2.64 -1.92)"/><path class="cls-1" d="M141,50.23a2.76,2.76,0,0,1,1.45,1.29,5.24,5.24,0,0,1,.48,2.44V60a.3.3,0,0,1-.3.3h-1.49a.3.3,0,0,1-.3-.25l-.13-.81h-.13a2.91,2.91,0,0,1-1.2.93,4,4,0,0,1-1.62.32,4,4,0,0,1-1.75-.36,2.61,2.61,0,0,1-1.13-1,3,3,0,0,1-.39-1.55,2.68,2.68,0,0,1,1-2.22,5.75,5.75,0,0,1,3.11-1l1.93-.18v-.41a2.55,2.55,0,0,0-.25-1.23,1.39,1.39,0,0,0-.79-.64,4.41,4.41,0,0,0-1.43-.19,9.37,9.37,0,0,0-1.37.11,9.17,9.17,0,0,0-1,.21.3.3,0,0,1-.38-.29V50.51a.3.3,0,0,1,.22-.29,9.77,9.77,0,0,1,1.35-.27,12.55,12.55,0,0,1,1.64-.11A6.91,6.91,0,0,1,141,50.23Zm-1.41,8.3a2.44,2.44,0,0,0,.84-.57.32.32,0,0,0,.09-.22V56a.3.3,0,0,0-.33-.3l-1.36.12a2.63,2.63,0,0,0-1.43.47,1.29,1.29,0,0,0-.45,1,1.32,1.32,0,0,0,.4,1,1.72,1.72,0,0,0,1.18.36A2.82,2.82,0,0,0,139.58,58.53Z" transform="translate(-2.64 -1.92)"/><path class="cls-1" d="M65.71,15h2.07v9.49h-1.6V17.32l-2.6,5.82H62.14l-2.6-5.68v7h-1.6V15H60l2.89,6.4Z" transform="translate(-2.64 -1.92)"/><path class="cls-1" d="M69.62,16.06a.85.85,0,0,1-.27-.68.86.86,0,0,1,.27-.68,1.46,1.46,0,0,1,1.6,0,.87.87,0,0,1,.27.68.86.86,0,0,1-.27.68,1.48,1.48,0,0,1-1.6,0Zm0,8.43v-7h1.69v7Z" transform="translate(-2.64 -1.92)"/><path class="cls-1" d="M72.93,17.49h1.39l.12.74h.09a2.7,2.7,0,0,1,.94-.63,3.08,3.08,0,0,1,1.16-.22,2.29,2.29,0,0,1,1.71.64A2.78,2.78,0,0,1,79,20v4.45H77.28V20.13a1.39,1.39,0,0,0-.29-1,1.16,1.16,0,0,0-.86-.3,2.09,2.09,0,0,0-.83.18,1.73,1.73,0,0,0-.69.53v4.95H72.93Z" transform="translate(-2.64 -1.92)"/><path class="cls-1" d="M80.62,16.06a.86.86,0,0,1-.27-.68.86.86,0,0,1,.27-.68,1.46,1.46,0,0,1,1.6,0,.87.87,0,0,1,.27.68.86.86,0,0,1-.27.68,1.48,1.48,0,0,1-1.6,0Zm0,8.43v-7h1.69v7Z" transform="translate(-2.64 -1.92)"/><path class="cls-1" d="M83.72,24.32V23.07a7.27,7.27,0,0,0,2.12.31,2.07,2.07,0,0,0,1.09-.22.72.72,0,0,0,.34-.65.7.7,0,0,0-.18-.52,1.21,1.21,0,0,0-.61-.27l-1.06-.2A2.53,2.53,0,0,1,84,20.84a1.85,1.85,0,0,1-.44-1.3,1.92,1.92,0,0,1,.34-1.14,2.2,2.2,0,0,1,1-.75,4.85,4.85,0,0,1,1.73-.27,7,7,0,0,1,1.79.22v1.25a6.65,6.65,0,0,0-1.74-.22q-1.58,0-1.58.87a.68.68,0,0,0,.18.49,1.16,1.16,0,0,0,.6.27l1.06.2a2.66,2.66,0,0,1,1.41.66,1.82,1.82,0,0,1,.45,1.32,2,2,0,0,1-.35,1.16,2.18,2.18,0,0,1-1,.75,4.44,4.44,0,0,1-1.62.26A7.16,7.16,0,0,1,83.72,24.32Z" transform="translate(-2.64 -1.92)"/><path class="cls-1" d="M94.13,23.13v1.35a5.37,5.37,0,0,1-1.21.14,2.21,2.21,0,0,1-2.49-2.51V18.83H89.22V17.49h1.21l.29-2.5h1.39v2.5h2v1.34h-2v3a2.08,2.08,0,0,0,.13.82.83.83,0,0,0,.4.43,1.64,1.64,0,0,0,.71.13A4.21,4.21,0,0,0,94.13,23.13Z" transform="translate(-2.64 -1.92)"/><path class="cls-1" d="M100.76,21.5H96.43a2.47,2.47,0,0,0,.26,1.08,1.29,1.29,0,0,0,.69.58,3.57,3.57,0,0,0,1.25.18,7.43,7.43,0,0,0,1.76-.24v1.28a8.22,8.22,0,0,1-2,.25,4.84,4.84,0,0,1-2.06-.38,2.49,2.49,0,0,1-1.2-1.18,4.67,4.67,0,0,1-.4-2.08,4.79,4.79,0,0,1,.37-2,2.61,2.61,0,0,1,1.06-1.22,3.25,3.25,0,0,1,1.67-.41,2.63,2.63,0,0,1,2.17.92,4.28,4.28,0,0,1,.74,2.74Zm-4-2.55a2.68,2.68,0,0,0-.37,1.55h2.76a2.77,2.77,0,0,0-.35-1.55,1.16,1.16,0,0,0-1-.46A1.22,1.22,0,0,0,96.79,18.94Z" transform="translate(-2.64 -1.92)"/><path class="cls-1" d="M102,17.49h1.39l.13.91h.09a2,2,0,0,1,.81-.74,2.45,2.45,0,0,1,1.11-.25,3.53,3.53,0,0,1,.56,0V19a3.92,3.92,0,0,0-.65,0,2.5,2.5,0,0,0-1,.21,1.76,1.76,0,0,0-.76.58v4.77H102Z" transform="translate(-2.64 -1.92)"/><path class="cls-1" d="M107.12,16.06a.86.86,0,0,1-.27-.68.86.86,0,0,1,.27-.68,1.46,1.46,0,0,1,1.6,0,.86.86,0,0,1,.27.68.86.86,0,0,1-.27.68,1.48,1.48,0,0,1-1.6,0Zm0,8.43v-7h1.69v7Z" transform="translate(-2.64 -1.92)"/><path class="cls-1" d="M111,23.71A3.78,3.78,0,0,1,110.1,21a3.84,3.84,0,0,1,.85-2.72,3.66,3.66,0,0,1,4.82,0,3.83,3.83,0,0,1,.85,2.71,4.57,4.57,0,0,1-.39,2,2.65,2.65,0,0,1-1.13,1.21,3.59,3.59,0,0,1-1.74.4A3.15,3.15,0,0,1,111,23.71Zm3.57-.92a3.05,3.05,0,0,0,.39-1.78,3.11,3.11,0,0,0-.39-1.81,1.56,1.56,0,0,0-2.34,0,3.06,3.06,0,0,0-.39,1.78,4.21,4.21,0,0,0,.18,1.38,1.38,1.38,0,0,0,.53.73,1.55,1.55,0,0,0,.86.22A1.37,1.37,0,0,0,114.52,22.8Z" transform="translate(-2.64 -1.92)"/><path class="cls-1" d="M122.2,24.25a2.5,2.5,0,0,1-1-1.14,4.57,4.57,0,0,1-.37-2,3.82,3.82,0,0,1,.95-2.8,3.72,3.72,0,0,1,2.76-1,6.85,6.85,0,0,1,.94.07V14.12h1.68V24.49h-1.42l-.1-.74h-.09a2.22,2.22,0,0,1-.8.63,2.47,2.47,0,0,1-1.08.23A2.9,2.9,0,0,1,122.2,24.25Zm2.66-1.18a1.5,1.5,0,0,0,.6-.46V18.78a4.24,4.24,0,0,0-.94-.1,2,2,0,0,0-1.52.55,2.6,2.6,0,0,0-.5,1.77,2.73,2.73,0,0,0,.42,1.72,1.45,1.45,0,0,0,1.19.5A1.86,1.86,0,0,0,124.85,23.07Z" transform="translate(-2.64 -1.92)"/><path class="cls-1" d="M134.48,21.5h-4.33a2.47,2.47,0,0,0,.26,1.08,1.3,1.3,0,0,0,.69.58,3.56,3.56,0,0,0,1.25.18,7.41,7.41,0,0,0,1.76-.24v1.28a8.21,8.21,0,0,1-2,.25,4.84,4.84,0,0,1-2.06-.38,2.48,2.48,0,0,1-1.2-1.18,4.67,4.67,0,0,1-.4-2.08,4.79,4.79,0,0,1,.37-2,2.61,2.61,0,0,1,1.06-1.22,3.24,3.24,0,0,1,1.67-.41,2.63,2.63,0,0,1,2.17.92,4.28,4.28,0,0,1,.74,2.74Zm-4-2.55a2.68,2.68,0,0,0-.37,1.55h2.76a2.78,2.78,0,0,0-.36-1.55,1.16,1.16,0,0,0-1-.46A1.22,1.22,0,0,0,130.52,18.94Z" transform="translate(-2.64 -1.92)"/><path class="cls-1" d="M139.89,23.45a4.91,4.91,0,0,1-1.21-3.68,4.93,4.93,0,0,1,1.24-3.67,4.9,4.9,0,0,1,3.58-1.22,8.52,8.52,0,0,1,2,.24v1.42a7.7,7.7,0,0,0-1.92-.24,3.93,3.93,0,0,0-1.76.35,2.23,2.23,0,0,0-1,1.1,4.76,4.76,0,0,0-.35,2,4.92,4.92,0,0,0,.35,2,2.17,2.17,0,0,0,1,1.09,3.86,3.86,0,0,0,1.71.33,6.72,6.72,0,0,0,2-.31v1.42a6.38,6.38,0,0,1-1,.24,7.43,7.43,0,0,1-1.11.08A4.88,4.88,0,0,1,139.89,23.45Z" transform="translate(-2.64 -1.92)"/><path class="cls-1" d="M146.78,16.06a.86.86,0,0,1-.27-.68.86.86,0,0,1,.27-.68,1.46,1.46,0,0,1,1.6,0,.86.86,0,0,1,.27.68.86.86,0,0,1-.27.68,1.48,1.48,0,0,1-1.6,0Zm0,8.43v-7h1.69v7Z" transform="translate(-2.64 -1.92)"/><path class="cls-1" d="M155.77,21.5h-4.33a2.44,2.44,0,0,0,.26,1.08,1.29,1.29,0,0,0,.69.58,3.57,3.57,0,0,0,1.25.18,7.42,7.42,0,0,0,1.76-.24v1.28a8.21,8.21,0,0,1-2,.25,4.84,4.84,0,0,1-2.06-.38,2.49,2.49,0,0,1-1.2-1.18,4.67,4.67,0,0,1-.4-2.08,4.8,4.8,0,0,1,.37-2,2.62,2.62,0,0,1,1.06-1.22,3.25,3.25,0,0,1,1.67-.41,2.63,2.63,0,0,1,2.17.92,4.28,4.28,0,0,1,.74,2.74Zm-4-2.55a2.68,2.68,0,0,0-.37,1.55h2.76a2.78,2.78,0,0,0-.36-1.55,1.16,1.16,0,0,0-1-.46A1.22,1.22,0,0,0,151.81,18.94Z" transform="translate(-2.64 -1.92)"/><path class="cls-1" d="M157,17.49h1.39l.11.74h.09a2.7,2.7,0,0,1,.94-.63,3.08,3.08,0,0,1,1.16-.22,2.3,2.3,0,0,1,1.71.64,2.78,2.78,0,0,1,.63,2v4.45h-1.68V20.13a1.38,1.38,0,0,0-.3-1,1.15,1.15,0,0,0-.86-.3,2.09,2.09,0,0,0-.83.18,1.73,1.73,0,0,0-.69.53v4.95H157Z" transform="translate(-2.64 -1.92)"/><path class="cls-1" d="M165.21,23.72a3.75,3.75,0,0,1-.88-2.72,3.6,3.6,0,0,1,.94-2.73,3.84,3.84,0,0,1,2.74-.89,6.63,6.63,0,0,1,1.52.17V18.9a6.34,6.34,0,0,0-1.3-.15A2.89,2.89,0,0,0,167,19a1.45,1.45,0,0,0-.71.72,3.07,3.07,0,0,0-.23,1.29,2.55,2.55,0,0,0,.48,1.74,1.92,1.92,0,0,0,1.48.53,4.06,4.06,0,0,0,.68-.06,8.1,8.1,0,0,0,.81-.19v1.35a5.56,5.56,0,0,1-1.74.27A3.45,3.45,0,0,1,165.21,23.72Z" transform="translate(-2.64 -1.92)"/><path class="cls-1" d="M170.78,16.06a.86.86,0,0,1-.27-.68.86.86,0,0,1,.27-.68,1.46,1.46,0,0,1,1.6,0,.87.87,0,0,1,.27.68.86.86,0,0,1-.27.68,1.48,1.48,0,0,1-1.6,0Zm0,8.43v-7h1.69v7Z" transform="translate(-2.64 -1.92)"/><path class="cls-1" d="M178.14,17.65a1.87,1.87,0,0,1,1,.88,3.55,3.55,0,0,1,.32,1.65v4.31h-1.39l-.12-.72h-.09a2,2,0,0,1-.81.63,2.75,2.75,0,0,1-1.1.22,2.67,2.67,0,0,1-1.19-.24,1.77,1.77,0,0,1-.77-.69,2,2,0,0,1-.27-1,1.82,1.82,0,0,1,.67-1.51,3.89,3.89,0,0,1,2.11-.65l1.31-.12v-.28a1.72,1.72,0,0,0-.17-.84.94.94,0,0,0-.53-.43,3,3,0,0,0-1-.13,6.41,6.41,0,0,0-.93.07,6.07,6.07,0,0,0-1,.22V17.68a6.38,6.38,0,0,1,1.06-.22,8.61,8.61,0,0,1,1.11-.08A4.69,4.69,0,0,1,178.14,17.65Zm-1,5.63a1.69,1.69,0,0,0,.63-.45V21.34l-1.15.1a1.78,1.78,0,0,0-1,.32.87.87,0,0,0-.3.71.9.9,0,0,0,.27.7,1.16,1.16,0,0,0,.8.24A1.91,1.91,0,0,0,177.18,23.28Z" transform="translate(-2.64 -1.92)"/><path class="cls-1" d="M182.71,22.83a1.55,1.55,0,0,1,.29,1,4.69,4.69,0,0,1-.23,1.44,5.2,5.2,0,0,1-.64,1.32h-1a9.61,9.61,0,0,0,.41-1.09,4.64,4.64,0,0,0,.18-1,1.07,1.07,0,0,1-.71-.32,1,1,0,0,1-.26-.73,1,1,0,0,1,.3-.77,1.11,1.11,0,0,1,.79-.28A1,1,0,0,1,182.71,22.83Z" transform="translate(-2.64 -1.92)"/><path class="cls-1" d="M60.11,38.39V30.33H57.05V28.9h7.82v1.43H61.82v8.06Z" transform="translate(-2.64 -1.92)"/><path class="cls-1" d="M70.58,35.39H66.25a2.44,2.44,0,0,0,.26,1.08,1.29,1.29,0,0,0,.69.58,3.57,3.57,0,0,0,1.25.18A7.42,7.42,0,0,0,70.2,37v1.28a8.21,8.21,0,0,1-2,.25,4.84,4.84,0,0,1-2.06-.38A2.49,2.49,0,0,1,65,37a4.67,4.67,0,0,1-.4-2.08,4.8,4.8,0,0,1,.37-2A2.62,2.62,0,0,1,66,31.69a3.25,3.25,0,0,1,1.67-.41,2.63,2.63,0,0,1,2.17.92,4.28,4.28,0,0,1,.74,2.74Zm-4-2.55a2.68,2.68,0,0,0-.37,1.55H69a2.78,2.78,0,0,0-.36-1.55,1.16,1.16,0,0,0-1-.46A1.22,1.22,0,0,0,66.61,32.84Z" transform="translate(-2.64 -1.92)"/><path class="cls-1" d="M72.37,37.62a3.75,3.75,0,0,1-.88-2.72,3.6,3.6,0,0,1,.94-2.73,3.84,3.84,0,0,1,2.74-.89,6.62,6.62,0,0,1,1.52.17v1.35a6.34,6.34,0,0,0-1.3-.15,2.88,2.88,0,0,0-1.22.22,1.44,1.44,0,0,0-.71.72,3.05,3.05,0,0,0-.23,1.29,2.55,2.55,0,0,0,.48,1.74,1.92,1.92,0,0,0,1.49.53,4,4,0,0,0,.68-.06,8.09,8.09,0,0,0,.81-.19v1.35a5.56,5.56,0,0,1-1.74.27A3.45,3.45,0,0,1,72.37,37.62Z" transform="translate(-2.64 -1.92)"/><path class="cls-1" d="M77.8,31.39H79.2l.12.74h.09a2.7,2.7,0,0,1,.94-.63,3.08,3.08,0,0,1,1.16-.22,2.29,2.29,0,0,1,1.71.64,2.78,2.78,0,0,1,.63,2v4.45H82.16V34a1.38,1.38,0,0,0-.3-1,1.15,1.15,0,0,0-.86-.3,2.09,2.09,0,0,0-.83.18,1.73,1.73,0,0,0-.69.53v4.95H77.8Z" transform="translate(-2.64 -1.92)"/><path class="cls-1" d="M86,37.61a3.79,3.79,0,0,1-.86-2.71A3.84,3.84,0,0,1,86,32.19a3.66,3.66,0,0,1,4.82,0,3.83,3.83,0,0,1,.85,2.71,4.59,4.59,0,0,1-.39,2,2.65,2.65,0,0,1-1.13,1.21,3.58,3.58,0,0,1-1.74.4A3.16,3.16,0,0,1,86,37.61Zm3.57-.92a3.06,3.06,0,0,0,.39-1.78,3.12,3.12,0,0,0-.39-1.81,1.56,1.56,0,0,0-2.34,0,3.05,3.05,0,0,0-.39,1.78A4.21,4.21,0,0,0,87,36.27a1.39,1.39,0,0,0,.53.73,1.55,1.55,0,0,0,.86.22A1.37,1.37,0,0,0,89.55,36.7Z" transform="translate(-2.64 -1.92)"/><path class="cls-1" d="M93,38.39V28h1.68V38.39Z" transform="translate(-2.64 -1.92)"/><path class="cls-1" d="M96.84,37.61A3.79,3.79,0,0,1,96,34.91a3.84,3.84,0,0,1,.85-2.72,3.66,3.66,0,0,1,4.82,0,3.83,3.83,0,0,1,.85,2.71,4.57,4.57,0,0,1-.39,2A2.65,2.65,0,0,1,101,38.12a3.59,3.59,0,0,1-1.74.4A3.15,3.15,0,0,1,96.84,37.61Zm3.57-.92a3.05,3.05,0,0,0,.39-1.78,3.11,3.11,0,0,0-.39-1.81,1.56,1.56,0,0,0-2.34,0,3.05,3.05,0,0,0-.39,1.78,4.21,4.21,0,0,0,.18,1.38,1.39,1.39,0,0,0,.53.73,1.55,1.55,0,0,0,.86.22A1.37,1.37,0,0,0,100.41,36.7Z" transform="translate(-2.64 -1.92)"/><path class="cls-1" d="M105.15,41.26a7.1,7.1,0,0,1-1.1-.22V39.71a7.76,7.76,0,0,0,2.12.32,3.15,3.15,0,0,0,1.17-.18,1.26,1.26,0,0,0,.66-.59,2.27,2.27,0,0,0,.22-1.06v-.55h-.08a2.26,2.26,0,0,1-.8.59,2.55,2.55,0,0,1-1.06.21,2.62,2.62,0,0,1-1.36-.36,2.53,2.53,0,0,1-1-1.13,4.43,4.43,0,0,1-.37-1.92,3.76,3.76,0,0,1,1-2.8,3.93,3.93,0,0,1,2.86-1,9.28,9.28,0,0,1,1.3.1,7,7,0,0,1,1.2.27v6.25a4.28,4.28,0,0,1-.39,2A2.41,2.41,0,0,1,108.32,41a5,5,0,0,1-2,.36A9.18,9.18,0,0,1,105.15,41.26Zm2.47-4.34a1.52,1.52,0,0,0,.6-.42V32.69a4.38,4.38,0,0,0-1-.11,1.91,1.91,0,0,0-1.49.55,2.57,2.57,0,0,0-.5,1.76,2.63,2.63,0,0,0,.42,1.69,1.48,1.48,0,0,0,1.19.49A2,2,0,0,0,107.62,36.93Z" transform="translate(-2.64 -1.92)"/><path class="cls-1" d="M111.57,38.39v-7h1.69v7Zm.08-8L113.06,28h1.8l-1.67,2.41Z" transform="translate(-2.64 -1.92)"/><path class="cls-1" d="M119,31.55a1.87,1.87,0,0,1,1,.88,3.55,3.55,0,0,1,.32,1.65v4.31H118.9l-.12-.72h-.09a2,2,0,0,1-.81.63,2.75,2.75,0,0,1-1.1.22,2.67,2.67,0,0,1-1.19-.24,1.77,1.77,0,0,1-.77-.69,2,2,0,0,1-.27-1,1.82,1.82,0,0,1,.67-1.51,3.89,3.89,0,0,1,2.11-.65l1.31-.12V34a1.74,1.74,0,0,0-.17-.84,1,1,0,0,0-.53-.43,3,3,0,0,0-1-.13,6.41,6.41,0,0,0-.93.07,6.07,6.07,0,0,0-1,.22V31.58a6.38,6.38,0,0,1,1.06-.22,8.61,8.61,0,0,1,1.11-.08A4.69,4.69,0,0,1,119,31.55Zm-1,5.63a1.68,1.68,0,0,0,.63-.45V35.24l-1.15.1a1.78,1.78,0,0,0-1,.32.87.87,0,0,0-.3.71.9.9,0,0,0,.27.7,1.16,1.16,0,0,0,.8.24A1.91,1.91,0,0,0,118,37.18Z" transform="translate(-2.64 -1.92)"/><path class="cls-1" d="M130.77,35.39h-4.33a2.47,2.47,0,0,0,.26,1.08,1.29,1.29,0,0,0,.69.58,3.56,3.56,0,0,0,1.25.18A7.42,7.42,0,0,0,130.4,37v1.28a8.21,8.21,0,0,1-2,.25,4.84,4.84,0,0,1-2.06-.38,2.49,2.49,0,0,1-1.2-1.18,4.67,4.67,0,0,1-.4-2.08,4.79,4.79,0,0,1,.37-2,2.61,2.61,0,0,1,1.06-1.22,3.25,3.25,0,0,1,1.67-.41,2.63,2.63,0,0,1,2.17.92,4.28,4.28,0,0,1,.74,2.74Zm-4-2.55a2.68,2.68,0,0,0-.37,1.55h2.76a2.78,2.78,0,0,0-.36-1.55,1.16,1.16,0,0,0-1-.46A1.22,1.22,0,0,0,126.81,32.84Z" transform="translate(-2.64 -1.92)"/><path class="cls-1" d="M135.32,38.39V28.9H137v9.49Z" transform="translate(-2.64 -1.92)"/><path class="cls-1" d="M138.81,31.39h1.39l.11.74h.09a2.7,2.7,0,0,1,.94-.63,3.07,3.07,0,0,1,1.16-.22,2.29,2.29,0,0,1,1.71.64,2.78,2.78,0,0,1,.63,2v4.45h-1.68V34a1.39,1.39,0,0,0-.29-1,1.16,1.16,0,0,0-.86-.3,2.09,2.09,0,0,0-.83.18,1.73,1.73,0,0,0-.69.53v4.95h-1.68Z" transform="translate(-2.64 -1.92)"/><path class="cls-1" d="M146.45,31.39h1.39l.12.74H148a2.7,2.7,0,0,1,.94-.63,3.08,3.08,0,0,1,1.16-.22,2.29,2.29,0,0,1,1.71.64,2.78,2.78,0,0,1,.63,2v4.45h-1.68V34a1.38,1.38,0,0,0-.3-1,1.15,1.15,0,0,0-.86-.3,2.09,2.09,0,0,0-.83.18,1.73,1.73,0,0,0-.69.53v4.95h-1.68Z" transform="translate(-2.64 -1.92)"/><path class="cls-1" d="M154.63,37.61a3.79,3.79,0,0,1-.86-2.71,3.84,3.84,0,0,1,.85-2.72,3.66,3.66,0,0,1,4.82,0,3.83,3.83,0,0,1,.85,2.71,4.59,4.59,0,0,1-.39,2,2.65,2.65,0,0,1-1.13,1.21,3.59,3.59,0,0,1-1.74.4A3.15,3.15,0,0,1,154.63,37.61Zm3.57-.92a3.06,3.06,0,0,0,.39-1.78,3.12,3.12,0,0,0-.39-1.81,1.56,1.56,0,0,0-2.34,0,3.05,3.05,0,0,0-.39,1.78,4.21,4.21,0,0,0,.18,1.38,1.39,1.39,0,0,0,.53.73,1.55,1.55,0,0,0,.86.22A1.37,1.37,0,0,0,158.19,36.7Z" transform="translate(-2.64 -1.92)"/><path class="cls-1" d="M166.16,31.39h1.66l-2.53,7h-2.11l-2.53-7h1.77l1.87,5.49Z" transform="translate(-2.64 -1.92)"/><path class="cls-1" d="M172.47,31.55a1.87,1.87,0,0,1,1,.88,3.55,3.55,0,0,1,.32,1.65v4.31h-1.39l-.11-.72h-.09a2,2,0,0,1-.81.63,2.74,2.74,0,0,1-1.1.22,2.68,2.68,0,0,1-1.19-.24,1.77,1.77,0,0,1-.77-.69,2,2,0,0,1-.27-1,1.82,1.82,0,0,1,.67-1.51,3.89,3.89,0,0,1,2.11-.65l1.31-.12V34a1.74,1.74,0,0,0-.17-.84,1,1,0,0,0-.53-.43,3,3,0,0,0-1-.13,6.43,6.43,0,0,0-.93.07,6.06,6.06,0,0,0-1,.22V31.58a6.39,6.39,0,0,1,1.06-.22,8.61,8.61,0,0,1,1.11-.08A4.69,4.69,0,0,1,172.47,31.55Zm-1,5.63a1.7,1.7,0,0,0,.63-.45V35.24l-1.15.1a1.78,1.78,0,0,0-1,.32.87.87,0,0,0-.3.71.9.9,0,0,0,.27.7,1.16,1.16,0,0,0,.8.24A1.92,1.92,0,0,0,171.51,37.18Z" transform="translate(-2.64 -1.92)"/><path class="cls-1" d="M175.93,37.62a3.75,3.75,0,0,1-.88-2.72,3.6,3.6,0,0,1,.94-2.73,3.84,3.84,0,0,1,2.74-.89,6.63,6.63,0,0,1,1.52.17v1.35a6.35,6.35,0,0,0-1.3-.15,2.88,2.88,0,0,0-1.23.22,1.45,1.45,0,0,0-.71.72,3.07,3.07,0,0,0-.23,1.29,2.55,2.55,0,0,0,.48,1.74,1.92,1.92,0,0,0,1.48.53,4.06,4.06,0,0,0,.68-.06,8.09,8.09,0,0,0,.81-.19v1.35a5.57,5.57,0,0,1-1.74.27A3.45,3.45,0,0,1,175.93,37.62Z" transform="translate(-2.64 -1.92)"/><path class="cls-1" d="M181.5,30a.86.86,0,0,1-.27-.68.86.86,0,0,1,.27-.68,1.46,1.46,0,0,1,1.6,0,.86.86,0,0,1,.27.68.86.86,0,0,1-.27.68,1.48,1.48,0,0,1-1.6,0Zm0,8.43v-7h1.69v7Z" transform="translate(-2.64 -1.92)"/><path class="cls-1" d="M185.33,37.61a3.78,3.78,0,0,1-.86-2.71,3.84,3.84,0,0,1,.85-2.72,3.66,3.66,0,0,1,4.82,0A3.83,3.83,0,0,1,191,34.9a4.57,4.57,0,0,1-.39,2,2.65,2.65,0,0,1-1.13,1.21,3.59,3.59,0,0,1-1.74.4A3.15,3.15,0,0,1,185.33,37.61Zm3.57-.92a3.05,3.05,0,0,0,.39-1.78,3.11,3.11,0,0,0-.39-1.81,1.56,1.56,0,0,0-2.34,0,3.05,3.05,0,0,0-.39,1.78,4.21,4.21,0,0,0,.18,1.38,1.39,1.39,0,0,0,.53.73,1.55,1.55,0,0,0,.86.22A1.37,1.37,0,0,0,188.9,36.7ZM187,30.43,188.37,28h1.8l-1.67,2.41Z" transform="translate(-2.64 -1.92)"/><path class="cls-1" d="M192.32,31.39h1.39l.12.74h.09a2.7,2.7,0,0,1,.94-.63,3.08,3.08,0,0,1,1.16-.22,2.29,2.29,0,0,1,1.71.64,2.78,2.78,0,0,1,.63,2v4.45h-1.68V34a1.38,1.38,0,0,0-.3-1,1.15,1.15,0,0,0-.86-.3,2.09,2.09,0,0,0-.83.18,1.72,1.72,0,0,0-.69.53v4.95h-1.68Z" transform="translate(-2.64 -1.92)"/></svg>